<svg width="1718" height="1182" xmlns="http://www.w3.org/2000/svg" xmlns:xlink="http://www.w3.org/1999/xlink" xml:space="preserve" overflow="hidden"><defs><clipPath id="clip0"><rect x="87" y="724" width="1718" height="1182"/></clipPath><clipPath id="clip1"><rect x="87" y="724" width="1718" height="1182"/></clipPath></defs><g clip-path="url(#clip0)" transform="translate(-87 -724)"><g clip-path="url(#clip1)"><g><g><g><path d="M762.356 1335.15 762.356 1342.08C762.356 1342.98 762.394 1344.8 764.47 1344.8L785.953 1344.8C788.585 1344.8 788.751 1342.98 788.751 1342.08L788.751 1335.15 762.356 1335.15" fill="#FFFFFF" fill-rule="nonzero" fill-opacity="1"/><path d="M762.356 1335.15 761.406 1335.15 761.406 1342.08C761.406 1342.31 761.406 1342.63 761.449 1343 761.52 1343.54 761.672 1344.2 762.161 1344.79 762.404 1345.08 762.736 1345.33 763.13 1345.5 763.525 1345.67 763.976 1345.75 764.47 1345.75L785.953 1345.75C786.718 1345.75 787.368 1345.62 787.91 1345.36 788.314 1345.16 788.651 1344.9 788.908 1344.6 789.288 1344.15 789.487 1343.65 789.587 1343.21 789.687 1342.76 789.701 1342.37 789.701 1342.08L789.701 1335.15C789.701 1334.89 789.601 1334.66 789.425 1334.48 789.245 1334.3 789.007 1334.2 788.751 1334.2L762.356 1334.2C762.104 1334.2 761.862 1334.3 761.681 1334.48 761.506 1334.65 761.406 1334.9 761.406 1335.15L762.356 1335.15 762.356 1336.1 787.801 1336.1 787.801 1342.08C787.801 1342.27 787.791 1342.5 787.753 1342.71 787.72 1342.86 787.677 1343.01 787.611 1343.14 787.516 1343.33 787.397 1343.47 787.169 1343.6 786.946 1343.73 786.57 1343.85 785.953 1343.85L764.47 1343.85C764.085 1343.85 763.891 1343.77 763.767 1343.7 763.677 1343.64 763.61 1343.57 763.548 1343.48 763.458 1343.33 763.387 1343.11 763.349 1342.85 763.311 1342.6 763.306 1342.32 763.306 1342.08L763.306 1335.15 762.356 1335.15 762.356 1336.1 762.356 1335.15" fill="#FFFFFF" fill-rule="nonzero" fill-opacity="1"/><path d="M792.998 1371.03C784.504 1357.83 786.651 1347.76 787.791 1338.59L763.05 1338.59C763.672 1343.61 765.026 1360.06 757.843 1371.03 749.277 1384.11 745.543 1399.2 746.973 1419.07 748.398 1438.94 754.584 1471.13 750.303 1484.47 746.018 1497.8 757.914 1499.31 765.292 1499.31L786.765 1499.31C794.143 1499.31 806.034 1497.8 801.754 1484.47 797.473 1471.13 803.659 1438.94 805.084 1419.07 806.509 1399.2 801.464 1384.19 792.998 1371.03" fill="#FFFFFF" fill-rule="nonzero" fill-opacity="1"/><path d="M792.998 1371.03 793.801 1370.52C791.345 1366.7 789.806 1363.18 788.879 1359.87 787.953 1356.56 787.634 1353.47 787.634 1350.51 787.634 1346.38 788.262 1342.5 788.732 1338.71 788.77 1338.44 788.684 1338.16 788.504 1337.96 788.323 1337.76 788.062 1337.64 787.791 1337.64L763.05 1337.64C762.779 1337.64 762.518 1337.76 762.337 1337.96 762.156 1338.16 762.076 1338.44 762.109 1338.71 762.323 1340.43 762.627 1343.55 762.627 1347.33 762.627 1350.84 762.361 1354.92 761.529 1358.98 760.698 1363.05 759.297 1367.08 757.049 1370.51 749.567 1381.93 745.719 1394.9 745.724 1411.06 745.724 1413.67 745.824 1416.36 746.023 1419.14 746.56 1426.63 747.767 1435.82 748.84 1445.09 749.909 1454.35 750.84 1463.69 750.84 1471.42 750.84 1476.57 750.417 1481.01 749.396 1484.18 748.745 1486.2 748.446 1487.99 748.446 1489.58 748.441 1491.91 749.106 1493.83 750.237 1495.31 751.078 1496.42 752.166 1497.29 753.368 1497.95 755.178 1498.94 757.254 1499.51 759.335 1499.84 761.411 1500.17 763.487 1500.26 765.292 1500.26L786.765 1500.26C789.972 1500.25 794.038 1499.99 797.445 1498.55 799.145 1497.83 800.689 1496.8 801.82 1495.31 802.946 1493.83 803.616 1491.91 803.606 1489.58 803.606 1487.99 803.307 1486.2 802.656 1484.18 801.64 1481.01 801.212 1476.57 801.217 1471.42 801.217 1463.69 802.148 1454.35 803.217 1445.09 804.286 1435.82 805.492 1426.63 806.034 1419.14 806.195 1416.87 806.276 1414.66 806.276 1412.51 806.281 1395.64 801.378 1382.3 793.801 1370.52L792.998 1371.03 792.2 1371.55C799.625 1383.1 804.371 1396.01 804.376 1412.51 804.376 1414.62 804.295 1416.78 804.138 1419 803.606 1426.41 802.404 1435.59 801.331 1444.87 800.257 1454.16 799.316 1463.54 799.316 1471.42 799.321 1476.67 799.73 1481.26 800.851 1484.76 801.45 1486.63 801.711 1488.23 801.706 1489.58 801.706 1491.56 801.174 1493.01 800.305 1494.17 799.649 1495.03 798.789 1495.72 797.772 1496.28 796.243 1497.13 794.361 1497.66 792.428 1497.96 790.494 1498.27 788.504 1498.36 786.765 1498.36L765.292 1498.36C762.199 1498.36 758.323 1498.07 755.353 1496.8 753.867 1496.17 752.622 1495.31 751.748 1494.17 750.883 1493.01 750.351 1491.56 750.346 1489.58 750.346 1488.23 750.603 1486.63 751.206 1484.76 752.327 1481.26 752.736 1476.67 752.741 1471.42 752.736 1463.54 751.795 1454.16 750.726 1444.87 749.653 1435.59 748.451 1426.41 747.919 1419 747.719 1416.26 747.624 1413.62 747.624 1411.06 747.629 1395.19 751.368 1382.67 758.636 1371.55 761.059 1367.85 762.522 1363.59 763.392 1359.37 764.256 1355.14 764.527 1350.94 764.527 1347.33 764.527 1343.45 764.214 1340.26 763.995 1338.47L763.05 1338.59 763.05 1339.54 787.791 1339.54 787.791 1338.59 786.846 1338.47C786.385 1342.22 785.734 1346.18 785.734 1350.51 785.734 1353.61 786.071 1356.89 787.05 1360.38 788.029 1363.88 789.654 1367.59 792.2 1371.55L792.998 1371.03" fill="#FFFFFF" fill-rule="nonzero" fill-opacity="1"/><path d="M755.62 1382.82C752.565 1392.46 751.391 1403.39 752.19 1416.48 753.349 1435.62 758.389 1466.62 754.897 1479.46 751.41 1492.29 761.102 1493.74 767.111 1493.74L784.599 1493.74C790.608 1493.74 800.3 1492.29 796.813 1479.46 793.321 1466.62 798.362 1435.62 799.521 1416.48 800.319 1403.38 798.642 1392.46 795.288 1382.82L755.62 1382.82" fill="#FFFFFF" fill-rule="nonzero" fill-opacity="1"/><path d="M755.62 1382.82 754.764 1382.55C752.299 1390.32 751.045 1398.93 751.045 1408.77 751.045 1411.28 751.13 1413.86 751.292 1416.54 751.729 1423.75 752.712 1432.6 753.581 1441.52 754.456 1450.44 755.216 1459.43 755.211 1466.89 755.216 1471.86 754.869 1476.15 754.033 1479.22 753.505 1481.16 753.263 1482.86 753.263 1484.38 753.263 1486.6 753.79 1488.41 754.707 1489.83 755.391 1490.9 756.285 1491.74 757.282 1492.39 758.774 1493.36 760.498 1493.92 762.209 1494.24 763.924 1494.56 765.629 1494.64 767.111 1494.64L784.599 1494.64C787.226 1494.64 790.58 1494.38 793.402 1492.98 794.808 1492.27 796.086 1491.26 797.003 1489.83 797.915 1488.41 798.447 1486.6 798.442 1484.38 798.442 1482.86 798.2 1481.16 797.677 1479.22 796.837 1476.15 796.495 1471.86 796.495 1466.89 796.495 1459.43 797.255 1450.44 798.129 1441.52 798.998 1432.6 799.982 1423.75 800.419 1416.54 800.552 1414.35 800.613 1412.23 800.613 1410.16 800.613 1399.71 798.965 1390.67 796.133 1382.52 796.01 1382.16 795.673 1381.92 795.288 1381.92L755.62 1381.92C755.23 1381.92 754.883 1382.17 754.764 1382.55L755.62 1382.82 755.62 1383.72 795.288 1383.72 795.288 1382.82 794.442 1383.11C797.202 1391.07 798.822 1399.9 798.822 1410.16 798.822 1412.19 798.761 1414.28 798.628 1416.43 798.195 1423.57 797.212 1432.41 796.343 1441.35 795.468 1450.28 794.703 1459.31 794.699 1466.89 794.703 1471.95 795.041 1476.34 795.943 1479.69 796.438 1481.51 796.651 1483.06 796.651 1484.38 796.651 1486.32 796.2 1487.75 795.492 1488.86 794.955 1489.7 794.266 1490.36 793.449 1490.89 792.228 1491.69 790.727 1492.18 789.169 1492.47 787.611 1492.76 786.01 1492.85 784.599 1492.85L767.111 1492.85C764.608 1492.85 761.482 1492.57 759.111 1491.38 757.924 1490.78 756.931 1489.97 756.218 1488.86 755.505 1487.75 755.059 1486.32 755.059 1484.38 755.059 1483.06 755.273 1481.51 755.767 1479.69 756.669 1476.34 757.007 1471.95 757.007 1466.89 757.007 1459.31 756.242 1450.28 755.368 1441.35 754.498 1432.41 753.515 1423.57 753.083 1416.43 752.921 1413.79 752.84 1411.24 752.84 1408.77 752.84 1399.08 754.071 1390.67 756.475 1383.09L755.62 1382.82 755.62 1383.72 755.62 1382.82" fill="#FFFFFF" fill-rule="nonzero" fill-opacity="1"/><path d="M795.316 1382.75C795.316 1384.39 786.433 1385.72 775.473 1385.72 764.518 1385.72 755.634 1384.39 755.634 1382.75 755.634 1381.11 764.518 1379.78 775.473 1379.78 786.433 1379.78 795.316 1381.11 795.316 1382.75" fill="#FFFFFF" fill-rule="nonzero" fill-opacity="1"/><path d="M795.316 1382.75 794.418 1382.75 794.77 1382.75 794.471 1382.55C794.461 1382.56 794.418 1382.65 794.418 1382.75L794.77 1382.75 794.471 1382.55 794.537 1382.6 794.475 1382.55 794.471 1382.55 794.537 1382.6 794.475 1382.55 794.471 1382.55C794.447 1382.59 794.262 1382.73 793.948 1382.87 793.402 1383.12 792.49 1383.38 791.326 1383.62 787.82 1384.34 782.01 1384.82 775.473 1384.82 770.033 1384.82 765.102 1384.49 761.577 1383.96 759.814 1383.7 758.399 1383.38 757.491 1383.06 757.035 1382.9 756.712 1382.73 756.565 1382.62L756.489 1382.56 756.475 1382.55 756.299 1382.68 756.503 1382.6 756.475 1382.55 756.299 1382.68 756.503 1382.6 756.114 1382.75 756.527 1382.75C756.527 1382.7 756.517 1382.64 756.503 1382.6L756.114 1382.75 756.527 1382.75 756.18 1382.75 756.475 1382.95C756.489 1382.94 756.532 1382.86 756.527 1382.75L756.18 1382.75 756.475 1382.95 756.408 1382.9 756.475 1382.96 756.475 1382.95 756.408 1382.9 756.475 1382.96 756.479 1382.95C756.503 1382.91 756.688 1382.77 757.002 1382.64 757.548 1382.39 758.46 1382.12 759.624 1381.88 763.13 1381.16 768.936 1380.68 775.473 1380.68 780.917 1380.68 785.843 1381.01 789.373 1381.54 791.131 1381.8 792.547 1382.12 793.459 1382.44 793.91 1382.6 794.238 1382.77 794.385 1382.88L794.461 1382.94 794.475 1382.96 794.651 1382.82 794.447 1382.9 794.475 1382.96 794.651 1382.82 794.447 1382.9 794.832 1382.75 794.418 1382.75C794.418 1382.81 794.433 1382.86 794.447 1382.9L794.832 1382.75 794.418 1382.75 796.214 1382.75C796.214 1382.44 796.1 1382.16 795.958 1381.94 795.82 1381.74 795.654 1381.59 795.478 1381.46 795.145 1381.21 794.76 1381.02 794.3 1380.84 793.502 1380.53 792.471 1380.27 791.226 1380.03 787.501 1379.33 781.839 1378.89 775.473 1378.89 769.957 1378.89 764.964 1379.22 761.311 1379.76 759.482 1380.04 757.99 1380.36 756.893 1380.75 756.342 1380.95 755.89 1381.16 755.505 1381.43 755.315 1381.57 755.14 1381.73 754.992 1381.94 754.845 1382.16 754.736 1382.44 754.736 1382.75 754.736 1383.06 754.845 1383.35 754.992 1383.56 755.13 1383.76 755.296 1383.92 755.472 1384.05 755.805 1384.3 756.19 1384.48 756.646 1384.66 757.449 1384.97 758.475 1385.23 759.724 1385.46 763.449 1386.17 769.107 1386.61 775.473 1386.61 780.993 1386.61 785.981 1386.28 789.635 1385.74 791.468 1385.46 792.96 1385.14 794.057 1384.75 794.609 1384.55 795.06 1384.35 795.44 1384.07 795.635 1383.94 795.81 1383.77 795.958 1383.56 796.1 1383.35 796.214 1383.06 796.214 1382.75L795.316 1382.75" fill="#FFFFFF" fill-rule="nonzero" fill-opacity="1"/><path d="M796.875 1489.45C796.875 1492.71 787.454 1495.35 775.834 1495.35 764.209 1495.35 754.788 1492.71 754.788 1489.45 754.788 1486.18 764.209 1483.54 775.834 1483.54 787.454 1483.54 796.875 1486.18 796.875 1489.45" fill="#FFFFFF" fill-rule="nonzero" fill-opacity="1"/><path d="M796.875 1489.45 795.981 1489.45C795.977 1489.63 795.92 1489.84 795.725 1490.11 795.554 1490.34 795.278 1490.61 794.898 1490.88 794.228 1491.36 793.24 1491.84 792.01 1492.27 790.162 1492.93 787.763 1493.48 785.003 1493.86 782.247 1494.24 779.131 1494.46 775.834 1494.46 770.09 1494.46 764.888 1493.8 761.192 1492.76 759.344 1492.24 757.876 1491.62 756.935 1491 756.465 1490.68 756.133 1490.37 755.938 1490.11 755.743 1489.84 755.686 1489.63 755.681 1489.45 755.686 1489.26 755.743 1489.06 755.938 1488.78 756.109 1488.55 756.384 1488.28 756.764 1488.01 757.434 1487.53 758.418 1487.05 759.653 1486.62 761.501 1485.97 763.9 1485.42 766.655 1485.03 769.416 1484.65 772.532 1484.44 775.834 1484.44 781.573 1484.44 786.775 1485.1 790.471 1486.13 792.319 1486.65 793.787 1487.27 794.727 1487.89 795.198 1488.21 795.53 1488.52 795.725 1488.78 795.92 1489.06 795.977 1489.26 795.981 1489.45L797.772 1489.45C797.772 1488.82 797.54 1488.23 797.174 1487.73 796.851 1487.29 796.433 1486.9 795.934 1486.55 795.065 1485.93 793.948 1485.4 792.608 1484.93 790.599 1484.22 788.1 1483.65 785.25 1483.26 782.399 1482.86 779.207 1482.65 775.834 1482.65 769.948 1482.65 764.627 1483.31 760.708 1484.41 758.745 1484.96 757.135 1485.61 755.943 1486.4 755.349 1486.8 754.855 1487.22 754.489 1487.73 754.123 1488.23 753.885 1488.82 753.885 1489.45 753.885 1490.08 754.123 1490.67 754.489 1491.16 754.812 1491.61 755.23 1491.99 755.724 1492.34 756.593 1492.96 757.715 1493.49 759.054 1493.97 761.059 1494.67 763.563 1495.24 766.413 1495.63 769.259 1496.03 772.456 1496.25 775.834 1496.25 781.71 1496.25 787.036 1495.58 790.955 1494.48 792.917 1493.93 794.528 1493.28 795.72 1492.49 796.314 1492.09 796.803 1491.67 797.174 1491.16 797.54 1490.67 797.772 1490.08 797.772 1489.45L796.875 1489.45" fill="#FFFFFF" fill-rule="nonzero" fill-opacity="1"/><path d="M789.482 1338.44 789.482 1331.52C784.637 1332.35 777.596 1332.77 777.264 1332.77 776.931 1332.77 766.432 1332.35 761.591 1331.52L761.591 1338.44C761.591 1338.44 761.586 1338.88 761.591 1339.3 761.591 1339.78 761.881 1340.31 763.007 1340.7 767.905 1342.37 771.045 1342.55 775.81 1342.51 780.575 1342.55 783.307 1342.06 788.067 1340.7 789.212 1340.37 789.482 1339.78 789.482 1339.3 789.487 1338.88 789.482 1338.44 789.482 1338.44" fill="#FFFFFF" fill-rule="nonzero" fill-opacity="1"/><path d="M789.482 1338.44 790.433 1338.44 790.433 1331.52C790.433 1331.24 790.314 1330.97 790.095 1330.79 789.882 1330.61 789.601 1330.53 789.321 1330.58 786.946 1330.99 783.991 1331.3 781.601 1331.51 780.404 1331.61 779.344 1331.69 778.57 1331.74 778.181 1331.77 777.862 1331.79 777.634 1331.8 777.516 1331.81 777.425 1331.81 777.354 1331.82L777.278 1331.82 777.254 1331.82 777.264 1332.77 777.268 1331.82 777.268 1331.84 777.273 1331.82 777.268 1331.82 777.268 1331.84 777.273 1331.82C777.235 1331.82 777.012 1331.81 776.675 1331.8 775.496 1331.75 772.793 1331.62 769.867 1331.42 766.945 1331.22 763.786 1330.93 761.753 1330.58 761.472 1330.53 761.192 1330.61 760.978 1330.79 760.76 1330.97 760.641 1331.24 760.641 1331.52L760.641 1338.44 760.641 1338.43C760.641 1338.43 760.636 1338.63 760.636 1338.89 760.636 1339.02 760.636 1339.16 760.641 1339.31L760.641 1339.31C760.641 1339.52 760.674 1339.76 760.76 1339.99 760.888 1340.35 761.135 1340.69 761.463 1340.95 761.795 1341.22 762.199 1341.43 762.703 1341.6 765.016 1342.39 766.978 1342.86 768.898 1343.13 770.812 1343.4 772.679 1343.46 774.808 1343.46 775.14 1343.46 775.473 1343.46 775.815 1343.46L775.81 1342.51 775.8 1343.46C775.971 1343.46 776.138 1343.46 776.299 1343.46 778.565 1343.46 780.423 1343.33 782.285 1343.03 784.147 1342.73 786.014 1342.27 788.328 1341.61 789.022 1341.42 789.559 1341.11 789.929 1340.67 790.11 1340.46 790.243 1340.22 790.323 1339.98 790.399 1339.75 790.433 1339.52 790.433 1339.31L790.433 1339.31 790.433 1338.89 790.433 1338.43 790.433 1338.44 789.482 1338.44 788.532 1338.44 788.532 1338.89 788.532 1339.3 788.532 1339.3 788.523 1339.37C788.509 1339.4 788.504 1339.43 788.414 1339.51 788.328 1339.58 788.143 1339.69 787.805 1339.78 785.52 1340.44 783.739 1340.88 781.986 1341.16 780.228 1341.44 778.499 1341.56 776.299 1341.56 776.138 1341.56 775.981 1341.56 775.815 1341.56L775.8 1341.56C775.463 1341.56 775.131 1341.56 774.808 1341.56 772.713 1341.56 770.95 1341.5 769.159 1341.25 767.368 1341 765.544 1340.56 763.316 1339.8 762.85 1339.64 762.651 1339.48 762.589 1339.41L762.546 1339.34 762.541 1339.3 762.541 1339.29C762.536 1339.16 762.536 1339.02 762.536 1338.89 762.536 1338.64 762.541 1338.44 762.541 1338.44L762.541 1331.52 761.591 1331.52 761.43 1332.45C763.928 1332.88 767.767 1333.19 771.059 1333.4 772.698 1333.51 774.2 1333.59 775.311 1333.64 775.867 1333.67 776.323 1333.69 776.656 1333.7 776.817 1333.71 776.955 1333.71 777.05 1333.72 777.154 1333.72 777.207 1333.72 777.254 1333.72L777.268 1333.72C777.325 1333.72 777.368 1333.72 777.449 1333.72 778.551 1333.66 785.012 1333.25 789.644 1332.45L789.482 1331.52 788.532 1331.52 788.532 1338.44 789.482 1338.44" fill="#FFFFFF" fill-rule="nonzero" fill-opacity="1"/><path d="M789.492 1331.74C789.492 1334.53 783.24 1336.79 775.53 1336.79 767.819 1336.79 761.572 1334.53 761.572 1331.74 761.572 1328.96 767.819 1326.7 775.53 1326.7 783.24 1326.7 789.492 1328.96 789.492 1331.74" fill="#FFFFFF" fill-rule="nonzero" fill-opacity="1"/><path d="M789.492 1331.74 788.542 1331.74C788.542 1331.91 788.499 1332.08 788.38 1332.29 788.181 1332.66 787.711 1333.11 786.984 1333.54 785.896 1334.19 784.257 1334.78 782.285 1335.19 780.314 1335.6 778 1335.84 775.53 1335.84 771.772 1335.84 768.366 1335.28 765.981 1334.42 764.788 1333.99 763.862 1333.48 763.282 1332.98 762.997 1332.74 762.798 1332.5 762.679 1332.29 762.565 1332.08 762.522 1331.91 762.522 1331.74 762.522 1331.57 762.565 1331.41 762.679 1331.2 762.879 1330.83 763.349 1330.37 764.076 1329.94 765.164 1329.29 766.803 1328.7 768.774 1328.3 770.75 1327.89 773.059 1327.65 775.53 1327.65 779.292 1327.65 782.698 1328.2 785.079 1329.07 786.271 1329.5 787.202 1330.01 787.777 1330.5 788.067 1330.75 788.262 1330.99 788.38 1331.2 788.499 1331.41 788.542 1331.57 788.542 1331.74L790.442 1331.74C790.442 1331.22 790.29 1330.71 790.034 1330.26 789.582 1329.47 788.86 1328.85 787.958 1328.31 786.594 1327.51 784.794 1326.88 782.67 1326.44 780.556 1326 778.124 1325.75 775.53 1325.75 771.582 1325.75 768.005 1326.32 765.335 1327.28 764 1327.77 762.888 1328.35 762.047 1329.06 761.634 1329.41 761.282 1329.81 761.026 1330.26 760.774 1330.71 760.617 1331.22 760.622 1331.74 760.617 1332.27 760.774 1332.78 761.026 1333.23 761.477 1334.01 762.199 1334.64 763.107 1335.18 764.465 1335.98 766.266 1336.61 768.389 1337.05 770.508 1337.49 772.941 1337.74 775.53 1337.74 779.482 1337.74 783.055 1337.17 785.725 1336.2 787.06 1335.72 788.176 1335.14 789.012 1334.43 789.43 1334.07 789.782 1333.68 790.034 1333.23 790.29 1332.78 790.442 1332.27 790.442 1331.74L789.492 1331.74" fill="#FFFFFF" fill-rule="nonzero" fill-opacity="1"/></g></g></g><g><g><g><path d="M68.8665 36.8615C68.9527 37.998 69.5564 48.6781 62.426 54.869 55.8448 60.5833 50.1578 65.5214 50.1578 83.2226L50.1578 165.433C50.1578 165.519 50.1078 168.524 52.2774 170.748 53.9567 172.464 56.5665 173.34 60.0341 173.34L104.714 173.34C108.199 173.34 110.818 172.454 112.498 170.712 114.635 168.501 114.585 165.528 114.585 165.501L114.585 83.2226C114.585 65.5169 108.903 60.5833 102.317 54.869 95.1867 48.6781 95.7904 37.998 95.8766 36.8615L95.8766 24.9119 68.8665 24.9119ZM104.714 176.828 60.0341 176.828C55.5543 176.828 52.0913 175.584 49.7357 173.133 46.5449 169.82 46.6629 165.549 46.672 165.367L46.672 83.2203C46.672 63.9261 53.2078 58.2435 60.1385 52.2297 66.1886 46.9738 65.3944 37.1801 65.3807 37.0807L65.3762 36.9282 65.3762 21.4184 99.3715 21.4184 99.3624 37.0807C99.3533 37.1765 98.5863 47.0011 104.609 52.2297 111.535 58.2435 118.076 63.9261 118.076 83.2203L118.076 165.431C118.08 165.549 118.203 169.82 115.012 173.133 112.652 175.584 109.189 176.828 104.714 176.828" fill="#FFFFFF" fill-rule="nonzero" fill-opacity="1" transform="matrix(1.0076 0 0 1 610 885.006)"/><path d="M103.91 28.2696 103.91 21.1724C103.91 18.4033 101.668 16.1589 98.8949 16.1589L65.8573 16.1589C63.0796 16.1589 60.8329 18.4033 60.8329 21.1724L60.8329 28.2696 103.91 28.2696" fill="#FFFFFF" fill-rule="nonzero" fill-opacity="1" transform="matrix(1.0076 0 0 1 610 885.006)"/><path d="M110.773 100.583 53.9703 100.583 53.9703 160.372C53.9703 160.372 53.6798 168.442 63.6878 168.442L101.06 168.442C111.068 168.442 110.773 160.372 110.773 160.372L110.773 100.583" fill="#FFFFFF" fill-rule="nonzero" fill-opacity="1" transform="matrix(1.0076 0 0 1 610 885.006)"/></g></g></g><path d="M347.622 1471 225 1682 1340 1682 1217.38 1471Z" fill="#48C2C7" fill-rule="evenodd" fill-opacity="1"/><path d="M612.776 1024 490 1235 1075 1235 952.224 1024Z" fill="#FF6100" fill-rule="evenodd" fill-opacity="1"/><path d="M481.266 1247.5 358.5 1459.5 1207.5 1459.5 1084.73 1247.5Z" stroke="#404040" stroke-width="14.8958" stroke-linecap="butt" stroke-linejoin="round" stroke-miterlimit="10" stroke-opacity="1" fill="#FFC515" fill-rule="evenodd" fill-opacity="1"/><path d="M1740.5 1575.5 1627.5 1573.5" stroke="#0D0D0D" stroke-width="6.875" stroke-linecap="butt" stroke-linejoin="round" stroke-miterlimit="10" stroke-opacity="1" fill="none" fill-rule="evenodd"/><path d="M0 0 113 0.000360892" stroke="#4A4A4A" stroke-width="6.875" stroke-linecap="butt" stroke-linejoin="round" stroke-miterlimit="10" stroke-opacity="1" fill="none" fill-rule="evenodd" transform="matrix(-1 0 0 1 1740.5 1793.5)"/><path d="M211.691 1695 89 1906 1476 1906 1353.31 1695Z" fill="#1776BA" fill-rule="evenodd" fill-opacity="1"/><g><g><g><path d="M0 286 165.127 0 330.254 286Z" fill="#E73F4A" fill-rule="nonzero" fill-opacity="1" transform="matrix(1.00226 0 0 1 617 726)"/></g></g></g><text fill="#000000" fill-opacity="1" font-family="Lato,Lato_MSFontService,sans-serif" font-style="normal" font-variant="normal" font-weight="400" font-stretch="normal" font-size="31" text-anchor="start" direction="ltr" writing-mode="lr-tb" unicode-bidi="normal" text-decoration="none" transform="matrix(1 0 0 1 602.479 1390)">Monitoring &amp; Supervision</text><text fill="#FFFFFF" fill-opacity="1" font-family="Lato,Lato_MSFontService,sans-serif" font-style="normal" font-variant="normal" font-weight="400" font-stretch="normal" font-size="27" text-anchor="start" direction="ltr" writing-mode="lr-tb" unicode-bidi="normal" text-decoration="none" transform="matrix(1 0 0 1 609.452 1155)">Manufacturing Operations &amp; </text><text fill="#FFFFFF" fill-opacity="1" font-family="Lato,Lato_MSFontService,sans-serif" font-style="normal" font-variant="normal" font-weight="400" font-stretch="normal" font-size="27" text-anchor="start" direction="ltr" writing-mode="lr-tb" unicode-bidi="normal" text-decoration="none" transform="matrix(1 0 0 1 704.006 1187)">Management</text><text fill="#000000" fill-opacity="1" font-family="Lato,Lato_MSFontService,sans-serif" font-style="normal" font-variant="normal" font-weight="700" font-stretch="normal" font-size="55" text-anchor="start" direction="ltr" writing-mode="lr-tb" unicode-bidi="normal" text-decoration="none" transform="matrix(1 0 0 1 677.543 1343)">LEVEL 2</text><path d="M1512.5 1141.5 1399.5 1139.5" stroke="#4A4A4A" stroke-width="6.875" stroke-linecap="butt" stroke-linejoin="round" stroke-miterlimit="10" stroke-opacity="1" fill="none" fill-rule="evenodd"/><path d="M1524.5 929.5 1524.5 1353.5" stroke="#4A4A4A" stroke-width="6.875" stroke-linecap="butt" stroke-linejoin="round" stroke-miterlimit="10" stroke-opacity="1" fill="none" fill-rule="evenodd"/><path d="M1525.5 927.5 1412.5 925.5" stroke="#4A4A4A" stroke-width="6.875" stroke-linecap="butt" stroke-linejoin="round" stroke-miterlimit="10" stroke-opacity="1" fill="none" fill-rule="evenodd"/><path d="M1524.5 1353.5 1411.5 1353.5" stroke="#4A4A4A" stroke-width="6.875" stroke-linecap="butt" stroke-linejoin="round" stroke-miterlimit="10" stroke-opacity="1" fill="none" fill-rule="evenodd"/><text fill="#FFFFFF" fill-opacity="1" font-family="Lato,Lato_MSFontService,sans-serif" font-style="normal" font-variant="normal" font-weight="400" font-stretch="normal" font-size="27" text-anchor="start" direction="ltr" writing-mode="lr-tb" unicode-bidi="normal" text-decoration="none" transform="matrix(1 0 0 1 663.862 1837)">Production Process</text><text fill="#FFFFFF" fill-opacity="1" font-family="Lato,Lato_MSFontService,sans-serif" font-style="normal" font-variant="normal" font-weight="400" font-stretch="normal" font-size="27" text-anchor="start" direction="ltr" writing-mode="lr-tb" unicode-bidi="normal" text-decoration="none" transform="matrix(1 0 0 1 637.932 1613)">Sensing &amp; Manipulation</text><text fill="#FFFFFF" fill-opacity="1" font-family="Lato,Lato_MSFontService,sans-serif" font-style="normal" font-variant="normal" font-weight="400" font-stretch="normal" font-size="27" text-anchor="start" direction="ltr" writing-mode="lr-tb" unicode-bidi="normal" text-decoration="none" transform="matrix(1 0 0 1 676.246 960)">Business Planning</text><text fill="#FFFFFF" fill-opacity="1" font-family="Lato,Lato_MSFontService,sans-serif" font-style="normal" font-variant="normal" font-weight="400" font-stretch="normal" font-size="27" text-anchor="start" direction="ltr" writing-mode="lr-tb" unicode-bidi="normal" text-decoration="none" transform="matrix(1 0 0 1 719.009 992)">&amp; Logistics</text><text fill="#FFFFFF" fill-opacity="1" font-family="Lato,Lato_MSFontService,sans-serif" font-style="normal" font-variant="normal" font-weight="400" font-stretch="normal" font-size="42" text-anchor="start" direction="ltr" writing-mode="lr-tb" unicode-bidi="normal" text-decoration="none" transform="matrix(1 0 0 1 701.605 1792)">LEVEL 0</text><text fill="#FFFFFF" fill-opacity="1" font-family="Lato,Lato_MSFontService,sans-serif" font-style="normal" font-variant="normal" font-weight="400" font-stretch="normal" font-size="42" text-anchor="start" direction="ltr" writing-mode="lr-tb" unicode-bidi="normal" text-decoration="none" transform="matrix(1 0 0 1 701.605 1567)">LEVEL 1</text><rect x="605" y="1068" width="355" height="50.9999" fill="#FF6100" fill-opacity="1"/><text fill="#FFFFFF" fill-opacity="1" font-family="Lato,Lato_MSFontService,sans-serif" font-style="normal" font-variant="normal" font-weight="400" font-stretch="normal" font-size="42" text-anchor="start" direction="ltr" writing-mode="lr-tb" unicode-bidi="normal" text-decoration="none" transform="matrix(1 0 0 1 701.605 1109)">LEVEL 3</text><text fill="#FFFFFF" fill-opacity="1" font-family="Lato,Lato_MSFontService,sans-serif" font-style="normal" font-variant="normal" font-weight="400" font-stretch="normal" font-size="42" text-anchor="start" direction="ltr" writing-mode="lr-tb" unicode-bidi="normal" text-decoration="none" transform="matrix(1 0 0 1 703.64 915)">LEVEL 4</text><rect x="1498" y="966" width="61.9999" height="348" fill="#FF6100" fill-opacity="1"/><text fill="#FFFFFF" fill-opacity="1" font-family="Lato,Lato_MSFontService,sans-serif" font-style="normal" font-variant="normal" font-weight="400" font-stretch="normal" font-size="34" text-anchor="start" direction="ltr" writing-mode="lr-tb" unicode-bidi="normal" text-decoration="none" transform="matrix(6.12323e-17 1 -1 6.12323e-17 1518.84 1024)">IP NETWORKS</text><rect x="1738" y="1444" width="61.9999" height="457" fill="#FF6100" fill-opacity="1"/><text fill="#FFFFFF" fill-opacity="1" font-family="Lato,Lato_MSFontService,sans-serif" font-style="normal" font-variant="normal" font-weight="400" font-stretch="normal" font-size="34" text-anchor="start" direction="ltr" writing-mode="lr-tb" unicode-bidi="normal" text-decoration="none" transform="matrix(6.12323e-17 1 -1 6.12323e-17 1758.96 1525)">FIELD NETWORKS</text><rect x="1210" y="1117" width="226" height="42.0002" fill="#000000" fill-opacity="1"/><text fill="#FFFFFF" fill-opacity="1" font-family="Lato,Lato_MSFontService,sans-serif" font-style="normal" font-variant="normal" font-weight="400" font-stretch="normal" font-size="31" text-anchor="start" direction="ltr" writing-mode="lr-tb" unicode-bidi="normal" text-decoration="none" transform="matrix(1 0 0 1 1291.87 1152)">MES</text><rect x="1452" y="1551" width="227" height="41.9999" fill="#000000" fill-opacity="1"/><text fill="#FFFFFF" fill-opacity="1" font-family="Lato,Lato_MSFontService,sans-serif" font-style="normal" font-variant="normal" font-weight="400" font-stretch="normal" font-size="31" text-anchor="start" direction="ltr" writing-mode="lr-tb" unicode-bidi="normal" text-decoration="none" transform="matrix(1 0 0 1 1538.06 1585)">PLC</text><rect x="1452" y="1743" width="227" height="87" fill="#000000" fill-opacity="1"/><text fill="#FFFFFF" fill-opacity="1" font-family="Lato,Lato_MSFontService,sans-serif" font-style="normal" font-variant="normal" font-weight="400" font-stretch="normal" font-size="31" text-anchor="start" direction="ltr" writing-mode="lr-tb" unicode-bidi="normal" text-decoration="none" transform="matrix(1 0 0 1 1483.06 1777)">SENSORS &amp;</text><text fill="#FFFFFF" fill-opacity="1" font-family="Lato,Lato_MSFontService,sans-serif" font-style="normal" font-variant="normal" font-weight="400" font-stretch="normal" font-size="31" text-anchor="start" direction="ltr" writing-mode="lr-tb" unicode-bidi="normal" text-decoration="none" transform="matrix(1 0 0 1 1473.9 1823)">ACTUATORS</text><rect x="1210" y="905" width="226" height="40.9999" fill="#000000" fill-opacity="1"/><text fill="#FFFFFF" fill-opacity="1" font-family="Lato,Lato_MSFontService,sans-serif" font-style="normal" font-variant="normal" font-weight="400" font-stretch="normal" font-size="31" text-anchor="start" direction="ltr" writing-mode="lr-tb" unicode-bidi="normal" text-decoration="none" transform="matrix(1 0 0 1 1245.18 939)">ERP &amp; PLM</text><rect x="1117" y="1287" width="278" height="108" fill="#FFC000" fill-opacity="1"/><text fill="#000000" fill-opacity="1" font-family="Lato Black,Lato Black_MSFontService,sans-serif" font-style="normal" font-variant="normal" font-weight="900" font-stretch="normal" font-size="62" text-anchor="start" direction="ltr" writing-mode="lr-tb" unicode-bidi="normal" text-decoration="none" transform="matrix(1 0 0 1 1149.73 1364)">SCADA</text></g></g></svg>