<?xml version="1.0" encoding="UTF-8"?>
<svg id="Layer_1" data-name="Layer 1" xmlns="http://www.w3.org/2000/svg" xmlns:xlink="http://www.w3.org/1999/xlink" viewBox="0 0 612 792">
  <defs>
    <style>
      .cls-1 {
        fill: url(#linear-gradient-12);
      }

      .cls-1, .cls-2, .cls-3, .cls-4, .cls-5, .cls-6, .cls-7, .cls-8, .cls-9, .cls-10, .cls-11 {
        stroke-width: 0px;
      }

      .cls-12 {
        stroke: url(#linear-gradient-10);
      }

      .cls-12, .cls-13, .cls-14, .cls-15, .cls-16, .cls-17, .cls-18 {
        fill: none;
      }

      .cls-12, .cls-13, .cls-14, .cls-16 {
        stroke-width: 2.05px;
      }

      .cls-2 {
        fill: url(#linear-gradient-11);
      }

      .cls-3 {
        fill: url(#linear-gradient-5);
      }

      .cls-13 {
        stroke: url(#linear-gradient-2);
      }

      .cls-13, .cls-15, .cls-7 {
        isolation: isolate;
        opacity: .5;
      }

      .cls-14 {
        stroke: url(#linear-gradient);
      }

      .cls-15, .cls-16, .cls-17, .cls-18 {
        stroke: #fff;
        stroke-miterlimit: 10;
      }

      .cls-15, .cls-17 {
        stroke-width: .68px;
      }

      .cls-4 {
        fill: #0d93cb;
      }

      .cls-4, .cls-11 {
        fill-rule: evenodd;
      }

      .cls-5 {
        fill: url(#linear-gradient-7);
      }

      .cls-6 {
        fill: url(#linear-gradient-3);
      }

      .cls-7 {
        fill: url(#linear-gradient-9);
      }

      .cls-8 {
        fill: url(#linear-gradient-8);
      }

      .cls-9 {
        fill: #fff;
      }

      .cls-10 {
        fill: url(#linear-gradient-4);
      }

      .cls-18 {
        stroke-width: 3.42px;
      }

      .cls-11 {
        fill: url(#linear-gradient-6);
      }
    </style>
    <linearGradient id="linear-gradient" x1="28.81" y1="643.44" x2="-545.57" y2="368.95" gradientTransform="translate(564 1028) scale(1 -1)" gradientUnits="userSpaceOnUse">
      <stop offset=".08" stop-color="#0c8eca"/>
      <stop offset=".86" stop-color="#5dc7ce"/>
    </linearGradient>
    <linearGradient id="linear-gradient-2" x1="-31.21" y1="537.85" x2="-485.59" y2="320.15" xlink:href="#linear-gradient"/>
    <linearGradient id="linear-gradient-3" x1="-8.15" y1="788.54" x2="-969.53" y2="292.63" xlink:href="#linear-gradient"/>
    <linearGradient id="linear-gradient-4" x1="145.77" y1="664.74" x2="-282.55" y2="520.12" xlink:href="#linear-gradient"/>
    <linearGradient id="linear-gradient-5" x1="-662.53" y1="680.47" x2="198.81" y2="342.54" gradientTransform="translate(564 1028) scale(1 -1)" gradientUnits="userSpaceOnUse">
      <stop offset=".5" stop-color="#0c8eca"/>
      <stop offset=".96" stop-color="#5dc7ce"/>
    </linearGradient>
    <linearGradient id="linear-gradient-6" x1="92.1" y1="849.25" x2="-509.44" y2="388.23" xlink:href="#linear-gradient"/>
    <linearGradient id="linear-gradient-7" x1="-14.82" y1="540.1" x2="-561.55" y2="242.09" xlink:href="#linear-gradient"/>
    <linearGradient id="linear-gradient-8" x1="-605.62" y1="559" x2="-314.81" y2="454.03" xlink:href="#linear-gradient"/>
    <linearGradient id="linear-gradient-9" x1="-167.9" y1="975.92" x2="-283.64" y2="692.71" xlink:href="#linear-gradient"/>
    <linearGradient id="linear-gradient-10" x1="-256.1" y1="660.66" x2="-256.1" y2="865.78" gradientTransform="translate(564 1028) scale(1 -1)" gradientUnits="userSpaceOnUse">
      <stop offset=".08" stop-color="#0c8eca" stop-opacity="0"/>
      <stop offset=".86" stop-color="#5dc7ce"/>
    </linearGradient>
    <linearGradient id="linear-gradient-11" x1="-448.6" y1="949.25" x2="-173.11" y2="902.56" xlink:href="#linear-gradient"/>
    <linearGradient id="linear-gradient-12" x1="-246.54" y1="825.77" x2="-265.67" y2="820.52" xlink:href="#linear-gradient"/>
  </defs>
  <path class="cls-14" d="M30.86,521.86l274.85-157.91,274.63,157.91-274.63,157.7L30.86,521.86Z"/>
  <path class="cls-13" d="M88.49,599.05l217.18-124.47,217.04,124.47-217.04,124.3-217.18-124.3Z"/>
  <path class="cls-6" d="M549.89,368.59l-244.2-140.68L61.29,368.59l244.4,140.5,244.2-140.5Z"/>
  <path class="cls-10" d="M549.89,407.68v-39.18l-244.3,140.59.58,39.18,243.72-140.59Z"/>
  <path class="cls-3" d="M61.29,407.68v-39.18l244.3,140.59,1.16,39.18L61.29,407.68Z"/>
  <path class="cls-11" d="M585.01,446.26l-48.96-31.1-14.39,8.64,30.95,19.31-247.21,141.91L61.31,443.14l29.95-18.75-14.99-8.07-47.17,29.92-.08.04h.02s-.02,0-.02,0l.2.11,275.83,160.07.26-.15.24.15,279.39-160.12.1-.06h-.02Z"/>
  <path class="cls-5" d="M585.04,480.27v-34l-279.45,160.18v36.3l279.45-162.48Z"/>
  <path class="cls-8" d="M29.01,480.27v-34l277.16,160.18v36.3L29.01,480.27Z"/>
  <path class="cls-7" d="M581.02,273.53L305.69,114.97,30.18,273.53l275.51,158.35,275.33-158.35Z"/>
  <path class="cls-16" d="M190.01,402.26s10.26-5.53,10.6-18.67c.34-13.14-2.99-25.81,9.45-34.92,12.44-9.1,56.12-3.8,72.48-3.69,16.36.11,35.39-.12,47.71-16.25,12.2-16.13,22.92-29.04,32.96-32.38"/>
  <path class="cls-16" d="M180.1,396.95s11.18-7.84,27.08-11.87c15.92-4.03,42.99-10.25,54.4-22.47,11.42-12.21,24.33-35.72,45.64-41.6,21.32-5.88,39.18-5.99,51.26-9.1,12.22-3.11,17.86-7.49,17.86-7.49"/>
  <path class="cls-17" d="M320,271.23l65.58,38.03"/>
  <path class="cls-15" d="M287.72,287.48l68.23,39.53"/>
  <path class="cls-15" d="M258.8,305.23l67.88,39.41"/>
  <path class="cls-15" d="M228.73,322.05l68.11,39.53"/>
  <path class="cls-15" d="M200.27,340.49l66.38,38.6"/>
  <path class="cls-15" d="M168.35,356.39l71.78,41.72"/>
  <path class="cls-17" d="M137.34,372.29l71.8,41.72"/>
  <path class="cls-9" d="M141.96,372.52l4.15,2.42,19.47-12.79-4.28-3-19.35,13.37Z"/>
  <path class="cls-9" d="M148.4,376.44l2.77,1.61,11.18-7.72-2.53-1.73-11.42,7.84Z"/>
  <path class="cls-9" d="M201.65,338.3l4.13,2.54,19.59-12.91-4.38-2.88-19.35,13.25Z"/>
  <path class="cls-9" d="M208.1,342.33l2.77,1.61,11.18-7.72-2.53-1.73-11.42,7.84Z"/>
  <path class="cls-9" d="M260.43,303.84l4.14,2.54,8.87-5.88-4.38-2.88-8.63,6.22Z"/>
  <path class="cls-9" d="M319.3,269.96l4.15,2.42,8.87-5.76-4.38-3-8.65,6.34Z"/>
  <path class="cls-16" d="M208.44,417.12l2.77,1.61,7.39-5.18-2.65-1.73-7.51,5.3Z"/>
  <path class="cls-16" d="M237.36,400.07l2.77,1.61,7.39-5.19-2.55-1.73-7.61,5.3Z"/>
  <path class="cls-16" d="M268.13,383.36l2.77,1.61,7.39-5.19-2.65-1.73-7.51,5.3Z"/>
  <path class="cls-16" d="M297.64,365.72l2.77,1.61,7.37-5.07-2.65-1.84-7.49,5.3Z"/>
  <path class="cls-16" d="M327.27,349.82l2.75,1.61,7.39-5.07-2.65-1.73-7.49,5.18Z"/>
  <path class="cls-16" d="M355.95,332.3l2.77,1.61,7.37-5.18-2.65-1.73-7.49,5.3Z"/>
  <path class="cls-16" d="M385.58,314.56l2.75,1.61,7.39-5.07-2.65-1.84-7.49,5.3Z"/>
  <path class="cls-17" d="M368.86,431.4c.04-14.87-21.04-26.98-47.07-27.05-26.03-.07-47.19,11.92-47.23,26.79-.04,14.87,21.04,26.98,47.07,27.06,26.03.07,47.19-11.92,47.23-26.79Z"/>
  <path class="cls-17" d="M465,380.44c.04-9.68-13.69-17.57-30.65-17.62-16.96-.05-30.73,7.77-30.75,17.45-.04,9.68,13.69,17.57,30.65,17.62,16.96.05,30.73-7.77,30.75-17.45Z"/>
  <path class="cls-18" d="M434.35,362.82c-16.96-.05-30.73,7.76-30.75,17.45"/>
  <path class="cls-18" d="M321.79,404.35c26.03.07,47.11,12.18,47.07,27.05"/>
  <path class="cls-12" d="M307.9,144.93v227.02"/>
  <path class="cls-4" d="M244.25,156.96l29.79,17.88,48.78-50.12,1.87-6.17,12.69-7.87c10.56-6.5,12.73-15.98,12.46-32.24-.14-8.17-3.77-13.13-8.09-16.07l4.09-13.52-22.48-14.04c-2.97-3.03-6.42-5.03-9.33-5.84l-.7-.44c-.06.07-.12.15-.18.22-.42-.09-.84-.14-1.24-.17-38.2-1.9-50.12,48.77-51.47,62.85-10.58,5.42-37.39,30.61-27.64,53.91,2.77,6.6,6.92,10.05,11.46,11.6Z"/>
  <path class="cls-2" d="M369.68,129.6l-67.74,41.99s-27.08,15.98-36.83-7.31c-9.76-23.3,17.06-48.5,27.62-53.91,1.36-14.09,13.29-64.75,51.49-62.85,7.59.54,22.22,11.92,17.6,29.8,5.96.27,20.05,3.79,20.33,20.05.26,16.26-1.91,25.74-12.46,32.24Z"/>
  <circle class="cls-1" cx="307.9" cy="204.85" r="8.07"/>
</svg>