<?xml version="1.0" encoding="UTF-8"?>
<svg xmlns="http://www.w3.org/2000/svg" version="1.1" xmlns:xlink="http://www.w3.org/1999/xlink" viewBox="0 0 612 488.8">
  <defs>
    <style>
      .cls-1 {
        fill: url(#linear-gradient-38);
      }

      .cls-1, .cls-2, .cls-3, .cls-4, .cls-5, .cls-6, .cls-7, .cls-8, .cls-9, .cls-10, .cls-11, .cls-12, .cls-13, .cls-14, .cls-15, .cls-16, .cls-17, .cls-18, .cls-19, .cls-20, .cls-21, .cls-22, .cls-23, .cls-24, .cls-25, .cls-26, .cls-27, .cls-28, .cls-29, .cls-30, .cls-31, .cls-32, .cls-33, .cls-34, .cls-35, .cls-36, .cls-37, .cls-38, .cls-39, .cls-40, .cls-41, .cls-42, .cls-43, .cls-44, .cls-45, .cls-46, .cls-47, .cls-48, .cls-49, .cls-50, .cls-51, .cls-52, .cls-53, .cls-54, .cls-55, .cls-56, .cls-57, .cls-58, .cls-59, .cls-60, .cls-61, .cls-62, .cls-63, .cls-64, .cls-65, .cls-66, .cls-67, .cls-68, .cls-69, .cls-70, .cls-71, .cls-72, .cls-73, .cls-74, .cls-75, .cls-76, .cls-77, .cls-78, .cls-79, .cls-80, .cls-81, .cls-82, .cls-83, .cls-84, .cls-85, .cls-86, .cls-87, .cls-88, .cls-89, .cls-90, .cls-91, .cls-92, .cls-93, .cls-94, .cls-95, .cls-96, .cls-97, .cls-98, .cls-99, .cls-100, .cls-101, .cls-102, .cls-103, .cls-104, .cls-105, .cls-106, .cls-107, .cls-108, .cls-109, .cls-110, .cls-111, .cls-112, .cls-113, .cls-114, .cls-115, .cls-116, .cls-117, .cls-118, .cls-119, .cls-120, .cls-121, .cls-122, .cls-123, .cls-124, .cls-125, .cls-126, .cls-127, .cls-128, .cls-129, .cls-130, .cls-131, .cls-132, .cls-133, .cls-134, .cls-135, .cls-136, .cls-137, .cls-138, .cls-139, .cls-140, .cls-141, .cls-142, .cls-143, .cls-144, .cls-145, .cls-146, .cls-147 {
        stroke-width: 0px;
      }

      .cls-2 {
        fill: url(#_Г§Г“_Г‹Г€_ГЃ_ГЃГ“ГЌ_ПЂГЊГљ_2-2);
      }

      .cls-3 {
        fill: url(#linear-gradient-12);
      }

      .cls-4 {
        fill: url(#_Г§Г“_Г‹Г€_ГЃ_ГЃГ“ГЌ_ПЂГЊГљ_2-4);
      }

      .cls-5 {
        fill: url(#linear-gradient-120);
      }

      .cls-5, .cls-7, .cls-21, .cls-26, .cls-34, .cls-36, .cls-48, .cls-148, .cls-75, .cls-80, .cls-105, .cls-108, .cls-128 {
        mix-blend-mode: screen;
      }

      .cls-6 {
        fill: url(#linear-gradient-17);
      }

      .cls-7 {
        fill: url(#linear-gradient-121);
      }

      .cls-8 {
        fill: url(#linear-gradient-88);
      }

      .cls-9 {
        fill: url(#linear-gradient-19);
      }

      .cls-10 {
        fill: url(#linear-gradient-33);
      }

      .cls-11 {
        fill: url(#linear-gradient);
      }

      .cls-12 {
        fill: url(#linear-gradient-62);
      }

      .cls-13 {
        fill: url(#linear-gradient-92);
      }

      .cls-14 {
        fill: #e6414a;
      }

      .cls-15 {
        fill: url(#linear-gradient-98);
      }

      .cls-16 {
        fill: url(#linear-gradient-67);
      }

      .cls-17 {
        fill: url(#linear-gradient-57);
      }

      .cls-18 {
        fill: url(#linear-gradient-21);
      }

      .cls-19 {
        fill: url(#linear-gradient-6);
      }

      .cls-20 {
        fill: url(#linear-gradient-76);
      }

      .cls-21 {
        fill: url(#linear-gradient-8);
      }

      .cls-21, .cls-34, .cls-128 {
        opacity: .7;
      }

      .cls-22 {
        fill: url(#_Г§Г“_Г‹Г€_ГЃ_ГЃГ“ГЌ_ПЂГЊГљ_2-5);
      }

      .cls-23 {
        fill: url(#radial-gradient-8);
      }

      .cls-149 {
        isolation: isolate;
      }

      .cls-24 {
        fill: url(#linear-gradient-42);
      }

      .cls-25 {
        fill: url(#linear-gradient-104);
      }

      .cls-26 {
        fill: url(#linear-gradient-116);
      }

      .cls-27 {
        fill: url(#linear-gradient-95);
      }

      .cls-28 {
        fill: url(#linear-gradient-15);
      }

      .cls-29 {
        fill: url(#linear-gradient-106);
      }

      .cls-30 {
        fill: url(#linear-gradient-101);
      }

      .cls-31 {
        fill: url(#linear-gradient-81);
      }

      .cls-32 {
        fill: url(#linear-gradient-73);
      }

      .cls-33 {
        fill: url(#linear-gradient-91);
      }

      .cls-34 {
        fill: url(#linear-gradient-9);
      }

      .cls-35 {
        fill: url(#linear-gradient-5);
      }

      .cls-36 {
        fill: url(#linear-gradient-11);
      }

      .cls-36, .cls-48, .cls-150 {
        opacity: .4;
      }

      .cls-37 {
        fill: url(#linear-gradient-31);
      }

      .cls-38 {
        fill: url(#linear-gradient-103);
      }

      .cls-39 {
        fill: url(#linear-gradient-71);
      }

      .cls-40 {
        fill: url(#linear-gradient-58);
      }

      .cls-41 {
        fill: url(#linear-gradient-63);
      }

      .cls-42 {
        fill: url(#linear-gradient-34);
      }

      .cls-151 {
        stroke: #ea7d27;
      }

      .cls-151, .cls-152 {
        fill: none;
        stroke-linecap: round;
        stroke-linejoin: round;
        stroke-width: 8.1px;
      }

      .cls-43 {
        fill: url(#linear-gradient-96);
      }

      .cls-44 {
        fill: url(#linear-gradient-41);
      }

      .cls-45 {
        fill: url(#_Г§Г“_Г‹Г€_ГЃ_ГЃГ“ГЌ_ПЂГЊГљ_3-4);
      }

      .cls-46 {
        fill: url(#linear-gradient-89);
      }

      .cls-47 {
        fill: url(#linear-gradient-40);
      }

      .cls-48 {
        fill: url(#linear-gradient-10);
      }

      .cls-49 {
        fill: url(#linear-gradient-66);
      }

      .cls-50 {
        fill: url(#linear-gradient-13);
      }

      .cls-51 {
        fill: url(#linear-gradient-23);
      }

      .cls-52 {
        fill: url(#linear-gradient-25);
      }

      .cls-53 {
        fill: url(#linear-gradient-43);
      }

      .cls-54 {
        fill: url(#linear-gradient-16);
      }

      .cls-55 {
        fill: url(#linear-gradient-22);
      }

      .cls-56 {
        fill: url(#linear-gradient-54);
      }

      .cls-57 {
        fill: url(#linear-gradient-55);
      }

      .cls-58 {
        fill: url(#linear-gradient-110);
      }

      .cls-59 {
        fill: url(#linear-gradient-35);
      }

      .cls-60 {
        fill: url(#linear-gradient-50);
      }

      .cls-61 {
        fill: #ffc919;
      }

      .cls-62 {
        fill: url(#linear-gradient-32);
      }

      .cls-63 {
        fill: url(#linear-gradient-60);
      }

      .cls-64 {
        fill: url(#linear-gradient-59);
      }

      .cls-65 {
        fill: url(#linear-gradient-20);
      }

      .cls-66 {
        fill: url(#_Г§Г“_Г‹Г€_ГЃ_ГЃГ“ГЌ_ПЂГЊГљ_2-7);
      }

      .cls-152 {
        stroke: #ffc617;
      }

      .cls-67 {
        fill: url(#linear-gradient-14);
      }

      .cls-68 {
        fill: url(#_Г§Г“_Г‹Г€_ГЃ_ГЃГ“ГЌ_ПЂГЊГљ_2);
      }

      .cls-69 {
        fill: url(#linear-gradient-2);
      }

      .cls-70 {
        fill: url(#linear-gradient-52);
      }

      .cls-71 {
        fill: url(#_Г§Г“_Г‹Г€_ГЃ_ГЃГ“ГЌ_ПЂГЊГљ_3-2);
      }

      .cls-72 {
        fill: url(#linear-gradient-45);
      }

      .cls-73 {
        fill: url(#_Г§Г“_Г‹Г€_ГЃ_ГЃГ“ГЌ_ПЂГЊГљ_2-3);
      }

      .cls-74 {
        fill: url(#linear-gradient-93);
      }

      .cls-75 {
        fill: url(#linear-gradient-119);
      }

      .cls-76 {
        fill: url(#radial-gradient-2);
      }

      .cls-77 {
        fill: url(#linear-gradient-39);
      }

      .cls-78 {
        fill: url(#radial-gradient-7);
      }

      .cls-79 {
        fill: url(#linear-gradient-3);
      }

      .cls-80 {
        fill: url(#linear-gradient-122);
      }

      .cls-81 {
        fill: url(#linear-gradient-77);
      }

      .cls-82 {
        fill: url(#linear-gradient-69);
      }

      .cls-83 {
        fill: url(#radial-gradient-5);
      }

      .cls-84 {
        fill: url(#linear-gradient-94);
      }

      .cls-85 {
        fill: url(#linear-gradient-27);
      }

      .cls-86 {
        fill: url(#radial-gradient);
      }

      .cls-87 {
        fill: url(#linear-gradient-100);
      }

      .cls-88 {
        fill: url(#linear-gradient-82);
      }

      .cls-89 {
        fill: url(#linear-gradient-105);
      }

      .cls-90 {
        fill: url(#linear-gradient-83);
      }

      .cls-91 {
        fill: url(#linear-gradient-53);
      }

      .cls-92 {
        fill: url(#linear-gradient-90);
      }

      .cls-93 {
        fill: url(#linear-gradient-85);
      }

      .cls-94 {
        fill: url(#linear-gradient-65);
      }

      .cls-95 {
        fill: url(#linear-gradient-36);
      }

      .cls-96 {
        fill: url(#linear-gradient-48);
      }

      .cls-97 {
        fill: url(#_Г§Г“_Г‹Г€_ГЃ_ГЃГ“ГЌ_ПЂГЊГљ_3-3);
      }

      .cls-98 {
        fill: url(#linear-gradient-49);
      }

      .cls-99 {
        fill: url(#linear-gradient-47);
      }

      .cls-100 {
        fill: url(#linear-gradient-24);
      }

      .cls-101 {
        fill: url(#linear-gradient-26);
      }

      .cls-102 {
        fill: url(#linear-gradient-61);
      }

      .cls-103 {
        fill: url(#linear-gradient-114);
      }

      .cls-104 {
        fill: url(#linear-gradient-18);
      }

      .cls-105 {
        fill: url(#linear-gradient-118);
      }

      .cls-106 {
        fill: url(#linear-gradient-51);
      }

      .cls-107 {
        fill: url(#linear-gradient-30);
      }

      .cls-108 {
        fill: url(#linear-gradient-117);
      }

      .cls-109 {
        fill: url(#linear-gradient-44);
      }

      .cls-110 {
        fill: url(#linear-gradient-84);
      }

      .cls-111 {
        fill: url(#linear-gradient-97);
      }

      .cls-112 {
        fill: url(#linear-gradient-68);
      }

      .cls-113 {
        fill: url(#_Г§Г“_Г‹Г€_ГЃ_ГЃГ“ГЌ_ПЂГЊГљ_2-8);
      }

      .cls-114 {
        fill: url(#linear-gradient-72);
      }

      .cls-115 {
        fill: url(#linear-gradient-29);
      }

      .cls-116 {
        fill: url(#linear-gradient-46);
      }

      .cls-117 {
        fill: url(#linear-gradient-64);
      }

      .cls-118 {
        fill: url(#linear-gradient-107);
      }

      .cls-119 {
        fill: url(#linear-gradient-109);
      }

      .cls-120 {
        fill: url(#linear-gradient-113);
      }

      .cls-121 {
        fill: url(#radial-gradient-6);
      }

      .cls-122 {
        fill: url(#linear-gradient-28);
      }

      .cls-123 {
        fill: url(#linear-gradient-56);
      }

      .cls-124 {
        fill: url(#linear-gradient-99);
      }

      .cls-125 {
        fill: url(#linear-gradient-87);
      }

      .cls-126 {
        fill: url(#radial-gradient-3);
      }

      .cls-127 {
        fill: url(#linear-gradient-70);
      }

      .cls-128 {
        fill: url(#linear-gradient-7);
      }

      .cls-129 {
        fill: url(#linear-gradient-78);
      }

      .cls-130 {
        fill: url(#linear-gradient-86);
      }

      .cls-131 {
        fill: #ea7d27;
      }

      .cls-132 {
        fill: url(#linear-gradient-74);
      }

      .cls-133 {
        fill: url(#linear-gradient-102);
      }

      .cls-134 {
        fill: url(#linear-gradient-4);
      }

      .cls-135 {
        fill: url(#linear-gradient-112);
      }

      .cls-136 {
        fill: url(#_Г§Г“_Г‹Г€_ГЃ_ГЃГ“ГЌ_ПЂГЊГљ_3);
      }

      .cls-137 {
        fill: #4c4b4b;
      }

      .cls-138 {
        fill: url(#_Г§Г“_Г‹Г€_ГЃ_ГЃГ“ГЌ_ПЂГЊГљ_2-6);
      }

      .cls-139 {
        fill: url(#linear-gradient-37);
      }

      .cls-140 {
        fill: url(#linear-gradient-80);
      }

      .cls-141 {
        fill: #ffc617;
      }

      .cls-142 {
        fill: url(#linear-gradient-115);
      }

      .cls-143 {
        fill: url(#radial-gradient-4);
      }

      .cls-144 {
        fill: url(#linear-gradient-79);
      }

      .cls-145 {
        fill: url(#linear-gradient-111);
      }

      .cls-146 {
        fill: url(#linear-gradient-108);
      }

      .cls-147 {
        fill: url(#linear-gradient-75);
      }
    </style>
    <linearGradient id="linear-gradient" x1="363.6" y1="205.9" x2="375.9" y2="179.4" gradientUnits="userSpaceOnUse">
      <stop offset="0" stop-color="#e6424a"/>
      <stop offset="1" stop-color="#ffc919"/>
    </linearGradient>
    <linearGradient id="linear-gradient-2" x1="384.5" y1="263.1" x2="433.8" y2="263.1" xlink:href="#linear-gradient"/>
    <linearGradient id="linear-gradient-3" x1="224.2" y1="263.5" x2="273.5" y2="263.5" gradientUnits="userSpaceOnUse">
      <stop offset="0" stop-color="#ffc919"/>
      <stop offset="1" stop-color="#e6424a"/>
    </linearGradient>
    <linearGradient id="linear-gradient-4" x1="250.3" y1="210.2" x2="275.1" y2="210.2" xlink:href="#linear-gradient-3"/>
    <linearGradient id="_Г§Г“_Г‹Г€_ГЃ_ГЃГ“ГЌ_ПЂГЊГљ_3" data-name="Г§Г“вЂљГ‹Г€ ГЃпЈївЂЎГЃГ“ГЌ вЂћпЈївЂЎвЂ°ВҐПЂГЊГљвЂЎ 3" x1="368.3" y1="286.7" x2="381.7" y2="279.8" gradientUnits="userSpaceOnUse">
      <stop offset="0" stop-color="#fff"/>
      <stop offset="1" stop-color="#ffc617"/>
    </linearGradient>
    <linearGradient id="linear-gradient-5" x1="363.2" y1="285.8" x2="371.1" y2="307.2" gradientUnits="userSpaceOnUse">
      <stop offset="0" stop-color="#fff"/>
      <stop offset="1" stop-color="#ffc617"/>
    </linearGradient>
    <linearGradient id="_Г§Г“_Г‹Г€_ГЃ_ГЃГ“ГЌ_ПЂГЊГљ_3-2" data-name="Г§Г“вЂљГ‹Г€ ГЃпЈївЂЎГЃГ“ГЌ вЂћпЈївЂЎвЂ°ВҐПЂГЊГљвЂЎ 3" x1="6077.6" y1="317.4" x2="6091" y2="310.5" gradientTransform="translate(6366.8) rotate(-180) scale(1 -1)" xlink:href="#_Г§Г“_Г‹Г€_ГЃ_ГЃГ“ГЌ_ПЂГЊГљ_3"/>
    <linearGradient id="linear-gradient-6" x1="6072.5" y1="316.6" x2="6080.4" y2="338" gradientTransform="translate(6366.8) rotate(-180) scale(1 -1)" xlink:href="#linear-gradient-5"/>
    <linearGradient id="_Г§Г“_Г‹Г€_ГЃ_ГЃГ“ГЌ_ПЂГЊГљ_3-3" data-name="Г§Г“вЂљГ‹Г€ ГЃпЈївЂЎГЃГ“ГЌ вЂћпЈївЂЎвЂ°ВҐПЂГЊГљвЂЎ 3" x1="302.6" y1="203.7" x2="296.3" y2="187.3" xlink:href="#_Г§Г“_Г‹Г€_ГЃ_ГЃГ“ГЌ_ПЂГЊГљ_3"/>
    <linearGradient id="_Г§Г“_Г‹Г€_ГЃ_ГЃГ“ГЌ_ПЂГЊГљ_3-4" data-name="Г§Г“вЂљГ‹Г€ ГЃпЈївЂЎГЃГ“ГЌ вЂћпЈївЂЎвЂ°ВҐПЂГЊГљвЂЎ 3" x1="309.1" y1="210.7" x2="315.4" y2="192.9" xlink:href="#_Г§Г“_Г‹Г€_ГЃ_ГЃГ“ГЌ_ПЂГЊГљ_3"/>
    <linearGradient id="linear-gradient-7" x1="360.7" y1="282.1" x2="442" y2="328.6" gradientUnits="userSpaceOnUse">
      <stop offset="0" stop-color="#fff"/>
      <stop offset=".4" stop-color="#ffc617"/>
      <stop offset="1" stop-color="#ffc919"/>
    </linearGradient>
    <linearGradient id="linear-gradient-8" x1="5601.3" y1="312.5" x2="5682.6" y2="359" gradientTransform="translate(5898.2) rotate(-180) scale(1 -1)" xlink:href="#linear-gradient-7"/>
    <linearGradient id="linear-gradient-9" x1="302.1" y1="201.7" x2="302.1" y2="129.8" xlink:href="#linear-gradient-7"/>
    <linearGradient id="linear-gradient-10" x1="5430.1" y1="3587.3" x2="5430.1" y2="3515.5" gradientTransform="translate(5838.3 3942.7) rotate(-180)" xlink:href="#linear-gradient-7"/>
    <linearGradient id="linear-gradient-11" x1="439.4" y1="235.5" x2="520.6" y2="282.1" xlink:href="#linear-gradient-7"/>
    <radialGradient id="radial-gradient" cx="2310.8" cy="-720.9" fx="2310.8" fy="-720.9" r="420.8" gradientTransform="translate(276 220.4) scale(0)" gradientUnits="userSpaceOnUse">
      <stop offset="0" stop-color="#e6424a"/>
      <stop offset="1" stop-color="#ea7d27"/>
    </radialGradient>
    <linearGradient id="linear-gradient-12" x1="514" y1="157.6" x2="520.4" y2="161.3" gradientUnits="userSpaceOnUse">
      <stop offset="0" stop-color="#ea7d27"/>
      <stop offset="1" stop-color="#e6424a"/>
    </linearGradient>
    <linearGradient id="linear-gradient-13" x1="476.9" y1="158.1" x2="488.8" y2="164.9" xlink:href="#linear-gradient-12"/>
    <linearGradient id="linear-gradient-14" x1="493.2" y1="165.2" x2="511.3" y2="175.6" xlink:href="#linear-gradient-12"/>
    <linearGradient id="linear-gradient-15" x1="520.9" y1="169.3" x2="533.5" y2="176.6" xlink:href="#linear-gradient-12"/>
    <linearGradient id="linear-gradient-16" x1="471.5" y1="172.2" x2="484.5" y2="179.7" xlink:href="#linear-gradient-12"/>
    <linearGradient id="linear-gradient-17" x1="468" y1="170.2" x2="477.7" y2="175.7" xlink:href="#linear-gradient-12"/>
    <linearGradient id="linear-gradient-18" x1="517.2" y1="174" x2="524.3" y2="178.1" xlink:href="#linear-gradient-12"/>
    <linearGradient id="linear-gradient-19" x1="479.3" y1="174.5" x2="491.8" y2="181.8" xlink:href="#linear-gradient-12"/>
    <linearGradient id="linear-gradient-20" x1="497.6" y1="179.1" x2="510.8" y2="186.8" xlink:href="#linear-gradient-12"/>
    <linearGradient id="linear-gradient-21" x1="513.8" y1="181.8" x2="524.9" y2="188.2" xlink:href="#linear-gradient-12"/>
    <linearGradient id="linear-gradient-22" x1="505.9" y1="181.2" x2="518.2" y2="188.3" xlink:href="#linear-gradient-12"/>
    <linearGradient id="linear-gradient-23" x1="493.6" y1="183.5" x2="500.8" y2="187.7" xlink:href="#linear-gradient-12"/>
    <linearGradient id="_Г§Г“_Г‹Г€_ГЃ_ГЃГ“ГЌ_ПЂГЊГљ_2" data-name="Г§Г“вЂљГ‹Г€ ГЃпЈївЂЎГЃГ“ГЌ вЂћпЈївЂЎвЂ°ВҐПЂГЊГљвЂЎ 2" x1="502" y1="148.6" x2="502" y2="172.3" gradientUnits="userSpaceOnUse">
      <stop offset="0" stop-color="#ffc617"/>
      <stop offset=".4" stop-color="#ffc617"/>
      <stop offset="1" stop-color="#fee9ad"/>
    </linearGradient>
    <linearGradient id="linear-gradient-24" x1="482.8" y1="182.5" x2="497.5" y2="190.9" xlink:href="#linear-gradient-12"/>
    <linearGradient id="linear-gradient-25" x1="514" y1="146.1" x2="520.4" y2="149.8" xlink:href="#linear-gradient-12"/>
    <linearGradient id="linear-gradient-26" x1="476.9" y1="146.6" x2="488.8" y2="153.5" xlink:href="#linear-gradient-12"/>
    <linearGradient id="linear-gradient-27" x1="493.2" y1="153.7" x2="511.3" y2="164.2" xlink:href="#linear-gradient-12"/>
    <linearGradient id="linear-gradient-28" x1="520.9" y1="157.9" x2="533.5" y2="165.1" xlink:href="#linear-gradient-12"/>
    <linearGradient id="linear-gradient-29" x1="471.5" y1="160.7" x2="484.5" y2="168.2" xlink:href="#linear-gradient-12"/>
    <linearGradient id="linear-gradient-30" x1="468" y1="158.7" x2="477.7" y2="164.3" xlink:href="#linear-gradient-12"/>
    <linearGradient id="linear-gradient-31" x1="517.2" y1="162.5" x2="524.3" y2="166.6" xlink:href="#linear-gradient-12"/>
    <linearGradient id="linear-gradient-32" x1="479.3" y1="163.1" x2="491.8" y2="170.3" xlink:href="#linear-gradient-12"/>
    <linearGradient id="linear-gradient-33" x1="497.6" y1="167.6" x2="510.8" y2="175.3" xlink:href="#linear-gradient-12"/>
    <linearGradient id="linear-gradient-34" x1="513.8" y1="170.3" x2="524.9" y2="176.7" xlink:href="#linear-gradient-12"/>
    <linearGradient id="linear-gradient-35" x1="505.9" y1="169.7" x2="518.2" y2="176.8" xlink:href="#linear-gradient-12"/>
    <linearGradient id="linear-gradient-36" x1="493.6" y1="172.1" x2="500.8" y2="176.2" xlink:href="#linear-gradient-12"/>
    <linearGradient id="_Г§Г“_Г‹Г€_ГЃ_ГЃГ“ГЌ_ПЂГЊГљ_2-2" data-name="Г§Г“вЂљГ‹Г€ ГЃпЈївЂЎГЃГ“ГЌ вЂћпЈївЂЎвЂ°ВҐПЂГЊГљвЂЎ 2" y1="137.1" y2="160.8" xlink:href="#_Г§Г“_Г‹Г€_ГЃ_ГЃГ“ГЌ_ПЂГЊГљ_2"/>
    <linearGradient id="linear-gradient-37" x1="482.8" y1="171" x2="497.5" y2="179.5" xlink:href="#linear-gradient-12"/>
    <radialGradient id="radial-gradient-2" cx="2310.8" cy="-591.5" fx="2310.8" fy="-591.5" r="485.5" gradientTransform="translate(276 220.4) scale(0)" gradientUnits="userSpaceOnUse">
      <stop offset="0" stop-color="#fff"/>
      <stop offset=".4" stop-color="#fee9ad"/>
      <stop offset="1" stop-color="#ffc617"/>
    </radialGradient>
    <radialGradient id="radial-gradient-3" cx="-370.7" cy="-1437.3" fx="-370.7" fy="-1437.3" r="311.7" xlink:href="#radial-gradient"/>
    <linearGradient id="linear-gradient-38" x1="248.6" y1="85.5" x2="253.4" y2="88.3" xlink:href="#linear-gradient-12"/>
    <linearGradient id="linear-gradient-39" x1="221.2" y1="85.9" x2="229.9" y2="90.9" xlink:href="#linear-gradient-12"/>
    <linearGradient id="linear-gradient-40" x1="233.2" y1="91.1" x2="246.6" y2="98.9" xlink:href="#linear-gradient-12"/>
    <linearGradient id="linear-gradient-41" x1="253.8" y1="94.2" x2="263.1" y2="99.6" xlink:href="#linear-gradient-12"/>
    <linearGradient id="linear-gradient-42" x1="217.2" y1="96.3" x2="226.7" y2="101.9" xlink:href="#linear-gradient-12"/>
    <linearGradient id="linear-gradient-43" x1="214.5" y1="94.8" x2="221.7" y2="99" xlink:href="#linear-gradient-12"/>
    <linearGradient id="linear-gradient-44" x1="251" y1="97.7" x2="256.2" y2="100.7" xlink:href="#linear-gradient-12"/>
    <linearGradient id="linear-gradient-45" x1="222.9" y1="98.1" x2="232.2" y2="103.4" xlink:href="#linear-gradient-12"/>
    <linearGradient id="linear-gradient-46" x1="236.5" y1="101.5" x2="246.3" y2="107.1" xlink:href="#linear-gradient-12"/>
    <linearGradient id="linear-gradient-47" x1="248.5" y1="103.4" x2="256.7" y2="108.2" xlink:href="#linear-gradient-12"/>
    <linearGradient id="linear-gradient-48" x1="242.6" y1="103" x2="251.7" y2="108.2" xlink:href="#linear-gradient-12"/>
    <linearGradient id="linear-gradient-49" x1="233.5" y1="104.7" x2="238.8" y2="107.8" xlink:href="#linear-gradient-12"/>
    <linearGradient id="_Г§Г“_Г‹Г€_ГЃ_ГЃГ“ГЌ_ПЂГЊГљ_2-3" data-name="Г§Г“вЂљГ‹Г€ ГЃпЈївЂЎГЃГ“ГЌ вЂћпЈївЂЎвЂ°ВҐПЂГЊГљвЂЎ 2" x1="239.8" y1="78.9" x2="239.8" y2="96.4" xlink:href="#_Г§Г“_Г‹Г€_ГЃ_ГЃГ“ГЌ_ПЂГЊГљ_2"/>
    <linearGradient id="linear-gradient-50" x1="225.5" y1="104" x2="236.4" y2="110.2" xlink:href="#linear-gradient-12"/>
    <linearGradient id="linear-gradient-51" x1="248.6" y1="77" x2="253.4" y2="79.8" xlink:href="#linear-gradient-12"/>
    <linearGradient id="linear-gradient-52" x1="221.2" y1="77.4" x2="229.9" y2="82.4" xlink:href="#linear-gradient-12"/>
    <linearGradient id="linear-gradient-53" x1="233.2" y1="82.6" x2="246.6" y2="90.4" xlink:href="#linear-gradient-12"/>
    <linearGradient id="linear-gradient-54" x1="253.8" y1="85.7" x2="263.1" y2="91.1" xlink:href="#linear-gradient-12"/>
    <linearGradient id="linear-gradient-55" x1="217.2" y1="87.8" x2="226.7" y2="93.4" xlink:href="#linear-gradient-12"/>
    <linearGradient id="linear-gradient-56" x1="214.5" y1="86.3" x2="221.7" y2="90.5" xlink:href="#linear-gradient-12"/>
    <linearGradient id="linear-gradient-57" x1="251" y1="89.2" x2="256.2" y2="92.2" xlink:href="#linear-gradient-12"/>
    <linearGradient id="linear-gradient-58" x1="222.9" y1="89.6" x2="232.2" y2="94.9" xlink:href="#linear-gradient-12"/>
    <linearGradient id="linear-gradient-59" x1="236.5" y1="93" x2="246.3" y2="98.6" xlink:href="#linear-gradient-12"/>
    <linearGradient id="linear-gradient-60" x1="248.5" y1="94.9" x2="256.7" y2="99.7" xlink:href="#linear-gradient-12"/>
    <linearGradient id="linear-gradient-61" x1="242.6" y1="94.5" x2="251.7" y2="99.7" xlink:href="#linear-gradient-12"/>
    <linearGradient id="linear-gradient-62" x1="233.5" y1="96.2" x2="238.8" y2="99.3" xlink:href="#linear-gradient-12"/>
    <linearGradient id="_Г§Г“_Г‹Г€_ГЃ_ГЃГ“ГЌ_ПЂГЊГљ_2-4" data-name="Г§Г“вЂљГ‹Г€ ГЃпЈївЂЎГЃГ“ГЌ вЂћпЈївЂЎвЂ°ВҐПЂГЊГљвЂЎ 2" x1="239.8" y1="70.4" x2="239.8" y2="87.9" xlink:href="#_Г§Г“_Г‹Г€_ГЃ_ГЃГ“ГЌ_ПЂГЊГљ_2"/>
    <linearGradient id="linear-gradient-63" x1="225.5" y1="95.5" x2="236.4" y2="101.7" xlink:href="#linear-gradient-12"/>
    <radialGradient id="radial-gradient-4" cx="-370.7" cy="-1341.5" fx="-370.7" fy="-1341.5" r="359.6" xlink:href="#radial-gradient-2"/>
    <radialGradient id="radial-gradient-5" cx="-1310.5" cy="1151.6" fx="-1310.5" fy="1151.6" r="420.8" xlink:href="#radial-gradient"/>
    <linearGradient id="linear-gradient-64" x1="159.8" y1="340.7" x2="166.2" y2="344.4" xlink:href="#linear-gradient-12"/>
    <linearGradient id="linear-gradient-65" x1="122.7" y1="341.2" x2="134.6" y2="348.1" xlink:href="#linear-gradient-12"/>
    <linearGradient id="linear-gradient-66" x1="139" y1="348.3" x2="157.1" y2="358.8" xlink:href="#linear-gradient-12"/>
    <linearGradient id="linear-gradient-67" x1="166.7" y1="352.5" x2="179.3" y2="359.7" xlink:href="#linear-gradient-12"/>
    <linearGradient id="linear-gradient-68" x1="117.3" y1="355.4" x2="130.3" y2="362.8" xlink:href="#linear-gradient-12"/>
    <linearGradient id="linear-gradient-69" x1="113.8" y1="353.3" x2="123.5" y2="358.9" xlink:href="#linear-gradient-12"/>
    <linearGradient id="linear-gradient-70" x1="163" y1="357.2" x2="170.1" y2="361.2" xlink:href="#linear-gradient-12"/>
    <linearGradient id="linear-gradient-71" x1="125.1" y1="357.7" x2="137.6" y2="364.9" xlink:href="#linear-gradient-12"/>
    <linearGradient id="linear-gradient-72" x1="143.4" y1="362.3" x2="156.6" y2="369.9" xlink:href="#linear-gradient-12"/>
    <linearGradient id="linear-gradient-73" x1="159.6" y1="364.9" x2="170.7" y2="371.3" xlink:href="#linear-gradient-12"/>
    <linearGradient id="linear-gradient-74" x1="151.7" y1="364.3" x2="164" y2="371.4" xlink:href="#linear-gradient-12"/>
    <linearGradient id="linear-gradient-75" x1="139.4" y1="366.7" x2="146.6" y2="370.8" xlink:href="#linear-gradient-12"/>
    <linearGradient id="_Г§Г“_Г‹Г€_ГЃ_ГЃГ“ГЌ_ПЂГЊГљ_2-5" data-name="Г§Г“вЂљГ‹Г€ ГЃпЈївЂЎГЃГ“ГЌ вЂћпЈївЂЎвЂ°ВҐПЂГЊГљвЂЎ 2" x1="147.8" y1="331.8" x2="147.8" y2="355.4" xlink:href="#_Г§Г“_Г‹Г€_ГЃ_ГЃГ“ГЌ_ПЂГЊГљ_2"/>
    <linearGradient id="linear-gradient-76" x1="128.6" y1="365.6" x2="143.3" y2="374.1" xlink:href="#linear-gradient-12"/>
    <linearGradient id="linear-gradient-77" x1="159.8" y1="329.3" x2="166.2" y2="333" xlink:href="#linear-gradient-12"/>
    <linearGradient id="linear-gradient-78" x1="122.7" y1="329.8" x2="134.6" y2="336.6" xlink:href="#linear-gradient-12"/>
    <linearGradient id="linear-gradient-79" x1="139" y1="336.8" x2="157.1" y2="347.3" xlink:href="#linear-gradient-12"/>
    <linearGradient id="linear-gradient-80" x1="166.7" y1="341" x2="179.3" y2="348.3" xlink:href="#linear-gradient-12"/>
    <linearGradient id="linear-gradient-81" x1="117.3" y1="343.9" x2="130.3" y2="351.3" xlink:href="#linear-gradient-12"/>
    <linearGradient id="linear-gradient-82" x1="113.8" y1="341.8" x2="123.5" y2="347.4" xlink:href="#linear-gradient-12"/>
    <linearGradient id="linear-gradient-83" x1="163" y1="345.7" x2="170.1" y2="349.7" xlink:href="#linear-gradient-12"/>
    <linearGradient id="linear-gradient-84" x1="125.1" y1="346.2" x2="137.6" y2="353.4" xlink:href="#linear-gradient-12"/>
    <linearGradient id="linear-gradient-85" x1="143.4" y1="350.8" x2="156.6" y2="358.4" xlink:href="#linear-gradient-12"/>
    <linearGradient id="linear-gradient-86" x1="159.6" y1="353.4" x2="170.7" y2="359.8" xlink:href="#linear-gradient-12"/>
    <linearGradient id="linear-gradient-87" x1="151.7" y1="352.8" x2="164" y2="359.9" xlink:href="#linear-gradient-12"/>
    <linearGradient id="linear-gradient-88" x1="139.4" y1="355.2" x2="146.6" y2="359.4" xlink:href="#linear-gradient-12"/>
    <linearGradient id="_Г§Г“_Г‹Г€_ГЃ_ГЃГ“ГЌ_ПЂГЊГљ_2-6" data-name="Г§Г“вЂљГ‹Г€ ГЃпЈївЂЎГЃГ“ГЌ вЂћпЈївЂЎвЂ°ВҐПЂГЊГљвЂЎ 2" x1="147.8" y1="320.3" x2="147.8" y2="343.9" xlink:href="#_Г§Г“_Г‹Г€_ГЃ_ГЃГ“ГЌ_ПЂГЊГљ_2"/>
    <linearGradient id="linear-gradient-89" x1="128.6" y1="354.2" x2="143.3" y2="362.6" xlink:href="#linear-gradient-12"/>
    <radialGradient id="radial-gradient-6" cx="-1310.5" cy="1280.9" fx="-1310.5" fy="1280.9" r="485.5" xlink:href="#radial-gradient-2"/>
    <radialGradient id="radial-gradient-7" cx="1608.4" cy="2125.3" fx="1608.4" fy="2125.3" r="223.1" xlink:href="#radial-gradient"/>
    <linearGradient id="linear-gradient-90" x1="439.7" y1="432.3" x2="443.1" y2="434.3" xlink:href="#linear-gradient-12"/>
    <linearGradient id="linear-gradient-91" x1="420" y1="432.6" x2="426.3" y2="436.2" xlink:href="#linear-gradient-12"/>
    <linearGradient id="linear-gradient-92" x1="428.6" y1="436.4" x2="438.3" y2="441.9" xlink:href="#linear-gradient-12"/>
    <linearGradient id="linear-gradient-93" x1="443.3" y1="438.6" x2="450" y2="442.4" xlink:href="#linear-gradient-12"/>
    <linearGradient id="linear-gradient-94" x1="417.2" y1="440.1" x2="424" y2="444.1" xlink:href="#linear-gradient-12"/>
    <linearGradient id="linear-gradient-95" x1="415.3" y1="439" x2="420.4" y2="442" xlink:href="#linear-gradient-12"/>
    <linearGradient id="linear-gradient-96" x1="441.4" y1="441.1" x2="445.1" y2="443.2" xlink:href="#linear-gradient-12"/>
    <linearGradient id="linear-gradient-97" x1="421.3" y1="441.3" x2="427.9" y2="445.2" xlink:href="#linear-gradient-12"/>
    <linearGradient id="linear-gradient-98" x1="431" y1="443.8" x2="438" y2="447.8" xlink:href="#linear-gradient-12"/>
    <linearGradient id="linear-gradient-99" x1="439.5" y1="445.2" x2="445.4" y2="448.6" xlink:href="#linear-gradient-12"/>
    <linearGradient id="linear-gradient-100" x1="435.4" y1="444.9" x2="441.9" y2="448.6" xlink:href="#linear-gradient-12"/>
    <linearGradient id="linear-gradient-101" x1="428.8" y1="446.1" x2="432.7" y2="448.3" xlink:href="#linear-gradient-12"/>
    <linearGradient id="_Г§Г“_Г‹Г€_ГЃ_ГЃГ“ГЌ_ПЂГЊГљ_2-7" data-name="Г§Г“вЂљГ‹Г€ ГЃпЈївЂЎГЃГ“ГЌ вЂћпЈївЂЎвЂ°ВҐПЂГЊГљвЂЎ 2" x1="433.3" y1="427.6" x2="433.3" y2="440.1" xlink:href="#_Г§Г“_Г‹Г€_ГЃ_ГЃГ“ГЌ_ПЂГЊГљ_2"/>
    <linearGradient id="linear-gradient-102" x1="423.1" y1="445.6" x2="430.9" y2="450" xlink:href="#linear-gradient-12"/>
    <linearGradient id="linear-gradient-103" x1="439.7" y1="426.3" x2="443.1" y2="428.2" xlink:href="#linear-gradient-12"/>
    <linearGradient id="linear-gradient-104" x1="420" y1="426.5" x2="426.3" y2="430.2" xlink:href="#linear-gradient-12"/>
    <linearGradient id="linear-gradient-105" x1="428.6" y1="430.3" x2="438.3" y2="435.8" xlink:href="#linear-gradient-12"/>
    <linearGradient id="linear-gradient-106" x1="443.3" y1="432.5" x2="450" y2="436.3" xlink:href="#linear-gradient-12"/>
    <linearGradient id="linear-gradient-107" x1="417.2" y1="434" x2="424" y2="438" xlink:href="#linear-gradient-12"/>
    <linearGradient id="linear-gradient-108" x1="415.3" y1="432.9" x2="420.4" y2="435.9" xlink:href="#linear-gradient-12"/>
    <linearGradient id="linear-gradient-109" x1="441.4" y1="435" x2="445.1" y2="437.1" xlink:href="#linear-gradient-12"/>
    <linearGradient id="linear-gradient-110" x1="421.3" y1="435.3" x2="427.9" y2="439.1" xlink:href="#linear-gradient-12"/>
    <linearGradient id="linear-gradient-111" x1="431" y1="437.7" x2="438" y2="441.7" xlink:href="#linear-gradient-12"/>
    <linearGradient id="linear-gradient-112" x1="439.5" y1="439.1" x2="445.4" y2="442.5" xlink:href="#linear-gradient-12"/>
    <linearGradient id="linear-gradient-113" x1="435.4" y1="438.8" x2="441.9" y2="442.5" xlink:href="#linear-gradient-12"/>
    <linearGradient id="linear-gradient-114" x1="428.8" y1="440" x2="432.7" y2="442.2" xlink:href="#linear-gradient-12"/>
    <linearGradient id="_Г§Г“_Г‹Г€_ГЃ_ГЃГ“ГЌ_ПЂГЊГљ_2-8" data-name="Г§Г“вЂљГ‹Г€ ГЃпЈївЂЎГЃГ“ГЌ вЂћпЈївЂЎвЂ°ВҐПЂГЊГљвЂЎ 2" x1="433.3" y1="421.5" x2="433.3" y2="434.1" xlink:href="#_Г§Г“_Г‹Г€_ГЃ_ГЃГ“ГЌ_ПЂГЊГљ_2"/>
    <linearGradient id="linear-gradient-115" x1="423.1" y1="439.5" x2="430.9" y2="444" xlink:href="#linear-gradient-12"/>
    <radialGradient id="radial-gradient-8" cx="1608.4" cy="2193.9" fx="1608.4" fy="2193.9" r="257.5" xlink:href="#radial-gradient-2"/>
    <linearGradient id="linear-gradient-116" x1="-1432.5" y1="1623.5" x2="-1433.4" y2="1598.4" gradientTransform="translate(2588.9 756) rotate(59.3)" gradientUnits="userSpaceOnUse">
      <stop offset="0" stop-color="#ffc919"/>
      <stop offset=".4" stop-color="#ea7d27"/>
      <stop offset="1" stop-color="#ffc617"/>
    </linearGradient>
    <linearGradient id="linear-gradient-117" x1="-1606" y1="1916.7" x2="-1607" y2="1891.6" gradientTransform="translate(-1902 756) rotate(120.7) scale(1 -1)" xlink:href="#linear-gradient-116"/>
    <linearGradient id="linear-gradient-118" x1="-1686.3" y1="1880.9" x2="-1687.3" y2="1855.8" gradientTransform="translate(-1901.1 762.4) rotate(120.5) scale(1 -1)" xlink:href="#linear-gradient-116"/>
    <linearGradient id="linear-gradient-119" x1="-1591.2" y1="1800.3" x2="-1593" y2="1752.6" gradientTransform="translate(2406.9 762.4) rotate(59.5)" xlink:href="#linear-gradient-116"/>
    <linearGradient id="linear-gradient-120" x1="-2488.9" y1="2319" x2="-2489.8" y2="2295.1" gradientTransform="translate(1062.3 3346.8) rotate(119.8)" xlink:href="#linear-gradient-116"/>
    <linearGradient id="linear-gradient-121" x1="-2365.5" y1="2330.8" x2="-2366.4" y2="2306.9" gradientTransform="translate(1062.3 3346.8) rotate(119.8)" xlink:href="#linear-gradient-116"/>
    <linearGradient id="linear-gradient-122" x1="-1437.9" y1="1823.1" x2="-1438.9" y2="1797.9" xlink:href="#linear-gradient-116"/>
  </defs>
  <g class="cls-149">
    <g id="Layer_1" data-name="Layer 1">
      <g>
        <polygon class="cls-137" points="421.2 255.8 418.4 263.6 418.2 263.9 421.1 256.1 421.2 255.8"/>
        <polygon class="cls-11" points="356.4 187.7 356.5 216.1 381.2 201.9 381.1 173.5 356.4 187.7"/>
        <polygon class="cls-69" points="409.2 248.8 433.8 263.1 409.1 277.4 384.5 263.1 409.2 248.8"/>
        <polygon class="cls-79" points="248.9 249.2 273.5 263.5 248.8 277.8 224.2 263.5 248.9 249.2"/>
        <g class="cls-149">
          <polygon class="cls-131" points="274.6 325.2 274.6 353.6 249.8 339.3 249.9 310.9 274.6 325.2"/>
          <polygon class="cls-131" points="274.7 294.7 274.7 323.1 249.9 308.8 250 280.4 274.7 294.7"/>
        </g>
        <polygon class="cls-131" points="301.2 340.5 301.1 368.9 276.4 354.6 276.5 326.2 301.2 340.5"/>
        <polygon class="cls-131" points="328 264.4 327.9 292.8 303.2 278.5 303.2 250.1 328 264.4"/>
        <polygon class="cls-131" points="327.9 294.8 327.8 323.2 303.1 309 303.2 280.6 327.9 294.8"/>
        <polygon class="cls-131" points="327.8 325.3 327.7 353.7 303 339.5 303.1 311.1 327.8 325.3"/>
        <polygon class="cls-131" points="327.7 355.8 327.6 384.2 302.9 369.9 303 341.5 327.7 355.8"/>
        <polygon class="cls-131" points="248.2 279.4 248.1 307.8 223.4 293.5 223.5 265.1 248.2 279.4"/>
        <polygon class="cls-131" points="301.4 249 301.4 277.4 276.6 263.2 276.7 234.8 301.4 249"/>
        <polygon class="cls-131" points="301.3 279.5 301.3 307.9 276.5 293.7 276.6 265.2 301.3 279.5"/>
        <polygon class="cls-141" points="409.3 309.9 409.4 338.3 434.1 324 434.1 295.6 409.3 309.9"/>
        <polygon class="cls-141" points="382.6 233.7 382.6 262.1 407.4 247.9 407.3 219.4 382.6 233.7"/>
        <polygon class="cls-141" points="382.6 264.2 382.7 292.6 407.4 278.3 407.4 249.9 382.6 264.2"/>
        <polygon class="cls-141" points="329.5 264.4 329.6 292.8 354.3 278.5 354.2 250.1 329.5 264.4"/>
        <polygon class="cls-141" points="329.6 294.8 329.7 323.2 354.4 309 354.3 280.6 329.6 294.8"/>
        <polygon class="cls-141" points="329.7 325.3 329.7 353.7 354.5 339.5 354.4 311.1 329.7 325.3"/>
        <polygon class="cls-141" points="356.2 309.8 356.2 338.3 381 324 380.9 295.6 356.2 309.8"/>
        <polygon class="cls-141" points="329.7 355.8 329.8 384.2 354.6 369.9 354.5 341.5 329.7 355.8"/>
        <polygon class="cls-141" points="409.3 279.4 409.3 307.8 434.1 293.5 434 265.1 409.3 279.4"/>
        <polygon class="cls-141" points="356 249 356.1 277.4 380.8 263.2 380.7 234.8 356 249"/>
        <polygon class="cls-61" points="355.1 219 379.6 233.3 354.9 247.6 330.4 233.3 355.1 219"/>
        <polygon class="cls-61" points="381.6 203.7 406.2 218 381.5 232.3 356.9 218 381.6 203.7"/>
        <polygon class="cls-61" points="408.1 188.4 432.7 202.7 408 216.9 383.4 202.7 408.1 188.4"/>
        <polygon class="cls-61" points="355.4 157.8 380 172 355.3 186.3 330.7 172 355.4 157.8"/>
        <g class="cls-149">
          <polygon class="cls-61" points="302.5 157.8 327.1 172 302.4 186.3 277.8 172 302.5 157.8"/>
          <polygon class="cls-61" points="328.9 173.1 353.5 187.3 328.7 201.6 304.2 187.3 328.9 173.1"/>
        </g>
        <polygon class="cls-61" points="355.3 188.4 379.8 202.7 355.1 216.9 330.5 202.7 355.3 188.4"/>
        <polygon class="cls-61" points="328.7 203.7 353.3 218 328.6 232.3 304 218 328.7 203.7"/>
        <polygon class="cls-61" points="328.5 204 353.1 218.3 328.4 232.6 303.8 218.3 328.5 204"/>
        <polygon class="cls-134" points="275.1 203.1 275 231.5 250.3 217.2 250.4 188.8 275.1 203.1"/>
        <polygon class="cls-61" points="302.2 219 326.8 233.3 302 247.6 277.5 233.3 302.2 219"/>
        <polygon class="cls-61" points="328.6 234.3 353.1 248.6 328.4 262.9 303.8 248.6 328.6 234.3"/>
        <polygon class="cls-61" points="276 173.1 300.6 187.3 275.8 201.6 251.3 187.3 276 173.1"/>
        <g>
          <polygon class="cls-136" points="356.2 279.4 356.3 307.8 381 293.5 380.9 265.1 356.2 279.4"/>
          <polygon class="cls-35" points="356.2 279.4 356.3 307.8 381 293.5 381 293.5 356.4 279.3 356.2 279.4"/>
        </g>
        <g>
          <polygon class="cls-71" points="301.2 310.2 301.2 338.6 276.4 324.3 276.5 295.9 301.2 310.2"/>
          <polygon class="cls-19" points="301.2 310.2 301.2 338.6 276.4 324.3 276.4 324.3 301.1 310.1 301.2 310.2"/>
        </g>
        <g>
          <polygon class="cls-97" points="302.2 188.3 326.8 202.5 302.1 216.8 277.5 202.5 302.2 188.3"/>
          <polygon class="cls-45" points="302.2 216.7 326.8 202.5 302.2 188.3 302.2 188.3 302.2 216.7"/>
        </g>
        <g class="cls-149">
          <polygon class="cls-141" points="382.7 294.7 382.8 323.1 407.5 308.8 407.4 280.4 382.7 294.7"/>
        </g>
        <polygon class="cls-128" points="475 319 381.2 265.5 356.4 279.8 356.3 279.8 356.3 308.2 450.3 361.6 475.1 347.4 475.1 318.9 475 319"/>
        <polygon class="cls-21" points="182.6 349.4 276.4 295.9 301.2 310.2 301.3 310.2 301.3 338.6 207.3 392 182.6 377.8 182.6 349.4 182.6 349.4"/>
        <polygon class="cls-34" points="326.8 110.3 302.1 96 277.4 110.3 277.3 110.2 277.3 202.5 302.1 216.8 326.8 202.5 326.8 110.2 326.8 110.3"/>
        <polygon class="cls-61" points="275.8 203.7 300.4 218 275.7 232.3 251.1 218 275.8 203.7"/>
        <polygon class="cls-141" points="409.1 218.4 409.2 246.8 433.9 232.5 433.8 204.1 409.1 218.4"/>
        <polygon class="cls-141" points="356.3 340.5 356.4 368.9 381.1 354.6 381 326.2 356.3 340.5"/>
        <polygon class="cls-131" points="274.8 264.2 274.7 292.6 250 278.3 250.1 249.9 274.8 264.2"/>
        <polygon class="cls-131" points="274.9 233.7 274.8 262.1 250.1 247.9 250.2 219.4 274.9 233.7"/>
        <g>
          <path class="cls-141" d="M332.1,458.6c-27.1,0-53.3-5.3-78-15.8-23.9-10.1-45.3-24.6-63.7-43-18.4-18.4-32.9-39.9-43-63.7-10.5-24.7-15.8-51-15.8-78s5.3-53.3,15.8-78c10.1-23.9,24.6-45.3,43-63.7,18.4-18.4,39.9-32.9,63.7-43,24.7-10.5,51-15.8,78-15.8s53.3,5.3,78,15.8c23.9,10.1,45.3,24.6,63.7,43,18.4,18.4,32.9,39.9,43,63.7,10.5,24.7,15.8,51,15.8,78s-5.3,53.3-15.8,78c-10.1,23.9-24.6,45.3-43,63.7-18.4,18.4-39.9,32.9-63.7,43-24.7,10.5-51,15.8-78,15.8ZM332.1,58.7c-26.9,0-53,5.3-77.6,15.7-23.7,10-45.1,24.4-63.4,42.7-18.3,18.3-32.7,39.6-42.7,63.4-10.4,24.6-15.7,50.7-15.7,77.6s5.3,53,15.7,77.6c10,23.7,24.4,45.1,42.7,63.4,18.3,18.3,39.6,32.7,63.4,42.7,24.6,10.4,50.7,15.7,77.6,15.7s53-5.3,77.6-15.7c23.7-10,45.1-24.4,63.4-42.7,18.3-18.3,32.7-39.6,42.7-63.4,10.4-24.6,15.7-50.7,15.7-77.6s-5.3-53-15.7-77.6c-10-23.7-24.4-45.1-42.7-63.4-18.3-18.3-39.6-32.7-63.4-42.7-24.6-10.4-50.7-15.7-77.6-15.7Z"/>
          <g class="cls-149">
            <path class="cls-141" d="M395.3,441.1c-17.9,0-37-5.3-57-15.7-1.7-.9-3.4-1.8-5.2-2.8-.6-.3-1.2-.7-1.8-1l.5-.9c.6.3,1.2.7,1.8,1,2.1,1.2,4.1,2.3,6.2,3.3,19.4,10,38,15.1,55.4,15.1.1,0,.3,0,.4,0,.2,0,.4,0,.6,0,.7,0,1.3,0,2,0,0,0,0,0,0,0,21.2-.7,39.3-9.4,52.4-25.1,13.4-16.1,21.2-39.1,22.5-66.8h0s0,0,0,0c0,0,0,0,0,0,0,0,0,0,0,0,0,0,0,0,0,0s0,0,0,0c0,0,0,0,0,0,0,0,0,0,0,0,0,0,0,0,0,0,0,0,0,0,0,0h0s.5,0,.5,0h-.5s.5,0,.5,0h-.5s0,0,0,0h0,0,0,0s.5,0,.5,0h-.5s.5,0,.5,0h-.5s0,0,0,0h.5s-.5,0-.5,0h.5s-.5,0-.5,0h0s.5,0,.5,0h-.5s0-.2,0-.2c0-1.4.1-2.9.1-4.3,0-1,0-2.1,0-3.1h0c0,0,1,0,1,0h0c0,0-1,0-1,0h1c0,1,0,1.9,0,2.8,0,1.6,0,3.1-.1,4.7h-.5s.5,0,.5,0h-.5s.5,0,.5,0h0,0-.5s.5,0,.5,0h0,0-.5s.5,0,.5,0h0,0-.5s0,0,0,0h.5s0,0,0,0h0-.5s.5,0,.5,0h-.5s.5,0,.5,0h-.5s.5,0,.5,0h-.5s.5,0,.5,0h-.5s0,0,0,0h.5s-.5,0-.5,0h.5s-.5,0-.5,0h0s.5,0,.5,0c0,.2,0,.4,0,.7-2,40.8-17.8,70.7-44.4,84.5-9.4,4.9-20.1,7.5-31.5,7.9h0c-.7,0-1.4,0-2.1,0-.2,0-.4,0-.6,0-.1,0-.3,0-.4,0ZM474.5,340.1h-1s1,0,1,0ZM473.9,340.1h-.5s0,0,0,0h0s.5,0,.5,0h-.5s0,0,0,0h0s.3,0,.3,0h-.3s1,0,1,0h0,0-.5s.5,0,.5,0h0,0-.5s.5,0,.5,0h0s0,0,0,0h-.5ZM473.9,340h-.5s1,0,1,0h-.5Z"/>
            <path class="cls-141" d="M332.3,95.6c-22.3-12.9-43.6-19.4-63.4-19.4v-1c20,0,41.5,6.6,63.9,19.5l-.5.9Z"/>
            <path class="cls-141" d="M395.3,441.1c-20,0-41.5-6.6-63.9-19.5-38-21.9-73.6-59.5-100.4-105.8-26.7-46.3-41.4-95.9-41.3-139.5,0-30.9,7.7-56.7,22.1-74.5,14-17.4,33.7-26.6,57.1-26.6s41.5,6.6,63.9,19.5c38,21.9,73.6,59.5,100.4,105.8,26.7,46.3,41.4,95.9,41.3,139.5,0,30.9-7.7,56.7-22.1,74.5-14,17.4-33.7,26.6-57.1,26.6ZM268.9,76.2c-23,0-42.5,9.1-56.3,26.2-14.2,17.6-21.8,43.2-21.9,73.9-.3,89.7,63.1,199.4,141.1,244.4,22.3,12.9,43.6,19.4,63.4,19.4s42.5-9.1,56.3-26.2c14.2-17.6,21.8-43.2,21.9-73.9.3-89.7-63.1-199.4-141.1-244.4-22.3-12.9-43.6-19.4-63.4-19.4Z"/>
            <path class="cls-141" d="M429.8,433.1l-.5-.9c13.7-7.1,24.5-18.5,32.1-33.9,7.9-16,11.9-35.6,12-58.2v-.5c0-43.4-14.7-92.7-41.3-138.7-26.6-46.1-62.1-83.4-99.8-105.2l.5-.9c37.9,21.9,73.5,59.4,100.2,105.6,26.7,46.2,41.4,95.6,41.4,139.2v.5c0,22.8-4.1,42.5-12.1,58.7-7.7,15.6-18.6,27.2-32.6,34.4Z"/>
          </g>
          <g class="cls-149">
            <path class="cls-141" d="M268.9,441.1c-1,0-2,0-3,0h0c-11.5-.4-22.1-3.1-31.5-7.9-26.6-13.7-42.4-43.7-44.4-84.5,0-.2,0-.4,0-.7h0s.5,0,.5,0h0s-.5,0-.5,0h0c0,0,.5,0,.5,0h0s-.5,0-.5,0h0s.5,0,.5,0h0s-.5,0-.5,0h.5s0,0,0,0h-.5s0,0,0,0h.5s0,0,0,0h-.5s0,0,0,0h.5s-.5,0-.5,0h0c0-1.5-.1-3.1-.1-4.7,0-.9,0-1.9,0-2.8h0s0,0,0,0h1s-1,0-1,0h1s0,0,0,0h-1s1,0,1,0c0,1,0,2.1,0,3.1,0,1.5,0,2.9.1,4.3v.3s0,0,0,0h0s0,0,0,0c0,0,0,0,0,0,0,0,0,0,0,0,0,0,0,0,0,0,0,0,0,0,0,0,0,0,0,0,0,0,0,0,0,0,0,0,0,0,0,0,0,0,0,0,0,0,0,0,0,0,0,0,0,0h0c1.3,27.6,9.1,50.7,22.5,66.8,13.1,15.7,31.2,24.4,52.4,25.1,0,0,0,0,0,0,5.3.2,10.7-.1,16.3-.9,15.4-2.2,31.6-8,48.3-17.4.6-.3,1.2-.7,1.8-1l.5.9c-.6.3-1.2.7-1.8,1-16.7,9.4-32.8,15.2-48.2,17.5-4.7.7-9.4,1-13.9,1ZM190.4,347.9h-.5s.5,0,.5,0ZM190.4,347.9h-.5s.5,0,.5,0h0ZM190.4,347.9h-.5s.5,0,.5,0ZM190.4,347.8h-.5s.5,0,.5,0h0ZM190.4,347.7h-.5s.5,0,.5,0h0ZM190.1,347.7h-.2s.5,0,.5,0h-.3ZM190.2,347.7h-.3s.5,0,.5,0h-.3ZM189.7,340.1h0s1,0,1,0h-1s1,0,1,0h0s0,0,0,0h-1ZM189.7,340.1h0c0,0,1,0,1,0h-1s1,0,1,0h0,0-1s0,0,0,0h0Z"/>
            <path class="cls-141" d="M331.9,95.6l-.5-.9c22.4-13,43.9-19.5,63.9-19.5v1c-19.8,0-41.1,6.5-63.4,19.4Z"/>
            <path class="cls-141" d="M268.9,441.1h0c-23.4,0-43.1-9.2-57.1-26.6-14.4-17.8-22-43.6-22.1-74.5-.1-43.6,14.5-93.2,41.3-139.5,26.7-46.3,62.4-83.9,100.4-105.8,22.4-13,43.9-19.5,63.9-19.5s43.1,9.2,57.1,26.6c14.4,17.8,22,43.6,22.1,74.5.1,43.6-14.5,93.2-41.3,139.5-26.7,46.3-62.4,83.9-100.4,105.8-22.4,13-43.9,19.5-63.9,19.5ZM395.3,76.2c-19.8,0-41.1,6.5-63.4,19.4-78.1,45.1-141.4,154.7-141.1,244.4,0,30.7,7.6,56.2,21.9,73.9,13.8,17.1,33.3,26.2,56.3,26.2h0c19.8,0,41.1-6.5,63.4-19.4,78.1-45.1,141.4-154.7,141.1-244.4,0-30.7-7.6-56.2-21.9-73.9-13.8-17.1-33.3-26.2-56.3-26.2Z"/>
            <path class="cls-141" d="M234.3,433.1c-13.9-7.2-24.9-18.7-32.6-34.4-8-16.2-12-35.9-12.1-58.7v-.5c0-43.6,14.7-93,41.4-139.2,26.7-46.2,62.3-83.7,100.2-105.6l.5.9c-37.7,21.8-73.2,59.1-99.8,105.2-26.6,46-41.3,95.3-41.3,138.7v.5c0,22.6,4.1,42.2,12,58.2,7.6,15.4,18.4,26.9,32.1,33.9l-.5.9Z"/>
          </g>
        </g>
        <g>
          <polygon class="cls-131" points="157.7 174.9 157.7 203.3 132.9 189.1 132.9 160.7 157.7 174.9"/>
          <polygon class="cls-14" points="157.7 174.9 157.7 203.3 182.5 189.1 182.5 160.7 157.7 174.9"/>
        </g>
        <polygon class="cls-61" points="157.8 146.4 182.4 160.7 157.6 175.1 132.9 160.7 157.8 146.4"/>
        <polygon class="cls-131" points="354.3 126.6 354.3 155 329.5 140.8 329.5 112.3 354.3 126.6"/>
        <polygon class="cls-14" points="354.3 126.6 354.3 155 379.1 140.8 379.1 112.3 354.3 126.6"/>
        <polygon class="cls-61" points="354.4 98.1 379.1 112.4 354.2 126.7 329.5 112.4 354.4 98.1"/>
        <polygon class="cls-131" points="408.8 157.8 408.8 186.3 384 172 384 143.6 408.8 157.8"/>
        <polygon class="cls-14" points="408.8 157.8 408.8 186.3 433.5 172 433.5 143.6 408.8 157.8"/>
        <polygon class="cls-61" points="408.9 129.3 433.5 143.6 408.7 158 384 143.6 408.9 129.3"/>
        <polygon class="cls-48" points="383.5 446.8 408.1 461.1 432.9 446.8 432.9 446.8 432.9 354.5 408.2 340.3 383.4 354.5 383.4 446.8 383.5 446.8"/>
        <polygon class="cls-131" points="408.2 368.8 408.2 397.2 383.4 382.9 383.4 354.5 408.2 368.8"/>
        <polygon class="cls-14" points="408.2 368.8 408.2 397.2 432.9 382.9 432.9 354.5 408.2 368.8"/>
        <polygon class="cls-61" points="408.2 340.3 432.9 354.6 408.1 368.9 383.4 354.6 408.2 340.3"/>
        <polygon class="cls-36" points="553.6 272.4 459.8 219 435 233.3 435 233.2 435 261.6 528.9 315.1 553.7 300.8 553.7 272.4 553.6 272.4"/>
        <polygon class="cls-131" points="459.7 247.5 459.7 275.9 435 261.6 435 233.2 459.7 247.5"/>
        <polygon class="cls-14" points="459.7 247.5 459.7 275.9 484.5 261.6 484.5 233.2 459.7 247.5"/>
        <polygon class="cls-61" points="459.8 219 484.5 233.3 459.7 247.6 435 233.3 459.8 219"/>
        <polygon class="cls-131" points="205.1 230.6 205.1 259 180.3 244.8 180.3 216.3 205.1 230.6"/>
        <polygon class="cls-14" points="205.1 230.6 205.1 259 229.9 244.8 229.9 216.3 205.1 230.6"/>
        <polygon class="cls-61" points="205.2 202.1 229.8 216.4 205 230.7 180.3 216.4 205.2 202.1"/>
        <g>
          <path class="cls-86" d="M546,187.4l-43.7-25.4s0,0,0,0v-49.9c0-.1,0-.2-.2-.2s-.2,0-.2.2v50.1l-43.8,25.3c0,0-.1.1-.1.2,0,0,0,.1,0,.2,0,0,.1.1.2.1s0,0,.1,0l43.9-25.3c0,0,0,0,0-.1l43.6,25.3c.1,0,.2,0,.3,0,0-.1,0-.2,0-.3Z"/>
          <g>
            <g class="cls-150">
              <g class="cls-149">
                <polygon class="cls-3" points="518.9 149.9 518.8 164 515.5 169 515.6 154.8 518.9 149.9"/>
                <polygon class="cls-50" points="485.4 156.7 485.3 170.9 480.3 166.4 480.3 152.2 485.4 156.7"/>
                <path class="cls-67" d="M509.8,164.1v14.2c0-.2,0-.3,0-.5-.2-1.1-1-2-2.3-2.7-1.6-.9-3.9-1.4-6.3-1.3-4,.2-7,2.2-7,4.5v-14.2c0-2.3,3-4.2,7-4.5,2.4-.1,4.7.4,6.3,1.3,1.2.7,2.1,1.7,2.3,2.7,0,.2,0,.3,0,.5Z"/>
                <polygon class="cls-28" points="531.8 165.5 531.7 179.6 522.7 180.5 522.7 166.3 531.8 165.5"/>
                <polygon class="cls-54" points="482.6 168.7 482.6 182.9 473.4 183.2 473.4 169 482.6 168.7"/>
                <polygon class="cls-6" points="473.4 169 473.4 183.2 472.2 176.9 472.3 162.7 473.4 169"/>
                <path class="cls-104" d="M522.7,166.3v14.2c-.6,1.9-2,3.7-4.1,5.3v-14.2c2.1-1.5,3.5-3.3,4.1-5.3Z"/>
                <path class="cls-9" d="M488.5,173.4v14.2c-.5-.2-.9-.4-1.3-.7-1.9-1.1-3.5-2.5-4.6-4v-14.2c1.1,1.5,2.7,2.9,4.6,4,.4.2.8.5,1.3.7Z"/>
                <path class="cls-65" d="M509.2,175.6v14.2c-1.6.3-3.3.5-5,.7-1.7,0-3.3,0-4.9,0v-14.2c1.6.1,3.3.1,5,0,1.7-.1,3.4-.3,4.9-.7Z"/>
                <polygon class="cls-18" points="523.7 176 523.7 190.2 514.9 193.9 515 179.7 523.7 176"/>
                <polygon class="cls-55" points="515 179.7 514.9 193.9 509.1 189.7 509.2 175.6 515 179.7"/>
                <polygon class="cls-51" points="499.3 176.2 499.2 190.3 495.1 195.1 495.1 180.9 499.3 176.2"/>
                <path class="cls-68" d="M522.7,166.3l9.1-.8-1.1-6.2-9.2.3c-1.1-1.5-2.7-2.9-4.6-4-.4-.2-.8-.5-1.3-.7l3.3-5-9.9-2.6-4.2,4.8c-1.6-.1-3.2-.1-4.9,0-1.7.1-3.4.3-5,.6l-5.8-4.1-8.8,3.7,5,4.5c-2,1.5-3.4,3.3-4,5.3l-9.1.8,1.1,6.2,9.2-.3c1.1,1.5,2.6,2.9,4.6,4,.4.2.8.5,1.3.7l-3.3,5,9.9,2.6,4.2-4.8c1.6.1,3.3.1,4.9,0,1.7-.1,3.4-.3,4.9-.7l5.8,4.1,8.8-3.7-5-4.5c2-1.5,3.4-3.3,4-5.3ZM502.8,168.6c-2.4.1-4.7-.4-6.3-1.3-1.2-.7-2.1-1.7-2.3-2.7-.4-2.5,2.7-4.7,6.9-4.9,2.4-.1,4.7.4,6.3,1.3,1.2.7,2.1,1.7,2.3,2.7.4,2.5-2.7,4.7-6.9,4.9Z"/>
                <polygon class="cls-100" points="495.1 180.9 495.1 195.1 485.2 192.5 485.2 178.3 495.1 180.9"/>
              </g>
            </g>
            <g class="cls-149">
              <polygon class="cls-52" points="518.9 138.4 518.8 152.6 515.5 157.5 515.6 143.4 518.9 138.4"/>
              <polygon class="cls-101" points="485.4 145.2 485.3 159.4 480.3 154.9 480.3 140.7 485.4 145.2"/>
              <path class="cls-85" d="M509.8,152.7v14.2c0-.2,0-.3,0-.5-.2-1.1-1-2-2.3-2.7-1.6-.9-3.9-1.4-6.3-1.3-4,.2-7,2.2-7,4.5v-14.2c0-2.3,3-4.2,7-4.5,2.4-.1,4.7.4,6.3,1.3,1.2.7,2.1,1.7,2.3,2.7,0,.2,0,.3,0,.5Z"/>
              <polygon class="cls-122" points="531.8 154 531.7 168.2 522.7 169 522.7 154.8 531.8 154"/>
              <polygon class="cls-115" points="482.6 157.2 482.6 171.4 473.4 171.7 473.4 157.5 482.6 157.2"/>
              <polygon class="cls-107" points="473.4 157.5 473.4 171.7 472.2 165.5 472.3 151.3 473.4 157.5"/>
              <path class="cls-37" d="M522.7,154.8v14.2c-.6,1.9-2,3.7-4.1,5.3v-14.2c2.1-1.5,3.5-3.3,4.1-5.3Z"/>
              <path class="cls-62" d="M488.5,161.9v14.2c-.5-.2-.9-.4-1.3-.7-1.9-1.1-3.5-2.5-4.6-4v-14.2c1.1,1.5,2.7,2.9,4.6,4,.4.2.8.5,1.3.7Z"/>
              <path class="cls-10" d="M509.2,164.1v14.2c-1.6.3-3.3.5-5,.7-1.7,0-3.3,0-4.9,0v-14.2c1.6.1,3.3.1,5,0,1.7-.1,3.4-.3,4.9-.7Z"/>
              <polygon class="cls-42" points="523.7 164.5 523.7 178.7 514.9 182.4 515 168.2 523.7 164.5"/>
              <polygon class="cls-59" points="515 168.2 514.9 182.4 509.1 178.3 509.2 164.1 515 168.2"/>
              <polygon class="cls-95" points="499.3 164.7 499.2 178.9 495.1 183.6 495.1 169.4 499.3 164.7"/>
              <path class="cls-2" d="M522.7,154.8l9.1-.8-1.1-6.2-9.2.3c-1.1-1.5-2.7-2.9-4.6-4-.4-.2-.8-.5-1.3-.7l3.3-5-9.9-2.6-4.2,4.8c-1.6-.1-3.2-.1-4.9,0-1.7.1-3.4.3-5,.6l-5.8-4.1-8.8,3.7,5,4.5c-2,1.5-3.4,3.3-4,5.3l-9.1.8,1.1,6.2,9.2-.3c1.1,1.5,2.6,2.9,4.6,4,.4.2.8.5,1.3.7l-3.3,5,9.9,2.6,4.2-4.8c1.6.1,3.3.1,4.9,0,1.7-.1,3.4-.3,4.9-.7l5.8,4.1,8.8-3.7-5-4.5c2-1.5,3.4-3.3,4-5.3ZM502.8,157.1c-2.4.1-4.7-.4-6.3-1.3-1.2-.7-2.1-1.7-2.3-2.7-.4-2.5,2.7-4.7,6.9-4.9,2.4-.1,4.7.4,6.3,1.3,1.2.7,2.1,1.7,2.3,2.7.4,2.5-2.7,4.7-6.9,4.9Z"/>
              <polygon class="cls-139" points="495.1 169.4 495.1 183.6 485.2 181.1 485.2 166.9 495.1 169.4"/>
            </g>
          </g>
          <path class="cls-76" d="M546,137.2c0,0-.1,0-.2,0l-43.5-25.3c0,0-.1,0-.2,0l-43.8,25.3c0,0-.1,0-.2,0,0,0-.1.1-.1.2v50.3c0,0,0,.1.1.2l43.9,25.3h0s0,0,.1,0,0,0,.1,0h0s43.9-25.3,43.9-25.3c0,0,.1-.1.1-.2v-50.3c0,0,0-.1-.1-.2ZM502.1,112.3l43.2,25.1-43.3,25-43.4-25,43.5-25.1ZM458.4,137.7l43.4,25v49.8l-43.4-25v-49.8ZM545.7,187.6l-43.4,25v-49.8l43.4-25v49.8Z"/>
        </g>
        <g>
          <path class="cls-126" d="M272.3,107.6l-32.4-18.8s0,0,0,0v-37c0,0,0-.2-.2-.2s-.2,0-.2.2v37.1l-32.4,18.7c0,0,0,0,0,.2,0,0,0,0,0,.1,0,0,0,0,.1,0s0,0,0,0l32.5-18.7s0,0,0-.1l32.3,18.8c0,0,.2,0,.2,0,0,0,0-.2,0-.2Z"/>
          <g>
            <g class="cls-150">
              <g class="cls-149">
                <polygon class="cls-1" points="252.2 79.8 252.2 90.3 249.7 94 249.8 83.5 252.2 79.8"/>
                <polygon class="cls-77" points="227.4 84.8 227.4 95.3 223.7 92 223.7 81.5 227.4 84.8"/>
                <path class="cls-47" d="M245.5,90.4v10.5c0-.1,0-.2,0-.4-.1-.8-.8-1.5-1.7-2-1.2-.7-2.9-1.1-4.7-1-3,.2-5.2,1.6-5.2,3.3v-10.5c0-1.7,2.2-3.1,5.2-3.3,1.8-.1,3.5.3,4.7,1,.9.5,1.5,1.2,1.7,2,0,.1,0,.2,0,.4Z"/>
                <polygon class="cls-44" points="261.8 91.3 261.8 101.8 255 102.5 255.1 91.9 261.8 91.3"/>
                <polygon class="cls-24" points="225.4 93.8 225.4 104.3 218.5 104.5 218.6 93.9 225.4 93.8"/>
                <polygon class="cls-53" points="218.6 93.9 218.5 104.5 217.7 99.8 217.7 89.3 218.6 93.9"/>
                <path class="cls-109" d="M255.1,91.9v10.5c-.5,1.4-1.5,2.8-3,3.9v-10.5c1.5-1.1,2.6-2.5,3-3.9Z"/>
                <path class="cls-72" d="M229.7,97.2v10.5c-.4-.2-.7-.3-1-.5-1.4-.8-2.6-1.8-3.4-2.9v-10.5c.8,1.1,2,2.1,3.4,2.9.3.2.6.3.9.5Z"/>
                <path class="cls-116" d="M245,98.8v10.5c-1.2.2-2.4.4-3.7.5-1.2,0-2.5,0-3.6,0v-10.5c1.2,0,2.4.1,3.7,0,1.3,0,2.5-.2,3.7-.5Z"/>
                <polygon class="cls-99" points="255.8 99.2 255.8 109.7 249.3 112.4 249.3 101.9 255.8 99.2"/>
                <polygon class="cls-96" points="249.3 101.9 249.3 112.4 245 109.3 245 98.8 249.3 101.9"/>
                <polygon class="cls-98" points="237.7 99.3 237.7 109.8 234.6 113.3 234.6 102.8 237.7 99.3"/>
                <path class="cls-73" d="M255.1,91.9l6.7-.6-.8-4.6-6.8.2c-.8-1.1-2-2.1-3.4-2.9-.3-.2-.6-.3-.9-.5l2.4-3.7-7.3-1.9-3.1,3.5c-1.2,0-2.4-.1-3.6,0-1.3,0-2.5.2-3.7.5l-4.3-3.1-6.5,2.7,3.7,3.3c-1.5,1.1-2.5,2.5-3,3.9l-6.7.6.8,4.6,6.8-.2c.8,1.1,2,2.1,3.4,2.9.3.2.6.3.9.5l-2.4,3.7,7.3,1.9,3.1-3.5c1.2,0,2.4.1,3.6,0,1.3,0,2.5-.2,3.7-.5l4.3,3.1,6.5-2.7-3.7-3.3c1.5-1.1,2.5-2.5,3-3.9ZM240.4,93.7c-1.8.1-3.5-.3-4.7-1-.9-.5-1.5-1.2-1.7-2-.3-1.8,2-3.5,5.1-3.7,1.8-.1,3.5.3,4.7,1,.9.5,1.5,1.2,1.7,2,.3,1.8-2,3.5-5.1,3.7Z"/>
                <polygon class="cls-60" points="234.6 102.8 234.6 113.3 227.3 111.4 227.3 100.9 234.6 102.8"/>
              </g>
            </g>
            <g class="cls-149">
              <polygon class="cls-106" points="252.2 71.3 252.2 81.8 249.7 85.5 249.8 75 252.2 71.3"/>
              <polygon class="cls-70" points="227.4 76.3 227.4 86.8 223.7 83.5 223.7 73 227.4 76.3"/>
              <path class="cls-91" d="M245.5,81.9v10.5c0-.1,0-.2,0-.4-.1-.8-.8-1.5-1.7-2-1.2-.7-2.9-1.1-4.7-1-3,.2-5.2,1.6-5.2,3.3v-10.5c0-1.7,2.2-3.1,5.2-3.3,1.8-.1,3.5.3,4.7,1,.9.5,1.5,1.2,1.7,2,0,.1,0,.2,0,.4Z"/>
              <polygon class="cls-56" points="261.8 82.8 261.8 93.3 255 94 255.1 83.4 261.8 82.8"/>
              <polygon class="cls-57" points="225.4 85.3 225.4 95.8 218.5 96 218.6 85.4 225.4 85.3"/>
              <polygon class="cls-123" points="218.6 85.4 218.5 96 217.7 91.3 217.7 80.8 218.6 85.4"/>
              <path class="cls-17" d="M255.1,83.4v10.5c-.5,1.4-1.5,2.8-3,3.9v-10.5c1.5-1.1,2.6-2.5,3-3.9Z"/>
              <path class="cls-40" d="M229.7,88.7v10.5c-.4-.2-.7-.3-1-.5-1.4-.8-2.6-1.8-3.4-2.9v-10.5c.8,1.1,2,2.1,3.4,2.9.3.2.6.3.9.5Z"/>
              <path class="cls-64" d="M245,90.3v10.5c-1.2.2-2.4.4-3.7.5-1.2,0-2.5,0-3.6,0v-10.5c1.2,0,2.4.1,3.7,0,1.3,0,2.5-.2,3.7-.5Z"/>
              <polygon class="cls-63" points="255.8 90.7 255.8 101.2 249.3 103.9 249.3 93.4 255.8 90.7"/>
              <polygon class="cls-102" points="249.3 93.4 249.3 103.9 245 100.8 245 90.3 249.3 93.4"/>
              <polygon class="cls-12" points="237.7 90.8 237.7 101.3 234.6 104.8 234.6 94.3 237.7 90.8"/>
              <path class="cls-4" d="M255.1,83.4l6.7-.6-.8-4.6-6.8.2c-.8-1.1-2-2.1-3.4-2.9-.3-.2-.6-.3-.9-.5l2.4-3.7-7.3-1.9-3.1,3.5c-1.2,0-2.4-.1-3.6,0-1.3,0-2.5.2-3.7.5l-4.3-3.1-6.5,2.7,3.7,3.3c-1.5,1.1-2.5,2.5-3,3.9l-6.7.6.8,4.6,6.8-.2c.8,1.1,2,2.1,3.4,2.9.3.2.6.3.9.5l-2.4,3.7,7.3,1.9,3.1-3.5c1.2,0,2.4.1,3.6,0,1.3,0,2.5-.2,3.7-.5l4.3,3.1,6.5-2.7-3.7-3.3c1.5-1.1,2.5-2.5,3-3.9ZM240.4,85.2c-1.8.1-3.5-.3-4.7-1-.9-.5-1.5-1.2-1.7-2-.3-1.8,2-3.5,5.1-3.7,1.8-.1,3.5.3,4.7,1,.9.5,1.5,1.2,1.7,2,.3,1.8-2,3.5-5.1,3.7Z"/>
              <polygon class="cls-41" points="234.6 94.3 234.6 104.8 227.3 102.9 227.3 92.4 234.6 94.3"/>
            </g>
          </g>
          <path class="cls-143" d="M272.3,70.4s-.1,0-.2,0l-32.2-18.7s-.1,0-.2,0l-32.5,18.7s0,0-.1,0c0,0,0,0,0,.1v37.3c0,0,0,.1,0,.1l32.5,18.7h0s0,0,0,0,0,0,0,0h0s32.5-18.7,32.5-18.7c0,0,0,0,0-.1v-37.3c0,0,0-.1,0-.1ZM239.8,52l32,18.6-32.1,18.5-32.1-18.5,32.2-18.6ZM207.4,70.8l32.2,18.5v36.9l-32.2-18.5v-36.9ZM272.1,107.7l-32.2,18.5v-36.9l32.2-18.5v36.9Z"/>
        </g>
        <g>
          <path class="cls-83" d="M191.8,370.5l-43.7-25.4s0,0,0,0v-49.9c0-.1,0-.2-.2-.2s-.2,0-.2.2v50.1l-43.8,25.3c0,0-.1.1-.1.2,0,0,0,.1,0,.2,0,0,.1.1.2.1s0,0,.1,0l43.9-25.3c0,0,0,0,0-.1l43.6,25.3c.1,0,.2,0,.3,0,0-.1,0-.2,0-.3Z"/>
          <g>
            <g class="cls-150">
              <g class="cls-149">
                <polygon class="cls-117" points="164.7 333 164.6 347.2 161.3 352.2 161.4 338 164.7 333"/>
                <polygon class="cls-94" points="131.2 339.8 131.1 354 126.1 349.5 126.1 335.3 131.2 339.8"/>
                <path class="cls-49" d="M155.6,347.3v14.2c0-.2,0-.3,0-.5-.2-1.1-1-2-2.3-2.7-1.6-.9-3.9-1.4-6.3-1.3-4,.2-7,2.2-7,4.5v-14.2c0-2.3,3-4.2,7-4.5,2.4-.1,4.7.4,6.3,1.3,1.2.7,2.1,1.7,2.3,2.7,0,.2,0,.3,0,.5Z"/>
                <polygon class="cls-16" points="177.6 348.6 177.5 362.8 168.5 363.6 168.5 349.4 177.6 348.6"/>
                <polygon class="cls-112" points="128.4 351.9 128.4 366.1 119.2 366.3 119.2 352.1 128.4 351.9"/>
                <polygon class="cls-82" points="119.2 352.1 119.2 366.3 118 360.1 118.1 345.9 119.2 352.1"/>
                <path class="cls-127" d="M168.5,349.4v14.2c-.6,1.9-2,3.7-4.1,5.3v-14.2c2.1-1.5,3.5-3.3,4.1-5.3Z"/>
                <path class="cls-39" d="M134.3,356.5v14.2c-.5-.2-.9-.4-1.3-.7-1.9-1.1-3.5-2.5-4.6-4v-14.2c1.1,1.5,2.7,2.9,4.6,4,.4.2.8.5,1.3.7Z"/>
                <path class="cls-114" d="M155,358.7v14.2c-1.6.3-3.3.5-5,.7-1.7,0-3.3,0-4.9,0v-14.2c1.6.1,3.3.1,5,0,1.7-.1,3.4-.3,4.9-.7Z"/>
                <polygon class="cls-32" points="169.5 359.2 169.5 373.4 160.7 377 160.8 362.8 169.5 359.2"/>
                <polygon class="cls-132" points="160.8 362.8 160.7 377 154.9 372.9 155 358.7 160.8 362.8"/>
                <polygon class="cls-147" points="145.1 359.3 145 373.5 140.9 378.2 140.9 364.1 145.1 359.3"/>
                <path class="cls-22" d="M168.5,349.4l9.1-.8-1.1-6.2-9.2.3c-1.1-1.5-2.7-2.9-4.6-4-.4-.2-.8-.5-1.3-.7l3.3-5-9.9-2.6-4.2,4.8c-1.6-.1-3.2-.1-4.9,0-1.7.1-3.4.3-5,.6l-5.8-4.1-8.8,3.7,5,4.5c-2,1.5-3.4,3.3-4,5.3l-9.1.8,1.1,6.2,9.2-.3c1.1,1.5,2.6,2.9,4.6,4,.4.2.8.5,1.3.7l-3.3,5,9.9,2.6,4.2-4.8c1.6.1,3.3.1,4.9,0,1.7-.1,3.4-.3,4.9-.7l5.8,4.1,8.8-3.7-5-4.5c2-1.5,3.4-3.3,4-5.3ZM148.6,351.7c-2.4.1-4.7-.4-6.3-1.3-1.2-.7-2.1-1.7-2.3-2.7-.4-2.5,2.7-4.7,6.9-4.9,2.4-.1,4.7.4,6.3,1.3,1.2.7,2.1,1.7,2.3,2.7.4,2.5-2.7,4.7-6.9,4.9Z"/>
                <polygon class="cls-20" points="140.9 364.1 140.9 378.2 131 375.7 131 361.5 140.9 364.1"/>
              </g>
            </g>
            <g class="cls-149">
              <polygon class="cls-81" points="164.7 321.5 164.6 335.7 161.3 340.7 161.4 326.5 164.7 321.5"/>
              <polygon class="cls-129" points="131.2 328.3 131.1 342.5 126.1 338 126.1 323.8 131.2 328.3"/>
              <path class="cls-144" d="M155.6,335.8v14.2c0-.2,0-.3,0-.5-.2-1.1-1-2-2.3-2.7-1.6-.9-3.9-1.4-6.3-1.3-4,.2-7,2.2-7,4.5v-14.2c0-2.3,3-4.2,7-4.5,2.4-.1,4.7.4,6.3,1.3,1.2.7,2.1,1.7,2.3,2.7,0,.2,0,.3,0,.5Z"/>
              <polygon class="cls-140" points="177.6 337.1 177.5 351.3 168.5 352.1 168.5 337.9 177.6 337.1"/>
              <polygon class="cls-31" points="128.4 340.4 128.4 354.6 119.2 354.8 119.2 340.7 128.4 340.4"/>
              <polygon class="cls-88" points="119.2 340.7 119.2 354.8 118 348.6 118.1 334.4 119.2 340.7"/>
              <path class="cls-90" d="M168.5,337.9v14.2c-.6,1.9-2,3.7-4.1,5.3v-14.2c2.1-1.5,3.5-3.3,4.1-5.3Z"/>
              <path class="cls-110" d="M134.3,345v14.2c-.5-.2-.9-.4-1.3-.7-1.9-1.1-3.5-2.5-4.6-4v-14.2c1.1,1.5,2.7,2.9,4.6,4,.4.2.8.5,1.3.7Z"/>
              <path class="cls-93" d="M155,347.2v14.2c-1.6.3-3.3.5-5,.7-1.7,0-3.3,0-4.9,0v-14.2c1.6.1,3.3.1,5,0,1.7-.1,3.4-.3,4.9-.7Z"/>
              <polygon class="cls-130" points="169.5 347.7 169.5 361.9 160.7 365.6 160.8 351.4 169.5 347.7"/>
              <polygon class="cls-125" points="160.8 351.4 160.7 365.6 154.9 361.4 155 347.2 160.8 351.4"/>
              <polygon class="cls-8" points="145.1 347.8 145 362 140.9 366.8 140.9 352.6 145.1 347.8"/>
              <path class="cls-138" d="M168.5,337.9l9.1-.8-1.1-6.2-9.2.3c-1.1-1.5-2.7-2.9-4.6-4-.4-.2-.8-.5-1.3-.7l3.3-5-9.9-2.6-4.2,4.8c-1.6-.1-3.2-.1-4.9,0-1.7.1-3.4.3-5,.6l-5.8-4.1-8.8,3.7,5,4.5c-2,1.5-3.4,3.3-4,5.3l-9.1.8,1.1,6.2,9.2-.3c1.1,1.5,2.6,2.9,4.6,4,.4.2.8.5,1.3.7l-3.3,5,9.9,2.6,4.2-4.8c1.6.1,3.3.1,4.9,0,1.7-.1,3.4-.3,4.9-.7l5.8,4.1,8.8-3.7-5-4.5c2-1.5,3.4-3.3,4-5.3ZM148.6,340.3c-2.4.1-4.7-.4-6.3-1.3-1.2-.7-2.1-1.7-2.3-2.7-.4-2.5,2.7-4.7,6.9-4.9,2.4-.1,4.7.4,6.3,1.3,1.2.7,2.1,1.7,2.3,2.7.4,2.5-2.7,4.7-6.9,4.9Z"/>
              <polygon class="cls-46" points="140.9 352.6 140.9 366.8 131 364.2 131 350 140.9 352.6"/>
            </g>
          </g>
          <path class="cls-121" d="M191.8,320.3c0,0-.1,0-.2,0l-43.5-25.3c0,0-.1,0-.2,0l-43.8,25.3c0,0-.1,0-.2,0,0,0-.1.1-.1.2v50.3c0,0,0,.1.1.2l43.9,25.3h0s0,0,.1,0,0,0,.1,0h0l43.9-25.3c0,0,.1-.1.1-.2v-50.3c0,0,0-.1-.1-.2ZM147.9,295.4l43.2,25.1-43.3,25-43.4-25,43.5-25.1ZM104.2,320.9l43.4,25v49.8l-43.4-25v-49.8ZM191.5,370.7l-43.4,25v-49.8l43.4-25v49.8Z"/>
        </g>
        <g>
          <path class="cls-78" d="M456.6,448.1l-23.2-13.5s0,0,0,0v-26.5c0,0,0-.1-.1-.1s-.1,0-.1.1v26.6l-23.2,13.4s0,0,0,.1c0,0,0,0,0,0,0,0,0,0,0,0s0,0,0,0l23.3-13.4s0,0,0,0l23.1,13.4c0,0,.1,0,.2,0,0,0,0-.1,0-.2Z"/>
          <g>
            <g class="cls-150">
              <g class="cls-149">
                <polygon class="cls-92" points="442.2 428.2 442.2 435.8 440.5 438.4 440.5 430.9 442.2 428.2"/>
                <polygon class="cls-33" points="424.5 431.9 424.5 439.4 421.8 437 421.8 429.5 424.5 431.9"/>
                <path class="cls-13" d="M437.5,435.8v7.5c0,0,0-.2,0-.3-.1-.6-.5-1.1-1.2-1.5-.9-.5-2.1-.8-3.3-.7-2.1.1-3.7,1.2-3.7,2.4v-7.5c0-1.2,1.6-2.2,3.7-2.4,1.3,0,2.5.2,3.3.7.7.4,1.1.9,1.2,1.5,0,0,0,.2,0,.3Z"/>
                <polygon class="cls-74" points="449.1 436.5 449.1 444 444.3 444.5 444.3 437 449.1 436.5"/>
                <polygon class="cls-84" points="423 438.2 423 445.8 418.1 445.9 418.1 438.4 423 438.2"/>
                <polygon class="cls-27" points="418.1 438.4 418.1 445.9 417.5 442.6 417.5 435.1 418.1 438.4"/>
                <path class="cls-43" d="M444.3,437v7.5c-.3,1-1.1,2-2.2,2.8v-7.5c1.1-.8,1.8-1.8,2.2-2.8Z"/>
                <path class="cls-111" d="M426.1,440.7v7.5c-.3-.1-.5-.2-.7-.4-1-.6-1.9-1.3-2.4-2.1v-7.5c.6.8,1.4,1.5,2.5,2.1.2.1.4.2.7.4Z"/>
                <path class="cls-15" d="M437.1,441.9v7.5c-.9.2-1.7.3-2.6.3-.9,0-1.8,0-2.6,0v-7.5c.9,0,1.7,0,2.6,0,.9,0,1.8-.2,2.6-.3Z"/>
                <polygon class="cls-124" points="444.8 442.1 444.8 449.6 440.2 451.6 440.2 444.1 444.8 442.1"/>
                <polygon class="cls-87" points="440.2 444.1 440.2 451.6 437.1 449.4 437.1 441.9 440.2 444.1"/>
                <polygon class="cls-30" points="431.9 442.2 431.8 449.7 429.6 452.2 429.6 444.7 431.9 442.2"/>
                <path class="cls-66" d="M444.3,437l4.8-.4-.6-3.3h-4.9c-.6-.7-1.4-1.4-2.4-2-.2-.1-.4-.2-.7-.4l1.7-2.6-5.2-1.4-2.2,2.5c-.8,0-1.7,0-2.6,0-.9,0-1.8.2-2.6.3l-3.1-2.2-4.6,1.9,2.7,2.4c-1.1.8-1.8,1.8-2.1,2.8l-4.8.4.6,3.3h4.9c.6.7,1.4,1.4,2.4,2,.2.1.4.2.7.4l-1.7,2.6,5.2,1.4,2.2-2.5c.8,0,1.7,0,2.6,0,.9,0,1.8-.2,2.6-.3l3.1,2.2,4.6-1.9-2.7-2.4c1.1-.8,1.8-1.8,2.1-2.8ZM433.8,438.2c-1.3,0-2.5-.2-3.3-.7-.7-.4-1.1-.9-1.2-1.5-.2-1.3,1.4-2.5,3.7-2.6,1.3,0,2.5.2,3.3.7.7.4,1.1.9,1.2,1.5.2,1.3-1.4,2.5-3.7,2.6Z"/>
                <polygon class="cls-133" points="429.6 444.7 429.6 452.2 424.4 450.9 424.4 443.4 429.6 444.7"/>
              </g>
            </g>
            <g class="cls-149">
              <polygon class="cls-38" points="442.2 422.2 442.2 429.7 440.5 432.3 440.5 424.8 442.2 422.2"/>
              <polygon class="cls-25" points="424.5 425.8 424.5 433.3 421.8 430.9 421.8 423.4 424.5 425.8"/>
              <path class="cls-89" d="M437.5,429.7v7.5c0,0,0-.2,0-.3-.1-.6-.5-1.1-1.2-1.5-.9-.5-2.1-.8-3.3-.7-2.1.1-3.7,1.2-3.7,2.4v-7.5c0-1.2,1.6-2.2,3.7-2.4,1.3,0,2.5.2,3.3.7.7.4,1.1.9,1.2,1.5,0,0,0,.2,0,.3Z"/>
              <polygon class="cls-29" points="449.1 430.4 449.1 438 444.3 438.4 444.3 430.9 449.1 430.4"/>
              <polygon class="cls-118" points="423 432.2 423 439.7 418.1 439.8 418.1 432.3 423 432.2"/>
              <polygon class="cls-146" points="418.1 432.3 418.1 439.8 417.5 436.5 417.5 429 418.1 432.3"/>
              <path class="cls-119" d="M444.3,430.9v7.5c-.3,1-1.1,2-2.2,2.8v-7.5c1.1-.8,1.8-1.8,2.2-2.8Z"/>
              <path class="cls-58" d="M426.1,434.6v7.5c-.3-.1-.5-.2-.7-.4-1-.6-1.9-1.3-2.4-2.1v-7.5c.6.8,1.4,1.5,2.5,2.1.2.1.4.2.7.4Z"/>
              <path class="cls-145" d="M437.1,435.8v7.5c-.9.2-1.7.3-2.6.3-.9,0-1.8,0-2.6,0v-7.5c.9,0,1.7,0,2.6,0,.9,0,1.8-.2,2.6-.3Z"/>
              <polygon class="cls-135" points="444.8 436 444.8 443.6 440.2 445.5 440.2 438 444.8 436"/>
              <polygon class="cls-120" points="440.2 438 440.2 445.5 437.1 443.3 437.1 435.8 440.2 438"/>
              <polygon class="cls-103" points="431.9 436.1 431.8 443.6 429.6 446.2 429.6 438.6 431.9 436.1"/>
              <path class="cls-113" d="M444.3,430.9l4.8-.4-.6-3.3h-4.9c-.6-.7-1.4-1.4-2.4-2-.2-.1-.4-.2-.7-.4l1.7-2.6-5.2-1.4-2.2,2.5c-.8,0-1.7,0-2.6,0-.9,0-1.8.2-2.6.3l-3.1-2.2-4.6,1.9,2.7,2.4c-1.1.8-1.8,1.8-2.1,2.8l-4.8.4.6,3.3h4.9c.6.7,1.4,1.4,2.4,2,.2.1.4.2.7.4l-1.7,2.6,5.2,1.4,2.2-2.5c.8,0,1.7,0,2.6,0,.9,0,1.8-.2,2.6-.3l3.1,2.2,4.6-1.9-2.7-2.4c1.1-.8,1.8-1.8,2.1-2.8ZM433.8,432.1c-1.3,0-2.5-.2-3.3-.7-.7-.4-1.1-.9-1.2-1.5-.2-1.3,1.4-2.5,3.7-2.6,1.3,0,2.5.2,3.3.7.7.4,1.1.9,1.2,1.5.2,1.3-1.4,2.5-3.7,2.6Z"/>
              <polygon class="cls-142" points="429.6 438.6 429.6 446.2 424.4 444.8 424.4 437.3 429.6 438.6"/>
            </g>
          </g>
          <path class="cls-23" d="M456.6,421.5s0,0-.1,0l-23.1-13.4s0,0-.1,0l-23.2,13.4s0,0-.1,0c0,0,0,0,0,0v26.7s0,0,0,0l23.3,13.4h0s0,0,0,0,0,0,0,0h0l23.3-13.4s0,0,0,0v-26.7s0,0,0,0ZM433.4,408.3l22.9,13.3-23,13.2-23-13.3,23.1-13.3ZM410.2,421.8l23,13.3v26.4l-23-13.3v-26.4ZM456.5,448.2l-23,13.3v-26.4l23-13.3v26.4Z"/>
        </g>
        <g>
          <g>
            <g>
              <g>
                <g>
                  <polygon class="cls-151" points="513.7 320 513.7 303.1 528.4 311.6 528.4 328.5 513.7 320"/>
                  <polygon class="cls-151" points="513.7 320 513.7 303.1 499 311.6 499 328.5 513.7 320"/>
                </g>
                <polygon class="cls-151" points="513.7 337 499 328.5 513.8 320 528.4 328.5 513.7 337"/>
              </g>
              <g>
                <g>
                  <polygon class="cls-152" points="513.7 320.1 513.7 337 499 328.5 499 311.6 513.7 320.1"/>
                  <polygon class="cls-152" points="513.7 320.1 513.7 337 528.4 328.5 528.4 311.6 513.7 320.1"/>
                </g>
                <polygon class="cls-152" points="513.7 303.1 528.4 311.7 513.7 320.2 499 311.7 513.7 303.1"/>
              </g>
            </g>
            <g>
              <path class="cls-26" d="M506.5,324.5s0,0,0-.2c0-.2-.1-.4-.3-.5,0,0-.1,0-.2,0h0l-56.8,33.7s0,0,0,.2c0,.2.1.4.3.5,0,0,.1,0,.2,0l56.8-33.7s0,0,0,0Z"/>
              <g>
                <image class="cls-148" width="51" height="50" transform="translate(500.2 318.1) scale(.2)" xlink:href="Cube graphics-1.png"/>
                <image class="cls-148" width="31" height="30" transform="translate(502.6 320.5) scale(.2)" xlink:href="Cube graphics-2.png"/>
              </g>
            </g>
          </g>
          <g>
            <path class="cls-108" d="M521,324.7s0,0,0-.2c0-.2.1-.4.3-.5,0,0,.1,0,.2,0h0l56.8,33.7s0,0,0,.2c0,.2-.1.4-.3.5,0,0-.1,0-.2,0l-56.8-33.7s0,0,0,0Z"/>
            <g>
              <image class="cls-148" width="50" height="51" transform="translate(515.3 318.1) scale(.2)" xlink:href="Cube graphics-3.png"/>
              <image class="cls-148" width="30" height="31" transform="translate(517.7 320.5) scale(.2)" xlink:href="Cube graphics-4.png"/>
            </g>
          </g>
        </g>
        <g>
          <path class="cls-105" d="M531.1,238.9s0,0,0-.2c0-.2.1-.4.3-.5,0,0,.1,0,.2,0h0l56.9,33.5s0,0,0,.2c0,.2-.1.4-.3.5,0,0-.1,0-.2,0l-56.9-33.5s0,0,0,0Z"/>
          <g>
            <image class="cls-148" width="51" height="51" transform="translate(525.1 232.4) scale(.2)" xlink:href="Cube graphics-5.png"/>
            <image class="cls-148" width="31" height="31" transform="translate(527.5 234.8) scale(.2)" xlink:href="Cube graphics-6.png"/>
          </g>
        </g>
        <g>
          <path class="cls-75" d="M133.1,256.5s0,0,0-.2c0-.2-.1-.4-.3-.5,0,0-.1,0-.2,0h0l-109.2,61.9s0,0,0,.2c0,.2.1.4.3.5,0,0,.1,0,.2,0l109.2-61.9s0,0,0,0Z"/>
          <g>
            <image class="cls-148" width="51" height="51" transform="translate(126.7 249.9) scale(.2)" xlink:href="Cube graphics-7.png"/>
            <image class="cls-148" width="31" height="31" transform="translate(129.1 252.3) scale(.2)" xlink:href="Cube graphics-8.png"/>
          </g>
        </g>
        <g>
          <g>
            <g>
              <g>
                <polygon class="cls-151" points="338.5 62.4 338.5 45.5 353.3 54 353.3 70.9 338.5 62.4"/>
                <polygon class="cls-151" points="338.5 62.4 338.5 45.5 323.8 54 323.8 70.9 338.5 62.4"/>
              </g>
              <polygon class="cls-151" points="338.5 79.4 323.8 70.8 338.6 62.3 353.3 70.8 338.5 79.4"/>
            </g>
            <g>
              <g>
                <polygon class="cls-152" points="338.5 62.5 338.5 79.4 323.8 70.9 323.8 54 338.5 62.5"/>
                <polygon class="cls-152" points="338.5 62.5 338.5 79.4 353.3 70.9 353.3 54 338.5 62.5"/>
              </g>
              <polygon class="cls-152" points="338.6 45.5 353.3 54 338.5 62.5 323.8 54 338.6 45.5"/>
            </g>
          </g>
          <g>
            <path class="cls-5" d="M331.1,58.6s.1,0,.2,0c.1,0,.3-.3.3-.4,0,0,0-.1,0-.2h0s-54.5-31.2-54.5-31.2c0,0-.1,0-.2,0-.1,0-.3.3-.3.4,0,0,0,.1,0,.2l54.5,31.2s0,0,0,0Z"/>
            <g>
              <image class="cls-148" width="48" height="48" transform="translate(325.7 52.4) scale(.2)" xlink:href="Cube graphics-9.png"/>
              <image class="cls-148" width="29" height="30" transform="translate(327.8 54.6) scale(.2)" xlink:href="Cube graphics-10.png"/>
            </g>
          </g>
        </g>
        <g>
          <path class="cls-7" d="M259.5,159.7s.1,0,.2,0c.1,0,.3-.3.3-.4,0,0,0-.1,0-.2h0s-54.5-31.2-54.5-31.2c0,0-.1,0-.2,0-.1,0-.3.3-.3.4,0,0,0,.1,0,.2l54.5,31.2s0,0,0,0Z"/>
          <g>
            <image class="cls-148" width="49" height="49" transform="translate(253.9 153.4) scale(.2)" xlink:href="Cube graphics-11.png"/>
            <image class="cls-148" width="29" height="29" transform="translate(256.3 155.8) scale(.2)" xlink:href="Cube graphics-12.png"/>
          </g>
        </g>
        <g>
          <g>
            <g>
              <g>
                <polygon class="cls-151" points="339.3 417.1 339.3 400.2 354 408.7 354 425.6 339.3 417.1"/>
                <polygon class="cls-151" points="339.3 417.1 339.3 400.2 324.5 408.7 324.5 425.6 339.3 417.1"/>
              </g>
              <polygon class="cls-151" points="339.2 434.1 324.5 425.5 339.3 417 354 425.5 339.2 434.1"/>
            </g>
            <g>
              <g>
                <polygon class="cls-152" points="339.3 417.2 339.3 434.1 324.5 425.6 324.5 408.7 339.3 417.2"/>
                <polygon class="cls-152" points="339.3 417.2 339.3 434.1 354 425.6 354 408.7 339.3 417.2"/>
              </g>
              <polygon class="cls-152" points="339.3 400.2 354 408.7 339.2 417.2 324.5 408.7 339.3 400.2"/>
            </g>
          </g>
          <g>
            <path class="cls-80" d="M332,421.6s0,0,0-.2c0-.2-.1-.4-.3-.5,0,0-.1,0-.2,0h0l-56.8,33.7s0,0,0,.2c0,.2.1.4.3.5,0,0,.1,0,.2,0l56.8-33.7s0,0,0,0Z"/>
            <g>
              <image class="cls-148" width="51" height="51" transform="translate(325.7 415) scale(.2)" xlink:href="Cube graphics-13.png"/>
              <image class="cls-148" width="31" height="31" transform="translate(328.1 417.4) scale(.2)" xlink:href="Cube graphics-14.png"/>
            </g>
          </g>
        </g>
        <g>
          <path class="cls-141" d="M332.1,458.6c-27.1,0-53.3-5.3-78-15.8-23.9-10.1-45.3-24.6-63.7-43-18.4-18.4-32.9-39.9-43-63.7-10.5-24.7-15.8-51-15.8-78s5.3-53.3,15.8-78c10.1-23.9,24.6-45.3,43-63.7,18.4-18.4,39.9-32.9,63.7-43,24.7-10.5,51-15.8,78-15.8s53.3,5.3,78,15.8c23.9,10.1,45.3,24.6,63.7,43,18.4,18.4,32.9,39.9,43,63.7,10.5,24.7,15.8,51,15.8,78s-5.3,53.3-15.8,78c-10.1,23.9-24.6,45.3-43,63.7-18.4,18.4-39.9,32.9-63.7,43-24.7,10.5-51,15.8-78,15.8ZM332.1,58.7c-26.9,0-53,5.3-77.6,15.7-23.7,10-45.1,24.4-63.4,42.7-18.3,18.3-32.7,39.6-42.7,63.4-10.4,24.6-15.7,50.7-15.7,77.6s5.3,53,15.7,77.6c10,23.7,24.4,45.1,42.7,63.4,18.3,18.3,39.6,32.7,63.4,42.7,24.6,10.4,50.7,15.7,77.6,15.7s53-5.3,77.6-15.7c23.7-10,45.1-24.4,63.4-42.7,18.3-18.3,32.7-39.6,42.7-63.4,10.4-24.6,15.7-50.7,15.7-77.6s-5.3-53-15.7-77.6c-10-23.7-24.4-45.1-42.7-63.4-18.3-18.3-39.6-32.7-63.4-42.7-24.6-10.4-50.7-15.7-77.6-15.7Z"/>
          <g class="cls-149">
            <path class="cls-141" d="M395.3,441.1c-17.9,0-37-5.3-57-15.7-1.7-.9-3.4-1.8-5.2-2.8-.6-.3-1.2-.7-1.8-1l.5-.9c.6.3,1.2.7,1.8,1,2.1,1.2,4.1,2.3,6.2,3.3,19.4,10,38,15.1,55.4,15.1.1,0,.3,0,.4,0,.2,0,.4,0,.6,0,.7,0,1.3,0,2,0,0,0,0,0,0,0,21.2-.7,39.3-9.4,52.4-25.1,13.4-16.1,21.2-39.1,22.5-66.8h0s0,0,0,0c0,0,0,0,0,0,0,0,0,0,0,0,0,0,0,0,0,0s0,0,0,0c0,0,0,0,0,0,0,0,0,0,0,0,0,0,0,0,0,0,0,0,0,0,0,0h0s.5,0,.5,0h-.5s.5,0,.5,0h-.5s0,0,0,0h0,0,0,0s.5,0,.5,0h-.5s.5,0,.5,0h-.5s0,0,0,0h.5s-.5,0-.5,0h.5s-.5,0-.5,0h0s.5,0,.5,0h-.5s0-.2,0-.2c0-1.4.1-2.9.1-4.3,0-1,0-2.1,0-3.1h0c0,0,1,0,1,0h0c0,0-1,0-1,0h1c0,1,0,1.9,0,2.8,0,1.6,0,3.1-.1,4.7h-.5s.5,0,.5,0h-.5s.5,0,.5,0h0,0-.5s.5,0,.5,0h0,0-.5s.5,0,.5,0h0,0-.5s0,0,0,0h.5s0,0,0,0h0-.5s.5,0,.5,0h-.5s.5,0,.5,0h-.5s.5,0,.5,0h-.5s.5,0,.5,0h-.5s0,0,0,0h.5s-.5,0-.5,0h.5s-.5,0-.5,0h0s.5,0,.5,0c0,.2,0,.4,0,.7-2,40.8-17.8,70.7-44.4,84.5-9.4,4.9-20.1,7.5-31.5,7.9h0c-.7,0-1.4,0-2.1,0-.2,0-.4,0-.6,0-.1,0-.3,0-.4,0ZM474.5,340.1h-1s1,0,1,0ZM473.9,340.1h-.5s0,0,0,0h0s.5,0,.5,0h-.5s0,0,0,0h0s.3,0,.3,0h-.3s1,0,1,0h0,0-.5s.5,0,.5,0h0,0-.5s.5,0,.5,0h0s0,0,0,0h-.5ZM473.9,340h-.5s1,0,1,0h-.5Z"/>
            <path class="cls-141" d="M332.3,95.6c-22.3-12.9-43.6-19.4-63.4-19.4v-1c20,0,41.5,6.6,63.9,19.5l-.5.9Z"/>
            <path class="cls-141" d="M395.3,441.1c-20,0-41.5-6.6-63.9-19.5-38-21.9-73.6-59.5-100.4-105.8-26.7-46.3-41.4-95.9-41.3-139.5,0-30.9,7.7-56.7,22.1-74.5,14-17.4,33.7-26.6,57.1-26.6s41.5,6.6,63.9,19.5c38,21.9,73.6,59.5,100.4,105.8,26.7,46.3,41.4,95.9,41.3,139.5,0,30.9-7.7,56.7-22.1,74.5-14,17.4-33.7,26.6-57.1,26.6ZM268.9,76.2c-23,0-42.5,9.1-56.3,26.2-14.2,17.6-21.8,43.2-21.9,73.9-.3,89.7,63.1,199.4,141.1,244.4,22.3,12.9,43.6,19.4,63.4,19.4s42.5-9.1,56.3-26.2c14.2-17.6,21.8-43.2,21.9-73.9.3-89.7-63.1-199.4-141.1-244.4-22.3-12.9-43.6-19.4-63.4-19.4Z"/>
            <path class="cls-141" d="M429.8,433.1l-.5-.9c13.7-7.1,24.5-18.5,32.1-33.9,7.9-16,11.9-35.6,12-58.2v-.5c0-43.4-14.7-92.7-41.3-138.7-26.6-46.1-62.1-83.4-99.8-105.2l.5-.9c37.9,21.9,73.5,59.4,100.2,105.6,26.7,46.2,41.4,95.6,41.4,139.2v.5c0,22.8-4.1,42.5-12.1,58.7-7.7,15.6-18.6,27.2-32.6,34.4Z"/>
          </g>
          <g class="cls-149">
            <path class="cls-141" d="M268.9,441.1c-1,0-2,0-3,0h0c-11.5-.4-22.1-3.1-31.5-7.9-26.6-13.7-42.4-43.7-44.4-84.5,0-.2,0-.4,0-.7h0s.5,0,.5,0h0s-.5,0-.5,0h0c0,0,.5,0,.5,0h0s-.5,0-.5,0h0s.5,0,.5,0h0s-.5,0-.5,0h.5s0,0,0,0h-.5s0,0,0,0h.5s0,0,0,0h-.5s0,0,0,0h.5s-.5,0-.5,0h0c0-1.5-.1-3.1-.1-4.7,0-.9,0-1.9,0-2.8h0s0,0,0,0h1s-1,0-1,0h1s0,0,0,0h-1s1,0,1,0c0,1,0,2.1,0,3.1,0,1.5,0,2.9.1,4.3v.3s0,0,0,0h0s0,0,0,0c0,0,0,0,0,0,0,0,0,0,0,0,0,0,0,0,0,0,0,0,0,0,0,0,0,0,0,0,0,0,0,0,0,0,0,0,0,0,0,0,0,0,0,0,0,0,0,0,0,0,0,0,0,0h0c1.3,27.6,9.1,50.7,22.5,66.8,13.1,15.7,31.2,24.4,52.4,25.1,0,0,0,0,0,0,5.3.2,10.7-.1,16.3-.9,15.4-2.2,31.6-8,48.3-17.4.6-.3,1.2-.7,1.8-1l.5.9c-.6.3-1.2.7-1.8,1-16.7,9.4-32.8,15.2-48.2,17.5-4.7.7-9.4,1-13.9,1ZM190.4,347.9h-.5s.5,0,.5,0ZM190.4,347.9h-.5s.5,0,.5,0h0ZM190.4,347.9h-.5s.5,0,.5,0ZM190.4,347.8h-.5s.5,0,.5,0h0ZM190.4,347.7h-.5s.5,0,.5,0h0ZM190.1,347.7h-.2s.5,0,.5,0h-.3ZM190.2,347.7h-.3s.5,0,.5,0h-.3ZM189.7,340.1h0s1,0,1,0h-1s1,0,1,0h0s0,0,0,0h-1ZM189.7,340.1h0c0,0,1,0,1,0h-1s1,0,1,0h0,0-1s0,0,0,0h0Z"/>
            <path class="cls-141" d="M331.9,95.6l-.5-.9c22.4-13,43.9-19.5,63.9-19.5v1c-19.8,0-41.1,6.5-63.4,19.4Z"/>
            <path class="cls-141" d="M268.9,441.1h0c-23.4,0-43.1-9.2-57.1-26.6-14.4-17.8-22-43.6-22.1-74.5-.1-43.6,14.5-93.2,41.3-139.5,26.7-46.3,62.4-83.9,100.4-105.8,22.4-13,43.9-19.5,63.9-19.5s43.1,9.2,57.1,26.6c14.4,17.8,22,43.6,22.1,74.5.1,43.6-14.5,93.2-41.3,139.5-26.7,46.3-62.4,83.9-100.4,105.8-22.4,13-43.9,19.5-63.9,19.5ZM395.3,76.2c-19.8,0-41.1,6.5-63.4,19.4-78.1,45.1-141.4,154.7-141.1,244.4,0,30.7,7.6,56.2,21.9,73.9,13.8,17.1,33.3,26.2,56.3,26.2h0c19.8,0,41.1-6.5,63.4-19.4,78.1-45.1,141.4-154.7,141.1-244.4,0-30.7-7.6-56.2-21.9-73.9-13.8-17.1-33.3-26.2-56.3-26.2Z"/>
            <path class="cls-141" d="M234.3,433.1c-13.9-7.2-24.9-18.7-32.6-34.4-8-16.2-12-35.9-12.1-58.7v-.5c0-43.6,14.7-93,41.4-139.2,26.7-46.2,62.3-83.7,100.2-105.6l.5.9c-37.7,21.8-73.2,59.1-99.8,105.2-26.6,46-41.3,95.3-41.3,138.7v.5c0,22.6,4.1,42.2,12,58.2,7.6,15.4,18.4,26.9,32.1,33.9l-.5.9Z"/>
          </g>
        </g>
      </g>
    </g>
  </g>
</svg>