<?xml version="1.0" encoding="UTF-8"?>
<svg id="Layer_1" data-name="Layer 1" xmlns="http://www.w3.org/2000/svg" xmlns:xlink="http://www.w3.org/1999/xlink" viewBox="0 0 612 792">
  <defs>
    <style>
      .cls-1, .cls-2 {
        opacity: .5;
      }

      .cls-3 {
        fill: url(#linear-gradient);
      }

      .cls-3, .cls-4, .cls-5, .cls-6, .cls-2, .cls-7, .cls-8, .cls-9, .cls-10, .cls-11, .cls-12, .cls-13 {
        stroke-width: 0px;
      }

      .cls-3, .cls-2, .cls-7, .cls-11 {
        isolation: isolate;
      }

      .cls-3, .cls-14 {
        opacity: .1;
      }

      .cls-15, .cls-7 {
        opacity: .2;
      }

      .cls-4 {
        fill: url(#linear-gradient-6);
      }

      .cls-5 {
        fill: url(#linear-gradient-11);
      }

      .cls-16 {
        stroke: url(#linear-gradient-5);
        stroke-miterlimit: 10;
      }

      .cls-16, .cls-17 {
        fill: none;
        stroke-width: 10px;
      }

      .cls-18 {
        opacity: .05;
      }

      .cls-6 {
        fill: url(#linear-gradient-13);
      }

      .cls-6, .cls-12 {
        fill-rule: evenodd;
      }

      .cls-2 {
        fill: url(#linear-gradient-4);
      }

      .cls-7 {
        fill: url(#linear-gradient-2);
      }

      .cls-8 {
        fill: url(#linear-gradient-7);
      }

      .cls-9 {
        fill: url(#linear-gradient-9);
      }

      .cls-19, .cls-11 {
        opacity: .3;
      }

      .cls-10 {
        fill: url(#linear-gradient-8);
      }

      .cls-11 {
        fill: url(#linear-gradient-3);
      }

      .cls-12 {
        fill: url(#linear-gradient-14);
      }

      .cls-13 {
        fill: url(#linear-gradient-10);
      }

      .cls-17 {
        stroke: url(#linear-gradient-12);
      }
    </style>
    <linearGradient id="linear-gradient" x1="-490.83" y1="525.42" x2="-36.47" y2="319.22" gradientTransform="translate(564 1028) scale(1 -1)" gradientUnits="userSpaceOnUse">
      <stop offset=".08" stop-color="#0c8eca"/>
      <stop offset=".86" stop-color="#5dc7ce"/>
    </linearGradient>
    <linearGradient id="linear-gradient-2" x1="-490.83" y1="561.5" x2="-36.47" y2="355.3" xlink:href="#linear-gradient"/>
    <linearGradient id="linear-gradient-3" x1="-490.83" y1="597.58" x2="-36.47" y2="391.38" xlink:href="#linear-gradient"/>
    <linearGradient id="linear-gradient-4" x1="-490.83" y1="633.66" x2="-36.47" y2="427.46" xlink:href="#linear-gradient"/>
    <linearGradient id="linear-gradient-5" x1="-487.5" y1="632.14" x2="-39.8" y2="428.97" xlink:href="#linear-gradient"/>
    <linearGradient id="linear-gradient-6" x1="-282.45" y1="543.41" x2="-155.99" y2="515.51" xlink:href="#linear-gradient"/>
    <linearGradient id="linear-gradient-7" x1="-305.15" y1="892.39" x2="-77.64" y2="846.38" xlink:href="#linear-gradient"/>
    <linearGradient id="linear-gradient-8" x1="-324" y1="881.08" x2="-96.49" y2="835.07" xlink:href="#linear-gradient"/>
    <linearGradient id="linear-gradient-9" x1="-342.84" y1="869.78" x2="-115.33" y2="823.76" xlink:href="#linear-gradient"/>
    <linearGradient id="linear-gradient-10" x1="-361.68" y1="858.47" x2="-134.17" y2="812.46" xlink:href="#linear-gradient"/>
    <linearGradient id="linear-gradient-11" x1="-383.01" y1="847.17" x2="-155.55" y2="801.16" xlink:href="#linear-gradient"/>
    <linearGradient id="linear-gradient-12" x1="-379.46" y1="845.39" x2="-159.34" y2="800.87" xlink:href="#linear-gradient"/>
    <linearGradient id="linear-gradient-13" x1="-295.04" y1="825.66" x2="-259.13" y2="821.14" gradientTransform="translate(564 1028) scale(1 -1)" gradientUnits="userSpaceOnUse">
      <stop offset=".08" stop-color="#44ace1"/>
      <stop offset=".86" stop-color="#6dccdf"/>
    </linearGradient>
    <linearGradient id="linear-gradient-14" x1="-291.1" y1="823.22" x2="-232.18" y2="823.77" gradientTransform="translate(564 1028) scale(1 -1)" gradientUnits="userSpaceOnUse">
      <stop offset=".08" stop-color="#fff"/>
      <stop offset=".86" stop-color="#5dc7ce"/>
    </linearGradient>
  </defs>
  <path class="cls-3" d="M85.36,605.46c.23-5.17,1.87-10.34,5.34-14.34,1.41-1.65,3-3.29,5.11-4.46.23-.24.7-.47.94-.71l157.06-91.9c.7-.47,1.36-.7,1.83-1.17l1.17-.71c2.11-1.17,3-1.88,3-1.88h.23l11.39-6.58c1.41-.7,2.77-1.65,4.17-2.11,0,0,.23,0,.23-.23,17.62-8.23,38.06-7.52,54.98,2.35l173.09,101.77c9.75,5.64,13.22,16.92,10.45,26.79-.23.94-.7,1.88-.94,2.82-1.87,4.23-5.11,7.99-9.51,10.57l-174.5,102c-18.33,10.81-41.06,10.81-59.39,0l-173.09-101.77c-4.41-2.58-7.64-6.34-9.47-10.57-.23,0-2.34-3.99-2.11-9.87Z"/>
  <path class="cls-7" d="M85.36,569.39c.23-5.17,1.87-10.34,5.34-14.34,1.41-1.65,3-3.29,5.11-4.47.23-.23.7-.47.94-.7l157.06-91.9c.7-.47,1.36-.7,1.83-1.18l1.17-.7c2.11-1.18,3-1.88,3-1.88h.23l11.39-6.58c1.41-.71,2.77-1.65,4.17-2.11,0,0,.23,0,.23-.24,17.62-8.23,38.06-7.52,54.98,2.35l173.09,101.77c9.75,5.64,13.22,16.92,10.45,26.79-.23.94-.7,1.88-.94,2.82-1.87,4.23-5.11,7.99-9.51,10.57l-174.5,102c-18.33,10.81-41.06,10.81-59.39,0l-173.09-101.77c-4.41-2.58-7.64-6.35-9.47-10.57-.23,0-2.34-4-2.11-9.87Z"/>
  <path class="cls-11" d="M85.36,533.31c.23-5.17,1.87-10.34,5.34-14.33,1.41-1.65,3-3.29,5.11-4.47.23-.23.7-.47.94-.7l157.06-91.9c.7-.47,1.36-.71,1.83-1.18l1.17-.7c2.11-1.18,3-1.88,3-1.88h.23l11.39-6.58c1.41-.71,2.77-1.65,4.17-2.12,0,0,.23,0,.23-.23,17.62-8.23,38.06-7.52,54.98,2.35l173.09,101.76c9.75,5.64,13.22,16.93,10.45,26.8-.23.94-.7,1.88-.94,2.82-1.87,4.23-5.11,7.99-9.51,10.58l-174.5,102c-18.33,10.81-41.06,10.81-59.39,0l-173.09-101.77c-4.41-2.59-7.64-6.35-9.47-10.58-.23,0-2.34-3.99-2.11-9.87Z"/>
  <path class="cls-2" d="M85.36,497.23c.23-5.17,1.87-10.34,5.34-14.33,1.41-1.65,3-3.29,5.11-4.47.23-.23.7-.47.94-.71l157.06-91.89c.7-.47,1.36-.71,1.83-1.18l1.17-.7c2.11-1.18,3-1.88,3-1.88h.23l11.39-6.58c1.41-.7,2.77-1.65,4.17-2.11,0,0,.23,0,.23-.23,17.62-8.23,38.06-7.52,54.98,2.35l173.09,101.77c9.75,5.64,13.22,16.92,10.45,26.79-.23.94-.7,1.88-.94,2.82-1.87,4.23-5.11,7.99-9.51,10.57l-174.5,102c-18.33,10.81-41.06,10.81-59.39,0l-173.09-101.76c-4.41-2.59-7.64-6.35-9.47-10.58-.23,0-2.34-3.99-2.11-9.87Z"/>
  <path class="cls-16" d="M85.36,497.23c.23-5.17,1.87-10.34,5.34-14.33,1.41-1.65,3-3.29,5.11-4.47.23-.23.7-.47.94-.71l157.06-91.89c.7-.47,1.36-.71,1.83-1.18l1.17-.7c2.11-1.18,3-1.88,3-1.88h.23l11.39-6.58c1.41-.7,2.77-1.65,4.17-2.11,0,0,.23,0,.23-.23,17.62-8.23,38.06-7.52,54.98,2.35l173.09,101.77c9.75,5.64,13.22,16.92,10.45,26.79-.23.94-.7,1.88-.94,2.82-1.87,4.23-5.11,7.99-9.51,10.57l-174.5,102c-18.33,10.81-41.06,10.81-59.39,0l-173.09-101.76c-4.41-2.59-7.64-6.35-9.47-10.58-.23,0-2.34-3.99-2.11-9.87Z"/>
  <path class="cls-4" d="M197.62,488.27c.09-2.41.84-4.83,2.48-6.69.66-.77,1.45-1.54,2.39-2.09.14-.11.33-.22.47-.33l73.92-42.89c.33-.22.66-.33.84-.55l.56-.33c.98-.55,1.41-.88,1.41-.88h.14l5.34-3.07c.66-.33,1.31-.77,1.97-.99,0,0,.09,0,.09-.11,8.3-3.84,17.91-3.51,25.87,1.1l81.46,47.5c4.59,2.63,6.23,7.9,4.92,12.51-.14.44-.33.88-.47,1.32-.84,1.98-2.39,3.73-4.45,4.94l-82.12,47.61c-8.62,5.05-19.31,5.05-27.93,0l-81.46-47.5c-2.06-1.21-3.61-2.96-4.45-4.94-.14,0-1.12-1.87-.98-4.61Z"/>
  <g class="cls-18">
    <path class="cls-8" d="M372.54,33.72c-1.5,1.38-30,28.13-93.04,16.33-.14,7.28-3.05,146.56,92.29,233.21,95.57,23.49,93.55-118.55,93.46-125.96-62.95-60.91-91.21-120.44-92.71-123.58Z"/>
  </g>
  <g class="cls-14">
    <path class="cls-10" d="M353.7,45.02c-1.5,1.38-30,28.13-93.04,16.33-.14,7.28-3.05,146.56,92.29,233.21,95.57,23.49,93.55-118.55,93.46-125.96-62.95-60.91-91.21-120.44-92.71-123.58Z"/>
  </g>
  <g class="cls-15">
    <path class="cls-9" d="M334.85,56.33c-1.5,1.38-30,28.13-93.04,16.33-.14,7.28-3,146.56,92.29,233.21,95.57,23.49,93.55-118.55,93.46-125.96-62.95-60.91-91.21-120.44-92.71-123.58Z"/>
  </g>
  <g class="cls-19">
    <path class="cls-13" d="M316.01,67.63c-1.5,1.38-30,28.13-93.04,16.33-.14,7.28-3,146.56,92.29,233.22,95.57,23.48,93.55-118.56,93.46-125.97-62.95-60.91-91.16-120.44-92.71-123.58Z"/>
  </g>
  <g class="cls-1">
    <path class="cls-5" d="M294.69,78.94c-1.5,1.38-30,28.13-93.09,16.33-.09,7.28-3,146.56,92.34,233.22,95.57,23.48,93.55-118.56,93.41-125.97-62.9-60.91-91.16-120.44-92.66-123.58Z"/>
  </g>
  <path class="cls-17" d="M379.38,205.92c-49.5-48.56-77.38-95.84-87.56-114.88-12.47,7.87-39.09,19.54-82.12,13.66.33,14.03,2.06,42.18,10.08,75.54,10.83,45.16,33,99.24,78.04,140.91,20.76,4.64,35.43.44,46.17-7.78,11.44-8.76,19.5-22.85,24.94-38.88,9.42-27.65,10.41-58.32,10.45-68.58Z"/>
  <path class="cls-6" d="M272.61,184.04c0-9.66,6.42-13.38,14.3-8.55,7.87,4.46,14.34,15.98,14.34,25.65,0,6.29-2.95,10.03-7.31,10.4l-.33,24.38-10.97-6.45v-23.19c-5.81-5.71-10.03-14.71-10.03-22.24Z"/>
  <path class="cls-12" d="M272.61,184.04c0-9.66,6.42-13.38,14.3-8.55,7.87,4.46,14.34,15.98,14.34,25.65,0,6.29-2.95,10.03-7.31,10.4l-.33,24.38-10.97-6.45v-23.19c-5.81-5.71-10.03-14.71-10.03-22.24Z"/>
</svg>