<svg width="1578" height="1007" viewBox="0 0 1578 1007" fill="none" xmlns="http://www.w3.org/2000/svg">
<path d="M956.582 366.15L1576.58 3.14966" stroke="url(#paint0_linear)" stroke-width="5"/>
<path d="M949.582 327.65L876.68 291.696C785.017 246.489 676.645 251.059 589.113 303.821L549.582 327.65" stroke="#FFBD0C"/>
<path fill-rule="evenodd" clip-rule="evenodd" d="M2.73685 110.933L444.044 341.049L438.926 343.867L0.42627 115.367L2.73685 110.933Z" fill="url(#paint1_linear)"/>
<path d="M383.082 421.15L396.861 429.57C419.277 443.269 419.173 475.86 396.671 489.415L327.79 530.91C305.699 544.218 305.099 576.036 326.672 590.168L409.082 644.15" stroke="#FFBD0C"/>
<path d="M1006.45 532.963C1006.12 534.176 1005.64 535.308 1005.15 536.44C1002.81 541.776 998.767 546.547 993.026 549.862L770.344 679.315C746.653 693.06 717.464 693.141 693.772 679.396L469.231 549.781C463.491 546.466 459.448 541.695 457.103 536.278C456.618 535.146 456.133 534.014 455.809 532.801C452.171 520.511 456.618 506.199 469.231 498.922L691.832 369.469C715.523 355.723 744.713 355.723 768.404 369.388L992.945 499.003C1005.64 506.28 1010.09 520.672 1006.45 532.963Z" fill="#DCDCDC"/>
<g opacity="0.3">
<path d="M1007.42 535.955C1005.07 541.291 1001.03 546.062 995.291 549.377L772.609 678.83C748.918 692.576 719.728 692.656 696.037 678.911L471.496 549.296C465.755 545.981 461.713 541.21 459.368 535.793C461.713 530.456 465.755 525.686 471.496 522.371L694.097 392.918C717.788 379.172 746.977 379.091 770.669 392.837L995.21 522.532C1000.95 525.848 1005.07 530.618 1007.42 535.955Z" fill="url(#paint2_linear)"/>
</g>
<path d="M762.914 366L759 388.432C759 388.432 763.974 390.463 770.416 394.121C776.858 397.859 839.563 433.945 884.411 459.709C929.259 485.472 980.874 515.219 980.874 515.219L994.003 522.777C994.003 522.777 1003.71 527.491 1007.46 537C1007.46 537 1010.23 531.88 1009.98 524.24C1009.74 516.6 1005.58 505.384 996.449 500.102C987.316 494.819 783.544 377.541 783.544 377.541C783.544 377.541 765.523 367.219 762.914 366Z" fill="url(#paint3_linear)"/>
<path d="M1007.63 536.763C1005.29 542.1 1001.25 546.87 995.505 550.185L772.824 679.638C749.132 693.384 719.943 693.465 696.252 679.719L471.711 550.105C465.97 546.789 461.927 542.019 459.582 536.601C461.927 531.265 465.97 526.494 471.711 523.179L694.311 393.726C718.002 379.981 747.192 379.9 770.883 393.645L995.424 523.341C1001.16 526.656 1005.29 531.426 1007.63 536.763Z" fill="url(#paint4_linear)"/>
<path opacity="0.3" d="M560.698 581.293C560.698 581.293 575.631 578.528 576.553 547.649C577.475 516.769 585.31 510.962 593.79 506.538C602.27 502.113 621.904 503.311 639.418 503.772C656.931 504.233 716.386 512.529 736.665 493.54C756.944 474.552 766.254 455.287 789.114 442.751" stroke="#FFBD0C" stroke-width="3" stroke-miterlimit="10"/>
<path d="M790.128 429.569C767.268 442.105 753.994 464.781 733.715 483.677C713.436 502.574 653.982 494.37 636.468 493.909C618.954 493.448 599.228 492.25 590.84 496.674C582.452 501.099 574.525 506.906 573.603 537.786C572.681 568.665 550.282 571.983 550.282 571.983L606.234 604.43L849.582 463.767L790.128 429.569Z" fill="url(#paint5_linear)"/>
<path d="M550.282 571.983C550.282 571.983 572.681 568.665 573.603 537.786C574.525 506.906 582.36 501.099 590.84 496.674C599.321 492.25 618.954 493.448 636.468 493.909C653.982 494.37 713.436 502.666 733.715 483.677C753.994 464.689 767.268 442.105 790.128 429.569" stroke="#FFBD0C" stroke-width="3" stroke-miterlimit="10"/>
<path d="M587.082 499.15L674.082 550.65" stroke="#FFBD0C" stroke-width="3" stroke-dasharray="5 10"/>
<path d="M551.582 571.15L618.582 609.65" stroke="#FFBD0C" stroke-width="3" stroke-dasharray="5 10"/>
<path d="M729.082 486.65L752.082 500.15" stroke="#FFBD0C" stroke-width="3" stroke-dasharray="5 10"/>
<path d="M789.582 429.15L809.582 440.65" stroke="#FFBD0C" stroke-width="3" stroke-dasharray="5 10"/>
<path d="M707.418 637.647L698.582 632.591L801.082 573.15L810.123 578.412L707.418 637.647Z" fill="#FFDE83"/>
<path opacity="0.5" d="M731.418 656.646L722.582 651.59L753.041 633.888L762.082 639.15L731.418 656.646Z" fill="#FFDE83"/>
<path d="M938.48 540.741C938.517 527.838 920.229 517.327 897.632 517.264C875.035 517.201 856.687 527.61 856.649 540.513C856.612 553.416 874.9 563.927 897.497 563.99C920.094 564.053 938.442 553.644 938.48 540.741Z" stroke="#FFDE83" stroke-opacity="0.3" stroke-width="3" stroke-miterlimit="10"/>
<path d="M897.632 517.264C920.229 517.327 938.517 527.838 938.48 540.741" stroke="#E63E4A" stroke-width="8" stroke-miterlimit="10"/>
<path fill-rule="evenodd" clip-rule="evenodd" d="M575.568 607.92L475.803 663.909L473.36 659.547L570.793 604.969L575.568 607.92Z" fill="url(#paint6_linear)"/>
<path d="M491.325 385.731L555.069 348.975L491.325 312.15L427.582 348.975L491.325 385.731Z" fill="url(#paint7_linear)"/>
<path d="M491.325 385.487V406.11L555.069 369.285V348.731L491.325 385.487Z" fill="url(#paint8_linear)"/>
<path d="M491.325 385.487V405.785L427.582 368.96V348.731L491.325 385.487Z" fill="url(#paint9_linear)"/>
<path d="M451.371 730.994L549.923 674.167L451.371 617.233L352.821 674.167L451.371 730.994Z" fill="url(#paint10_linear)"/>
<path d="M451.372 730.994V750.007L549.923 693.073V674.167L451.372 730.994Z" fill="url(#paint11_linear)"/>
<path d="M451.371 730.994V750.007L352.821 693.073V674.167L451.371 730.994Z" fill="url(#paint12_linear)"/>
<path d="M501.582 712.15L829.594 898.199C849.408 909.438 849.96 937.791 830.598 949.793L752.582 998.15" stroke="url(#paint13_linear)" stroke-width="5" stroke-linecap="round"/>
<path d="M634.082 784.65L689.334 752.125C698.742 746.587 710.416 746.597 719.815 752.151L820.687 811.757C830.435 817.517 842.595 817.299 852.129 811.193L970.082 735.65" stroke="#FFBD0C"/>
<circle cx="381.582" cy="420.15" r="5" fill="#FFBD0C"/>
<circle cx="633.582" cy="787.15" r="5" fill="#FFBD0C"/>
<circle cx="800.582" cy="266.15" r="5" fill="#FFBD0C"/>
<path d="M1067.08 671.65L1275.32 551.091C1296.01 539.115 1295.06 508.938 1273.67 498.277L1024.58 374.15" stroke="#FFBD0C"/>
<path fill-rule="evenodd" clip-rule="evenodd" d="M1038.43 357.68C1038.6 358.611 1038.68 359.557 1038.68 360.514C1038.64 375.497 1017.33 387.584 991.093 387.511C964.854 387.438 943.618 375.232 943.661 360.249C943.663 359.299 943.752 358.361 943.921 357.436V340.572L957.952 340.924C966.537 336.145 978.292 333.216 991.25 333.252C1005.54 333.292 1018.35 336.931 1027.04 342.658L1038.43 342.944V357.68Z" fill="url(#paint14_linear)"/>
<path d="M1038.68 341.544C1038.72 326.561 1017.49 314.355 991.249 314.282C965.01 314.209 943.703 326.296 943.66 341.279C943.617 356.262 964.853 368.468 991.093 368.541C1017.33 368.614 1038.64 356.527 1038.68 341.544Z" fill="url(#paint15_linear)"/>
<path d="M1038.68 341.544C1038.72 326.561 1017.49 314.355 991.249 314.282C965.01 314.209 943.703 326.296 943.66 341.279C943.617 356.262 964.853 368.468 991.093 368.541C1017.33 368.614 1038.64 356.527 1038.68 341.544Z" fill="url(#paint16_linear)"/>
<path d="M1017.2 341.486C1017.22 333.094 1005.33 326.259 990.632 326.218C975.937 326.177 964.004 332.946 963.98 341.337C963.956 349.729 975.849 356.565 990.545 356.606C1005.24 356.647 1017.17 349.877 1017.2 341.486Z" fill="url(#paint17_linear)"/>
<path d="M870.065 453.365C870.06 455.405 867.158 457.051 863.586 457.041C860.013 457.031 857.121 455.369 857.127 453.329C857.133 451.289 860.034 449.643 863.607 449.653C867.18 449.663 870.071 451.325 870.065 453.365Z" fill="white"/>
<path d="M609.962 453.043C609.956 455.083 607.055 456.729 603.482 456.719C599.909 456.709 597.018 455.047 597.024 453.007C597.029 450.967 599.931 449.321 603.503 449.331C607.076 449.341 609.968 451.003 609.962 453.043Z" fill="white"/>
<path d="M525.032 371.34C527.535 369.949 529.482 371.061 529.482 373.843C529.482 376.625 527.535 380.102 525.032 381.632C522.528 383.023 520.579 381.91 520.579 379.128C520.579 376.208 522.528 372.731 525.032 371.34Z" fill="white"/>
<path d="M575.571 610.052V607.884L573.644 608.968L575.571 610.052Z" fill="#E73E4A"/>
<path d="M868.346 624.167V621.318L870.783 622.697L868.346 624.167Z" fill="#F69322"/>
<path d="M455.798 371.26C453.295 369.869 451.349 370.981 451.349 373.763C451.349 376.545 453.295 380.022 455.798 381.552C458.302 382.943 460.251 381.83 460.251 379.048C460.251 376.127 458.302 372.651 455.798 371.26Z" fill="white"/>
<path d="M399.726 706.941C397.222 705.55 395.276 706.662 395.276 709.444C395.276 712.226 397.222 715.703 399.726 717.233C402.23 718.624 404.179 717.511 404.179 714.73C404.179 711.809 402.23 708.332 399.726 706.941Z" fill="white"/>
<path d="M959.571 365.467C957.067 364.076 955.121 365.189 955.121 367.97C955.121 370.752 957.067 374.229 959.571 375.759C962.075 377.15 964.023 376.037 964.023 373.256C964.023 370.335 962.075 366.858 959.571 365.467Z" fill="white"/>
<path fill-rule="evenodd" clip-rule="evenodd" d="M28.3164 624.994L452.653 375.765L454.762 377.109L456.871 378.453L30.8471 629.306L28.3164 624.994Z" fill="url(#paint18_linear)"/>
<path d="M456.465 375.619C457.329 376.543 457.221 378.294 456.781 378.474H455.253C453.801 378.042 451.25 376.9 452.661 375.786C454.425 374.395 455.601 374.695 456.465 375.619Z" fill="#FFC427"/>
<path fill-rule="evenodd" clip-rule="evenodd" d="M601.001 422.314L524.377 378.684L526.542 375.099L606.001 419.69V452.296L601.001 450.86V422.314Z" fill="#F27D2D"/>
<path d="M524.28 375.81C523.223 377.146 523.93 378.269 524.416 378.664L527.93 376.917L526.532 375.131C526.105 374.969 525.056 374.879 524.28 375.81Z" fill="#F27D2D"/>
<circle cx="564.582" cy="398.15" r="5" fill="#FFBD0C"/>
<path d="M398.582 712.65L131.582 859.15" stroke="url(#paint19_linear)" stroke-width="5" stroke-linecap="round"/>
<circle cx="364.582" cy="731.15" r="5" fill="#FFBD0C"/>
<path fill-rule="evenodd" clip-rule="evenodd" d="M866.082 426.193L960.49 373.42L957.82 369.024L861.082 423.263L861.082 450.44L866.082 453.347L866.082 426.193Z" fill="url(#paint20_linear)"/>
<path d="M863.298 454.87C865.237 455.444 866.057 453.813 866.057 453.324C865.738 453.043 865.082 452.467 865.009 452.413C864.937 452.358 862.396 451.114 861.135 450.498C861.142 452.033 860.997 454.188 863.298 454.87Z" fill="#FFC40C"/>
<circle cx="894.582" cy="407.15" r="5" fill="#FFBD0C"/>
<path d="M961.339 370.234C960.27 368.429 958.539 368.69 957.807 369.046C957.672 369.348 959.501 372.091 960.433 373.425C961.18 373.113 962.408 372.039 961.339 370.234Z" fill="#E73E4A"/>
<path fill-rule="evenodd" clip-rule="evenodd" d="M995.84 694.319L868.34 621.319L872.495 618.651L998.324 689.98L995.84 694.319Z" fill="url(#paint21_linear)"/>
<path fill-rule="evenodd" clip-rule="evenodd" d="M1072.25 681.222V715.006L1071.73 715.341C1071.72 715.35 1071.72 715.36 1071.71 715.37C1071.65 715.547 1071.58 715.724 1071.54 715.901C1070.83 717.494 1069.59 718.91 1067.9 719.883L1001.26 758.293C994.263 762.364 985.578 762.364 978.577 758.293L960.684 747.947C959 746.974 957.759 745.558 957.051 743.965C956.962 743.965 956.164 742.46 956.253 740.247C956.342 738.3 956.962 736.353 958.291 734.849C958.823 734.229 959.443 733.61 960.241 733.167C960.285 733.123 960.352 733.079 960.418 733.035C960.484 732.99 960.551 732.946 960.595 732.902L1020.59 698.298C1020.69 698.228 1020.8 698.172 1020.9 698.119C1021.05 698.037 1021.19 697.962 1021.3 697.855L1021.74 697.59C1022.54 697.147 1022.89 696.882 1022.89 696.882H1022.98L1027.32 694.404C1027.5 694.315 1027.68 694.217 1027.86 694.118C1028.21 693.922 1028.56 693.725 1028.92 693.607C1028.92 693.607 1029.01 693.607 1029.01 693.519C1035.74 690.421 1043.54 690.686 1050.01 694.404L1053.35 696.335L1067.76 688.398C1069.16 687.401 1072.01 684.571 1072.25 681.222Z" fill="url(#paint22_linear)"/>
<path d="M956.253 708.557C956.342 706.61 956.962 704.663 958.291 703.158C958.823 702.538 959.443 701.919 960.241 701.476C960.329 701.388 960.507 701.299 960.595 701.211L1020.59 666.607C1020.86 666.43 1021.12 666.341 1021.3 666.164L1021.74 665.899C1022.54 665.456 1022.89 665.191 1022.89 665.191C1022.89 665.191 1022.89 665.191 1022.98 665.191L1027.32 662.713C1027.86 662.447 1028.39 662.093 1028.92 661.916C1028.92 661.916 1029.01 661.916 1029.01 661.828C1035.74 658.73 1043.54 658.996 1050.01 662.713L1067.9 673.059C1071.63 675.183 1072.96 679.431 1071.89 683.148C1071.8 683.502 1071.63 683.856 1071.54 684.21C1070.83 685.803 1069.59 687.219 1067.9 688.192L1001.26 726.602C994.263 730.673 985.578 730.673 978.577 726.602L960.684 716.256C959 715.283 957.759 713.867 957.051 712.274C956.962 712.274 956.164 710.769 956.253 708.557Z" fill="url(#paint23_linear)"/>
<path d="M965.984 709.062C966.05 707.614 966.51 706.166 967.497 705.048C967.892 704.587 968.352 704.126 968.944 703.797C969.01 703.731 969.142 703.666 969.207 703.6L1018.95 673.804C1019.15 673.673 1019.35 673.607 1019.48 673.475L1019.81 673.278C1020.4 672.949 1020.66 672.751 1020.66 672.751C1020.66 672.751 1020.66 672.751 1020.73 672.751L1023.95 670.909C1024.35 670.711 1024.11 670.758 1024.11 670.758C1024.11 670.758 1025.91 669.861 1033.08 666.274C1038.08 663.97 1041.6 664.267 1046.4 667.031L1059.68 674.724C1062.45 676.304 1063.43 679.462 1062.64 682.226C1062.58 682.49 1062.45 682.753 1062.38 683.016C1061.85 684.201 1060.93 685.254 1059.68 685.977L999.394 722.48C994.198 725.508 987.752 725.508 982.555 722.48L969.273 714.787C968.023 714.063 967.236 713.799 966.71 712.614C966.644 712.614 965.919 710.707 965.984 709.062Z" fill="url(#paint24_linear)"/>
<path d="M956.246 741.308V709.923C956.346 711.219 957.98 714.647 963.72 717.996C969.461 721.344 977.274 725.769 980.463 727.563C981.559 728.16 984.708 729.416 988.535 729.655C992.362 729.894 995.71 729.157 996.906 728.758V760.15C994.315 761.047 987.399 762.123 980.463 759.253C979.267 758.775 965.813 750.882 959.236 746.995C957.186 745.647 956.388 742.642 956.246 741.308Z" fill="url(#paint25_linear)"/>
<path d="M1034.4 717.512C1036.9 716.121 1038.85 717.233 1038.85 720.015C1038.85 722.797 1036.9 726.274 1034.4 727.804C1031.9 729.195 1029.95 728.082 1029.95 725.3C1029.95 722.379 1031.9 718.903 1034.4 717.512Z" fill="white"/>
<path d="M1035.43 723.218L1237.43 839.218L1536.43 1004.22" stroke="url(#paint26_linear)" stroke-width="5" stroke-linecap="round"/>
<circle cx="912.582" cy="644.15" r="5" fill="#FFBD0C"/>
<path d="M603.481 454.27C601.343 454.17 600.914 451.881 600.966 450.75C602.632 448.927 605.995 451.473 605.963 451.85C605.932 452.227 606.152 454.396 603.481 454.27Z" fill="#F27D2D"/>
<defs>
<linearGradient id="paint0_linear" x1="984.082" y1="353.15" x2="1475.08" y2="103.65" gradientUnits="userSpaceOnUse">
<stop stop-color="#FFBD0C"/>
<stop offset="1" stop-color="#FFBD0C" stop-opacity="0"/>
</linearGradient>
<linearGradient id="paint1_linear" x1="328.582" y1="302.65" x2="10.0816" y2="113.15" gradientUnits="userSpaceOnUse">
<stop stop-color="#FFDE83"/>
<stop offset="1" stop-color="#FFDE83" stop-opacity="0"/>
</linearGradient>
<linearGradient id="paint2_linear" x1="1007.42" y1="382.568" x2="444.455" y2="658.785" gradientUnits="userSpaceOnUse">
<stop offset="0.09375" stop-color="#E73E4A"/>
<stop offset="0.697917" stop-color="#F27D2D"/>
<stop offset="0.958333" stop-color="#FFC40C"/>
</linearGradient>
<linearGradient id="paint3_linear" x1="760.261" y1="365.824" x2="1134.84" y2="617.469" gradientUnits="userSpaceOnUse">
<stop offset="0.00558659" stop-color="#E5E5E5"/>
<stop offset="0.4394" stop-color="#D5D5D5"/>
<stop offset="1" stop-color="#B4B4B4"/>
</linearGradient>
<linearGradient id="paint4_linear" x1="1424.8" y1="286.15" x2="440.648" y2="636.854" gradientUnits="userSpaceOnUse">
<stop offset="0.09375" stop-color="#E73E4A"/>
<stop offset="0.697917" stop-color="#F27D2D"/>
<stop offset="0.958333" stop-color="#FFC40C"/>
</linearGradient>
<linearGradient id="paint5_linear" x1="658.082" y1="448.65" x2="709.767" y2="533.95" gradientUnits="userSpaceOnUse">
<stop stop-color="#E03E4A"/>
<stop offset="1" stop-color="#E03E4A" stop-opacity="0"/>
</linearGradient>
<linearGradient id="paint6_linear" x1="575.568" y1="604.969" x2="469.367" y2="655.52" gradientUnits="userSpaceOnUse">
<stop offset="0.09375" stop-color="#E73E4A"/>
<stop offset="0.697917" stop-color="#F27D2D"/>
<stop offset="0.958333" stop-color="#FFC40C"/>
</linearGradient>
<linearGradient id="paint7_linear" x1="566.925" y1="370.935" x2="442.097" y2="348.921" gradientUnits="userSpaceOnUse">
<stop offset="0.09375" stop-color="#E63E4A"/>
<stop offset="0.524274" stop-color="#F17D2D"/>
<stop offset="1" stop-color="#FFC30C"/>
</linearGradient>
<linearGradient id="paint8_linear" x1="213.282" y1="235.681" x2="560.523" y2="389.815" gradientUnits="userSpaceOnUse">
<stop offset="0.09375" stop-color="#E63E4A"/>
<stop offset="0.6979" stop-color="#F17D2D"/>
<stop offset="0.9583" stop-color="#FFD723"/>
</linearGradient>
<linearGradient id="paint9_linear" x1="397.56" y1="308.06" x2="617.883" y2="540.108" gradientUnits="userSpaceOnUse">
<stop offset="0.09375" stop-color="#E63E4A"/>
<stop offset="0.6979" stop-color="#F17D2D"/>
<stop offset="0.9583" stop-color="#FFC30C"/>
</linearGradient>
<linearGradient id="paint10_linear" x1="568.253" y1="708.118" x2="375.262" y2="674.083" gradientUnits="userSpaceOnUse">
<stop offset="0.09375" stop-color="#E63E4A"/>
<stop offset="0.524274" stop-color="#F17D2D"/>
<stop offset="1" stop-color="#FFC30C"/>
</linearGradient>
<linearGradient id="paint11_linear" x1="21.5017" y1="499.385" x2="558.355" y2="737.685" gradientUnits="userSpaceOnUse">
<stop offset="0.09375" stop-color="#E63E4A"/>
<stop offset="0.6979" stop-color="#F17D2D"/>
<stop offset="0.9583" stop-color="#FFD723"/>
</linearGradient>
<linearGradient id="paint12_linear" x1="306.405" y1="611.287" x2="647.037" y2="970.047" gradientUnits="userSpaceOnUse">
<stop offset="0.09375" stop-color="#E63E4A"/>
<stop offset="0.6979" stop-color="#F17D2D"/>
<stop offset="0.9583" stop-color="#FFC30C"/>
</linearGradient>
<linearGradient id="paint13_linear" x1="651.082" y1="712.15" x2="687.582" y2="998.15" gradientUnits="userSpaceOnUse">
<stop stop-color="#FFBD0C"/>
<stop offset="1" stop-color="#FFBD0C" stop-opacity="0"/>
</linearGradient>
<linearGradient id="paint14_linear" x1="1118.08" y1="323.15" x2="939.994" y2="374.891" gradientUnits="userSpaceOnUse">
<stop offset="0.09375" stop-color="#E73E4A"/>
<stop offset="0.697917" stop-color="#F27D2D"/>
<stop offset="0.958333" stop-color="#FFC40C"/>
</linearGradient>
<linearGradient id="paint15_linear" x1="890.555" y1="291.247" x2="911.546" y2="398.336" gradientUnits="userSpaceOnUse">
<stop offset="0.145833" stop-color="#099EDE"/>
<stop offset="1" stop-color="#45D6D9"/>
</linearGradient>
<linearGradient id="paint16_linear" x1="943.714" y1="322.727" x2="997.555" y2="394.914" gradientUnits="userSpaceOnUse">
<stop stop-color="#E73E4A"/>
<stop offset="1" stop-color="#FFC40C"/>
</linearGradient>
<linearGradient id="paint17_linear" x1="919.625" y1="287.388" x2="923.852" y2="361.967" gradientUnits="userSpaceOnUse">
<stop offset="0.09375" stop-color="#E73E4A"/>
<stop offset="0.697917" stop-color="#F27D2D"/>
<stop offset="0.958333" stop-color="#FFC40C"/>
</linearGradient>
<linearGradient id="paint18_linear" x1="455.582" y1="393.15" x2="264.082" y2="515.65" gradientUnits="userSpaceOnUse">
<stop stop-color="#FFC427"/>
<stop offset="1" stop-color="#FFC427" stop-opacity="0"/>
</linearGradient>
<linearGradient id="paint19_linear" x1="424.582" y1="713.15" x2="291.582" y2="793.65" gradientUnits="userSpaceOnUse">
<stop stop-color="#FFBD0C"/>
<stop offset="1" stop-color="#FFBD0C" stop-opacity="0"/>
</linearGradient>
<linearGradient id="paint20_linear" x1="960.49" y1="369.024" x2="845.805" y2="406.136" gradientUnits="userSpaceOnUse">
<stop offset="0.09375" stop-color="#E73E4A"/>
<stop offset="0.697917" stop-color="#F27D2D"/>
<stop offset="0.958333" stop-color="#FFC40C"/>
</linearGradient>
<linearGradient id="paint21_linear" x1="998.324" y1="618.651" x2="862.794" y2="682.558" gradientUnits="userSpaceOnUse">
<stop offset="0.09375" stop-color="#E73E4A"/>
<stop offset="0.697917" stop-color="#F27D2D"/>
<stop offset="0.958333" stop-color="#FFC40C"/>
</linearGradient>
<linearGradient id="paint22_linear" x1="1072.25" y1="681.222" x2="944.569" y2="731.962" gradientUnits="userSpaceOnUse">
<stop offset="0.09375" stop-color="#E73E4A"/>
<stop offset="0.697917" stop-color="#F27D2D"/>
<stop offset="0.958333" stop-color="#FFC40C"/>
</linearGradient>
<linearGradient id="paint23_linear" x1="996.009" y1="681.897" x2="1029.84" y2="746.858" gradientUnits="userSpaceOnUse">
<stop stop-color="#E73E4A"/>
<stop offset="1" stop-color="#FFC40C"/>
</linearGradient>
<linearGradient id="paint24_linear" x1="857.586" y1="646.243" x2="994.949" y2="819.786" gradientUnits="userSpaceOnUse">
<stop stop-color="#E73E4A"/>
<stop offset="1" stop-color="#FFC40C"/>
</linearGradient>
<linearGradient id="paint25_linear" x1="902.133" y1="697.144" x2="943.36" y2="807.355" gradientUnits="userSpaceOnUse">
<stop offset="0.09375" stop-color="#E73E4A"/>
<stop offset="0.697917" stop-color="#F27D2D"/>
<stop offset="0.958333" stop-color="#FFC40C"/>
</linearGradient>
<linearGradient id="paint26_linear" x1="997.943" y1="856.237" x2="1019.43" y2="1000.72" gradientUnits="userSpaceOnUse">
<stop offset="0.065817" stop-color="#FFBD0C"/>
<stop offset="0.9583" stop-color="#FFC30C" stop-opacity="0"/>
</linearGradient>
</defs>
</svg>
