<?xml version="1.0" encoding="UTF-8"?>
<svg id="Layer_1" data-name="Layer 1" xmlns="http://www.w3.org/2000/svg" xmlns:xlink="http://www.w3.org/1999/xlink" viewBox="0 0 1338.12 1926.89">
  <defs>
    <style>
      .cls-1 {
        fill: url(#linear-gradient);
      }

      .cls-1, .cls-2, .cls-3, .cls-4, .cls-5, .cls-6, .cls-7, .cls-8, .cls-9, .cls-10, .cls-11, .cls-12, .cls-13, .cls-14, .cls-15, .cls-16, .cls-17, .cls-18, .cls-19, .cls-20, .cls-21, .cls-22, .cls-23 {
        stroke-width: 0px;
      }

      .cls-2 {
        fill: url(#linear-gradient-21);
      }

      .cls-3 {
        fill: url(#linear-gradient-6);
      }

      .cls-4 {
        fill: url(#linear-gradient-20);
      }

      .cls-4, .cls-5 {
        opacity: .5;
      }

      .cls-4, .cls-5, .cls-21 {
        isolation: isolate;
      }

      .cls-5, .cls-24, .cls-7 {
        fill: #ffde82;
      }

      .cls-25 {
        stroke: rgba(255, 222, 130, .1);
      }

      .cls-25, .cls-26, .cls-27, .cls-28, .cls-24, .cls-29, .cls-30, .cls-31, .cls-32, .cls-33, .cls-34, .cls-35, .cls-36, .cls-37, .cls-38 {
        stroke-miterlimit: 10;
      }

      .cls-25, .cls-26, .cls-27, .cls-28, .cls-29, .cls-30, .cls-31, .cls-32, .cls-33, .cls-34, .cls-35, .cls-36, .cls-37, .cls-38 {
        fill: none;
        stroke-linecap: round;
      }

      .cls-25, .cls-29, .cls-30, .cls-33, .cls-34 {
        stroke-width: 2.57px;
      }

      .cls-26 {
        stroke: url(#linear-gradient-15);
      }

      .cls-26, .cls-28, .cls-31, .cls-36, .cls-37, .cls-38 {
        stroke-width: 3.43px;
      }

      .cls-27, .cls-24 {
        stroke-width: 5.14px;
      }

      .cls-27, .cls-24, .cls-35, .cls-38 {
        stroke: #ffde82;
      }

      .cls-28 {
        stroke: url(#linear-gradient-19);
      }

      .cls-6 {
        fill: url(#linear-gradient-11);
      }

      .cls-8 {
        fill: url(#linear-gradient-5);
      }

      .cls-9 {
        fill: url(#linear-gradient-23);
      }

      .cls-29 {
        stroke: rgba(255, 222, 130, .15);
      }

      .cls-10 {
        fill: url(#linear-gradient-25);
      }

      .cls-11 {
        fill: url(#linear-gradient-22);
      }

      .cls-12 {
        fill: url(#linear-gradient-14);
      }

      .cls-13 {
        fill: url(#linear-gradient-2);
      }

      .cls-30 {
        stroke: rgba(255, 222, 130, .5);
      }

      .cls-31 {
        stroke: url(#linear-gradient-18);
      }

      .cls-14 {
        fill: url(#linear-gradient-7);
      }

      .cls-15 {
        fill: url(#linear-gradient-3);
      }

      .cls-16 {
        fill: url(#linear-gradient-9);
      }

      .cls-39, .cls-21 {
        opacity: .3;
      }

      .cls-32 {
        stroke: url(#linear-gradient-12);
        stroke-width: 17.13px;
      }

      .cls-17 {
        fill: url(#linear-gradient-8);
      }

      .cls-18 {
        fill: url(#linear-gradient-24);
      }

      .cls-19 {
        fill: url(#linear-gradient-26);
      }

      .cls-33 {
        stroke: rgba(255, 222, 130, .2);
      }

      .cls-34 {
        stroke: rgba(255, 222, 130, .3);
      }

      .cls-35 {
        stroke-width: 8.57px;
      }

      .cls-20 {
        fill: #fff;
      }

      .cls-21 {
        fill: url(#linear-gradient-13);
      }

      .cls-22 {
        fill: url(#linear-gradient-10);
      }

      .cls-23 {
        fill: url(#linear-gradient-4);
      }

      .cls-36 {
        stroke: url(#linear-gradient-17);
      }

      .cls-37 {
        stroke: url(#linear-gradient-16);
      }
    </style>
    <linearGradient id="linear-gradient" x1="-459.73" y1="521.37" x2="-242.51" y2="341.03" gradientTransform="translate(564 1669.93) scale(1 -1)" gradientUnits="userSpaceOnUse">
      <stop offset=".09" stop-color="#e6404b"/>
      <stop offset=".7" stop-color="#f07e2c"/>
      <stop offset=".96" stop-color="#ffc415"/>
    </linearGradient>
    <linearGradient id="linear-gradient-2" x1="-371.8" y1="373.59" x2="-360.66" y2="458.86" xlink:href="#linear-gradient"/>
    <linearGradient id="linear-gradient-3" x1="-456.3" y1="515.03" x2="-316.48" y2="456.65" xlink:href="#linear-gradient"/>
    <linearGradient id="linear-gradient-4" x1="132.41" y1="-109.3" x2="397.51" y2="573.34" xlink:href="#linear-gradient"/>
    <linearGradient id="linear-gradient-5" x1="377.95" y1="-308" x2="-837.41" y2="1865.96" xlink:href="#linear-gradient"/>
    <linearGradient id="linear-gradient-6" x1="1265.98" y1="710.44" x2="-582.74" y2="539.26" gradientTransform="translate(564 1669.93) scale(1 -1)" gradientUnits="userSpaceOnUse">
      <stop offset=".09" stop-color="#e6404b"/>
      <stop offset=".7" stop-color="#f07e2c"/>
      <stop offset=".74" stop-color="#ffc415"/>
      <stop offset=".82" stop-color="#ffedbc"/>
    </linearGradient>
    <linearGradient id="linear-gradient-7" x1="-110.51" y1="743.98" x2="306.65" y2="575.34" xlink:href="#linear-gradient"/>
    <linearGradient id="linear-gradient-8" x1="299.25" y1="389.88" x2="-524.31" y2="1070.78" xlink:href="#linear-gradient"/>
    <linearGradient id="linear-gradient-9" x1="616.63" y1="551.12" x2="-176.49" y2="810.74" xlink:href="#linear-gradient"/>
    <linearGradient id="linear-gradient-10" x1="-353.93" y1="702.85" x2="-99.52" y2="702.85" xlink:href="#linear-gradient"/>
    <linearGradient id="linear-gradient-11" x1="162.38" y1="495.78" x2="147.02" y2="1171.29" gradientTransform="translate(564 1669.93) scale(1 -1)" gradientUnits="userSpaceOnUse">
      <stop offset=".07" stop-color="#febd14"/>
      <stop offset=".96" stop-color="#ffc415" stop-opacity="0"/>
    </linearGradient>
    <linearGradient id="linear-gradient-12" x1="154.01" y1="966.26" x2="154.01" y2="723.51" gradientTransform="translate(564 1669.93) scale(1 -1)" gradientUnits="userSpaceOnUse">
      <stop offset=".09" stop-color="#fff"/>
      <stop offset=".96" stop-color="#fff" stop-opacity="0"/>
    </linearGradient>
    <linearGradient id="linear-gradient-13" x1="486.31" y1="939.39" x2="-233.7" y2="1317.87" gradientTransform="translate(564 1669.93) scale(1 -1)" gradientUnits="userSpaceOnUse">
      <stop offset=".07" stop-color="#febd14"/>
      <stop offset=".79" stop-color="#ffc415" stop-opacity="0"/>
    </linearGradient>
    <linearGradient id="linear-gradient-14" x1="133.89" y1="1294.2" x2="171.74" y2="1294.2" xlink:href="#linear-gradient"/>
    <linearGradient id="linear-gradient-15" x1="253.23" y1="1092.34" x2="253.23" y2="976.23" xlink:href="#linear-gradient-12"/>
    <linearGradient id="linear-gradient-16" x1="121.29" y1="1032.88" x2="121.29" y2="1002.78" xlink:href="#linear-gradient-12"/>
    <linearGradient id="linear-gradient-17" x1="73.32" y1="986.07" x2="73.32" y2="934.46" xlink:href="#linear-gradient-12"/>
    <linearGradient id="linear-gradient-18" x1="210.39" y1="945.23" x2="210.39" y2="891.47" xlink:href="#linear-gradient-12"/>
    <linearGradient id="linear-gradient-19" x1="45.9" y1="1117.44" x2="45.9" y2="1044.34" xlink:href="#linear-gradient-12"/>
    <linearGradient id="linear-gradient-20" x1="-134.81" y1="920.24" x2="700.27" y2="855.51" xlink:href="#linear-gradient-11"/>
    <linearGradient id="linear-gradient-21" x1="144.18" y1="938.39" x2="516.79" y2="880.07" gradientTransform="translate(564 1669.93) scale(1 -1)" gradientUnits="userSpaceOnUse">
      <stop offset=".44" stop-color="#e6404b"/>
      <stop offset=".7" stop-color="#f07e2c"/>
      <stop offset=".74" stop-color="#ffc415"/>
      <stop offset=".82" stop-color="#ffedbc"/>
    </linearGradient>
    <linearGradient id="linear-gradient-22" x1="-112.88" y1="948.28" x2="109.53" y2="812.3" xlink:href="#linear-gradient-21"/>
    <linearGradient id="linear-gradient-23" x1="465.08" y1="1038.06" x2="-89.02" y2="1287.95" gradientTransform="translate(564 1669.93) scale(1 -1)" gradientUnits="userSpaceOnUse">
      <stop offset=".09" stop-color="#e6404b"/>
      <stop offset=".63" stop-color="#f07e2c"/>
      <stop offset=".69" stop-color="#ffc415"/>
      <stop offset=".76" stop-color="#ffedbc"/>
    </linearGradient>
    <linearGradient id="linear-gradient-24" x1="-426.96" y1="1414.53" x2="297.03" y2="1093.16" gradientTransform="translate(564 1669.93) scale(1 -1)" gradientUnits="userSpaceOnUse">
      <stop offset=".09" stop-color="#e6404b"/>
      <stop offset=".7" stop-color="#f07e2c"/>
      <stop offset=".96" stop-color="#fed721"/>
    </linearGradient>
    <linearGradient id="linear-gradient-25" x1="-42.71" y1="1263.66" x2="416.66" y2="779.84" xlink:href="#linear-gradient"/>
    <linearGradient id="linear-gradient-26" x1="-22.35" y1="1386.19" x2="184.72" y2="1143.1" xlink:href="#linear-gradient-24"/>
  </defs>
  <path class="cls-29" d="M299.58,1203.46l418.66,241.03,415.8-241.31-417.23-239.9-417.23,240.18Z"/>
  <path class="cls-33" d="M274.35,1202.56l443.82,256.35,441.1-256.63-442.53-255.21-442.39,255.5Z"/>
  <path class="cls-34" d="M247.32,1203.46l470.99,271.67,468-271.95-469.57-270.53-469.42,270.82Z"/>
  <path class="cls-30" d="M216.68,1203.46l500.87,289.7,497.6-290.13-499.31-288.41-499.16,288.84Z"/>
  <path class="cls-35" d="M191.44,1204.79l513.66-297.38"/>
  <path class="cls-35" d="M730.33,907.41l513.65,297.38"/>
  <path class="cls-35" d="M1231.37,1210.19l-513.66,297.38"/>
  <path class="cls-1" d="M191.27,1203.76v28.06l-24.22-14.1v-27.92l24.22,13.96Z"/>
  <path class="cls-13" d="M191.27,1203.76l24.21-13.96v27.92l-24.21,14.1v-28.06Z"/>
  <path class="cls-15" d="M191.27,1203.75l-24.22-13.96,24.22-13.96,24.21,13.96-24.21,13.96Z"/>
  <path class="cls-35" d="M204.06,1210.19l513.65,297.38"/>
  <path class="cls-23" d="M717.91,1277.69v143.3l375.19-217.02-4.26-142.09-370.93,215.81Z"/>
  <path class="cls-8" d="M344.69,1062.02l-3.19,141.48,376.41,217.35v-143.3l-373.22-215.52Z"/>
  <path class="cls-3" d="M344.69,1062.16l373.22,215.52,370.93-215.81-372.07-214.53-372.08,214.81Z"/>
  <path class="cls-14" d="M717.48,1086.95l.42,95.29,205.99-120.08v-95.44l-206.41,120.23Z"/>
  <path class="cls-17" d="M717.91,1086.95v95.3l-206.41-120.09v-95.44l206.41,120.23Z"/>
  <path class="cls-35" d="M846.74,1059.7l35.04,20.23c9.69,5.7,15.67,15.95,15.67,27.21v16.95"/>
  <path class="cls-35" d="M821.39,1074.8l35.04,20.23c9.68,5.7,15.67,15.95,15.67,27.21v16.95"/>
  <path class="cls-35" d="M793.89,1090.61l35.05,20.23c9.68,5.7,15.67,15.95,15.67,27.21v16.95"/>
  <path class="cls-35" d="M932.31,1226.45l37.89,20.23c10.54,5.56,16.96,15.95,16.96,27.21v16.95"/>
  <path class="cls-35" d="M904.96,1241.55l37.89,20.23c10.54,5.56,16.95,15.96,16.95,27.21v16.95"/>
  <path class="cls-35" d="M875.19,1257.36l37.89,20.23c10.54,5.56,16.95,15.95,16.95,27.2v16.95"/>
  <path class="cls-35" d="M588.56,1060.17l-35.04,20.23c-9.68,5.7-15.67,15.95-15.67,27.21v16.95"/>
  <path class="cls-35" d="M613.92,1075.41l-35.04,20.23c-9.69,5.7-15.67,15.95-15.67,27.21v16.95"/>
  <path class="cls-35" d="M641.27,1091.08l-35.04,20.23c-9.69,5.7-15.67,15.95-15.67,27.21v16.95"/>
  <path class="cls-35" d="M504.09,1225.19l-35.04,20.23c-9.69,5.56-15.67,15.95-15.67,27.21v16.95"/>
  <path class="cls-35" d="M529.3,1240.29l-35.04,20.23c-9.68,5.55-15.67,15.96-15.67,27.21v16.95"/>
  <path class="cls-35" d="M556.8,1256.1l-35.04,20.23c-9.69,5.55-15.67,15.95-15.67,27.2v16.95"/>
  <path class="cls-16" d="M511.52,966.72l206.39,120.24,205.98-120.24-207.12-119.37-205.25,119.37Z"/>
  <path class="cls-22" d="M589.56,967.01l127.63,73.65,126.78-73.79-127.2-73.36-127.21,73.5Z"/>
  <path class="cls-38" d="M589.56,967.01l127.63,73.65,126.78-73.79-127.2-73.36-127.21,73.5Z"/>
  <path class="cls-6" d="M840.98,403.91l-124.07-71.51-124.21,71.51-3.14,563.1,127.63,73.65,126.78-73.79-2.99-562.95Z"/>
  <path class="cls-25" d="M323.01,1202.7l394.11,227.38,391.69-227.8-392.97-226.38-392.83,226.8Z"/>
  <path class="cls-32" d="M718.01,966.81v-319.01"/>
  <g class="cls-39">
    <g class="cls-39">
      <g class="cls-39">
        <path class="cls-21" d="M1019.75,429.13H429.45v260.4h590.3v-260.4Z"/>
      </g>
    </g>
  </g>
  <path class="cls-7" d="M759.17,400.96c1.99,0,3.6-2.02,3.6-4.51s-1.61-4.51-3.6-4.51-3.61,2.02-3.61,4.51,1.61,4.51,3.61,4.51Z"/>
  <path class="cls-12" d="M716.81,395.55c10.45,0,18.93-8.88,18.93-19.83s-8.48-19.83-18.93-19.83-18.92,8.88-18.92,19.83,8.47,19.83,18.92,19.83Z"/>
  <path class="cls-26" d="M817.23,685.61v-92.53"/>
  <path class="cls-37" d="M685.29,665.05v-23.99"/>
  <path class="cls-36" d="M637.32,731.87v-41.12"/>
  <path class="cls-31" d="M774.39,774.71v-42.84"/>
  <path class="cls-28" d="M609.9,620.5v-58.26"/>
  <path class="cls-4" d="M1021.12,761.67v-148.02c-4.53,26.94-19.55,52.49-43.89,75.03l-3.1,2.8c-11.22,9.96-24.27,19.32-39.1,27.92-56.19,32.56-131.21,50.49-211.19,50.49h-.01c-79.98,0-154.99-17.94-211.19-50.5-12.98-7.51-24.6-15.62-34.82-24.21l-7.28-6.4c-24.38-22.54-39.43-48.11-43.98-75.06v150.76c.06-.34.12-.66.18-.99.37,10.85,1.25,22.08,1.62,26.54.03.35.06.68.09,1.03.05.62.09.97.09.97,0,0,.01-.02.01-.03,4.12,41.88,34.13,80.87,85.57,110.68,115.64,67,303.79,67,419.43,0,49.19-28.49,78.77-65.39,84.88-105.17.03-.14.06-.28.09-.42,1.72-11.49,2.36-27.37,2.55-32.84.02.11.04.22.06.32v-2.27c0-.2,0-.39,0-.6Z"/>
  <path class="cls-2" d="M988.57,711.31v30.03c-13.72,15.01-31.27,28.89-52.49,41.08-25.75,14.87-55.61,26.77-88.01,35.13v-30.03c32.4-8.36,62.11-20.26,88.01-35.13,21.08-12.18,38.77-26.06,52.49-41.08Z"/>
  <path class="cls-20" d="M866.92,798.7c0-1.88-1.55-3.43-3.43-3.43s-3.43,1.54-3.43,3.43,1.55,3.43,3.43,3.43,3.43-1.54,3.43-3.43Z"/>
  <path class="cls-20" d="M878.91,794.42c0-1.41-1.54-2.57-3.43-2.57s-3.42,1.16-3.42,2.57,1.54,2.57,3.42,2.57,3.43-1.16,3.43-2.57Z"/>
  <path class="cls-20" d="M889.19,790.99c0-1.41-1.15-2.57-2.57-2.57s-2.57,1.16-2.57,2.57,1.16,2.57,2.57,2.57,2.57-1.16,2.57-2.57Z"/>
  <path class="cls-5" d="M988.57,750.72v79.74c-13.74,15.04-31.3,28.94-52.54,41.14-25.64,14.9-55.39,26.67-87.68,35.04v-30.08c0-10.92-.14-41.57-.28-49.66,32.43-8.37,62.18-20.15,87.96-35.04,21.1-12.2,38.8-26.1,52.54-41.14Z"/>
  <path class="cls-11" d="M623.04,806.33v23.65c-36.61-12.11-70.66-27.21-101.29-44.87-17.23-9.97-33.19-20.65-47.43-31.77v-23.64c14.24,11.11,30.2,21.79,47.43,31.76,30.49,17.66,64.53,32.76,101.29,44.87Z"/>
  <path class="cls-7" d="M603.09,841.94v15.1c-6.41-2.42-12.82-4.84-19.09-7.41v-15.1c6.27,2.56,12.68,4.99,19.09,7.41Z"/>
  <path class="cls-7" d="M623.04,848.92v15.1c-3.99-1.28-7.84-2.71-11.83-3.99v-15.1c3.85,1.28,7.84,2.71,11.83,3.99Z"/>
  <path class="cls-7" d="M474.18,804.34c4.13,3.28,8.54,6.55,12.96,9.69v15.1c-4.42-3.13-8.83-6.41-12.96-9.69v-15.1Z"/>
  <path class="cls-7" d="M538.42,845.36c4.56,2.42,9.12,4.7,13.82,6.98v15.1c-4.7-2.28-9.26-4.56-13.82-6.98v-15.1Z"/>
  <path class="cls-7" d="M623.04,880.97v15.1c-21.94-7.26-43.02-15.67-62.97-24.93v-15.1c19.95,9.26,40.89,17.66,62.97,24.93Z"/>
  <path class="cls-5" d="M575.32,830.83v15.1c-18.81-8.12-36.76-16.95-53.57-26.78-17.23-9.97-33.19-20.65-47.43-31.77v-15.1c14.24,11.11,30.2,21.8,47.43,31.77,16.81,9.83,34.76,18.66,53.57,26.78Z"/>
  <path class="cls-5" d="M494.97,819.43c4.14,2.85,8.41,5.55,12.82,8.4v15.1c-4.41-2.71-8.68-5.56-12.82-8.4v-15.1Z"/>
  <path class="cls-5" d="M521.61,836.1c2.99,1.71,5.99,3.42,8.98,4.99v15.1c-2.99-1.71-5.99-3.28-8.98-4.99-1.99-1.14-4.13-2.42-6.12-3.56v-15.1c2.13,1.14,4.13,2.42,6.12,3.56Z"/>
  <path class="cls-27" d="M724.6,956.47c-79.77,0-154.7-17.81-210.68-50.14-56.27-32.48-87.32-76.07-87.32-122.51s31.05-90.03,87.32-122.5c56.13-32.34,130.91-50.14,210.68-50.14s154.7,17.81,210.68,50.14c56.27,32.48,87.32,76.07,87.32,122.5s-31.05,90.03-87.32,122.51c-55.98,32.34-130.91,50.14-210.68,50.14ZM515.35,903.76c115.38,66.66,303.13,66.66,418.51,0,55.41-31.91,85.89-74.64,85.89-119.94s-30.48-88.03-85.89-119.94c-115.38-66.67-303.13-66.67-418.51,0-55.42,31.91-85.9,74.64-85.9,119.94s30.48,87.89,85.9,119.94Z"/>
  <path class="cls-24" d="M724.02,772.23c-79.84,0-154.84-17.84-210.88-50.25-56.32-32.55-87.4-76.23-87.4-122.77s31.08-90.22,87.4-122.77c56.18-32.41,131.04-50.25,210.88-50.25s154.85,17.84,210.88,50.25c56.32,32.55,87.4,76.23,87.4,122.77s-31.08,90.22-87.4,122.77c-56.03,32.41-131.03,50.25-210.88,50.25ZM724.02,428.91c-75.85,0-151.7,16.7-209.45,50.11-55.46,31.98-85.98,74.8-85.98,120.2s30.52,88.22,85.98,120.2c115.49,66.81,303.41,66.81,418.9,0,55.47-31.98,85.98-74.8,85.98-120.2s-30.51-88.22-85.98-120.2c-57.74-33.4-133.59-50.11-209.45-50.11Z"/>
  <path class="cls-9" d="M716.77,567.73l132.9-76.64-132.9-76.78-132.91,76.78,132.91,76.64Z"/>
  <path class="cls-18" d="M716.77,567.73v25.64l132.9-76.78v-25.5l-132.9,76.64Z"/>
  <path class="cls-10" d="M716.77,567.73v25.64l-132.91-76.78v-25.5l132.91,76.64Z"/>
  <path class="cls-19" d="M715.91,521.72l57.67-33.41-57.67-33.27-57.67,33.27,57.67,33.41Z"/>
</svg>