<?xml version="1.0" encoding="UTF-8"?>
<svg id="Layer_1" data-name="Layer 1" xmlns="http://www.w3.org/2000/svg" xmlns:xlink="http://www.w3.org/1999/xlink" viewBox="0 0 1807.11 1160.49">
  <defs>
    <style>
      .cls-1 {
        fill: url(#linear-gradient-11);
      }

      .cls-1, .cls-2, .cls-3, .cls-4, .cls-5, .cls-6, .cls-7, .cls-8, .cls-9, .cls-10, .cls-11, .cls-12, .cls-13, .cls-14, .cls-15, .cls-16, .cls-17, .cls-18, .cls-19, .cls-20, .cls-21, .cls-22, .cls-23 {
        stroke-width: 0px;
      }

      .cls-1, .cls-14, .cls-18, .cls-19, .cls-23 {
        fill-rule: evenodd;
      }

      .cls-2 {
        fill: #e7404b;
      }

      .cls-3 {
        fill: url(#linear-gradient);
      }

      .cls-4 {
        fill: #febd14;
      }

      .cls-5 {
        fill: url(#linear-gradient-6);
      }

      .cls-6 {
        opacity: .5;
      }

      .cls-6, .cls-9 {
        fill: #ffde82;
      }

      .cls-6, .cls-24 {
        isolation: isolate;
      }

      .cls-25, .cls-26, .cls-27, .cls-28, .cls-24 {
        fill: none;
      }

      .cls-25, .cls-26, .cls-27, .cls-24 {
        stroke: #febd14;
      }

      .cls-25, .cls-26, .cls-28, .cls-24 {
        stroke-width: 10.56px;
      }

      .cls-25, .cls-28, .cls-24 {
        stroke-miterlimit: 10;
      }

      .cls-7 {
        fill: #ffc516;
      }

      .cls-8 {
        fill: #ffc52a;
      }

      .cls-10 {
        fill: url(#linear-gradient-2);
      }

      .cls-11 {
        fill: url(#linear-gradient-7);
      }

      .cls-12 {
        fill: url(#linear-gradient-3);
      }

      .cls-26 {
        stroke-dasharray: 0 0 17.6 35.21;
      }

      .cls-13 {
        fill: url(#linear-gradient-9);
      }

      .cls-14 {
        fill: url(#linear-gradient-5);
      }

      .cls-27 {
        stroke-width: 3.52px;
      }

      .cls-29, .cls-24 {
        opacity: .3;
      }

      .cls-28 {
        stroke: rgba(255, 222, 130, .3);
      }

      .cls-15 {
        fill: url(#linear-gradient-8);
      }

      .cls-16 {
        fill: #fff;
      }

      .cls-17, .cls-19 {
        fill: #f17d2c;
      }

      .cls-18 {
        fill: url(#linear-gradient-12);
      }

      .cls-20 {
        fill: url(#linear-gradient-4);
      }

      .cls-21 {
        fill: #f69323;
      }

      .cls-22 {
        fill: #dcdcdc;
      }

      .cls-23 {
        fill: url(#linear-gradient-10);
      }
    </style>
    <linearGradient id="linear-gradient" x1="1203.5" y1="-190.29" x2="231.26" y2="-667.32" gradientTransform="translate(564 137.12) scale(1 -1)" gradientUnits="userSpaceOnUse">
      <stop offset=".09" stop-color="#e7404b"/>
      <stop offset=".7" stop-color="#f17d2c"/>
      <stop offset=".96" stop-color="#ffc516"/>
    </linearGradient>
    <linearGradient id="linear-gradient-2" x1="764.19" y1="-134.57" x2="1411.1" y2="-569.16" gradientTransform="translate(564 137.12) scale(1 -1)" gradientUnits="userSpaceOnUse">
      <stop offset="0" stop-color="#e5e5e5"/>
      <stop offset=".44" stop-color="#d6d5d5"/>
      <stop offset="1" stop-color="#b5b5b5"/>
    </linearGradient>
    <linearGradient id="linear-gradient-3" x1="1913.75" y1="-4.01" x2="214.12" y2="-609.68" xlink:href="#linear-gradient"/>
    <linearGradient id="linear-gradient-4" x1="587.21" y1="-278.28" x2="676.47" y2="-425.6" gradientTransform="translate(564 137.12) scale(1 -1)" gradientUnits="userSpaceOnUse">
      <stop offset="0" stop-color="#e03f4a"/>
      <stop offset="1" stop-color="#e03f4a" stop-opacity="0"/>
    </linearGradient>
    <linearGradient id="linear-gradient-5" x1="447.91" y1="-554.63" x2="264.5" y2="-641.93" xlink:href="#linear-gradient"/>
    <linearGradient id="linear-gradient-6" x1="432.46" y1="-129.49" x2="216.89" y2="-91.47" gradientTransform="translate(564 137.12) scale(1 -1)" gradientUnits="userSpaceOnUse">
      <stop offset=".09" stop-color="#e6404b"/>
      <stop offset=".52" stop-color="#f07e2c"/>
      <stop offset="1" stop-color="#ffc415"/>
    </linearGradient>
    <linearGradient id="linear-gradient-7" x1="-183.51" y1="83.57" x2="416.18" y2="-182.62" gradientTransform="translate(564 137.12) scale(1 -1)" gradientUnits="userSpaceOnUse">
      <stop offset=".09" stop-color="#e6404b"/>
      <stop offset=".7" stop-color="#f07e2c"/>
      <stop offset=".96" stop-color="#fed721"/>
    </linearGradient>
    <linearGradient id="linear-gradient-8" x1="133.98" y1="-38.66" x2="514.48" y2="-439.41" gradientTransform="translate(564 137.12) scale(1 -1)" gradientUnits="userSpaceOnUse">
      <stop offset=".09" stop-color="#e6404b"/>
      <stop offset=".7" stop-color="#f07e2c"/>
      <stop offset=".96" stop-color="#ffc415"/>
    </linearGradient>
    <linearGradient id="linear-gradient-9" x1="436.15" y1="-703.88" x2="102.85" y2="-645.1" xlink:href="#linear-gradient-6"/>
    <linearGradient id="linear-gradient-10" x1="215.91" y1="-148.44" x2="-114.8" y2="-360" gradientTransform="translate(564 137.12) scale(1 -1)" gradientUnits="userSpaceOnUse">
      <stop offset="0" stop-color="#ffc52a"/>
      <stop offset="1" stop-color="#ffc52a" stop-opacity="0"/>
    </linearGradient>
    <linearGradient id="linear-gradient-11" x1="1122.97" y1="-182.05" x2="924.91" y2="-246.14" xlink:href="#linear-gradient"/>
    <linearGradient id="linear-gradient-12" x1="1179.98" y1="-582.51" x2="945.92" y2="-692.88" xlink:href="#linear-gradient"/>
  </defs>
  <path class="cls-27" d="M1654.75,206.36l-25.55-12.6c-221.28-109.13-482.56-99.96-695.64,24.43h0"/>
  <path class="cls-27" d="M676.41,367.83h0c49.55,30.28,49.32,102.32-.42,132.29l-36.64,22.07c-65.21,39.28-66.98,133.21-3.3,174.92l85.26,55.85"/>
  <path class="cls-22" d="M1752.96,560.93c-.56,2.09-1.4,4.05-2.24,6-4.05,9.22-11.03,17.46-20.94,23.18l-384.57,223.57c-40.92,23.74-91.33,23.88-132.24.14l-387.78-223.85c-9.92-5.73-16.9-13.96-20.95-23.32-.84-1.95-1.68-3.91-2.23-6-6.29-21.22,1.39-45.94,23.18-58.51l384.43-223.57c40.91-23.74,91.32-23.74,132.24-.14l387.78,223.84c21.92,12.57,29.6,37.42,23.32,58.65Z"/>
  <g class="cls-29">
    <path class="cls-3" d="M1754.64,566.09c-4.05,9.22-11.04,17.46-20.95,23.18l-384.57,223.56c-40.92,23.74-91.33,23.88-132.24.14l-387.78-223.84c-9.92-5.72-16.9-13.96-20.95-23.32,4.05-9.22,11.03-17.45,20.95-23.18l384.43-223.57c40.91-23.74,91.32-23.88,132.24-.14l387.78,223.98c9.91,5.73,17.04,13.96,21.09,23.18Z"/>
  </g>
  <path class="cls-10" d="M1332.38,272.59l-6.76,38.74s8.59,3.51,19.71,9.83c11.13,6.46,119.42,68.78,196.87,113.27,77.45,44.49,166.59,95.87,166.59,95.87l22.68,13.05s16.75,8.14,23.23,24.56c0,0,4.79-8.84,4.37-22.04-.43-13.19-7.61-32.56-23.38-41.69-15.77-9.12-367.69-211.66-367.69-211.66,0,0-31.12-17.83-35.62-19.93Z"/>
  <path class="cls-12" d="M1755.01,567.49c-4.05,9.22-11.04,17.46-20.95,23.18l-384.57,223.56c-40.91,23.74-91.33,23.88-132.24.14l-387.78-223.84c-9.92-5.73-16.9-13.96-20.95-23.32,4.05-9.22,11.03-17.46,20.95-23.18l384.43-223.57c40.91-23.74,91.32-23.88,132.24-.14l387.78,223.98c9.91,5.72,17.04,13.96,21.09,23.18Z"/>
  <path class="cls-24" d="M983.15,644.4s25.79-4.78,27.38-58.1c1.59-53.33,15.12-63.36,29.77-71,14.65-7.64,48.55-5.57,78.8-4.78,30.25.8,132.92,15.12,167.95-17.67,35.02-32.79,51.1-66.06,90.57-87.71"/>
  <path class="cls-20" d="M1379.38,382.38c-39.48,21.65-62.41,60.81-97.43,93.45-35.02,32.63-137.7,18.47-167.94,17.67-30.25-.8-64.32-2.86-78.8,4.78-14.49,7.64-28.18,17.67-29.77,71-1.59,53.33-40.28,59.06-40.28,59.06l96.63,56.04,420.26-242.93-102.67-59.06Z"/>
  <path class="cls-25" d="M965.16,628.33s38.69-5.73,40.28-59.06c1.59-53.33,15.12-63.36,29.77-71,14.64-7.64,48.55-5.57,78.8-4.78,30.24.8,132.92,15.12,167.94-17.67,35.02-32.79,57.95-71.8,97.43-93.45"/>
  <path class="cls-26" d="M1028.72,502.54l150.24,88.94"/>
  <path class="cls-26" d="M967.41,626.88l115.71,66.49"/>
  <path class="cls-26" d="M1273.95,480.95l39.72,23.31"/>
  <path class="cls-26" d="M1378.43,381.65l34.54,19.86"/>
  <path class="cls-9" d="M1236.53,741.73l-15.25-8.73,177.01-102.66,15.62,9.09-177.38,102.3Z"/>
  <path class="cls-6" d="M1277.98,774.54l-15.26-8.73,52.61-30.58,15.61,9.09-52.96,30.22Z"/>
  <path class="cls-28" d="M1635.58,574.37c.06-22.28-31.52-40.44-70.55-40.54-39.02-.11-70.71,17.87-70.77,40.15-.07,22.28,31.52,40.44,70.54,40.55,39.03.11,70.71-17.87,70.78-40.15Z"/>
  <path class="cls-14" d="M1008.83,690.39l-172.29,96.69-4.22-7.53,168.27-94.26,8.24,5.1Z"/>
  <path class="cls-5" d="M863.34,306.67l110.09-63.48-110.09-63.6-110.08,63.6,110.08,63.48Z"/>
  <path class="cls-11" d="M863.34,306.25v35.62l110.09-63.6v-35.5l-110.09,63.48Z"/>
  <path class="cls-15" d="M863.34,306.25v35.05l-110.08-63.6v-34.94l110.08,63.48Z"/>
  <path class="cls-13" d="M794.34,902.93l170.2-98.14-170.2-98.33-170.19,98.33,170.19,98.14Z"/>
  <circle class="cls-4" cx="673.82" cy="366.1" r="8.64"/>
  <circle class="cls-4" cx="1307.95" cy="118.59" r="8.63"/>
  <path class="cls-16" d="M1517.43,423.47c-.01,3.52-5.02,6.36-11.19,6.35-6.17-.02-11.17-2.89-11.16-6.41.01-3.52,5.02-6.37,11.19-6.35,6.17.02,11.17,2.89,11.16,6.41Z"/>
  <path class="cls-16" d="M1068.23,422.91c-.01,3.52-5.02,6.37-11.19,6.35-6.17-.02-11.17-2.89-11.16-6.41.01-3.52,5.03-6.37,11.2-6.35,6.17.02,11.16,2.89,11.15,6.41Z"/>
  <path class="cls-16" d="M921.55,281.81c4.33-2.4,7.69-.48,7.69,4.32s-3.36,10.81-7.69,13.45c-4.32,2.4-7.69.48-7.69-4.32,0-5.04,3.37-11.05,7.69-13.45Z"/>
  <path class="cls-2" d="M1008.84,694.05v-3.74l-3.33,1.87,3.33,1.87Z"/>
  <path class="cls-21" d="M1514.46,718.43v-4.92l4.21,2.39-4.21,2.53Z"/>
  <path class="cls-16" d="M801.99,281.67c-4.33-2.4-7.69-.48-7.69,4.32s3.36,10.81,7.69,13.45c4.32,2.4,7.69.48,7.69-4.32,0-5.04-3.37-11.05-7.69-13.45Z"/>
  <path class="cls-23" d="M63.73,719.87l732.83-430.41,3.64,2.32,3.64,2.32L68.1,727.31l-4.37-7.45Z"/>
  <path class="cls-8" d="M803.14,289.2c1.49,1.6,1.3,4.62.54,4.93h-2.63c-2.51-.75-6.92-2.72-4.48-4.64,3.05-2.4,5.08-1.89,6.57-.29Z"/>
  <path class="cls-19" d="M1052.75,369.85l-132.33-75.35,3.74-6.19,137.23,77.01v56.31l-8.64-2.48v-49.3Z"/>
  <path class="cls-17" d="M920.26,289.53c-1.83,2.31-.61,4.25.23,4.93l6.07-3.02-2.41-3.08c-.74-.28-2.55-.44-3.89,1.17Z"/>
  <circle class="cls-4" cx="989.86" cy="328.11" r="8.64"/>
  <path class="cls-1" d="M1510.55,376.54l163.04-91.14-4.61-7.59-167.07,93.67v46.94l8.64,5.02v-46.89Z"/>
  <path class="cls-7" d="M1505.74,426.07c3.35.99,4.77-1.82,4.77-2.67-.56-.49-1.69-1.48-1.81-1.58-.13-.09-4.52-2.24-6.7-3.31.02,2.65-.23,6.37,3.74,7.55Z"/>
  <path class="cls-18" d="M1734.64,839.6l-220.19-126.07,7.17-4.61,217.31,123.19-4.29,7.49Z"/>
  <path class="cls-17" d="M1057.04,425.03c-3.7-.17-4.44-4.12-4.35-6.08,2.88-3.15,8.69,1.25,8.63,1.9-.05.65.33,4.4-4.28,4.18Z"/>
</svg>