<?xml version="1.0" encoding="UTF-8"?>
<svg id="Layer_1" data-name="Layer 1" xmlns="http://www.w3.org/2000/svg" xmlns:xlink="http://www.w3.org/1999/xlink" viewBox="0 0 612 1307.36">
  <defs>
    <style>
      .cls-1 {
        stroke: url(#linear-gradient-12);
      }

      .cls-1, .cls-2, .cls-3, .cls-4, .cls-5, .cls-6, .cls-7, .cls-8, .cls-9, .cls-10, .cls-11, .cls-12 {
        fill: none;
      }

      .cls-1, .cls-3, .cls-5, .cls-7, .cls-8, .cls-9, .cls-11 {
        stroke-width: 2px;
      }

      .cls-2 {
        stroke: rgba(254, 226, 178, .3);
      }

      .cls-2, .cls-6, .cls-10, .cls-12 {
        stroke-width: .76px;
      }

      .cls-13 {
        fill: url(#linear-gradient-6);
      }

      .cls-13, .cls-14, .cls-15, .cls-16, .cls-17, .cls-18, .cls-19, .cls-20, .cls-21, .cls-22, .cls-23, .cls-24, .cls-25 {
        stroke-width: 0px;
      }

      .cls-14 {
        fill: url(#linear-gradient-11);
      }

      .cls-15 {
        fill: rgba(251, 182, 21, .6);
      }

      .cls-16 {
        fill: url(#linear-gradient-5);
      }

      .cls-17 {
        fill: url(#linear-gradient);
      }

      .cls-17, .cls-20 {
        fill-opacity: .5;
      }

      .cls-3 {
        stroke: #fee2b2;
      }

      .cls-4 {
        stroke: #fff;
        stroke-linejoin: round;
        stroke-width: 1.52px;
      }

      .cls-18 {
        fill: url(#linear-gradient-7);
      }

      .cls-19 {
        fill: url(#linear-gradient-3);
      }

      .cls-20 {
        fill: url(#linear-gradient-10);
      }

      .cls-5 {
        stroke: url(#linear-gradient-15);
      }

      .cls-21 {
        fill: url(#linear-gradient-9);
      }

      .cls-6 {
        stroke: url(#linear-gradient-2);
      }

      .cls-7 {
        stroke: url(#linear-gradient-13);
      }

      .cls-22 {
        fill: url(#linear-gradient-8);
      }

      .cls-23 {
        fill: url(#linear-gradient-18);
      }

      .cls-24 {
        fill: #fff;
      }

      .cls-8 {
        stroke: url(#linear-gradient-17);
      }

      .cls-9 {
        stroke: url(#linear-gradient-14);
      }

      .cls-10 {
        stroke: #ffebbd;
      }

      .cls-11 {
        stroke: url(#linear-gradient-16);
      }

      .cls-25 {
        fill: url(#linear-gradient-4);
      }

      .cls-12 {
        stroke: rgba(254, 226, 178, .5);
      }
    </style>
    <linearGradient id="linear-gradient" x1="-252.99" y1="480.72" x2="-276.52" y2="682.72" gradientTransform="translate(564 1543.36) scale(1 -1)" gradientUnits="userSpaceOnUse">
      <stop offset="0" stop-color="#ffc314" stop-opacity="0"/>
      <stop offset=".46" stop-color="#ffc415" stop-opacity=".46"/>
      <stop offset="1" stop-color="#ffc516" stop-opacity=".71"/>
    </linearGradient>
    <linearGradient id="linear-gradient-2" x1="56.15" y1="951.49" x2="-448.34" y2="647.01" gradientTransform="translate(564 1543.36) scale(1 -1)" gradientUnits="userSpaceOnUse">
      <stop offset=".15" stop-color="#1b9dd9"/>
      <stop offset="1" stop-color="#5dc7ce"/>
    </linearGradient>
    <linearGradient id="linear-gradient-3" x1="-55.13" y1="780.23" x2="-387.05" y2="838.76" gradientTransform="translate(564 1543.36) scale(1 -1)" gradientUnits="userSpaceOnUse">
      <stop offset=".09" stop-color="#e6404b"/>
      <stop offset=".52" stop-color="#f07e2c"/>
      <stop offset="1" stop-color="#ffc415"/>
    </linearGradient>
    <linearGradient id="linear-gradient-4" x1="-999.46" y1="1116.86" x2="-76.1" y2="707.01" gradientTransform="translate(564 1543.36) scale(1 -1)" gradientUnits="userSpaceOnUse">
      <stop offset=".09" stop-color="#e6404b"/>
      <stop offset=".7" stop-color="#f07e2c"/>
      <stop offset=".96" stop-color="#fed721"/>
    </linearGradient>
    <linearGradient id="linear-gradient-5" x1="-509.39" y1="924.46" x2="76.47" y2="307.42" gradientTransform="translate(564 1543.36) scale(1 -1)" gradientUnits="userSpaceOnUse">
      <stop offset=".09" stop-color="#e6404b"/>
      <stop offset=".7" stop-color="#f07e2c"/>
      <stop offset=".96" stop-color="#ffc415"/>
    </linearGradient>
    <linearGradient id="linear-gradient-6" x1="72.35" y1="728.38" x2="-255.58" y2="815.48" xlink:href="#linear-gradient-3"/>
    <linearGradient id="linear-gradient-7" x1="-56" y1="912.11" x2="-387.92" y2="970.65" xlink:href="#linear-gradient-3"/>
    <linearGradient id="linear-gradient-8" x1="-999.45" y1="1248.76" x2="-76.09" y2="838.9" xlink:href="#linear-gradient-4"/>
    <linearGradient id="linear-gradient-9" x1="-509.39" y1="1056.34" x2="76.47" y2="439.31" xlink:href="#linear-gradient-5"/>
    <linearGradient id="linear-gradient-10" x1="-265.95" y1="1262.13" x2="-242.45" y2="1060.13" xlink:href="#linear-gradient"/>
    <linearGradient id="linear-gradient-11" x1="72.35" y1="859.04" x2="-255.58" y2="946.14" xlink:href="#linear-gradient-3"/>
    <linearGradient id="linear-gradient-12" x1="58.47" y1="1167.82" x2="-449.75" y2="861.08" xlink:href="#linear-gradient-2"/>
    <linearGradient id="linear-gradient-13" x1="-206.29" y1="1099.47" x2="-319.78" y2="841.13" gradientTransform="translate(564 1543.36) scale(1 -1)" gradientUnits="userSpaceOnUse">
      <stop offset="0" stop-color="#e7404b"/>
      <stop offset="1" stop-color="#ffc516"/>
    </linearGradient>
    <linearGradient id="linear-gradient-14" x1="58.47" y1="1197.13" x2="-449.75" y2="890.39" xlink:href="#linear-gradient-2"/>
    <linearGradient id="linear-gradient-15" x1="-206.29" y1="1128.77" x2="-319.78" y2="870.43" xlink:href="#linear-gradient-13"/>
    <linearGradient id="linear-gradient-16" x1="58.47" y1="1224" x2="-449.75" y2="917.26" xlink:href="#linear-gradient-2"/>
    <linearGradient id="linear-gradient-17" x1="-206.29" y1="1155.64" x2="-319.78" y2="897.3" xlink:href="#linear-gradient-13"/>
    <linearGradient id="linear-gradient-18" x1="-288.8" y1="1193.68" x2="-234.86" y2="1193.68" xlink:href="#linear-gradient-5"/>
  </defs>
  <path class="cls-17" d="M312.74,710.46l62.61,36.84v519.33h-141.66v-520.11c17.72-10.19,54.3-31.27,58.68-34.1,5.48-3.53,8.64-5.09,12.15-5.09,2.8,0,6.64,2.09,8.22,3.14Z"/>
  <path class="cls-2" d="M303.04,742.92l167.06,96.51-167.06,96.33-167.06-96.33,167.06-96.51Z"/>
  <path class="cls-12" d="M303.04,713.62l167.06,96.51-167.06,96.33-167.06-96.33,167.06-96.51Z"/>
  <path class="cls-6" d="M303.04,686.75l167.06,96.51-167.06,96.33-167.06-96.33,167.06-96.51Z"/>
  <path class="cls-3" d="M303.04,686.75l167.06,96.51-167.06,96.33-167.06-96.33,167.06-96.51Z"/>
  <path class="cls-19" d="M303.91,824.82l169.47-97.74-169.47-97.92-169.51,97.92,169.51,97.74Z"/>
  <path class="cls-25" d="M303.91,824.82v32.7l169.47-97.92v-32.52l-169.47,97.74Z"/>
  <path class="cls-16" d="M303.91,824.82v32.7l-169.51-97.92v-32.52l169.51,97.74Z"/>
  <path class="cls-13" d="M304.52,767.15l70.83-40.26-70.83-40.34-70.83,40.34,70.83,40.26Z"/>
  <path class="cls-4" d="M368.2,642.51l-14.53,126.75-125.81-18.06,140.34-108.69Z"/>
  <circle class="cls-24" cx="352.44" cy="764.81" r="15.78"/>
  <circle class="cls-24" cx="226.18" cy="749.03" r="15.78"/>
  <circle class="cls-24" cx="368.2" cy="642.51" r="15.78"/>
  <path class="cls-15" d="M304.52,825.77v-102.58l168.51-96.47v101.36l-168.51,97.69Z"/>
  <path class="cls-15" d="M304.52,825.77v-102.58l-168.54-96.47v101.36l168.54,97.69Z"/>
  <path class="cls-10" d="M304.52,721.97v101.36"/>
  <path class="cls-18" d="M303.04,692.93l169.51-97.74-169.51-97.92-169.47,97.92,169.47,97.74Z"/>
  <path class="cls-22" d="M303.91,692.93v32.7l169.51-97.92v-32.52l-169.51,97.74Z"/>
  <path class="cls-21" d="M303.91,692.93v32.7l-169.51-97.92v-32.52l169.51,97.74Z"/>
  <path class="cls-20" d="M296.3,633.35l-62.61-36.84V77.18h141.66v520.11c-17.76,10.19-54.33,31.28-58.71,34.1-5.48,3.53-8.6,5.09-12.12,5.09-2.84,0-6.67-2.09-8.22-3.14Z"/>
  <path class="cls-14" d="M304.52,636.49l70.83-40.26-70.83-40.34-70.83,40.34,70.83,40.26Z"/>
  <path class="cls-1" d="M303.04,471.82l167.06,96.51-167.06,96.33-167.06-96.33,167.06-96.51Z"/>
  <path class="cls-7" d="M303.04,471.82l167.06,96.51-167.06,96.33-167.06-96.33,167.06-96.51Z"/>
  <path class="cls-9" d="M303.04,442.52l167.06,96.51-167.06,96.33-167.06-96.33,167.06-96.51Z"/>
  <path class="cls-5" d="M303.04,442.52l167.06,96.51-167.06,96.33-167.06-96.33,167.06-96.51Z"/>
  <path class="cls-11" d="M303.04,415.65l167.06,96.51-167.06,96.33-167.06-96.33,167.06-96.51Z"/>
  <path class="cls-8" d="M303.04,415.65l167.06,96.51-167.06,96.33-167.06-96.33,167.06-96.51Z"/>
  <path class="cls-23" d="M302.17,377.94c14.92,0,26.97-12.65,26.97-28.26s-12.05-28.26-26.97-28.26-26.97,12.65-26.97,28.26,12.08,28.26,26.97,28.26Z"/>
</svg>