<svg width="735" height="625" viewBox="0 0 735 625" fill="none" xmlns="http://www.w3.org/2000/svg">
<mask id="mask0_10_207062" style="mask-type:alpha" maskUnits="userSpaceOnUse" x="0" y="0" width="735" height="625">
<rect width="734.917" height="624.304" fill="url(#paint0_linear_10_207062)"/>
</mask>
<g mask="url(#mask0_10_207062)">
<path d="M134.213 120.049C134.213 120.049 128.434 173.986 170.369 205.992L127.841 224.515C127.841 224.515 151.995 304.383 157.774 315.644C163.553 326.906 49.9004 271.783 43.9732 205.992C38.0461 140.201 5.44668 49.6652 58.4944 63.5939C111.542 77.5226 134.213 120.049 134.213 120.049Z" fill="url(#paint1_linear_10_207062)"/>
<path d="M243.422 353.732L307.732 315.65L337.218 332.691C336.329 333.135 333.366 334.618 328.624 337.285C326.698 357.586 317.511 377.292 318.845 378.626C320.179 379.96 337.812 390.48 346.999 395.666C356.186 400.853 365.372 406.78 367.298 408.855C368.928 410.485 371.003 419.524 371.892 423.969L324.031 450.938C318.845 433.601 308.175 398.483 307.583 395.816C306.99 393.148 304.767 391.222 303.582 390.629C302.989 390.185 298.099 387.221 283.874 378.775C269.945 370.329 251.127 358.622 243.422 353.732Z" fill="url(#paint2_linear_10_207062)"/>
<path d="M309.062 315.058L243.42 353.14C281.501 298.759 259.127 232.375 255.867 221.262C252.607 210.148 233.491 140.505 162.069 83.456C104.873 37.8172 59.5313 40.7802 43.9727 48.0409C65.0139 35.2976 107.688 9.95886 110.948 9.95886C164.144 -6.48889 212.599 29.6668 250.681 64.3405C281.057 92.1979 304.024 134.133 311.729 151.618L295.282 161.397C304.173 191.774 323.288 255.935 327.437 269.567C331.586 283.348 316.916 305.574 309.062 315.058Z" fill="url(#paint3_linear_10_207062)"/>
<path d="M346.259 192.365L295.137 162.136C294.544 161.839 295.729 161.098 296.47 160.802C316.326 149.392 356.927 126.128 360.039 124.054C363.151 121.979 366.558 123.61 367.892 124.647C382.265 132.797 411.604 149.244 413.086 150.281C414.716 151.319 414.124 152.059 413.68 152.207L346.259 192.365Z" fill="url(#paint4_linear_10_207062)"/>
<path d="M347 191.032L414.569 151.617L517.552 485.462L449.39 524.877L347 191.032Z" fill="url(#paint5_linear_10_207062)"/>
<path d="M501.254 507.246L568.231 467.83C579.196 474.202 601.719 487.094 604.238 488.131C607.498 489.464 611.499 491.391 610.758 499.985C605.572 536.733 582.603 539.401 562.895 537.326C547.188 535.844 515.183 516.582 501.254 507.246Z" fill="url(#paint6_linear_10_207062)"/>
<path d="M175.855 253.418L209.936 233.711C209.936 238.304 211.862 258.012 209.343 270.459C206.676 282.906 197.489 298.02 194.229 296.687C186.375 294.019 178.671 266.754 175.855 253.418Z" fill="url(#paint7_linear_10_207062)"/>
<path d="M550.447 312.389L416.643 235.039C415.309 234.299 416.938 232.965 417.976 232.373C436.942 221.259 475.765 198.439 479.025 196.364C482.137 194.29 485.545 195.031 486.878 195.772C507.179 207.182 556.226 235.039 589.862 255.488C631.796 281.123 647.652 290.31 684.252 336.245C721 382.18 735.373 435.968 734.039 483.829C733.002 522.208 715.666 544.88 707.072 551.399C696.847 557.327 669.138 573.034 640.836 588.741C667.063 567.699 678.917 504.13 647.355 429.3C622.313 369.288 572.229 326.466 550.447 312.389Z" fill="url(#paint8_linear_10_207062)"/>
<path fill-rule="evenodd" clip-rule="evenodd" d="M308.473 396.41L325.364 453.163C325.957 455.534 324.772 456.866 322.994 455.681L253.942 415.969C234.234 404.56 215.861 389.89 199.413 372.701C199.265 372.257 198.82 372.108 198.375 371.96C197.931 371.812 197.635 371.516 197.19 371.516C178.668 371.368 156.738 364.552 133.326 351.068C57.7552 307.652 1.59544 214.892 1.89179 132.209C2.03997 50.1181 58.2 21.3713 134.364 65.2319C210.082 108.796 266.241 201.705 266.093 284.24C266.093 315.654 257.796 339.362 243.274 354.031C242.682 354.624 243.274 356.106 244.015 356.698C245.942 358.032 265.056 369.294 282.245 379.222C285.06 380.852 287.875 382.481 290.542 384.111C293.802 386.038 296.766 387.816 299.433 389.297C300.47 389.89 301.359 390.336 302.397 390.928C303.582 391.669 304.768 392.41 306.25 393.151C307.287 393.892 308.028 395.076 308.473 396.41ZM194.967 297.871C204.006 288.684 209.489 273.126 209.489 251.936C209.637 199.481 177.334 144.655 134.214 120.058C91.0947 95.0157 58.6443 112.353 58.4961 164.808C58.3479 217.411 90.6504 272.089 133.77 296.983C138.067 299.502 142.216 301.577 146.365 303.207C148.292 303.947 149.033 301.873 147.847 299.502C135.993 275.349 127.695 248.826 125.473 226.451C125.325 224.673 126.509 223.783 127.991 224.672L154.071 239.787L174.372 251.344C175.557 251.937 176.445 253.419 176.742 254.752C179.705 269.274 184.447 282.905 191.115 295.649C191.708 296.686 192.301 297.427 193.041 297.724C193.782 298.316 194.523 298.316 194.967 297.871ZM365.076 253.123L449.242 524.436C449.983 526.807 448.648 528.14 446.87 527.103L393.675 496.43C392.638 495.837 391.748 494.652 391.303 493.319L372.781 430.491L367.298 412.414C366.854 411.08 365.965 409.894 364.928 409.301L349.666 400.56L347.74 399.373L319.14 382.926C317.362 381.889 316.177 379.073 316.77 377.74C321.808 367.367 325.068 355.216 326.846 341.14C326.994 339.806 328.032 339.362 329.365 339.954L330.403 340.548L332.329 341.733L346.406 349.883C347.739 350.624 348.48 349.735 348.184 347.957L294.247 166.142C293.654 163.771 294.84 162.437 296.618 163.623L344.331 191.183C345.368 191.776 346.258 192.961 346.702 194.147L365.076 253.123ZM666.618 518.065C667.062 434.196 612.829 348.548 533.998 303.058L417.234 235.933C415.456 234.896 414.123 236.377 414.864 238.6L474.727 431.825C475.172 433.158 475.913 434.196 476.802 434.788C478.136 435.529 479.322 435.232 479.322 433.454L479.766 327.656C479.766 326.174 480.952 325.581 482.285 326.322L530.74 354.328C578.749 381.889 610.014 432.565 609.866 485.613C609.866 538.661 578.305 553.331 530.443 525.77L501.993 509.322C500.214 508.284 498.881 509.766 499.622 511.988L517.404 569.334C517.848 570.519 518.737 571.704 519.774 572.297L533.11 580.003C612.089 625.345 666.47 601.785 666.618 518.065Z" fill="url(#paint9_linear_10_207062)"/>
<path d="M479.469 439.231V329.58C479.469 326.913 482.137 326.913 484.063 327.654C517.107 346.028 540.222 361.141 547.631 366.328V393.89C547.631 396.557 547.187 398.483 547.039 399.076L479.469 439.231Z" fill="url(#paint10_linear_10_207062)"/>
<path d="M170.371 205.992L127.844 224.514L174.223 251.186C174.223 251.186 175.408 251.632 176.149 253.262C208.452 234.591 208.453 234.592 208.453 234.592C208.453 234.592 208.6 235.036 208.007 231.628C207.415 228.22 207.416 228.219 207.416 228.219L170.371 205.992Z" fill="url(#paint11_linear_10_207062)"/>
</g>
<g clip-path="url(#clip0_10_207062)">
<path d="M293.501 419.609C293.073 423.368 288.546 439.568 289.514 445.14C290.483 450.689 305.887 459.975 305.887 459.975L308.027 450.465L299.491 442.164L301.788 426.412L293.501 419.609Z" fill="#FFDE83"/>
<path d="M305.415 401.398C303.208 400.458 299.109 400.234 296.834 403.971C294.56 407.708 292.217 420.507 291.992 422.699C291.992 422.699 295.168 427.063 299.942 426.347L305.415 401.398Z" fill="url(#paint12_linear_10_207062)"/>
<path d="M305.415 401.398C303.208 400.458 299.109 400.234 296.834 403.971C294.56 407.708 292.217 420.507 291.992 422.699C291.992 422.699 295.168 427.063 299.942 426.347L305.415 401.398Z" fill="url(#paint13_linear_10_207062)"/>
<path d="M303.251 573.643C303.251 573.643 303.071 575.299 302.575 577.402C302.17 579.035 302.102 581.139 303.926 581.743C305.773 582.325 307.868 582.146 309.061 580.557C310.525 578.588 311.313 576.126 313.43 574.202C315.48 572.367 318.024 570.286 318.745 567.355C319.421 564.715 318.993 563.059 317.169 562.791C314.872 562.455 311.223 564.379 309.354 565.744C308.025 566.706 303.251 573.643 303.251 573.643Z" fill="url(#paint14_linear_10_207062)"/>
<path d="M324.355 581.317C324.355 581.317 324.22 583.42 324.085 585.099C323.95 586.777 323.364 589.44 323.905 590.693C324.445 591.923 327.215 592.841 330.481 592.818C332.598 592.796 336.697 594.429 338.16 595.682C340.232 597.472 345.007 598.188 347.799 597.316C350.615 596.443 353.722 595.145 354.195 593.87C354.668 592.594 353.204 591.946 346.358 588.835C339.512 585.725 334.467 583.577 331.81 579.975L324.355 581.317Z" fill="url(#paint15_linear_10_207062)"/>
<path d="M301.608 537.486C302.779 528.581 304.626 523.3 304.626 523.3C304.626 523.3 303.725 511.061 303.275 499.448C302.757 486.246 298.163 474.655 301.789 464.139L342.709 473.178C342.709 473.178 340.232 525.717 339.691 532.071C339.398 535.517 339.286 538.963 337.845 546.817C335.975 557.02 332.935 581.275 332.935 581.275C328.611 583.781 324.332 581.298 324.332 581.298C324.332 581.298 323.228 551.717 323.521 544.356C323.859 535.383 324.129 536.077 324.129 536.077L322.778 513.723L321.9 502.602C321.9 502.602 320.774 510.77 320.03 518.064C319.377 524.419 317.846 530.169 316.112 542.006C314.625 552.277 310.707 573.422 310.707 573.422C306.383 575.928 303.252 573.668 303.252 573.668C303.252 573.668 300.437 546.392 301.608 537.486Z" fill="#2D3030"/>
<path d="M321.9 502.624C321.9 502.624 320.774 510.791 320.031 518.085C319.716 521.151 319.198 524.082 318.545 527.595C318.545 527.595 319.13 514.013 318.905 507.591C318.68 501.169 318.027 494.233 318.027 494.233C309.424 490.608 307.645 485.395 307.645 485.395C314.018 490.809 320.752 492.465 320.752 492.465L321.9 502.624Z" fill="black"/>
<path d="M307.577 401.622C310.685 401.778 313.005 402.561 313.41 401.666C313.725 400.95 314.108 396.833 314.131 396.833C313.77 395.938 313.455 394.976 313.455 394.976C309.536 392.582 306.744 388.532 306.226 383.654C305.348 375.263 311.451 367.767 319.874 366.895C327.778 366.067 333.611 371.594 335.165 379.201C335.999 382.938 337.125 390.904 334.872 397.057C333.611 400.503 332.53 402.024 330.909 402.561C330.346 402.673 327.328 402.606 326.224 402.494C326.224 402.494 325.797 404.821 325.526 406.298C325.234 407.797 325.346 408.581 328.341 410.415C331.337 412.25 323.815 416.009 318.928 415.629C314.018 415.248 308.501 412.317 306.992 409.162C305.303 405.672 305.438 401.532 307.577 401.622Z" fill="#FFDE83"/>
<path d="M328.341 410.412C328.454 410.479 328.499 410.546 328.589 410.613L324.31 412.068L311.653 410.121L308.703 402.625C308.703 402.625 308.816 402.267 308.996 401.73C311.383 401.976 313.072 402.424 313.41 401.641C313.635 401.104 313.928 398.62 314.063 397.434C316.338 397.837 319.018 398.307 319.671 398.329C320.842 398.374 324.873 392.467 324.873 392.467C324.873 392.467 325.436 397.412 325.977 398.777C326.517 400.142 330.211 402.267 331.562 402.245C331.359 402.357 331.156 402.446 330.931 402.536C330.368 402.648 327.35 402.581 326.247 402.469C326.247 402.469 325.819 404.796 325.549 406.273C325.233 407.794 325.346 408.6 328.341 410.412Z" fill="#FFC40C"/>
<path d="M306.138 374.12C306.521 372.308 307.804 369.958 317.646 367.206C327.06 364.588 334.424 363.469 336.248 364.678C338.05 365.886 338.5 375.127 329.605 379.535C329.244 380.206 329.019 380.989 329.019 382.063C329.019 383.495 329.177 384.637 329.019 386.203C328.794 388.418 326.407 388.575 326.407 388.575C326.407 388.575 326.384 387.299 326.384 384.659C325.551 382.824 322.33 382.354 321.159 384.905C319.988 387.456 320.641 389.582 321.452 391.126C322.488 393.072 324.245 393.229 324.83 392.535C324.83 394.75 324.402 398.062 321.902 400.859C318.569 401.799 315.281 400.367 313.84 399.114C313.48 398.129 312.331 396.339 310.845 393.967C309.021 391.081 307.129 389.201 306.115 384.525C305.215 380.229 305.417 377.655 306.138 374.12Z" fill="#2D3030"/>
<path d="M312.081 402.091C311.225 404.239 313.41 406.857 319.265 408.669C325.121 410.482 325.639 408.155 325.639 408.155C325.639 408.155 334.219 412.048 337.012 413.972C340.525 416.411 342.079 423.482 342.552 435.386C343.092 449.169 343.137 469.643 342.687 473.178C342.687 473.178 336.111 479.69 327.711 478.996C319.333 478.303 305.212 470.919 301.766 465.213C301.856 453.107 303.275 451.138 301.316 444.18C296.812 428.226 294.425 421.692 296.609 411.086C298.411 402.337 300.956 401.263 304.424 401.352C307.915 401.442 312.081 402.091 312.081 402.091Z" fill="url(#paint16_linear_10_207062)"/>
<path d="M313.591 400.905C314.807 402.427 319.041 405.761 325.594 405.94C326.855 405.738 327.554 408.155 328.274 409.363C328.274 409.363 325.324 411.757 318.77 410.102C312.217 408.446 309.897 403.657 310.46 401.867C310.46 401.867 312.555 399.585 313.591 400.905Z" fill="url(#paint17_linear_10_207062)"/>
<path d="M313.591 400.905C314.807 402.427 319.041 405.761 325.594 405.94C326.855 405.738 327.554 408.155 328.274 409.363C328.274 409.363 325.324 411.757 318.77 410.102C312.217 408.446 309.897 403.657 310.46 401.867C310.46 401.867 312.555 399.585 313.591 400.905Z" fill="url(#paint18_linear_10_207062)"/>
<path d="M355.792 449.033C348.901 450.756 347.279 446.438 346.379 442.858C344.194 434.198 343 426.367 341.379 421.466C339.465 415.671 337.438 414.754 334.6 413.613C331.267 412.292 328.407 415.089 329.51 422.451C330.817 431.177 332.551 437.308 335.839 447.646C336.695 450.353 338.631 455.142 341.491 457.447C345.05 460.311 350.41 460.176 358.517 458.185C361.986 457.335 365.769 455.276 372.3 452.255C374.057 451.45 375.431 450.89 378.786 449.347C382.164 447.78 385.655 445.185 387.434 442.634C389.213 440.083 389.439 438.897 389.078 438.315C388.628 437.577 387.817 437.756 386.894 438.808C385.948 439.882 384.574 441.806 381.939 443.372C381.939 443.372 384.124 441.135 385.295 439.68C386.466 438.226 387.389 436.637 387.907 435.451C388.538 433.974 387.254 431.961 386.263 433.012C385.272 434.064 384.822 435.138 383.043 437.264C381.421 439.188 379.845 440.284 379.845 440.284C379.845 440.284 381.646 437.868 382.795 435.585C383.921 433.281 383.921 432.117 383.876 431.334C383.831 430.551 382.727 429.634 381.691 431.11C380.768 432.43 380.16 434.489 377.998 436.727C376.421 438.36 375.093 439.277 375.048 438.83C375.003 438.382 375.994 437.487 376.557 435.608C377.097 433.795 376.534 431.714 375.498 431.491C374.462 431.267 374.642 431.334 373.809 433.102C372.976 434.869 371.67 436.19 370.679 438.763C369.8 441.045 369.417 441.963 367.841 443.618C366.084 445.408 362.346 447.4 355.792 449.033Z" fill="#FFDE83"/>
<path d="M332.012 412.425C336.606 411.753 339.872 413.812 341.899 420.749C343.926 427.685 345.344 433.368 345.344 433.368C345.344 433.368 343.137 437.128 337.642 438.47C332.125 439.79 330.143 437.172 330.143 437.172C330.143 437.172 328.611 429.9 327.665 424.955C326.72 420.01 326.314 413.253 332.012 412.425Z" fill="url(#paint19_linear_10_207062)"/>
</g>
<mask id="mask1_10_207062" style="mask-type:alpha" maskUnits="userSpaceOnUse" x="0" y="0" width="735" height="625">
<rect width="734.917" height="624.304" fill="url(#paint20_linear_10_207062)"/>
</mask>
<g mask="url(#mask1_10_207062)">
<path d="M134.213 120.049C134.213 120.049 128.434 173.986 170.369 205.992L127.841 224.515C127.841 224.515 151.995 304.383 157.774 315.644C163.553 326.906 49.9004 271.783 43.9732 205.992C38.0461 140.201 5.44668 49.6652 58.4944 63.5939C111.542 77.5226 134.213 120.049 134.213 120.049Z" fill="url(#paint21_linear_10_207062)"/>
<path d="M243.422 353.732L307.732 315.65L337.218 332.691C336.329 333.135 333.366 334.618 328.624 337.285C326.698 357.586 317.511 377.292 318.845 378.626C320.179 379.96 337.812 390.48 346.999 395.666C356.186 400.853 365.372 406.78 367.298 408.855C368.928 410.485 371.003 419.524 371.892 423.969L324.031 450.938C318.845 433.601 308.175 398.483 307.583 395.816C306.99 393.148 304.767 391.222 303.582 390.629C302.989 390.185 298.099 387.221 283.874 378.775C269.945 370.329 251.127 358.622 243.422 353.732Z" fill="url(#paint22_linear_10_207062)"/>
<path d="M309.062 315.058L243.42 353.14C281.501 298.759 259.127 232.375 255.867 221.262C252.607 210.148 233.491 140.505 162.069 83.456C104.873 37.8172 59.5313 40.7802 43.9727 48.0409C65.0139 35.2976 107.688 9.95886 110.948 9.95886C164.144 -6.48889 212.599 29.6668 250.681 64.3405C281.057 92.1979 304.024 134.133 311.729 151.618L295.282 161.397C304.173 191.774 323.288 255.935 327.437 269.567C331.586 283.348 316.916 305.574 309.062 315.058Z" fill="url(#paint23_linear_10_207062)"/>
<path d="M346.259 192.365L295.137 162.136C294.544 161.839 295.729 161.098 296.47 160.802C316.326 149.392 356.927 126.128 360.039 124.054C363.151 121.979 366.558 123.61 367.892 124.647C382.265 132.797 411.604 149.244 413.086 150.281C414.716 151.319 414.124 152.059 413.68 152.207L346.259 192.365Z" fill="url(#paint24_linear_10_207062)"/>
<path d="M347 191.032L414.569 151.617L517.552 485.462L449.39 524.877L347 191.032Z" fill="url(#paint25_linear_10_207062)"/>
<path d="M501.254 507.246L568.231 467.83C579.196 474.202 601.719 487.094 604.238 488.131C607.498 489.464 611.499 491.391 610.758 499.985C605.572 536.733 582.603 539.401 562.895 537.326C547.188 535.844 515.183 516.582 501.254 507.246Z" fill="url(#paint26_linear_10_207062)"/>
<path d="M175.855 253.418L209.936 233.711C209.936 238.304 211.862 258.012 209.343 270.459C206.676 282.906 197.489 298.02 194.229 296.687C186.375 294.019 178.671 266.754 175.855 253.418Z" fill="url(#paint27_linear_10_207062)"/>
<path d="M550.447 312.389L416.643 235.039C415.309 234.299 416.938 232.965 417.976 232.373C436.942 221.259 475.765 198.439 479.025 196.364C482.137 194.29 485.545 195.031 486.878 195.772C507.179 207.182 556.226 235.039 589.862 255.488C631.796 281.123 647.652 290.31 684.252 336.245C721 382.18 735.373 435.968 734.039 483.829C733.002 522.208 715.666 544.88 707.072 551.399C696.847 557.327 669.138 573.034 640.836 588.741C667.063 567.699 678.917 504.13 647.355 429.3C622.313 369.288 572.229 326.466 550.447 312.389Z" fill="url(#paint28_linear_10_207062)"/>
<path fill-rule="evenodd" clip-rule="evenodd" d="M308.473 396.41L325.364 453.163C325.957 455.534 324.772 456.866 322.994 455.681L253.942 415.969C234.234 404.56 215.861 389.89 199.413 372.701C199.265 372.257 198.82 372.108 198.375 371.96C197.931 371.812 197.635 371.516 197.19 371.516C178.668 371.368 156.738 364.552 133.326 351.068C57.7552 307.652 1.59544 214.892 1.89179 132.209C2.03997 50.1181 58.2 21.3713 134.364 65.2319C210.082 108.796 266.241 201.705 266.093 284.24C266.093 315.654 257.796 339.362 243.274 354.031C242.682 354.624 243.274 356.106 244.015 356.698C245.942 358.032 265.056 369.294 282.245 379.222C285.06 380.852 287.875 382.481 290.542 384.111C293.802 386.038 296.766 387.816 299.433 389.297C300.47 389.89 301.359 390.336 302.397 390.928C303.582 391.669 304.768 392.41 306.25 393.151C307.287 393.892 308.028 395.076 308.473 396.41ZM194.967 297.871C204.006 288.684 209.489 273.126 209.489 251.936C209.637 199.481 177.334 144.655 134.214 120.058C91.0947 95.0157 58.6443 112.353 58.4961 164.808C58.3479 217.411 90.6504 272.089 133.77 296.983C138.067 299.502 142.216 301.577 146.365 303.207C148.292 303.947 149.033 301.873 147.847 299.502C135.993 275.349 127.695 248.826 125.473 226.451C125.325 224.673 126.509 223.783 127.991 224.672L154.071 239.787L174.372 251.344C175.557 251.937 176.445 253.419 176.742 254.752C179.705 269.274 184.447 282.905 191.115 295.649C191.708 296.686 192.301 297.427 193.041 297.724C193.782 298.316 194.523 298.316 194.967 297.871ZM365.076 253.123L449.242 524.436C449.983 526.807 448.648 528.14 446.87 527.103L393.675 496.43C392.638 495.837 391.748 494.652 391.303 493.319L372.781 430.491L367.298 412.414C366.854 411.08 365.965 409.894 364.928 409.301L349.666 400.56L347.74 399.373L319.14 382.926C317.362 381.889 316.177 379.073 316.77 377.74C321.808 367.367 325.068 355.216 326.846 341.14C326.994 339.806 328.032 339.362 329.365 339.954L330.403 340.548L332.329 341.733L346.406 349.883C347.739 350.624 348.48 349.735 348.184 347.957L294.247 166.142C293.654 163.771 294.84 162.437 296.618 163.623L344.331 191.183C345.368 191.776 346.258 192.961 346.702 194.147L365.076 253.123ZM666.618 518.065C667.062 434.196 612.829 348.548 533.998 303.058L417.234 235.933C415.456 234.896 414.123 236.377 414.864 238.6L474.727 431.825C475.172 433.158 475.913 434.196 476.802 434.788C478.136 435.529 479.322 435.232 479.322 433.454L479.766 327.656C479.766 326.174 480.952 325.581 482.285 326.322L530.74 354.328C578.749 381.889 610.014 432.565 609.866 485.613C609.866 538.661 578.305 553.331 530.443 525.77L501.993 509.322C500.214 508.284 498.881 509.766 499.622 511.988L517.404 569.334C517.848 570.519 518.737 571.704 519.774 572.297L533.11 580.003C612.089 625.345 666.47 601.785 666.618 518.065Z" fill="url(#paint29_linear_10_207062)"/>
<path d="M479.469 439.231V329.58C479.469 326.913 482.137 326.913 484.063 327.654C517.107 346.028 540.222 361.141 547.631 366.328V393.89C547.631 396.557 547.187 398.483 547.039 399.076L479.469 439.231Z" fill="url(#paint30_linear_10_207062)"/>
<path d="M170.371 205.992L127.844 224.514L174.223 251.186C174.223 251.186 175.408 251.632 176.149 253.262C208.452 234.591 208.453 234.592 208.453 234.592C208.453 234.592 208.6 235.036 208.007 231.628C207.415 228.22 207.416 228.219 207.416 228.219L170.371 205.992Z" fill="url(#paint31_linear_10_207062)"/>
</g>
<g clip-path="url(#clip1_10_207062)">
<path d="M293.501 419.609C293.073 423.368 288.546 439.568 289.514 445.14C290.483 450.689 305.887 459.975 305.887 459.975L308.027 450.465L299.491 442.164L301.788 426.412L293.501 419.609Z" fill="#FFDE83"/>
<path d="M305.415 401.398C303.208 400.458 299.109 400.234 296.834 403.971C294.56 407.708 292.217 420.507 291.992 422.699C291.992 422.699 295.168 427.063 299.942 426.347L305.415 401.398Z" fill="url(#paint32_linear_10_207062)"/>
<path d="M305.415 401.398C303.208 400.458 299.109 400.234 296.834 403.971C294.56 407.708 292.217 420.507 291.992 422.699C291.992 422.699 295.168 427.063 299.942 426.347L305.415 401.398Z" fill="url(#paint33_linear_10_207062)"/>
<path d="M303.251 573.643C303.251 573.643 303.071 575.299 302.575 577.402C302.17 579.035 302.102 581.139 303.926 581.743C305.773 582.325 307.868 582.146 309.061 580.557C310.525 578.588 311.313 576.126 313.43 574.202C315.48 572.367 318.024 570.286 318.745 567.355C319.421 564.715 318.993 563.059 317.169 562.791C314.872 562.455 311.223 564.379 309.354 565.744C308.025 566.706 303.251 573.643 303.251 573.643Z" fill="url(#paint34_linear_10_207062)"/>
<path d="M324.355 581.317C324.355 581.317 324.22 583.42 324.085 585.099C323.95 586.777 323.364 589.44 323.905 590.693C324.445 591.923 327.215 592.841 330.481 592.818C332.598 592.796 336.697 594.429 338.16 595.682C340.232 597.472 345.007 598.188 347.799 597.316C350.615 596.443 353.722 595.145 354.195 593.87C354.668 592.594 353.204 591.946 346.358 588.835C339.512 585.725 334.467 583.577 331.81 579.975L324.355 581.317Z" fill="url(#paint35_linear_10_207062)"/>
<path d="M301.608 537.486C302.779 528.581 304.626 523.3 304.626 523.3C304.626 523.3 303.725 511.061 303.275 499.448C302.757 486.246 298.163 474.655 301.789 464.139L342.709 473.178C342.709 473.178 340.232 525.717 339.691 532.071C339.398 535.517 339.286 538.963 337.845 546.817C335.975 557.02 332.935 581.275 332.935 581.275C328.611 583.781 324.332 581.298 324.332 581.298C324.332 581.298 323.228 551.717 323.521 544.356C323.859 535.383 324.129 536.077 324.129 536.077L322.778 513.723L321.9 502.602C321.9 502.602 320.774 510.77 320.03 518.064C319.377 524.419 317.846 530.169 316.112 542.006C314.625 552.277 310.707 573.422 310.707 573.422C306.383 575.928 303.252 573.668 303.252 573.668C303.252 573.668 300.437 546.392 301.608 537.486Z" fill="#2D3030"/>
<path d="M321.9 502.624C321.9 502.624 320.774 510.791 320.031 518.085C319.716 521.151 319.198 524.082 318.545 527.595C318.545 527.595 319.13 514.013 318.905 507.591C318.68 501.169 318.027 494.233 318.027 494.233C309.424 490.608 307.645 485.395 307.645 485.395C314.018 490.809 320.752 492.465 320.752 492.465L321.9 502.624Z" fill="black"/>
<path d="M307.577 401.622C310.685 401.778 313.005 402.561 313.41 401.666C313.725 400.95 314.108 396.833 314.131 396.833C313.77 395.938 313.455 394.976 313.455 394.976C309.536 392.582 306.744 388.532 306.226 383.654C305.348 375.263 311.451 367.767 319.874 366.895C327.778 366.067 333.611 371.594 335.165 379.201C335.999 382.938 337.125 390.904 334.872 397.057C333.611 400.503 332.53 402.024 330.909 402.561C330.346 402.673 327.328 402.606 326.224 402.494C326.224 402.494 325.797 404.821 325.526 406.298C325.234 407.797 325.346 408.581 328.341 410.415C331.337 412.25 323.815 416.009 318.928 415.629C314.018 415.248 308.501 412.317 306.992 409.162C305.303 405.672 305.438 401.532 307.577 401.622Z" fill="#FFDE83"/>
<path d="M328.341 410.412C328.454 410.479 328.499 410.546 328.589 410.613L324.31 412.068L311.653 410.121L308.703 402.625C308.703 402.625 308.816 402.267 308.996 401.73C311.383 401.976 313.072 402.424 313.41 401.641C313.635 401.104 313.928 398.62 314.063 397.434C316.338 397.837 319.018 398.307 319.671 398.329C320.842 398.374 324.873 392.467 324.873 392.467C324.873 392.467 325.436 397.412 325.977 398.777C326.517 400.142 330.211 402.267 331.562 402.245C331.359 402.357 331.156 402.446 330.931 402.536C330.368 402.648 327.35 402.581 326.247 402.469C326.247 402.469 325.819 404.796 325.549 406.273C325.233 407.794 325.346 408.6 328.341 410.412Z" fill="#FFC40C"/>
<path d="M306.138 374.12C306.521 372.308 307.804 369.958 317.646 367.206C327.06 364.588 334.424 363.469 336.248 364.678C338.05 365.886 338.5 375.127 329.605 379.535C329.244 380.206 329.019 380.989 329.019 382.063C329.019 383.495 329.177 384.637 329.019 386.203C328.794 388.418 326.407 388.575 326.407 388.575C326.407 388.575 326.384 387.299 326.384 384.659C325.551 382.824 322.33 382.354 321.159 384.905C319.988 387.456 320.641 389.582 321.452 391.126C322.488 393.072 324.245 393.229 324.83 392.535C324.83 394.75 324.402 398.062 321.902 400.859C318.569 401.799 315.281 400.367 313.84 399.114C313.48 398.129 312.331 396.339 310.845 393.967C309.021 391.081 307.129 389.201 306.115 384.525C305.215 380.229 305.417 377.655 306.138 374.12Z" fill="#2D3030"/>
<path d="M312.081 402.091C311.225 404.239 313.41 406.857 319.265 408.669C325.121 410.482 325.639 408.155 325.639 408.155C325.639 408.155 334.219 412.048 337.012 413.972C340.525 416.411 342.079 423.482 342.552 435.386C343.092 449.169 343.137 469.643 342.687 473.178C342.687 473.178 336.111 479.69 327.711 478.996C319.333 478.303 305.212 470.919 301.766 465.213C301.856 453.107 303.275 451.138 301.316 444.18C296.812 428.226 294.425 421.692 296.609 411.086C298.411 402.337 300.956 401.263 304.424 401.352C307.915 401.442 312.081 402.091 312.081 402.091Z" fill="url(#paint36_linear_10_207062)"/>
<path d="M313.591 400.905C314.807 402.427 319.041 405.761 325.594 405.94C326.855 405.738 327.554 408.155 328.274 409.363C328.274 409.363 325.324 411.757 318.77 410.102C312.217 408.446 309.897 403.657 310.46 401.867C310.46 401.867 312.555 399.585 313.591 400.905Z" fill="url(#paint37_linear_10_207062)"/>
<path d="M313.591 400.905C314.807 402.427 319.041 405.761 325.594 405.94C326.855 405.738 327.554 408.155 328.274 409.363C328.274 409.363 325.324 411.757 318.77 410.102C312.217 408.446 309.897 403.657 310.46 401.867C310.46 401.867 312.555 399.585 313.591 400.905Z" fill="url(#paint38_linear_10_207062)"/>
<path d="M355.792 449.033C348.901 450.756 347.279 446.438 346.379 442.858C344.194 434.198 343 426.367 341.379 421.466C339.465 415.671 337.438 414.754 334.6 413.613C331.267 412.292 328.407 415.089 329.51 422.451C330.817 431.177 332.551 437.308 335.839 447.646C336.695 450.353 338.631 455.142 341.491 457.447C345.05 460.311 350.41 460.176 358.517 458.185C361.986 457.335 365.769 455.276 372.3 452.255C374.057 451.45 375.431 450.89 378.786 449.347C382.164 447.78 385.655 445.185 387.434 442.634C389.213 440.083 389.439 438.897 389.078 438.315C388.628 437.577 387.817 437.756 386.894 438.808C385.948 439.882 384.574 441.806 381.939 443.372C381.939 443.372 384.124 441.135 385.295 439.68C386.466 438.226 387.389 436.637 387.907 435.451C388.538 433.974 387.254 431.961 386.263 433.012C385.272 434.064 384.822 435.138 383.043 437.264C381.421 439.188 379.845 440.284 379.845 440.284C379.845 440.284 381.646 437.868 382.795 435.585C383.921 433.281 383.921 432.117 383.876 431.334C383.831 430.551 382.727 429.634 381.691 431.11C380.768 432.43 380.16 434.489 377.998 436.727C376.421 438.36 375.093 439.277 375.048 438.83C375.003 438.382 375.994 437.487 376.557 435.608C377.097 433.795 376.534 431.714 375.498 431.491C374.462 431.267 374.642 431.334 373.809 433.102C372.976 434.869 371.67 436.19 370.679 438.763C369.8 441.045 369.417 441.963 367.841 443.618C366.084 445.408 362.346 447.4 355.792 449.033Z" fill="#FFDE83"/>
<path d="M332.012 412.425C336.606 411.753 339.872 413.812 341.899 420.749C343.926 427.685 345.344 433.368 345.344 433.368C345.344 433.368 343.137 437.128 337.642 438.47C332.125 439.79 330.143 437.172 330.143 437.172C330.143 437.172 328.611 429.9 327.665 424.955C326.72 420.01 326.314 413.253 332.012 412.425Z" fill="url(#paint39_linear_10_207062)"/>
</g>
<mask id="mask2_10_207062" style="mask-type:alpha" maskUnits="userSpaceOnUse" x="0" y="0" width="735" height="625">
<rect width="734.917" height="624.304" fill="url(#paint40_linear_10_207062)"/>
</mask>
<g mask="url(#mask2_10_207062)">
<path d="M134.213 120.049C134.213 120.049 128.434 173.986 170.369 205.992L127.841 224.515C127.841 224.515 151.995 304.383 157.774 315.644C163.553 326.906 49.9004 271.783 43.9732 205.992C38.0461 140.201 5.44668 49.6652 58.4944 63.5939C111.542 77.5226 134.213 120.049 134.213 120.049Z" fill="url(#paint41_linear_10_207062)"/>
<path d="M243.422 353.732L307.732 315.65L337.218 332.691C336.329 333.135 333.366 334.618 328.624 337.285C326.698 357.586 317.511 377.292 318.845 378.626C320.179 379.96 337.812 390.48 346.999 395.666C356.186 400.853 365.372 406.78 367.298 408.855C368.928 410.485 371.003 419.524 371.892 423.969L324.031 450.938C318.845 433.601 308.175 398.483 307.583 395.816C306.99 393.148 304.767 391.222 303.582 390.629C302.989 390.185 298.099 387.221 283.874 378.775C269.945 370.329 251.127 358.622 243.422 353.732Z" fill="url(#paint42_linear_10_207062)"/>
<path d="M309.062 315.058L243.42 353.14C281.501 298.759 259.127 232.375 255.867 221.262C252.607 210.148 233.491 140.505 162.069 83.456C104.873 37.8172 59.5313 40.7802 43.9727 48.0409C65.0139 35.2976 107.688 9.95886 110.948 9.95886C164.144 -6.48889 212.599 29.6668 250.681 64.3405C281.057 92.1979 304.024 134.133 311.729 151.618L295.282 161.397C304.173 191.774 323.288 255.935 327.437 269.567C331.586 283.348 316.916 305.574 309.062 315.058Z" fill="url(#paint43_linear_10_207062)"/>
<path d="M346.259 192.365L295.137 162.136C294.544 161.839 295.729 161.098 296.47 160.802C316.326 149.392 356.927 126.128 360.039 124.054C363.151 121.979 366.558 123.61 367.892 124.647C382.265 132.797 411.604 149.244 413.086 150.281C414.716 151.319 414.124 152.059 413.68 152.207L346.259 192.365Z" fill="url(#paint44_linear_10_207062)"/>
<path d="M347 191.032L414.569 151.617L517.552 485.462L449.39 524.877L347 191.032Z" fill="url(#paint45_linear_10_207062)"/>
<path d="M501.254 507.246L568.231 467.83C579.196 474.202 601.719 487.094 604.238 488.131C607.498 489.464 611.499 491.391 610.758 499.985C605.572 536.733 582.603 539.401 562.895 537.326C547.188 535.844 515.183 516.582 501.254 507.246Z" fill="url(#paint46_linear_10_207062)"/>
<path d="M175.855 253.418L209.936 233.711C209.936 238.304 211.862 258.012 209.343 270.459C206.676 282.906 197.489 298.02 194.229 296.687C186.375 294.019 178.671 266.754 175.855 253.418Z" fill="url(#paint47_linear_10_207062)"/>
<path d="M550.447 312.389L416.643 235.039C415.309 234.299 416.938 232.965 417.976 232.373C436.942 221.259 475.765 198.439 479.025 196.364C482.137 194.29 485.545 195.031 486.878 195.772C507.179 207.182 556.226 235.039 589.862 255.488C631.796 281.123 647.652 290.31 684.252 336.245C721 382.18 735.373 435.968 734.039 483.829C733.002 522.208 715.666 544.88 707.072 551.399C696.847 557.327 669.138 573.034 640.836 588.741C667.063 567.699 678.917 504.13 647.355 429.3C622.313 369.288 572.229 326.466 550.447 312.389Z" fill="url(#paint48_linear_10_207062)"/>
<path fill-rule="evenodd" clip-rule="evenodd" d="M308.473 396.41L325.364 453.163C325.957 455.534 324.772 456.866 322.994 455.681L253.942 415.969C234.234 404.56 215.861 389.89 199.413 372.701C199.265 372.257 198.82 372.108 198.375 371.96C197.931 371.812 197.635 371.516 197.19 371.516C178.668 371.368 156.738 364.552 133.326 351.068C57.7552 307.652 1.59544 214.892 1.89179 132.209C2.03997 50.1181 58.2 21.3713 134.364 65.2319C210.082 108.796 266.241 201.705 266.093 284.24C266.093 315.654 257.796 339.362 243.274 354.031C242.682 354.624 243.274 356.106 244.015 356.698C245.942 358.032 265.056 369.294 282.245 379.222C285.06 380.852 287.875 382.481 290.542 384.111C293.802 386.038 296.766 387.816 299.433 389.297C300.47 389.89 301.359 390.336 302.397 390.928C303.582 391.669 304.768 392.41 306.25 393.151C307.287 393.892 308.028 395.076 308.473 396.41ZM194.967 297.871C204.006 288.684 209.489 273.126 209.489 251.936C209.637 199.481 177.334 144.655 134.214 120.058C91.0947 95.0157 58.6443 112.353 58.4961 164.808C58.3479 217.411 90.6504 272.089 133.77 296.983C138.067 299.502 142.216 301.577 146.365 303.207C148.292 303.947 149.033 301.873 147.847 299.502C135.993 275.349 127.695 248.826 125.473 226.451C125.325 224.673 126.509 223.783 127.991 224.672L154.071 239.787L174.372 251.344C175.557 251.937 176.445 253.419 176.742 254.752C179.705 269.274 184.447 282.905 191.115 295.649C191.708 296.686 192.301 297.427 193.041 297.724C193.782 298.316 194.523 298.316 194.967 297.871ZM365.076 253.123L449.242 524.436C449.983 526.807 448.648 528.14 446.87 527.103L393.675 496.43C392.638 495.837 391.748 494.652 391.303 493.319L372.781 430.491L367.298 412.414C366.854 411.08 365.965 409.894 364.928 409.301L349.666 400.56L347.74 399.373L319.14 382.926C317.362 381.889 316.177 379.073 316.77 377.74C321.808 367.367 325.068 355.216 326.846 341.14C326.994 339.806 328.032 339.362 329.365 339.954L330.403 340.548L332.329 341.733L346.406 349.883C347.739 350.624 348.48 349.735 348.184 347.957L294.247 166.142C293.654 163.771 294.84 162.437 296.618 163.623L344.331 191.183C345.368 191.776 346.258 192.961 346.702 194.147L365.076 253.123ZM666.618 518.065C667.062 434.196 612.829 348.548 533.998 303.058L417.234 235.933C415.456 234.896 414.123 236.377 414.864 238.6L474.727 431.825C475.172 433.158 475.913 434.196 476.802 434.788C478.136 435.529 479.322 435.232 479.322 433.454L479.766 327.656C479.766 326.174 480.952 325.581 482.285 326.322L530.74 354.328C578.749 381.889 610.014 432.565 609.866 485.613C609.866 538.661 578.305 553.331 530.443 525.77L501.993 509.322C500.214 508.284 498.881 509.766 499.622 511.988L517.404 569.334C517.848 570.519 518.737 571.704 519.774 572.297L533.11 580.003C612.089 625.345 666.47 601.785 666.618 518.065Z" fill="url(#paint49_linear_10_207062)"/>
<path d="M479.469 439.231V329.58C479.469 326.913 482.137 326.913 484.063 327.654C517.107 346.028 540.222 361.141 547.631 366.328V393.89C547.631 396.557 547.187 398.483 547.039 399.076L479.469 439.231Z" fill="url(#paint50_linear_10_207062)"/>
<path d="M170.371 205.992L127.844 224.514L174.223 251.186C174.223 251.186 175.408 251.632 176.149 253.262C208.452 234.591 208.453 234.592 208.453 234.592C208.453 234.592 208.6 235.036 208.007 231.628C207.415 228.22 207.416 228.219 207.416 228.219L170.371 205.992Z" fill="url(#paint51_linear_10_207062)"/>
</g>
<g clip-path="url(#clip2_10_207062)">
<path d="M293.501 419.609C293.073 423.368 288.546 439.568 289.514 445.14C290.483 450.689 305.887 459.975 305.887 459.975L308.027 450.465L299.491 442.164L301.788 426.412L293.501 419.609Z" fill="#FFDE83"/>
<path d="M305.415 401.398C303.208 400.458 299.109 400.234 296.834 403.971C294.56 407.708 292.217 420.507 291.992 422.699C291.992 422.699 295.168 427.063 299.942 426.347L305.415 401.398Z" fill="url(#paint52_linear_10_207062)"/>
<path d="M305.415 401.398C303.208 400.458 299.109 400.234 296.834 403.971C294.56 407.708 292.217 420.507 291.992 422.699C291.992 422.699 295.168 427.063 299.942 426.347L305.415 401.398Z" fill="url(#paint53_linear_10_207062)"/>
<path d="M303.251 573.643C303.251 573.643 303.071 575.299 302.575 577.402C302.17 579.035 302.102 581.139 303.926 581.743C305.773 582.325 307.868 582.146 309.061 580.557C310.525 578.588 311.313 576.126 313.43 574.202C315.48 572.367 318.024 570.286 318.745 567.355C319.421 564.715 318.993 563.059 317.169 562.791C314.872 562.455 311.223 564.379 309.354 565.744C308.025 566.706 303.251 573.643 303.251 573.643Z" fill="url(#paint54_linear_10_207062)"/>
<path d="M324.355 581.317C324.355 581.317 324.22 583.42 324.085 585.099C323.95 586.777 323.364 589.44 323.905 590.693C324.445 591.923 327.215 592.841 330.481 592.818C332.598 592.796 336.697 594.429 338.16 595.682C340.232 597.472 345.007 598.188 347.799 597.316C350.615 596.443 353.722 595.145 354.195 593.87C354.668 592.594 353.204 591.946 346.358 588.835C339.512 585.725 334.467 583.577 331.81 579.975L324.355 581.317Z" fill="url(#paint55_linear_10_207062)"/>
<path d="M301.608 537.486C302.779 528.581 304.626 523.3 304.626 523.3C304.626 523.3 303.725 511.061 303.275 499.448C302.757 486.246 298.163 474.655 301.789 464.139L342.709 473.178C342.709 473.178 340.232 525.717 339.691 532.071C339.398 535.517 339.286 538.963 337.845 546.817C335.975 557.02 332.935 581.275 332.935 581.275C328.611 583.781 324.332 581.298 324.332 581.298C324.332 581.298 323.228 551.717 323.521 544.356C323.859 535.383 324.129 536.077 324.129 536.077L322.778 513.723L321.9 502.602C321.9 502.602 320.774 510.77 320.03 518.064C319.377 524.419 317.846 530.169 316.112 542.006C314.625 552.277 310.707 573.422 310.707 573.422C306.383 575.928 303.252 573.668 303.252 573.668C303.252 573.668 300.437 546.392 301.608 537.486Z" fill="#2D3030"/>
<path d="M321.9 502.624C321.9 502.624 320.774 510.791 320.031 518.085C319.716 521.151 319.198 524.082 318.545 527.595C318.545 527.595 319.13 514.013 318.905 507.591C318.68 501.169 318.027 494.233 318.027 494.233C309.424 490.608 307.645 485.395 307.645 485.395C314.018 490.809 320.752 492.465 320.752 492.465L321.9 502.624Z" fill="black"/>
<path d="M307.577 401.622C310.685 401.778 313.005 402.561 313.41 401.666C313.725 400.95 314.108 396.833 314.131 396.833C313.77 395.938 313.455 394.976 313.455 394.976C309.536 392.582 306.744 388.532 306.226 383.654C305.348 375.263 311.451 367.767 319.874 366.895C327.778 366.067 333.611 371.594 335.165 379.201C335.999 382.938 337.125 390.904 334.872 397.057C333.611 400.503 332.53 402.024 330.909 402.561C330.346 402.673 327.328 402.606 326.224 402.494C326.224 402.494 325.797 404.821 325.526 406.298C325.234 407.797 325.346 408.581 328.341 410.415C331.337 412.25 323.815 416.009 318.928 415.629C314.018 415.248 308.501 412.317 306.992 409.162C305.303 405.672 305.438 401.532 307.577 401.622Z" fill="#FFDE83"/>
<path d="M328.341 410.412C328.454 410.479 328.499 410.546 328.589 410.613L324.31 412.068L311.653 410.121L308.703 402.625C308.703 402.625 308.816 402.267 308.996 401.73C311.383 401.976 313.072 402.424 313.41 401.641C313.635 401.104 313.928 398.62 314.063 397.434C316.338 397.837 319.018 398.307 319.671 398.329C320.842 398.374 324.873 392.467 324.873 392.467C324.873 392.467 325.436 397.412 325.977 398.777C326.517 400.142 330.211 402.267 331.562 402.245C331.359 402.357 331.156 402.446 330.931 402.536C330.368 402.648 327.35 402.581 326.247 402.469C326.247 402.469 325.819 404.796 325.549 406.273C325.233 407.794 325.346 408.6 328.341 410.412Z" fill="#FFC40C"/>
<path d="M306.138 374.12C306.521 372.308 307.804 369.958 317.646 367.206C327.06 364.588 334.424 363.469 336.248 364.678C338.05 365.886 338.5 375.127 329.605 379.535C329.244 380.206 329.019 380.989 329.019 382.063C329.019 383.495 329.177 384.637 329.019 386.203C328.794 388.418 326.407 388.575 326.407 388.575C326.407 388.575 326.384 387.299 326.384 384.659C325.551 382.824 322.33 382.354 321.159 384.905C319.988 387.456 320.641 389.582 321.452 391.126C322.488 393.072 324.245 393.229 324.83 392.535C324.83 394.75 324.402 398.062 321.902 400.859C318.569 401.799 315.281 400.367 313.84 399.114C313.48 398.129 312.331 396.339 310.845 393.967C309.021 391.081 307.129 389.201 306.115 384.525C305.215 380.229 305.417 377.655 306.138 374.12Z" fill="#2D3030"/>
<path d="M312.081 402.091C311.225 404.239 313.41 406.857 319.265 408.669C325.121 410.482 325.639 408.155 325.639 408.155C325.639 408.155 334.219 412.048 337.012 413.972C340.525 416.411 342.079 423.482 342.552 435.386C343.092 449.169 343.137 469.643 342.687 473.178C342.687 473.178 336.111 479.69 327.711 478.996C319.333 478.303 305.212 470.919 301.766 465.213C301.856 453.107 303.275 451.138 301.316 444.18C296.812 428.226 294.425 421.692 296.609 411.086C298.411 402.337 300.956 401.263 304.424 401.352C307.915 401.442 312.081 402.091 312.081 402.091Z" fill="url(#paint56_linear_10_207062)"/>
<path d="M313.591 400.905C314.807 402.427 319.041 405.761 325.594 405.94C326.855 405.738 327.554 408.155 328.274 409.363C328.274 409.363 325.324 411.757 318.77 410.102C312.217 408.446 309.897 403.657 310.46 401.867C310.46 401.867 312.555 399.585 313.591 400.905Z" fill="url(#paint57_linear_10_207062)"/>
<path d="M313.591 400.905C314.807 402.427 319.041 405.761 325.594 405.94C326.855 405.738 327.554 408.155 328.274 409.363C328.274 409.363 325.324 411.757 318.77 410.102C312.217 408.446 309.897 403.657 310.46 401.867C310.46 401.867 312.555 399.585 313.591 400.905Z" fill="url(#paint58_linear_10_207062)"/>
<path d="M355.792 449.033C348.901 450.756 347.279 446.438 346.379 442.858C344.194 434.198 343 426.367 341.379 421.466C339.465 415.671 337.438 414.754 334.6 413.613C331.267 412.292 328.407 415.089 329.51 422.451C330.817 431.177 332.551 437.308 335.839 447.646C336.695 450.353 338.631 455.142 341.491 457.447C345.05 460.311 350.41 460.176 358.517 458.185C361.986 457.335 365.769 455.276 372.3 452.255C374.057 451.45 375.431 450.89 378.786 449.347C382.164 447.78 385.655 445.185 387.434 442.634C389.213 440.083 389.439 438.897 389.078 438.315C388.628 437.577 387.817 437.756 386.894 438.808C385.948 439.882 384.574 441.806 381.939 443.372C381.939 443.372 384.124 441.135 385.295 439.68C386.466 438.226 387.389 436.637 387.907 435.451C388.538 433.974 387.254 431.961 386.263 433.012C385.272 434.064 384.822 435.138 383.043 437.264C381.421 439.188 379.845 440.284 379.845 440.284C379.845 440.284 381.646 437.868 382.795 435.585C383.921 433.281 383.921 432.117 383.876 431.334C383.831 430.551 382.727 429.634 381.691 431.11C380.768 432.43 380.16 434.489 377.998 436.727C376.421 438.36 375.093 439.277 375.048 438.83C375.003 438.382 375.994 437.487 376.557 435.608C377.097 433.795 376.534 431.714 375.498 431.491C374.462 431.267 374.642 431.334 373.809 433.102C372.976 434.869 371.67 436.19 370.679 438.763C369.8 441.045 369.417 441.963 367.841 443.618C366.084 445.408 362.346 447.4 355.792 449.033Z" fill="#FFDE83"/>
<path d="M332.012 412.425C336.606 411.753 339.872 413.812 341.899 420.749C343.926 427.685 345.344 433.368 345.344 433.368C345.344 433.368 343.137 437.128 337.642 438.47C332.125 439.79 330.143 437.172 330.143 437.172C330.143 437.172 328.611 429.9 327.665 424.955C326.72 420.01 326.314 413.253 332.012 412.425Z" fill="url(#paint59_linear_10_207062)"/>
</g>
<g opacity="0.6">
<mask id="mask3_10_207062" style="mask-type:alpha" maskUnits="userSpaceOnUse" x="0" y="0" width="735" height="625">
<rect width="734.917" height="624.304" fill="url(#paint60_linear_10_207062)"/>
</mask>
<g mask="url(#mask3_10_207062)">
<path d="M134.213 120.049C134.213 120.049 128.434 173.986 170.369 205.992L127.841 224.515C127.841 224.515 151.995 304.383 157.774 315.644C163.553 326.906 49.9004 271.783 43.9732 205.992C38.0461 140.201 5.44668 49.6652 58.4944 63.5939C111.542 77.5226 134.213 120.049 134.213 120.049Z" fill="url(#paint61_linear_10_207062)"/>
<path d="M243.422 353.732L307.732 315.65L337.218 332.691C336.329 333.135 333.366 334.618 328.624 337.285C326.698 357.586 317.511 377.292 318.845 378.626C320.179 379.96 337.812 390.48 346.999 395.666C356.186 400.853 365.372 406.78 367.298 408.855C368.928 410.485 371.003 419.524 371.892 423.969L324.031 450.938C318.845 433.601 308.175 398.483 307.583 395.816C306.99 393.148 304.767 391.222 303.582 390.629C302.989 390.185 298.099 387.221 283.874 378.775C269.945 370.329 251.127 358.622 243.422 353.732Z" fill="url(#paint62_linear_10_207062)"/>
<path d="M309.062 315.058L243.42 353.14C281.501 298.759 259.127 232.375 255.867 221.262C252.607 210.148 233.491 140.505 162.069 83.456C104.873 37.8172 59.5313 40.7802 43.9727 48.0409C65.0139 35.2976 107.688 9.95886 110.948 9.95886C164.144 -6.48889 212.599 29.6668 250.681 64.3405C281.057 92.1979 304.024 134.133 311.729 151.618L295.282 161.397C304.173 191.774 323.288 255.935 327.437 269.567C331.586 283.348 316.916 305.574 309.062 315.058Z" fill="url(#paint63_linear_10_207062)"/>
<path d="M346.259 192.365L295.137 162.136C294.544 161.839 295.729 161.098 296.47 160.802C316.326 149.392 356.927 126.128 360.039 124.054C363.151 121.979 366.558 123.61 367.892 124.647C382.265 132.797 411.604 149.244 413.086 150.281C414.716 151.319 414.124 152.059 413.68 152.207L346.259 192.365Z" fill="url(#paint64_linear_10_207062)"/>
<path d="M347 191.032L414.569 151.617L517.552 485.462L449.39 524.877L347 191.032Z" fill="url(#paint65_linear_10_207062)"/>
<path d="M501.254 507.246L568.231 467.83C579.196 474.202 601.719 487.094 604.238 488.131C607.498 489.464 611.499 491.391 610.758 499.985C605.572 536.733 582.603 539.401 562.895 537.326C547.188 535.844 515.183 516.582 501.254 507.246Z" fill="url(#paint66_linear_10_207062)"/>
<path d="M175.855 253.418L209.936 233.711C209.936 238.304 211.862 258.012 209.343 270.459C206.676 282.906 197.489 298.02 194.229 296.687C186.375 294.019 178.671 266.754 175.855 253.418Z" fill="url(#paint67_linear_10_207062)"/>
<path d="M550.447 312.389L416.643 235.039C415.309 234.299 416.938 232.965 417.976 232.373C436.942 221.259 475.765 198.439 479.025 196.364C482.137 194.29 485.545 195.031 486.878 195.772C507.179 207.182 556.226 235.039 589.862 255.488C631.796 281.123 647.652 290.31 684.252 336.245C721 382.18 735.373 435.968 734.039 483.829C733.002 522.208 715.666 544.88 707.072 551.399C696.847 557.327 669.138 573.034 640.836 588.741C667.063 567.699 678.917 504.13 647.355 429.3C622.313 369.288 572.229 326.466 550.447 312.389Z" fill="url(#paint68_linear_10_207062)"/>
<path fill-rule="evenodd" clip-rule="evenodd" d="M308.473 396.41L325.364 453.163C325.957 455.534 324.772 456.866 322.994 455.681L253.942 415.969C234.234 404.56 215.861 389.89 199.413 372.701C199.265 372.257 198.82 372.108 198.375 371.96C197.931 371.812 197.635 371.516 197.19 371.516C178.668 371.368 156.738 364.552 133.326 351.068C57.7552 307.652 1.59544 214.892 1.89179 132.209C2.03997 50.1181 58.2 21.3713 134.364 65.2319C210.082 108.796 266.241 201.705 266.093 284.24C266.093 315.654 257.796 339.362 243.274 354.031C242.682 354.624 243.274 356.106 244.015 356.698C245.942 358.032 265.056 369.294 282.245 379.222C285.06 380.852 287.875 382.481 290.542 384.111C293.802 386.038 296.766 387.816 299.433 389.297C300.47 389.89 301.359 390.336 302.397 390.928C303.582 391.669 304.768 392.41 306.25 393.151C307.287 393.892 308.028 395.076 308.473 396.41ZM194.967 297.871C204.006 288.684 209.489 273.126 209.489 251.936C209.637 199.481 177.334 144.655 134.214 120.058C91.0947 95.0157 58.6443 112.353 58.4961 164.808C58.3479 217.411 90.6504 272.089 133.77 296.983C138.067 299.502 142.216 301.577 146.365 303.207C148.292 303.947 149.033 301.873 147.847 299.502C135.993 275.349 127.695 248.826 125.473 226.451C125.325 224.673 126.509 223.783 127.991 224.672L154.071 239.787L174.372 251.344C175.557 251.937 176.445 253.419 176.742 254.752C179.705 269.274 184.447 282.905 191.115 295.649C191.708 296.686 192.301 297.427 193.041 297.724C193.782 298.316 194.523 298.316 194.967 297.871ZM365.076 253.123L449.242 524.436C449.983 526.807 448.648 528.14 446.87 527.103L393.675 496.43C392.638 495.837 391.748 494.652 391.303 493.319L372.781 430.491L367.298 412.414C366.854 411.08 365.965 409.894 364.928 409.301L349.666 400.56L347.74 399.373L319.14 382.926C317.362 381.889 316.177 379.073 316.77 377.74C321.808 367.367 325.068 355.216 326.846 341.14C326.994 339.806 328.032 339.362 329.365 339.954L330.403 340.548L332.329 341.733L346.406 349.883C347.739 350.624 348.48 349.735 348.184 347.957L294.247 166.142C293.654 163.771 294.84 162.437 296.618 163.623L344.331 191.183C345.368 191.776 346.258 192.961 346.702 194.147L365.076 253.123ZM666.618 518.065C667.062 434.196 612.829 348.548 533.998 303.058L417.234 235.933C415.456 234.896 414.123 236.377 414.864 238.6L474.727 431.825C475.172 433.158 475.913 434.196 476.802 434.788C478.136 435.529 479.322 435.232 479.322 433.454L479.766 327.656C479.766 326.174 480.952 325.581 482.285 326.322L530.74 354.328C578.749 381.889 610.014 432.565 609.866 485.613C609.866 538.661 578.305 553.331 530.443 525.77L501.993 509.322C500.214 508.284 498.881 509.766 499.622 511.988L517.404 569.334C517.848 570.519 518.737 571.704 519.774 572.297L533.11 580.003C612.089 625.345 666.47 601.785 666.618 518.065Z" fill="url(#paint69_linear_10_207062)"/>
<path d="M479.469 439.231V329.58C479.469 326.913 482.137 326.913 484.063 327.654C517.107 346.028 540.222 361.141 547.631 366.328V393.89C547.631 396.557 547.187 398.483 547.039 399.076L479.469 439.231Z" fill="url(#paint70_linear_10_207062)"/>
<path d="M170.371 205.992L127.844 224.514L174.223 251.186C174.223 251.186 175.408 251.632 176.149 253.262C208.452 234.591 208.453 234.592 208.453 234.592C208.453 234.592 208.6 235.036 208.007 231.628C207.415 228.22 207.416 228.219 207.416 228.219L170.371 205.992Z" fill="url(#paint71_linear_10_207062)"/>
</g>
<g clip-path="url(#clip3_10_207062)">
<path d="M293.501 419.609C293.073 423.368 288.546 439.568 289.514 445.14C290.483 450.689 305.887 459.975 305.887 459.975L308.027 450.465L299.491 442.164L301.788 426.412L293.501 419.609Z" fill="#FFDE83"/>
<path d="M305.415 401.398C303.208 400.458 299.109 400.234 296.834 403.971C294.56 407.708 292.217 420.507 291.992 422.699C291.992 422.699 295.168 427.063 299.942 426.347L305.415 401.398Z" fill="url(#paint72_linear_10_207062)"/>
<path d="M305.415 401.398C303.208 400.458 299.109 400.234 296.834 403.971C294.56 407.708 292.217 420.507 291.992 422.699C291.992 422.699 295.168 427.063 299.942 426.347L305.415 401.398Z" fill="url(#paint73_linear_10_207062)"/>
<path d="M303.251 573.643C303.251 573.643 303.071 575.299 302.575 577.402C302.17 579.035 302.102 581.139 303.926 581.743C305.773 582.325 307.868 582.146 309.061 580.557C310.525 578.588 311.313 576.126 313.43 574.202C315.48 572.367 318.024 570.286 318.745 567.355C319.421 564.715 318.993 563.059 317.169 562.791C314.872 562.455 311.223 564.379 309.354 565.744C308.025 566.706 303.251 573.643 303.251 573.643Z" fill="url(#paint74_linear_10_207062)"/>
<path d="M324.355 581.317C324.355 581.317 324.22 583.42 324.085 585.099C323.95 586.777 323.364 589.44 323.905 590.693C324.445 591.923 327.215 592.841 330.481 592.818C332.598 592.796 336.697 594.429 338.16 595.682C340.232 597.472 345.007 598.188 347.799 597.316C350.615 596.443 353.722 595.145 354.195 593.87C354.668 592.594 353.204 591.946 346.358 588.835C339.512 585.725 334.467 583.577 331.81 579.975L324.355 581.317Z" fill="url(#paint75_linear_10_207062)"/>
<path d="M301.608 537.486C302.779 528.581 304.626 523.3 304.626 523.3C304.626 523.3 303.725 511.061 303.275 499.448C302.757 486.246 298.163 474.655 301.789 464.139L342.709 473.178C342.709 473.178 340.232 525.717 339.691 532.071C339.398 535.517 339.286 538.963 337.845 546.817C335.975 557.02 332.935 581.275 332.935 581.275C328.611 583.781 324.332 581.298 324.332 581.298C324.332 581.298 323.228 551.717 323.521 544.356C323.859 535.383 324.129 536.077 324.129 536.077L322.778 513.723L321.9 502.602C321.9 502.602 320.774 510.77 320.03 518.064C319.377 524.419 317.846 530.169 316.112 542.006C314.625 552.277 310.707 573.422 310.707 573.422C306.383 575.928 303.252 573.668 303.252 573.668C303.252 573.668 300.437 546.392 301.608 537.486Z" fill="#2D3030"/>
<path d="M321.9 502.624C321.9 502.624 320.774 510.791 320.031 518.085C319.716 521.151 319.198 524.082 318.545 527.595C318.545 527.595 319.13 514.013 318.905 507.591C318.68 501.169 318.027 494.233 318.027 494.233C309.424 490.608 307.645 485.395 307.645 485.395C314.018 490.809 320.752 492.465 320.752 492.465L321.9 502.624Z" fill="black"/>
<path d="M307.577 401.622C310.685 401.778 313.005 402.561 313.41 401.666C313.725 400.95 314.108 396.833 314.131 396.833C313.77 395.938 313.455 394.976 313.455 394.976C309.536 392.582 306.744 388.532 306.226 383.654C305.348 375.263 311.451 367.767 319.874 366.895C327.778 366.067 333.611 371.594 335.165 379.201C335.999 382.938 337.125 390.904 334.872 397.057C333.611 400.503 332.53 402.024 330.909 402.561C330.346 402.673 327.328 402.606 326.224 402.494C326.224 402.494 325.797 404.821 325.526 406.298C325.234 407.797 325.346 408.581 328.341 410.415C331.337 412.25 323.815 416.009 318.928 415.629C314.018 415.248 308.501 412.317 306.992 409.162C305.303 405.672 305.438 401.532 307.577 401.622Z" fill="#FFDE83"/>
<path d="M328.341 410.412C328.454 410.479 328.499 410.546 328.589 410.613L324.31 412.068L311.653 410.121L308.703 402.625C308.703 402.625 308.816 402.267 308.996 401.73C311.383 401.976 313.072 402.424 313.41 401.641C313.635 401.104 313.928 398.62 314.063 397.434C316.338 397.837 319.018 398.307 319.671 398.329C320.842 398.374 324.873 392.467 324.873 392.467C324.873 392.467 325.436 397.412 325.977 398.777C326.517 400.142 330.211 402.267 331.562 402.245C331.359 402.357 331.156 402.446 330.931 402.536C330.368 402.648 327.35 402.581 326.247 402.469C326.247 402.469 325.819 404.796 325.549 406.273C325.233 407.794 325.346 408.6 328.341 410.412Z" fill="#FFC40C"/>
<path d="M306.138 374.12C306.521 372.308 307.804 369.958 317.646 367.206C327.06 364.588 334.424 363.469 336.248 364.678C338.05 365.886 338.5 375.127 329.605 379.535C329.244 380.206 329.019 380.989 329.019 382.063C329.019 383.495 329.177 384.637 329.019 386.203C328.794 388.418 326.407 388.575 326.407 388.575C326.407 388.575 326.384 387.299 326.384 384.659C325.551 382.824 322.33 382.354 321.159 384.905C319.988 387.456 320.641 389.582 321.452 391.126C322.488 393.072 324.245 393.229 324.83 392.535C324.83 394.75 324.402 398.062 321.902 400.859C318.569 401.799 315.281 400.367 313.84 399.114C313.48 398.129 312.331 396.339 310.845 393.967C309.021 391.081 307.129 389.201 306.115 384.525C305.215 380.229 305.417 377.655 306.138 374.12Z" fill="#2D3030"/>
<path d="M312.081 402.091C311.225 404.239 313.41 406.857 319.265 408.669C325.121 410.482 325.639 408.155 325.639 408.155C325.639 408.155 334.219 412.048 337.012 413.972C340.525 416.411 342.079 423.482 342.552 435.386C343.092 449.169 343.137 469.643 342.687 473.178C342.687 473.178 336.111 479.69 327.711 478.996C319.333 478.303 305.212 470.919 301.766 465.213C301.856 453.107 303.275 451.138 301.316 444.18C296.812 428.226 294.425 421.692 296.609 411.086C298.411 402.337 300.956 401.263 304.424 401.352C307.915 401.442 312.081 402.091 312.081 402.091Z" fill="url(#paint76_linear_10_207062)"/>
<path d="M313.591 400.905C314.807 402.427 319.041 405.761 325.594 405.94C326.855 405.738 327.554 408.155 328.274 409.363C328.274 409.363 325.324 411.757 318.77 410.102C312.217 408.446 309.897 403.657 310.46 401.867C310.46 401.867 312.555 399.585 313.591 400.905Z" fill="url(#paint77_linear_10_207062)"/>
<path d="M313.591 400.905C314.807 402.427 319.041 405.761 325.594 405.94C326.855 405.738 327.554 408.155 328.274 409.363C328.274 409.363 325.324 411.757 318.77 410.102C312.217 408.446 309.897 403.657 310.46 401.867C310.46 401.867 312.555 399.585 313.591 400.905Z" fill="url(#paint78_linear_10_207062)"/>
<path d="M355.792 449.033C348.901 450.756 347.279 446.438 346.379 442.858C344.194 434.198 343 426.367 341.379 421.466C339.465 415.671 337.438 414.754 334.6 413.613C331.267 412.292 328.407 415.089 329.51 422.451C330.817 431.177 332.551 437.308 335.839 447.646C336.695 450.353 338.631 455.142 341.491 457.447C345.05 460.311 350.41 460.176 358.517 458.185C361.986 457.335 365.769 455.276 372.3 452.255C374.057 451.45 375.431 450.89 378.786 449.347C382.164 447.78 385.655 445.185 387.434 442.634C389.213 440.083 389.439 438.897 389.078 438.315C388.628 437.577 387.817 437.756 386.894 438.808C385.948 439.882 384.574 441.806 381.939 443.372C381.939 443.372 384.124 441.135 385.295 439.68C386.466 438.226 387.389 436.637 387.907 435.451C388.538 433.974 387.254 431.961 386.263 433.012C385.272 434.064 384.822 435.138 383.043 437.264C381.421 439.188 379.845 440.284 379.845 440.284C379.845 440.284 381.646 437.868 382.795 435.585C383.921 433.281 383.921 432.117 383.876 431.334C383.831 430.551 382.727 429.634 381.691 431.11C380.768 432.43 380.16 434.489 377.998 436.727C376.421 438.36 375.093 439.277 375.048 438.83C375.003 438.382 375.994 437.487 376.557 435.608C377.097 433.795 376.534 431.714 375.498 431.491C374.462 431.267 374.642 431.334 373.809 433.102C372.976 434.869 371.67 436.19 370.679 438.763C369.8 441.045 369.417 441.963 367.841 443.618C366.084 445.408 362.346 447.4 355.792 449.033Z" fill="#FFDE83"/>
<path d="M332.012 412.425C336.606 411.753 339.872 413.812 341.899 420.749C343.926 427.685 345.344 433.368 345.344 433.368C345.344 433.368 343.137 437.128 337.642 438.47C332.125 439.79 330.143 437.172 330.143 437.172C330.143 437.172 328.611 429.9 327.665 424.955C326.72 420.01 326.314 413.253 332.012 412.425Z" fill="url(#paint79_linear_10_207062)"/>
</g>
</g>
<g opacity="0.6">
<mask id="mask4_10_207062" style="mask-type:alpha" maskUnits="userSpaceOnUse" x="0" y="0" width="735" height="625">
<rect width="734.917" height="624.304" fill="url(#paint80_linear_10_207062)"/>
</mask>
<g mask="url(#mask4_10_207062)">
<path d="M134.213 120.049C134.213 120.049 128.434 173.986 170.369 205.992L127.841 224.515C127.841 224.515 151.995 304.383 157.774 315.644C163.553 326.906 49.9004 271.783 43.9732 205.992C38.0461 140.201 5.44668 49.6652 58.4944 63.5939C111.542 77.5226 134.213 120.049 134.213 120.049Z" fill="url(#paint81_linear_10_207062)"/>
<path d="M243.422 353.732L307.732 315.65L337.218 332.691C336.329 333.135 333.366 334.618 328.624 337.285C326.698 357.586 317.511 377.292 318.845 378.626C320.179 379.96 337.812 390.48 346.999 395.666C356.186 400.853 365.372 406.78 367.298 408.855C368.928 410.485 371.003 419.524 371.892 423.969L324.031 450.938C318.845 433.601 308.175 398.483 307.583 395.816C306.99 393.148 304.767 391.222 303.582 390.629C302.989 390.185 298.099 387.221 283.874 378.775C269.945 370.329 251.127 358.622 243.422 353.732Z" fill="url(#paint82_linear_10_207062)"/>
<path d="M309.062 315.058L243.42 353.14C281.501 298.759 259.127 232.375 255.867 221.262C252.607 210.148 233.491 140.505 162.069 83.456C104.873 37.8172 59.5313 40.7802 43.9727 48.0409C65.0139 35.2976 107.688 9.95886 110.948 9.95886C164.144 -6.48889 212.599 29.6668 250.681 64.3405C281.057 92.1979 304.024 134.133 311.729 151.618L295.282 161.397C304.173 191.774 323.288 255.935 327.437 269.567C331.586 283.348 316.916 305.574 309.062 315.058Z" fill="url(#paint83_linear_10_207062)"/>
<path d="M346.259 192.365L295.137 162.136C294.544 161.839 295.729 161.098 296.47 160.802C316.326 149.392 356.927 126.128 360.039 124.054C363.151 121.979 366.558 123.61 367.892 124.647C382.265 132.797 411.604 149.244 413.086 150.281C414.716 151.319 414.124 152.059 413.68 152.207L346.259 192.365Z" fill="url(#paint84_linear_10_207062)"/>
<path d="M347 191.032L414.569 151.617L517.552 485.462L449.39 524.877L347 191.032Z" fill="url(#paint85_linear_10_207062)"/>
<path d="M501.254 507.246L568.231 467.83C579.196 474.202 601.719 487.094 604.238 488.131C607.498 489.464 611.499 491.391 610.758 499.985C605.572 536.733 582.603 539.401 562.895 537.326C547.188 535.844 515.183 516.582 501.254 507.246Z" fill="url(#paint86_linear_10_207062)"/>
<path d="M175.855 253.418L209.936 233.711C209.936 238.304 211.862 258.012 209.343 270.459C206.676 282.906 197.489 298.02 194.229 296.687C186.375 294.019 178.671 266.754 175.855 253.418Z" fill="url(#paint87_linear_10_207062)"/>
<path d="M550.447 312.389L416.643 235.039C415.309 234.299 416.938 232.965 417.976 232.373C436.942 221.259 475.765 198.439 479.025 196.364C482.137 194.29 485.545 195.031 486.878 195.772C507.179 207.182 556.226 235.039 589.862 255.488C631.796 281.123 647.652 290.31 684.252 336.245C721 382.18 735.373 435.968 734.039 483.829C733.002 522.208 715.666 544.88 707.072 551.399C696.847 557.327 669.138 573.034 640.836 588.741C667.063 567.699 678.917 504.13 647.355 429.3C622.313 369.288 572.229 326.466 550.447 312.389Z" fill="url(#paint88_linear_10_207062)"/>
<path fill-rule="evenodd" clip-rule="evenodd" d="M308.473 396.41L325.364 453.163C325.957 455.534 324.772 456.866 322.994 455.681L253.942 415.969C234.234 404.56 215.861 389.89 199.413 372.701C199.265 372.257 198.82 372.108 198.375 371.96C197.931 371.812 197.635 371.516 197.19 371.516C178.668 371.368 156.738 364.552 133.326 351.068C57.7552 307.652 1.59544 214.892 1.89179 132.209C2.03997 50.1181 58.2 21.3713 134.364 65.2319C210.082 108.796 266.241 201.705 266.093 284.24C266.093 315.654 257.796 339.362 243.274 354.031C242.682 354.624 243.274 356.106 244.015 356.698C245.942 358.032 265.056 369.294 282.245 379.222C285.06 380.852 287.875 382.481 290.542 384.111C293.802 386.038 296.766 387.816 299.433 389.297C300.47 389.89 301.359 390.336 302.397 390.928C303.582 391.669 304.768 392.41 306.25 393.151C307.287 393.892 308.028 395.076 308.473 396.41ZM194.967 297.871C204.006 288.684 209.489 273.126 209.489 251.936C209.637 199.481 177.334 144.655 134.214 120.058C91.0947 95.0157 58.6443 112.353 58.4961 164.808C58.3479 217.411 90.6504 272.089 133.77 296.983C138.067 299.502 142.216 301.577 146.365 303.207C148.292 303.947 149.033 301.873 147.847 299.502C135.993 275.349 127.695 248.826 125.473 226.451C125.325 224.673 126.509 223.783 127.991 224.672L154.071 239.787L174.372 251.344C175.557 251.937 176.445 253.419 176.742 254.752C179.705 269.274 184.447 282.905 191.115 295.649C191.708 296.686 192.301 297.427 193.041 297.724C193.782 298.316 194.523 298.316 194.967 297.871ZM365.076 253.123L449.242 524.436C449.983 526.807 448.648 528.14 446.87 527.103L393.675 496.43C392.638 495.837 391.748 494.652 391.303 493.319L372.781 430.491L367.298 412.414C366.854 411.08 365.965 409.894 364.928 409.301L349.666 400.56L347.74 399.373L319.14 382.926C317.362 381.889 316.177 379.073 316.77 377.74C321.808 367.367 325.068 355.216 326.846 341.14C326.994 339.806 328.032 339.362 329.365 339.954L330.403 340.548L332.329 341.733L346.406 349.883C347.739 350.624 348.48 349.735 348.184 347.957L294.247 166.142C293.654 163.771 294.84 162.437 296.618 163.623L344.331 191.183C345.368 191.776 346.258 192.961 346.702 194.147L365.076 253.123ZM666.618 518.065C667.062 434.196 612.829 348.548 533.998 303.058L417.234 235.933C415.456 234.896 414.123 236.377 414.864 238.6L474.727 431.825C475.172 433.158 475.913 434.196 476.802 434.788C478.136 435.529 479.322 435.232 479.322 433.454L479.766 327.656C479.766 326.174 480.952 325.581 482.285 326.322L530.74 354.328C578.749 381.889 610.014 432.565 609.866 485.613C609.866 538.661 578.305 553.331 530.443 525.77L501.993 509.322C500.214 508.284 498.881 509.766 499.622 511.988L517.404 569.334C517.848 570.519 518.737 571.704 519.774 572.297L533.11 580.003C612.089 625.345 666.47 601.785 666.618 518.065Z" fill="url(#paint89_linear_10_207062)"/>
<path d="M479.469 439.231V329.58C479.469 326.913 482.137 326.913 484.063 327.654C517.107 346.028 540.222 361.141 547.631 366.328V393.89C547.631 396.557 547.187 398.483 547.039 399.076L479.469 439.231Z" fill="url(#paint90_linear_10_207062)"/>
<path d="M170.371 205.992L127.844 224.514L174.223 251.186C174.223 251.186 175.408 251.632 176.149 253.262C208.452 234.591 208.453 234.592 208.453 234.592C208.453 234.592 208.6 235.036 208.007 231.628C207.415 228.22 207.416 228.219 207.416 228.219L170.371 205.992Z" fill="url(#paint91_linear_10_207062)"/>
</g>
<g clip-path="url(#clip4_10_207062)">
<path d="M293.501 419.609C293.073 423.368 288.546 439.568 289.514 445.14C290.483 450.689 305.887 459.975 305.887 459.975L308.027 450.465L299.491 442.164L301.788 426.412L293.501 419.609Z" fill="#FFDE83"/>
<path d="M305.415 401.398C303.208 400.458 299.109 400.234 296.834 403.971C294.56 407.708 292.217 420.507 291.992 422.699C291.992 422.699 295.168 427.063 299.942 426.347L305.415 401.398Z" fill="url(#paint92_linear_10_207062)"/>
<path d="M305.415 401.398C303.208 400.458 299.109 400.234 296.834 403.971C294.56 407.708 292.217 420.507 291.992 422.699C291.992 422.699 295.168 427.063 299.942 426.347L305.415 401.398Z" fill="url(#paint93_linear_10_207062)"/>
<path d="M303.251 573.643C303.251 573.643 303.071 575.299 302.575 577.402C302.17 579.035 302.102 581.139 303.926 581.743C305.773 582.325 307.868 582.146 309.061 580.557C310.525 578.588 311.313 576.126 313.43 574.202C315.48 572.367 318.024 570.286 318.745 567.355C319.421 564.715 318.993 563.059 317.169 562.791C314.872 562.455 311.223 564.379 309.354 565.744C308.025 566.706 303.251 573.643 303.251 573.643Z" fill="url(#paint94_linear_10_207062)"/>
<path d="M324.355 581.317C324.355 581.317 324.22 583.42 324.085 585.099C323.95 586.777 323.364 589.44 323.905 590.693C324.445 591.923 327.215 592.841 330.481 592.818C332.598 592.796 336.697 594.429 338.16 595.682C340.232 597.472 345.007 598.188 347.799 597.316C350.615 596.443 353.722 595.145 354.195 593.87C354.668 592.594 353.204 591.946 346.358 588.835C339.512 585.725 334.467 583.577 331.81 579.975L324.355 581.317Z" fill="url(#paint95_linear_10_207062)"/>
<path d="M301.608 537.486C302.779 528.581 304.626 523.3 304.626 523.3C304.626 523.3 303.725 511.061 303.275 499.448C302.757 486.246 298.163 474.655 301.789 464.139L342.709 473.178C342.709 473.178 340.232 525.717 339.691 532.071C339.398 535.517 339.286 538.963 337.845 546.817C335.975 557.02 332.935 581.275 332.935 581.275C328.611 583.781 324.332 581.298 324.332 581.298C324.332 581.298 323.228 551.717 323.521 544.356C323.859 535.383 324.129 536.077 324.129 536.077L322.778 513.723L321.9 502.602C321.9 502.602 320.774 510.77 320.03 518.064C319.377 524.419 317.846 530.169 316.112 542.006C314.625 552.277 310.707 573.422 310.707 573.422C306.383 575.928 303.252 573.668 303.252 573.668C303.252 573.668 300.437 546.392 301.608 537.486Z" fill="#2D3030"/>
<path d="M321.9 502.624C321.9 502.624 320.774 510.791 320.031 518.085C319.716 521.151 319.198 524.082 318.545 527.595C318.545 527.595 319.13 514.013 318.905 507.591C318.68 501.169 318.027 494.233 318.027 494.233C309.424 490.608 307.645 485.395 307.645 485.395C314.018 490.809 320.752 492.465 320.752 492.465L321.9 502.624Z" fill="black"/>
<path d="M307.577 401.622C310.685 401.778 313.005 402.561 313.41 401.666C313.725 400.95 314.108 396.833 314.131 396.833C313.77 395.938 313.455 394.976 313.455 394.976C309.536 392.582 306.744 388.532 306.226 383.654C305.348 375.263 311.451 367.767 319.874 366.895C327.778 366.067 333.611 371.594 335.165 379.201C335.999 382.938 337.125 390.904 334.872 397.057C333.611 400.503 332.53 402.024 330.909 402.561C330.346 402.673 327.328 402.606 326.224 402.494C326.224 402.494 325.797 404.821 325.526 406.298C325.234 407.797 325.346 408.581 328.341 410.415C331.337 412.25 323.815 416.009 318.928 415.629C314.018 415.248 308.501 412.317 306.992 409.162C305.303 405.672 305.438 401.532 307.577 401.622Z" fill="#FFDE83"/>
<path d="M328.341 410.412C328.454 410.479 328.499 410.546 328.589 410.613L324.31 412.068L311.653 410.121L308.703 402.625C308.703 402.625 308.816 402.267 308.996 401.73C311.383 401.976 313.072 402.424 313.41 401.641C313.635 401.104 313.928 398.62 314.063 397.434C316.338 397.837 319.018 398.307 319.671 398.329C320.842 398.374 324.873 392.467 324.873 392.467C324.873 392.467 325.436 397.412 325.977 398.777C326.517 400.142 330.211 402.267 331.562 402.245C331.359 402.357 331.156 402.446 330.931 402.536C330.368 402.648 327.35 402.581 326.247 402.469C326.247 402.469 325.819 404.796 325.549 406.273C325.233 407.794 325.346 408.6 328.341 410.412Z" fill="#FFC40C"/>
<path d="M306.138 374.12C306.521 372.308 307.804 369.958 317.646 367.206C327.06 364.588 334.424 363.469 336.248 364.678C338.05 365.886 338.5 375.127 329.605 379.535C329.244 380.206 329.019 380.989 329.019 382.063C329.019 383.495 329.177 384.637 329.019 386.203C328.794 388.418 326.407 388.575 326.407 388.575C326.407 388.575 326.384 387.299 326.384 384.659C325.551 382.824 322.33 382.354 321.159 384.905C319.988 387.456 320.641 389.582 321.452 391.126C322.488 393.072 324.245 393.229 324.83 392.535C324.83 394.75 324.402 398.062 321.902 400.859C318.569 401.799 315.281 400.367 313.84 399.114C313.48 398.129 312.331 396.339 310.845 393.967C309.021 391.081 307.129 389.201 306.115 384.525C305.215 380.229 305.417 377.655 306.138 374.12Z" fill="#2D3030"/>
<path d="M312.081 402.091C311.225 404.239 313.41 406.857 319.265 408.669C325.121 410.482 325.639 408.155 325.639 408.155C325.639 408.155 334.219 412.048 337.012 413.972C340.525 416.411 342.079 423.482 342.552 435.386C343.092 449.169 343.137 469.643 342.687 473.178C342.687 473.178 336.111 479.69 327.711 478.996C319.333 478.303 305.212 470.919 301.766 465.213C301.856 453.107 303.275 451.138 301.316 444.18C296.812 428.226 294.425 421.692 296.609 411.086C298.411 402.337 300.956 401.263 304.424 401.352C307.915 401.442 312.081 402.091 312.081 402.091Z" fill="url(#paint96_linear_10_207062)"/>
<path d="M313.591 400.905C314.807 402.427 319.041 405.761 325.594 405.94C326.855 405.738 327.554 408.155 328.274 409.363C328.274 409.363 325.324 411.757 318.77 410.102C312.217 408.446 309.897 403.657 310.46 401.867C310.46 401.867 312.555 399.585 313.591 400.905Z" fill="url(#paint97_linear_10_207062)"/>
<path d="M313.591 400.905C314.807 402.427 319.041 405.761 325.594 405.94C326.855 405.738 327.554 408.155 328.274 409.363C328.274 409.363 325.324 411.757 318.77 410.102C312.217 408.446 309.897 403.657 310.46 401.867C310.46 401.867 312.555 399.585 313.591 400.905Z" fill="url(#paint98_linear_10_207062)"/>
<path d="M355.792 449.033C348.901 450.756 347.279 446.438 346.379 442.858C344.194 434.198 343 426.367 341.379 421.466C339.465 415.671 337.438 414.754 334.6 413.613C331.267 412.292 328.407 415.089 329.51 422.451C330.817 431.177 332.551 437.308 335.839 447.646C336.695 450.353 338.631 455.142 341.491 457.447C345.05 460.311 350.41 460.176 358.517 458.185C361.986 457.335 365.769 455.276 372.3 452.255C374.057 451.45 375.431 450.89 378.786 449.347C382.164 447.78 385.655 445.185 387.434 442.634C389.213 440.083 389.439 438.897 389.078 438.315C388.628 437.577 387.817 437.756 386.894 438.808C385.948 439.882 384.574 441.806 381.939 443.372C381.939 443.372 384.124 441.135 385.295 439.68C386.466 438.226 387.389 436.637 387.907 435.451C388.538 433.974 387.254 431.961 386.263 433.012C385.272 434.064 384.822 435.138 383.043 437.264C381.421 439.188 379.845 440.284 379.845 440.284C379.845 440.284 381.646 437.868 382.795 435.585C383.921 433.281 383.921 432.117 383.876 431.334C383.831 430.551 382.727 429.634 381.691 431.11C380.768 432.43 380.16 434.489 377.998 436.727C376.421 438.36 375.093 439.277 375.048 438.83C375.003 438.382 375.994 437.487 376.557 435.608C377.097 433.795 376.534 431.714 375.498 431.491C374.462 431.267 374.642 431.334 373.809 433.102C372.976 434.869 371.67 436.19 370.679 438.763C369.8 441.045 369.417 441.963 367.841 443.618C366.084 445.408 362.346 447.4 355.792 449.033Z" fill="#FFDE83"/>
<path d="M332.012 412.425C336.606 411.753 339.872 413.812 341.899 420.749C343.926 427.685 345.344 433.368 345.344 433.368C345.344 433.368 343.137 437.128 337.642 438.47C332.125 439.79 330.143 437.172 330.143 437.172C330.143 437.172 328.611 429.9 327.665 424.955C326.72 420.01 326.314 413.253 332.012 412.425Z" fill="url(#paint99_linear_10_207062)"/>
</g>
</g>
<defs>
<linearGradient id="paint0_linear_10_207062" x1="367.459" y1="405.892" x2="-78.7411" y2="34.6835" gradientUnits="userSpaceOnUse">
<stop offset="0.065817" stop-color="#FFBD0C"/>
<stop offset="1" stop-color="#FFC30C" stop-opacity="0"/>
</linearGradient>
<linearGradient id="paint1_linear_10_207062" x1="145.313" y1="152.972" x2="35.1597" y2="241.303" gradientUnits="userSpaceOnUse">
<stop offset="0.09375" stop-color="#E73E4A"/>
<stop offset="0.7425" stop-color="#F27D2D"/>
<stop offset="0.9583" stop-color="#FFC40C"/>
</linearGradient>
<linearGradient id="paint2_linear_10_207062" x1="360.844" y1="415.996" x2="245.595" y2="323.58" gradientUnits="userSpaceOnUse">
<stop offset="0.09375" stop-color="#E73E4A"/>
<stop offset="0.7425" stop-color="#F27D2D"/>
<stop offset="0.9583" stop-color="#FFC40C"/>
</linearGradient>
<linearGradient id="paint3_linear_10_207062" x1="-57.2854" y1="3.60027" x2="337.776" y2="266.236" gradientUnits="userSpaceOnUse">
<stop offset="0.09375" stop-color="#E73E4A"/>
<stop offset="0.6979" stop-color="#F27D2D"/>
<stop offset="0.9583" stop-color="#FFC40C"/>
</linearGradient>
<linearGradient id="paint4_linear_10_207062" x1="269.914" y1="-10.5134" x2="355.989" y2="159.429" gradientUnits="userSpaceOnUse">
<stop offset="0.5526" stop-color="#E73E4A"/>
<stop offset="0.8904" stop-color="#F27D2D"/>
<stop offset="0.9583" stop-color="#FFC40C"/>
<stop offset="1" stop-color="#FFDE83"/>
</linearGradient>
<linearGradient id="paint5_linear_10_207062" x1="357.923" y1="512.569" x2="502.024" y2="175.13" gradientUnits="userSpaceOnUse">
<stop offset="0.09375" stop-color="#E73E4A"/>
<stop offset="0.6979" stop-color="#F27D2D"/>
<stop offset="0.9583" stop-color="#FFC40C"/>
</linearGradient>
<linearGradient id="paint6_linear_10_207062" x1="617.942" y1="484.424" x2="500.014" y2="535.109" gradientUnits="userSpaceOnUse">
<stop offset="0.09375" stop-color="#E73E4A"/>
<stop offset="0.6979" stop-color="#F27D2D"/>
<stop offset="0.9583" stop-color="#FFC40C"/>
</linearGradient>
<linearGradient id="paint7_linear_10_207062" x1="215.152" y1="263.288" x2="171.771" y2="269.863" gradientUnits="userSpaceOnUse">
<stop offset="0.09375" stop-color="#E73E4A"/>
<stop offset="0.6979" stop-color="#F27D2D"/>
<stop offset="0.9583" stop-color="#FFC40C"/>
</linearGradient>
<linearGradient id="paint8_linear_10_207062" x1="745.851" y1="1080.51" x2="551.629" y2="241.837" gradientUnits="userSpaceOnUse">
<stop offset="0.5526" stop-color="#E73E4A"/>
<stop offset="0.7233" stop-color="#F27D2D"/>
<stop offset="0.9583" stop-color="#FFC40C"/>
<stop offset="1" stop-color="#FFDE83"/>
</linearGradient>
<linearGradient id="paint9_linear_10_207062" x1="-282.436" y1="-160.873" x2="860.81" y2="744.011" gradientUnits="userSpaceOnUse">
<stop offset="0.09375" stop-color="#E73E4A"/>
<stop offset="0.4895" stop-color="#F27D2D"/>
<stop offset="0.9583" stop-color="#FFC40C"/>
</linearGradient>
<linearGradient id="paint10_linear_10_207062" x1="529.684" y1="352.693" x2="442.66" y2="411.546" gradientUnits="userSpaceOnUse">
<stop offset="0.09375" stop-color="#E73E4A"/>
<stop offset="0.6979" stop-color="#F27D2D"/>
<stop offset="0.9583" stop-color="#FFC40C"/>
</linearGradient>
<linearGradient id="paint11_linear_10_207062" x1="30.6089" y1="78.6207" x2="591.203" y2="683.351" gradientUnits="userSpaceOnUse">
<stop offset="0.207" stop-color="#E73E4A"/>
<stop offset="0.7425" stop-color="#F27D2D"/>
<stop offset="0.9583" stop-color="#FFC40C"/>
</linearGradient>
<linearGradient id="paint12_linear_10_207062" x1="311.043" y1="386.459" x2="284.406" y2="391.321" gradientUnits="userSpaceOnUse">
<stop offset="0.145833" stop-color="#099EDE"/>
<stop offset="1" stop-color="#45D6D9"/>
</linearGradient>
<linearGradient id="paint13_linear_10_207062" x1="303.293" y1="400.813" x2="284.399" y2="413.822" gradientUnits="userSpaceOnUse">
<stop stop-color="#E73E4A"/>
<stop offset="1" stop-color="#FFC40C"/>
</linearGradient>
<linearGradient id="paint14_linear_10_207062" x1="360.673" y1="512.121" x2="289.09" y2="530.533" gradientUnits="userSpaceOnUse">
<stop offset="0.09375" stop-color="#E73E4A"/>
<stop offset="0.697917" stop-color="#F27D2D"/>
<stop offset="0.958333" stop-color="#FFC40C"/>
</linearGradient>
<linearGradient id="paint15_linear_10_207062" x1="439.099" y1="542.42" x2="319.944" y2="587.897" gradientUnits="userSpaceOnUse">
<stop stop-color="#E73E4A"/>
<stop offset="0.697917" stop-color="#F27D2D"/>
<stop offset="0.958333" stop-color="#FFC40C"/>
</linearGradient>
<linearGradient id="paint16_linear_10_207062" x1="300.641" y1="415.651" x2="343.08" y2="471.854" gradientUnits="userSpaceOnUse">
<stop stop-color="#E73E4A"/>
<stop offset="1" stop-color="#FFC40C"/>
</linearGradient>
<linearGradient id="paint17_linear_10_207062" x1="335.779" y1="394.783" x2="309.074" y2="411.119" gradientUnits="userSpaceOnUse">
<stop offset="0.145833" stop-color="#099EDE"/>
<stop offset="1" stop-color="#45D6D9"/>
</linearGradient>
<linearGradient id="paint18_linear_10_207062" x1="325.445" y1="400.494" x2="319.573" y2="414.043" gradientUnits="userSpaceOnUse">
<stop stop-color="#E73E4A"/>
<stop offset="1" stop-color="#FFC40C"/>
</linearGradient>
<linearGradient id="paint19_linear_10_207062" x1="360.321" y1="401.103" x2="328.821" y2="439.043" gradientUnits="userSpaceOnUse">
<stop stop-color="#E73E4A"/>
<stop offset="1" stop-color="#FFC40C"/>
</linearGradient>
<linearGradient id="paint20_linear_10_207062" x1="367.459" y1="405.892" x2="-78.7411" y2="34.6835" gradientUnits="userSpaceOnUse">
<stop offset="0.065817" stop-color="#FFBD0C"/>
<stop offset="1" stop-color="#FFC30C" stop-opacity="0"/>
</linearGradient>
<linearGradient id="paint21_linear_10_207062" x1="145.313" y1="152.972" x2="35.1597" y2="241.303" gradientUnits="userSpaceOnUse">
<stop offset="0.09375" stop-color="#E73E4A"/>
<stop offset="0.7425" stop-color="#F27D2D"/>
<stop offset="0.9583" stop-color="#FFC40C"/>
</linearGradient>
<linearGradient id="paint22_linear_10_207062" x1="360.844" y1="415.996" x2="245.595" y2="323.58" gradientUnits="userSpaceOnUse">
<stop offset="0.09375" stop-color="#E73E4A"/>
<stop offset="0.7425" stop-color="#F27D2D"/>
<stop offset="0.9583" stop-color="#FFC40C"/>
</linearGradient>
<linearGradient id="paint23_linear_10_207062" x1="-57.2854" y1="3.60027" x2="337.776" y2="266.236" gradientUnits="userSpaceOnUse">
<stop offset="0.09375" stop-color="#E73E4A"/>
<stop offset="0.6979" stop-color="#F27D2D"/>
<stop offset="0.9583" stop-color="#FFC40C"/>
</linearGradient>
<linearGradient id="paint24_linear_10_207062" x1="269.914" y1="-10.5134" x2="355.989" y2="159.429" gradientUnits="userSpaceOnUse">
<stop offset="0.5526" stop-color="#E73E4A"/>
<stop offset="0.8904" stop-color="#F27D2D"/>
<stop offset="0.9583" stop-color="#FFC40C"/>
<stop offset="1" stop-color="#FFDE83"/>
</linearGradient>
<linearGradient id="paint25_linear_10_207062" x1="357.923" y1="512.569" x2="502.024" y2="175.13" gradientUnits="userSpaceOnUse">
<stop offset="0.09375" stop-color="#E73E4A"/>
<stop offset="0.6979" stop-color="#F27D2D"/>
<stop offset="0.9583" stop-color="#FFC40C"/>
</linearGradient>
<linearGradient id="paint26_linear_10_207062" x1="617.942" y1="484.424" x2="500.014" y2="535.109" gradientUnits="userSpaceOnUse">
<stop offset="0.09375" stop-color="#E73E4A"/>
<stop offset="0.6979" stop-color="#F27D2D"/>
<stop offset="0.9583" stop-color="#FFC40C"/>
</linearGradient>
<linearGradient id="paint27_linear_10_207062" x1="215.152" y1="263.288" x2="171.771" y2="269.863" gradientUnits="userSpaceOnUse">
<stop offset="0.09375" stop-color="#E73E4A"/>
<stop offset="0.6979" stop-color="#F27D2D"/>
<stop offset="0.9583" stop-color="#FFC40C"/>
</linearGradient>
<linearGradient id="paint28_linear_10_207062" x1="745.851" y1="1080.51" x2="551.629" y2="241.837" gradientUnits="userSpaceOnUse">
<stop offset="0.5526" stop-color="#E73E4A"/>
<stop offset="0.7233" stop-color="#F27D2D"/>
<stop offset="0.9583" stop-color="#FFC40C"/>
<stop offset="1" stop-color="#FFDE83"/>
</linearGradient>
<linearGradient id="paint29_linear_10_207062" x1="-282.436" y1="-160.873" x2="860.81" y2="744.011" gradientUnits="userSpaceOnUse">
<stop offset="0.09375" stop-color="#E73E4A"/>
<stop offset="0.4895" stop-color="#F27D2D"/>
<stop offset="0.9583" stop-color="#FFC40C"/>
</linearGradient>
<linearGradient id="paint30_linear_10_207062" x1="529.684" y1="352.693" x2="442.66" y2="411.546" gradientUnits="userSpaceOnUse">
<stop offset="0.09375" stop-color="#E73E4A"/>
<stop offset="0.6979" stop-color="#F27D2D"/>
<stop offset="0.9583" stop-color="#FFC40C"/>
</linearGradient>
<linearGradient id="paint31_linear_10_207062" x1="30.6089" y1="78.6207" x2="591.203" y2="683.351" gradientUnits="userSpaceOnUse">
<stop offset="0.207" stop-color="#E73E4A"/>
<stop offset="0.7425" stop-color="#F27D2D"/>
<stop offset="0.9583" stop-color="#FFC40C"/>
</linearGradient>
<linearGradient id="paint32_linear_10_207062" x1="311.043" y1="386.459" x2="284.406" y2="391.321" gradientUnits="userSpaceOnUse">
<stop offset="0.145833" stop-color="#099EDE"/>
<stop offset="1" stop-color="#45D6D9"/>
</linearGradient>
<linearGradient id="paint33_linear_10_207062" x1="303.293" y1="400.813" x2="284.399" y2="413.822" gradientUnits="userSpaceOnUse">
<stop stop-color="#E73E4A"/>
<stop offset="1" stop-color="#FFC40C"/>
</linearGradient>
<linearGradient id="paint34_linear_10_207062" x1="360.673" y1="512.121" x2="289.09" y2="530.533" gradientUnits="userSpaceOnUse">
<stop offset="0.09375" stop-color="#E73E4A"/>
<stop offset="0.697917" stop-color="#F27D2D"/>
<stop offset="0.958333" stop-color="#FFC40C"/>
</linearGradient>
<linearGradient id="paint35_linear_10_207062" x1="439.099" y1="542.42" x2="319.944" y2="587.897" gradientUnits="userSpaceOnUse">
<stop stop-color="#E73E4A"/>
<stop offset="0.697917" stop-color="#F27D2D"/>
<stop offset="0.958333" stop-color="#FFC40C"/>
</linearGradient>
<linearGradient id="paint36_linear_10_207062" x1="300.641" y1="415.651" x2="343.08" y2="471.854" gradientUnits="userSpaceOnUse">
<stop stop-color="#E73E4A"/>
<stop offset="1" stop-color="#FFC40C"/>
</linearGradient>
<linearGradient id="paint37_linear_10_207062" x1="335.779" y1="394.783" x2="309.074" y2="411.119" gradientUnits="userSpaceOnUse">
<stop offset="0.145833" stop-color="#099EDE"/>
<stop offset="1" stop-color="#45D6D9"/>
</linearGradient>
<linearGradient id="paint38_linear_10_207062" x1="325.445" y1="400.494" x2="319.573" y2="414.043" gradientUnits="userSpaceOnUse">
<stop stop-color="#E73E4A"/>
<stop offset="1" stop-color="#FFC40C"/>
</linearGradient>
<linearGradient id="paint39_linear_10_207062" x1="360.321" y1="401.103" x2="328.821" y2="439.043" gradientUnits="userSpaceOnUse">
<stop stop-color="#E73E4A"/>
<stop offset="1" stop-color="#FFC40C"/>
</linearGradient>
<linearGradient id="paint40_linear_10_207062" x1="367.459" y1="405.892" x2="-78.7411" y2="34.6835" gradientUnits="userSpaceOnUse">
<stop offset="0.065817" stop-color="#FFBD0C"/>
<stop offset="1" stop-color="#FFC30C" stop-opacity="0"/>
</linearGradient>
<linearGradient id="paint41_linear_10_207062" x1="145.313" y1="152.972" x2="35.1597" y2="241.303" gradientUnits="userSpaceOnUse">
<stop offset="0.09375" stop-color="#E73E4A"/>
<stop offset="0.7425" stop-color="#F27D2D"/>
<stop offset="0.9583" stop-color="#FFC40C"/>
</linearGradient>
<linearGradient id="paint42_linear_10_207062" x1="360.844" y1="415.996" x2="245.595" y2="323.58" gradientUnits="userSpaceOnUse">
<stop offset="0.09375" stop-color="#E73E4A"/>
<stop offset="0.7425" stop-color="#F27D2D"/>
<stop offset="0.9583" stop-color="#FFC40C"/>
</linearGradient>
<linearGradient id="paint43_linear_10_207062" x1="-57.2854" y1="3.60027" x2="337.776" y2="266.236" gradientUnits="userSpaceOnUse">
<stop offset="0.09375" stop-color="#E73E4A"/>
<stop offset="0.6979" stop-color="#F27D2D"/>
<stop offset="0.9583" stop-color="#FFC40C"/>
</linearGradient>
<linearGradient id="paint44_linear_10_207062" x1="269.914" y1="-10.5134" x2="355.989" y2="159.429" gradientUnits="userSpaceOnUse">
<stop offset="0.5526" stop-color="#E73E4A"/>
<stop offset="0.8904" stop-color="#F27D2D"/>
<stop offset="0.9583" stop-color="#FFC40C"/>
<stop offset="1" stop-color="#FFDE83"/>
</linearGradient>
<linearGradient id="paint45_linear_10_207062" x1="357.923" y1="512.569" x2="502.024" y2="175.13" gradientUnits="userSpaceOnUse">
<stop offset="0.09375" stop-color="#E73E4A"/>
<stop offset="0.6979" stop-color="#F27D2D"/>
<stop offset="0.9583" stop-color="#FFC40C"/>
</linearGradient>
<linearGradient id="paint46_linear_10_207062" x1="617.942" y1="484.424" x2="500.014" y2="535.109" gradientUnits="userSpaceOnUse">
<stop offset="0.09375" stop-color="#E73E4A"/>
<stop offset="0.6979" stop-color="#F27D2D"/>
<stop offset="0.9583" stop-color="#FFC40C"/>
</linearGradient>
<linearGradient id="paint47_linear_10_207062" x1="215.152" y1="263.288" x2="171.771" y2="269.863" gradientUnits="userSpaceOnUse">
<stop offset="0.09375" stop-color="#E73E4A"/>
<stop offset="0.6979" stop-color="#F27D2D"/>
<stop offset="0.9583" stop-color="#FFC40C"/>
</linearGradient>
<linearGradient id="paint48_linear_10_207062" x1="745.851" y1="1080.51" x2="551.629" y2="241.837" gradientUnits="userSpaceOnUse">
<stop offset="0.5526" stop-color="#E73E4A"/>
<stop offset="0.7233" stop-color="#F27D2D"/>
<stop offset="0.9583" stop-color="#FFC40C"/>
<stop offset="1" stop-color="#FFDE83"/>
</linearGradient>
<linearGradient id="paint49_linear_10_207062" x1="-282.436" y1="-160.873" x2="860.81" y2="744.011" gradientUnits="userSpaceOnUse">
<stop offset="0.09375" stop-color="#E73E4A"/>
<stop offset="0.4895" stop-color="#F27D2D"/>
<stop offset="0.9583" stop-color="#FFC40C"/>
</linearGradient>
<linearGradient id="paint50_linear_10_207062" x1="529.684" y1="352.693" x2="442.66" y2="411.546" gradientUnits="userSpaceOnUse">
<stop offset="0.09375" stop-color="#E73E4A"/>
<stop offset="0.6979" stop-color="#F27D2D"/>
<stop offset="0.9583" stop-color="#FFC40C"/>
</linearGradient>
<linearGradient id="paint51_linear_10_207062" x1="30.6089" y1="78.6207" x2="591.203" y2="683.351" gradientUnits="userSpaceOnUse">
<stop offset="0.207" stop-color="#E73E4A"/>
<stop offset="0.7425" stop-color="#F27D2D"/>
<stop offset="0.9583" stop-color="#FFC40C"/>
</linearGradient>
<linearGradient id="paint52_linear_10_207062" x1="311.043" y1="386.459" x2="284.406" y2="391.321" gradientUnits="userSpaceOnUse">
<stop offset="0.145833" stop-color="#099EDE"/>
<stop offset="1" stop-color="#45D6D9"/>
</linearGradient>
<linearGradient id="paint53_linear_10_207062" x1="303.293" y1="400.813" x2="284.399" y2="413.822" gradientUnits="userSpaceOnUse">
<stop stop-color="#E73E4A"/>
<stop offset="1" stop-color="#FFC40C"/>
</linearGradient>
<linearGradient id="paint54_linear_10_207062" x1="360.673" y1="512.121" x2="289.09" y2="530.533" gradientUnits="userSpaceOnUse">
<stop offset="0.09375" stop-color="#E73E4A"/>
<stop offset="0.697917" stop-color="#F27D2D"/>
<stop offset="0.958333" stop-color="#FFC40C"/>
</linearGradient>
<linearGradient id="paint55_linear_10_207062" x1="439.099" y1="542.42" x2="319.944" y2="587.897" gradientUnits="userSpaceOnUse">
<stop stop-color="#E73E4A"/>
<stop offset="0.697917" stop-color="#F27D2D"/>
<stop offset="0.958333" stop-color="#FFC40C"/>
</linearGradient>
<linearGradient id="paint56_linear_10_207062" x1="300.641" y1="415.651" x2="343.08" y2="471.854" gradientUnits="userSpaceOnUse">
<stop stop-color="#E73E4A"/>
<stop offset="1" stop-color="#FFC40C"/>
</linearGradient>
<linearGradient id="paint57_linear_10_207062" x1="335.779" y1="394.783" x2="309.074" y2="411.119" gradientUnits="userSpaceOnUse">
<stop offset="0.145833" stop-color="#099EDE"/>
<stop offset="1" stop-color="#45D6D9"/>
</linearGradient>
<linearGradient id="paint58_linear_10_207062" x1="325.445" y1="400.494" x2="319.573" y2="414.043" gradientUnits="userSpaceOnUse">
<stop stop-color="#E73E4A"/>
<stop offset="1" stop-color="#FFC40C"/>
</linearGradient>
<linearGradient id="paint59_linear_10_207062" x1="360.321" y1="401.103" x2="328.821" y2="439.043" gradientUnits="userSpaceOnUse">
<stop stop-color="#E73E4A"/>
<stop offset="1" stop-color="#FFC40C"/>
</linearGradient>
<linearGradient id="paint60_linear_10_207062" x1="367.459" y1="405.892" x2="-78.7411" y2="34.6835" gradientUnits="userSpaceOnUse">
<stop offset="0.065817" stop-color="#FFBD0C"/>
<stop offset="1" stop-color="#FFC30C" stop-opacity="0"/>
</linearGradient>
<linearGradient id="paint61_linear_10_207062" x1="145.313" y1="152.972" x2="35.1597" y2="241.303" gradientUnits="userSpaceOnUse">
<stop offset="0.09375" stop-color="#E73E4A"/>
<stop offset="0.7425" stop-color="#F27D2D"/>
<stop offset="0.9583" stop-color="#FFC40C"/>
</linearGradient>
<linearGradient id="paint62_linear_10_207062" x1="360.844" y1="415.996" x2="245.595" y2="323.58" gradientUnits="userSpaceOnUse">
<stop offset="0.09375" stop-color="#E73E4A"/>
<stop offset="0.7425" stop-color="#F27D2D"/>
<stop offset="0.9583" stop-color="#FFC40C"/>
</linearGradient>
<linearGradient id="paint63_linear_10_207062" x1="-57.2854" y1="3.60027" x2="337.776" y2="266.236" gradientUnits="userSpaceOnUse">
<stop offset="0.09375" stop-color="#E73E4A"/>
<stop offset="0.6979" stop-color="#F27D2D"/>
<stop offset="0.9583" stop-color="#FFC40C"/>
</linearGradient>
<linearGradient id="paint64_linear_10_207062" x1="269.914" y1="-10.5134" x2="355.989" y2="159.429" gradientUnits="userSpaceOnUse">
<stop offset="0.5526" stop-color="#E73E4A"/>
<stop offset="0.8904" stop-color="#F27D2D"/>
<stop offset="0.9583" stop-color="#FFC40C"/>
<stop offset="1" stop-color="#FFDE83"/>
</linearGradient>
<linearGradient id="paint65_linear_10_207062" x1="357.923" y1="512.569" x2="502.024" y2="175.13" gradientUnits="userSpaceOnUse">
<stop offset="0.09375" stop-color="#E73E4A"/>
<stop offset="0.6979" stop-color="#F27D2D"/>
<stop offset="0.9583" stop-color="#FFC40C"/>
</linearGradient>
<linearGradient id="paint66_linear_10_207062" x1="617.942" y1="484.424" x2="500.014" y2="535.109" gradientUnits="userSpaceOnUse">
<stop offset="0.09375" stop-color="#E73E4A"/>
<stop offset="0.6979" stop-color="#F27D2D"/>
<stop offset="0.9583" stop-color="#FFC40C"/>
</linearGradient>
<linearGradient id="paint67_linear_10_207062" x1="215.152" y1="263.288" x2="171.771" y2="269.863" gradientUnits="userSpaceOnUse">
<stop offset="0.09375" stop-color="#E73E4A"/>
<stop offset="0.6979" stop-color="#F27D2D"/>
<stop offset="0.9583" stop-color="#FFC40C"/>
</linearGradient>
<linearGradient id="paint68_linear_10_207062" x1="745.851" y1="1080.51" x2="551.629" y2="241.837" gradientUnits="userSpaceOnUse">
<stop offset="0.5526" stop-color="#E73E4A"/>
<stop offset="0.7233" stop-color="#F27D2D"/>
<stop offset="0.9583" stop-color="#FFC40C"/>
<stop offset="1" stop-color="#FFDE83"/>
</linearGradient>
<linearGradient id="paint69_linear_10_207062" x1="-282.436" y1="-160.873" x2="860.81" y2="744.011" gradientUnits="userSpaceOnUse">
<stop offset="0.09375" stop-color="#E73E4A"/>
<stop offset="0.4895" stop-color="#F27D2D"/>
<stop offset="0.9583" stop-color="#FFC40C"/>
</linearGradient>
<linearGradient id="paint70_linear_10_207062" x1="529.684" y1="352.693" x2="442.66" y2="411.546" gradientUnits="userSpaceOnUse">
<stop offset="0.09375" stop-color="#E73E4A"/>
<stop offset="0.6979" stop-color="#F27D2D"/>
<stop offset="0.9583" stop-color="#FFC40C"/>
</linearGradient>
<linearGradient id="paint71_linear_10_207062" x1="30.6089" y1="78.6207" x2="591.203" y2="683.351" gradientUnits="userSpaceOnUse">
<stop offset="0.207" stop-color="#E73E4A"/>
<stop offset="0.7425" stop-color="#F27D2D"/>
<stop offset="0.9583" stop-color="#FFC40C"/>
</linearGradient>
<linearGradient id="paint72_linear_10_207062" x1="311.043" y1="386.459" x2="284.406" y2="391.321" gradientUnits="userSpaceOnUse">
<stop offset="0.145833" stop-color="#099EDE"/>
<stop offset="1" stop-color="#45D6D9"/>
</linearGradient>
<linearGradient id="paint73_linear_10_207062" x1="303.293" y1="400.813" x2="284.399" y2="413.822" gradientUnits="userSpaceOnUse">
<stop stop-color="#E73E4A"/>
<stop offset="1" stop-color="#FFC40C"/>
</linearGradient>
<linearGradient id="paint74_linear_10_207062" x1="360.673" y1="512.121" x2="289.09" y2="530.533" gradientUnits="userSpaceOnUse">
<stop offset="0.09375" stop-color="#E73E4A"/>
<stop offset="0.697917" stop-color="#F27D2D"/>
<stop offset="0.958333" stop-color="#FFC40C"/>
</linearGradient>
<linearGradient id="paint75_linear_10_207062" x1="439.099" y1="542.42" x2="319.944" y2="587.897" gradientUnits="userSpaceOnUse">
<stop stop-color="#E73E4A"/>
<stop offset="0.697917" stop-color="#F27D2D"/>
<stop offset="0.958333" stop-color="#FFC40C"/>
</linearGradient>
<linearGradient id="paint76_linear_10_207062" x1="300.641" y1="415.651" x2="343.08" y2="471.854" gradientUnits="userSpaceOnUse">
<stop stop-color="#E73E4A"/>
<stop offset="1" stop-color="#FFC40C"/>
</linearGradient>
<linearGradient id="paint77_linear_10_207062" x1="335.779" y1="394.783" x2="309.074" y2="411.119" gradientUnits="userSpaceOnUse">
<stop offset="0.145833" stop-color="#099EDE"/>
<stop offset="1" stop-color="#45D6D9"/>
</linearGradient>
<linearGradient id="paint78_linear_10_207062" x1="325.445" y1="400.494" x2="319.573" y2="414.043" gradientUnits="userSpaceOnUse">
<stop stop-color="#E73E4A"/>
<stop offset="1" stop-color="#FFC40C"/>
</linearGradient>
<linearGradient id="paint79_linear_10_207062" x1="360.321" y1="401.103" x2="328.821" y2="439.043" gradientUnits="userSpaceOnUse">
<stop stop-color="#E73E4A"/>
<stop offset="1" stop-color="#FFC40C"/>
</linearGradient>
<linearGradient id="paint80_linear_10_207062" x1="367.459" y1="405.892" x2="-78.7411" y2="34.6835" gradientUnits="userSpaceOnUse">
<stop offset="0.065817" stop-color="#FFBD0C"/>
<stop offset="1" stop-color="#FFC30C" stop-opacity="0"/>
</linearGradient>
<linearGradient id="paint81_linear_10_207062" x1="145.313" y1="152.972" x2="35.1597" y2="241.303" gradientUnits="userSpaceOnUse">
<stop offset="0.09375" stop-color="#E73E4A"/>
<stop offset="0.7425" stop-color="#F27D2D"/>
<stop offset="0.9583" stop-color="#FFC40C"/>
</linearGradient>
<linearGradient id="paint82_linear_10_207062" x1="360.844" y1="415.996" x2="245.595" y2="323.58" gradientUnits="userSpaceOnUse">
<stop offset="0.09375" stop-color="#E73E4A"/>
<stop offset="0.7425" stop-color="#F27D2D"/>
<stop offset="0.9583" stop-color="#FFC40C"/>
</linearGradient>
<linearGradient id="paint83_linear_10_207062" x1="-57.2854" y1="3.60027" x2="337.776" y2="266.236" gradientUnits="userSpaceOnUse">
<stop offset="0.09375" stop-color="#E73E4A"/>
<stop offset="0.6979" stop-color="#F27D2D"/>
<stop offset="0.9583" stop-color="#FFC40C"/>
</linearGradient>
<linearGradient id="paint84_linear_10_207062" x1="269.914" y1="-10.5134" x2="355.989" y2="159.429" gradientUnits="userSpaceOnUse">
<stop offset="0.5526" stop-color="#E73E4A"/>
<stop offset="0.8904" stop-color="#F27D2D"/>
<stop offset="0.9583" stop-color="#FFC40C"/>
<stop offset="1" stop-color="#FFDE83"/>
</linearGradient>
<linearGradient id="paint85_linear_10_207062" x1="357.923" y1="512.569" x2="502.024" y2="175.13" gradientUnits="userSpaceOnUse">
<stop offset="0.09375" stop-color="#E73E4A"/>
<stop offset="0.6979" stop-color="#F27D2D"/>
<stop offset="0.9583" stop-color="#FFC40C"/>
</linearGradient>
<linearGradient id="paint86_linear_10_207062" x1="617.942" y1="484.424" x2="500.014" y2="535.109" gradientUnits="userSpaceOnUse">
<stop offset="0.09375" stop-color="#E73E4A"/>
<stop offset="0.6979" stop-color="#F27D2D"/>
<stop offset="0.9583" stop-color="#FFC40C"/>
</linearGradient>
<linearGradient id="paint87_linear_10_207062" x1="215.152" y1="263.288" x2="171.771" y2="269.863" gradientUnits="userSpaceOnUse">
<stop offset="0.09375" stop-color="#E73E4A"/>
<stop offset="0.6979" stop-color="#F27D2D"/>
<stop offset="0.9583" stop-color="#FFC40C"/>
</linearGradient>
<linearGradient id="paint88_linear_10_207062" x1="745.851" y1="1080.51" x2="551.629" y2="241.837" gradientUnits="userSpaceOnUse">
<stop offset="0.5526" stop-color="#E73E4A"/>
<stop offset="0.7233" stop-color="#F27D2D"/>
<stop offset="0.9583" stop-color="#FFC40C"/>
<stop offset="1" stop-color="#FFDE83"/>
</linearGradient>
<linearGradient id="paint89_linear_10_207062" x1="-282.436" y1="-160.873" x2="860.81" y2="744.011" gradientUnits="userSpaceOnUse">
<stop offset="0.09375" stop-color="#E73E4A"/>
<stop offset="0.4895" stop-color="#F27D2D"/>
<stop offset="0.9583" stop-color="#FFC40C"/>
</linearGradient>
<linearGradient id="paint90_linear_10_207062" x1="529.684" y1="352.693" x2="442.66" y2="411.546" gradientUnits="userSpaceOnUse">
<stop offset="0.09375" stop-color="#E73E4A"/>
<stop offset="0.6979" stop-color="#F27D2D"/>
<stop offset="0.9583" stop-color="#FFC40C"/>
</linearGradient>
<linearGradient id="paint91_linear_10_207062" x1="30.6089" y1="78.6207" x2="591.203" y2="683.351" gradientUnits="userSpaceOnUse">
<stop offset="0.207" stop-color="#E73E4A"/>
<stop offset="0.7425" stop-color="#F27D2D"/>
<stop offset="0.9583" stop-color="#FFC40C"/>
</linearGradient>
<linearGradient id="paint92_linear_10_207062" x1="311.043" y1="386.459" x2="284.406" y2="391.321" gradientUnits="userSpaceOnUse">
<stop offset="0.145833" stop-color="#099EDE"/>
<stop offset="1" stop-color="#45D6D9"/>
</linearGradient>
<linearGradient id="paint93_linear_10_207062" x1="303.293" y1="400.813" x2="284.399" y2="413.822" gradientUnits="userSpaceOnUse">
<stop stop-color="#E73E4A"/>
<stop offset="1" stop-color="#FFC40C"/>
</linearGradient>
<linearGradient id="paint94_linear_10_207062" x1="360.673" y1="512.121" x2="289.09" y2="530.533" gradientUnits="userSpaceOnUse">
<stop offset="0.09375" stop-color="#E73E4A"/>
<stop offset="0.697917" stop-color="#F27D2D"/>
<stop offset="0.958333" stop-color="#FFC40C"/>
</linearGradient>
<linearGradient id="paint95_linear_10_207062" x1="439.099" y1="542.42" x2="319.944" y2="587.897" gradientUnits="userSpaceOnUse">
<stop stop-color="#E73E4A"/>
<stop offset="0.697917" stop-color="#F27D2D"/>
<stop offset="0.958333" stop-color="#FFC40C"/>
</linearGradient>
<linearGradient id="paint96_linear_10_207062" x1="300.641" y1="415.651" x2="343.08" y2="471.854" gradientUnits="userSpaceOnUse">
<stop stop-color="#E73E4A"/>
<stop offset="1" stop-color="#FFC40C"/>
</linearGradient>
<linearGradient id="paint97_linear_10_207062" x1="335.779" y1="394.783" x2="309.074" y2="411.119" gradientUnits="userSpaceOnUse">
<stop offset="0.145833" stop-color="#099EDE"/>
<stop offset="1" stop-color="#45D6D9"/>
</linearGradient>
<linearGradient id="paint98_linear_10_207062" x1="325.445" y1="400.494" x2="319.573" y2="414.043" gradientUnits="userSpaceOnUse">
<stop stop-color="#E73E4A"/>
<stop offset="1" stop-color="#FFC40C"/>
</linearGradient>
<linearGradient id="paint99_linear_10_207062" x1="360.321" y1="401.103" x2="328.821" y2="439.043" gradientUnits="userSpaceOnUse">
<stop stop-color="#E73E4A"/>
<stop offset="1" stop-color="#FFC40C"/>
</linearGradient>
<clipPath id="clip0_10_207062">
<rect width="99.8127" height="233.49" fill="white" transform="translate(289.379 364.186)"/>
</clipPath>
<clipPath id="clip1_10_207062">
<rect width="99.8127" height="233.49" fill="white" transform="translate(289.379 364.186)"/>
</clipPath>
<clipPath id="clip2_10_207062">
<rect width="99.8127" height="233.49" fill="white" transform="translate(289.379 364.186)"/>
</clipPath>
<clipPath id="clip3_10_207062">
<rect width="99.8127" height="233.49" fill="white" transform="translate(289.379 364.186)"/>
</clipPath>
<clipPath id="clip4_10_207062">
<rect width="99.8127" height="233.49" fill="white" transform="translate(289.379 364.186)"/>
</clipPath>
</defs>
</svg>
