<svg width="735" height="625" viewBox="0 0 735 625" fill="none" xmlns="http://www.w3.org/2000/svg">
<mask id="mask0_10_207062" style="mask-type:alpha" maskUnits="userSpaceOnUse" x="0" y="0" width="735" height="625">
<rect width="734.917" height="624.304" fill="url(#paint0_linear_10_207062)"/>
</mask>
<g mask="url(#mask0_10_207062)">
<path d="M134.213 120.049C134.213 120.049 128.434 173.986 170.369 205.992L127.841 224.515C127.841 224.515 151.995 304.383 157.774 315.644C163.553 326.906 49.9004 271.783 43.9732 205.992C38.0461 140.201 5.44668 49.6652 58.4944 63.5939C111.542 77.5226 134.213 120.049 134.213 120.049Z" fill="url(#paint1_linear_10_207062)"/>
<path d="M243.422 353.732L307.732 315.65L337.218 332.691C336.329 333.135 333.366 334.618 328.624 337.285C326.698 357.586 317.511 377.292 318.845 378.626C320.179 379.96 337.812 390.48 346.999 395.666C356.186 400.853 365.372 406.78 367.298 408.855C368.928 410.485 371.003 419.524 371.892 423.969L324.031 450.938C318.845 433.601 308.175 398.483 307.583 395.816C306.99 393.148 304.767 391.222 303.582 390.629C302.989 390.185 298.099 387.221 283.874 378.775C269.945 370.329 251.127 358.622 243.422 353.732Z" fill="url(#paint2_linear_10_207062)"/>
<path d="M309.062 315.058L243.42 353.14C281.501 298.759 259.127 232.375 255.867 221.262C252.607 210.148 233.491 140.505 162.069 83.456C104.873 37.8172 59.5313 40.7802 43.9727 48.0409C65.0139 35.2976 107.688 9.95886 110.948 9.95886C164.144 -6.48889 212.599 29.6668 250.681 64.3405C281.057 92.1979 304.024 134.133 311.729 151.618L295.282 161.397C304.173 191.774 323.288 255.935 327.437 269.567C331.586 283.348 316.916 305.574 309.062 315.058Z" fill="url(#paint3_linear_10_207062)"/>
<path d="M346.259 192.365L295.137 162.136C294.544 161.839 295.729 161.098 296.47 160.802C316.326 149.392 356.927 126.128 360.039 124.054C363.151 121.979 366.558 123.61 367.892 124.647C382.265 132.797 411.604 149.244 413.086 150.281C414.716 151.319 414.124 152.059 413.68 152.207L346.259 192.365Z" fill="url(#paint4_linear_10_207062)"/>
<path d="M347 191.032L414.569 151.617L517.552 485.462L449.39 524.877L347 191.032Z" fill="url(#paint5_linear_10_207062)"/>
<path d="M501.254 507.246L568.231 467.83C579.196 474.202 601.719 487.094 604.238 488.131C607.498 489.464 611.499 491.391 610.758 499.985C605.572 536.733 582.603 539.401 562.895 537.326C547.188 535.844 515.183 516.582 501.254 507.246Z" fill="url(#paint6_linear_10_207062)"/>
<path d="M175.855 253.418L209.936 233.711C209.936 238.304 211.862 258.012 209.343 270.459C206.676 282.906 197.489 298.02 194.229 296.687C186.375 294.019 178.671 266.754 175.855 253.418Z" fill="url(#paint7_linear_10_207062)"/>
<path d="M550.447 312.389L416.643 235.039C415.309 234.299 416.938 232.965 417.976 232.373C436.942 221.259 475.765 198.439 479.025 196.364C482.137 194.29 485.545 195.031 486.878 195.772C507.179 207.182 556.226 235.039 589.862 255.488C631.796 281.123 647.652 290.31 684.252 336.245C721 382.18 735.373 435.968 734.039 483.829C733.002 522.208 715.666 544.88 707.072 551.399C696.847 557.327 669.138 573.034 640.836 588.741C667.063 567.699 678.917 504.13 647.355 429.3C622.313 369.288 572.229 326.466 550.447 312.389Z" fill="url(#paint8_linear_10_207062)"/>
<path fill-rule="evenodd" clip-rule="evenodd" d="M308.473 396.41L325.364 453.163C325.957 455.534 324.772 456.866 322.994 455.681L253.942 415.969C234.234 404.56 215.861 389.89 199.413 372.701C199.265 372.257 198.82 372.108 198.375 371.96C197.931 371.812 197.635 371.516 197.19 371.516C178.668 371.368 156.738 364.552 133.326 351.068C57.7552 307.652 1.59544 214.892 1.89179 132.209C2.03997 50.1181 58.2 21.3713 134.364 65.2319C210.082 108.796 266.241 201.705 266.093 284.24C266.093 315.654 257.796 339.362 243.274 354.031C242.682 354.624 243.274 356.106 244.015 356.698C245.942 358.032 265.056 369.294 282.245 379.222C285.06 380.852 287.875 382.481 290.542 384.111C293.802 386.038 296.766 387.816 299.433 389.297C300.47 389.89 301.359 390.336 302.397 390.928C303.582 391.669 304.768 392.41 306.25 393.151C307.287 393.892 308.028 395.076 308.473 396.41ZM194.967 297.871C204.006 288.684 209.489 273.126 209.489 251.936C209.637 199.481 177.334 144.655 134.214 120.058C91.0947 95.0157 58.6443 112.353 58.4961 164.808C58.3479 217.411 90.6504 272.089 133.77 296.983C138.067 299.502 142.216 301.577 146.365 303.207C148.292 303.947 149.033 301.873 147.847 299.502C135.993 275.349 127.695 248.826 125.473 226.451C125.325 224.673 126.509 223.783 127.991 224.672L154.071 239.787L174.372 251.344C175.557 251.937 176.445 253.419 176.742 254.752C179.705 269.274 184.447 282.905 191.115 295.649C191.708 296.686 192.301 297.427 193.041 297.724C193.782 298.316 194.523 298.316 194.967 297.871ZM365.076 253.123L449.242 524.436C449.983 526.807 448.648 528.14 446.87 527.103L393.675 496.43C392.638 495.837 391.748 494.652 391.303 493.319L372.781 430.491L367.298 412.414C366.854 411.08 365.965 409.894 364.928 409.301L349.666 400.56L347.74 399.373L319.14 382.926C317.362 381.889 316.177 379.073 316.77 377.74C321.808 367.367 325.068 355.216 326.846 341.14C326.994 339.806 328.032 339.362 329.365 339.954L330.403 340.548L332.329 341.733L346.406 349.883C347.739 350.624 348.48 349.735 348.184 347.957L294.247 166.142C293.654 163.771 294.84 162.437 296.618 163.623L344.331 191.183C345.368 191.776 346.258 192.961 346.702 194.147L365.076 253.123ZM666.618 518.065C667.062 434.196 612.829 348.548 533.998 303.058L417.234 235.933C415.456 234.896 414.123 236.377 414.864 238.6L474.727 431.825C475.172 433.158 475.913 434.196 476.802 434.788C478.136 435.529 479.322 435.232 479.322 433.454L479.766 327.656C479.766 326.174 480.952 325.581 482.285 326.322L530.74 354.328C578.749 381.889 610.014 432.565 609.866 485.613C609.866 538.661 578.305 553.331 530.443 525.77L501.993 509.322C500.214 508.284 498.881 509.766 499.622 511.988L517.404 569.334C517.848 570.519 518.737 571.704 519.774 572.297L533.11 580.003C612.089 625.345 666.47 601.785 666.618 518.065Z" fill="url(#paint9_linear_10_207062)"/>
<path d="M479.469 439.231V329.58C479.469 326.913 482.137 326.913 484.063 327.654C517.107 346.028 540.222 361.141 547.631 366.328V393.89C547.631 396.557 547.187 398.483 547.039 399.076L479.469 439.231Z" fill="url(#paint10_linear_10_207062)"/>
<path d="M170.371 205.992L127.844 224.514L174.223 251.186C174.223 251.186 175.408 251.632 176.149 253.262C208.452 234.591 208.453 234.592 208.453 234.592C208.453 234.592 208.6 235.036 208.007 231.628C207.415 228.22 207.416 228.219 207.416 228.219L170.371 205.992Z" fill="url(#paint11_linear_10_207062)"/>
</g>
<mask id="mask1_10_207062" style="mask-type:alpha" maskUnits="userSpaceOnUse" x="0" y="0" width="735" height="625">
<rect width="734.917" height="624.304" fill="url(#paint12_linear_10_207062)"/>
</mask>
<g mask="url(#mask1_10_207062)">
<path d="M134.213 120.049C134.213 120.049 128.434 173.986 170.369 205.992L127.841 224.515C127.841 224.515 151.995 304.383 157.774 315.644C163.553 326.906 49.9004 271.783 43.9732 205.992C38.0461 140.201 5.44668 49.6652 58.4944 63.5939C111.542 77.5226 134.213 120.049 134.213 120.049Z" fill="url(#paint13_linear_10_207062)"/>
<path d="M243.422 353.732L307.732 315.65L337.218 332.691C336.329 333.135 333.366 334.618 328.624 337.285C326.698 357.586 317.511 377.292 318.845 378.626C320.179 379.96 337.812 390.48 346.999 395.666C356.186 400.853 365.372 406.78 367.298 408.855C368.928 410.485 371.003 419.524 371.892 423.969L324.031 450.938C318.845 433.601 308.175 398.483 307.583 395.816C306.99 393.148 304.767 391.222 303.582 390.629C302.989 390.185 298.099 387.221 283.874 378.775C269.945 370.329 251.127 358.622 243.422 353.732Z" fill="url(#paint14_linear_10_207062)"/>
<path d="M309.062 315.058L243.42 353.14C281.501 298.759 259.127 232.375 255.867 221.262C252.607 210.148 233.491 140.505 162.069 83.456C104.873 37.8172 59.5313 40.7802 43.9727 48.0409C65.0139 35.2976 107.688 9.95886 110.948 9.95886C164.144 -6.48889 212.599 29.6668 250.681 64.3405C281.057 92.1979 304.024 134.133 311.729 151.618L295.282 161.397C304.173 191.774 323.288 255.935 327.437 269.567C331.586 283.348 316.916 305.574 309.062 315.058Z" fill="url(#paint15_linear_10_207062)"/>
<path d="M346.259 192.365L295.137 162.136C294.544 161.839 295.729 161.098 296.47 160.802C316.326 149.392 356.927 126.128 360.039 124.054C363.151 121.979 366.558 123.61 367.892 124.647C382.265 132.797 411.604 149.244 413.086 150.281C414.716 151.319 414.124 152.059 413.68 152.207L346.259 192.365Z" fill="url(#paint16_linear_10_207062)"/>
<path d="M347 191.032L414.569 151.617L517.552 485.462L449.39 524.877L347 191.032Z" fill="url(#paint17_linear_10_207062)"/>
<path d="M501.254 507.246L568.231 467.83C579.196 474.202 601.719 487.094 604.238 488.131C607.498 489.464 611.499 491.391 610.758 499.985C605.572 536.733 582.603 539.401 562.895 537.326C547.188 535.844 515.183 516.582 501.254 507.246Z" fill="url(#paint18_linear_10_207062)"/>
<path d="M175.855 253.418L209.936 233.711C209.936 238.304 211.862 258.012 209.343 270.459C206.676 282.906 197.489 298.02 194.229 296.687C186.375 294.019 178.671 266.754 175.855 253.418Z" fill="url(#paint19_linear_10_207062)"/>
<path d="M550.447 312.389L416.643 235.039C415.309 234.299 416.938 232.965 417.976 232.373C436.942 221.259 475.765 198.439 479.025 196.364C482.137 194.29 485.545 195.031 486.878 195.772C507.179 207.182 556.226 235.039 589.862 255.488C631.796 281.123 647.652 290.31 684.252 336.245C721 382.18 735.373 435.968 734.039 483.829C733.002 522.208 715.666 544.88 707.072 551.399C696.847 557.327 669.138 573.034 640.836 588.741C667.063 567.699 678.917 504.13 647.355 429.3C622.313 369.288 572.229 326.466 550.447 312.389Z" fill="url(#paint20_linear_10_207062)"/>
<path fill-rule="evenodd" clip-rule="evenodd" d="M308.473 396.41L325.364 453.163C325.957 455.534 324.772 456.866 322.994 455.681L253.942 415.969C234.234 404.56 215.861 389.89 199.413 372.701C199.265 372.257 198.82 372.108 198.375 371.96C197.931 371.812 197.635 371.516 197.19 371.516C178.668 371.368 156.738 364.552 133.326 351.068C57.7552 307.652 1.59544 214.892 1.89179 132.209C2.03997 50.1181 58.2 21.3713 134.364 65.2319C210.082 108.796 266.241 201.705 266.093 284.24C266.093 315.654 257.796 339.362 243.274 354.031C242.682 354.624 243.274 356.106 244.015 356.698C245.942 358.032 265.056 369.294 282.245 379.222C285.06 380.852 287.875 382.481 290.542 384.111C293.802 386.038 296.766 387.816 299.433 389.297C300.47 389.89 301.359 390.336 302.397 390.928C303.582 391.669 304.768 392.41 306.25 393.151C307.287 393.892 308.028 395.076 308.473 396.41ZM194.967 297.871C204.006 288.684 209.489 273.126 209.489 251.936C209.637 199.481 177.334 144.655 134.214 120.058C91.0947 95.0157 58.6443 112.353 58.4961 164.808C58.3479 217.411 90.6504 272.089 133.77 296.983C138.067 299.502 142.216 301.577 146.365 303.207C148.292 303.947 149.033 301.873 147.847 299.502C135.993 275.349 127.695 248.826 125.473 226.451C125.325 224.673 126.509 223.783 127.991 224.672L154.071 239.787L174.372 251.344C175.557 251.937 176.445 253.419 176.742 254.752C179.705 269.274 184.447 282.905 191.115 295.649C191.708 296.686 192.301 297.427 193.041 297.724C193.782 298.316 194.523 298.316 194.967 297.871ZM365.076 253.123L449.242 524.436C449.983 526.807 448.648 528.14 446.87 527.103L393.675 496.43C392.638 495.837 391.748 494.652 391.303 493.319L372.781 430.491L367.298 412.414C366.854 411.08 365.965 409.894 364.928 409.301L349.666 400.56L347.74 399.373L319.14 382.926C317.362 381.889 316.177 379.073 316.77 377.74C321.808 367.367 325.068 355.216 326.846 341.14C326.994 339.806 328.032 339.362 329.365 339.954L330.403 340.548L332.329 341.733L346.406 349.883C347.739 350.624 348.48 349.735 348.184 347.957L294.247 166.142C293.654 163.771 294.84 162.437 296.618 163.623L344.331 191.183C345.368 191.776 346.258 192.961 346.702 194.147L365.076 253.123ZM666.618 518.065C667.062 434.196 612.829 348.548 533.998 303.058L417.234 235.933C415.456 234.896 414.123 236.377 414.864 238.6L474.727 431.825C475.172 433.158 475.913 434.196 476.802 434.788C478.136 435.529 479.322 435.232 479.322 433.454L479.766 327.656C479.766 326.174 480.952 325.581 482.285 326.322L530.74 354.328C578.749 381.889 610.014 432.565 609.866 485.613C609.866 538.661 578.305 553.331 530.443 525.77L501.993 509.322C500.214 508.284 498.881 509.766 499.622 511.988L517.404 569.334C517.848 570.519 518.737 571.704 519.774 572.297L533.11 580.003C612.089 625.345 666.47 601.785 666.618 518.065Z" fill="url(#paint21_linear_10_207062)"/>
<path d="M479.469 439.231V329.58C479.469 326.913 482.137 326.913 484.063 327.654C517.107 346.028 540.222 361.141 547.631 366.328V393.89C547.631 396.557 547.187 398.483 547.039 399.076L479.469 439.231Z" fill="url(#paint22_linear_10_207062)"/>
<path d="M170.371 205.992L127.844 224.514L174.223 251.186C174.223 251.186 175.408 251.632 176.149 253.262C208.452 234.591 208.453 234.592 208.453 234.592C208.453 234.592 208.6 235.036 208.007 231.628C207.415 228.22 207.416 228.219 207.416 228.219L170.371 205.992Z" fill="url(#paint23_linear_10_207062)"/>
</g>
<mask id="mask2_10_207062" style="mask-type:alpha" maskUnits="userSpaceOnUse" x="0" y="0" width="735" height="625">
<rect width="734.917" height="624.304" fill="url(#paint24_linear_10_207062)"/>
</mask>
<g mask="url(#mask2_10_207062)">
<path d="M134.213 120.049C134.213 120.049 128.434 173.986 170.369 205.992L127.841 224.515C127.841 224.515 151.995 304.383 157.774 315.644C163.553 326.906 49.9004 271.783 43.9732 205.992C38.0461 140.201 5.44668 49.6652 58.4944 63.5939C111.542 77.5226 134.213 120.049 134.213 120.049Z" fill="url(#paint25_linear_10_207062)"/>
<path d="M243.422 353.732L307.732 315.65L337.218 332.691C336.329 333.135 333.366 334.618 328.624 337.285C326.698 357.586 317.511 377.292 318.845 378.626C320.179 379.96 337.812 390.48 346.999 395.666C356.186 400.853 365.372 406.78 367.298 408.855C368.928 410.485 371.003 419.524 371.892 423.969L324.031 450.938C318.845 433.601 308.175 398.483 307.583 395.816C306.99 393.148 304.767 391.222 303.582 390.629C302.989 390.185 298.099 387.221 283.874 378.775C269.945 370.329 251.127 358.622 243.422 353.732Z" fill="url(#paint26_linear_10_207062)"/>
<path d="M309.062 315.058L243.42 353.14C281.501 298.759 259.127 232.375 255.867 221.262C252.607 210.148 233.491 140.505 162.069 83.456C104.873 37.8172 59.5313 40.7802 43.9727 48.0409C65.0139 35.2976 107.688 9.95886 110.948 9.95886C164.144 -6.48889 212.599 29.6668 250.681 64.3405C281.057 92.1979 304.024 134.133 311.729 151.618L295.282 161.397C304.173 191.774 323.288 255.935 327.437 269.567C331.586 283.348 316.916 305.574 309.062 315.058Z" fill="url(#paint27_linear_10_207062)"/>
<path d="M346.259 192.365L295.137 162.136C294.544 161.839 295.729 161.098 296.47 160.802C316.326 149.392 356.927 126.128 360.039 124.054C363.151 121.979 366.558 123.61 367.892 124.647C382.265 132.797 411.604 149.244 413.086 150.281C414.716 151.319 414.124 152.059 413.68 152.207L346.259 192.365Z" fill="url(#paint28_linear_10_207062)"/>
<path d="M347 191.032L414.569 151.617L517.552 485.462L449.39 524.877L347 191.032Z" fill="url(#paint29_linear_10_207062)"/>
<path d="M501.254 507.246L568.231 467.83C579.196 474.202 601.719 487.094 604.238 488.131C607.498 489.464 611.499 491.391 610.758 499.985C605.572 536.733 582.603 539.401 562.895 537.326C547.188 535.844 515.183 516.582 501.254 507.246Z" fill="url(#paint30_linear_10_207062)"/>
<path d="M175.855 253.418L209.936 233.711C209.936 238.304 211.862 258.012 209.343 270.459C206.676 282.906 197.489 298.02 194.229 296.687C186.375 294.019 178.671 266.754 175.855 253.418Z" fill="url(#paint31_linear_10_207062)"/>
<path d="M550.447 312.389L416.643 235.039C415.309 234.299 416.938 232.965 417.976 232.373C436.942 221.259 475.765 198.439 479.025 196.364C482.137 194.29 485.545 195.031 486.878 195.772C507.179 207.182 556.226 235.039 589.862 255.488C631.796 281.123 647.652 290.31 684.252 336.245C721 382.18 735.373 435.968 734.039 483.829C733.002 522.208 715.666 544.88 707.072 551.399C696.847 557.327 669.138 573.034 640.836 588.741C667.063 567.699 678.917 504.13 647.355 429.3C622.313 369.288 572.229 326.466 550.447 312.389Z" fill="url(#paint32_linear_10_207062)"/>
<path fill-rule="evenodd" clip-rule="evenodd" d="M308.473 396.41L325.364 453.163C325.957 455.534 324.772 456.866 322.994 455.681L253.942 415.969C234.234 404.56 215.861 389.89 199.413 372.701C199.265 372.257 198.82 372.108 198.375 371.96C197.931 371.812 197.635 371.516 197.19 371.516C178.668 371.368 156.738 364.552 133.326 351.068C57.7552 307.652 1.59544 214.892 1.89179 132.209C2.03997 50.1181 58.2 21.3713 134.364 65.2319C210.082 108.796 266.241 201.705 266.093 284.24C266.093 315.654 257.796 339.362 243.274 354.031C242.682 354.624 243.274 356.106 244.015 356.698C245.942 358.032 265.056 369.294 282.245 379.222C285.06 380.852 287.875 382.481 290.542 384.111C293.802 386.038 296.766 387.816 299.433 389.297C300.47 389.89 301.359 390.336 302.397 390.928C303.582 391.669 304.768 392.41 306.25 393.151C307.287 393.892 308.028 395.076 308.473 396.41ZM194.967 297.871C204.006 288.684 209.489 273.126 209.489 251.936C209.637 199.481 177.334 144.655 134.214 120.058C91.0947 95.0157 58.6443 112.353 58.4961 164.808C58.3479 217.411 90.6504 272.089 133.77 296.983C138.067 299.502 142.216 301.577 146.365 303.207C148.292 303.947 149.033 301.873 147.847 299.502C135.993 275.349 127.695 248.826 125.473 226.451C125.325 224.673 126.509 223.783 127.991 224.672L154.071 239.787L174.372 251.344C175.557 251.937 176.445 253.419 176.742 254.752C179.705 269.274 184.447 282.905 191.115 295.649C191.708 296.686 192.301 297.427 193.041 297.724C193.782 298.316 194.523 298.316 194.967 297.871ZM365.076 253.123L449.242 524.436C449.983 526.807 448.648 528.14 446.87 527.103L393.675 496.43C392.638 495.837 391.748 494.652 391.303 493.319L372.781 430.491L367.298 412.414C366.854 411.08 365.965 409.894 364.928 409.301L349.666 400.56L347.74 399.373L319.14 382.926C317.362 381.889 316.177 379.073 316.77 377.74C321.808 367.367 325.068 355.216 326.846 341.14C326.994 339.806 328.032 339.362 329.365 339.954L330.403 340.548L332.329 341.733L346.406 349.883C347.739 350.624 348.48 349.735 348.184 347.957L294.247 166.142C293.654 163.771 294.84 162.437 296.618 163.623L344.331 191.183C345.368 191.776 346.258 192.961 346.702 194.147L365.076 253.123ZM666.618 518.065C667.062 434.196 612.829 348.548 533.998 303.058L417.234 235.933C415.456 234.896 414.123 236.377 414.864 238.6L474.727 431.825C475.172 433.158 475.913 434.196 476.802 434.788C478.136 435.529 479.322 435.232 479.322 433.454L479.766 327.656C479.766 326.174 480.952 325.581 482.285 326.322L530.74 354.328C578.749 381.889 610.014 432.565 609.866 485.613C609.866 538.661 578.305 553.331 530.443 525.77L501.993 509.322C500.214 508.284 498.881 509.766 499.622 511.988L517.404 569.334C517.848 570.519 518.737 571.704 519.774 572.297L533.11 580.003C612.089 625.345 666.47 601.785 666.618 518.065Z" fill="url(#paint33_linear_10_207062)"/>
<path d="M479.469 439.231V329.58C479.469 326.913 482.137 326.913 484.063 327.654C517.107 346.028 540.222 361.141 547.631 366.328V393.89C547.631 396.557 547.187 398.483 547.039 399.076L479.469 439.231Z" fill="url(#paint34_linear_10_207062)"/>
<path d="M170.371 205.992L127.844 224.514L174.223 251.186C174.223 251.186 175.408 251.632 176.149 253.262C208.452 234.591 208.453 234.592 208.453 234.592C208.453 234.592 208.6 235.036 208.007 231.628C207.415 228.22 207.416 228.219 207.416 228.219L170.371 205.992Z" fill="url(#paint35_linear_10_207062)"/>
</g>
<g opacity="0.6">
<mask id="mask3_10_207062" style="mask-type:alpha" maskUnits="userSpaceOnUse" x="0" y="0" width="735" height="625">
<rect width="734.917" height="624.304" fill="url(#paint36_linear_10_207062)"/>
</mask>
<g mask="url(#mask3_10_207062)">
<path d="M134.213 120.049C134.213 120.049 128.434 173.986 170.369 205.992L127.841 224.515C127.841 224.515 151.995 304.383 157.774 315.644C163.553 326.906 49.9004 271.783 43.9732 205.992C38.0461 140.201 5.44668 49.6652 58.4944 63.5939C111.542 77.5226 134.213 120.049 134.213 120.049Z" fill="url(#paint37_linear_10_207062)"/>
<path d="M243.422 353.732L307.732 315.65L337.218 332.691C336.329 333.135 333.366 334.618 328.624 337.285C326.698 357.586 317.511 377.292 318.845 378.626C320.179 379.96 337.812 390.48 346.999 395.666C356.186 400.853 365.372 406.78 367.298 408.855C368.928 410.485 371.003 419.524 371.892 423.969L324.031 450.938C318.845 433.601 308.175 398.483 307.583 395.816C306.99 393.148 304.767 391.222 303.582 390.629C302.989 390.185 298.099 387.221 283.874 378.775C269.945 370.329 251.127 358.622 243.422 353.732Z" fill="url(#paint38_linear_10_207062)"/>
<path d="M309.062 315.058L243.42 353.14C281.501 298.759 259.127 232.375 255.867 221.262C252.607 210.148 233.491 140.505 162.069 83.456C104.873 37.8172 59.5313 40.7802 43.9727 48.0409C65.0139 35.2976 107.688 9.95886 110.948 9.95886C164.144 -6.48889 212.599 29.6668 250.681 64.3405C281.057 92.1979 304.024 134.133 311.729 151.618L295.282 161.397C304.173 191.774 323.288 255.935 327.437 269.567C331.586 283.348 316.916 305.574 309.062 315.058Z" fill="url(#paint39_linear_10_207062)"/>
<path d="M346.259 192.365L295.137 162.136C294.544 161.839 295.729 161.098 296.47 160.802C316.326 149.392 356.927 126.128 360.039 124.054C363.151 121.979 366.558 123.61 367.892 124.647C382.265 132.797 411.604 149.244 413.086 150.281C414.716 151.319 414.124 152.059 413.68 152.207L346.259 192.365Z" fill="url(#paint40_linear_10_207062)"/>
<path d="M347 191.032L414.569 151.617L517.552 485.462L449.39 524.877L347 191.032Z" fill="url(#paint41_linear_10_207062)"/>
<path d="M501.254 507.246L568.231 467.83C579.196 474.202 601.719 487.094 604.238 488.131C607.498 489.464 611.499 491.391 610.758 499.985C605.572 536.733 582.603 539.401 562.895 537.326C547.188 535.844 515.183 516.582 501.254 507.246Z" fill="url(#paint42_linear_10_207062)"/>
<path d="M175.855 253.418L209.936 233.711C209.936 238.304 211.862 258.012 209.343 270.459C206.676 282.906 197.489 298.02 194.229 296.687C186.375 294.019 178.671 266.754 175.855 253.418Z" fill="url(#paint43_linear_10_207062)"/>
<path d="M550.447 312.389L416.643 235.039C415.309 234.299 416.938 232.965 417.976 232.373C436.942 221.259 475.765 198.439 479.025 196.364C482.137 194.29 485.545 195.031 486.878 195.772C507.179 207.182 556.226 235.039 589.862 255.488C631.796 281.123 647.652 290.31 684.252 336.245C721 382.18 735.373 435.968 734.039 483.829C733.002 522.208 715.666 544.88 707.072 551.399C696.847 557.327 669.138 573.034 640.836 588.741C667.063 567.699 678.917 504.13 647.355 429.3C622.313 369.288 572.229 326.466 550.447 312.389Z" fill="url(#paint44_linear_10_207062)"/>
<path fill-rule="evenodd" clip-rule="evenodd" d="M308.473 396.41L325.364 453.163C325.957 455.534 324.772 456.866 322.994 455.681L253.942 415.969C234.234 404.56 215.861 389.89 199.413 372.701C199.265 372.257 198.82 372.108 198.375 371.96C197.931 371.812 197.635 371.516 197.19 371.516C178.668 371.368 156.738 364.552 133.326 351.068C57.7552 307.652 1.59544 214.892 1.89179 132.209C2.03997 50.1181 58.2 21.3713 134.364 65.2319C210.082 108.796 266.241 201.705 266.093 284.24C266.093 315.654 257.796 339.362 243.274 354.031C242.682 354.624 243.274 356.106 244.015 356.698C245.942 358.032 265.056 369.294 282.245 379.222C285.06 380.852 287.875 382.481 290.542 384.111C293.802 386.038 296.766 387.816 299.433 389.297C300.47 389.89 301.359 390.336 302.397 390.928C303.582 391.669 304.768 392.41 306.25 393.151C307.287 393.892 308.028 395.076 308.473 396.41ZM194.967 297.871C204.006 288.684 209.489 273.126 209.489 251.936C209.637 199.481 177.334 144.655 134.214 120.058C91.0947 95.0157 58.6443 112.353 58.4961 164.808C58.3479 217.411 90.6504 272.089 133.77 296.983C138.067 299.502 142.216 301.577 146.365 303.207C148.292 303.947 149.033 301.873 147.847 299.502C135.993 275.349 127.695 248.826 125.473 226.451C125.325 224.673 126.509 223.783 127.991 224.672L154.071 239.787L174.372 251.344C175.557 251.937 176.445 253.419 176.742 254.752C179.705 269.274 184.447 282.905 191.115 295.649C191.708 296.686 192.301 297.427 193.041 297.724C193.782 298.316 194.523 298.316 194.967 297.871ZM365.076 253.123L449.242 524.436C449.983 526.807 448.648 528.14 446.87 527.103L393.675 496.43C392.638 495.837 391.748 494.652 391.303 493.319L372.781 430.491L367.298 412.414C366.854 411.08 365.965 409.894 364.928 409.301L349.666 400.56L347.74 399.373L319.14 382.926C317.362 381.889 316.177 379.073 316.77 377.74C321.808 367.367 325.068 355.216 326.846 341.14C326.994 339.806 328.032 339.362 329.365 339.954L330.403 340.548L332.329 341.733L346.406 349.883C347.739 350.624 348.48 349.735 348.184 347.957L294.247 166.142C293.654 163.771 294.84 162.437 296.618 163.623L344.331 191.183C345.368 191.776 346.258 192.961 346.702 194.147L365.076 253.123ZM666.618 518.065C667.062 434.196 612.829 348.548 533.998 303.058L417.234 235.933C415.456 234.896 414.123 236.377 414.864 238.6L474.727 431.825C475.172 433.158 475.913 434.196 476.802 434.788C478.136 435.529 479.322 435.232 479.322 433.454L479.766 327.656C479.766 326.174 480.952 325.581 482.285 326.322L530.74 354.328C578.749 381.889 610.014 432.565 609.866 485.613C609.866 538.661 578.305 553.331 530.443 525.77L501.993 509.322C500.214 508.284 498.881 509.766 499.622 511.988L517.404 569.334C517.848 570.519 518.737 571.704 519.774 572.297L533.11 580.003C612.089 625.345 666.47 601.785 666.618 518.065Z" fill="url(#paint45_linear_10_207062)"/>
<path d="M479.469 439.231V329.58C479.469 326.913 482.137 326.913 484.063 327.654C517.107 346.028 540.222 361.141 547.631 366.328V393.89C547.631 396.557 547.187 398.483 547.039 399.076L479.469 439.231Z" fill="url(#paint46_linear_10_207062)"/>
<path d="M170.371 205.992L127.844 224.514L174.223 251.186C174.223 251.186 175.408 251.632 176.149 253.262C208.452 234.591 208.453 234.592 208.453 234.592C208.453 234.592 208.6 235.036 208.007 231.628C207.415 228.22 207.416 228.219 207.416 228.219L170.371 205.992Z" fill="url(#paint47_linear_10_207062)"/>
</g>
</g>
<g opacity="0.6">
<mask id="mask4_10_207062" style="mask-type:alpha" maskUnits="userSpaceOnUse" x="0" y="0" width="735" height="625">
<rect width="734.917" height="624.304" fill="url(#paint48_linear_10_207062)"/>
</mask>
<g mask="url(#mask4_10_207062)">
<path d="M134.213 120.049C134.213 120.049 128.434 173.986 170.369 205.992L127.841 224.515C127.841 224.515 151.995 304.383 157.774 315.644C163.553 326.906 49.9004 271.783 43.9732 205.992C38.0461 140.201 5.44668 49.6652 58.4944 63.5939C111.542 77.5226 134.213 120.049 134.213 120.049Z" fill="url(#paint49_linear_10_207062)"/>
<path d="M243.422 353.732L307.732 315.65L337.218 332.691C336.329 333.135 333.366 334.618 328.624 337.285C326.698 357.586 317.511 377.292 318.845 378.626C320.179 379.96 337.812 390.48 346.999 395.666C356.186 400.853 365.372 406.78 367.298 408.855C368.928 410.485 371.003 419.524 371.892 423.969L324.031 450.938C318.845 433.601 308.175 398.483 307.583 395.816C306.99 393.148 304.767 391.222 303.582 390.629C302.989 390.185 298.099 387.221 283.874 378.775C269.945 370.329 251.127 358.622 243.422 353.732Z" fill="url(#paint50_linear_10_207062)"/>
<path d="M309.062 315.058L243.42 353.14C281.501 298.759 259.127 232.375 255.867 221.262C252.607 210.148 233.491 140.505 162.069 83.456C104.873 37.8172 59.5313 40.7802 43.9727 48.0409C65.0139 35.2976 107.688 9.95886 110.948 9.95886C164.144 -6.48889 212.599 29.6668 250.681 64.3405C281.057 92.1979 304.024 134.133 311.729 151.618L295.282 161.397C304.173 191.774 323.288 255.935 327.437 269.567C331.586 283.348 316.916 305.574 309.062 315.058Z" fill="url(#paint51_linear_10_207062)"/>
<path d="M346.259 192.365L295.137 162.136C294.544 161.839 295.729 161.098 296.47 160.802C316.326 149.392 356.927 126.128 360.039 124.054C363.151 121.979 366.558 123.61 367.892 124.647C382.265 132.797 411.604 149.244 413.086 150.281C414.716 151.319 414.124 152.059 413.68 152.207L346.259 192.365Z" fill="url(#paint52_linear_10_207062)"/>
<path d="M347 191.032L414.569 151.617L517.552 485.462L449.39 524.877L347 191.032Z" fill="url(#paint53_linear_10_207062)"/>
<path d="M501.254 507.246L568.231 467.83C579.196 474.202 601.719 487.094 604.238 488.131C607.498 489.464 611.499 491.391 610.758 499.985C605.572 536.733 582.603 539.401 562.895 537.326C547.188 535.844 515.183 516.582 501.254 507.246Z" fill="url(#paint54_linear_10_207062)"/>
<path d="M175.855 253.418L209.936 233.711C209.936 238.304 211.862 258.012 209.343 270.459C206.676 282.906 197.489 298.02 194.229 296.687C186.375 294.019 178.671 266.754 175.855 253.418Z" fill="url(#paint55_linear_10_207062)"/>
<path d="M550.447 312.389L416.643 235.039C415.309 234.299 416.938 232.965 417.976 232.373C436.942 221.259 475.765 198.439 479.025 196.364C482.137 194.29 485.545 195.031 486.878 195.772C507.179 207.182 556.226 235.039 589.862 255.488C631.796 281.123 647.652 290.31 684.252 336.245C721 382.18 735.373 435.968 734.039 483.829C733.002 522.208 715.666 544.88 707.072 551.399C696.847 557.327 669.138 573.034 640.836 588.741C667.063 567.699 678.917 504.13 647.355 429.3C622.313 369.288 572.229 326.466 550.447 312.389Z" fill="url(#paint56_linear_10_207062)"/>
<path fill-rule="evenodd" clip-rule="evenodd" d="M308.473 396.41L325.364 453.163C325.957 455.534 324.772 456.866 322.994 455.681L253.942 415.969C234.234 404.56 215.861 389.89 199.413 372.701C199.265 372.257 198.82 372.108 198.375 371.96C197.931 371.812 197.635 371.516 197.19 371.516C178.668 371.368 156.738 364.552 133.326 351.068C57.7552 307.652 1.59544 214.892 1.89179 132.209C2.03997 50.1181 58.2 21.3713 134.364 65.2319C210.082 108.796 266.241 201.705 266.093 284.24C266.093 315.654 257.796 339.362 243.274 354.031C242.682 354.624 243.274 356.106 244.015 356.698C245.942 358.032 265.056 369.294 282.245 379.222C285.06 380.852 287.875 382.481 290.542 384.111C293.802 386.038 296.766 387.816 299.433 389.297C300.47 389.89 301.359 390.336 302.397 390.928C303.582 391.669 304.768 392.41 306.25 393.151C307.287 393.892 308.028 395.076 308.473 396.41ZM194.967 297.871C204.006 288.684 209.489 273.126 209.489 251.936C209.637 199.481 177.334 144.655 134.214 120.058C91.0947 95.0157 58.6443 112.353 58.4961 164.808C58.3479 217.411 90.6504 272.089 133.77 296.983C138.067 299.502 142.216 301.577 146.365 303.207C148.292 303.947 149.033 301.873 147.847 299.502C135.993 275.349 127.695 248.826 125.473 226.451C125.325 224.673 126.509 223.783 127.991 224.672L154.071 239.787L174.372 251.344C175.557 251.937 176.445 253.419 176.742 254.752C179.705 269.274 184.447 282.905 191.115 295.649C191.708 296.686 192.301 297.427 193.041 297.724C193.782 298.316 194.523 298.316 194.967 297.871ZM365.076 253.123L449.242 524.436C449.983 526.807 448.648 528.14 446.87 527.103L393.675 496.43C392.638 495.837 391.748 494.652 391.303 493.319L372.781 430.491L367.298 412.414C366.854 411.08 365.965 409.894 364.928 409.301L349.666 400.56L347.74 399.373L319.14 382.926C317.362 381.889 316.177 379.073 316.77 377.74C321.808 367.367 325.068 355.216 326.846 341.14C326.994 339.806 328.032 339.362 329.365 339.954L330.403 340.548L332.329 341.733L346.406 349.883C347.739 350.624 348.48 349.735 348.184 347.957L294.247 166.142C293.654 163.771 294.84 162.437 296.618 163.623L344.331 191.183C345.368 191.776 346.258 192.961 346.702 194.147L365.076 253.123ZM666.618 518.065C667.062 434.196 612.829 348.548 533.998 303.058L417.234 235.933C415.456 234.896 414.123 236.377 414.864 238.6L474.727 431.825C475.172 433.158 475.913 434.196 476.802 434.788C478.136 435.529 479.322 435.232 479.322 433.454L479.766 327.656C479.766 326.174 480.952 325.581 482.285 326.322L530.74 354.328C578.749 381.889 610.014 432.565 609.866 485.613C609.866 538.661 578.305 553.331 530.443 525.77L501.993 509.322C500.214 508.284 498.881 509.766 499.622 511.988L517.404 569.334C517.848 570.519 518.737 571.704 519.774 572.297L533.11 580.003C612.089 625.345 666.47 601.785 666.618 518.065Z" fill="url(#paint57_linear_10_207062)"/>
<path d="M479.469 439.231V329.58C479.469 326.913 482.137 326.913 484.063 327.654C517.107 346.028 540.222 361.141 547.631 366.328V393.89C547.631 396.557 547.187 398.483 547.039 399.076L479.469 439.231Z" fill="url(#paint58_linear_10_207062)"/>
<path d="M170.371 205.992L127.844 224.514L174.223 251.186C174.223 251.186 175.408 251.632 176.149 253.262C208.452 234.591 208.453 234.592 208.453 234.592C208.453 234.592 208.6 235.036 208.007 231.628C207.415 228.22 207.416 228.219 207.416 228.219L170.371 205.992Z" fill="url(#paint59_linear_10_207062)"/>
</g>
</g>
<defs>
<linearGradient id="paint0_linear_10_207062" x1="367.459" y1="405.892" x2="-78.7411" y2="34.6835" gradientUnits="userSpaceOnUse">
<stop offset="0.065817" stop-color="#FFBD0C"/>
<stop offset="1" stop-color="#FFC30C" stop-opacity="0"/>
</linearGradient>
<linearGradient id="paint1_linear_10_207062" x1="145.313" y1="152.972" x2="35.1597" y2="241.303" gradientUnits="userSpaceOnUse">
<stop offset="0.09375" stop-color="#E73E4A"/>
<stop offset="0.7425" stop-color="#F27D2D"/>
<stop offset="0.9583" stop-color="#FFC40C"/>
</linearGradient>
<linearGradient id="paint2_linear_10_207062" x1="360.844" y1="415.996" x2="245.595" y2="323.58" gradientUnits="userSpaceOnUse">
<stop offset="0.09375" stop-color="#E73E4A"/>
<stop offset="0.7425" stop-color="#F27D2D"/>
<stop offset="0.9583" stop-color="#FFC40C"/>
</linearGradient>
<linearGradient id="paint3_linear_10_207062" x1="-57.2854" y1="3.60027" x2="337.776" y2="266.236" gradientUnits="userSpaceOnUse">
<stop offset="0.09375" stop-color="#E73E4A"/>
<stop offset="0.6979" stop-color="#F27D2D"/>
<stop offset="0.9583" stop-color="#FFC40C"/>
</linearGradient>
<linearGradient id="paint4_linear_10_207062" x1="269.914" y1="-10.5134" x2="355.989" y2="159.429" gradientUnits="userSpaceOnUse">
<stop offset="0.5526" stop-color="#E73E4A"/>
<stop offset="0.8904" stop-color="#F27D2D"/>
<stop offset="0.9583" stop-color="#FFC40C"/>
<stop offset="1" stop-color="#FFDE83"/>
</linearGradient>
<linearGradient id="paint5_linear_10_207062" x1="357.923" y1="512.569" x2="502.024" y2="175.13" gradientUnits="userSpaceOnUse">
<stop offset="0.09375" stop-color="#E73E4A"/>
<stop offset="0.6979" stop-color="#F27D2D"/>
<stop offset="0.9583" stop-color="#FFC40C"/>
</linearGradient>
<linearGradient id="paint6_linear_10_207062" x1="617.942" y1="484.424" x2="500.014" y2="535.109" gradientUnits="userSpaceOnUse">
<stop offset="0.09375" stop-color="#E73E4A"/>
<stop offset="0.6979" stop-color="#F27D2D"/>
<stop offset="0.9583" stop-color="#FFC40C"/>
</linearGradient>
<linearGradient id="paint7_linear_10_207062" x1="215.152" y1="263.288" x2="171.771" y2="269.863" gradientUnits="userSpaceOnUse">
<stop offset="0.09375" stop-color="#E73E4A"/>
<stop offset="0.6979" stop-color="#F27D2D"/>
<stop offset="0.9583" stop-color="#FFC40C"/>
</linearGradient>
<linearGradient id="paint8_linear_10_207062" x1="745.851" y1="1080.51" x2="551.629" y2="241.837" gradientUnits="userSpaceOnUse">
<stop offset="0.5526" stop-color="#E73E4A"/>
<stop offset="0.7233" stop-color="#F27D2D"/>
<stop offset="0.9583" stop-color="#FFC40C"/>
<stop offset="1" stop-color="#FFDE83"/>
</linearGradient>
<linearGradient id="paint9_linear_10_207062" x1="-282.436" y1="-160.873" x2="860.81" y2="744.011" gradientUnits="userSpaceOnUse">
<stop offset="0.09375" stop-color="#E73E4A"/>
<stop offset="0.4895" stop-color="#F27D2D"/>
<stop offset="0.9583" stop-color="#FFC40C"/>
</linearGradient>
<linearGradient id="paint10_linear_10_207062" x1="529.684" y1="352.693" x2="442.66" y2="411.546" gradientUnits="userSpaceOnUse">
<stop offset="0.09375" stop-color="#E73E4A"/>
<stop offset="0.6979" stop-color="#F27D2D"/>
<stop offset="0.9583" stop-color="#FFC40C"/>
</linearGradient>
<linearGradient id="paint11_linear_10_207062" x1="30.6089" y1="78.6207" x2="591.203" y2="683.351" gradientUnits="userSpaceOnUse">
<stop offset="0.207" stop-color="#E73E4A"/>
<stop offset="0.7425" stop-color="#F27D2D"/>
<stop offset="0.9583" stop-color="#FFC40C"/>
</linearGradient>
<linearGradient id="paint12_linear_10_207062" x1="367.459" y1="405.892" x2="-78.7411" y2="34.6835" gradientUnits="userSpaceOnUse">
<stop offset="0.065817" stop-color="#FFBD0C"/>
<stop offset="1" stop-color="#FFC30C" stop-opacity="0"/>
</linearGradient>
<linearGradient id="paint13_linear_10_207062" x1="145.313" y1="152.972" x2="35.1597" y2="241.303" gradientUnits="userSpaceOnUse">
<stop offset="0.09375" stop-color="#E73E4A"/>
<stop offset="0.7425" stop-color="#F27D2D"/>
<stop offset="0.9583" stop-color="#FFC40C"/>
</linearGradient>
<linearGradient id="paint14_linear_10_207062" x1="360.844" y1="415.996" x2="245.595" y2="323.58" gradientUnits="userSpaceOnUse">
<stop offset="0.09375" stop-color="#E73E4A"/>
<stop offset="0.7425" stop-color="#F27D2D"/>
<stop offset="0.9583" stop-color="#FFC40C"/>
</linearGradient>
<linearGradient id="paint15_linear_10_207062" x1="-57.2854" y1="3.60027" x2="337.776" y2="266.236" gradientUnits="userSpaceOnUse">
<stop offset="0.09375" stop-color="#E73E4A"/>
<stop offset="0.6979" stop-color="#F27D2D"/>
<stop offset="0.9583" stop-color="#FFC40C"/>
</linearGradient>
<linearGradient id="paint16_linear_10_207062" x1="269.914" y1="-10.5134" x2="355.989" y2="159.429" gradientUnits="userSpaceOnUse">
<stop offset="0.5526" stop-color="#E73E4A"/>
<stop offset="0.8904" stop-color="#F27D2D"/>
<stop offset="0.9583" stop-color="#FFC40C"/>
<stop offset="1" stop-color="#FFDE83"/>
</linearGradient>
<linearGradient id="paint17_linear_10_207062" x1="357.923" y1="512.569" x2="502.024" y2="175.13" gradientUnits="userSpaceOnUse">
<stop offset="0.09375" stop-color="#E73E4A"/>
<stop offset="0.6979" stop-color="#F27D2D"/>
<stop offset="0.9583" stop-color="#FFC40C"/>
</linearGradient>
<linearGradient id="paint18_linear_10_207062" x1="617.942" y1="484.424" x2="500.014" y2="535.109" gradientUnits="userSpaceOnUse">
<stop offset="0.09375" stop-color="#E73E4A"/>
<stop offset="0.6979" stop-color="#F27D2D"/>
<stop offset="0.9583" stop-color="#FFC40C"/>
</linearGradient>
<linearGradient id="paint19_linear_10_207062" x1="215.152" y1="263.288" x2="171.771" y2="269.863" gradientUnits="userSpaceOnUse">
<stop offset="0.09375" stop-color="#E73E4A"/>
<stop offset="0.6979" stop-color="#F27D2D"/>
<stop offset="0.9583" stop-color="#FFC40C"/>
</linearGradient>
<linearGradient id="paint20_linear_10_207062" x1="745.851" y1="1080.51" x2="551.629" y2="241.837" gradientUnits="userSpaceOnUse">
<stop offset="0.5526" stop-color="#E73E4A"/>
<stop offset="0.7233" stop-color="#F27D2D"/>
<stop offset="0.9583" stop-color="#FFC40C"/>
<stop offset="1" stop-color="#FFDE83"/>
</linearGradient>
<linearGradient id="paint21_linear_10_207062" x1="-282.436" y1="-160.873" x2="860.81" y2="744.011" gradientUnits="userSpaceOnUse">
<stop offset="0.09375" stop-color="#E73E4A"/>
<stop offset="0.4895" stop-color="#F27D2D"/>
<stop offset="0.9583" stop-color="#FFC40C"/>
</linearGradient>
<linearGradient id="paint22_linear_10_207062" x1="529.684" y1="352.693" x2="442.66" y2="411.546" gradientUnits="userSpaceOnUse">
<stop offset="0.09375" stop-color="#E73E4A"/>
<stop offset="0.6979" stop-color="#F27D2D"/>
<stop offset="0.9583" stop-color="#FFC40C"/>
</linearGradient>
<linearGradient id="paint23_linear_10_207062" x1="30.6089" y1="78.6207" x2="591.203" y2="683.351" gradientUnits="userSpaceOnUse">
<stop offset="0.207" stop-color="#E73E4A"/>
<stop offset="0.7425" stop-color="#F27D2D"/>
<stop offset="0.9583" stop-color="#FFC40C"/>
</linearGradient>
<linearGradient id="paint24_linear_10_207062" x1="367.459" y1="405.892" x2="-78.7411" y2="34.6835" gradientUnits="userSpaceOnUse">
<stop offset="0.065817" stop-color="#FFBD0C"/>
<stop offset="1" stop-color="#FFC30C" stop-opacity="0"/>
</linearGradient>
<linearGradient id="paint25_linear_10_207062" x1="145.313" y1="152.972" x2="35.1597" y2="241.303" gradientUnits="userSpaceOnUse">
<stop offset="0.09375" stop-color="#E73E4A"/>
<stop offset="0.7425" stop-color="#F27D2D"/>
<stop offset="0.9583" stop-color="#FFC40C"/>
</linearGradient>
<linearGradient id="paint26_linear_10_207062" x1="360.844" y1="415.996" x2="245.595" y2="323.58" gradientUnits="userSpaceOnUse">
<stop offset="0.09375" stop-color="#E73E4A"/>
<stop offset="0.7425" stop-color="#F27D2D"/>
<stop offset="0.9583" stop-color="#FFC40C"/>
</linearGradient>
<linearGradient id="paint27_linear_10_207062" x1="-57.2854" y1="3.60027" x2="337.776" y2="266.236" gradientUnits="userSpaceOnUse">
<stop offset="0.09375" stop-color="#E73E4A"/>
<stop offset="0.6979" stop-color="#F27D2D"/>
<stop offset="0.9583" stop-color="#FFC40C"/>
</linearGradient>
<linearGradient id="paint28_linear_10_207062" x1="269.914" y1="-10.5134" x2="355.989" y2="159.429" gradientUnits="userSpaceOnUse">
<stop offset="0.5526" stop-color="#E73E4A"/>
<stop offset="0.8904" stop-color="#F27D2D"/>
<stop offset="0.9583" stop-color="#FFC40C"/>
<stop offset="1" stop-color="#FFDE83"/>
</linearGradient>
<linearGradient id="paint29_linear_10_207062" x1="357.923" y1="512.569" x2="502.024" y2="175.13" gradientUnits="userSpaceOnUse">
<stop offset="0.09375" stop-color="#E73E4A"/>
<stop offset="0.6979" stop-color="#F27D2D"/>
<stop offset="0.9583" stop-color="#FFC40C"/>
</linearGradient>
<linearGradient id="paint30_linear_10_207062" x1="617.942" y1="484.424" x2="500.014" y2="535.109" gradientUnits="userSpaceOnUse">
<stop offset="0.09375" stop-color="#E73E4A"/>
<stop offset="0.6979" stop-color="#F27D2D"/>
<stop offset="0.9583" stop-color="#FFC40C"/>
</linearGradient>
<linearGradient id="paint31_linear_10_207062" x1="215.152" y1="263.288" x2="171.771" y2="269.863" gradientUnits="userSpaceOnUse">
<stop offset="0.09375" stop-color="#E73E4A"/>
<stop offset="0.6979" stop-color="#F27D2D"/>
<stop offset="0.9583" stop-color="#FFC40C"/>
</linearGradient>
<linearGradient id="paint32_linear_10_207062" x1="745.851" y1="1080.51" x2="551.629" y2="241.837" gradientUnits="userSpaceOnUse">
<stop offset="0.5526" stop-color="#E73E4A"/>
<stop offset="0.7233" stop-color="#F27D2D"/>
<stop offset="0.9583" stop-color="#FFC40C"/>
<stop offset="1" stop-color="#FFDE83"/>
</linearGradient>
<linearGradient id="paint33_linear_10_207062" x1="-282.436" y1="-160.873" x2="860.81" y2="744.011" gradientUnits="userSpaceOnUse">
<stop offset="0.09375" stop-color="#E73E4A"/>
<stop offset="0.4895" stop-color="#F27D2D"/>
<stop offset="0.9583" stop-color="#FFC40C"/>
</linearGradient>
<linearGradient id="paint34_linear_10_207062" x1="529.684" y1="352.693" x2="442.66" y2="411.546" gradientUnits="userSpaceOnUse">
<stop offset="0.09375" stop-color="#E73E4A"/>
<stop offset="0.6979" stop-color="#F27D2D"/>
<stop offset="0.9583" stop-color="#FFC40C"/>
</linearGradient>
<linearGradient id="paint35_linear_10_207062" x1="30.6089" y1="78.6207" x2="591.203" y2="683.351" gradientUnits="userSpaceOnUse">
<stop offset="0.207" stop-color="#E73E4A"/>
<stop offset="0.7425" stop-color="#F27D2D"/>
<stop offset="0.9583" stop-color="#FFC40C"/>
</linearGradient>
<linearGradient id="paint36_linear_10_207062" x1="367.459" y1="405.892" x2="-78.7411" y2="34.6835" gradientUnits="userSpaceOnUse">
<stop offset="0.065817" stop-color="#FFBD0C"/>
<stop offset="1" stop-color="#FFC30C" stop-opacity="0"/>
</linearGradient>
<linearGradient id="paint37_linear_10_207062" x1="145.313" y1="152.972" x2="35.1597" y2="241.303" gradientUnits="userSpaceOnUse">
<stop offset="0.09375" stop-color="#E73E4A"/>
<stop offset="0.7425" stop-color="#F27D2D"/>
<stop offset="0.9583" stop-color="#FFC40C"/>
</linearGradient>
<linearGradient id="paint38_linear_10_207062" x1="360.844" y1="415.996" x2="245.595" y2="323.58" gradientUnits="userSpaceOnUse">
<stop offset="0.09375" stop-color="#E73E4A"/>
<stop offset="0.7425" stop-color="#F27D2D"/>
<stop offset="0.9583" stop-color="#FFC40C"/>
</linearGradient>
<linearGradient id="paint39_linear_10_207062" x1="-57.2854" y1="3.60027" x2="337.776" y2="266.236" gradientUnits="userSpaceOnUse">
<stop offset="0.09375" stop-color="#E73E4A"/>
<stop offset="0.6979" stop-color="#F27D2D"/>
<stop offset="0.9583" stop-color="#FFC40C"/>
</linearGradient>
<linearGradient id="paint40_linear_10_207062" x1="269.914" y1="-10.5134" x2="355.989" y2="159.429" gradientUnits="userSpaceOnUse">
<stop offset="0.5526" stop-color="#E73E4A"/>
<stop offset="0.8904" stop-color="#F27D2D"/>
<stop offset="0.9583" stop-color="#FFC40C"/>
<stop offset="1" stop-color="#FFDE83"/>
</linearGradient>
<linearGradient id="paint41_linear_10_207062" x1="357.923" y1="512.569" x2="502.024" y2="175.13" gradientUnits="userSpaceOnUse">
<stop offset="0.09375" stop-color="#E73E4A"/>
<stop offset="0.6979" stop-color="#F27D2D"/>
<stop offset="0.9583" stop-color="#FFC40C"/>
</linearGradient>
<linearGradient id="paint42_linear_10_207062" x1="617.942" y1="484.424" x2="500.014" y2="535.109" gradientUnits="userSpaceOnUse">
<stop offset="0.09375" stop-color="#E73E4A"/>
<stop offset="0.6979" stop-color="#F27D2D"/>
<stop offset="0.9583" stop-color="#FFC40C"/>
</linearGradient>
<linearGradient id="paint43_linear_10_207062" x1="215.152" y1="263.288" x2="171.771" y2="269.863" gradientUnits="userSpaceOnUse">
<stop offset="0.09375" stop-color="#E73E4A"/>
<stop offset="0.6979" stop-color="#F27D2D"/>
<stop offset="0.9583" stop-color="#FFC40C"/>
</linearGradient>
<linearGradient id="paint44_linear_10_207062" x1="745.851" y1="1080.51" x2="551.629" y2="241.837" gradientUnits="userSpaceOnUse">
<stop offset="0.5526" stop-color="#E73E4A"/>
<stop offset="0.7233" stop-color="#F27D2D"/>
<stop offset="0.9583" stop-color="#FFC40C"/>
<stop offset="1" stop-color="#FFDE83"/>
</linearGradient>
<linearGradient id="paint45_linear_10_207062" x1="-282.436" y1="-160.873" x2="860.81" y2="744.011" gradientUnits="userSpaceOnUse">
<stop offset="0.09375" stop-color="#E73E4A"/>
<stop offset="0.4895" stop-color="#F27D2D"/>
<stop offset="0.9583" stop-color="#FFC40C"/>
</linearGradient>
<linearGradient id="paint46_linear_10_207062" x1="529.684" y1="352.693" x2="442.66" y2="411.546" gradientUnits="userSpaceOnUse">
<stop offset="0.09375" stop-color="#E73E4A"/>
<stop offset="0.6979" stop-color="#F27D2D"/>
<stop offset="0.9583" stop-color="#FFC40C"/>
</linearGradient>
<linearGradient id="paint47_linear_10_207062" x1="30.6089" y1="78.6207" x2="591.203" y2="683.351" gradientUnits="userSpaceOnUse">
<stop offset="0.207" stop-color="#E73E4A"/>
<stop offset="0.7425" stop-color="#F27D2D"/>
<stop offset="0.9583" stop-color="#FFC40C"/>
</linearGradient>
<linearGradient id="paint48_linear_10_207062" x1="367.459" y1="405.892" x2="-78.7411" y2="34.6835" gradientUnits="userSpaceOnUse">
<stop offset="0.065817" stop-color="#FFBD0C"/>
<stop offset="1" stop-color="#FFC30C" stop-opacity="0"/>
</linearGradient>
<linearGradient id="paint49_linear_10_207062" x1="145.313" y1="152.972" x2="35.1597" y2="241.303" gradientUnits="userSpaceOnUse">
<stop offset="0.09375" stop-color="#E73E4A"/>
<stop offset="0.7425" stop-color="#F27D2D"/>
<stop offset="0.9583" stop-color="#FFC40C"/>
</linearGradient>
<linearGradient id="paint50_linear_10_207062" x1="360.844" y1="415.996" x2="245.595" y2="323.58" gradientUnits="userSpaceOnUse">
<stop offset="0.09375" stop-color="#E73E4A"/>
<stop offset="0.7425" stop-color="#F27D2D"/>
<stop offset="0.9583" stop-color="#FFC40C"/>
</linearGradient>
<linearGradient id="paint51_linear_10_207062" x1="-57.2854" y1="3.60027" x2="337.776" y2="266.236" gradientUnits="userSpaceOnUse">
<stop offset="0.09375" stop-color="#E73E4A"/>
<stop offset="0.6979" stop-color="#F27D2D"/>
<stop offset="0.9583" stop-color="#FFC40C"/>
</linearGradient>
<linearGradient id="paint52_linear_10_207062" x1="269.914" y1="-10.5134" x2="355.989" y2="159.429" gradientUnits="userSpaceOnUse">
<stop offset="0.5526" stop-color="#E73E4A"/>
<stop offset="0.8904" stop-color="#F27D2D"/>
<stop offset="0.9583" stop-color="#FFC40C"/>
<stop offset="1" stop-color="#FFDE83"/>
</linearGradient>
<linearGradient id="paint53_linear_10_207062" x1="357.923" y1="512.569" x2="502.024" y2="175.13" gradientUnits="userSpaceOnUse">
<stop offset="0.09375" stop-color="#E73E4A"/>
<stop offset="0.6979" stop-color="#F27D2D"/>
<stop offset="0.9583" stop-color="#FFC40C"/>
</linearGradient>
<linearGradient id="paint54_linear_10_207062" x1="617.942" y1="484.424" x2="500.014" y2="535.109" gradientUnits="userSpaceOnUse">
<stop offset="0.09375" stop-color="#E73E4A"/>
<stop offset="0.6979" stop-color="#F27D2D"/>
<stop offset="0.9583" stop-color="#FFC40C"/>
</linearGradient>
<linearGradient id="paint55_linear_10_207062" x1="215.152" y1="263.288" x2="171.771" y2="269.863" gradientUnits="userSpaceOnUse">
<stop offset="0.09375" stop-color="#E73E4A"/>
<stop offset="0.6979" stop-color="#F27D2D"/>
<stop offset="0.9583" stop-color="#FFC40C"/>
</linearGradient>
<linearGradient id="paint56_linear_10_207062" x1="745.851" y1="1080.51" x2="551.629" y2="241.837" gradientUnits="userSpaceOnUse">
<stop offset="0.5526" stop-color="#E73E4A"/>
<stop offset="0.7233" stop-color="#F27D2D"/>
<stop offset="0.9583" stop-color="#FFC40C"/>
<stop offset="1" stop-color="#FFDE83"/>
</linearGradient>
<linearGradient id="paint57_linear_10_207062" x1="-282.436" y1="-160.873" x2="860.81" y2="744.011" gradientUnits="userSpaceOnUse">
<stop offset="0.09375" stop-color="#E73E4A"/>
<stop offset="0.4895" stop-color="#F27D2D"/>
<stop offset="0.9583" stop-color="#FFC40C"/>
</linearGradient>
<linearGradient id="paint58_linear_10_207062" x1="529.684" y1="352.693" x2="442.66" y2="411.546" gradientUnits="userSpaceOnUse">
<stop offset="0.09375" stop-color="#E73E4A"/>
<stop offset="0.6979" stop-color="#F27D2D"/>
<stop offset="0.9583" stop-color="#FFC40C"/>
</linearGradient>
<linearGradient id="paint59_linear_10_207062" x1="30.6089" y1="78.6207" x2="591.203" y2="683.351" gradientUnits="userSpaceOnUse">
<stop offset="0.207" stop-color="#E73E4A"/>
<stop offset="0.7425" stop-color="#F27D2D"/>
<stop offset="0.9583" stop-color="#FFC40C"/>
</linearGradient>
</defs>
</svg>
