<?xml version="1.0" encoding="UTF-8"?>
<svg id="Layer_1" data-name="Layer 1" xmlns="http://www.w3.org/2000/svg" xmlns:xlink="http://www.w3.org/1999/xlink" viewBox="0 0 1807.11 1160.49">
  <defs>
    <style>
      .cls-1 {
        fill-rule: evenodd;
      }

      .cls-1, .cls-2, .cls-3, .cls-4, .cls-5, .cls-6 {
        fill: #fff;
      }

      .cls-1, .cls-7, .cls-8, .cls-9, .cls-10, .cls-11, .cls-12, .cls-13, .cls-14, .cls-15, .cls-16, .cls-17, .cls-18, .cls-19, .cls-20, .cls-21, .cls-22, .cls-23, .cls-24, .cls-25, .cls-26, .cls-27, .cls-28, .cls-29, .cls-30, .cls-31, .cls-32, .cls-33, .cls-34, .cls-35, .cls-36, .cls-37, .cls-38, .cls-39, .cls-40, .cls-41, .cls-42, .cls-43, .cls-44, .cls-45, .cls-46, .cls-47, .cls-48, .cls-49, .cls-50, .cls-51, .cls-52, .cls-53, .cls-3, .cls-54, .cls-55, .cls-56, .cls-57, .cls-58, .cls-59, .cls-60, .cls-4, .cls-61, .cls-62, .cls-63, .cls-64, .cls-65, .cls-66, .cls-67, .cls-68, .cls-69, .cls-70, .cls-71, .cls-72, .cls-73, .cls-74, .cls-75, .cls-76, .cls-77, .cls-78, .cls-79, .cls-80, .cls-81, .cls-5, .cls-82, .cls-83, .cls-84, .cls-85, .cls-86, .cls-87, .cls-88, .cls-89, .cls-90, .cls-91, .cls-92, .cls-93, .cls-94 {
        stroke-width: 0px;
      }

      .cls-2, .cls-95, .cls-96, .cls-97, .cls-98, .cls-99, .cls-100, .cls-101, .cls-102, .cls-103, .cls-104, .cls-105, .cls-106, .cls-107, .cls-108, .cls-109, .cls-6, .cls-110 {
        stroke-width: .55px;
      }

      .cls-2, .cls-95, .cls-111, .cls-112, .cls-100, .cls-113, .cls-109, .cls-6, .cls-114 {
        stroke: #fff;
      }

      .cls-7 {
        fill: url(#linear-gradient-38);
      }

      .cls-8 {
        fill: url(#linear-gradient-12);
      }

      .cls-9 {
        fill: #939494;
      }

      .cls-10 {
        fill: url(#linear-gradient-51);
        opacity: .9;
      }

      .cls-10, .cls-17, .cls-18, .cls-19, .cls-20, .cls-22, .cls-28, .cls-111, .cls-38, .cls-41, .cls-42, .cls-112, .cls-3, .cls-4, .cls-62, .cls-73, .cls-77, .cls-83, .cls-6, .cls-91, .cls-92, .cls-94 {
        isolation: isolate;
      }

      .cls-11 {
        fill: url(#linear-gradient-19);
      }

      .cls-12 {
        fill: url(#linear-gradient-33);
      }

      .cls-13 {
        fill: url(#linear-gradient);
      }

      .cls-95, .cls-26 {
        fill: #2e3030;
      }

      .cls-14 {
        fill: url(#linear-gradient-62);
      }

      .cls-15 {
        fill: rgba(255, 255, 255, .8);
      }

      .cls-16 {
        fill: rgba(194, 216, 46, .1);
      }

      .cls-17, .cls-115, .cls-94 {
        opacity: .15;
      }

      .cls-17, .cls-75 {
        fill: #b7bea4;
      }

      .cls-18, .cls-19, .cls-20, .cls-22, .cls-116, .cls-28, .cls-111, .cls-38, .cls-112, .cls-3, .cls-62, .cls-73, .cls-77, .cls-83, .cls-6 {
        opacity: .5;
      }

      .cls-18, .cls-74, .cls-91 {
        fill: rgba(194, 216, 46, .2);
      }

      .cls-19 {
        fill: rgba(255, 255, 255, .1);
      }

      .cls-20 {
        fill: url(#linear-gradient-11);
      }

      .cls-21 {
        fill: #6c6d6f;
      }

      .cls-22 {
        fill: url(#linear-gradient-57);
      }

      .cls-117 {
        stroke: url(#linear-gradient-63);
      }

      .cls-117, .cls-118, .cls-119, .cls-120, .cls-96, .cls-121, .cls-97, .cls-111, .cls-122, .cls-36, .cls-98, .cls-123, .cls-99, .cls-112, .cls-100, .cls-101, .cls-124, .cls-125, .cls-102, .cls-103, .cls-104, .cls-105, .cls-113, .cls-106, .cls-126, .cls-107, .cls-108, .cls-109, .cls-110, .cls-114, .cls-127 {
        fill: none;
      }

      .cls-117, .cls-118, .cls-122, .cls-123, .cls-112, .cls-124, .cls-113, .cls-126, .cls-114 {
        stroke-width: 1.65px;
      }

      .cls-23 {
        fill: url(#linear-gradient-21);
      }

      .cls-128 {
        opacity: .2;
      }

      .cls-24 {
        fill: url(#linear-gradient-6);
      }

      .cls-25 {
        fill: #e9e5e5;
      }

      .cls-27 {
        fill: #f5fbfb;
      }

      .cls-129 {
        clip-path: url(#clippath-2);
      }

      .cls-28 {
        fill: url(#linear-gradient-13);
      }

      .cls-130, .cls-4 {
        opacity: .8;
      }

      .cls-118 {
        stroke: url(#linear-gradient-64);
      }

      .cls-29 {
        fill: url(#linear-gradient-15);
      }

      .cls-30 {
        fill: rgba(194, 216, 46, .15);
      }

      .cls-119, .cls-121, .cls-111, .cls-122, .cls-112, .cls-124, .cls-113, .cls-109, .cls-127 {
        stroke-miterlimit: 10;
      }

      .cls-119, .cls-121, .cls-127 {
        stroke-width: 1.1px;
      }

      .cls-119, .cls-122 {
        stroke: #c2d82e;
      }

      .cls-120 {
        stroke: url(#linear-gradient-17);
        stroke-opacity: .5;
      }

      .cls-120, .cls-111, .cls-125 {
        stroke-width: 2.74px;
      }

      .cls-120, .cls-125 {
        stroke-dasharray: 0 0 5.49 2.74;
      }

      .cls-31 {
        fill: rgba(255, 255, 255, .3);
      }

      .cls-96 {
        stroke: url(#linear-gradient-47);
      }

      .cls-121 {
        stroke: rgba(194, 216, 46, .5);
      }

      .cls-32 {
        fill: rgba(255, 255, 255, .4);
      }

      .cls-33 {
        fill: url(#linear-gradient-5);
      }

      .cls-34 {
        fill: rgba(227, 229, 229, .3);
      }

      .cls-97 {
        stroke: url(#linear-gradient-41);
      }

      .cls-35 {
        fill: #dde7c3;
      }

      .cls-37 {
        fill: url(#linear-gradient-31);
      }

      .cls-38, .cls-42 {
        fill: rgba(194, 216, 46, .5);
      }

      .cls-98 {
        stroke: url(#linear-gradient-35);
      }

      .cls-123 {
        stroke: url(#linear-gradient-50);
      }

      .cls-39 {
        fill: url(#linear-gradient-34);
      }

      .cls-40 {
        fill: #bdbbbb;
      }

      .cls-131 {
        clip-path: url(#clippath-1);
      }

      .cls-41, .cls-42, .cls-132, .cls-91, .cls-92 {
        opacity: .3;
      }

      .cls-41, .cls-49 {
        fill: #c2d82e;
      }

      .cls-43 {
        fill: url(#linear-gradient-40);
      }

      .cls-44 {
        fill: url(#linear-gradient-66);
      }

      .cls-99 {
        stroke: url(#linear-gradient-44);
      }

      .cls-45 {
        fill: #7e8283;
      }

      .cls-46 {
        fill: url(#linear-gradient-25);
      }

      .cls-47 {
        fill: url(#linear-gradient-22);
      }

      .cls-48 {
        fill: url(#linear-gradient-54);
      }

      .cls-101 {
        stroke: url(#linear-gradient-46);
      }

      .cls-50 {
        fill: url(#linear-gradient-32);
      }

      .cls-51 {
        fill: url(#linear-gradient-60);
      }

      .cls-52 {
        fill: url(#linear-gradient-2);
      }

      .cls-124 {
        stroke: rgba(255, 255, 255, .5);
      }

      .cls-53 {
        fill: url(#linear-gradient-52);
      }

      .cls-125 {
        stroke: url(#linear-gradient-16);
      }

      .cls-54 {
        fill: #d3d1d0;
      }

      .cls-102 {
        stroke: rgba(255, 255, 255, .3);
      }

      .cls-55 {
        fill: #9ba782;
      }

      .cls-56 {
        fill: url(#linear-gradient-7);
      }

      .cls-57 {
        fill: url(#linear-gradient-39);
      }

      .cls-58 {
        fill: #8e5da6;
      }

      .cls-59 {
        fill: url(#linear-gradient-3);
      }

      .cls-60 {
        fill: #c4c4c4;
      }

      .cls-103 {
        stroke: url(#linear-gradient-45);
      }

      .cls-61 {
        fill: #1c77b7;
      }

      .cls-62 {
        fill: url(#linear-gradient-55);
      }

      .cls-133 {
        clip-path: url(#clippath);
      }

      .cls-104 {
        stroke: url(#linear-gradient-36);
      }

      .cls-63 {
        fill: url(#linear-gradient-9);
      }

      .cls-64 {
        fill: url(#linear-gradient-27);
      }

      .cls-65 {
        fill: #c8c8c8;
      }

      .cls-66 {
        fill: url(#linear-gradient-20);
      }

      .cls-66, .cls-78 {
        fill-opacity: .3;
      }

      .cls-67 {
        fill: url(#linear-gradient-53);
      }

      .cls-68 {
        fill: url(#linear-gradient-65);
      }

      .cls-69 {
        fill: #a3aa91;
      }

      .cls-70 {
        fill: url(#linear-gradient-8);
      }

      .cls-105 {
        stroke: url(#linear-gradient-24);
      }

      .cls-71 {
        fill: url(#linear-gradient-26);
      }

      .cls-72 {
        fill: url(#linear-gradient-61);
      }

      .cls-73 {
        fill: url(#linear-gradient-58);
      }

      .cls-76 {
        fill: #f8f5f4;
      }

      .cls-77 {
        fill: url(#linear-gradient-59);
      }

      .cls-78 {
        fill: url(#linear-gradient-18);
      }

      .cls-79 {
        fill: url(#linear-gradient-30);
      }

      .cls-80 {
        fill: rgba(255, 255, 255, .5);
      }

      .cls-81 {
        fill: #272929;
      }

      .cls-134 {
        mask: url(#mask-1);
      }

      .cls-135 {
        mask: url(#mask);
      }

      .cls-82 {
        fill: url(#linear-gradient-29);
      }

      .cls-106 {
        stroke: url(#linear-gradient-37);
      }

      .cls-126 {
        stroke: url(#linear-gradient-49);
      }

      .cls-83 {
        fill: url(#linear-gradient-23);
      }

      .cls-107 {
        stroke: url(#linear-gradient-42);
      }

      .cls-84 {
        fill: url(#linear-gradient-28);
      }

      .cls-85 {
        fill: url(#linear-gradient-56);
      }

      .cls-86 {
        fill: url(#linear-gradient-10);
      }

      .cls-108 {
        stroke: url(#linear-gradient-48);
      }

      .cls-87 {
        fill: url(#linear-gradient-4);
      }

      .cls-110 {
        stroke: url(#linear-gradient-43);
      }

      .cls-88 {
        fill: #b1bb96;
      }

      .cls-89 {
        fill: #b5b9bc;
      }

      .cls-90 {
        fill: rgba(255, 255, 255, .25);
      }

      .cls-92 {
        fill: url(#linear-gradient-14);
      }

      .cls-93 {
        fill: #47c2c6;
      }

      .cls-94 {
        fill: #d03938;
      }

      .cls-127 {
        stroke: rgba(194, 216, 46, .3);
      }
    </style>
    <mask id="mask" x="128" y="30.82" width="1593.04" height="1084.43" maskUnits="userSpaceOnUse">
      <g id="mask0_65_11620" data-name="mask0 65 11620">
        <rect class="cls-60" x="128" y="30.82" width="1593.04" height="1084.43"/>
      </g>
    </mask>
    <linearGradient id="linear-gradient" x1="666.07" y1="-478.58" x2="729.35" y2="-819.42" gradientTransform="translate(564 137.12) scale(1 -1)" gradientUnits="userSpaceOnUse">
      <stop offset="0" stop-color="#6d3d97"/>
      <stop offset="1" stop-color="#c982b7"/>
    </linearGradient>
    <linearGradient id="linear-gradient-2" x1="-90.86" y1="-253.2" x2="201.47" y2="-711.13" xlink:href="#linear-gradient"/>
    <linearGradient id="linear-gradient-3" x1="158.05" y1="-311.6" x2="304.68" y2="-531.34" xlink:href="#linear-gradient"/>
    <linearGradient id="linear-gradient-4" x1="194.76" y1="-446.22" x2="303.65" y2="-540.85" xlink:href="#linear-gradient"/>
    <linearGradient id="linear-gradient-5" x1="149.75" y1="-475.84" x2="186.07" y2="-479.26" xlink:href="#linear-gradient"/>
    <linearGradient id="linear-gradient-6" x1="70.97" y1="-230.2" x2="5.76" y2="-629.12" xlink:href="#linear-gradient"/>
    <linearGradient id="linear-gradient-7" x1="207.84" y1="-523.86" x2="344.23" y2="-630.96" xlink:href="#linear-gradient"/>
    <linearGradient id="linear-gradient-8" x1="70.63" y1="-313.3" x2="132" y2="-360.4" xlink:href="#linear-gradient"/>
    <linearGradient id="linear-gradient-9" x1="241.45" y1="-392.41" x2="577.39" y2="-661.47" xlink:href="#linear-gradient"/>
    <linearGradient id="linear-gradient-10" x1="-128.64" y1="-16.67" x2="214.41" y2="-473.55" xlink:href="#linear-gradient"/>
    <clipPath id="clippath">
      <rect class="cls-36" x="260.2" y="808.64" width="83.86" height="191.01"/>
    </clipPath>
    <clipPath id="clippath-1">
      <rect class="cls-36" x="301.42" y="682.95" width="110.65" height="158.4"/>
    </clipPath>
    <linearGradient id="linear-gradient-11" x1="-280.78" y1="-573.45" x2="-133.62" y2="-676.42" xlink:href="#linear-gradient"/>
    <clipPath id="clippath-2">
      <rect class="cls-36" x="347.69" y="762.15" width="53.58" height="59.4"/>
    </clipPath>
    <linearGradient id="linear-gradient-12" x1="-181.26" y1="-636.84" x2="-191.66" y2="-659.36" gradientTransform="translate(564 137.12) scale(1 -1)" gradientUnits="userSpaceOnUse">
      <stop offset="0" stop-color="#c2d82e"/>
      <stop offset="1" stop-color="#c2d82e" stop-opacity="0"/>
    </linearGradient>
    <linearGradient id="linear-gradient-13" x1="-133.67" y1="-268.73" x2="-90.02" y2="-292.89" xlink:href="#linear-gradient"/>
    <linearGradient id="linear-gradient-14" x1="406.24" y1="183.71" x2="750.11" y2="-276.39" xlink:href="#linear-gradient"/>
    <linearGradient id="linear-gradient-15" x1="581.58" y1="92.72" x2="692.89" y2="-204.97" gradientTransform="translate(564 137.12) scale(1 -1)" gradientUnits="userSpaceOnUse">
      <stop offset=".77" stop-color="#c2d82e" stop-opacity=".47"/>
      <stop offset="1" stop-color="#9ecc3b" stop-opacity="0"/>
    </linearGradient>
    <linearGradient id="linear-gradient-16" x1="651.62" y1="-126.28" x2="651.62" y2="-214.15" gradientTransform="translate(564 137.12) scale(1 -1)" gradientUnits="userSpaceOnUse">
      <stop offset="0" stop-color="#c2d82e"/>
      <stop offset="1" stop-color="#c2d82e" stop-opacity="0"/>
    </linearGradient>
    <linearGradient id="linear-gradient-17" x1="765.24" y1="-110.99" x2="765.13" y2="-160.66" xlink:href="#linear-gradient-16"/>
    <linearGradient id="linear-gradient-18" x1="705.31" y1="-244.64" x2="705.31" y2="-290.51" xlink:href="#linear-gradient-16"/>
    <linearGradient id="linear-gradient-19" x1="704.1" y1="-237.39" x2="704.1" y2="-283.26" xlink:href="#linear-gradient-16"/>
    <linearGradient id="linear-gradient-20" x1="809.17" y1="-197.98" x2="809.17" y2="-229.59" xlink:href="#linear-gradient-16"/>
    <linearGradient id="linear-gradient-21" x1="809.17" y1="-191.93" x2="809.17" y2="-223.53" xlink:href="#linear-gradient-16"/>
    <linearGradient id="linear-gradient-22" x1="217.83" y1="-302.96" x2="317.11" y2="-418.64" xlink:href="#linear-gradient"/>
    <linearGradient id="linear-gradient-23" x1="274.42" y1="-678.39" x2="278.02" y2="-889.2" gradientTransform="translate(564 137.12) scale(1 -1)" gradientUnits="userSpaceOnUse">
      <stop offset=".08" stop-color="#fff"/>
      <stop offset="1" stop-color="#fff" stop-opacity="0"/>
    </linearGradient>
    <mask id="mask-1" x="1279.97" y="484.53" width="75.85" height="151.6" maskUnits="userSpaceOnUse">
      <g id="mask1_65_11620" data-name="mask1 65 11620">
        <path class="cls-21" d="M1350.59,561.51l-70.01-40.83c-7.56-37.27,57.2-38.95,64.76-34.29,7.58,4.66,10.48,19.22,10.48,35.52,0,13.04-3.49,31.84-5.23,39.6Z"/>
      </g>
    </mask>
    <linearGradient id="linear-gradient-24" x1="-324.25" y1="-423.13" x2="86.56" y2="-795.17" gradientTransform="translate(564 137.12) scale(1 -1)" gradientUnits="userSpaceOnUse">
      <stop offset="0" stop-color="#80bd42"/>
      <stop offset="1" stop-color="#c1d83d"/>
    </linearGradient>
    <linearGradient id="linear-gradient-25" x1="-353.25" y1="-991.51" x2="-344.12" y2="-1020.34" gradientTransform="translate(902.49 -151.69) scale(1 -1)" xlink:href="#linear-gradient-24"/>
    <linearGradient id="linear-gradient-26" x1="-349.38" y1="-999.98" x2="-347.61" y2="-1011.7" gradientTransform="translate(902.49 -151.72) scale(1 -1)" xlink:href="#linear-gradient-24"/>
    <linearGradient id="linear-gradient-27" x1="-1129.59" y1="677.3" x2="-1120.46" y2="648.47" gradientTransform="translate(-720.67 -102.46) rotate(-180) scale(1 -1)" xlink:href="#linear-gradient-24"/>
    <linearGradient id="linear-gradient-28" x1="-1125.94" y1="668.66" x2="-1124.19" y2="656.95" gradientTransform="translate(-720.87 -102.27) rotate(-180) scale(1 -1)" xlink:href="#linear-gradient-24"/>
    <linearGradient id="linear-gradient-29" x1="361.81" y1="-229.86" x2="370.95" y2="-258.69" gradientTransform="translate(1039.09 474.6) rotate(90) scale(1 -1)" xlink:href="#linear-gradient-24"/>
    <linearGradient id="linear-gradient-30" x1="365.68" y1="-238.48" x2="367.43" y2="-250.2" gradientTransform="translate(1039.32 474.52) rotate(90) scale(1 -1)" xlink:href="#linear-gradient-24"/>
    <linearGradient id="linear-gradient-31" x1="1089.52" y1="-297.62" x2="1098.66" y2="-326.45" gradientTransform="translate(1833.69 -53.15) rotate(90) scale(1 -1)" xlink:href="#linear-gradient-24"/>
    <linearGradient id="linear-gradient-32" x1="1093.39" y1="-306.25" x2="1095.14" y2="-317.96" gradientTransform="translate(1833.92 -53.23) rotate(90) scale(1 -1)" xlink:href="#linear-gradient-24"/>
    <linearGradient id="linear-gradient-33" x1="981.22" y1="229.73" x2="990.37" y2="200.91" gradientTransform="translate(1291.4 -499.94) rotate(90) scale(1 -1)" xlink:href="#linear-gradient-24"/>
    <linearGradient id="linear-gradient-34" x1="985.1" y1="221.1" x2="986.85" y2="209.38" gradientTransform="translate(1291.63 -500.01) rotate(90) scale(1 -1)" xlink:href="#linear-gradient-24"/>
    <linearGradient id="linear-gradient-35" x1="129.26" y1="-574.34" x2="293.12" y2="-831.39" xlink:href="#linear-gradient-24"/>
    <linearGradient id="linear-gradient-36" x1="-437.26" y1="-704.72" x2="-349.27" y2="-857" gradientTransform="translate(564 137.12) scale(1 -1)" gradientUnits="userSpaceOnUse">
      <stop offset="0" stop-color="#80bd42" stop-opacity="0"/>
      <stop offset="1" stop-color="#c1d83d"/>
    </linearGradient>
    <linearGradient id="linear-gradient-37" x1="195.29" y1="-499.58" x2="271.18" y2="-714.53" xlink:href="#linear-gradient-24"/>
    <linearGradient id="linear-gradient-38" x1="296.58" y1="-699.09" x2="317.84" y2="-720.35" xlink:href="#linear-gradient"/>
    <linearGradient id="linear-gradient-39" x1="234.78" y1="-629.9" x2="274.42" y2="-669.54" xlink:href="#linear-gradient"/>
    <linearGradient id="linear-gradient-40" x1="222.17" y1="-721.79" x2="247.4" y2="-747.01" xlink:href="#linear-gradient"/>
    <linearGradient id="linear-gradient-41" x1="-464.32" y1="-381.91" x2="-164.11" y2="-482.67" xlink:href="#linear-gradient-36"/>
    <linearGradient id="linear-gradient-42" x1="1368.63" y1="-1141.15" x2="346.01" y2="-551.23" xlink:href="#linear-gradient-36"/>
    <linearGradient id="linear-gradient-43" x1="353.96" y1="-262.15" x2="600.74" y2="-499.83" xlink:href="#linear-gradient-24"/>
    <linearGradient id="linear-gradient-44" x1="1126.29" y1="-454.25" x2="785.81" y2="-257.44" xlink:href="#linear-gradient-36"/>
    <linearGradient id="linear-gradient-45" x1="1134.91" y1="50.77" x2="719.24" y2="-179.88" xlink:href="#linear-gradient-36"/>
    <linearGradient id="linear-gradient-46" x1="86.3" y1="145.3" x2="596.57" y2="-148.42" xlink:href="#linear-gradient-36"/>
    <linearGradient id="linear-gradient-47" x1="-232.72" y1="4.66" x2="65.97" y2="-170.41" xlink:href="#linear-gradient-36"/>
    <linearGradient id="linear-gradient-48" x1="490.51" y1="-1069.69" x2="323.06" y2="-962.76" xlink:href="#linear-gradient-36"/>
    <linearGradient id="linear-gradient-49" x1="-64.7" y1="-1084.37" x2="248.08" y2="-891.07" gradientTransform="translate(564 137.12) scale(1 -1)" gradientUnits="userSpaceOnUse">
      <stop offset="0" stop-color="#6d3d97" stop-opacity="0"/>
      <stop offset="1" stop-color="#c982b7"/>
    </linearGradient>
    <linearGradient id="linear-gradient-50" x1="-65" y1="-301.75" x2="431.6" y2="-1073.55" xlink:href="#linear-gradient"/>
    <linearGradient id="linear-gradient-51" x1="396.93" y1="-398.05" x2="452.46" y2="-445.36" xlink:href="#linear-gradient"/>
    <linearGradient id="linear-gradient-52" x1="410.64" y1="-410.03" x2="421.01" y2="-425.94" xlink:href="#linear-gradient-24"/>
    <linearGradient id="linear-gradient-53" x1="416" y1="-408.62" x2="435.2" y2="-441.03" xlink:href="#linear-gradient-24"/>
    <linearGradient id="linear-gradient-54" x1="408.33" y1="-421.15" x2="415.93" y2="-430.85" xlink:href="#linear-gradient-24"/>
    <linearGradient id="linear-gradient-55" x1="408.33" y1="-433.27" x2="415.93" y2="-442.97" xlink:href="#linear-gradient-24"/>
    <linearGradient id="linear-gradient-56" x1="423.53" y1="-425.45" x2="431.13" y2="-435.15" xlink:href="#linear-gradient-24"/>
    <linearGradient id="linear-gradient-57" x1="420.07" y1="-414.89" x2="427.65" y2="-424.59" xlink:href="#linear-gradient-24"/>
    <linearGradient id="linear-gradient-58" x1="435.27" y1="-419.19" x2="442.86" y2="-428.89" xlink:href="#linear-gradient-24"/>
    <linearGradient id="linear-gradient-59" x1="430.48" y1="-400.56" x2="440.27" y2="-415.07" xlink:href="#linear-gradient-24"/>
    <linearGradient id="linear-gradient-60" x1="14.64" y1="-905.12" x2="24.88" y2="-915.36" xlink:href="#linear-gradient"/>
    <linearGradient id="linear-gradient-61" x1="672.96" y1="-482.91" x2="675.76" y2="-670.35" xlink:href="#linear-gradient"/>
    <linearGradient id="linear-gradient-62" x1="485.18" y1="-163.58" x2="713.84" y2="-572.56" xlink:href="#linear-gradient"/>
    <linearGradient id="linear-gradient-63" x1="-455.1" y1="-283.87" x2="-101.19" y2="-438.03" gradientTransform="translate(564 137.12) scale(1 -1)" gradientUnits="userSpaceOnUse">
      <stop offset="0" stop-color="#6d3d97" stop-opacity="0"/>
      <stop offset=".84" stop-color="#c982b7"/>
      <stop offset=".98" stop-color="#c982b7" stop-opacity="0"/>
    </linearGradient>
    <linearGradient id="linear-gradient-64" x1="613.2" y1="-497.67" x2="813.31" y2="-950.84" xlink:href="#linear-gradient"/>
    <linearGradient id="linear-gradient-65" x1="972.12" y1="-664.5" x2="982.36" y2="-674.75" xlink:href="#linear-gradient"/>
    <linearGradient id="linear-gradient-66" x1="349.24" y1="-921.81" x2="363.76" y2="-921.81" gradientTransform="translate(564 137.12) scale(1 -1)" gradientUnits="userSpaceOnUse">
      <stop offset="0" stop-color="#fff"/>
      <stop offset=".99" stop-color="#e5e4ec"/>
    </linearGradient>
  </defs>
  <g class="cls-135">
    <g>
      <path class="cls-13" d="M1402.39,720.61v-81.62c0,17.1-17.69,56.55-88.41,77.54-88.41,26.23-155.89,0-166.36-2.92-8.38-2.33-27.53-12.24-36.07-16.91l-21.49-11.67v81.31c8.68,5.01,28.04,16.05,36.04,20.14,60.49,33.23,143.09,34.4,211.14,4.08,54.45-24.25,66.12-56.74,65.15-69.96Z"/>
      <path class="cls-52" d="M699.68,588.32v83.84c-.39.19-3.15-.58-11.07-5.24-9.91-5.82-57.06-33.18-71.63-41.92-14.56-8.73-28.54-25.03-33.2-30.27-7.56-1.75-41.35-9.31-68.71-23.29-27.37-13.97-43.1-29.69-52.99-42.5-9.91-12.81-14.56-21.54-14.56-50.07v-67.83c-.11-1.64-.11-3.11,0-4.36v4.36c.94,13.58,10.27,39.4,43.09,61.43,36.81,24.68,76.68,35.51,92.01,37.84.79.19,2.8,1.28,4.66,4.07,2.33,3.49,9.91,15.72,39.02,32.6,23.29,13.51,48.91,28.14,58.82,33.77l12.24,6.99c.18.2.92.58,2.33.58Z"/>
      <path class="cls-59" d="M724.07,551.31l-59.87-35.5c-.79-.2-1.86-.7,0-1.16,26.74-3.49,56.97-6.98,99.41-31.43,33.94-19.55,43.98-48.11,44.75-59.94v66.93c0,17.46,0,26.77-9.88,43.65-16.74,26.54-56.2,45.2-73.83,51.21l-.57-33.75Z"/>
      <path class="cls-124" d="M701.67,622.11c6.16,3.75,12.31,7.17,17.09,9.9,2.06,1.02,4.11,2.39,6.5,3.75,1.03.68,1.36,1.36.68,2.05l-23.59,33.1c-1.03,1.37-3.75,1.71-5.47.68l-68.04-39.24c-19.49-11.26-34.19-23.88-43.77-36.85-1.03-.68-1.36-1.02-2.04-1.02-27.36-5.46-53.69-14.67-76.95-28.32-74.88-43-78.64-105.1-7.86-146.05,8.35-4.81,12.55-7.3,21.82-10.94M642.96,556.49c21.54-2.05,41.62-7.75,59.74-18.33M704.06,451.15c-42.39-24.57-105.31-25.25-150.1,1.02-19.74,11.43-30.58,24.91-32.88,38.51M600.8,501.65c1.38-1.02,3.77-1.02,5.13-.34l25.65,15.01,19.83,11.6c1.03.68,1.38,1.71.35,2.39-8.21,7.85-12.66,16.04-13.67,24.23M809.01,494.77c2.18,26.52-14.17,54.62-50.23,75.48-18,10.32-38.05,17.84-59.3,22.75"/>
      <path class="cls-87" d="M776.01,563.49l28.21,15.75c4.9,2.72,15.05,8.4,16.45,9.34,1.41.93.98,2.33.59,2.92l-32.91,47.26v15.17l-12.34-7v-83.44Z"/>
      <path class="cls-33" d="M703.14,584.94l12.69-17.45,9.24-13.96c.38,23.46,1.15,71.42,1.15,75.61s-.38,7.17-.57,8.14c-4.23,5.82-13.38,18.49-16.17,22.68-2.77,4.19-7.3,9.89-9.23,12.21,0-23.65-.12-73.63-.57-84.33.92,0,2.69-1.94,3.46-2.91Z"/>
      <path class="cls-24" d="M631.68,432.28c35.81-.46,64.53,12.98,74.42,19.76,29.64-20.92,35.46-43.01,23.25-62.77-12.2-19.76-54.64-40.68-99.41-40.68s-67.44,15.11-83.14,23.83c-15.7,8.72-25,26.15-26.16,36.03-1.16,9.88,2.9,23.25,15.12,33.71,12.2,10.46,29.64,20.34,33.14,19.18,3.48-1.16.57-1.74,7.55-16.27,6.99-14.53,20.93-25.57,23.85-27.9,2.31-1.86,6-.39,7.55.58,2.13,1.36,9.89,6.16,23.83,14.53Z"/>
      <path class="cls-56" d="M847.36,754.56v-83.71c-2.33,1.41-5.64-.59-7-1.76l-50.74-29.27c-.39,23.03-1.16,70.48-1.16,76.1s1.56,8.59,2.33,9.37c13.02,7.42,40.59,23.18,46.66,26.93,6.06,3.75,9.15,3.12,9.92,2.34Z"/>
      <path class="cls-70" d="M640.8,461.65c2.43-6.15,7.52-12.43,9.75-14.79l1.83-1.18v26.63c-2.65.39-8.67,1.07-11.58.59-3.66-.59-3.06-3.55,0-11.24Z"/>
      <path class="cls-63" d="M976.22,560.66l-128.85,192.01v-82.87c1.56-1.94,5.82-7.59,10.5-14.59,4.66-7,81.23-121.59,118.93-178v77.04c0,5.6-.38,6.62-.57,6.42Z"/>
      <path class="cls-86" d="M702.34,586.27c-1.03,1.36-3.77,1.7-5.47.68l-68.04-39.23c-19.48-11.26-34.18-23.88-43.75-36.84-1.03-.68-1.38-1.02-2.06-1.02-27.36-5.46-53.69-14.67-76.93-28.31-74.88-42.98-78.64-105.06-7.86-145.99,70.1-40.59,177.11-38.88,252.34,4.43,74.88,42.98,78.64,105.06,7.86,145.99-27.01,15.69-59.5,24.9-93.34,28.31-1.38,0-1.71,1.02-1.03,1.71,1.71,1.02,20.52,12.28,37.26,21.83,6.16,3.75,12.31,7.16,17.1,9.89,2.04,1.02,4.1,2.39,6.49,3.75,1.03.68,1.38,1.36.7,2.05l-23.26,32.75ZM642.16,472.35c21.54-2.05,42.41-8.19,60.53-18.76,45.13-25.92,43.77-62.42,1.36-86.64-42.39-24.56-105.31-25.24-150.1,1.02-45.13,25.92-44.1,62.08-1.36,86.64,4.1,2.39,8.89,4.78,13.34,6.48,2.04,1.02,5.13,0,5.46-1.36,3.09-15.35,13.69-31.04,29.07-42.64,1.36-1.02,3.77-1.02,5.13-.34l25.65,15.01,19.83,11.6c1.03.68,1.36,1.7.35,2.39-8.21,7.85-12.66,16.03-13.69,24.22,0,.68.35,1.36,1.03,1.71,1.03.68,2.06,1.02,3.42.68Z"/>
      <path class="cls-113" d="M976.06,558.69c1.03.68,1.36,1.37.68,2.05l-23.25,34.47-106.64,158.68c-1.03,1.36-3.77,1.71-5.47.68l-52.3-30.37c-1.01-.68-1.36-1.36-.68-2.05M788.5,654.62l-12.73-7.55c-1.71-1.02-1.03-2.73,1.03-3.07M789.66,640.66c11.45-3.28,22.55-7.28,33.27-12.02,1.36-.68,3.42-.68,4.45,0l1.01.34,2.06,1.02,14.02,7.85c1.36.68,3.42.34,4.1-.34l75.19-105.79c1.03-1.36,3.77-1.71,5.47-.68l7.76,4.58"/>
      <path class="cls-113" d="M702.28,586.67c-1.03,1.37-3.77,1.71-5.47.68l-68.01-39.24c-19.49-11.26-34.18-23.89-43.75-36.85-1.03-.68-1.38-1.02-2.06-1.02-27.34-5.46-53.66-14.67-76.9-28.32-74.86-43-78.61-105.11-7.86-146.06,70.07-40.61,177.05-38.9,252.26,4.44,74.85,43,78.61,105.11,7.85,146.05-27,15.7-59.47,24.91-93.31,28.32-1.36,0-1.71,1.02-1.01,1.71,1.71,1.02,20.51,12.28,37.25,21.84,6.16,3.76,12.31,7.17,17.09,9.9,2.06,1.02,4.1,2.39,6.49,3.75,1.03.68,1.38,1.37.7,2.05l-23.25,32.76ZM642.12,472.7c21.54-2.05,42.39-8.19,60.49-18.77,45.13-25.94,43.75-62.45,1.38-86.68-42.39-24.57-105.28-25.25-150.06,1.02-45.11,25.94-44.09,62.11-1.36,86.68,4.1,2.39,8.88,4.78,13.32,6.49,2.06,1.02,5.13,0,5.47-1.37,3.07-15.36,13.67-31.05,29.05-42.66,1.36-1.02,3.75-1.02,5.13-.34l25.63,15.02,19.83,11.6c1.03.68,1.36,1.71.33,2.39-8.2,7.85-12.64,16.04-13.67,24.23,0,.68.35,1.37,1.03,1.71,1.03.68,2.06,1.02,3.42.68Z"/>
      <path class="cls-113" d="M776.17,562.6v83.86"/>
      <path class="cls-109" d="M821.59,591.71l1.16,36.11"/>
      <path class="cls-113" d="M788.98,640.63l-1.16,81.53"/>
      <path class="cls-113" d="M847.21,669.75v83.86"/>
      <path class="cls-109" d="M925.25,447.29v83.86"/>
      <path class="cls-112" d="M976.5,477.57v81.53"/>
      <path class="cls-113" d="M699.98,587.65v83.86"/>
      <path class="cls-113" d="M724.92,550.95l1.16,86.19"/>
      <path class="cls-113" d="M582.83,510.19l2.33,85.02"/>
      <path class="cls-113" d="M651.06,445.56v25.62"/>
      <path class="cls-109" d="M447.72,405.36v67.71"/>
      <path class="cls-113" d="M808.78,418.17v76.87"/>
      <g class="cls-116">
        <path class="cls-113" d="M1106.46,776.33c77.93,45.04,175.21,47.59,246.98,5.96,29.93-17.36,46.19-37.51,49.33-58.37M1155.39,668.02c-.7.68,2.47,2.57,3.49,2.91,1.03.68,6.78,5.1,8.15,4.08l72.93-40.47c1.38-.68,3.42-.68,4.79,0l47.85,27.64c1.65.95,3.24,1.92,4.78,2.89"/>
        <path class="cls-113" d="M1089.64,681.31v85.46"/>
        <path class="cls-113" d="M1144.6,603.48v59.88"/>
        <path class="cls-113" d="M1403.35,644.09v80.54"/>
        <path class="cls-114" d="M1242.41,550.25v83.65"/>
      </g>
      <path class="cls-3" d="M918.44,981.52l-9.18,5.32-18.27-10.55,9.26-5.32,18.19,10.55Z"/>
      <path class="cls-4" d="M909.52,986.87l-.23.85-.88-.49s-1.53-.9-1.53-.9l-5.13-2.99-4.22-2.44c-.09-.03-.23-.11-.23-.11l-3.18-1.84-1.65-.96-1.5-.88v-.85l1.69.99.82.44s4.48,2.58,4.48,2.58l.65.38,3.19,1.81,5.88,3.37.85.47s.85.49.85.49l.12.08Z"/>
      <g class="cls-115">
        <path class="cls-94" d="M912.02,975.06s-5.22-2.6-6.4-.93c-1.18,1.67,0,3.97,0,3.97,0,0,1.51.6,1.81-.38l.27-.96,4.25,4.17,6.38-7.48-6.32,1.62Z"/>
      </g>
      <path class="cls-69" d="M901.81,982.45c0,.38-.02.6-.05.88-.3,1.59-1.12,3.29-1.21,4.28-.08.71-.44,2-.64,2.74-.11.38-.18.63-.18.63l-.5.11-.41.08-.64.14-1.48.33-.48-.38c.17-1.04.88-2.19,1.75-2.96.08-.05.14-.14.21-.16l-1.53-4.33-2.56-4.88,3.19,1.84.08.14c.14-.14.35-.36.54-.63.2-.36.39-.77.3-1.23-.2-1.04-1.07-3.04-.91-3.56,0-.05.06-.14.14-.22.3-.36,1.07-.41,1.92,1.12,1.04,1.78,2.42,4.33,2.44,6.08Z"/>
      <path class="cls-3" d="M959.78,991.25c-.64.66-2.5,1.15-4.33,1.42-1.88.25-3.74.22-4.28-.19-.68-.52-.54-15.1-.3-26.14.14-6.8.3-12.25.3-12.25,0,0,6.58,3.15,7.7,14.14,1.15,10.96,2.16,21.7.91,23.02Z"/>
      <path class="cls-3" d="M953.41,1096.59c-.32,1.84-3.52,3.73-7.61,2.27-.14-.03-.26-.08-.39-.14-4.26-1.7-4.02-4.99-7.74-8.61-3.74-3.62-3.95-7.01-3.77-7.54.14-.55,6.81.82,9.78,1.43.53.11,1.13.38,1.81.77,3.15,1.73,7.34,5.65,7.34,5.65,0,0,.91,4.3.57,6.17Z"/>
      <path class="cls-80" d="M923.43,1111.01c-.41.03-.79.03-1.18.03-2.98-.03-5.4-.63-9.29-1.29-4.25-.69-6.03.27-10.57-1.32-2.99-1.07-3.77-3.26-3.93-4.63-.08-.69.8-1.53,1.48-1.59,9.13-.38,15.21-1.21,15.21-1.21,0,0,1.81-.19,4.02-.14,3.33.05,7.55.63,8.03,3.07.83,4.05-.18,6.88-3.78,7.07Z"/>
      <path class="cls-80" d="M922.25,1111.04c-2.98-.03-5.4-.63-9.29-1.29-4.25-.69-6.03.27-10.57-1.32-2.99-1.07-3.77-3.26-3.93-4.63-.08-.69.8-1.53,1.48-1.59,9.13-.38,15.21-1.21,15.21-1.21,0,0,1.81-.19,4.02-.14l-.24,5.45s1.48,2.55,3.31,4.71Z"/>
      <path class="cls-95" d="M954.26,1012.99c-.11.08-.24.18-.42.32-.36.26-.95.64-1.77,1.1-2.9,1.64-8.67,4-17.48,4.08h0c-2.78.03-5.17-.08-7.2-.3-1.15-.14-2.18-.27-3.1-.46h0c-3.39-.65-5.26-1.67-6.16-2.64h0c-.51-.54-.73-1.06-.77-1.56-.02-.23.03-.64.11-1.22.09-.57.21-1.28.36-2.09.12-.6.24-1.26.38-1.96.23-1.18.48-2.47.73-3.8.39-2.13.76-4.37.95-6.44.2-2.07.24-4-.02-5.49h0c-.2-1.15-.67-2.57-1.23-4.14-.17-.46-.33-.92-.51-1.41-.44-1.19-.89-2.45-1.33-3.77-.08-.24-.15-.48-.23-.72-.26-.86-.51-1.71-.73-2.6h0c-.91-3.59-1.29-7.31-.2-10.74.41-1.32,1.09-2.68,2.03-3.86.14-.11.33-.28.51-.45.05-.03.09-.07.12-.1.45-.38,1.15-.91,2.1-1.53h0c.45-.33.98-.65,1.59-1h.02c.89-.55,1.89-1.11,3.05-1.68h0c.38-.19.79-.38,1.21-.57h0s.02-.01.02-.01c.23-.13.45-.23.73-.33h.02c.42-.2.89-.38,1.38-.57h.02s.02-.02.02-.02c.06-.03.11-.05.18-.08.02,0,.05-.02.06-.02.09-.04.2-.08.3-.14.03-.02.08-.03.12-.04.15-.05.32-.11.5-.2.71-.27,1.41-.54,2.15-.78h.03s.03-.02.03-.02c.06-.03.14-.05.24-.08h.01s.02,0,.02,0c2.34-.79,4.93-1.5,7.82-2.01h0c.98-.19,2.01-.35,3.06-.52,2.47-.32,5.11-.59,7.92-.65.02.02.03.04.05.07.06.1.15.23.24.39.03.05.08.11.11.16,1.03,1.87,3.33,6.68,2.83,13.02-.18,2.06-.42,4.02-.65,5.97-.14,1.02-.26,2.04-.36,3.06-.6,4.88-1.13,9.76-.86,15.47.26,5.52.94,11.87,1.44,16.03h0c.18,1.41.35,2.56.45,3.36l.14.93v.08Z"/>
      <path class="cls-75" d="M943.03,952.89c-.03.85-.06,1.86-.06,2.79,0,1.18-.03.9-.03.66-.02.41-.18,1.37-1.39,2.03-2.39,1.32-5.47,1.62-8,1.56-.54,0-1.04-.08-1.51-.19-1.8-.38-3.01-1.26-3.15-1.29.05-.25.14-1.78.3-4.8.03-.38-.23-.74-.57-.82-1.1-.33-3.24-1.15-4.52-3.84-.94-1.89-1.45-11.59-1.45-11.7,0-.14.17-.11.51.05.47.22,1.18.69,2.12,1.34.14.11.3.22.48.33,5.67,4.03,17.27,13.54,17.27,13.87Z"/>
      <g class="cls-115">
        <path class="cls-17" d="M932.04,952.97v6.77c-1.8-.38-3.01-1.26-3.15-1.29.05-.25.14-1.78.3-4.8.03-.38-.23-.74-.57-.82-1.1-.33-3.24-1.15-4.52-3.84-.94-1.89-1.45-11.59-1.45-11.7,0-.14.17-.11.51.05.82.77,1.65,1.42,2.12,1.34.05,0,.11-.03.14-.05.14-.11.24.05.32.38.56,2,1.89,1.54,3.06,2.58,1.29,1.15,3.25,11.37,3.25,11.37Z"/>
      </g>
      <path class="cls-26" d="M947.74,940.72c-.35,1.48-1.83,4.82-2.1,6.33-.24,1.32-2.6,5.84-2.6,5.84-2.19,1.34-5.84,1.81-7.68,1.7-.44-.03-.76-.08-.95-.16-.11-.05-.3-.14-.54-.25-1.98-.9-3.43-2.68-3.95-4.8l-.11-.49c-.2-.74-.23-1.51-.17-2.25.02-.38.05-.82.02-1.31-.14-2.58-1.32-2.96-2.21-3.12-.94-.19-1.07,2.63-1.07,2.63l-1.24-.38-.18-4.03c0-.41-.14-.82-.41-1.12-1-1.12-4.39-1.84-4.39-6.14,0-1.94,2.07-8.8,12.46-8.91,1.38,0,2.9.08,4.61.33,11.22,1.67,11.42,12.39,10.51,16.14Z"/>
      <path class="cls-5" d="M923.19,976.89v.19c0,1.45-.11,2.74-.33,3.95-.77,4.93-2.87,7.95-3.64,8.93-.2.22-.33.36-.33.36-.18.85-2.1,8.66-4.7,15.4-.41,1.12-.88,2.25-1.32,3.26-1.72,3.81-3.64,6.63-5.46,6.55h-.17c-.35-.05-.68-.16-1.04-.41-.51-.33-1.06-.82-1.56-1.42-.44-.49-.88-1.07-1.26-1.73-1.71-2.74-3.3-6.63-4.52-10.25-.71-2.14-1.32-4.17-1.75-5.81-.47-1.7-.74-2.99-.77-3.51-.03-.08-.03-.16-.03-.19,0-.22-.08-.33-.08-.49,0-.14,0-.33.03-.47.17-1.04.88-2.19,1.75-2.96.08-.06.14-.14.21-.16.14-.14.33-.25.47-.36.47-.25.88-.36,1.21-.36.21,0,.45.05.65.14.17.11.33.25.44.47,0,0,.23.49.64,1.29.38.82.91,1.92,1.48,3.1.88,1.84,1.83,3.89,2.51,5.37.44.85.71,1.51.88,1.78,0-.36.09-1.21.23-2.44.21-1.81.64-4.47,1.21-7.51.05-.3.11-.55.14-.82.11-.55.18-1.12.32-1.7.06-.22.12-.49.17-.74.12-.49.17-.85.26-1.21.14-.66.32-1.29.45-1.97.33-1.29.67-2.63,1.01-3.92.2-.71.42-1.42.64-2.11.23-.77.5-1.56.74-2.3,1.59-4.49,3.54-8.3,5.78-9.84,0,0,1.04.69,2.31,2.14.05.08.21.3.21.3,1.38,1.67,2.74,4.19,3.1,7.73.03.05.03.11.03.16.08.55.11,1.04.11,1.56Z"/>
      <path class="cls-3" d="M907.43,1015.53h-.17c-.35-.05-.68-.16-1.04-.41-.51-.33-1.06-.82-1.56-1.42-.44-.49-.88-1.07-1.26-1.73-1.71-2.74-3.3-6.63-4.52-10.25-.71-2.14-1.32-4.17-1.75-5.81-.47-1.7-.74-2.99-.77-3.51-.03-.08-.03-.16-.03-.19,0-.22-.08-.33-.08-.49,0-.14,0-.33.02-.47.17-1.04.88-2.19,1.75-2.96.23.77.5,1.67.77,2.69.03.05.03.11.06.16.3.99.6,2.06.95,3.18.54,1.81,1.15,3.78,1.81,5.78,1.21,3.81,2.53,7.67,3.72,10.74.3.69.54,1.37.83,1.97.41,1.12.85,2.03,1.26,2.71Z"/>
      <path class="cls-80" d="M1450.72,714.77s4.39,3.43,2.84,5.01c-1.56,1.85-3.61,2.9-5.17,6.33-1.54,3.43-8,7.91-9.29,5.54-1.3-2.11-.53-5.01,2.31-10.02,2.59-5.01,9.3-6.86,9.3-6.86Z"/>
      <path class="cls-95" d="M1425.81,698.55h0c.56,1.74,1.77,4.1,3.28,6.68,1.51,2.57,3.3,5.34,5.02,7.89,1.72,2.55,3.37,4.88,4.6,6.57.6.85,1.12,1.53,1.47,2.01.17.24.3.42.41.55l.08.12c.38.19.89.3,1.54.33.68.03,1.45-.04,2.24-.19,1.57-.29,3.12-.86,3.95-1.47.86-.76,1.74-1.84,2.36-2.92.3-.54.54-1.07.7-1.55.15-.45.2-.83.17-1.13l-.09-.15c-.09-.15-.23-.36-.38-.64-.33-.55-.82-1.35-1.39-2.31-1.16-1.93-2.75-4.53-4.45-7.23-1.69-2.7-3.49-5.5-5.08-7.82-1.59-2.33-2.93-4.13-3.74-4.89-.14-.12-.21-.28-.27-.43-.05-.16-.09-.34-.11-.53-.05-.39-.06-.88-.03-1.45.06-1.14.23-2.65.47-4.39.17-1.16.35-2.43.54-3.76.41-2.68.83-5.62,1.18-8.54.5-4.37.76-8.59.3-11.66-.23-1.53-.62-2.72-1.19-3.48-.57-.73-1.32-1.09-2.37-.98-6.08.68-9.8-1.63-12.11-3.55-.48-.4-.91-.79-1.29-1.13-.06-.06-.12-.12-.18-.18-.42-.38-.74-.65-.98-.8-.12-.07-.2-.1-.24-.11-.03,0-.03,0-.03,0h0s-.05.04-.11.16c-.06.12-.12.29-.18.54-.44,1.78-.5,5-.27,9.02.24,4.01.74,8.76,1.41,13.56,1.32,9.62,3.25,19.41,4.79,23.85Z"/>
      <path class="cls-5" d="M1431.09,732.17s2.33,5.01,0,5.8c-2.31.79-4.64.79-7.49,3.16-3.1,2.37-10.84,2.9-10.84.26s2.07-4.75,6.71-7.65c4.9-2.9,11.62-1.58,11.62-1.58Z"/>
      <path class="cls-95" d="M1435.84,697.09h0v-.02c.08-.82.44-1.99.95-3.4.51-1.42,1.22-3.12,2.03-5,.17-.41.35-.82.51-1.25,1.5-3.51,3.21-7.58,4.67-11.72,1.63-4.65,2.92-9.36,3.19-13.48.26-3.95-.44-7.25-2.6-9.44-3.27,3.41-6.34,4.85-8.64,5.42-1.18.3-2.15.36-2.83.35-.24,0-.45-.02-.62-.03v.31c-.03.48-.05,1.17-.06,1.98-.05,1.62-.05,3.72.09,5.68.14,1.91-.27,4.29-.94,6.85-.67,2.56-1.6,5.35-2.57,8.08-.29.81-.57,1.61-.86,2.4-.68,1.9-1.35,3.74-1.89,5.45-.8,2.41-1.36,4.5-1.48,6.03h0c-.53,5.68-1.5,14.98-2.33,22.85-.42,3.94-.8,7.52-1.09,10.12-.14,1.3-.26,2.35-.33,3.08l-.09.84-.02.08c1.77,1.53,3.68,2.92,6.02,2.92.48,0,.97.01,1.45.02.74.02,1.48.03,2.22.01,1.1-.03,2.1-.14,2.9-.43v-.1l.08-1.01c.05-.88.14-2.14.23-3.67.2-3.07.47-7.22.74-11.57.54-8.7,1.13-18.19,1.26-21.35Z"/>
      <path class="cls-69" d="M1403.2,652.8s-.51,2.9.26,5.01c.79,2.11.79,1.85,1.04,1.58.26-.26-.26-2.11.77-6.07,1.03-3.69-2.07-.53-2.07-.53Z"/>
      <path class="cls-32" d="M1424.38,604.81c7.23,3.43-3.87,28.48-8,34.28,0,0-2.84-.26-6.46-5.27,0,0,5.94-32.96,14.46-29.01Z"/>
      <path class="cls-32" d="M1416.37,639.09l-10.07,14.24s-3.1-.26-5.16-4.22l9.29-16.09,5.94,6.06Z"/>
      <path class="cls-95" d="M1424.62,605.65s.02,0,.03,0c.05-.03.17-.07.36-.12.41-.1,1.09-.19,2.1-.16,2.04.06,5.4.64,10.54,2.74,1.01.41,2.01.99,3.58,1.89.39.22.8.46,1.26.72,1.41.91,2.89,1.96,4.07,2.84,1.16.87,2.03,1.55,2.28,1.81.05.07.11.14.15.2.11.15.23.31.35.56.18.35.33.86.35,1.64.03,1.58-.51,4.28-2.69,8.99h0s-.05.06-.06.1c-.06.08-.14.2-.23.36-.18.31-.45.77-.76,1.36-.6,1.16-1.38,2.83-2.03,4.81-1.3,3.97-2.16,9.28-.32,14.54h0s1.81,5.08,1.81,5.08l.18.53c-.05.06-.09.14-.15.23-.18.25-.45.61-.83,1.02-.74.83-1.86,1.88-3.37,2.76-3.02,1.75-7.67,2.86-14.13.14h-.02c-1.29-.53-3.13-1.31-4.67-2.31-.77-.5-1.45-1.04-1.95-1.62-.48-.57-.79-1.15-.86-1.74l.02-.07c.02-.08.03-.2.05-.36.05-.31.09-.77.15-1.35.12-1.16.26-2.82.35-4.8.15-3.97.09-9.28-.82-14.59h0c-.77-4.44-.89-10.39-.11-15.42.41-2.52,1.03-4.77,1.92-6.49.88-1.72,1.98-2.84,3.3-3.19l-.06-.46c.06-.03.17-.08.32-.12.02.02.03.04.03.06.05.15-.02.27-.05.31-.01.05-.05.07-.06.09-.02.02-.03.03-.05.03ZM1424.62,605.65h0s0,0,0,0Z"/>
      <path class="cls-69" d="M1439.88,599.01s-4.13,4.75-1.81,8.7c1.3,2.11-2.84,6.33-8.77,5.01,0,0-2.59-1.05-2.07-2.11.77-1.85,0-3.43-.77-5.27-.51-1.85,13.43-6.33,13.43-6.33Z"/>
      <path class="cls-75" d="M1441.68,596.37s-2.33,6.59-7.49,9.23c-4.39,2.11-9.56,3.43-9.82-1.85-.26-3.96-.77-14.5,3.1-16.09,4.64-2.11,6.71-5.01,11.61-2.37,0,0,5.69,3.43,2.59,11.08Z"/>
      <path class="cls-26" d="M1437.8,602.96c0-.53,3.36-3.95,2.33-5.54-1.04-1.58-4.13,3.16-4.13,3.43-.27.26,0-1.32.51-2.64.77-1.32.77-2.9,0-3.96-1.04-.79-3.36-.79-4.92-.79,1.3-.79,3.87-.53,4.92-2.64,1.54-2.64,3.36-3.69,4.9-3.96,6.97,6.33-3.61,16.09-3.61,16.09Z"/>
      <path class="cls-26" d="M1431.6,593.47s4.66-.26,6.72-3.95c.51-.79,1.81-2.11,3.1-2.11,0,0-.77-4.48-7.49-3.95-2.84.26-6.2,2.37-6.97,2.9-3.87,3.43,1.03,6.86,4.64,7.12Z"/>
      <path class="cls-69" d="M1412.25,637.51s-4.39,1.32-6.71-.26c-2.07-1.58-4.9-2.9-5.94-4.48-1.03-1.58-.77-2.37.51-2.37,1.56,0,5.94,1.05,8.53,2.37,2.59,1.32,2.84.79,3.61.79.77.26,2.07,2.37,0,3.95Z"/>
      <path class="cls-69" d="M1412.25,633.82c-.77,0-1.03.26-3.61-.79-2.33-1.32-6.97-2.37-8.53-2.37h-.51c1.56.79,3.87,2.37,6.2,3.43,2.84,1.58,6.2,1.32,7.49,1.06,0-.79-.51-1.32-1.03-1.32Z"/>
      <path class="cls-5" d="M1448.13,614.3c-1.8-1.32-5.41-2.11-8.51,3.16-2.84,5.27-11.1,20.04-11.1,20.04,0,0-15.5-4.22-17.3-4.22,0,0,2.31,2.37-.26,4.75,0,0,14.72,10.28,19.87,8.17,4.92-2.11,24.53-26.1,17.3-31.91Z"/>
      <path class="cls-69" d="M1411.99,634.08s-3.87-3.43-5.17-4.22c-1.29-.79-2.57-.79-2.31-.53,0,.26,3.87,3.17,2.57,3.96-.77.79,4.14.53,4.92.79Z"/>
      <path class="cls-5" d="M1434.92,675.44c2.06-7.84,1.56-14.04,1.06-16.17h-3.28c.08,1.65.2,5.62,0,8.26-.23,3.3-2.57,12.51-3.74,15.57-1.18,3.07-4.22,11.68-4.22,15.81,0,3.3-2.42,23.32-3.63,32.92l3.63,2.83c.35-6.29,1.41-20.7,2.81-27.96,1.75-9.09,4.79-21.48,7.37-31.27Z"/>
      <path class="cls-100" d="M847.21,554.45v83.86"/>
      <g class="cls-133">
        <g>
          <path class="cls-31" d="M287.83,992.4s-2.89,4.73,1.28,5.67c4.18,1.26,2.89-1.26,11.89.95,9,2.2,8.03-2.84,7.71-3.78-.32-.95-4.18-2.52-6.11-2.84-1.93-.63-9.64-2.21-9.64-2.21l-4.82.95-.32,1.26Z"/>
          <path class="cls-69" d="M301.01,822.82s.64-5.99,1.28-7.25c.64-1.26,3.21-5.99,8.03-6.93,2.57-.31.96,2.21-1.29,5.04-.96,1.26-2.25,1.89-1.93,4.73.32,1.89-.32,5.04-.64,6.62-.64,1.58-5.46-2.21-5.46-2.21Z"/>
          <path class="cls-69" d="M304.54,824.4s4.18-5.36,5.46-7.25c.96-1.89.96-3.47.64-3.47-.64,0-3.86,5.36-5.46,3.78-.96-.95,0,5.99-.64,6.93Z"/>
          <path class="cls-5" d="M261.81,850.25s.64,7.56,10.28,5.04c9.96-2.52,27.63-9.77,29.88-14.5,2.25-4.73,4.5-17.34,4.5-17.34,0,0-4.82,1.58-6.75-2.21l-7.39,15.76s-31.17,7.88-30.52,13.24Z"/>
          <path class="cls-31" d="M277.87,975.07s3.86.63,2.89,2.52c-.96,2.21-5.14,5.36-5.78,6.62-.64,1.26-4.18,5.99-5.14,5.67-1.29-.31-4.18.32-3.85-5.04.32-5.67,6.75-10.09,11.89-9.77Z"/>
          <path class="cls-95" d="M280.98,915.3c0-.2-.02-.36-.02-.48l-14.65-9.69v.54s.06,3.52.06,3.52c.04,2.93.09,6.88.15,10.93.11,8.1.21,16.65.21,18.38,0,.84-.24,3.05-.56,6.05-.02.19-.04.38-.06.57-.35,3.3-.79,7.51-1.15,11.97-.72,8.89-1.11,18.76.13,24.69.05.05.12.11.21.18.2.17.49.41.85.67.74.53,1.78,1.15,2.99,1.57,1.21.42,2.59.62,4.02.31,1.39-.3,2.87-1.08,4.31-2.69l.02-.25c.01-.26.04-.64.06-1.12.06-.97.14-2.37.24-4.07.21-3.4.51-8.03.87-12.89.36-4.87.78-9.98,1.24-14.38.45-4.36.93-8.03,1.42-10.04.23-4.48.13-10.58-.02-15.58-.08-2.5-.16-4.73-.24-6.32-.03-.8-.07-1.44-.09-1.88Z"/>
          <path class="cls-95" d="M297.8,946.57c.38-7.97,1.11-23.07-1.39-33.96-4.15,1.85-8.1,2.37-11.06,2.42-1.53.03-2.8-.07-3.68-.18-.37-.05-.67-.09-.9-.13,0,.04,0,.09,0,.14,0,.42,0,1.04,0,1.84,0,1.61.03,3.97.1,6.96.14,5.98.49,14.49,1.29,24.56h0v.02h-.41.41v.11s.01.34.01.34c0,.29.02.73.03,1.28.03,1.11.07,2.69.12,4.61.11,3.84.26,9.02.44,14.38.18,5.36.39,10.89.62,15.44.21,4.29.44,7.67.66,9.21.08.02.17.04.28.06.36.07.87.17,1.49.27,1.24.2,2.91.4,4.61.42,1.71.02,3.41-.15,4.75-.67,1.32-.51,2.24-1.33,2.54-2.63v-.35s-.01-1.12-.01-1.12c0-.97-.02-2.37-.03-4.07-.02-3.4-.05-8.01-.07-12.86-.04-9.69-.04-20.34.12-24.13h0c.03-.6.06-1.27.1-2Z"/>
          <path class="cls-95" d="M261.87,861.14h0c.39,1.14.76,2.24,1.12,3.29,1.29,3.77,2.4,7.03,3.22,9.78,1.04,3.5,1.63,6.25,1.46,8.23-.16,1.9-.56,6.16-1.05,10.3-.24,2.07-.5,4.12-.76,5.82-.26,1.66-.51,3.03-.76,3.79,0,0,0,.02,0,.03,0,.05,0,.13,0,.24.01.22.05.54.15.96.21.82.68,2,1.77,3.35,2.17,2.7,6.81,6.13,16.7,8.79h0s.07,0,.13.01c.12,0,.29.02.51.03.44.02,1.06.04,1.8.03,1.48-.02,3.41-.16,5.26-.62,1.85-.46,3.56-1.24,4.66-2.51,1.07-1.24,1.6-3.01.98-5.58-1.29-5.39-2.26-12.42-2.82-18.62-.28-3.1-.46-6-.53-8.37-.07-2.36-.03-4.24.13-5.31.04-.52.12-1.09.2-1.7.24-1.89.54-4.16.09-6.57-.58-3.14-2.42-6.5-7.46-9.28-2.42-1.22-4.56-2.38-6.52-3.43-.19-.1-.39-.21-.57-.31-2.11-1.13-3.99-2.13-5.74-2.96-3.48-1.63-6.43-2.54-9.67-2.41-.04.02-.09.05-.16.1-.15.1-.37.25-.63.47-.51.43-1.16,1.11-1.69,2.1-1.06,1.96-1.71,5.23.18,10.34Z"/>
          <path class="cls-69" d="M271.45,843s.64,5.99-1.29,9.46c-1.93,3.47,12.21,6.31,12.53,3.15,0-.31-2.57-5.36.64-11.35,1.93-3.15-11.89-1.26-11.89-1.26Z"/>
          <path class="cls-75" d="M286.55,827.24s2.25,5.36,1.61,10.09c-.32,5.04.32,5.99,0,8.2,0,.95-.32,2.52-1.29,3.15-1.61,1.58-4.82,1.89-9,.31-5.14-1.89-10.93-8.82-8.67-15.13,2.57-6.62,9.32-11.66,17.35-6.62Z"/>
          <path class="cls-26" d="M286.23,823.14c1.93.63,2.57,6.3-2.25,8.51-2.89,1.26-2.57,5.67-2.25,6.62,0,.95.96,4.41.64,5.04-.64.95-2.89-1.89-3.85-1.58-2.57.63-1.61,2.84.64,5.36,2.57,2.52-4.18,3.78-7.07,1.58-1.61-1.26-2.25-1.89-4.5-5.99-3.21-5.99-3.86-15.13,4.18-17.34,7.71-2.21,10.28-3.78,14.46-2.21Z"/>
          <path class="cls-26" d="M288.25,841.56c-1.4,1.4-4.85-.19-6.4-1.16-.58.2-1.75.82-1.75,1.75,0,1.16.58,4.66,1.16,6.41.58,1.75,3.49,2.91,5.82,1.75,2.33-1.16,1.16-5.24,1.16-8.74Z"/>
          <path class="cls-26" d="M272.09,848.67c-1.61-1.26-2.25-1.89-4.5-5.99-3.21-5.99-4.18-13.55,3.21-17.34,7.39-3.78,12.85-3.47,15.42-1.89.32.32.32,6.31-8.67,7.88-3.86.63-4.18,2.21-4.18,6.3s-.96,9.14,5.78,11.35c-2.25,1.89-5.78.32-7.07-.31Z"/>
          <path class="cls-100" d="M286.32,857.71s-14.46,4.73-18.64-2.21c-.64-.95,0-4.1,2.57-4.73"/>
          <path class="cls-69" d="M332.81,853.71s3.54-4.1,3.54-5.36,1.6-1.89,1.6-.31-.95,3.15-.95,3.15c0,0,4.81-4.1,3.86-5.67-.97-1.58,3.84,3.15,2.89,5.99-1.29,2.84-1.94,6.31-9.65,7.25,0,0-1.92-2.52-1.29-5.04Z"/>
          <path class="cls-5" d="M286.23,860.65s-2.89,6.93,6.75,8.82c9.64,2.21,26.35,4.73,30.2,1.58,4.18-3.15,14.46-12.61,14.46-12.61,0,0-4.82-1.26-4.49-5.36l-15.75,9.46c0,.32-29.24-6.62-31.17-1.89Z"/>
          <path class="cls-5" d="M297.81,941.61c.1-10.93-1.02-23.41-1.59-28.29-1.27.87-3.88,1.33-5.02,1.45.29.85.96,5.05,1.35,15.11.49,12.57-.24,64.31,1.96,63.59,1.76-.58,2.94-1.77,3.31-2.3-.04-11.97-.1-38.63,0-49.56Z"/>
        </g>
      </g>
      <g class="cls-131">
        <g>
          <path class="cls-19" d="M411.54,746.35v94.13l-109.61-62.78v-93.87l109.61,62.53Z"/>
          <path class="cls-20" d="M411.54,746.35v94.13l-109.61-62.78v-93.87l109.61,62.53Z"/>
          <path class="cls-42" d="M401.27,754.06l-42.35-23.88v-2.32l42.35,23.52v2.68Z"/>
          <path class="cls-91" d="M404.95,752.11l-42.35-23.88v-2.32l42.35,23.52v2.68Z"/>
          <path class="cls-38" d="M401.27,762.97l-16.2-9.31v-2.32l16.2,8.95v2.68Z"/>
          <path class="cls-18" d="M404.95,761.01l-16.2-9.31v-2.32l16.2,8.95v2.68Z"/>
          <g class="cls-130">
            <path class="cls-41" d="M321.76,710.12c7.73,4.43,13.97,15.18,13.97,23.98s-6.34,12.35-14.07,7.92c-7.73-4.43-13.96-15.18-13.96-23.98.05-8.8,6.33-12.35,14.06-7.92ZM321.71,740.69c7.06,4.07,12.82.77,12.87-7.26,0-8.03-5.71-17.91-12.77-21.92-7.06-4.07-12.82-.77-12.87,7.26-.05,8.03,5.71,17.86,12.77,21.92Z"/>
          </g>
          <g class="cls-128">
            <path class="cls-41" d="M326.8,708.23c7.74,4.43,13.97,15.18,13.97,23.98s-6.34,12.35-14.07,7.92c-7.73-4.43-13.96-15.18-13.96-23.98.05-8.8,6.33-12.35,14.06-7.92ZM326.74,738.8c7.06,4.07,12.82.77,12.87-7.26,0-8.03-5.7-17.91-12.76-21.92-7.06-4.07-12.82-.77-12.87,7.26-.05,8.03,5.71,17.86,12.77,21.92Z"/>
          </g>
          <g class="cls-130">
            <path class="cls-41" d="M319.63,750.67c5.4,3.09,9.81,10.65,9.81,16.83s-4.46,8.7-9.86,5.56c-5.4-3.09-9.81-10.65-9.81-16.83s4.41-8.7,9.86-5.56ZM319.58,772.13c4.98,2.83,9.03.57,9.03-5.1s-4-12.56-8.98-15.39c-4.98-2.83-9.03-.57-9.03,5.1s4,12.5,8.98,15.39Z"/>
          </g>
          <g class="cls-130">
            <path class="cls-42" d="M323.95,749.04c5.4,3.09,9.81,10.65,9.81,16.83s-4.46,8.7-9.86,5.56c-5.4-3.09-9.81-10.65-9.81-16.83s4.41-8.7,9.86-5.56ZM323.9,770.5c4.98,2.83,9.03.57,9.03-5.1s-3.99-12.56-8.97-15.39c-4.98-2.83-9.03-.57-9.03,5.09s4,12.51,8.98,15.39Z"/>
          </g>
          <path class="cls-127" d="M405.58,809.05s-1.56-19.61-12.1-25.63c-10.53-6.02-15.52,1.8-24.03,0-8.5-1.8-4.93-20.84-17.74-25.32"/>
        </g>
      </g>
      <g class="cls-129">
        <path class="cls-8" d="M401.27,821.55v-8.58s-1.56-19.58-12.02-25.59c-10.48-6.01-15.44,1.8-23.91,0-8.45-1.8-4.9-20.81-17.65-25.23v27.95l53.58,31.45Z"/>
      </g>
      <path class="cls-49" d="M298.35,717.14c9.03,5.2,16.35,17.76,16.35,28.05l-6.02-3.4c0-6.54-4.62-14.56-10.38-17.86l.05-6.79Z"/>
      <path class="cls-16" d="M326.05,704.77c9.03,5.2,16.35,17.76,16.35,28.05l-6.02-3.4c0-6.54-4.61-14.56-10.38-17.86l.05-6.79Z"/>
      <path class="cls-30" d="M320.64,708.22c9.03,5.2,16.35,17.75,16.35,28.05l-6.02-3.4c0-6.54-4.62-14.56-10.38-17.86l.05-6.79Z"/>
      <path class="cls-49" d="M319.27,776.83c0,7.25-5.19,10.14-11.57,6.54v-4.79c4.05,2.32,7.32.46,7.37-4.17l4.2,2.42Z"/>
      <path class="cls-74" d="M331.17,768.13c0,7.25-5.19,10.14-11.57,6.53v-4.79c4.05,2.32,7.32.46,7.37-4.17l4.2,2.42Z"/>
      <path class="cls-119" d="M391.23,819.14s-1.56-19.61-12.08-25.63c-10.54-6.02-15.53,1.8-24.03,0-8.51-1.8-4.93-20.84-17.76-25.32"/>
      <path class="cls-121" d="M401.56,813.09s-1.56-19.61-12.08-25.63c-10.54-6.02-15.52,1.8-24.03,0-8.51-1.8-4.93-20.84-17.76-25.32"/>
      <path class="cls-49" d="M401.27,754.07l-21.17-11.94v-2.52l21.17,11.78v2.68Z"/>
      <path class="cls-26" d="M452.68,503.16l-.33,6.54c-.33,1.45-3.09,2.68-5.64,3.18-2.04.4-3.31-.38-3.71-.83l-.24-3.81c-.26-8.8-.77-26.65-.79-27.64-.05-1.24.17-3.52,3.45-6,3.27-2.48,16.06-8.79,20.46-10.75-.21-.72.09-2.05.26-2.63.73-3.37,2.28-10.8,2.71-13.62.53-3.53-.65-19.93-1-23.83-.35-3.91.14-7.9,1-10.91.88-3.01,1.98-5.24,3.21-6.22.98-.78,2.51-.72,3.15-.6l.41,1.57,1.3,4.52c-.05.24-.12.86,0,1.42.15.7,2,2.18,3.28,2.67,1.29.49,5.66-.34,7.08-1.53,1.13-.95,1.62-2.28,1.72-2.82,2.53,2.01,7.62,6.07,7.79,6.21s.68.93.92,1.32c-.73,6.01-2.24,19.07-2.54,23.22-.29,4.15.36,16.17.73,21.66l.51,7.17c-.24.18-.68.89-.51,2.3-.11,3.09-1.13,5.26-1.62,5.96-2.04,1.35-6.73,4.39-9.24,5.74-2.5,1.35-8.98,4.54-11.92,5.97,0-.47-.15-1.8-.68-3.31-.67-1.89-2.4-4.12-5.72-5.79-2.65-1.34-4.64-.87-5.31-.47l-.62-.57c-.95.5-3.04,1.61-3.78,2.07-.74.46-1.74.7-2.15.77,0,0-.14.95-.32,3.74-.21,3.49-.88,7.05-1.29,9.87-.32,2.26-.51,4.57-.57,5.44Z"/>
      <path class="cls-60" d="M463.87,454.3l4.72-7.68-.95-20.96c-.09-2.03-.12-6.75.35-9.42.6-3.34,2.43-7.63,3.15-8.7.57-.86,2.24-1.32,2.99-1.45-2.66-.62-4.92.41-5.54,2.26-1.44,5.95-3.07,19.49-4.31,23.79l-7.59,18.66c-1.22,2.67,6.16,5.74,7.18,3.49Z"/>
      <path class="cls-80" d="M457.31,451.43c1.85-1.85,6.97,1.64,6.16,2.67l-.41.82c-1.03,1.85-6.78-1.44-6.16-2.87,0-.21.21-.41.41-.62Z"/>
      <path class="cls-80" d="M452.18,510.7c.21.62,1.24,3.28.82,3.9-.82,1.64-2.04,2.05-3.28,3.69-.82,1.23-3.07,4.51-4.3,5.33-5.75,3.9-7.4,3.08-8.41,1.23-.42-1.03,1.01-2.87,1.01-3.08.62-1.03,4.31-2.87,5.96-4.51,1.63-1.85,3.28-3.69,4.92-5.54.62-.82,3.09-1.23,3.28-1.03Z"/>
      <path class="cls-80" d="M437.62,522.19c1.44-3.08,5.13-6.97,5.13-8.61v-1.64c0-.62,0-1.03.21-1.64-.92,2.78,1.45,3.6,1.66,2.78l5.93-.68c.2,1.44,1.01-3.99,1.63-2.76-.42,4.12,1.03,1.49,0,3.74-.41.82-1.23,1.23-1.63,2.05-1.65,1.64-1.85,2.87-3.09,4.51-1.44,1.85-4.31,3.9-6.76,5.13-2.06.82-4.72.82-3.09-2.87Z"/>
      <path class="cls-90" d="M468.18,525.48s.41-.41.41-.21c-.21.62-.21,3.49-.82,4.1-2.87,3.49-7.38,6.97-10.66,7.38-3.49.62-6.16-.41-6.56-1.64-.21-.41,0-1.23.2-2.05.62-1.23,2.87-3.69,4.31-3.9,1.03-.2,2.06-.41,3.07-1.23,1.85-1.44,4.52-1.85,6.78-2.87,1.03-.62,3.9-1.64,3.28.41Z"/>
      <path class="cls-31" d="M467.15,528.14c2.06-1.44,2.04-4.28,2.04-6.74-.62,3.18-3.92,2.85-5.97,2.23l-2.95-1.46v-7.14c-.2.82.21,1.58,0,2.4-.41,2.05-.09,4.55-1.32,6.19-1.03,1.44-5.96,4.31-8,9.03-.62,1.44,2.04,1.85,3.28,2.05,1.63.2,5.13-.62,7.17-2.05,3.09-1.64,5.34-4.1,5.75-4.51Z"/>
      <path class="cls-95" d="M472.69,491.62h0v.02c.21,6.73-.41,12.24-1.42,18.79-.62,3.38-1.18,6.51-1.6,8.79-.2,1.14-.36,2.07-.48,2.71l-.14.74-.03.2v.05h-.02v.02h0l.41.07-.41-.07v.02c-.06.5-.51.89-1.42,1.1-.88.2-2.06.18-3.22-.02-1.18-.2-2.3-.57-3.1-1.04-.39-.23-.7-.48-.88-.72-.17-.23-.23-.44-.2-.64v-.07h-.41.41v-.77c-.02-.51-.02-1.24-.03-2.18-.03-1.88-.06-4.56-.12-7.76-.11-6.41-.26-14.92-.45-23.33h0v-.02h0v-.02h0v-.02h0v-.02h0v-.02h0v-.02h0v-.02h0v-.02h0v-.02h0v-.02h0v-.02h0v-.02h0v-.02h0v-.02h0v-.02h0v-.02h0v-.02h0v-.02h0v-.02h0v-.02h0v-.02h0v-.02h0v-.02h0v-.02h0v-.02h0v-.02h0v-.02h0v-.02h0v-.02h0v-.02h0v-.02h0v-.02h0v-.02h0v-.02h0v-.02h0v-.02h0v-.02h0v-.02h0v-.02h0v-.02h0v-.02h0v-.02h0v-.02h0v-.02h0v-.02h0v-.02h0v-.02h0v-.02h0v-.02h0v-.02h0v-.02h0v-.02h0v-.02h0v-.02h0v-.02h0v-.02h0v-.02h0v-.02h0v-.02h0v-.02h0v-.02h0v-.02h0v-.02h0v-.02h0v-.02h0v-.02h0v-.02h0v-.02h0v-.02h0v-.02h0v-.02h0v-.02h0v-.02h0v-.02h0v-.02h0v-.02h0v-.02h0v-.02h0v-.02h0v-.02h0v-.02h0v-.02h0v-.02h0v-.02h0v-.02h0v-.02h0v-.02h0v-.02h0v-.02h0v-.02h0v-.02h0v-.02h0v-.02h0v-.02h0v-.02h0v-.02h0v-.02h0v-.02h0v-.02h0v-.02h0v-.02h0v-.02h0v-.02h0v-.02h0v-.02h0v-.02h0v-.02h0v-.02h0v-.02h0v-.02h0v-.02h0v-.02h0v-.02h0v-.02h0v-.02h0v-.02h0v-.02h0v-.02h0v-.02h0v-.02h0v-.02h0v-.02h0v-.02h0v-.02h0v-.02h0v-.02h0v-.02h0v-.02h0v-.02h0v-.02h0v-.02h0v-.02h0v-.02h0v-.02h0v-.02h0v-.02h0v-.02h0v-.02h0v-.02h0v-.02h0v-.02h0v-.02h0v-.02h0v-.02h0v-.02h0v-.02h0v-.02h0v-.02h0v-.02h0v-.02h0v-.02h0v-.02h0v-.02h0v-.02h0v-.02h0v-.02h0v-.02h0v-.02h0v-.02h0v-.02h0v-.02h0v-.02h0v-.02h0v-.02h0v-.02h0v-.02h0v-.02h0v-.02h0c.12-.77.39-1.33.79-1.73.38-.4.91-.67,1.51-.79,1.26-.26,2.89.05,4.54.85,3.3,1.6,6.38,5.02,6.28,9Z"/>
      <path class="cls-100" d="M441.71,480.55c-.2-1.85.42-3.08,1.44-4.1,5.55-5.13,22.59-12.7,22.59-12.7M472.72,491.61c5.54-2.05,19.87-10.44,20.9-11.47.83-.47,2.43-2.54,2.24-7.09M460.18,482.19c.62-.41,1.22-1.03,2.06-1.64-4.11,2.25-8.62,4.72-8.83,4.51"/>
      <path class="cls-100" d="M441.71,479.32c.42,16.61.83,30.15.62,32.61.21,2.46,9.65,1.23,9.65-2.05.2-14.36,2.66-18.05,2.45-26.05"/>
      <path class="cls-100" d="M480.78,461.6c.12-3.71.23-6.68.12-9.35h0v-.02h0v-.02h0v-.02h0v-.02h0v-.02h0v-.02h0v-.02h0v-.02h0v-.02h0v-.02h0v-.02h0v-.02h0c.21-6.1,1.63-12.21,3.07-17.95.53-1.54.92-3.11,1.3-4.65.05-.23.11-.45.15-.68.44-1.76.89-3.46,1.59-5.06,1.22-2.06,2.3-4.38,2.3-6.73.15-1.4-.14-2.67-.62-3.82,4.28,2.7,8.76,5.98,10.31,7.32.23.7.17,1.77-.12,3.33-.2,1.12-.51,2.45-.88,3.99-.15.66-.32,1.36-.48,2.09-1.13,4.93-2.48,11.63-2.68,20.29h0c0,7.6,0,9.06,1.42,22.29-.02.02-.03.04-.05.06-.06.07-.15.15-.27.25-.26.2-.6.42-1.06.66-.91.47-2.18.98-3.69,1.4-2.95.81-6.79,1.26-10.71.45,0-5.58.15-9.98.29-13.65v-.05Z"/>
      <path class="cls-100" d="M467.36,423.51h0v-.02c-.2-2.09.15-5.73.97-9.17.41-1.71.92-3.36,1.53-4.72.62-1.37,1.32-2.41,2.06-2.96h.01c.2-.18.57-.3,1.21-.31.6-.01,1.38.08,2.28.29,1.51.34,3.37.96,5.38,1.82-2.68.66-5.29,1.84-6.25,4.71-.64,1.66-.95,2.83-1.07,4.65-.14,1.79-.08,4.22.02,8.41-.2,4.52-.2,8.84.21,13.17h0c.2,2.03.2,3.83-.2,5.83h0v.02c-.62,4.18-2.04,9.9-3.36,14.64-.65,2.37-1.27,4.49-1.74,6.04-.24.78-.44,1.41-.57,1.86-.03.08-.06.16-.08.22-.64-.56-1.16-1.34-1.56-2.1-.23-.46-.41-.89-.53-1.25-.12-.35-.17-.59-.17-.68.17-1.84.57-3.76,1.04-5.97.12-.58.26-1.19.38-1.81.62-2.98,1.24-6.44,1.45-10.67.2-3,.05-6.67-.21-10.49-.11-1.56-.23-3.14-.35-4.72-.17-2.3-.35-4.6-.47-6.79Z"/>
      <path class="cls-100" d="M476.79,417.26l.02-.04v-.04c0-.43,0-.82.08-1.08.05-.12.09-.16.09-.16h0s0,0,.02,0c.02,0,.05,0,.09,0,.2.1.44.21.7.33.01,0,.03.01.05.02.27.12.54.25.83.38.59.29,1.09.57,1.35.82.35.35.45.63.5.91.02.16.02.33.02.54,0,.06-.02.12-.02.18,0,.15-.02.32-.02.5-.08.57-.65,1.09-1.39,1.27-.74.18-1.41-.02-1.71-.59-.2-.5-.39-1.04-.51-1.56-.12-.53-.15-1.03-.08-1.47Z"/>
      <path class="cls-100" d="M475.77,456.37c-.05-.22-.11-.48-.17-.76-.2-1.01-.45-2.37-.65-3.77l3.01-32.72.86.54-1.21,33.9-.02.03c-.06.08-.14.2-.23.34-.18.28-.42.67-.7,1.08-.3.46-.64.96-.91,1.37Z"/>
      <path class="cls-100" d="M473.72,416.35h0c.06,3.51.23,6.29.39,8.83.35,5.63.62,10.06-.6,18.45-.29-5.45-.48-9.71-.65-13.33-.03-.62-.06-1.23-.09-1.82-.17-3.59-.3-6.6-.47-9.68,0-2.69.01-5.4,1.74-7.51.7-.8,1.42-1.41,2.15-1.7.57-.23,1.16-.28,1.8-.05-.11.13-.23.29-.38.48-.42.54-.98,1.29-1.56,2.07-.56.79-1.13,1.63-1.57,2.36-.21.37-.39.72-.53,1.03-.14.3-.23.61-.23.87Z"/>
      <path class="cls-100" d="M489.02,418.03h.02c.88-1.34,1.04-2.67.94-3.72-.03-.31-.09-.59-.15-.85,1.18.86,1.78,2.02,2.06,3.19.33,1.5.09,3-.29,3.84h0c-.92,2.14-2.24,4.74-3.58,7.34-.11.22-.21.43-.33.65-1.21,2.36-2.4,4.69-3.25,6.58-1.24,2.68-2.12,5.06-2.74,7.77.35-2.53.83-5.26,1.44-7.97.79-3.53,1.72-7.01,2.75-9.98,1.03-2.98,2.12-5.41,3.15-6.84Z"/>
      <path class="cls-100" d="M473.62,417.32s.03-.07.05-.11c.24-.57.57-1.35.92-2.15.68-1.62,1.44-3.31,1.72-3.81.48-.66.98-1.01,1.33-1.15.03-.01.06-.02.08-.03,0,.01,0,.02-.02.04-.06.18-.17.4-.29.63-.11.23-.23.45-.33.65-.03.04-.05.08-.06.11-.08.15-.15.28-.2.37l-.05.09v.1h0v.02h0v.02h0v.02h0v.02h0v.02h0v.02h0v.02h0c-.2.47-.2.95-.2,1.48v.05c0,.16.08.31.12.4.06.1.14.21.21.32.17.21.38.45.57.67h.02c.21.24.41.46.54.65.02.01.02.03.03.04-.14.05-.3.12-.48.19-.54.2-1.26.45-1.97.69-.71.24-1.44.48-1.97.65-.02,0-.03,0-.05.01ZM477.98,410.02h0s0,0,0,0Z"/>
      <path class="cls-55" d="M488.69,405.89c-.6-.82-2.04-.62-3.07-.62h-4.52c-.41,0-2.25,0-2.45.62-.21,1.03-1.44,3.08-1.65,3.9-.6,3.28-.41,5.33,1.65,6.15l1.44.82c4.51,3.08,7.79-1.44,8.41-2.05-.41-3.69.6-7.18.41-8.41,0-.21,0-.41-.21-.41Z"/>
      <path class="cls-100" d="M487.61,414.56c.54-.65.92-1.45,1.04-2.4.35.33.83.86,1.32,1.73h0c.21.36.21.98-.06,1.77-.26.76-.74,1.58-1.32,2.26-.21.21-.41.41-.6.61-1.12,1.17-2.18,2.28-4.69,3.27l-3.63-5.13c1.54.31,3.48.25,5.16-.31,1.07-.36,2.06-.94,2.78-1.8Z"/>
      <path class="cls-88" d="M475.56,410.2c.41,1.64.83,3.49,2.47,3.9,2.66.62,8.62-.82,9.44-2.87,1.23-3.49,2.47-6.98.82-11.49-.62-1.85-1.63-3.69-3.28-4.92-1.03-1.03-2.47-1.64-3.69-2.05-3.69-1.64-6.97-1.44-7.18,2.46,0,1.85-.2,3.69-.2,5.74.41,5.74,1.03,6.98,1.63,9.23Z"/>
      <path class="cls-26" d="M473.93,394.82c2.04,1.03,6.97-.41,9.63,2.67,2.06,2.26,1.24,4.1,1.65,5.54,0,.2.41.2.6,0,.41-.82,1.44-1.64,2.47-.62,1.03,1.03,0,6.97,0,6.97,1.85-.62,3.69-4.1,4.51-7.18.83-3.08,2.47-10.26-.6-10.87,0,0,.2-4.92-7.38-6.77-2.06-.41-4.31-.41-6.16.21-1.03.21-1.85.82-2.87,1.23-4.52,3.28-3.9,7.79-1.85,8.82Z"/>
      <path class="cls-31" d="M455.87,460.25l25.65,14.97-16.41,9.44-25.65-14.97,16.41-9.43Z"/>
      <path class="cls-76" d="M464.69,484.04l-25.42-14.97h-.42l25.44,14.97c.21-.2.41-.2.41,0Z"/>
      <path class="cls-80" d="M433.92,453.48l25.63,14.97,4.31,16.2c0,.21-.2.41-.2.62s0,.41.2.62l-25.63-14.97c-.21,0-.21-.2-.21-.41s0-.41.21-.62l-4.31-16.41Z"/>
      <path class="cls-76" d="M459.77,468.04l-25.63-14.77-.21.21,25.63,14.97.21-.41Z"/>
      <path class="cls-25" d="M459.77,468.04l-.21.21,4.31,16.2c0,.21-.2.41-.2.62,0,.41.2.82.6.62l17.24-9.85v-.82l-16.41,9.44v-.21c0-.41-.21-.82-.62-.61l-4.72-15.59Z"/>
      <path class="cls-88" d="M455.26,464.96c-.62-.21-.62-.82-.83-1.44,0-.62-.41-1.23-.41-2.05,0-1.64.41-2.67,1.03-4.51.21-.82,1.65-4.1,2.25-4.72,1.65-1.44,5.75,1.03,5.34,2.26-.21.41-1.44,3.28-1.85,5.74-.21.62-.82,3.69-1.24,4.31-.2.41-.82.62-1.44.62-.41,0-.82,0-1.22.2h-.41c-.21,0-.41-.41-.62-.41h-.6Z"/>
      <path class="cls-5" d="M502.22,427.43c-.41,2.05-4.1,15.79-5.54,21.33-.41,1.44-1.22,2.67-2.46,3.49l-15.38,11.28c-1.85,1.44-7.17-4.51-4.72-6.36l13.96-12.31c1.23-4.31,2.66-16.82,4.3-22.77.62-1.85,3.28-3.49,5.96-3.08,0,0,5.54,2.46,3.89,8.41Z"/>
      <path class="cls-5" d="M473.93,457.99c2.25-.82,5.32,4.51,4.1,5.33l-.62.41c-1.63,1.03-5.32-4.31-4.1-5.33.21,0,.41-.21.62-.41Z"/>
      <path class="cls-88" d="M465.71,468.45c0-.82-.2-1.44,0-2.26.21-.82.82-2.67,1.44-3.28.41-.41,6.37-3.9,6.37-3.9,1.63-.82,4.7,3.69,3.48,4.51-.41.41-4.72,3.28-5.34,4.1,0,.2-1.23,2.87-1.63,3.28-.41.62-1.44.41-2.06.41-.2,0-.41,0-.6-.21-.21-.2-.41-.62-.62-.82-.21-.21-.41-.21-.41-.21-.82-.41-.62-1.03-.62-1.64Z"/>
      <path class="cls-28" d="M437.9,392.17l28.51,16.89v34.61l-28.51-16.81v-34.7Z"/>
      <path class="cls-49" d="M439.11,394.55l25.85,15.32v2.2l-25.85-15.24v-2.29Z"/>
      <path class="cls-49" d="M445.87,403.61v1.31l-6.76-4v-1.31l6.76,4Z"/>
      <path class="cls-5" d="M464.43,439.54v1.29l-6.76-3.97v-1.31l6.76,4Z"/>
      <path class="cls-49" d="M443.91,405.49v1.31l-4.79-2.83v-1.31l4.79,2.83Z"/>
      <path class="cls-49" d="M451.53,410.52c-3.69-1.51-6.61,1.32-6.47,6.29.11,5.03,3.22,10.32,6.93,11.81,3.71,1.52,6.61-1.31,6.47-6.29-.11-5.03-3.22-10.32-6.93-11.81ZM451.59,423.42c-1.57-.66-2.89-2.89-2.95-5.03-.05-2.12,1.18-3.32,2.75-2.69,1.57.66,2.89,2.89,2.95,5.03.08,2.14-1.15,3.34-2.75,2.69Z"/>
      <path class="cls-92" d="M1108.21,314.89l114.94-65.85c20.17-11.63,45.04-11.68,65.17-.05l129.34,74.63c12.48,7.21,12.52,25.27.05,32.48l-125.41,72.03c-23.21,13.43-51.81,13.43-75.01,0l-109.01-63c-19.31-11.17-19.31-39.07-.06-50.24Z"/>
      <path class="cls-29" d="M1161.16,420.33l188.06-111.53v-54.03s-13.54-13.09-31.32-2.55c-20.78,12.31-16.42,28.31-38.02,36.16-21.6,7.84-38.17-37.4-66.11-24.16-19.92,9.45-13.38,21.92-22.1,48.83-8.73,26.91-30.52,28.83-30.52,28.83v78.44Z"/>
      <path class="cls-122" d="M1161.16,342.16s21.73-1.98,30.44-28.97c8.71-26.99,2.18-39.49,22.1-48.97,27.96-13.23,44.63,32.15,66.21,24.28,21.6-7.87,17.23-23.86,38.01-36.26,17.74-10.58,31.31,2.55,31.31,2.55"/>
      <path class="cls-125" d="M1215.62,263.4v118.73"/>
      <path class="cls-120" d="M1329.16,248.12v74.65"/>
      <path class="cls-78" d="M1297.22,388.46c15.46,8.93,15.58,23.54.24,32.47-15.34,8.93-40.44,8.93-56,0-15.58-8.93-15.58-23.54-.24-32.47,15.44-8.93,40.43-8.93,56,0ZM1243.98,419.36c14.13,8.09,36.83,8.09,50.82,0,14-8.09,13.88-21.37-.11-29.45-14-8.09-36.83-8.09-50.83,0-14,8.21-14,21.37.12,29.45Z"/>
      <path class="cls-11" d="M1296.01,381.21c15.46,8.93,15.58,23.54.24,32.47-15.32,8.93-40.44,8.93-56,0-15.58-8.93-15.58-23.54-.24-32.47,15.44-8.93,40.44-8.93,56,0ZM1242.77,412.11c14.13,8.09,36.83,8.09,50.83,0,13.99-8.09,13.87-21.37-.12-29.45-14-8.09-36.83-8.09-50.83,0-14,8.21-14,21.37.12,29.45Z"/>
      <path class="cls-49" d="M1302.16,360.3c17.39,10.02,17.51,26.32.24,36.33l-9.41-5.43c12.07-7,12.07-18.47-.12-25.47-12.19-7-31.87-7-44.07,0l-9.41-5.43c17.26-10.02,45.39-10.02,62.76,0Z"/>
      <path class="cls-66" d="M1392.46,339.73c10.66,6.17,10.75,16.18.08,22.35-10.59,6.17-27.93,6.17-38.69,0-10.68-6.17-10.68-16.18-.09-22.35,10.68-6.17,27.93-6.17,38.7,0ZM1355.68,361.08c9.68,5.59,25.44,5.59,35.1,0,9.68-5.59,9.59-14.76-.08-20.35-9.75-5.59-25.44-5.59-35.1,0-9.68,5.59-9.68,14.76.08,20.35Z"/>
      <path class="cls-23" d="M1392.46,333.67c10.66,6.17,10.75,16.18.08,22.35-10.59,6.17-27.93,6.17-38.69,0-10.68-6.17-10.68-16.18-.09-22.35,10.68-6.17,27.93-6.17,38.7,0ZM1355.68,355.02c9.68,5.59,25.44,5.59,35.1,0,9.68-5.59,9.6-14.76-.08-20.35-9.75-5.59-25.44-5.59-35.1,0-9.68,5.59-9.68,14.76.08,20.35Z"/>
      <path class="cls-49" d="M1393.21,318.5c12.01,6.92,12.08,18.18.17,25.1-11.93,6.92-31.37,6.92-43.36,0l6.5-3.75c8.41,4.84,22.01,4.84,30.43,0,8.33-4.84,8.33-12.76-.08-17.59l6.34-3.75Z"/>
      <path class="cls-47" d="M975.76,474.16c1.01.69,1.36,1.37.68,2.06l-23.21,34.59-106.55,159.26c-1.03,1.37-3.75,1.71-5.46.69l-52.25-30.48c-1.01-.68-1.36-1.37-.68-2.05l25.95-36.65,7.17-10.28c.35-.69.35-1.71-.68-2.05l-15.02-8.56-2.06-1.03-28.34-16.44c-1.71-1.03-1.03-2.74,1.03-3.08,16.05-3.77,31.41-8.9,46.1-15.41,1.36-.69,3.42-.69,4.45,0l1.01.69,2.06,1.03,13.99,7.88c1.38.69,3.42.34,4.1-.34l75.13-106.18c1.01-1.37,3.75-1.71,5.46-.69l47.13,27.06Z"/>
      <path class="cls-113" d="M975.76,474.16c1.01.69,1.36,1.37.68,2.06l-23.21,34.59-106.55,159.26c-1.03,1.37-3.75,1.71-5.46.69l-52.25-30.48c-1.01-.68-1.36-1.37-.68-2.05l25.95-36.65,7.17-10.28c.35-.69.35-1.71-.68-2.05l-15.02-8.56-2.06-1.03-28.34-16.44c-1.71-1.03-1.03-2.74,1.03-3.08,16.05-3.77,31.41-8.9,46.1-15.41,1.36-.69,3.42-.69,4.45,0l1.01.69,2.06,1.03,13.99,7.88c1.38.69,3.42.34,4.1-.34l75.13-106.18c1.01-1.37,3.75-1.71,5.46-.69l47.13,27.06Z"/>
      <path class="cls-83" d="M889.74,935.61v71.62c-.45,9.76-10,29.28-44.6,29.28-43.24,0-52.71-16.22-52.71-29.28v-69.79c-.03-.64-.03-1.25,0-1.83v1.83c.59,10.33,11.1,27.9,50.45,27.9,15.77,0,46.85-7.66,46.85-29.73Z"/>
      <path class="cls-111" d="M889.62,1008.28c.05-15.6-21.76-28.31-48.7-28.39-26.94-.08-48.8,12.51-48.85,28.11s21.75,28.31,48.68,28.39c26.95.08,48.82-12.51,48.86-28.11Z"/>
      <path class="cls-113" d="M889.62,936.11c.05-15.6-21.76-28.31-48.7-28.39-26.94-.08-48.8,12.51-48.85,28.11-.05,15.6,21.75,28.31,48.68,28.39,26.95.08,48.82-12.51,48.86-28.11Z"/>
      <path class="cls-114" d="M839.06,1006.55v-73.84"/>
      <path class="cls-49" d="M861.02,937.03c.03-6.46-9-11.72-20.14-11.75-11.15-.03-20.21,5.18-20.22,11.63-.02,6.46,9.01,11.72,20.16,11.75,11.15.03,20.19-5.18,20.21-11.63Z"/>
      <path class="cls-114" d="M820.18,789.43l49.97,58.47-68.04,23.39"/>
      <g class="cls-134">
        <g>
          <path class="cls-69" d="M1323.03,520.84c.65-2.21-.65-8.85-6.5-3.16-5.85,5.69-13.01,19.91-13.01,19.91l-10.07-9.16s-.98-5.37-4.23-8.22c-3.25-2.84-3.9,5.06,0,9.16,3.9,4.11,12.04,20.54,16.26,15.49,4.23-5.06,15.61-16.75,17.56-24.02Z"/>
          <path class="cls-6" d="M1322.76,515.15h.02s.02.02.02.02h0s.02.01.03.02c.02.02.06.05.11.1.09.1.21.26.35.51.26.49.54,1.3.53,2.58-.05,2.55-1.27,6.92-6.2,14.06-.02,0-.05,0-.08,0-.2,0-.45,0-.79-.01-.67-.03-1.6-.14-2.62-.42-2-.56-4.34-1.8-5.9-4.55h0c.06-.14.17-.33.29-.57.24-.49.62-1.18,1.07-1.98.92-1.62,2.21-3.71,3.69-5.63,1.5-1.92,3.16-3.62,4.82-4.5.82-.43,1.62-.65,2.39-.62.76.04,1.53.33,2.27.99Z"/>
          <path class="cls-102" d="M1329.94,564.84c.3-.11.56-.22.74-.31,1,2.21,1.09,5.05.62,8.14-.5,3.26-1.62,6.75-2.9,9.95-1.29,3.2-2.71,6.11-3.83,8.23-.54,1.05-1.03,1.91-1.36,2.5-.17.3-.3.52-.39.68-.05.08-.08.14-.11.18l-.03.05h0s.35.23.35.23l-.35-.21-.12.2.11.21c2.51,4.9,1.59,11.71-.35,16.73-.98,2.56-1.8,5.99-2.37,8.76-.29,1.39-.51,2.62-.67,3.5-.08.44-.14.8-.17,1.04-.03.12-.05.22-.05.28h0c-.42.56-1.09.95-1.89,1.15-.85.21-1.8.21-2.68.03-.88-.19-1.65-.55-2.16-1.05-.5-.48-.73-1.07-.6-1.78.82-3.37,1.63-11.45,2.24-18.66.32-3.62.56-7.02.74-9.53.09-1.25.17-2.28.21-2.99.02-.36.05-.64.05-.83l.02-.21.02-.06h0v-.02h0s0,0-.42-.03l.42.03v-.06c-1.3-13.72-.48-21.2.65-25.24.56-2.01,1.19-3.16,1.66-3.79.2-.27.38-.44.5-.55,3.4,3.35,6.67,4.13,9.13,4.04,1.24-.05,2.28-.32,2.99-.58Z"/>
          <path class="cls-100" d="M1324.17,564.37c1.15.76,2.57,1.02,4.07.96,1.88-.07,3.92-.64,5.76-1.39,1.86-.75,3.55-1.71,4.76-2.57.6-.43,1.09-.85,1.42-1.21.11-.11.2-.22.27-.34.76.77,1.42,1.88,2.01,3.27.71,1.65,1.27,3.68,1.74,5.93.92,4.52,1.41,9.93,1.62,15.16.23,5.22.2,10.24.11,13.95-.05,1.86-.09,3.38-.14,4.45-.03.53-.05.95-.06,1.23-.02.14-.02.25-.02.32l-.02.08v.02h0s0,0,.42.03l-.42-.02v.22s.17.13.17.13c2.03,1.51,3.45,3.95,4.33,6.74.88,2.79,1.19,5.9,1.04,8.7-.17,2.88.08,6.22.36,8.84.15,1.31.3,2.44.41,3.24.06.4.12.72.15.94,0,.05.02.1.02.14-.3.32-.79.71-1.39,1.07-.7.41-1.5.78-2.28.99-.8.21-1.53.24-2.09.03-.54-.19-.98-.61-1.19-1.43h0s-.39.1-.39.1M1324.17,564.37l-.47-.35c.42,3.35,2.92,19.54,13.32,40.88M1324.17,564.37c.06.51.17,1.2.32,2.06.33,2.01.91,4.93,1.85,8.61,1.89,7.35,5.22,17.71,11.06,29.68l.02.03.02.04-.39.11M1324.17,564.37l12.86,40.53M1344.82,633.97c-1.63-6.64-7.8-29.07-7.8-29.07M1344.82,633.97c.97,3.79,6.5.95,7.8-.63l-7.8.63Z"/>
          <g class="cls-116">
            <path class="cls-100" d="M1345.38,524.78s.03.03.03.04c.38,1.09.35,1.81.14,2.4-.23.62-.68,1.16-1.33,1.88l-.03.03c-1.27,1.44-3.01,3.4-4.01,7.73h0c-.98,4.52-.41,8.3.59,11.55.48,1.62,1.09,3.11,1.63,4.47h0c.54,1.38,1.04,2.62,1.36,3.77.29,1.02-.03,1.99-.77,2.92-.73.94-1.86,1.8-3.1,2.54-2.47,1.47-5.25,2.4-5.88,2.56-3.69.62-8.89.38-12.86-.67-2-.53-3.61-1.25-4.57-2.12-.48-.43-.77-.89-.89-1.36-.11-.47-.06-.99.23-1.59h0l.02-.02c1.33-3.09,1.66-7.67,1.66-11.42,0-1.89-.09-3.59-.17-4.81-.05-.61-.09-1.11-.12-1.45-.02-.17-.02-.3-.03-.39l-.02-.1v-.03h0s0,0-.41.04l.41-.05-.02-.15-.12-.11c-3.18-2.93-4.01-5.67-3.96-7.79.03-2.11.94-3.67,1.39-4.27.7-.67,1.36-1.65,1.86-2.66.5-1.01.85-2.1.85-2.99h0v-.03c-.17-2.59-.08-4.43.14-5.74.2-1.31.53-2.06.85-2.48.3-.41.59-.51.77-.54.09-.01.18,0,.23,0,.03,0,.05,0,.06.01h0s.05.02.05.02h.05c10.36,1.26,16.88,4.01,20.81,6.43,1.97,1.21,3.28,2.33,4.1,3.15.41.41.7.74.88.97.09.11.17.2.2.26Z"/>
          </g>
          <path class="cls-69" d="M1345.14,526.22c-.65-1.89-5.52-6.95-7.15.95-1.62,7.9.65,23.7.65,23.7l-13.32-2.21s-3.9-3.79-8.14-4.42c-4.22-.63-.32,6.32,5.2,7.58,5.54,1.26,21.79,10.75,22.44,4.11.32-6.64,3.25-22.44.32-29.71Z"/>
          <path class="cls-2" d="M1341.83,521.89h.03s.03,0,.03,0h0s.02,0,.03,0c.03,0,.09,0,.15.02.14.03.35.09.6.21.51.24,1.23.75,1.97,1.8,1.47,2.09,2.99,6.36,3.01,15.03-.02.01-.03.03-.06.04-.15.1-.38.24-.68.41-.59.33-1.44.73-2.45,1.03-2.01.6-4.66.82-7.4-.58v-.02c-.02-.14-.05-.36-.09-.62-.08-.54-.17-1.31-.24-2.22-.18-1.84-.32-4.26-.2-6.65.12-2.39.5-4.69,1.35-6.3.42-.8.94-1.4,1.57-1.78.62-.37,1.41-.53,2.37-.39Z"/>
          <path class="cls-26" d="M1322.71,497.46s1.62,10.43,2.6,20.22c0,1.58-1.3,4.11-4.23,3.48,0,0-8.12-11.38-2.27-23.38,1.95-3.79,8.77-9.16,16.91-4.11l-13.01,3.79Z"/>
          <path class="cls-69" d="M1321.08,511.36s3.9,4.11,2.28,8.53c-.33,1.26-1.3,6.32,6.5,4.11,0,0,8.12-4.43,5.52-6.64-1.62-1.58-3.25-3.79-1.3-12.32l-13.01,6.32Z"/>
          <path class="cls-75" d="M1321.73,496.51s-2.27.95-1.95,6.95c0,.63-.97,1.58-1.3,3.48-.32,1.58-.32,8.53,3.58,9.16,2.92.32,10.41-1.58,12.36-8.53,2.6-7.27-3.9-15.8-12.69-11.06Z"/>
          <path class="cls-26" d="M1322.38,499.04s18.54,6,5.54,29.07c0,0,9.42.63,13.66-7.58,1.95-3.79.97-11.69,0-18.96,0,0-2.6-11.38-12.04-9.16-.32,0-6.82,2.84-7.15,6.64Z"/>
          <path class="cls-26" d="M1322.38,499.04s-3.25-.63-4.55,5.37c0,0,0-16.12,15.94-11.69-.33-.32-9.75.63-11.39,6.32Z"/>
          <path class="cls-69" d="M1331.17,508.83s.97-3.48,2.92-2.53c.65.32,1.3.95.33,2.84-.98,1.9-2.93,3.48-4.55,3.16l1.3-3.48Z"/>
        </g>
      </g>
    </g>
  </g>
  <path class="cls-105" d="M312.2,893.12l324.46-168.29c20.9-10.84,20.9-40.74-.02-51.56l-232-120.17c-20.9-10.82-20.92-40.71-.03-51.56l41.57-21.6"/>
  <ellipse class="cls-46" cx="553.81" cy="854.23" rx="25.03" ry="7.93" transform="translate(-352.92 391.35) rotate(-30)"/>
  <ellipse class="cls-71" cx="553.99" cy="854.14" rx="19.97" ry="2.99" transform="translate(-352.85 391.43) rotate(-30)"/>
  <ellipse class="cls-64" cx="404.36" cy="560.42" rx="25.03" ry="7.93" transform="translate(-251.01 341.17) rotate(-35.69)"/>
  <ellipse class="cls-84" cx="404.19" cy="560.54" rx="19.97" ry="2.99" transform="translate(-251.11 341.09) rotate(-35.69)"/>
  <ellipse class="cls-82" cx="794.82" cy="840.98" rx="7.93" ry="25.03" transform="translate(-330.9 1108.82) rotate(-60)"/>
  <ellipse class="cls-79" cx="794.99" cy="841.07" rx="2.99" ry="19.97" transform="translate(-330.9 1109.02) rotate(-60)"/>
  <ellipse class="cls-37" cx="1521.65" cy="1040.94" rx="7.93" ry="25.03" transform="translate(-140.65 1838.26) rotate(-60)"/>
  <ellipse class="cls-50" cx="1521.82" cy="1041.03" rx="2.99" ry="19.97" transform="translate(-140.65 1838.45) rotate(-60)"/>
  <ellipse class="cls-12" cx="1506.71" cy="485.86" rx="7.93" ry="25.03" transform="translate(332.58 1547.78) rotate(-60)"/>
  <ellipse class="cls-39" cx="1506.87" cy="485.96" rx="2.99" ry="19.97" transform="translate(332.58 1547.97) rotate(-60)"/>
  <path class="cls-98" d="M635.37,748.51l253.68,146.5c13.28,7.67,13.16,26.87-.21,34.38h0"/>
  <path class="cls-104" d="M258.68,968.8l-175.9-101.64"/>
  <path class="cls-106" d="M901.29,682.97l50.69,29.44c8.27,4.81,8.26,16.76-.03,21.54l-109.01,62.89c-7.79,4.49-17.38,4.44-25.11-.13l-126.34-74.62c-7.53-4.45-16.86-4.62-24.55-.43l-39.46,21.47"/>
  <circle class="cls-7" cx="871.21" cy="846.84" r="10.63"/>
  <circle class="cls-57" cx="818.6" cy="786.84" r="19.82"/>
  <circle class="cls-43" cx="798.78" cy="871.52" r="12.61"/>
  <path class="cls-97" d="M391.85,569.3l-18.06,10.68c-67.24,39.77-150.72,40.09-218.25.83l-64.04-37.23"/>
  <path class="cls-107" d="M951.91,712.42l736.77,425.23"/>
  <path class="cls-110" d="M922.03,641.9l219.87-126.95c8.3-4.79,8.29-16.77-.02-21.56l-57.67-33.24c-8.3-4.78-8.32-16.74-.05-21.55l76.4-44.37"/>
  <path class="cls-99" d="M1349.75,394.64l340.59,196.64"/>
  <path class="cls-103" d="M1350.99,284.71l362.17-211.57"/>
  <path class="cls-1" d="M883.96,564.53c0-4.39,3.98-4.62,3.98-4.62,5.6-.37,7.32,17.26,7.77,24.36l16.62,2.81s-.47.92-.47,2.31c0,1.62.47,2.77.47,2.77,0,0-11.75,1.55-18.44.72-.64.41-1.47.36-2.57-.53-.36-.12-.68-.26-.95-.41,0,0-.33-.59-.62-1.45-3.72-6.06-6-21.97-5.79-25.94Z"/>
  <path class="cls-69" d="M911.39,591.24s5.14,1.39,9.1.23c3.74-1.16,2.8-1.39,2.57-2.08-.47-1.15-5.37-1.15-6.31-1.62-.94-.23.7-.92,1.16-1.39.47-.46,1.41-1.15.94-1.39-.23-.23-.94-.46-2.33.46-1.41.92-4.92,2.08-4.92,2.08l-.23,3.7Z"/>
  <path class="cls-80" d="M907.19,644.6s-.94,3.46,1.41,4.39c2.56.92,4.43,1.85,5.37,2.54.92.69,11.43,5.08,12.84,3,1.16-2.08-1.88-4.39-2.8-5.08-.71-.69-7.94-6.7-7.94-6.7l-8.88,1.85Z"/>
  <path class="cls-80" d="M898.78,650.84s-.94,3.46,1.41,4.39c2.33.92,4.43,1.85,5.37,2.54.94.69,11.43,5.08,12.84,3,1.16-2.08-1.86-4.39-2.57-5.08-.7-.69-7.94-6.7-7.94-6.7l-9.1,1.85Z"/>
  <path class="cls-95" d="M904.17,621.39l-.24.34.24-.34h-.02s-.05-.04-.05-.04l-.18-.12-.65-.46-2.33-1.65c-1.95-1.37-4.54-3.21-7.15-5.05-4.93-3.49-9.94-7.03-10.78-7.62,0-.07.02-.16.06-.3.09-.33.29-.78.56-1.34.54-1.1,1.35-2.51,2.19-3.91.85-1.4,1.72-2.77,2.39-3.8.33-.51.6-.94.8-1.24.03-.05.06-.09.09-.13.18.11.44.28.77.47.71.44,1.72,1.07,2.93,1.83,2.45,1.54,5.7,3.63,8.98,5.85,3.28,2.22,6.58,4.57,9.09,6.61,1.26,1.02,2.31,1.96,3.07,2.77.38.4.68.77.89,1.08.21.32.32.57.35.75.17,1.01.32,3.26.44,6.11.12,2.83.21,6.22.29,9.48.06,3.26.12,6.39.15,8.71.02,1.16.03,2.11.03,2.78.02.32.02.58.02.76-.02,0-.02,0-.02,0-.18.07-.45.17-.79.29-.65.23-1.56.52-2.56.76-1.01.24-2.1.43-3.13.46-.95.03-1.81-.08-2.53-.37l-2.77-22.41-.03-.18-.14-.11ZM882.99,606.5s.02,0,.02,0c0,0,0,0-.02,0Z"/>
  <path class="cls-95" d="M884.22,606.21l-.35.4.48.24.18-.37-.18.37h0s.02,0,.02,0l.03.02.18.09c.15.08.38.2.65.34.57.3,1.39.73,2.37,1.27,1.95,1.07,4.57,2.56,7.21,4.2,2.66,1.64,5.32,3.44,7.38,5.13,1.03.85,1.91,1.66,2.54,2.41.64.76,1.01,1.41,1.1,1.94h0c.57,2.64,1.23,9.48,1.72,15.7.24,3.1.45,6.04.6,8.2.08,1.08.14,1.97.17,2.58.03.31.05.54.06.71-.14.07-.33.17-.57.29-.51.24-1.27.54-2.19.78-1.83.46-4.34.69-7.18-.23-.02-.12-.05-.29-.08-.49-.06-.48-.17-1.18-.29-2.03-.24-1.71-.57-4.06-.91-6.63-.67-5.14-1.38-11.13-1.48-14.57l-.02-.31-.3-.08-.03.1q.03-.1.03-.1h-.02s-.08-.02-.08-.02c-.06-.02-.14-.04-.26-.07-.23-.06-.56-.15-.98-.28-.85-.25-2.04-.62-3.49-1.11-2.89-1-6.71-2.5-10.47-4.52-3.75-2.02-7.43-4.56-10.01-7.61-2.47-2.91-3.95-6.27-3.63-10.11.03.01.08.03.12.04.38.13.92.28,1.6.42,1.35.28,3.22.53,5.43.42,4.11-.19,9.38-1.57,14.46-6.07-.27.83-.65,1.92-1.07,3.06-.45,1.21-.95,2.47-1.44,3.54-.5,1.09-.97,1.93-1.33,2.34Z"/>
  <path class="cls-95" d="M890.15,599.25c.02.1.03.18.03.24-.57,1.17-1.77,2.58-3.18,3.83-1.44,1.28-3.02,2.34-4.23,2.78h-.02c-5.99,2.28-10.03,1.87-12.55.93-1.26-.47-2.15-1.08-2.72-1.57-.29-.24-.5-.46-.64-.6-.01-.02-.03-.04-.05-.06.03-.09.08-.2.12-.34.14-.37.32-.91.56-1.62.47-1.42,1.1-3.51,1.81-6.17h0c1.19-4.72.53-9.42-.41-12.92-.47-1.75-1.03-3.22-1.45-4.24-.21-.51-.39-.91-.53-1.19-.06-.14-.12-.24-.15-.32-.03-.04-.05-.06-.05-.08l-.02-.02c-1.85-4.23-2.1-6.75-1.92-8.26.11-.75.32-1.27.5-1.63.11-.18.2-.32.27-.45l.02-.02s0-.01.02-.02c.06-.1.14-.23.2-.35,0-.01.02-.03.05-.05.06-.06.17-.14.32-.24.27-.2.67-.45,1.13-.73.95-.57,2.19-1.27,3.43-1.94,1.24-.68,2.47-1.33,3.39-1.82.45-.24.85-.44,1.12-.59l.3-.16.08-.04c5.46-1.72,8.5-2.16,10.12-2.16.67,0,1.06.07,1.3.15l-.21.21.67.2c1.18.36,2.07,1.3,2.71,2.73.65,1.44,1.01,3.32,1.16,5.48.32,4.31-.2,9.59-.89,14.2-.71,4.65-.77,8.95-.65,12.09.06,1.57.17,2.85.26,3.74.03.44.08.79.11,1.03ZM865.75,567.17h0s0,0,0,0Z"/>
  <path class="cls-100" d="M885.75,568.45s-.01,0-.01.01l-2.5-1.41c.68-1.27.82-2.48.6-3.58-.24-1.19-.89-2.21-1.62-3.04-.5-.56-1.03-1.04-1.53-1.42,1.51.42,2.63,1.04,3.42,1.75,1.13.99,1.68,2.2,1.92,3.38.23,1.19.14,2.35-.03,3.24-.08.44-.18.81-.26,1.07ZM885.59,568.82h0s0,0,0,0Z"/>
  <path class="cls-69" d="M874.02,554.5s3.04,4.39.71,7.62c-1.18,1.62,1.86,5.54,7.23,5.08,0,0,2.34-.69,2.1-1.39-.47-1.85.24-3,.94-4.62.94-1.39-10.98-6.7-10.98-6.7Z"/>
  <path class="cls-75" d="M873.09,551.96s1.41,6.01,5.61,8.55c3.74,2.31,7.94,3.93,8.64-.46.71-3.47,2.1-12.24-.92-14.09-3.98-2.31-5.61-5.08-10.04-3.23,0,0-5.38,2.54-3.28,9.24Z"/>
  <path class="cls-26" d="M875.43,557.74s-4.67-4.16-3.04-10.17c0,0,.7-4.85,6.08-5.54,2.8-.23,7.7-.23,9.8,4.85.7,1.62.24,5.08-6.06,3.46-.94-.23-3.28-.46-4.2.23-.94.69-.94,2.31-.47,3.47.47,1.15-.47,1.15-.7.92-.24,0-1.65-3-2.81-1.85-.94,1.16,1.41,4.39,1.41,4.62Z"/>
  <path class="cls-26" d="M875.43,557.74c-.24-.23-2.57-3.47-1.41-4.62,1.16-1.16,2.34,1.85,2.57,2.08.24.23,1.16,0,.7-.92-.45-1.39-.23-2.77.47-3.46.71-.69,2.81-.46,4.2-.23-1.16-.69-3.27-.92-3.96-2.54-.94-2.54-2.34-3.47-3.74-3.93-1.63,1.62-1.88,3.46-1.88,3.46-1.39,6.01,3.04,10.17,3.04,10.17Z"/>
  <path class="cls-100" d="M874.55,564.47c-.2-.97.02-2.03.92-3.15.03.06.05.13.08.19.21.54.56,1.28,1.12,2.06,1.04,1.49,2.8,3.14,5.67,3.92l-1.3,3.32s-.09-.04-.12-.06c-.3-.15-.73-.38-1.21-.66-.95-.58-2.15-1.39-3.15-2.37-1.01-.99-1.8-2.1-2.01-3.25Z"/>
  <path class="cls-26" d="M888.27,546.88s.94,5.78-6.53,3.7c0,0-3.74-.92-5.14-4.39-.23-.69-1.16-1.85-2.33-2.08,0,0,1.86-2.77,7-2.54,2.33.23,4.9,2.31,5.6,2.77.47.69-.45,3,1.41,2.54Z"/>
  <path class="cls-89" d="M876.37,607.18v.92l13.54,9.47v-.92l-13.54-9.47Z"/>
  <path class="cls-45" d="M889.9,616.65v.92l25.23-11.78v-.92l-25.23,11.78Z"/>
  <path class="cls-34" d="M876.37,607.18l13.54,9.47,25.23-11.78-13.78-9.47-24.98,11.78Z"/>
  <path class="cls-40" d="M893.88,600.71l-.94-.92-4.2,16.63,1.16.92,3.98-16.63Z"/>
  <path class="cls-54" d="M920.03,588.47l-.94-.92-26.15,12.24.94.92,26.15-12.24Z"/>
  <path class="cls-15" d="M893.88,600.71l-3.98,16.63,26.16-12.24,3.96-16.63-26.15,12.24Z"/>
  <path class="cls-69" d="M881.03,608.1s4.92,5.78,10.75,5.78c0,0,.23-1.39-2.1-2.54-2.34-.92-3.04-3-3.04-3.47,0-.23,2.1,0,3.04,0,.92.23,2.1-.92,0-1.39-2.1-.46-5.61-2.08-7.94-1.85,0,0-2.34,1.85-.71,3.46Z"/>
  <path class="cls-5" d="M869.35,565.59s-4.9.23-6.78,4.16c-1.86,3.93-7,22.41-4.66,27.95,2.33,5.55,23.35,11.78,23.35,11.78-.94-3.46,1.63-5.78,1.63-5.78l-17.04-10.86s7.7-24.72,3.49-27.26Z"/>
  <path class="cls-93" d="M917.85,578.13c.65-.38,1.18-.07,1.18.69s-.53,1.67-1.18,2.04c-.64.39-1.18.08-1.18-.67-.02-.75.53-1.67,1.18-2.06Z"/>
  <path class="cls-61" d="M930.77,590.74c1.12-.65,2.04-.13,2.04,1.17s-.91,2.88-2.04,3.53c-1.12.65-2.04.13-2.04-1.17s.91-2.88,2.04-3.53Z"/>
  <path class="cls-49" d="M921.27,577.67l1.59,1.23c.18-.74.27-1.49.27-2.21,0-1.77-.6-3.12-1.68-3.8-.47-.29-1-.44-1.56-.44-.73,0-1.51.25-2.31.76-2.6,1.65-4.63,5.52-4.61,8.8,0,1.77.59,3.12,1.66,3.8.47.29,1,.44,1.54.44.74,0,1.53-.25,2.34-.76,1.06-.68,2.03-1.72,2.8-2.94l-1.22-1.54c-.65,1.17-1.53,2.18-2.47,2.79-.82.52-1.59.64-2.09.32-.48-.32-.77-1.08-.77-2.11-.02-2.55,1.68-5.81,3.72-7.09.82-.52,1.59-.64,2.09-.32.5.32.79,1.08.79,2.11,0,.32-.03.66-.08,1v-.03Z"/>
  <path class="cls-49" d="M936.8,590.24l2.96,2.09c.35-1.27.51-2.54.51-3.77,0-3.01-1.12-5.32-3.15-6.47-.86-.5-1.85-.75-2.89-.75-1.38,0-2.84.42-4.36,1.29-4.84,2.81-8.65,9.4-8.62,15.01,0,3.01,1.12,5.32,3.12,6.47.88.5,1.85.75,2.89.75,1.36,0,2.86-.44,4.36-1.31,2-1.15,3.81-2.93,5.25-5.02l-2.31-2.61c-1.22,1.99-2.84,3.71-4.6,4.74-1.54.89-2.98,1.09-3.9.55s-1.45-1.84-1.45-3.6c-.02-4.35,3.18-9.89,6.96-12.08,1.54-.89,2.96-1.09,3.92-.55.92.54,1.45,1.84,1.45,3.6,0,.55-.05,1.12-.15,1.69l.02-.03Z"/>
  <path class="cls-101" d="M1160.57,285.54L650.3-8.18"/>
  <path class="cls-96" d="M629.97,307.53l-298.69-175.07"/>
  <path class="cls-108" d="M1013.72,1185.77l-232.74-134.41,31.94-18.25"/>
  <path class="cls-126" d="M813.76,1032.27l-264.26,153.08"/>
  <path class="cls-123" d="M310.13,999.92l42.03,23.91c89.61,50.97,199.51,50.62,288.79-.92l355.86-205.46c30.41-17.55,30.43-61.42.05-79.01l-26.27-15.21,190-109.52-95.42-54.76"/>
  <g class="cls-132">
    <path class="cls-10" d="M967.29,553.33l42.8-22.31c1.41-.74,2.56-.14,2.56,1.33v27.98c0,1.47-1.13,3.26-2.56,3.99l-42.8,22.32c-1.41.74-2.56.14-2.56-1.33v-27.98c0-1.47,1.15-3.26,2.56-3.99Z"/>
  </g>
  <path class="cls-69" d="M1033.02,644.66c.86-.85,1.74-4.68,1.74-4.68,0,0,.47-1.43.39-2.03-.08-.6.33-1.27.33-1.27h2.33s.76-.44.74.64c-.03,1.08.11,2.53.53,3.61-.23.57-2.63,4.52-2.63,4.53,0,.01-2.62.6-2.62.6l-1.26-.48.44-.92Z"/>
  <path class="cls-5" d="M1032.34,646.87c-.6-.12-2.59-1.36-1.38-1.91,1.01-.48,1.88-.19,1.88-.19,0,0-.26.43.17.4.79-.07,1.39-3.19,1.39-4.23l2.19.71-.88,4.31-1.01.59-1.68.33h-.68Z"/>
  <path class="cls-65" d="M1035.23,642.48c-.05,2.46-.5,2.79-.8,3.33-.42.79-1.15.93-1.85.96.86.39,5.17.3,6.06-.29.5-.33.17-1.23.15-2.31-.02-1.1.36-2.3.35-2.88-.03-.58-3.92,1.19-3.92,1.19Z"/>
  <path class="cls-5" d="M1036.69,638.83c-1.35.04-2.22,1.18-2.3,2.23-.06,1.03,1.09,1.16,2,3.13.47,1.03.6,2.61.62,4.08,0,0,.35.3.77-.03,0,0-.02-1.18.08-2.31.05-.64.2-1.97.33-2.36.33-1.07,1.06-1.55.95-2.63-.05-.53-.3-1.3-.7-1.69-.33-.28-1.04-.46-1.75-.42Z"/>
  <path class="cls-65" d="M1028.03,652.91s.39.62,2.51-.19c.85-.32,1.38-.62,1.78-1,.26-.93.82-2.11.82-2.11,0,0-.42-2.52-1.74-1.54-1.32.97-3.37,4.84-3.37,4.84Z"/>
  <path class="cls-69" d="M1032.1,641.9c1.04-1.4,1.23-.24,1.41.64.11.58.3,1.08.64,1.5.85,1.09.92,1.82.92,1.82,0,0-2.54.32-3.83,1.9-1.29,1.58-1.23,3.15-2.4,3.41-1.19.26-3.19-.98-3.19-.98,0,0,1.27-.05,1.75-1.48.5-1.43,1.78-4.54,1.89-5.34.17-1.11.21-1.48.21-1.48h2.6Z"/>
  <path class="cls-5" d="M1033.38,644.11c-1.1.07-2.77,1.64-3.33,2.79-.57,1.16-1.5,2.78-2.22,3.13-.71.37-1.98-.17-3.07-.18-1.09-.01-1.85.44-1.91,1.16,0,0,3.46,1.49,4.51,1.93,1.06.44,1.92.46,2.74-1.49.82-1.96,1.57-3.63,2.62-2.27.89,1.2,1.27,3.56,1.27,3.56,0,0,.42.3.91-.18,0,0-.23-.81-.26-2.06-.03-2.62,1-3.26.74-4.29-.39-1.5-.8-2.18-2-2.11Z"/>
  <path class="cls-26" d="M1021.24,541.75s-2.87-1.51-2.59-3.77c.27-2.26,4.1-7.78,10.92-5.1,6.38,1.26-8.33,8.87-8.33,8.87Z"/>
  <path class="cls-69" d="M1037.56,551.72c1.95.51,3.07,2.47,4.79,6.66,1.72,4.19,3.52,10.3,3.3,11.91-.56,3.94-3.28,7.32-7.96,10.12l-2.09-3.46s4.58-3.33,5.02-7.29c.26-2.22-2.93-9.77-2.93-9.97s-.14-7.98-.14-7.98Z"/>
  <path class="cls-95" d="M1039.04,613.47l-.42-.05h0v.02l.42.02ZM1039.04,613.47l-.42-.02h0v.41c0,.27,0,.66.03,1.2.05,1.07.18,2.7.51,4.92.3,2.16.08,6.4-.26,10.15-.17,1.86-.35,3.59-.48,4.85-.08.63-.14,1.14-.17,1.5-.02.13-.03.23-.05.32M1039.04,613.47l-.42-.05h0s.02-.02.02-.02v-.06l.03-.22.09-.84c.08-.72.2-1.73.33-2.93.27-2.39.62-5.5.92-8.37.36-3.36.86-5.71,1.27-7.61.11-.51.21-.98.3-1.44.42-2.15.6-3.85.11-6.33l-3.48,51.18M1021.5,575.9c-.05.12-.09.27-.15.46-.15.49-.36,1.22-.64,2.19-.56,1.95-1.32,4.87-2.18,8.76-1.69,7.72-1.06,18.26.24,29.16.18,1.52.82,3.32,1.72,5.43.6,1.43,1.35,2.99,2.15,4.68.38.8.77,1.63,1.16,2.5,1.13,2.45,2.57,5.7,3.71,8.33.57,1.32,1.07,2.48,1.44,3.31.18.42.32.75.42.98l.09.22c.98.46,1.85.28,2.51-.05.35-.17.62-.38.82-.54.06-.05.12-.1.17-.14l-.05-.25c-.05-.3-.12-.73-.21-1.25-.17-1.05-.42-2.49-.68-4.04-.53-3.11-1.15-6.65-1.5-8.44h0c-.59-2.99-1.66-5.22-2.59-6.69-.45-.74-.88-1.28-1.18-1.64-.15-.18-.27-.31-.36-.4-.05-.04-.08-.08-.09-.1l-.03-.02h0s-.17-.16-.17-.16l.05-.22.41.07-.41-.07h0v-.05l.03-.15c.02-.13.05-.32.09-.56.08-.48.17-1.16.29-1.96.24-1.6.54-3.7.8-5.66l-5.87-33.71ZM1021.5,575.9l14.73-1.05c.53,1.12,1.27,2.27,2.01,3.45.32.48.62.96.91,1.45,1.1,1.81,2.12,3.72,2.54,5.86l-20.19-9.71ZM1038.21,636.79s-.02,0-.02,0c-.15.05-.36.12-.65.17-.53.09-1.26.12-2.13-.11l-.05-.2c-.06-.28-.15-.69-.26-1.2-.23-1.02-.53-2.43-.88-4-.68-3.14-1.48-6.91-1.98-9.44h0c-.15-.76-.29-1.43-.41-2.03-.85-4.23-.97-4.85-1.19-7.6h0c-.12-1.56-.2-5.08-.24-8.22-.03-1.57-.05-3.04-.06-4.11v-1.29l-.02-.35v-.12h0s-.41,0-.41,0M1038.21,636.79l-10.84-27.19c.27-2.15.82-5,1.29-7.31.23-1.16.45-2.18.6-2.91.08-.37.15-.66.18-.86l.06-.23.02-.06v-.02h0s.41.09.41.09M1029.92,598.3h.41s-.82-.09-.82-.09l.41.09Z"/>
  <path class="cls-9" d="M1039.04,590.55c-3.02,2.82-8.42,3.41-8.42,3.41l-.71,4.33c-.21,3.56.3,7.74.21,11.81,0,0,1.09-10.6,2.56-12.36,1.44-1.74,5.38-4.77,6.37-7.2Z"/>
  <path class="cls-75" d="M1036.66,551.65c-3.27-.18-3.57.31-3.84-.73-.11-.38-.27-2.97-.27-2.97.29-.28.82-1.09.82-1.09,2.13-1.19,3.66-3.2,3.95-5.62.48-4.15-2.86-7.87-7.46-8.31-4.33-.41-7.5,2.33-8.36,6.1-.45,1.86-.92,5.67.35,8.71.73,1.72,1.39,2.93,3.13,2.87.32-.01.95-.11,1.69-.27.06.56.14,1.4.11,2.16-.06.76.09,1.13-1.54,2.04-1.63.91,2.47,2.78,5.16,2.59,2.68-.19,5.69-1.65,6.52-3.21.91-1.75,1.29-2.19-.24-2.27Z"/>
  <path class="cls-69" d="M1034.32,546.22l-2.8.13-3.07-.04-.95-1s-.2,3.19-1.15,3.97c-.94.76-2.15,1.19-2.21,1.22.26.07.51.11.83.1.32-.01.94-.11,1.69-.27.06.56.14,1.4.11,2.16-.06.75.09,1.13-1.54,2.04-1.63.91,2.47,2.78,5.16,2.59,2.68-.19,5.69-1.64,6.52-3.21.92-1.74,1.29-2.19-.24-2.28-3.27-.18-3.57.31-3.84-.73-.11-.38-.27-2.97-.27-2.97.29-.28.82-1.09.82-1.09.33-.18.65-.4.95-.62Z"/>
  <path class="cls-26" d="M1034.27,547.11c2.09-1.73,2.75-3.45,3.04-5.88.47-4.15-2.86-7.87-7.46-8.31-2.98-.28-6.11.68-7.61,4.03,0,0,.23.46,1.01.59,0,0-.23.89.45,1.57.48.49.95,1.28,1.03,2.16.06.71-.08,1.76.15,2.51.29.94,1.42.88,1.42.88,0,0,.08-1.57.26-3.07.51-1.06,2.6-1.29,2.98.07.36,1.23.02,2-.47,2.89-.35.67-1,1.01-1.59.75,0,1.86.77,2.7,2.57,3.17,1.83.47,2-.15,2.92-.58.57-.25,1.29-.78,1.29-.78Z"/>
  <path class="cls-27" d="M1033.41,551.58c.6.68.67,1.53-1.66,2.06-3.04.69-5.1-.36-5.1-.36,0,0-3.13,1.18-5.26,2.52-5.2,3.27-6.46,8.93-1.21,10.88.33,2.13.73,7.61.82,8.85,4.45,2.8,13.44,1.84,15.47-1.12.03-1.01.24-2.71.32-2.97,2.12-7.09,3.78-8.98,3.19-14.32-.35-3.06-.6-4.6-2.4-5.41-1.1-.3-3.49-.18-4.16-.13Z"/>
  <path class="cls-26" d="M1027.5,545.31v18.6s2.13,1.33,5.87-.28c3.72-1.61,3.99-2.59,3.99-4.37v-18.95s-4.25,4.54-7.29,5.48c-2.37.76-2.57-.48-2.57-.48Z"/>
  <path class="cls-69" d="M989.49,574.41c1.01.33,2.03.29,3.42.87,1.21.51,2.01.8,3.25.98,1.24.18,3.16-.39,6.46-1.81,3.92-1.67,8.11-4.94,9.71-6.58,3.43-3.53,7.26-8.94,8.45-10.91,1.44-2.35,3.25-2.96,4.84-2.49,1.89.55,2.12,2.25.03,5.44-2.1,3.19-5.7,7.92-9.69,11.45-1.94,1.71-5.1,4.28-10.1,6.43-3.51,1.51-4.72,1.9-8.51,2.67-1.03.21-1.74.59-3.64,1.2-1.92.61-4.3.89-5.96.6-1.66-.3-2.21-.63-2.3-.97-.09-.41.27-.63,1.04-.58.77.05,2.06.27,3.69-.09,0,0-1.71-.05-2.72-.16-1.03-.11-2-.36-2.65-.61-.82-.31-1.09-1.47-.3-1.43.79.03,1.39.26,2.89.4,1.38.13,2.42-.02,2.42-.02,0,0-1.63-.23-2.95-.66-1.33-.42-1.78-.85-2.06-1.14-.29-.29-.2-1,.76-.83.88.14,1.89.68,3.61.72,1.24.03,2.1-.09,1.97-.27-.17-.18-.89-.14-1.85-.62-.89-.46-1.48-1.39-1.16-1.82.33-.43.36-.11,1.36.22Z"/>
  <path class="cls-53" d="M971.13,560.77v-2.35l17.38-8.99v2.35l-17.38,8.99Z"/>
  <path class="cls-67" d="M971.13,572.89v-2.74l36.93-19.16v2.74l-36.93,19.16Z"/>
  <path class="cls-48" d="M971.13,567.03v-2.74l10-5.08v2.35l-10,5.47Z"/>
  <path class="cls-62" d="M971.13,579.15v-2.74l10-5.08v2.35l-10,5.47Z"/>
  <path class="cls-85" d="M986.33,571.33v-2.74l10-5.08v2.35l-10,5.47Z"/>
  <path class="cls-22" d="M982.87,560.77v-2.35l9.98-5.47v2.35l-9.98,5.47Z"/>
  <path class="cls-73" d="M998.07,565.07v-2.35l10-5.47v2.35l-10,5.47Z"/>
  <path class="cls-77" d="M991.55,550.22v-2.35l15.65-8.21v2.35l-15.65,8.21Z"/>
  <path class="cls-5" d="M727.34,1070.44s-4.84,2.78-1.74,5.55c3.12,2.77,3.12,0,10.04,5.9,6.91,5.9,7.96,1.04,8.3,0,.33-1.04-2.42-3.81-3.81-5.2-1.38-1.39-7.61-6.59-7.61-6.59l-4.51-1.39-.68,1.73Z"/>
  <path class="cls-15" d="M765.74,1065.58s3.1,1.39,1.72,3.12c-1.39,1.73-5.88,3.47-6.93,4.51-.68,1.04-4.84,3.81-5.87,3.81-1.74-.35-3.81-.69-2.09-5.55,2.09-4.85,9-7.28,13.16-5.89Z"/>
  <path class="cls-95" d="M751.22,987.1c.06.02.11.03.15.05,0,.15.02.35.02.59,0,.58.02,1.42.05,2.46.05,2.08.14,4.96.3,8.16.33,6.38.95,14.05,2.18,19.12,2.28,9.51,1.78,17.13.83,31.33-.05.71-.11,1.44-.15,2.18-.15,2.21.24,5.39.67,8.73.06.41.11.82.17,1.23.47,3.82.89,7.76.56,10.83-.17,1.44-1.13,2.78-2.07,3.28-.47.24-.86.25-1.15.07-.3-.18-.64-.65-.8-1.63-.09-.75-.45-1.93-.92-3.25-.47-1.34-1.07-2.87-1.65-4.3-.59-1.43-1.16-2.78-1.59-3.77-.23-.49-.39-.9-.51-1.18-.08-.14-.12-.25-.15-.32l-.05-.09v-.02h0c-2.04-4.6-2.39-9.99-2.13-14.86.2-3.74.76-7.14,1.15-9.63.12-.75.24-1.42.32-1.99h0c.09-.72.02-1.71-.17-2.87-.18-1.17-.47-2.54-.85-4.04-.76-2.99-1.81-6.48-2.89-9.8-1.09-3.32-2.19-6.48-3.02-8.81-.42-1.16-.77-2.12-1.01-2.78-.12-.33-.21-.59-.29-.77l-.08-.2-.02-.05h0v-.02h0l-.39.15.39-.15-.03-.05-.03-.04c-5.63-7.88-5.96-14.78-4.9-19.7.53-2.47,1.41-4.44,2.16-5.8.36-.68.71-1.2.95-1.56.03-.03.05-.07.06-.1,2.69,3.47,6.44,5.87,9.54,7.42,1.62.81,3.07,1.39,4.11,1.76.53.19.95.33,1.24.42Z"/>
  <path class="cls-95" d="M766.51,983.43c1.26,8.08-.57,18.07-3.09,27.24-1.29,4.74-2.75,9.24-4.05,13.13-.21.65-.42,1.28-.64,1.89-1.03,3.05-1.89,5.65-2.4,7.54h0c-.5,2.12-2.03,5.37-4.11,9.15-2.07,3.77-4.67,8.03-7.29,12.15-2.62,4.11-5.23,8.08-7.37,11.25-.73,1.1-1.41,2.1-2,2.99-1.12,1.67-1.95,2.91-2.36,3.53-.56.88-1.09,1.1-1.53,1.09-.47-.01-1-.31-1.51-.78-.5-.47-.95-1.05-1.27-1.53-.17-.24-.29-.45-.38-.59-.02-.04-.05-.07-.06-.11,2.59-13.4,6.46-22.77,9.66-28.78,1.62-3.02,3.06-5.19,4.1-6.6.53-.71.94-1.23,1.22-1.57.15-.17.26-.29.33-.38.05-.04.08-.07.09-.09l.02-.02h0s.12-.12.12-.12v-.16l.7-28.09v-.13l-.06-.11c-3.98-6.22-3.96-11.19-2.98-14.59.48-1.71,1.22-3.03,1.83-3.92.3-.45.57-.79.77-1.01.05-.05.08-.09.12-.12,5.37,2.52,10.8,2.5,14.99,1.64,2.13-.44,3.95-1.09,5.28-1.75.67-.33,1.23-.66,1.63-.98.08-.06.15-.11.23-.17Z"/>
  <path class="cls-95" d="M765.74,938.67l-.32.27.38-.26c.06.04.14.1.26.22-.06.07-.14.12-.23.14-.09.02-.15,0-.2,0-.03,0-.06-.02-.06-.03-.02,0-.03-.01-.03,0,0,0,.03.01.06.05.06.05.14.13.27.26.5.51,1.62,1.71,4.04,4.49,2.12,2.45,2.24,5.91,1.38,9.78-.82,3.7-2.5,7.64-4.02,11.18-.06.15-.12.3-.18.45h-.02c-.54,1.37-.8,3.18-.89,5.1-.11,1.93-.05,3.99.09,5.89.14,1.89.33,3.63.48,4.88.09.63.17,1.14.21,1.49.02.11.03.21.05.29-8.41,5.79-16.11,4.43-21.76,1.6-2.84-1.43-5.17-3.24-6.79-4.69-.8-.72-1.44-1.36-1.86-1.81-.21-.23-.36-.41-.48-.53h0c2.01-5.08,2.71-7.89,2.54-11.56-.09-1.85-.39-3.91-.85-6.57-.15-.81-.3-1.67-.45-2.6-.38-2.15-.82-4.66-1.3-7.69-1.38-8.58.42-14.02,2.53-17.31,1.06-1.65,2.19-2.76,3.06-3.47.44-.35.8-.6,1.06-.76.14-.08.23-.13.3-.17.03-.02.06-.03.08-.04h.02s.05-.03.05-.03l.05-.03c1.66-1.43,3.83-1.5,6.23-.71,2.42.79,4.99,2.42,7.38,4.28,2.37,1.85,4.54,3.89,6.11,5.48.77.79,1.41,1.47,1.85,1.94.23.24.39.43.5.56.06.06.11.11.14.15l.03.04h.02s.32-.26.32-.26Z"/>
  <path class="cls-35" d="M765.74,945.6c-3.46-2.43-8.65,0-6.23,4.85,2.42,5.2,19.03,20.11,29.75,19.42,0,0,6.23-2.43-23.52-24.27Z"/>
  <path class="cls-35" d="M788.91,969.88s5.88-.69,16.26-7.63c0,0,6.91.69,10.03-9.02,0,0,0-1.73-4.49,2.08,0,0-2.77,2.08-2.07-.69.68-2.77.35-4.51-1.04-2.43-1.38,2.08-3.8,6.24-3.8,6.24l-19.37,4.85,4.49,6.59Z"/>
  <path class="cls-5" d="M762.97,943.18c-1.74,0-4.51.69-5.2,4.85-.68,4.16,9.69,13.18,13.16,15.26,0,0,7.61-2.43,6.22-10.75.35,0-8.98-9.36-14.17-9.36Z"/>
  <path class="cls-69" d="M763.65,928.61l-2.77,9.36s-8.98,2.78-13.14-5.2l2.77-9.36c0-.35,6.58,4.16,13.14,5.2Z"/>
  <path class="cls-26" d="M764.35,900.18s7.26,1.39,8.65,7.28c1.72,5.9,2.42,14.22-1.72,18.03-4.51,4.16-3.12,7.28-1.74,9.02,1.39,1.73-20.4,4.85-26.28-10.06-.35,0,.35-33.64,21.1-24.27Z"/>
  <circle class="cls-58" cx="583.51" cy="1047.21" r="11.62"/>
  <circle class="cls-51" cx="583.76" cy="1047.36" r="5.12"/>
  <path class="cls-72" d="M1145.22,662.78v-58.78h5.23l92.44-52.96c9.5,5.24,33.97,18.97,55.82,32.01,21.85,13.04,29.26,30.65,30.23,37.83,3.49,16.88-12.79,30.84-30.23,44.23-11.63-8.38-42.83-24.83-56.97-32.01l-74.42,40.74-22.1-11.06Z"/>
  <path class="cls-14" d="M1339.58,555.38c77.9,45.22,84.74,103.1,12.99,144.89-71.75,41.79-171.5,38.02-249.4-7.19l-13.32-7.53c-1.01-.69-1.36-1.37-.68-2.06l22.55-33.57c1.03-1.37,3.77-1.71,5.47-.69l28.01,16.1c47.14,27.4,106.24,28.77,151.34,2.4,45.45-26.38,42.36-60.63-4.78-88.03l-47.84-27.75c-1.36-.69-3.42-.69-4.78,0l-90.53,52.75c-1.38,1.03-3.77.69-4.78,0-1.03-.34-1.38-1.37-.7-2.06l75.85-113.38c1.03-1.37,3.77-1.71,5.47-.69l115.12,66.79Z"/>
  <path class="cls-113" d="M1339.58,554.91c77.9,44.9,84.74,102.39,12.99,143.9-71.75,41.5-171.5,37.76-249.4-7.14l-13.32-7.48c-1.01-.68-1.36-1.36-.68-2.04l22.55-33.34c1.03-1.36,3.77-1.7,5.47-.68l28.01,15.99c47.14,27.21,106.24,28.57,151.34,2.38,45.45-26.19,42.36-60.21-4.78-87.43l-47.84-27.55c-1.36-.68-3.42-.68-4.78,0l-90.53,52.39c-1.38,1.02-3.77.68-4.78,0-1.03-.34-1.38-1.36-.7-2.04l75.85-112.6c1.03-1.36,3.77-1.7,5.47-.68l115.12,66.34Z"/>
  <path class="cls-117" d="M92.74,432.81l163.82,95.78c62.23,36.38,139.31,36.08,201.24-.78h0"/>
  <path class="cls-118" d="M971.41,832.32l150.5,87.26c82.18,47.65,183.57,47.76,265.86.28l130.37-75.21c30.34-17.51,30.46-61.27.2-78.93l-69.52-40.6"/>
  <circle class="cls-58" cx="1540.99" cy="806.59" r="11.62"/>
  <circle class="cls-68" cx="1541.24" cy="806.74" r="5.12"/>
  <path class="cls-81" d="M936.56,1018.54c9.16-.43,15.8-3.74,17.97-5.34.5,1.1-.41,10.7-1,20.29-.6,9.59-.36,15.76-.3,18.57.08,2.82.59,6.27.86,7.69.23,1.14-.09,7.85-.27,11.07l-.59,19.17c.06.26.05.91-.44,1.39-.59.59-3.16,2.99-7.5,2.18-3.48-.65-4.7-2.12-4.89-2.78.02-8.48.03-26.18,0-29.08-.05-2.9-.73-8.72-1.06-11.26l-2.22-13.45-2.43,5.57-6.99,18.25v42.26c0,1.56-4.61,3.44-5.91,3.6-1.32.16-4.1-.38-4.93-.84-.85-.47-2.34-1.75-2.4-2.75-.06-.8-.23-5.09-.3-7.14-.32-15.57-.91-47.65-.7-51.46.23-3.81,2.57-19.22,3.71-26.45l.83-3.05v-.02.02c.02.14.65.69,3.28,1.97,3.49,1.7,3.84,2.14,15.29,1.6Z"/>
  <path class="cls-100" d="M918.38,1014.32c-5.37,18-5.16,46.02-5.16,46.02l1.38,42.45c0,.96.64,1.89,1.89,2.63.71.41,1.53.69,2.4.88,2.28.47,4.95.19,6.75-.88,1.26-.71,1.89-1.67,1.89-2.63v-41.96l9.38-24.5c1.12,6.3,3.07,17.48,3.28,20.69.33,4.55,0,32.94.06,32.94,0,.93.64,1.89,1.89,2.63.64.36,1.32.6,2.06.8,2.33.57,5.17.3,7.09-.8,1.26-.74,1.89-1.67,1.89-2.63,0,0,.91-29.13.68-30.72-.21-1.59-.62-5.92-.73-13.13-.12-7.21,1.32-26.99,1.32-26.99.68-4.39-.3-9.72-1.32-12.97"/>
  <path class="cls-3" d="M944.62,1059.24l-.41,34.14c-.74-.19-1.44-.44-2.06-.79-1.27-.74-1.89-1.7-1.89-2.63-.06,0,.27-28.39-.06-32.94-.21-3.21-4.07-18.75-5.19-25.05l4.14-7.4,5.46,34.67Z"/>
  <path class="cls-44" d="M918.97,1056.59c-.54,6.85-.2,38.36-.06,49.74-.88-.19-1.69-.47-2.4-.88-1.27-.74-1.89-1.67-1.89-2.63l-1.38-42.45s.3-30.83,5.67-48.83l1.33,3.95,7.55,1.67s-8.17,31.05-8.82,39.44Z"/>
</svg>