<svg width="977" height="600" viewBox="0 0 977 600" fill="none" xmlns="http://www.w3.org/2000/svg">
<path d="M608.354 193.888L1002.83 -37.0708" stroke="url(#paint0_linear_8_154694)" stroke-width="5"/>
<path d="M603.899 169.392L583.854 159.506C509.121 122.649 420.765 126.375 349.399 169.392" stroke="#FFBD0C"/>
<path fill-rule="evenodd" clip-rule="evenodd" d="M1.47011 31.5062L282.252 177.918L278.995 179.71L0 34.3274L1.47011 31.5062Z" fill="url(#paint1_linear_8_154694)"/>
<path d="M243.465 228.881C261.719 240.037 261.635 266.578 243.31 277.617L225.639 288.262C203.548 301.57 202.947 333.389 224.521 347.52L260.007 370.765" stroke="#FFBD0C"/>
<path d="M640.081 300.023C639.875 300.794 639.567 301.514 639.258 302.235C637.766 305.63 635.194 308.665 631.541 310.775L489.86 393.139C474.787 401.885 456.215 401.936 441.142 393.19L298.277 310.723C294.625 308.614 292.053 305.579 290.561 302.132C290.252 301.412 289.943 300.691 289.738 299.92C287.422 292.1 290.252 282.994 298.277 278.364L439.907 196C454.98 187.254 473.552 187.254 488.626 195.948L631.49 278.415C639.567 283.046 642.396 292.203 640.081 300.023Z" fill="#DCDCDC"/>
<g opacity="0.3">
<path d="M640.699 301.926C639.207 305.322 636.635 308.357 632.982 310.466L491.301 392.83C476.228 401.576 457.656 401.627 442.583 392.882L299.719 310.415C296.066 308.305 293.494 305.27 292.002 301.823C293.494 298.428 296.066 295.393 299.719 293.283L441.348 210.919C456.421 202.173 474.993 202.122 490.067 210.868L632.931 293.386C636.583 295.495 639.207 298.531 640.699 301.926Z" fill="url(#paint2_linear_8_154694)"/>
</g>
<path d="M484.921 193.993L482.452 208.192C482.452 208.192 485.59 209.478 489.654 211.793C493.718 214.16 533.28 237.002 561.575 253.31C589.87 269.618 622.435 288.447 622.435 288.447L630.718 293.232C630.718 293.232 636.84 296.216 639.206 302.235C639.206 302.235 640.955 298.994 640.801 294.158C640.647 289.322 638.023 282.222 632.261 278.878C626.499 275.534 497.937 201.299 497.937 201.299C497.937 201.299 486.568 194.765 484.921 193.993Z" fill="url(#paint3_linear_8_154694)"/>
<path d="M640.835 302.44C639.343 305.836 636.771 308.871 633.118 310.98L491.437 393.344C476.364 402.09 457.792 402.141 442.719 393.396L299.855 310.929C296.202 308.819 293.63 305.784 292.138 302.337C293.63 298.942 296.202 295.907 299.855 293.797L441.484 211.433C456.557 202.687 475.129 202.636 490.203 211.382L633.067 293.9C636.719 296.009 639.343 299.045 640.835 302.44Z" fill="url(#paint4_linear_8_154694)"/>
<path d="M468.611 201.067L484.921 210.665L484.921 345.951L448.019 345.951L448.019 210.46C452.64 207.806 462.168 202.313 463.31 201.578C464.737 200.659 465.552 200.25 466.47 200.25C467.204 200.25 468.203 200.795 468.611 201.067Z" fill="url(#paint5_linear_8_154694)" fill-opacity="0.5"/>
<path opacity="0.3" d="M356.472 330.773C356.472 330.773 365.973 329.014 366.56 309.367C367.146 289.72 372.131 286.025 377.527 283.21C382.923 280.395 395.415 281.157 406.558 281.451C417.701 281.744 455.529 287.022 468.431 274.941C481.334 262.859 487.257 250.602 501.802 242.626" stroke="#FFBD0C" stroke-width="3" stroke-miterlimit="10"/>
<path d="M502.447 234.239C487.903 242.215 479.457 256.642 466.555 268.665C453.652 280.688 415.824 275.468 404.681 275.175C393.538 274.882 380.988 274.119 375.651 276.934C370.314 279.749 365.27 283.444 364.684 303.091C364.097 322.738 349.846 324.85 349.846 324.85L385.445 345.494L540.275 255.997L502.447 234.239Z" fill="url(#paint6_linear_8_154694)"/>
<path d="M349.846 324.85C349.846 324.85 364.097 322.738 364.684 303.091C365.27 283.444 370.255 279.749 375.651 276.934C381.046 274.119 393.538 274.882 404.681 275.175C415.825 275.468 453.652 280.746 466.555 268.665C479.457 256.584 487.903 242.215 502.447 234.239" stroke="#FFBD0C" stroke-width="3" stroke-miterlimit="10"/>
<path d="M509.242 234.665L466.087 259.55L422.932 234.665L466.087 209.735L509.242 234.665Z" stroke="#FEE2B2" stroke-opacity="0.3"/>
<path d="M509.242 227.03L466.087 251.915L422.932 227.03L466.087 202.1L509.242 227.03Z" stroke="#FEE2B2" stroke-opacity="0.5"/>
<path d="M509.242 220.032L466.087 244.916L422.932 220.032L466.087 195.101L509.242 220.032Z" stroke="url(#paint7_linear_8_154694)"/>
<path d="M509.242 220.032L466.087 244.916L422.932 220.032L466.087 195.101L509.242 220.032Z" stroke="#FEE2B2"/>
<path d="M466.309 230.86L510.464 205.399L466.309 179.89L422.154 205.399L466.309 230.86Z" fill="url(#paint8_linear_8_154694)"/>
<path d="M466.308 230.86V239.379L510.463 213.87V205.399L466.308 230.86Z" fill="url(#paint9_linear_8_154694)"/>
<path d="M466.309 230.86V239.379L422.154 213.87V205.399L466.309 230.86Z" fill="url(#paint10_linear_8_154694)"/>
<path d="M466.469 215.838L484.92 205.349L466.469 194.842L448.018 205.349L466.469 215.838Z" fill="url(#paint11_linear_8_154694)"/>
<path d="M373.26 278.509L428.613 311.276" stroke="#FFBD0C" stroke-width="3" stroke-dasharray="5 10"/>
<path d="M350.672 324.319L393.301 348.814" stroke="#FFBD0C" stroke-width="3" stroke-dasharray="5 10"/>
<path d="M463.606 270.556L478.24 279.145" stroke="#FFBD0C" stroke-width="3" stroke-dasharray="5 10"/>
<path d="M502.1 233.971L514.825 241.288" stroke="#FFBD0C" stroke-width="3" stroke-dasharray="5 10"/>
<path d="M483.061 183.365L479.273 216.385L446.503 211.679L483.061 183.365Z" stroke="white" stroke-width="2" stroke-linejoin="round"/>
<circle cx="478.949" cy="215.227" r="4.11115" fill="white"/>
<circle cx="446.06" cy="211.115" r="4.11115" fill="white"/>
<circle cx="483.06" cy="183.365" r="4.11115" fill="white"/>
<path d="M466.469 231.108V204.386L510.371 179.254V205.658L466.469 231.108Z" fill="#FCB612" fill-opacity="0.6"/>
<path d="M466.469 231.108V204.386L422.568 179.254V205.658L466.469 231.108Z" fill="#FCB612" fill-opacity="0.6"/>
<path d="M466.469 204.068V230.472" stroke="#FFEBBD"/>
<path d="M466.088 196.503L510.243 171.042L466.088 145.533L421.933 171.042L466.088 196.503Z" fill="url(#paint12_linear_8_154694)"/>
<path d="M466.309 196.503V205.022L510.465 179.513V171.042L466.309 196.503Z" fill="url(#paint13_linear_8_154694)"/>
<path d="M466.31 196.503V205.022L422.155 179.513V171.042L466.31 196.503Z" fill="url(#paint14_linear_8_154694)"/>
<path d="M464.329 180.982L448.018 171.385V36.098H484.921V171.589C480.299 174.243 470.771 179.737 469.63 180.472C468.203 181.391 467.387 181.799 466.47 181.799C465.736 181.799 464.737 181.255 464.329 180.982Z" fill="url(#paint15_linear_8_154694)" fill-opacity="0.5"/>
<path d="M466.469 181.799L484.921 171.311L466.469 160.803L448.018 171.311L466.469 181.799Z" fill="url(#paint16_linear_8_154694)"/>
<path d="M509.242 164.042L466.086 188.927L422.932 164.042L466.086 139.111L509.242 164.042Z" stroke="url(#paint17_linear_8_154694)"/>
<path d="M509.242 164.042L466.086 188.927L422.932 164.042L466.086 139.111L509.242 164.042Z" stroke="url(#paint18_linear_8_154694)"/>
<path d="M509.242 156.407L466.086 181.292L422.932 156.407L466.086 131.476L509.242 156.407Z" stroke="url(#paint19_linear_8_154694)"/>
<path d="M509.242 156.407L466.086 181.292L422.932 156.407L466.086 131.476L509.242 156.407Z" stroke="url(#paint20_linear_8_154694)"/>
<path d="M509.242 149.408L466.086 174.293L422.932 149.408L466.086 124.478L509.242 149.408Z" stroke="url(#paint21_linear_8_154694)"/>
<path d="M509.242 149.408L466.086 174.293L422.932 149.408L466.086 124.478L509.242 149.408Z" stroke="url(#paint22_linear_8_154694)"/>
<path d="M465.861 114.446C469.742 114.446 472.889 111.15 472.889 107.085C472.889 103.019 469.742 99.7229 465.861 99.7229C461.98 99.7229 458.834 103.019 458.834 107.085C458.834 111.15 461.98 114.446 465.861 114.446Z" fill="url(#paint23_linear_8_154694)"/>
<path d="M449.823 366.627L444.201 363.411L509.417 325.591L515.169 328.939L449.823 366.627Z" fill="#FFDE83"/>
<path opacity="0.5" d="M465.092 378.716L459.471 375.499L478.85 364.236L484.603 367.584L465.092 378.716Z" fill="#FFDE83"/>
<path d="M596.835 304.971C596.859 296.762 585.223 290.074 570.846 290.034C556.469 289.994 544.795 296.617 544.771 304.826C544.747 313.036 556.383 319.724 570.76 319.764C585.137 319.804 596.812 313.181 596.835 304.971Z" stroke="#FFDE83" stroke-opacity="0.3" stroke-width="3" stroke-miterlimit="10"/>
<path d="M570.846 290.034C585.223 290.074 596.859 296.762 596.835 304.971" stroke="#E63E4A" stroke-width="8" stroke-miterlimit="10"/>
<path fill-rule="evenodd" clip-rule="evenodd" d="M365.934 347.714L302.459 383.337L300.904 380.562L362.896 345.836L365.934 347.714Z" fill="url(#paint24_linear_8_154694)"/>
<path d="M312.334 206.347L352.891 182.96L312.334 159.531L271.778 182.96L312.334 206.347Z" fill="url(#paint25_linear_8_154694)"/>
<path d="M312.334 206.192V219.313L352.891 195.883V182.805L312.334 206.192Z" fill="url(#paint26_linear_8_154694)"/>
<path d="M312.334 206.192V219.106L271.778 195.676V182.805L312.334 206.192Z" fill="url(#paint27_linear_8_154694)"/>
<path d="M312.334 154.174L352.891 130.787L312.334 107.357L271.778 130.787L312.334 154.174Z" fill="url(#paint28_linear_8_154694)"/>
<path d="M312.334 154.019V190.913L352.891 167.483V130.632L312.334 154.019Z" fill="url(#paint29_linear_8_154694)"/>
<path d="M312.334 154.019V191.024L271.778 167.594V130.632L312.334 154.019Z" fill="url(#paint30_linear_8_154694)"/>
<path d="M304.862 163.323V167.165L276.23 150.648V146.805L304.862 163.323Z" fill="#FFDE83"/>
<path opacity="0.5" d="M281.957 159.512V163.348L276.23 160.185V156.349L281.957 159.512Z" fill="#FFDE83"/>
<path opacity="0.5" d="M288.956 163.498V167.165L285.139 165.107V161.439L288.956 163.498Z" fill="#FFDE83"/>
<path d="M304.225 172.204V176.073L293.409 169.761V165.893L304.225 172.204Z" fill="#FFDE83"/>
<path d="M337.947 152.38V156.985L349.399 150.098V145.533L337.947 152.38Z" fill="white"/>
<path opacity="0.5" d="M343.037 159.163V163.348L349.399 159.897V155.713L343.037 159.163Z" fill="white"/>
<path opacity="0.5" d="M334.766 163.956V168.438L339.219 165.922V161.439L334.766 163.956Z" fill="white"/>
<path d="M316.951 174.024V178.618L329.676 171.122V166.529L316.951 174.024Z" fill="white"/>
<path opacity="0.5" d="M316.951 164.493V169.074L329.04 162.202V157.621L316.951 164.493Z" fill="white"/>
<path d="M327.106 130.609C327.12 125.798 320.301 121.879 311.875 121.855C303.449 121.832 296.608 125.713 296.594 130.524C296.58 135.335 303.399 139.255 311.825 139.278C320.25 139.302 327.092 135.42 327.106 130.609Z" stroke="#FFDE83" stroke-opacity="0.3" stroke-width="3" stroke-miterlimit="10"/>
<path d="M311.875 116.265C320.301 116.289 327.12 120.208 327.106 125.019" stroke="#FFDE83" stroke-width="8" stroke-miterlimit="10"/>
<path d="M304.983 154.812C304.292 154.428 303.754 154.735 303.754 155.503C303.754 156.271 304.292 157.231 304.983 157.653C305.674 158.037 306.212 157.73 306.212 156.962C306.212 156.156 305.674 155.196 304.983 154.812Z" fill="white"/>
<path d="M299.185 151.549C298.494 151.165 297.957 151.472 297.957 152.24C297.957 153.008 298.494 153.968 299.185 154.39C299.876 154.774 300.414 154.467 300.414 153.699C300.414 152.893 299.838 151.933 299.185 151.549Z" fill="white"/>
<path d="M293.925 148.439C293.234 148.055 292.696 148.362 292.696 149.13C292.696 149.897 293.234 150.858 293.925 151.28C294.616 151.664 295.153 151.357 295.153 150.589C295.153 149.783 294.616 148.822 293.925 148.439Z" fill="white"/>
<path d="M315.702 92.2116V99.1913L309.648 95.7014V88.6859L315.702 92.2116Z" fill="url(#paint31_linear_8_154694)"/>
<path d="M315.701 92.2116L321.791 88.6859V95.7014L315.701 99.1913V92.2116Z" fill="url(#paint32_linear_8_154694)"/>
<path d="M315.703 92.2116L309.649 88.6859L315.703 85.196L321.793 88.6859L315.703 92.2116Z" fill="url(#paint33_linear_8_154694)"/>
<path d="M334.292 103.002L318.659 93.9565" stroke="#FFEBBD" stroke-width="2" stroke-miterlimit="10" stroke-linecap="round"/>
<path d="M315.702 63.4734V70.4889L309.648 66.9633V59.9836L315.702 63.4734Z" fill="url(#paint34_linear_8_154694)"/>
<path d="M315.701 63.4734L321.791 59.9836V66.9633L315.701 70.4889V63.4734Z" fill="url(#paint35_linear_8_154694)"/>
<path d="M315.703 63.4736L309.649 59.9837L315.703 56.4581L321.793 59.9837L315.703 63.4736Z" fill="url(#paint36_linear_8_154694)"/>
<path d="M334.292 103.002V107.632L330.303 105.317V100.723L334.292 103.002Z" fill="url(#paint37_linear_8_154694)"/>
<path d="M334.292 103.002L338.316 100.723V105.317L334.292 107.632V103.002Z" fill="url(#paint38_linear_8_154694)"/>
<path d="M334.292 103.002L330.303 100.723L334.292 98.4081L338.316 100.723L334.292 103.002Z" fill="url(#paint39_linear_8_154694)"/>
<path d="M312.249 115.894L332.298 104.32" stroke="#FFEBBD" stroke-width="2" stroke-miterlimit="10" stroke-linecap="round"/>
<path d="M312.248 115.893V119.383L309.221 117.638V114.148L312.248 115.893Z" fill="url(#paint40_linear_8_154694)"/>
<path d="M312.248 115.893L315.31 114.148V117.638L312.248 119.383V115.893Z" fill="url(#paint41_linear_8_154694)"/>
<path d="M312.248 115.893L309.221 114.148L312.248 112.403L315.31 114.148L312.248 115.893Z" fill="url(#paint42_linear_8_154694)"/>
<path d="M296.864 81.3861L312.248 114.149L315.702 99.1918" stroke="#FFEBBD" stroke-width="2" stroke-miterlimit="10" stroke-linecap="round"/>
<path d="M296.864 81.3859V85.339L293.41 83.3804V79.3918L296.864 81.3859Z" fill="url(#paint43_linear_8_154694)"/>
<path d="M296.864 81.3859L300.283 79.3918V83.3804L296.864 85.339V81.3859Z" fill="url(#paint44_linear_8_154694)"/>
<path d="M296.864 81.386L293.41 79.3919L296.864 77.4333L300.283 79.3919L296.864 81.386Z" fill="url(#paint45_linear_8_154694)"/>
<path d="M298.573 82.3476L309.648 88.6864" stroke="#FFEBBD" stroke-width="2" stroke-miterlimit="10" stroke-linecap="round"/>
<path d="M315.702 88.6862V70.489" stroke="#FFEBBD" stroke-width="2" stroke-miterlimit="10" stroke-linecap="round"/>
<path d="M286.914 426.02L349.617 389.863L286.914 353.639L224.211 389.863L286.914 426.02Z" fill="url(#paint46_linear_8_154694)"/>
<path d="M286.914 426.019V438.116L349.617 401.892V389.863L286.914 426.019Z" fill="url(#paint47_linear_8_154694)"/>
<path d="M286.914 426.019V438.116L224.211 401.892V389.863L286.914 426.019Z" fill="url(#paint48_linear_8_154694)"/>
<path d="M224.559 359.975L283.092 324.955L342.126 359.975L283.092 393.994L224.559 359.975Z" stroke="url(#paint49_linear_8_154694)" stroke-width="5"/>
<path d="M271.086 341.464C284.511 349.636 311.71 366.128 313.11 366.729L324.367 359.975L282.343 334.711L271.086 341.464Z" fill="url(#paint50_linear_8_154694)"/>
<path d="M241.818 359.475C255.243 367.646 279.69 382.888 281.091 383.489L292.347 376.735L253.075 352.721L241.818 359.475Z" fill="url(#paint51_linear_8_154694)"/>
<path d="M241.569 359.475C254.993 367.646 280.191 383.389 281.592 383.989L292.848 377.235L252.826 352.721L241.569 359.475Z" fill="url(#paint52_linear_8_154694)"/>
<path d="M302.103 360.072L313.311 353.221L324.616 360.072L313.311 366.728L302.103 360.072Z" fill="url(#paint53_linear_8_154694)"/>
<path d="M271.086 341.562L282.295 334.711L293.599 341.562L282.295 348.218L271.086 341.562Z" fill="url(#paint54_linear_8_154694)"/>
<path d="M241.569 359.573L252.778 352.721L264.082 359.573L252.778 366.229L241.569 359.573Z" fill="url(#paint55_linear_8_154694)"/>
<path d="M270.085 377.083L281.294 370.231L292.598 377.083L281.294 383.738L270.085 377.083Z" fill="url(#paint56_linear_8_154694)"/>
<g opacity="0.3">
<path d="M224.059 382.241L283.091 346.967L342.627 382.241L283.091 416.507L224.059 382.241Z" fill="url(#paint57_linear_8_154694)"/>
<path d="M224.059 382.241L283.091 346.967L342.627 382.241L283.091 416.507L224.059 382.241Z" fill="url(#paint58_linear_8_154694)"/>
</g>
<g opacity="0.5">
<path d="M224.059 370.734L283.091 335.461L342.627 370.734L283.091 405L224.059 370.734Z" fill="url(#paint59_linear_8_154694)"/>
<path d="M224.059 370.734L283.091 335.461L342.627 370.734L283.091 405L224.059 370.734Z" fill="url(#paint60_linear_8_154694)"/>
</g>
<path d="M318.86 414.03L511.556 523.328C531.37 534.567 531.922 562.921 512.56 574.922L478.558 595.997" stroke="url(#paint61_linear_8_154694)" stroke-width="5" stroke-linecap="round"/>
<path d="M403.163 460.158L432.771 442.73C442.179 437.191 453.852 437.201 463.251 442.755L516.109 473.989C525.856 479.749 538.016 479.53 547.55 473.424L616.943 428.982" stroke="#FFBD0C"/>
<circle cx="242.51" cy="228.245" r="3.18125" fill="#FFBD0C"/>
<circle cx="402.845" cy="461.749" r="3.18125" fill="#FFBD0C"/>
<circle cx="714.607" cy="230.154" r="3.18125" fill="#FFBD0C"/>
<circle cx="509.099" cy="130.263" r="3.18125" fill="#FFBD0C"/>
<path d="M678.658 388.262L793.595 321.72C814.28 309.744 813.337 279.567 791.944 268.906L651.618 198.978" stroke="#FFBD0C"/>
<path d="M657.192 135.46C657.529 136.23 657.853 136.981 658.165 137.7C658.439 138.788 658.91 139.768 659.457 140.722C659.635 141.422 659.285 141.448 658.61 141.079L657.223 139.03C656.835 139.361 656.562 139.927 656.339 140.614L656.721 143.757C656.625 144.362 656.377 144.304 656.072 143.961L655.512 141.104L655.461 144.164C655.245 144.425 655.067 144.336 654.92 143.923L654.742 143.045C654.589 143.363 654.43 143.305 654.278 142.981C654.278 142.981 654.163 139.297 654.163 139.24C654.163 139.183 655.366 134.939 655.366 134.939L655.83 134.029L657.662 134.538L657.192 135.46Z" fill="#C2C2C2"/>
<path d="M663.147 117.804C662.492 120.279 662.663 123.308 661.811 126.896C660.647 130.491 659.221 132.247 657.573 136.332C657.319 136.726 655.035 136.217 655.124 135.791C656.835 127.927 655.836 130.498 656.924 127.1C657.414 124.498 657.453 121.17 657.758 118.002C657.942 115.921 658.731 114.795 659.813 114.324C662.263 113.529 664.521 115.476 663.147 117.804Z" fill="url(#paint62_linear_8_154694)"/>
<path d="M663.147 117.804C662.492 120.279 662.663 123.308 661.811 126.896C660.647 130.491 659.221 132.247 657.573 136.332C657.319 136.726 655.035 136.217 655.124 135.791C656.835 127.927 655.836 130.498 656.924 127.1C657.414 124.498 657.453 121.17 657.758 118.002C657.942 115.921 658.731 114.795 659.813 114.324C662.263 113.529 664.521 115.476 663.147 117.804Z" fill="url(#paint63_linear_8_154694)"/>
<path d="M662.911 170.072C662.911 170.072 663.254 171.93 663.083 172.732C662.911 173.533 660.798 174.049 660.798 174.049C660.798 174.049 659.004 176.231 656.485 176.034C654.996 175.919 654.5 175.525 654.264 175.092C654.035 174.653 654.251 174.1 654.544 173.692C654.837 173.285 656.739 172.592 657.509 171.364C657.884 170.766 658.508 169.506 658.508 169.506L658.584 168.831C658.692 167.871 659.481 167.133 660.442 167.094C661.746 167.037 662.771 168.1 662.675 169.36L662.644 169.767L662.911 170.072Z" fill="#0B1017"/>
<path d="M671.717 175.729C672.029 176.314 672.029 177.313 672.054 178.757C671.66 179.552 671.068 180.201 670.343 180.443C670.343 180.443 669.783 183.026 666.328 183.115C663.089 183.198 663.108 181.881 663.127 181.887C663.127 181.887 663.127 181.143 663.872 180.513C664.336 180.119 666.061 178.655 666.487 178.102C666.913 177.548 667.257 176.67 667.257 176.67L667.403 174.329H671.774L671.717 175.729Z" fill="#0B1017"/>
<path d="M659.221 135.155L664.973 142.943C664.687 145.093 664.235 151.036 663.732 153.065C664.801 160.77 663.42 169.493 662.791 169.977C661.906 170.702 659.813 171.148 658.591 169.322C658.591 169.322 659.189 160.872 658.063 152.079L659.221 135.155Z" fill="#323232"/>
<path d="M663.224 141.441L664.814 155.903C666.589 164.881 667.359 176.518 667.359 176.518C668.396 178.363 671.164 177.625 672.042 176.518C672.137 175.353 672.233 174.151 672.309 172.91C672.64 167.54 672.608 161.591 670.591 156.495C671.234 152.741 671.915 145.717 671.571 142.281C672.22 140.296 672.456 137.579 671.329 134.767C671.317 134.729 671.304 134.703 671.285 134.665C671.253 134.69 671.221 134.722 671.189 134.748C670.712 135.155 670.165 135.441 669.58 135.632C665.419 136.994 659.196 133.564 659.19 133.653C659.056 137.814 660.57 139.475 663.224 141.441Z" fill="#525252"/>
<path d="M658.19 128.36C658.464 130.084 658.807 131.738 659.151 133.322C659.151 133.322 659.151 133.749 659.405 134.302C659.813 135.187 660.875 136.389 663.643 136.637C665.462 136.904 666.875 136.911 667.957 136.771C668.745 136.663 669.363 136.485 669.846 136.256C669.872 136.243 669.897 136.23 669.929 136.217L670.222 136.065C671.602 135.225 671.583 134.08 671.583 134.08C672.137 131.21 672.525 128.283 672.76 125.293C672.824 124.529 672.805 123.486 672.754 122.347C672.665 120.197 672.041 117.747 672.054 116.271C669.076 115.1 668.37 114.502 665.863 113.102C663.286 112.562 660.907 112.778 658.674 113.185C657.229 118.587 657.458 123.709 658.19 128.36Z" fill="url(#paint64_linear_8_154694)"/>
<path d="M663.567 118.269L663.147 119.605L662.377 119.325V117.817L663.147 117.295L663.567 118.269Z" fill="#434343"/>
<path d="M663.147 119.605C662.93 122.411 662.93 127.704 663.14 130.669L661.893 131.859L661.034 129.912C661.2 127.017 661.76 122.055 662.377 119.325L663.147 119.605Z" fill="#434343"/>
<path d="M665.272 111.824C665.361 111.824 666.831 113.643 666.831 113.643C668.797 114.757 666.271 118.905 663.586 118.472L661.365 116.926L665.272 111.824Z" fill="#C2C2C2"/>
<path d="M666.386 113.09C666.749 113.344 667.385 113.777 667.938 114.299C667.938 114.299 666.863 119.325 663.567 119.605C663.332 118.733 662.976 118.04 662.976 118.04C665.018 117.728 666.386 114.629 666.386 113.09Z" fill="url(#paint65_linear_8_154694)"/>
<path d="M662.975 118.04L661.766 119.198C661.766 119.198 660.608 114.47 661.626 113.471C662.638 112.466 662.975 118.04 662.975 118.04Z" fill="url(#paint66_linear_8_154694)"/>
<path d="M662.001 106.842C664.406 106.867 665.78 108 665.876 110.513C665.806 113.154 665.672 114.744 664.4 116.551C663.604 117.55 662.529 118.269 661.295 118.205C659.832 118.129 657.668 114.623 657.458 112.078C657.102 109.508 659.291 107.542 662.001 106.842Z" fill="#EEEEEE"/>
<path d="M657.757 113.93C658.305 115.215 661.492 114.979 662.898 113.408L663.057 114.35L664.349 113.281L665.469 114.738L665.876 114.159C666.9 112.11 666.843 108.738 663.935 107.039C660.042 105.474 655.219 110.004 657.757 113.93Z" fill="black"/>
<path d="M664.705 114.375C664.858 114.114 664.992 113.834 665.023 113.535C665.055 113.236 664.966 112.918 664.743 112.721C664.521 112.524 664.139 112.485 663.904 112.676C663.738 112.81 663.668 113.026 663.662 113.236C663.662 113.446 663.719 113.643 663.776 113.841C663.827 114.019 663.885 114.203 663.935 114.382C663.974 114.502 664.018 114.642 664.133 114.7C664.241 114.757 664.381 114.725 664.476 114.649C664.578 114.585 664.642 114.483 664.705 114.375Z" fill="#C2C2C2"/>
<path d="M677.271 140.836L677.424 143.095L677.335 145.106L676.75 146.601C676.648 146.951 676.247 147.053 676.381 146.626L675.865 148.255C675.757 148.739 675.261 148.745 675.293 148.287L675.668 146.136L674.319 149.082C674.109 149.521 673.568 149.566 673.696 148.968L674.637 145.767L673.645 147.517L672.671 148.694C672.27 149.095 671.742 148.879 671.99 148.376L673.021 146.734C673.021 146.734 673.467 145.456 673.632 144.851C673.657 144.756 673.39 143.598 673.39 143.598L671.062 144.813C670.432 145.017 670.177 144.469 670.743 144.062L673.098 141.988C673.098 141.988 674.472 141.155 674.593 141.078C674.72 141.002 674.72 141.002 674.72 141.002L675.064 139.933L677.284 140.098L677.271 140.836Z" fill="#C2C2C2"/>
<path d="M672.901 116.863C675.427 119.573 676.68 122.71 678.532 127.348C678.996 131.159 678.258 135.976 677.291 141.053C676.572 141.415 675.802 141.148 674.822 140.684C674.911 136.917 673.982 133.081 674.364 129.333C672.373 128.08 670.388 124.453 668.25 121.304C667.626 116.907 670.184 114.502 672.901 116.863Z" fill="url(#paint67_linear_8_154694)"/>
<path d="M630.41 172.956C639.502 172.982 647.65 175.297 653.181 178.941L660.43 179.123V188.501C660.536 189.093 660.59 189.694 660.588 190.302C660.561 199.835 647.005 207.525 630.31 207.479C613.615 207.432 600.104 199.666 600.131 190.133C600.133 189.531 600.189 188.936 600.296 188.35V177.614L609.225 177.838C614.687 174.798 622.166 172.933 630.41 172.956Z" fill="url(#paint68_linear_8_154694)"/>
<path d="M660.589 178.232C660.616 168.699 647.105 160.933 630.41 160.887C613.715 160.84 600.159 168.531 600.131 178.064C600.104 187.597 613.615 195.363 630.31 195.409C647.005 195.456 660.561 187.765 660.589 178.232Z" fill="url(#paint69_linear_8_154694)"/>
<path d="M660.589 178.232C660.616 168.699 647.105 160.933 630.41 160.887C613.715 160.84 600.159 168.531 600.131 178.064C600.104 187.597 613.615 195.363 630.31 195.409C647.005 195.456 660.561 187.765 660.589 178.232Z" fill="url(#paint70_linear_8_154694)"/>
<path d="M647.29 178.144C647.305 172.805 639.738 168.456 630.388 168.43C621.038 168.404 613.446 172.711 613.431 178.05C613.415 183.389 620.983 187.738 630.332 187.764C639.682 187.79 647.275 183.483 647.29 178.144Z" fill="url(#paint71_linear_8_154694)"/>
<path d="M647.29 161.021C647.305 155.682 639.738 151.332 630.388 151.306C621.038 151.28 613.446 155.587 613.431 160.926C613.415 166.265 620.983 170.615 630.332 170.641C639.682 170.667 647.275 166.36 647.29 161.021Z" stroke="url(#paint72_linear_8_154694)" stroke-miterlimit="10"/>
<path d="M655.463 145.137C655.485 137.221 644.265 130.772 630.402 130.734C616.538 130.695 605.281 137.081 605.258 144.997C605.236 152.914 616.456 159.363 630.319 159.401C644.183 159.44 655.44 153.054 655.463 145.137Z" stroke="url(#paint73_linear_8_154694)" stroke-miterlimit="10"/>
<path d="M631.258 177.982V126.127" stroke="url(#paint74_linear_8_154694)" stroke-width="3"/>
<path d="M630.984 156.439C635.05 156.439 638.346 153.143 638.346 149.077C638.346 145.011 635.05 141.715 630.984 141.715C626.918 141.715 623.623 145.011 623.623 149.077C623.623 153.143 626.918 156.439 630.984 156.439Z" fill="url(#paint75_linear_8_154694)"/>
<path opacity="0.5" d="M628.316 195.452C655.215 195.452 660.646 182.664 660 176.27V113.981C650.804 119.01 630.773 128.896 624.221 128.206C617.669 127.516 605.398 117.717 600.082 112.903V177.132C600.082 184.891 608.703 195.452 628.316 195.452Z" fill="url(#paint76_linear_8_154694)"/>
<path d="M630.41 96.607C639.503 96.6323 647.651 98.9482 653.182 102.591L660.432 102.774V112.152C660.538 112.744 660.591 113.345 660.589 113.953C660.562 123.486 647.006 131.176 630.311 131.129C613.616 131.083 600.105 123.317 600.132 113.784C600.134 113.18 600.19 112.583 600.298 111.996V101.265L609.226 101.489C614.688 98.4483 622.166 96.584 630.41 96.607Z" fill="url(#paint77_linear_8_154694)"/>
<path d="M660.589 101.883C660.617 92.3495 647.105 84.5837 630.41 84.5372C613.716 84.4906 600.16 92.181 600.132 101.714C600.105 111.247 613.616 119.013 630.311 119.059C647.006 119.106 660.562 111.416 660.589 101.883Z" fill="url(#paint78_linear_8_154694)"/>
<path d="M660.589 101.883C660.617 92.3495 647.105 84.5837 630.41 84.5372C613.716 84.4906 600.16 92.181 600.132 101.714C600.105 111.247 613.616 119.013 630.311 119.059C647.006 119.106 660.562 111.416 660.589 101.883Z" fill="url(#paint79_linear_8_154694)"/>
<path d="M553.307 249.378C553.303 250.677 551.457 251.724 549.184 251.717C546.911 251.711 545.071 250.654 545.075 249.356C545.079 248.057 546.924 247.01 549.198 247.017C551.471 247.023 553.311 248.08 553.307 249.378Z" fill="white"/>
<path d="M387.817 249.173C387.813 250.471 385.967 251.519 383.694 251.512C381.421 251.506 379.581 250.449 379.585 249.15C379.588 247.852 381.434 246.805 383.707 246.812C385.981 246.818 387.82 247.875 387.817 249.173Z" fill="white"/>
<path d="M333.78 197.19C335.373 196.305 336.611 197.013 336.611 198.783C336.611 200.553 335.373 202.765 333.78 203.738C332.187 204.623 330.947 203.916 330.947 202.146C330.947 200.287 332.187 198.075 333.78 197.19Z" fill="white"/>
<path d="M365.935 349.071V347.691L364.709 348.381L365.935 349.071Z" fill="#E73E4A"/>
<path d="M552.213 358.051V356.238L553.764 357.116L552.213 358.051Z" fill="#F69322"/>
<path d="M289.73 197.139C288.137 196.254 286.899 196.962 286.899 198.732C286.899 200.502 288.137 202.714 289.73 203.687C291.323 204.572 292.563 203.864 292.563 202.094C292.563 200.236 291.323 198.024 289.73 197.139Z" fill="white"/>
<path d="M254.054 410.716C252.461 409.831 251.222 410.539 251.222 412.309C251.222 414.079 252.461 416.291 254.054 417.264C255.646 418.149 256.886 417.441 256.886 415.672C256.886 413.813 255.646 411.601 254.054 410.716Z" fill="white"/>
<path d="M610.255 193.453C608.662 192.568 607.424 193.276 607.424 195.046C607.424 196.816 608.662 199.028 610.255 200.002C611.848 200.887 613.088 200.179 613.088 198.409C613.088 196.55 611.848 194.338 610.255 193.453Z" fill="white"/>
<path fill-rule="evenodd" clip-rule="evenodd" d="M17.7456 358.577L287.729 200.006L289.071 200.861L290.413 201.716L19.3557 361.321L17.7456 358.577Z" fill="url(#paint80_linear_8_154694)"/>
<path d="M290.154 199.912C290.704 200.5 290.635 201.615 290.355 201.729H289.383C288.459 201.454 286.836 200.727 287.734 200.019C288.856 199.133 289.604 199.324 290.154 199.912Z" fill="#FFC427"/>
<path fill-rule="evenodd" clip-rule="evenodd" d="M382.115 229.623L333.363 201.863L334.741 199.582L385.296 227.953V248.698L382.115 247.785V229.623Z" fill="#F27D2D"/>
<path d="M333.301 200.034C332.629 200.884 333.079 201.599 333.388 201.85L335.624 200.739L334.734 199.602C334.463 199.499 333.795 199.442 333.301 200.034Z" fill="#F27D2D"/>
<circle cx="358.943" cy="214.248" r="3.18125" fill="#FFBD0C"/>
<path d="M253.327 414.348L83.448 507.559" stroke="url(#paint81_linear_8_154694)" stroke-width="5" stroke-linecap="round"/>
<circle cx="231.693" cy="426.119" r="3.18125" fill="#FFBD0C"/>
<path fill-rule="evenodd" clip-rule="evenodd" d="M550.773 232.09L610.84 198.513L609.14 195.716L547.591 230.226L547.591 247.518L550.773 249.367L550.773 232.09Z" fill="url(#paint82_linear_8_154694)"/>
<path d="M549.002 250.336C550.235 250.701 550.757 249.663 550.757 249.352C550.554 249.174 550.137 248.807 550.09 248.772C550.044 248.738 548.427 247.946 547.625 247.554C547.63 248.531 547.537 249.902 549.002 250.336Z" fill="#FFC40C"/>
<circle cx="568.905" cy="219.974" r="3.18125" fill="#FFBD0C"/>
<path d="M611.38 196.487C610.7 195.338 609.598 195.504 609.133 195.73C609.047 195.922 610.211 197.668 610.804 198.516C611.279 198.318 612.06 197.635 611.38 196.487Z" fill="#E73E4A"/>
<path fill-rule="evenodd" clip-rule="evenodd" d="M633.33 402.685L552.208 356.239L554.852 354.541L634.911 399.925L633.33 402.685Z" fill="url(#paint83_linear_8_154694)"/>
<path d="M681.945 415.847L681.613 416.059C681.568 416.178 681.523 416.298 681.494 416.417C681.043 417.43 680.253 418.331 679.182 418.95L636.783 443.388C632.328 445.979 626.802 445.979 622.348 443.388L610.963 436.806C609.892 436.187 609.103 435.286 608.652 434.272C608.595 434.271 608.088 433.314 608.144 431.907C608.2 430.668 608.595 429.429 609.441 428.472C609.779 428.078 610.175 427.684 610.682 427.402C610.739 427.346 610.851 427.289 610.908 427.233L649.079 405.216C649.248 405.104 649.417 405.048 649.53 404.935L649.811 404.766C650.318 404.485 650.544 404.315 650.544 404.315H650.601L653.364 402.739C653.702 402.57 654.04 402.345 654.378 402.232C654.379 402.232 654.435 402.231 654.435 402.175C658.72 400.205 663.682 400.374 667.797 402.739L669.921 403.966L679.091 398.918C679.979 398.284 681.793 396.483 681.945 394.352V415.847Z" fill="url(#paint84_linear_8_154694)"/>
<path d="M608.145 411.744C608.201 410.505 608.596 409.266 609.442 408.309C609.78 407.915 610.175 407.521 610.682 407.239C610.738 407.183 610.851 407.127 610.908 407.07L649.079 385.054C649.248 384.941 649.417 384.885 649.53 384.772L649.812 384.603C650.319 384.322 650.545 384.153 650.545 384.153C650.545 384.153 650.545 384.153 650.601 384.153L653.364 382.576C653.702 382.407 654.04 382.182 654.379 382.069C654.379 382.069 654.435 382.069 654.435 382.013C658.72 380.042 663.682 380.211 667.798 382.576L679.183 389.158C681.551 390.51 682.396 393.213 681.72 395.578C681.663 395.803 681.551 396.028 681.494 396.253C681.043 397.267 680.254 398.168 679.183 398.787L636.783 423.225C632.328 425.816 626.803 425.816 622.349 423.225L610.964 416.643C609.893 416.024 609.103 415.123 608.652 414.109C608.596 414.109 608.088 413.152 608.145 411.744Z" fill="url(#paint85_linear_8_154694)"/>
<path d="M614.335 412.066C614.377 411.145 614.67 410.223 615.298 409.512C615.549 409.219 615.842 408.925 616.219 408.716C616.261 408.674 616.344 408.632 616.386 408.59L648.037 389.633C648.163 389.549 648.289 389.507 648.372 389.424L648.581 389.298C648.958 389.089 649.126 388.963 649.126 388.963C649.126 388.963 649.125 388.963 649.167 388.963L651.218 387.791C651.469 387.665 651.319 387.695 651.319 387.695C651.319 387.695 652.461 387.124 657.026 384.842C660.206 383.376 662.446 383.565 665.501 385.324L673.951 390.218C675.709 391.223 676.337 393.233 675.835 394.992C675.793 395.159 675.709 395.327 675.667 395.494C675.332 396.248 674.746 396.918 673.951 397.378L635.592 420.603C632.286 422.529 628.185 422.529 624.879 420.603L616.428 415.709C615.633 415.248 615.132 415.08 614.797 414.326C614.755 414.326 614.294 413.113 614.335 412.066Z" fill="url(#paint86_linear_8_154694)"/>
<path d="M608.14 432.582V412.613C608.203 413.438 609.243 415.619 612.895 417.749C616.548 419.88 621.519 422.695 623.548 423.836C624.245 424.217 626.249 425.016 628.684 425.168C631.118 425.32 633.249 424.851 634.01 424.597V444.57C632.361 445.141 627.961 445.826 623.548 444C622.787 443.695 614.227 438.673 610.042 436.201C608.738 435.343 608.23 433.431 608.14 432.582Z" fill="url(#paint87_linear_8_154694)"/>
<path d="M612.613 390.333V384.81C612.613 384.81 613.613 372.211 620.381 368.342C627.148 364.472 630.349 369.499 635.816 368.342C641.284 367.184 638.983 354.948 647.218 352.071V370.061L612.613 390.333Z" fill="url(#paint88_linear_8_154694)"/>
<g opacity="0.3">
<path d="M606.445 351.774V412.259L676.855 371.913V311.594L606.445 351.774Z" fill="url(#paint89_linear_8_154694)"/>
<path d="M606.445 351.774V412.259L676.855 371.913V311.594L606.445 351.774Z" fill="url(#paint90_linear_8_154694)"/>
</g>
<path d="M606.445 351.774V412.258L676.855 371.913V311.594L606.445 351.774Z" stroke="url(#paint91_linear_8_154694)" stroke-width="3" stroke-miterlimit="10"/>
<g opacity="0.3">
<path d="M612.615 373.952L642.991 356.54V353.823L612.615 370.811V373.952Z" fill="url(#paint92_linear_8_154694)"/>
<path d="M612.615 373.952L642.991 356.54V353.823L612.615 370.811V373.952Z" fill="url(#paint93_linear_8_154694)"/>
</g>
<path d="M612.614 373.952L637.501 360.052V357.117L612.614 370.836V373.952Z" fill="url(#paint94_linear_8_154694)"/>
<path d="M612.614 373.952L637.501 360.052V357.117L612.614 370.836V373.952Z" fill="url(#paint95_linear_8_154694)"/>
<path d="M612.614 384.199L631.645 373.647V371.024L612.614 381.167V384.199Z" fill="url(#paint96_linear_8_154694)"/>
<path d="M612.614 384.199L631.645 373.647V371.024L612.614 381.167V384.199Z" fill="url(#paint97_linear_8_154694)"/>
<path d="M651.409 346.838C658.937 339.617 662.329 332.558 662.515 332.19C662.701 332.351 666.116 335.524 673.668 334.122C673.691 334.995 674.04 351.505 662.608 361.784C651.13 364.566 651.386 347.711 651.409 346.838Z" fill="url(#paint98_linear_8_154694)"/>
<circle cx="726.917" cy="460.52" r="3.18125" fill="#FFBD0C"/>
<path d="M657.865 417.442C659.458 416.557 660.696 417.265 660.696 419.035C660.696 420.805 659.458 423.017 657.865 423.99C656.272 424.875 655.032 424.167 655.032 422.397C655.032 420.539 656.272 418.327 657.865 417.442Z" fill="white"/>
<path d="M658.521 421.072L787.043 494.877L977.282 599.858" stroke="url(#paint99_linear_8_154694)" stroke-width="5" stroke-linecap="round"/>
<circle cx="580.358" cy="370.765" r="3.18125" fill="#FFBD0C"/>
<path d="M383.693 249.954C382.333 249.89 382.06 248.434 382.093 247.714C383.153 246.554 385.293 248.174 385.273 248.414C385.253 248.654 385.393 250.034 383.693 249.954Z" fill="#F27D2D"/>
<defs>
<linearGradient id="paint0_linear_8_154694" x1="625.85" y1="185.616" x2="938.249" y2="26.8722" gradientUnits="userSpaceOnUse">
<stop stop-color="#FFBD0C"/>
<stop offset="1" stop-color="#FFBD0C" stop-opacity="0"/>
</linearGradient>
<linearGradient id="paint1_linear_8_154694" x1="208.789" y1="153.486" x2="6.14319" y2="32.9168" gradientUnits="userSpaceOnUse">
<stop stop-color="#FFDE83"/>
<stop offset="1" stop-color="#FFDE83" stop-opacity="0"/>
</linearGradient>
<linearGradient id="paint2_linear_8_154694" x1="640.699" y1="204.334" x2="282.513" y2="380.077" gradientUnits="userSpaceOnUse">
<stop offset="0.09375" stop-color="#E73E4A"/>
<stop offset="0.697917" stop-color="#F27D2D"/>
<stop offset="0.958333" stop-color="#FFC40C"/>
</linearGradient>
<linearGradient id="paint3_linear_8_154694" x1="483.248" y1="193.882" x2="720.059" y2="352.45" gradientUnits="userSpaceOnUse">
<stop offset="0.00558659" stop-color="#E5E5E5"/>
<stop offset="0.4394" stop-color="#D5D5D5"/>
<stop offset="1" stop-color="#B4B4B4"/>
</linearGradient>
<linearGradient id="paint4_linear_8_154694" x1="906.255" y1="142.988" x2="280.091" y2="366.123" gradientUnits="userSpaceOnUse">
<stop offset="0.09375" stop-color="#E73E4A"/>
<stop offset="0.697917" stop-color="#F27D2D"/>
<stop offset="0.958333" stop-color="#FFC40C"/>
</linearGradient>
<linearGradient id="paint5_linear_8_154694" x1="565.964" y1="281.422" x2="559.842" y2="228.8" gradientUnits="userSpaceOnUse">
<stop stop-color="#FFC20C" stop-opacity="0"/>
<stop offset="0.458687" stop-color="#FFC30C" stop-opacity="0.458687"/>
<stop offset="1" stop-color="#FFC40C" stop-opacity="0.71"/>
</linearGradient>
<linearGradient id="paint6_linear_8_154694" x1="418.433" y1="246.379" x2="451.318" y2="300.651" gradientUnits="userSpaceOnUse">
<stop stop-color="#E03E4A"/>
<stop offset="1" stop-color="#E03E4A" stop-opacity="0"/>
</linearGradient>
<linearGradient id="paint7_linear_8_154694" x1="547.276" y1="165.96" x2="414.536" y2="246.076" gradientUnits="userSpaceOnUse">
<stop offset="0.145833" stop-color="#099EDE"/>
<stop offset="1" stop-color="#45D6D9"/>
</linearGradient>
<linearGradient id="paint8_linear_8_154694" x1="518.677" y1="220.611" x2="432.208" y2="205.362" gradientUnits="userSpaceOnUse">
<stop offset="0.09375" stop-color="#E63E4A"/>
<stop offset="0.524274" stop-color="#F17D2D"/>
<stop offset="1" stop-color="#FFC30C"/>
</linearGradient>
<linearGradient id="paint9_linear_8_154694" x1="273.707" y1="127.089" x2="514.242" y2="233.858" gradientUnits="userSpaceOnUse">
<stop offset="0.09375" stop-color="#E63E4A"/>
<stop offset="0.6979" stop-color="#F17D2D"/>
<stop offset="0.9583" stop-color="#FFD723"/>
</linearGradient>
<linearGradient id="paint10_linear_8_154694" x1="401.357" y1="177.226" x2="553.976" y2="337.967" gradientUnits="userSpaceOnUse">
<stop offset="0.09375" stop-color="#E63E4A"/>
<stop offset="0.6979" stop-color="#F17D2D"/>
<stop offset="0.9583" stop-color="#FFC30C"/>
</linearGradient>
<linearGradient id="paint11_linear_8_154694" x1="552.037" y1="231.585" x2="466.616" y2="208.895" gradientUnits="userSpaceOnUse">
<stop offset="0.09375" stop-color="#E63E4A"/>
<stop offset="0.524274" stop-color="#F17D2D"/>
<stop offset="1" stop-color="#FFC30C"/>
</linearGradient>
<linearGradient id="paint12_linear_8_154694" x1="518.456" y1="186.254" x2="431.987" y2="171.004" gradientUnits="userSpaceOnUse">
<stop offset="0.09375" stop-color="#E63E4A"/>
<stop offset="0.524274" stop-color="#F17D2D"/>
<stop offset="1" stop-color="#FFC30C"/>
</linearGradient>
<linearGradient id="paint13_linear_8_154694" x1="273.709" y1="92.7321" x2="514.243" y2="199.501" gradientUnits="userSpaceOnUse">
<stop offset="0.09375" stop-color="#E63E4A"/>
<stop offset="0.6979" stop-color="#F17D2D"/>
<stop offset="0.9583" stop-color="#FFD723"/>
</linearGradient>
<linearGradient id="paint14_linear_8_154694" x1="401.358" y1="142.869" x2="553.977" y2="303.609" gradientUnits="userSpaceOnUse">
<stop offset="0.09375" stop-color="#E63E4A"/>
<stop offset="0.6979" stop-color="#F17D2D"/>
<stop offset="0.9583" stop-color="#FFC30C"/>
</linearGradient>
<linearGradient id="paint15_linear_8_154694" x1="366.976" y1="100.627" x2="373.097" y2="153.249" gradientUnits="userSpaceOnUse">
<stop stop-color="#FFC20C" stop-opacity="0"/>
<stop offset="0.458687" stop-color="#FFC30C" stop-opacity="0.458687"/>
<stop offset="1" stop-color="#FFC40C" stop-opacity="0.71"/>
</linearGradient>
<linearGradient id="paint16_linear_8_154694" x1="552.037" y1="197.546" x2="466.616" y2="174.857" gradientUnits="userSpaceOnUse">
<stop offset="0.09375" stop-color="#E63E4A"/>
<stop offset="0.524274" stop-color="#F17D2D"/>
<stop offset="1" stop-color="#FFC30C"/>
</linearGradient>
<linearGradient id="paint17_linear_8_154694" x1="547.275" y1="109.971" x2="414.536" y2="190.086" gradientUnits="userSpaceOnUse">
<stop offset="0.145833" stop-color="#099EDE"/>
<stop offset="1" stop-color="#45D6D9"/>
</linearGradient>
<linearGradient id="paint18_linear_8_154694" x1="496.282" y1="138.534" x2="466.641" y2="206.009" gradientUnits="userSpaceOnUse">
<stop stop-color="#E73E4A"/>
<stop offset="1" stop-color="#FFC40C"/>
</linearGradient>
<linearGradient id="paint19_linear_8_154694" x1="547.275" y1="102.336" x2="414.536" y2="182.451" gradientUnits="userSpaceOnUse">
<stop offset="0.145833" stop-color="#099EDE"/>
<stop offset="1" stop-color="#45D6D9"/>
</linearGradient>
<linearGradient id="paint20_linear_8_154694" x1="496.282" y1="130.899" x2="466.641" y2="198.374" gradientUnits="userSpaceOnUse">
<stop stop-color="#E73E4A"/>
<stop offset="1" stop-color="#FFC40C"/>
</linearGradient>
<linearGradient id="paint21_linear_8_154694" x1="547.275" y1="95.3371" x2="414.536" y2="175.452" gradientUnits="userSpaceOnUse">
<stop offset="0.145833" stop-color="#099EDE"/>
<stop offset="1" stop-color="#45D6D9"/>
</linearGradient>
<linearGradient id="paint22_linear_8_154694" x1="496.282" y1="123.9" x2="466.641" y2="191.375" gradientUnits="userSpaceOnUse">
<stop stop-color="#E73E4A"/>
<stop offset="1" stop-color="#FFC40C"/>
</linearGradient>
<linearGradient id="paint23_linear_8_154694" x1="458.825" y1="107.069" x2="472.882" y2="107.069" gradientUnits="userSpaceOnUse">
<stop offset="0.09375" stop-color="#E63E4A"/>
<stop offset="0.6979" stop-color="#F17D2D"/>
<stop offset="0.9583" stop-color="#FFC30C"/>
</linearGradient>
<linearGradient id="paint24_linear_8_154694" x1="365.934" y1="345.836" x2="298.363" y2="378" gradientUnits="userSpaceOnUse">
<stop offset="0.09375" stop-color="#E73E4A"/>
<stop offset="0.697917" stop-color="#F27D2D"/>
<stop offset="0.958333" stop-color="#FFC40C"/>
</linearGradient>
<linearGradient id="paint25_linear_8_154694" x1="360.434" y1="196.933" x2="281.013" y2="182.926" gradientUnits="userSpaceOnUse">
<stop offset="0.09375" stop-color="#E63E4A"/>
<stop offset="0.524274" stop-color="#F17D2D"/>
<stop offset="1" stop-color="#FFC30C"/>
</linearGradient>
<linearGradient id="paint26_linear_8_154694" x1="135.429" y1="110.877" x2="356.361" y2="208.945" gradientUnits="userSpaceOnUse">
<stop offset="0.09375" stop-color="#E63E4A"/>
<stop offset="0.6979" stop-color="#F17D2D"/>
<stop offset="0.9583" stop-color="#FFD723"/>
</linearGradient>
<linearGradient id="paint27_linear_8_154694" x1="252.676" y1="156.928" x2="392.857" y2="304.569" gradientUnits="userSpaceOnUse">
<stop offset="0.09375" stop-color="#E63E4A"/>
<stop offset="0.6979" stop-color="#F17D2D"/>
<stop offset="0.9583" stop-color="#FFC30C"/>
</linearGradient>
<linearGradient id="paint28_linear_8_154694" x1="360.434" y1="144.76" x2="281.013" y2="130.753" gradientUnits="userSpaceOnUse">
<stop offset="0.09375" stop-color="#E63E4A"/>
<stop offset="0.524274" stop-color="#F17D2D"/>
<stop offset="1" stop-color="#FFC30C"/>
</linearGradient>
<linearGradient id="paint29_linear_8_154694" x1="135.429" y1="58.7043" x2="356.361" y2="156.772" gradientUnits="userSpaceOnUse">
<stop offset="0.09375" stop-color="#E63E4A"/>
<stop offset="0.6979" stop-color="#F17D2D"/>
<stop offset="0.9583" stop-color="#FFD723"/>
</linearGradient>
<linearGradient id="paint30_linear_8_154694" x1="252.676" y1="104.755" x2="392.857" y2="252.396" gradientUnits="userSpaceOnUse">
<stop offset="0.09375" stop-color="#E63E4A"/>
<stop offset="0.6979" stop-color="#F17D2D"/>
<stop offset="0.9583" stop-color="#FFC30C"/>
</linearGradient>
<linearGradient id="paint31_linear_8_154694" x1="293.957" y1="78.401" x2="348.262" y2="123.487" gradientUnits="userSpaceOnUse">
<stop offset="0.09375" stop-color="#E63E4A"/>
<stop offset="0.6979" stop-color="#F17D2D"/>
<stop offset="0.9583" stop-color="#FFC30C"/>
</linearGradient>
<linearGradient id="paint32_linear_8_154694" x1="315.95" y1="115.343" x2="318.735" y2="94.0241" gradientUnits="userSpaceOnUse">
<stop offset="0.09375" stop-color="#E63E4A"/>
<stop offset="0.6979" stop-color="#F17D2D"/>
<stop offset="0.9583" stop-color="#FFC30C"/>
</linearGradient>
<linearGradient id="paint33_linear_8_154694" x1="294.824" y1="79.9746" x2="329.779" y2="94.571" gradientUnits="userSpaceOnUse">
<stop offset="0.09375" stop-color="#E63E4A"/>
<stop offset="0.6979" stop-color="#F17D2D"/>
<stop offset="0.9583" stop-color="#FFC30C"/>
</linearGradient>
<linearGradient id="paint34_linear_8_154694" x1="293.957" y1="49.6765" x2="348.262" y2="94.7632" gradientUnits="userSpaceOnUse">
<stop offset="0.09375" stop-color="#E63E4A"/>
<stop offset="0.6979" stop-color="#F17D2D"/>
<stop offset="0.9583" stop-color="#FFC30C"/>
</linearGradient>
<linearGradient id="paint35_linear_8_154694" x1="315.95" y1="86.6185" x2="318.735" y2="65.3" gradientUnits="userSpaceOnUse">
<stop offset="0.09375" stop-color="#E63E4A"/>
<stop offset="0.6979" stop-color="#F17D2D"/>
<stop offset="0.9583" stop-color="#FFC30C"/>
</linearGradient>
<linearGradient id="paint36_linear_8_154694" x1="294.824" y1="51.2505" x2="329.779" y2="65.8466" gradientUnits="userSpaceOnUse">
<stop offset="0.09375" stop-color="#E63E4A"/>
<stop offset="0.6979" stop-color="#F17D2D"/>
<stop offset="0.9583" stop-color="#FFC30C"/>
</linearGradient>
<linearGradient id="paint37_linear_8_154694" x1="319.968" y1="93.927" x2="355.755" y2="123.639" gradientUnits="userSpaceOnUse">
<stop offset="0.09375" stop-color="#E63E4A"/>
<stop offset="0.6979" stop-color="#F17D2D"/>
<stop offset="0.9583" stop-color="#FFC30C"/>
</linearGradient>
<linearGradient id="paint38_linear_8_154694" x1="334.461" y1="118.272" x2="336.297" y2="104.223" gradientUnits="userSpaceOnUse">
<stop offset="0.09375" stop-color="#E63E4A"/>
<stop offset="0.6979" stop-color="#F17D2D"/>
<stop offset="0.9583" stop-color="#FFC30C"/>
</linearGradient>
<linearGradient id="paint39_linear_8_154694" x1="320.538" y1="94.964" x2="343.574" y2="104.583" gradientUnits="userSpaceOnUse">
<stop offset="0.09375" stop-color="#E63E4A"/>
<stop offset="0.6979" stop-color="#F17D2D"/>
<stop offset="0.9583" stop-color="#FFC30C"/>
</linearGradient>
<linearGradient id="paint40_linear_8_154694" x1="301.383" y1="108.997" x2="328.537" y2="131.54" gradientUnits="userSpaceOnUse">
<stop offset="0.09375" stop-color="#E63E4A"/>
<stop offset="0.6979" stop-color="#F17D2D"/>
<stop offset="0.9583" stop-color="#FFC30C"/>
</linearGradient>
<linearGradient id="paint41_linear_8_154694" x1="312.38" y1="127.468" x2="313.773" y2="116.809" gradientUnits="userSpaceOnUse">
<stop offset="0.09375" stop-color="#E63E4A"/>
<stop offset="0.6979" stop-color="#F17D2D"/>
<stop offset="0.9583" stop-color="#FFC30C"/>
</linearGradient>
<linearGradient id="paint42_linear_8_154694" x1="301.816" y1="109.784" x2="319.294" y2="117.082" gradientUnits="userSpaceOnUse">
<stop offset="0.09375" stop-color="#E63E4A"/>
<stop offset="0.6979" stop-color="#F17D2D"/>
<stop offset="0.9583" stop-color="#FFC30C"/>
</linearGradient>
<linearGradient id="paint43_linear_8_154694" x1="284.528" y1="73.5692" x2="315.29" y2="99.1094" gradientUnits="userSpaceOnUse">
<stop offset="0.09375" stop-color="#E63E4A"/>
<stop offset="0.6979" stop-color="#F17D2D"/>
<stop offset="0.9583" stop-color="#FFC30C"/>
</linearGradient>
<linearGradient id="paint44_linear_8_154694" x1="296.986" y1="94.4956" x2="298.563" y2="82.4193" gradientUnits="userSpaceOnUse">
<stop offset="0.09375" stop-color="#E63E4A"/>
<stop offset="0.6979" stop-color="#F17D2D"/>
<stop offset="0.9583" stop-color="#FFC30C"/>
</linearGradient>
<linearGradient id="paint45_linear_8_154694" x1="285.017" y1="74.4607" x2="304.819" y2="82.73" gradientUnits="userSpaceOnUse">
<stop offset="0.09375" stop-color="#E63E4A"/>
<stop offset="0.6979" stop-color="#F17D2D"/>
<stop offset="0.9583" stop-color="#FFC30C"/>
</linearGradient>
<linearGradient id="paint46_linear_8_154694" x1="361.28" y1="411.465" x2="238.489" y2="389.81" gradientUnits="userSpaceOnUse">
<stop offset="0.09375" stop-color="#E63E4A"/>
<stop offset="0.524274" stop-color="#F17D2D"/>
<stop offset="1" stop-color="#FFC30C"/>
</linearGradient>
<linearGradient id="paint47_linear_8_154694" x1="13.4099" y1="278.658" x2="354.983" y2="430.276" gradientUnits="userSpaceOnUse">
<stop offset="0.09375" stop-color="#E63E4A"/>
<stop offset="0.6979" stop-color="#F17D2D"/>
<stop offset="0.9583" stop-color="#FFD723"/>
</linearGradient>
<linearGradient id="paint48_linear_8_154694" x1="194.679" y1="349.856" x2="411.406" y2="578.117" gradientUnits="userSpaceOnUse">
<stop offset="0.09375" stop-color="#E63E4A"/>
<stop offset="0.6979" stop-color="#F17D2D"/>
<stop offset="0.9583" stop-color="#FFC30C"/>
</linearGradient>
<linearGradient id="paint49_linear_8_154694" x1="448.186" y1="231.402" x2="372.444" y2="402.701" gradientUnits="userSpaceOnUse">
<stop stop-color="#E73E4A"/>
<stop offset="1" stop-color="#FFC40C"/>
</linearGradient>
<linearGradient id="paint50_linear_8_154694" x1="281.342" y1="337.212" x2="343.878" y2="383.238" gradientUnits="userSpaceOnUse">
<stop stop-color="#FFC20C" stop-opacity="0"/>
<stop offset="0.980753" stop-color="#E73E4A"/>
</linearGradient>
<linearGradient id="paint51_linear_8_154694" x1="268.834" y1="367.479" x2="251.824" y2="357.474" gradientUnits="userSpaceOnUse">
<stop stop-color="#FFC20C" stop-opacity="0"/>
<stop offset="0.980753" stop-color="#E73E4A"/>
</linearGradient>
<linearGradient id="paint52_linear_8_154694" x1="282.592" y1="377.485" x2="261.58" y2="365.478" gradientUnits="userSpaceOnUse">
<stop stop-color="white" stop-opacity="0.51"/>
<stop offset="0.980753" stop-color="white" stop-opacity="0"/>
</linearGradient>
<linearGradient id="paint53_linear_8_154694" x1="324.616" y1="353.221" x2="300.889" y2="364.075" gradientUnits="userSpaceOnUse">
<stop offset="0.09375" stop-color="#E73E4A"/>
<stop offset="0.697917" stop-color="#F27D2D"/>
<stop offset="0.958333" stop-color="#FFC40C"/>
</linearGradient>
<linearGradient id="paint54_linear_8_154694" x1="293.599" y1="334.711" x2="269.873" y2="345.565" gradientUnits="userSpaceOnUse">
<stop offset="0.09375" stop-color="#E73E4A"/>
<stop offset="0.697917" stop-color="#F27D2D"/>
<stop offset="0.958333" stop-color="#FFC40C"/>
</linearGradient>
<linearGradient id="paint55_linear_8_154694" x1="264.082" y1="352.721" x2="240.355" y2="363.576" gradientUnits="userSpaceOnUse">
<stop offset="0.09375" stop-color="#E73E4A"/>
<stop offset="0.697917" stop-color="#F27D2D"/>
<stop offset="0.958333" stop-color="#FFC40C"/>
</linearGradient>
<linearGradient id="paint56_linear_8_154694" x1="292.598" y1="370.231" x2="268.872" y2="381.086" gradientUnits="userSpaceOnUse">
<stop offset="0.09375" stop-color="#E73E4A"/>
<stop offset="0.697917" stop-color="#F27D2D"/>
<stop offset="0.958333" stop-color="#FFC40C"/>
</linearGradient>
<linearGradient id="paint57_linear_8_154694" x1="392.349" y1="307.998" x2="212.615" y2="414.751" gradientUnits="userSpaceOnUse">
<stop offset="0.145833" stop-color="#099EDE"/>
<stop offset="1" stop-color="#45D6D9"/>
</linearGradient>
<linearGradient id="paint58_linear_8_154694" x1="323.884" y1="346.967" x2="283.006" y2="438.542" gradientUnits="userSpaceOnUse">
<stop stop-color="#E73E4A"/>
<stop offset="1" stop-color="#FFC40C"/>
</linearGradient>
<linearGradient id="paint59_linear_8_154694" x1="392.349" y1="296.491" x2="212.615" y2="403.244" gradientUnits="userSpaceOnUse">
<stop offset="0.145833" stop-color="#099EDE"/>
<stop offset="1" stop-color="#45D6D9"/>
</linearGradient>
<linearGradient id="paint60_linear_8_154694" x1="323.884" y1="335.461" x2="283.006" y2="427.036" gradientUnits="userSpaceOnUse">
<stop stop-color="#E73E4A"/>
<stop offset="1" stop-color="#FFC40C"/>
</linearGradient>
<linearGradient id="paint61_linear_8_154694" x1="413.979" y1="414.03" x2="437.202" y2="595.997" gradientUnits="userSpaceOnUse">
<stop stop-color="#FFBD0C"/>
<stop offset="1" stop-color="#FFBD0C" stop-opacity="0"/>
</linearGradient>
<linearGradient id="paint62_linear_8_154694" x1="667.105" y1="101.629" x2="650.087" y2="103.87" gradientUnits="userSpaceOnUse">
<stop offset="0.145833" stop-color="#099EDE"/>
<stop offset="1" stop-color="#45D6D9"/>
</linearGradient>
<linearGradient id="paint63_linear_8_154694" x1="662.229" y1="114.143" x2="648.178" y2="121.123" gradientUnits="userSpaceOnUse">
<stop stop-color="#E73E4A"/>
<stop offset="1" stop-color="#FFC40C"/>
</linearGradient>
<linearGradient id="paint64_linear_8_154694" x1="672.8" y1="112.78" x2="654.007" y2="116.033" gradientUnits="userSpaceOnUse">
<stop offset="0.09375" stop-color="#E73E4A"/>
<stop offset="0.697917" stop-color="#F27D2D"/>
<stop offset="0.958333" stop-color="#FFC40C"/>
</linearGradient>
<linearGradient id="paint65_linear_8_154694" x1="674.205" y1="109.267" x2="662.672" y2="109.617" gradientUnits="userSpaceOnUse">
<stop offset="0.09375" stop-color="#E73E4A"/>
<stop offset="0.697917" stop-color="#F27D2D"/>
<stop offset="0.958333" stop-color="#FFC40C"/>
</linearGradient>
<linearGradient id="paint66_linear_8_154694" x1="659.889" y1="111.175" x2="657.884" y2="113.099" gradientUnits="userSpaceOnUse">
<stop stop-color="#E73E4A"/>
<stop offset="0.697917" stop-color="#F27D2D"/>
<stop offset="0.958333" stop-color="#FFC40C"/>
</linearGradient>
<linearGradient id="paint67_linear_8_154694" x1="678.674" y1="115.938" x2="665.44" y2="117.45" gradientUnits="userSpaceOnUse">
<stop offset="0.09375" stop-color="#E73E4A"/>
<stop offset="0.697917" stop-color="#F27D2D"/>
<stop offset="0.958333" stop-color="#FFC40C"/>
</linearGradient>
<linearGradient id="paint68_linear_8_154694" x1="711.107" y1="166.529" x2="597.798" y2="199.449" gradientUnits="userSpaceOnUse">
<stop offset="0.09375" stop-color="#E73E4A"/>
<stop offset="0.697917" stop-color="#F27D2D"/>
<stop offset="0.958333" stop-color="#FFC40C"/>
</linearGradient>
<linearGradient id="paint69_linear_8_154694" x1="566.343" y1="146.231" x2="579.698" y2="214.366" gradientUnits="userSpaceOnUse">
<stop offset="0.145833" stop-color="#099EDE"/>
<stop offset="1" stop-color="#45D6D9"/>
</linearGradient>
<linearGradient id="paint70_linear_8_154694" x1="600.165" y1="166.26" x2="634.422" y2="212.189" gradientUnits="userSpaceOnUse">
<stop stop-color="#E73E4A"/>
<stop offset="1" stop-color="#FFC40C"/>
</linearGradient>
<linearGradient id="paint71_linear_8_154694" x1="585.21" y1="143.725" x2="587.899" y2="191.176" gradientUnits="userSpaceOnUse">
<stop offset="0.09375" stop-color="#E73E4A"/>
<stop offset="0.697917" stop-color="#F27D2D"/>
<stop offset="0.958333" stop-color="#FFC40C"/>
</linearGradient>
<linearGradient id="paint72_linear_8_154694" x1="613.459" y1="151.259" x2="617.161" y2="175.32" gradientUnits="userSpaceOnUse">
<stop offset="0.09375" stop-color="#E73E4A"/>
<stop offset="0.697917" stop-color="#F27D2D"/>
<stop offset="0.958333" stop-color="#FFC40C"/>
</linearGradient>
<linearGradient id="paint73_linear_8_154694" x1="605.3" y1="130.664" x2="610.79" y2="166.339" gradientUnits="userSpaceOnUse">
<stop offset="0.09375" stop-color="#E73E4A"/>
<stop offset="0.697917" stop-color="#F27D2D"/>
<stop offset="0.958333" stop-color="#FFC40C"/>
</linearGradient>
<linearGradient id="paint74_linear_8_154694" x1="632.258" y1="126.127" x2="631.853" y2="177.986" gradientUnits="userSpaceOnUse">
<stop offset="0.09375" stop-color="#E73E4A"/>
<stop offset="0.697917" stop-color="#F27D2D"/>
<stop offset="0.958333" stop-color="#FFC40C"/>
</linearGradient>
<linearGradient id="paint75_linear_8_154694" x1="623.613" y1="149.062" x2="638.338" y2="149.062" gradientUnits="userSpaceOnUse">
<stop offset="0.09375" stop-color="#E63E4A"/>
<stop offset="0.6979" stop-color="#F17D2D"/>
<stop offset="0.9583" stop-color="#FFC30C"/>
</linearGradient>
<linearGradient id="paint76_linear_8_154694" x1="600.085" y1="154.184" x2="660.043" y2="154.184" gradientUnits="userSpaceOnUse">
<stop offset="0.065817" stop-color="#FFBD0C"/>
<stop offset="0.9583" stop-color="#FFC30C" stop-opacity="0"/>
</linearGradient>
<linearGradient id="paint77_linear_8_154694" x1="711.108" y1="90.1793" x2="597.799" y2="123.1" gradientUnits="userSpaceOnUse">
<stop offset="0.09375" stop-color="#E73E4A"/>
<stop offset="0.697917" stop-color="#F27D2D"/>
<stop offset="0.958333" stop-color="#FFC40C"/>
</linearGradient>
<linearGradient id="paint78_linear_8_154694" x1="566.344" y1="69.8814" x2="579.699" y2="138.017" gradientUnits="userSpaceOnUse">
<stop offset="0.145833" stop-color="#099EDE"/>
<stop offset="1" stop-color="#45D6D9"/>
</linearGradient>
<linearGradient id="paint79_linear_8_154694" x1="600.166" y1="89.9103" x2="634.422" y2="135.839" gradientUnits="userSpaceOnUse">
<stop stop-color="#E73E4A"/>
<stop offset="1" stop-color="#FFC40C"/>
</linearGradient>
<linearGradient id="paint80_linear_8_154694" x1="289.593" y1="211.066" x2="167.751" y2="289.007" gradientUnits="userSpaceOnUse">
<stop stop-color="#FFC427"/>
<stop offset="1" stop-color="#FFC427" stop-opacity="0"/>
</linearGradient>
<linearGradient id="paint81_linear_8_154694" x1="269.869" y1="414.666" x2="185.248" y2="465.884" gradientUnits="userSpaceOnUse">
<stop stop-color="#FFBD0C"/>
<stop offset="1" stop-color="#FFBD0C" stop-opacity="0"/>
</linearGradient>
<linearGradient id="paint82_linear_8_154694" x1="610.84" y1="195.716" x2="537.871" y2="219.329" gradientUnits="userSpaceOnUse">
<stop offset="0.09375" stop-color="#E73E4A"/>
<stop offset="0.697917" stop-color="#F27D2D"/>
<stop offset="0.958333" stop-color="#FFC40C"/>
</linearGradient>
<linearGradient id="paint83_linear_8_154694" x1="634.911" y1="354.541" x2="548.68" y2="395.202" gradientUnits="userSpaceOnUse">
<stop offset="0.09375" stop-color="#E73E4A"/>
<stop offset="0.697917" stop-color="#F27D2D"/>
<stop offset="0.958333" stop-color="#FFC40C"/>
</linearGradient>
<linearGradient id="paint84_linear_8_154694" x1="681.945" y1="394.352" x2="600.71" y2="426.635" gradientUnits="userSpaceOnUse">
<stop offset="0.09375" stop-color="#E73E4A"/>
<stop offset="0.697917" stop-color="#F27D2D"/>
<stop offset="0.958333" stop-color="#FFC40C"/>
</linearGradient>
<linearGradient id="paint85_linear_8_154694" x1="633.44" y1="394.782" x2="654.966" y2="436.113" gradientUnits="userSpaceOnUse">
<stop stop-color="#E73E4A"/>
<stop offset="1" stop-color="#FFC40C"/>
</linearGradient>
<linearGradient id="paint86_linear_8_154694" x1="545.367" y1="372.097" x2="632.764" y2="482.514" gradientUnits="userSpaceOnUse">
<stop stop-color="#E73E4A"/>
<stop offset="1" stop-color="#FFC40C"/>
</linearGradient>
<linearGradient id="paint87_linear_8_154694" x1="573.71" y1="404.483" x2="599.941" y2="474.604" gradientUnits="userSpaceOnUse">
<stop offset="0.09375" stop-color="#E73E4A"/>
<stop offset="0.697917" stop-color="#F27D2D"/>
<stop offset="0.958333" stop-color="#FFC40C"/>
</linearGradient>
<linearGradient id="paint88_linear_8_154694" x1="623.372" y1="357.538" x2="631.224" y2="374.227" gradientUnits="userSpaceOnUse">
<stop offset="0.000357782" stop-color="white" stop-opacity="0.3"/>
<stop offset="1" stop-color="white" stop-opacity="0"/>
</linearGradient>
<linearGradient id="paint89_linear_8_154694" x1="576.918" y1="255.182" x2="713.213" y2="288.391" gradientUnits="userSpaceOnUse">
<stop offset="0.145833" stop-color="#099EDE"/>
<stop offset="1" stop-color="#45D6D9"/>
</linearGradient>
<linearGradient id="paint90_linear_8_154694" x1="617.575" y1="311.594" x2="696.781" y2="384.384" gradientUnits="userSpaceOnUse">
<stop stop-color="#E73E4A"/>
<stop offset="1" stop-color="#FFC40C"/>
</linearGradient>
<linearGradient id="paint91_linear_8_154694" x1="355.749" y1="197.233" x2="628.471" y2="147.411" gradientUnits="userSpaceOnUse">
<stop offset="0.09375" stop-color="#E73E4A"/>
<stop offset="0.275983" stop-color="#F27D2D"/>
<stop offset="0.958333" stop-color="#FFC40C"/>
</linearGradient>
<linearGradient id="paint92_linear_8_154694" x1="599.876" y1="342.542" x2="648.681" y2="368.199" gradientUnits="userSpaceOnUse">
<stop offset="0.145833" stop-color="#099EDE"/>
<stop offset="1" stop-color="#45D6D9"/>
</linearGradient>
<linearGradient id="paint93_linear_8_154694" x1="617.417" y1="353.823" x2="630.198" y2="379.166" gradientUnits="userSpaceOnUse">
<stop stop-color="#E73E4A"/>
<stop offset="1" stop-color="#FFC40C"/>
</linearGradient>
<linearGradient id="paint94_linear_8_154694" x1="602.178" y1="347.682" x2="642.516" y2="368.454" gradientUnits="userSpaceOnUse">
<stop offset="0.145833" stop-color="#099EDE"/>
<stop offset="1" stop-color="#45D6D9"/>
</linearGradient>
<linearGradient id="paint95_linear_8_154694" x1="616.549" y1="357.117" x2="627.369" y2="378.133" gradientUnits="userSpaceOnUse">
<stop stop-color="#E73E4A"/>
<stop offset="1" stop-color="#FFC40C"/>
</linearGradient>
<linearGradient id="paint96_linear_8_154694" x1="604.633" y1="363.64" x2="635.775" y2="379.31" gradientUnits="userSpaceOnUse">
<stop offset="0.145833" stop-color="#099EDE"/>
<stop offset="1" stop-color="#45D6D9"/>
</linearGradient>
<linearGradient id="paint97_linear_8_154694" x1="615.622" y1="371.024" x2="624.204" y2="387.31" gradientUnits="userSpaceOnUse">
<stop stop-color="#E73E4A"/>
<stop offset="1" stop-color="#FFC40C"/>
</linearGradient>
<linearGradient id="paint98_linear_8_154694" x1="695.714" y1="284.235" x2="633.27" y2="419.086" gradientUnits="userSpaceOnUse">
<stop offset="0.419998" stop-color="#E63E4A"/>
<stop offset="0.537807" stop-color="#F17D2D"/>
<stop offset="0.591346" stop-color="#FFC30C"/>
</linearGradient>
<linearGradient id="paint99_linear_8_154694" x1="634.67" y1="505.706" x2="648.341" y2="597.632" gradientUnits="userSpaceOnUse">
<stop offset="0.065817" stop-color="#FFBD0C"/>
<stop offset="0.9583" stop-color="#FFC30C" stop-opacity="0"/>
</linearGradient>
</defs>
</svg>
