<?xml version="1.0" encoding="UTF-8"?>
<svg id="Layer_1" data-name="Layer 1" xmlns="http://www.w3.org/2000/svg" xmlns:xlink="http://www.w3.org/1999/xlink" viewBox="0 0 2127.63 1990.37">
  <defs>
    <style>
      .cls-1, .cls-2, .cls-3, .cls-4, .cls-5, .cls-6, .cls-7, .cls-8, .cls-9, .cls-10, .cls-11, .cls-12, .cls-13, .cls-14, .cls-15, .cls-16, .cls-17, .cls-18, .cls-19, .cls-20, .cls-21, .cls-22, .cls-23, .cls-24, .cls-25, .cls-26 {
        fill: none;
      }

      .cls-1, .cls-2, .cls-16, .cls-24 {
        stroke: #febd14;
      }

      .cls-1, .cls-3, .cls-4, .cls-6, .cls-7, .cls-8, .cls-13, .cls-15, .cls-18, .cls-19, .cls-21, .cls-23, .cls-25, .cls-26 {
        stroke-width: .76px;
      }

      .cls-27 {
        fill: #353635;
      }

      .cls-27, .cls-28, .cls-29, .cls-30, .cls-31, .cls-32, .cls-33, .cls-34, .cls-35, .cls-36, .cls-37, .cls-38, .cls-39, .cls-40, .cls-41, .cls-42, .cls-43, .cls-44, .cls-45, .cls-46, .cls-47, .cls-48, .cls-49, .cls-50, .cls-51, .cls-52, .cls-53, .cls-54, .cls-55, .cls-56, .cls-57, .cls-10, .cls-58, .cls-59, .cls-60, .cls-61, .cls-62, .cls-63, .cls-64, .cls-65, .cls-66, .cls-67, .cls-68, .cls-69, .cls-70, .cls-71, .cls-72, .cls-73, .cls-74, .cls-75, .cls-76, .cls-77, .cls-78, .cls-79, .cls-80, .cls-81, .cls-82, .cls-83, .cls-84, .cls-85, .cls-86, .cls-87, .cls-88, .cls-89, .cls-90, .cls-91, .cls-92, .cls-93, .cls-94, .cls-95, .cls-96, .cls-97, .cls-98, .cls-99, .cls-100, .cls-101, .cls-102, .cls-103, .cls-104, .cls-105, .cls-106, .cls-107, .cls-108, .cls-109, .cls-110, .cls-111, .cls-112, .cls-113, .cls-114, .cls-115, .cls-116, .cls-117, .cls-118, .cls-119, .cls-120, .cls-121, .cls-122, .cls-123, .cls-124, .cls-125, .cls-126, .cls-127, .cls-128, .cls-129, .cls-130, .cls-131, .cls-132, .cls-133, .cls-134, .cls-135, .cls-136, .cls-137 {
        stroke-width: 0px;
      }

      .cls-28 {
        fill: url(#linear-gradient-38);
      }

      .cls-29 {
        fill: url(#linear-gradient-12);
      }

      .cls-30 {
        fill: url(#linear-gradient-77);
      }

      .cls-30, .cls-138, .cls-45, .cls-85 {
        opacity: .5;
      }

      .cls-30, .cls-45, .cls-85, .cls-24 {
        isolation: isolate;
      }

      .cls-31 {
        fill: url(#linear-gradient-81);
      }

      .cls-31, .cls-38, .cls-47, .cls-67, .cls-91, .cls-121, .cls-134 {
        fill-rule: evenodd;
      }

      .cls-32 {
        fill: #e7404b;
      }

      .cls-2 {
        stroke-dasharray: 0 0 3.79 7.58;
      }

      .cls-2, .cls-5, .cls-12, .cls-16, .cls-22, .cls-24 {
        stroke-width: 2.27px;
      }

      .cls-33 {
        fill: #2e2e2e;
      }

      .cls-34 {
        fill: url(#linear-gradient-88);
      }

      .cls-35 {
        fill: url(#linear-gradient-33);
      }

      .cls-36 {
        fill: url(#linear-gradient);
      }

      .cls-37 {
        fill: url(#linear-gradient-62);
      }

      .cls-38 {
        fill: url(#linear-gradient-82);
      }

      .cls-39 {
        fill: #febd14;
      }

      .cls-40 {
        fill: url(#linear-gradient-92);
      }

      .cls-3 {
        stroke: url(#linear-gradient-17);
      }

      .cls-41 {
        fill: url(#linear-gradient-67);
      }

      .cls-42 {
        fill: url(#linear-gradient-57);
      }

      .cls-4 {
        stroke: rgba(254, 226, 178, .3);
      }

      .cls-5 {
        stroke: url(#linear-gradient-75);
      }

      .cls-43 {
        fill: url(#linear-gradient-76);
      }

      .cls-6 {
        stroke: url(#linear-gradient-16);
      }

      .cls-44 {
        fill: #444;
      }

      .cls-45, .cls-56 {
        fill: #ffde82;
      }

      .cls-7 {
        stroke: url(#linear-gradient-19);
      }

      .cls-46 {
        fill: url(#linear-gradient-42);
      }

      .cls-47 {
        fill: url(#linear-gradient-78);
      }

      .cls-48 {
        fill: #ffc516;
      }

      .cls-49 {
        fill: url(#linear-gradient-95);
      }

      .cls-50 {
        fill: #ffc52a;
      }

      .cls-51 {
        fill: url(#linear-gradient-15);
      }

      .cls-52 {
        fill: url(#linear-gradient-14);
      }

      .cls-52, .cls-129 {
        fill-opacity: .5;
      }

      .cls-53 {
        fill: url(#linear-gradient-11);
      }

      .cls-54 {
        fill: rgba(251, 182, 21, .6);
      }

      .cls-8 {
        stroke: url(#linear-gradient-20);
      }

      .cls-9 {
        stroke: #ffde82;
      }

      .cls-9, .cls-11, .cls-12, .cls-14, .cls-15, .cls-16, .cls-21, .cls-22, .cls-24 {
        stroke-miterlimit: 10;
      }

      .cls-9, .cls-14 {
        stroke-width: 6.06px;
      }

      .cls-55 {
        fill: url(#linear-gradient-91);
      }

      .cls-57 {
        fill: url(#linear-gradient-5);
      }

      .cls-58 {
        fill: url(#linear-gradient-31);
      }

      .cls-11 {
        stroke-linecap: round;
      }

      .cls-11, .cls-17 {
        stroke-width: 1.52px;
      }

      .cls-11, .cls-23 {
        stroke: #ffebbd;
      }

      .cls-59 {
        fill: url(#linear-gradient-71);
      }

      .cls-60 {
        fill: url(#linear-gradient-58);
      }

      .cls-61 {
        fill: url(#linear-gradient-63);
      }

      .cls-62 {
        fill: url(#linear-gradient-34);
      }

      .cls-63 {
        fill: #c2c2c2;
      }

      .cls-64 {
        fill: url(#linear-gradient-96);
      }

      .cls-12 {
        stroke: rgba(255, 222, 130, .3);
      }

      .cls-65 {
        fill: url(#linear-gradient-41);
      }

      .cls-66 {
        fill: url(#linear-gradient-89);
      }

      .cls-67 {
        fill: url(#linear-gradient-23);
      }

      .cls-13 {
        stroke: #fee2b2;
      }

      .cls-68 {
        fill: url(#linear-gradient-40);
      }

      .cls-69 {
        fill: url(#linear-gradient-66);
      }

      .cls-70 {
        fill: url(#linear-gradient-13);
      }

      .cls-71 {
        fill: url(#linear-gradient-25);
      }

      .cls-72 {
        fill: url(#linear-gradient-43);
      }

      .cls-73 {
        fill: url(#linear-gradient-22);
      }

      .cls-74 {
        fill: #010101;
      }

      .cls-75 {
        fill: url(#linear-gradient-54);
      }

      .cls-76 {
        fill: url(#linear-gradient-55);
      }

      .cls-14 {
        stroke: #e6404b;
      }

      .cls-77 {
        fill: url(#linear-gradient-35);
      }

      .cls-78 {
        fill: url(#linear-gradient-50);
      }

      .cls-79 {
        fill: url(#linear-gradient-32);
      }

      .cls-80 {
        fill: url(#linear-gradient-60);
      }

      .cls-81 {
        fill: url(#linear-gradient-59);
      }

      .cls-82 {
        fill: url(#linear-gradient-2);
      }

      .cls-83 {
        fill: url(#linear-gradient-52);
      }

      .cls-84 {
        fill: url(#linear-gradient-45);
      }

      .cls-85, .cls-109 {
        fill: #fff;
      }

      .cls-15 {
        stroke: url(#linear-gradient-73);
      }

      .cls-86 {
        fill: url(#linear-gradient-93);
      }

      .cls-17 {
        stroke: #fff;
        stroke-linejoin: round;
      }

      .cls-87 {
        fill: #333232;
      }

      .cls-88 {
        fill: url(#linear-gradient-7);
      }

      .cls-89 {
        fill: url(#linear-gradient-39);
      }

      .cls-90 {
        fill: url(#linear-gradient-3);
      }

      .cls-139 {
        clip-path: url(#clippath);
      }

      .cls-91 {
        fill: url(#linear-gradient-83);
      }

      .cls-92 {
        fill: url(#linear-gradient-94);
      }

      .cls-93 {
        fill: url(#linear-gradient-9);
      }

      .cls-94 {
        fill: url(#linear-gradient-27);
      }

      .cls-18 {
        stroke: url(#linear-gradient-21);
      }

      .cls-140, .cls-24 {
        opacity: .3;
      }

      .cls-19 {
        stroke: url(#linear-gradient-18);
      }

      .cls-95 {
        fill: url(#linear-gradient-53);
      }

      .cls-96 {
        fill: #1d1d1b;
      }

      .cls-97 {
        fill: url(#linear-gradient-85);
      }

      .cls-98 {
        fill: url(#linear-gradient-65);
      }

      .cls-99 {
        fill: url(#linear-gradient-36);
      }

      .cls-100 {
        fill: url(#linear-gradient-49);
      }

      .cls-101 {
        fill: url(#linear-gradient-8);
      }

      .cls-102 {
        fill: url(#linear-gradient-47);
      }

      .cls-103 {
        fill: url(#linear-gradient-24);
      }

      .cls-104 {
        fill: url(#linear-gradient-26);
      }

      .cls-105 {
        fill: url(#linear-gradient-61);
      }

      .cls-20 {
        stroke: url(#linear-gradient-48);
        stroke-width: 3.79px;
      }

      .cls-106 {
        fill: #fab9a8;
      }

      .cls-107 {
        fill: url(#linear-gradient-51);
      }

      .cls-108 {
        fill: url(#linear-gradient-30);
      }

      .cls-21 {
        stroke: url(#linear-gradient-74);
      }

      .cls-110 {
        fill: #535353;
      }

      .cls-111 {
        fill: url(#linear-gradient-44);
      }

      .cls-22 {
        stroke: url(#linear-gradient-90);
      }

      .cls-112 {
        fill: url(#linear-gradient-84);
      }

      .cls-113 {
        fill: url(#linear-gradient-97);
      }

      .cls-114 {
        fill: url(#linear-gradient-68);
      }

      .cls-115 {
        fill: url(#linear-gradient-72);
      }

      .cls-116 {
        fill: url(#linear-gradient-29);
      }

      .cls-117 {
        fill: url(#linear-gradient-46);
      }

      .cls-118 {
        fill: #101319;
      }

      .cls-119 {
        fill: url(#linear-gradient-64);
      }

      .cls-120, .cls-121 {
        fill: #f17d2c;
      }

      .cls-122 {
        fill: url(#linear-gradient-28);
      }

      .cls-123 {
        fill: url(#linear-gradient-56);
      }

      .cls-124 {
        fill: url(#linear-gradient-10);
      }

      .cls-125 {
        fill: url(#linear-gradient-87);
      }

      .cls-126 {
        fill: url(#linear-gradient-70);
      }

      .cls-127 {
        fill: url(#linear-gradient-86);
      }

      .cls-128 {
        fill: #d7eeeb;
      }

      .cls-129 {
        fill: url(#linear-gradient-4);
      }

      .cls-130 {
        fill: #f69323;
      }

      .cls-131 {
        fill: #dcdcdc;
      }

      .cls-132 {
        fill: url(#linear-gradient-37);
      }

      .cls-133 {
        fill: url(#linear-gradient-80);
      }

      .cls-134 {
        fill: url(#linear-gradient-69);
      }

      .cls-135 {
        fill: #4077ab;
      }

      .cls-25 {
        stroke: rgba(254, 226, 178, .5);
      }

      .cls-136 {
        fill: url(#linear-gradient-79);
      }

      .cls-26 {
        stroke: url(#linear-gradient-6);
      }

      .cls-137 {
        fill: #eeedee;
      }
    </style>
    <linearGradient id="linear-gradient" x1="1210.47" y1="-2860.29" x2="-164.5" y2="-3534.93" gradientTransform="translate(564 -2045.8) scale(1 -1)" gradientUnits="userSpaceOnUse">
      <stop offset=".09" stop-color="#e7404b"/>
      <stop offset=".7" stop-color="#f17d2c"/>
      <stop offset=".96" stop-color="#ffc516"/>
    </linearGradient>
    <linearGradient id="linear-gradient-2" x1="587.83" y1="-2783.13" x2="1496.92" y2="-3391.82" gradientTransform="translate(564 -2045.8) scale(1 -1)" gradientUnits="userSpaceOnUse">
      <stop offset="0" stop-color="#e5e5e5"/>
      <stop offset=".44" stop-color="#d6d5d5"/>
      <stop offset="1" stop-color="#b5b5b5"/>
    </linearGradient>
    <linearGradient id="linear-gradient-3" x1="2214.92" y1="-2596.85" x2="-188.75" y2="-3453.41" xlink:href="#linear-gradient"/>
    <linearGradient id="linear-gradient-4" x1="529.95" y1="-3162.85" x2="506.43" y2="-2960.85" gradientTransform="translate(564 -2045.8) scale(1 -1)" gradientUnits="userSpaceOnUse">
      <stop offset="0" stop-color="#ffc314" stop-opacity="0"/>
      <stop offset=".46" stop-color="#ffc415" stop-opacity=".46"/>
      <stop offset="1" stop-color="#ffc516" stop-opacity=".71"/>
    </linearGradient>
    <linearGradient id="linear-gradient-5" x1="338.91" y1="-2984.7" x2="465.14" y2="-3193.03" gradientTransform="translate(564 -2045.8) scale(1 -1)" gradientUnits="userSpaceOnUse">
      <stop offset="0" stop-color="#e03f4a"/>
      <stop offset="1" stop-color="#e03f4a" stop-opacity="0"/>
    </linearGradient>
    <linearGradient id="linear-gradient-6" x1="839.09" y1="-2692.08" x2="334.61" y2="-2996.56" gradientTransform="translate(564 -2045.8) scale(1 -1)" gradientUnits="userSpaceOnUse">
      <stop offset=".15" stop-color="#1b9dd9"/>
      <stop offset="1" stop-color="#5dc7ce"/>
    </linearGradient>
    <linearGradient id="linear-gradient-7" x1="727.82" y1="-2863.34" x2="395.9" y2="-2804.81" gradientTransform="translate(564 -2045.8) scale(1 -1)" gradientUnits="userSpaceOnUse">
      <stop offset=".09" stop-color="#e6404b"/>
      <stop offset=".52" stop-color="#f07e2c"/>
      <stop offset="1" stop-color="#ffc415"/>
    </linearGradient>
    <linearGradient id="linear-gradient-8" x1="-216.51" y1="-2526.7" x2="706.85" y2="-2936.56" gradientTransform="translate(564 -2045.8) scale(1 -1)" gradientUnits="userSpaceOnUse">
      <stop offset=".09" stop-color="#e6404b"/>
      <stop offset=".7" stop-color="#f07e2c"/>
      <stop offset=".96" stop-color="#fed721"/>
    </linearGradient>
    <linearGradient id="linear-gradient-9" x1="273.55" y1="-2719.11" x2="859.41" y2="-3336.15" gradientTransform="translate(564 -2045.8) scale(1 -1)" gradientUnits="userSpaceOnUse">
      <stop offset=".09" stop-color="#e6404b"/>
      <stop offset=".7" stop-color="#f07e2c"/>
      <stop offset=".96" stop-color="#ffc415"/>
    </linearGradient>
    <linearGradient id="linear-gradient-10" x1="855.29" y1="-2915.19" x2="527.37" y2="-2828.09" xlink:href="#linear-gradient-7"/>
    <linearGradient id="linear-gradient-11" x1="726.95" y1="-2731.46" x2="395.02" y2="-2672.92" xlink:href="#linear-gradient-7"/>
    <linearGradient id="linear-gradient-12" x1="-216.51" y1="-2394.81" x2="706.85" y2="-2804.67" xlink:href="#linear-gradient-8"/>
    <linearGradient id="linear-gradient-13" x1="273.56" y1="-2587.22" x2="859.42" y2="-3204.26" xlink:href="#linear-gradient-9"/>
    <linearGradient id="linear-gradient-14" x1="517" y1="-2381.44" x2="540.49" y2="-2583.44" xlink:href="#linear-gradient-4"/>
    <linearGradient id="linear-gradient-15" x1="855.29" y1="-2784.53" x2="527.37" y2="-2697.43" xlink:href="#linear-gradient-7"/>
    <linearGradient id="linear-gradient-16" x1="839.07" y1="-2477.16" x2="334.58" y2="-2781.65" xlink:href="#linear-gradient-6"/>
    <linearGradient id="linear-gradient-17" x1="576.25" y1="-2545.02" x2="463.59" y2="-2801.46" gradientTransform="translate(564 -2045.8) scale(1 -1)" gradientUnits="userSpaceOnUse">
      <stop offset="0" stop-color="#e7404b"/>
      <stop offset="1" stop-color="#ffc516"/>
    </linearGradient>
    <linearGradient id="linear-gradient-18" x1="839.07" y1="-2447.86" x2="334.58" y2="-2752.34" xlink:href="#linear-gradient-6"/>
    <linearGradient id="linear-gradient-19" x1="576.25" y1="-2515.71" x2="463.59" y2="-2772.15" xlink:href="#linear-gradient-17"/>
    <linearGradient id="linear-gradient-20" x1="839.07" y1="-2420.99" x2="334.58" y2="-2725.47" xlink:href="#linear-gradient-6"/>
    <linearGradient id="linear-gradient-21" x1="576.25" y1="-2488.84" x2="463.59" y2="-2745.29" xlink:href="#linear-gradient-17"/>
    <linearGradient id="linear-gradient-22" x1="494.14" y1="-2449.89" x2="548.09" y2="-2449.89" xlink:href="#linear-gradient-9"/>
    <linearGradient id="linear-gradient-23" x1="141.89" y1="-3375.53" x2="-117.5" y2="-3499" xlink:href="#linear-gradient"/>
    <linearGradient id="linear-gradient-24" x1="120.05" y1="-2774.28" x2="-184.84" y2="-2720.51" xlink:href="#linear-gradient-7"/>
    <linearGradient id="linear-gradient-25" x1="-751.09" y1="-2472.98" x2="97.02" y2="-2849.44" xlink:href="#linear-gradient-8"/>
    <linearGradient id="linear-gradient-26" x1="-302.08" y1="-2645.84" x2="236.03" y2="-3212.6" xlink:href="#linear-gradient-9"/>
    <linearGradient id="linear-gradient-27" x1="120.05" y1="-2574" x2="-184.84" y2="-2520.23" xlink:href="#linear-gradient-7"/>
    <linearGradient id="linear-gradient-28" x1="-768.01" y1="-2310.82" x2="80.09" y2="-2687.27" xlink:href="#linear-gradient-8"/>
    <linearGradient id="linear-gradient-29" x1="-325.17" y1="-2467.48" x2="212.94" y2="-3034.23" xlink:href="#linear-gradient-9"/>
    <linearGradient id="linear-gradient-30" x1="-138.8" y1="-2339.82" x2="69.67" y2="-2512.89" xlink:href="#linear-gradient-9"/>
    <linearGradient id="linear-gradient-31" x1="-54.34" y1="-2481.59" x2="-43.64" y2="-2399.75" xlink:href="#linear-gradient-9"/>
    <linearGradient id="linear-gradient-32" x1="-135.46" y1="-2345.86" x2="-1.28" y2="-2401.89" xlink:href="#linear-gradient-9"/>
    <linearGradient id="linear-gradient-33" x1="-138.77" y1="-2229.52" x2="69.69" y2="-2402.59" xlink:href="#linear-gradient-9"/>
    <linearGradient id="linear-gradient-34" x1="-54.34" y1="-2371.32" x2="-43.65" y2="-2289.48" xlink:href="#linear-gradient-9"/>
    <linearGradient id="linear-gradient-35" x1="-135.44" y1="-2235.55" x2="-1.26" y2="-2291.58" xlink:href="#linear-gradient-9"/>
    <linearGradient id="linear-gradient-36" x1="-38.91" y1="-2399.36" x2="98.46" y2="-2513.42" xlink:href="#linear-gradient-9"/>
    <linearGradient id="linear-gradient-37" x1="16.71" y1="-2492.84" x2="23.76" y2="-2438.9" xlink:href="#linear-gradient-9"/>
    <linearGradient id="linear-gradient-38" x1="-36.74" y1="-2403.35" x2="51.69" y2="-2440.27" xlink:href="#linear-gradient-9"/>
    <linearGradient id="linear-gradient-39" x1="-110.26" y1="-2457.25" x2="-6.04" y2="-2543.79" xlink:href="#linear-gradient-9"/>
    <linearGradient id="linear-gradient-40" x1="-68.04" y1="-2528.14" x2="-62.69" y2="-2487.22" xlink:href="#linear-gradient-9"/>
    <linearGradient id="linear-gradient-41" x1="-108.61" y1="-2460.28" x2="-41.52" y2="-2488.3" xlink:href="#linear-gradient-9"/>
    <linearGradient id="linear-gradient-42" x1="-174.97" y1="-2321.26" x2="-56.9" y2="-2419.3" xlink:href="#linear-gradient-9"/>
    <linearGradient id="linear-gradient-43" x1="-127.12" y1="-2401.57" x2="-121.06" y2="-2355.22" xlink:href="#linear-gradient-9"/>
    <linearGradient id="linear-gradient-44" x1="-173.09" y1="-2324.68" x2="-97.07" y2="-2356.42" xlink:href="#linear-gradient-9"/>
    <linearGradient id="linear-gradient-45" x1="125.24" y1="-3586.6" x2="-346.1" y2="-3503.47" xlink:href="#linear-gradient-7"/>
    <linearGradient id="linear-gradient-46" x1="-1215.73" y1="-3108.55" x2="95.47" y2="-3690.57" xlink:href="#linear-gradient-8"/>
    <linearGradient id="linear-gradient-47" x1="-519.82" y1="-3381.78" x2="312.15" y2="-4258.02" xlink:href="#linear-gradient-9"/>
    <linearGradient id="linear-gradient-48" x1="96.56" y1="-2796.38" x2="-184.04" y2="-3430.94" xlink:href="#linear-gradient-17"/>
    <linearGradient id="linear-gradient-49" x1="-189.86" y1="-3336.89" x2="50.22" y2="-3513.57" gradientTransform="translate(564 -2045.8) scale(1 -1)" gradientUnits="userSpaceOnUse">
      <stop offset="0" stop-color="#ffc314" stop-opacity="0"/>
      <stop offset=".98" stop-color="#e7404b"/>
    </linearGradient>
    <linearGradient id="linear-gradient-50" x1="-238.01" y1="-3454.25" x2="-303.31" y2="-3415.84" xlink:href="#linear-gradient-49"/>
    <linearGradient id="linear-gradient-51" x1="-181.85" y1="-3486.93" x2="-262.51" y2="-3440.84" gradientTransform="translate(564 -2045.8) scale(1 -1)" gradientUnits="userSpaceOnUse">
      <stop offset="0" stop-color="#fff" stop-opacity=".51"/>
      <stop offset=".98" stop-color="#fff" stop-opacity="0"/>
    </linearGradient>
    <linearGradient id="linear-gradient-52" x1="-18.78" y1="-3399.75" x2="-109.85" y2="-3441.42" xlink:href="#linear-gradient"/>
    <linearGradient id="linear-gradient-53" x1="-137.85" y1="-3328.7" x2="-228.92" y2="-3370.37" xlink:href="#linear-gradient"/>
    <linearGradient id="linear-gradient-54" x1="-251.15" y1="-3397.84" x2="-342.23" y2="-3439.51" xlink:href="#linear-gradient"/>
    <linearGradient id="linear-gradient-55" x1="-141.69" y1="-3465.05" x2="-232.76" y2="-3506.72" xlink:href="#linear-gradient"/>
    <linearGradient id="linear-gradient-56" x1="254.75" y1="-3247.81" x2="-435.18" y2="-3657.61" xlink:href="#linear-gradient-6"/>
    <linearGradient id="linear-gradient-57" x1="-103.24" y1="-3335.31" x2="-260.18" y2="-3686.84" xlink:href="#linear-gradient-17"/>
    <linearGradient id="linear-gradient-58" x1="254.75" y1="-3203.63" x2="-435.18" y2="-3613.42" xlink:href="#linear-gradient-6"/>
    <linearGradient id="linear-gradient-59" x1="-103.24" y1="-3291.13" x2="-260.18" y2="-3642.66" xlink:href="#linear-gradient-17"/>
    <clipPath id="clippath">
      <rect class="cls-10" x="250.94" y="283.01" width="167.3" height="310.33"/>
    </clipPath>
    <linearGradient id="linear-gradient-60" x1="-210.07" y1="-2413.82" x2="-264.95" y2="-2424.06" gradientTransform="translate(564 -2045.8) scale(1 -1)" gradientUnits="userSpaceOnUse">
      <stop offset=".08" stop-color="#0c8eca"/>
      <stop offset=".86" stop-color="#5dc7ce"/>
    </linearGradient>
    <linearGradient id="linear-gradient-61" x1="-228.71" y1="-2415.63" x2="-304.64" y2="-2430.26" xlink:href="#linear-gradient-60"/>
    <linearGradient id="linear-gradient-62" x1="-263.09" y1="-2422.36" x2="-318.13" y2="-2434.85" xlink:href="#linear-gradient-60"/>
    <linearGradient id="linear-gradient-63" x1="1304.89" y1="-2514.24" x2="1239.53" y2="-2522.85" xlink:href="#linear-gradient-6"/>
    <linearGradient id="linear-gradient-64" x1="1289.37" y1="-2506.06" x2="1235.43" y2="-2532.85" xlink:href="#linear-gradient-17"/>
    <linearGradient id="linear-gradient-65" x1="1322.32" y1="-2511.11" x2="1250.2" y2="-2523.6" xlink:href="#linear-gradient"/>
    <linearGradient id="linear-gradient-66" x1="1321.68" y1="-2484.35" x2="1277.44" y2="-2485.7" xlink:href="#linear-gradient"/>
    <linearGradient id="linear-gradient-67" x1="1279.16" y1="-2479.39" x2="1271.46" y2="-2486.78" gradientTransform="translate(564 -2045.8) scale(1 -1)" gradientUnits="userSpaceOnUse">
      <stop offset="0" stop-color="#e7404b"/>
      <stop offset=".7" stop-color="#f17d2c"/>
      <stop offset=".96" stop-color="#ffc516"/>
    </linearGradient>
    <linearGradient id="linear-gradient-68" x1="1343.29" y1="-2529.63" x2="1292.47" y2="-2535.43" xlink:href="#linear-gradient"/>
    <linearGradient id="linear-gradient-69" x1="1461.79" y1="-2675.46" x2="1026.84" y2="-2801.83" xlink:href="#linear-gradient"/>
    <linearGradient id="linear-gradient-70" x1="1120.37" y1="-2558.31" x2="1171.64" y2="-2819.86" xlink:href="#linear-gradient-6"/>
    <linearGradient id="linear-gradient-71" x1="1089.3" y1="-2637.82" x2="1220.78" y2="-2814.12" xlink:href="#linear-gradient-17"/>
    <linearGradient id="linear-gradient-72" x1="1144.56" y1="-2581.16" x2="1154.91" y2="-2763.32" xlink:href="#linear-gradient"/>
    <linearGradient id="linear-gradient-73" x1="1145.64" y1="-2611.57" x2="1159.54" y2="-2701.95" xlink:href="#linear-gradient"/>
    <linearGradient id="linear-gradient-74" x1="1142.21" y1="-2528.22" x2="1162.97" y2="-2663.17" xlink:href="#linear-gradient"/>
    <linearGradient id="linear-gradient-75" x1="1156.99" y1="-2523" x2="1155.12" y2="-2722.06" xlink:href="#linear-gradient"/>
    <linearGradient id="linear-gradient-76" x1="1126.73" y1="-2611.1" x2="1183.25" y2="-2611.1" xlink:href="#linear-gradient-9"/>
    <linearGradient id="linear-gradient-77" x1="1036.37" y1="-2630.67" x2="1266.55" y2="-2630.67" gradientTransform="translate(564 -2045.8) scale(1 -1)" gradientUnits="userSpaceOnUse">
      <stop offset=".07" stop-color="#febd14"/>
      <stop offset=".96" stop-color="#ffc415" stop-opacity="0"/>
    </linearGradient>
    <linearGradient id="linear-gradient-78" x1="1461.79" y1="-2382.37" x2="1026.84" y2="-2508.74" xlink:href="#linear-gradient"/>
    <linearGradient id="linear-gradient-79" x1="1120.37" y1="-2265.23" x2="1171.64" y2="-2526.78" xlink:href="#linear-gradient-6"/>
    <linearGradient id="linear-gradient-80" x1="1089.3" y1="-2344.74" x2="1220.78" y2="-2521.05" xlink:href="#linear-gradient-17"/>
    <linearGradient id="linear-gradient-81" x1="1096.58" y1="-2848.61" x2="816.47" y2="-2939.26" xlink:href="#linear-gradient"/>
    <linearGradient id="linear-gradient-82" x1="1177.21" y1="-3414.97" x2="846.19" y2="-3571.05" xlink:href="#linear-gradient"/>
    <linearGradient id="linear-gradient-83" x1="1369.13" y1="-3599.25" x2="1057.32" y2="-3723.18" xlink:href="#linear-gradient"/>
    <linearGradient id="linear-gradient-84" x1="1186.72" y1="-3542.65" x2="1269.38" y2="-3701.31" xlink:href="#linear-gradient-17"/>
    <linearGradient id="linear-gradient-85" x1="1003.97" y1="-3326.59" x2="1339.47" y2="-3750.45" xlink:href="#linear-gradient-17"/>
    <linearGradient id="linear-gradient-86" x1="1063.93" y1="-3543.32" x2="1164.63" y2="-3812.5" xlink:href="#linear-gradient"/>
    <linearGradient id="linear-gradient-87" x1="1126.14" y1="-3411.14" x2="1156.28" y2="-3475.2" gradientTransform="translate(564 -2045.8) scale(1 -1)" gradientUnits="userSpaceOnUse">
      <stop offset="0" stop-color="#fff" stop-opacity=".3"/>
      <stop offset="1" stop-color="#fff" stop-opacity="0"/>
    </linearGradient>
    <linearGradient id="linear-gradient-88" x1="867.14" y1="-3348.04" x2="1390.32" y2="-3475.52" xlink:href="#linear-gradient-6"/>
    <linearGradient id="linear-gradient-89" x1="1049.57" y1="-3293.65" x2="1353.62" y2="-3573.07" xlink:href="#linear-gradient-17"/>
    <linearGradient id="linear-gradient-90" x1="263.67" y1="-3598.47" x2="1290.73" y2="-3410.84" gradientTransform="translate(564 -2045.8) scale(1 -1)" gradientUnits="userSpaceOnUse">
      <stop offset=".09" stop-color="#e7404b"/>
      <stop offset=".28" stop-color="#f17d2c"/>
      <stop offset=".96" stop-color="#ffc516"/>
    </linearGradient>
    <linearGradient id="linear-gradient-91" x1="1025.03" y1="-3373.79" x2="1212.39" y2="-3472.27" xlink:href="#linear-gradient-6"/>
    <linearGradient id="linear-gradient-92" x1="1119.17" y1="-3388.85" x2="1168.22" y2="-3486.14" xlink:href="#linear-gradient-17"/>
    <linearGradient id="linear-gradient-93" x1="1034.91" y1="-3391.9" x2="1189.79" y2="-3471.64" xlink:href="#linear-gradient-6"/>
    <linearGradient id="linear-gradient-94" x1="1112.24" y1="-3403.17" x2="1153.78" y2="-3483.85" xlink:href="#linear-gradient-17"/>
    <linearGradient id="linear-gradient-95" x1="1045.87" y1="-3450.56" x2="1165.43" y2="-3510.72" xlink:href="#linear-gradient-6"/>
    <linearGradient id="linear-gradient-96" x1="1105.15" y1="-3458.27" x2="1138.09" y2="-3520.78" xlink:href="#linear-gradient-17"/>
    <linearGradient id="linear-gradient-97" x1="1387.89" y1="-3122.7" x2="1148.16" y2="-3640.36" gradientTransform="translate(564 -2045.8) scale(1 -1)" gradientUnits="userSpaceOnUse">
      <stop offset=".42" stop-color="#e6404b"/>
      <stop offset=".54" stop-color="#f07e2c"/>
      <stop offset=".59" stop-color="#ffc415"/>
    </linearGradient>
  </defs>
  <path class="cls-1" d="M1615.03,643.27l-178.08-87.81c-223.87-110.41-488.54-99.25-702.36,29.62l-96.55,58.2"/>
  <path class="cls-131" d="M1753.89,1144.73c-.77,2.96-1.97,5.73-3.16,8.49-5.7,13.04-15.6,24.69-29.62,32.78l-543.87,316.17c-57.84,33.57-129.16,33.77-187,.2l-548.41-316.57c-14.05-8.1-23.91-19.75-29.65-32.98-1.16-2.76-2.35-5.53-3.16-8.49-8.86-30.02,2-64.97,32.81-82.75l543.68-316.17c57.85-33.57,129.13-33.57,187-.2l548.41,316.57c31,17.77,41.86,52.92,32.97,82.94Z"/>
  <g class="cls-140">
    <path class="cls-36" d="M1756.28,1152.05c-5.74,13.03-15.6,24.68-29.62,32.78l-543.87,316.17c-57.88,33.57-129.16,33.77-187.04.2l-548.41-316.57c-14.02-8.09-23.88-19.75-29.62-32.98,5.74-13.03,15.6-24.68,29.62-32.78l543.68-316.17c57.88-33.57,129.16-33.77,187.04-.2l548.41,316.77c14.02,8.1,24.07,19.75,29.81,32.78Z"/>
  </g>
  <path class="cls-82" d="M1158.3,737.72l-9.47,54.51s12.02,4.94,27.65,13.82c15.6,9.08,167.44,96.77,276.08,159.37,108.6,62.6,233.64,134.88,233.64,134.88l31.77,18.37s23.49,11.46,32.58,34.56c0,0,6.74-12.44,6.12-31-.58-18.57-10.67-45.82-32.77-58.65-22.11-12.84-515.64-297.81-515.64-297.81,0,0-43.63-25.08-49.95-28.04Z"/>
  <path class="cls-90" d="M1756.79,1154.01c-5.7,13.04-15.6,24.68-29.62,32.78l-543.87,316.17c-57.88,33.57-129.16,33.77-187,.2l-548.41-316.57c-14.05-8.1-23.91-19.75-29.65-32.98,5.74-13.04,15.6-24.69,29.65-32.78l543.68-316.17c57.85-33.57,129.13-33.77,187-.2l548.41,316.76c14.02,8.1,24.1,19.75,29.81,32.78Z"/>
  <path class="cls-129" d="M1095.69,764.86l62.61,36.84v519.33h-141.66v-520.11c17.72-10.19,54.3-31.27,58.68-34.1,5.48-3.53,8.64-5.09,12.15-5.09,2.8,0,6.64,2.09,8.22,3.14Z"/>
  <path class="cls-24" d="M665.22,1262.77s36.48-6.75,38.73-82.18c2.22-75.42,21.37-89.6,42.09-100.41,20.72-10.81,68.67-7.88,111.44-6.75,42.8,1.13,188,21.39,237.53-24.99,49.53-46.38,72.25-93.43,128.1-124.05"/>
  <path class="cls-57" d="M1225.59,892.2c-55.85,30.62-88.27,86-137.8,132.15-49.53,46.15-194.74,26.12-237.5,24.99-42.8-1.12-90.97-4.05-111.47,6.75-20.46,10.81-39.83,24.99-42.09,100.41-2.26,75.42-56.94,83.53-56.94,83.53l136.64,79.25,594.37-343.55-145.21-83.52Z"/>
  <path class="cls-16" d="M639.79,1240.02s54.69-8.1,56.94-83.53c2.26-75.42,21.4-89.6,42.09-100.41,20.72-10.81,68.67-7.88,111.47-6.75,42.76,1.12,187.97,21.39,237.5-24.99,49.53-46.38,81.95-101.53,137.8-132.15"/>
  <path class="cls-4" d="M1085.99,797.32l167.06,96.51-167.06,96.33-167.06-96.33,167.06-96.51Z"/>
  <path class="cls-25" d="M1085.99,768.03l167.06,96.51-167.06,96.33-167.06-96.33,167.06-96.51Z"/>
  <path class="cls-26" d="M1085.99,741.16l167.06,96.51-167.06,96.33-167.06-96.33,167.06-96.51Z"/>
  <path class="cls-13" d="M1085.99,741.16l167.06,96.51-167.06,96.33-167.06-96.33,167.06-96.51Z"/>
  <path class="cls-88" d="M1086.86,879.22l169.47-97.74-169.47-97.92-169.51,97.92,169.51,97.74Z"/>
  <path class="cls-101" d="M1086.86,879.22v32.7l169.47-97.92v-32.52l-169.47,97.74Z"/>
  <path class="cls-93" d="M1086.86,879.22v32.7l-169.51-97.92v-32.52l169.51,97.74Z"/>
  <path class="cls-124" d="M1087.47,821.55l70.83-40.26-70.83-40.34-70.83,40.34,70.83,40.26Z"/>
  <path class="cls-2" d="M729.67,1062.14l212.46,125.78"/>
  <path class="cls-2" d="M642.95,1237.99l163.64,94.03"/>
  <path class="cls-2" d="M1076.48,1031.61l56.17,32.97"/>
  <path class="cls-2" d="M1224.23,891.18l48.85,28.09"/>
  <path class="cls-17" d="M1151.15,696.91l-14.53,126.75-125.81-18.06,140.34-108.69Z"/>
  <circle class="cls-109" cx="1135.39" cy="819.22" r="15.78"/>
  <circle class="cls-109" cx="1009.13" cy="803.44" r="15.78"/>
  <circle class="cls-109" cx="1151.15" cy="696.91" r="15.78"/>
  <path class="cls-54" d="M1087.47,880.18v-102.58l168.51-96.47v101.36l-168.51,97.69Z"/>
  <path class="cls-54" d="M1087.47,880.18v-102.58l-168.54-96.47v101.36l168.54,97.69Z"/>
  <path class="cls-23" d="M1087.47,776.38v101.36"/>
  <path class="cls-53" d="M1085.99,747.34l169.51-97.74-169.51-97.92-169.47,97.92,169.47,97.74Z"/>
  <path class="cls-29" d="M1086.86,747.33v32.7l169.51-97.92v-32.52l-169.51,97.74Z"/>
  <path class="cls-70" d="M1086.86,747.33v32.7l-169.51-97.92v-32.52l169.51,97.74Z"/>
  <path class="cls-52" d="M1079.25,687.76l-62.61-36.84V131.59h141.66v520.11c-17.76,10.19-54.33,31.28-58.71,34.1-5.48,3.53-8.6,5.09-12.12,5.09-2.84,0-6.67-2.09-8.22-3.14Z"/>
  <path class="cls-51" d="M1087.47,690.9l70.83-40.26-70.83-40.34-70.83,40.34,70.83,40.26Z"/>
  <path class="cls-6" d="M1085.99,526.23l167.06,96.51-167.06,96.33-167.06-96.33,167.06-96.51Z"/>
  <path class="cls-3" d="M1085.99,526.23l167.06,96.51-167.06,96.33-167.06-96.33,167.06-96.51Z"/>
  <path class="cls-19" d="M1085.99,496.92l167.06,96.51-167.06,96.33-167.06-96.33,167.06-96.51Z"/>
  <path class="cls-7" d="M1085.99,496.92l167.06,96.51-167.06,96.33-167.06-96.33,167.06-96.51Z"/>
  <path class="cls-8" d="M1085.99,470.05l167.06,96.51-167.06,96.33-167.06-96.33,167.06-96.51Z"/>
  <path class="cls-18" d="M1085.99,470.05l167.06,96.51-167.06,96.33-167.06-96.33,167.06-96.51Z"/>
  <path class="cls-73" d="M1085.12,432.35c14.92,0,26.97-12.65,26.97-28.26s-12.05-28.26-26.97-28.26-26.97,12.65-26.97,28.26,12.08,28.26,26.97,28.26Z"/>
  <path class="cls-56" d="M1023.56,1400.4l-21.59-12.35,250.36-145.18,22.07,12.85-250.84,144.67Z"/>
  <path class="cls-45" d="M1082.18,1446.81l-21.59-12.35,74.41-43.24,22.07,12.85-74.89,42.73Z"/>
  <path class="cls-12" d="M1587.9,1163.72c.1-31.51-44.57-57.19-99.77-57.34-55.17-.15-100,25.27-100.09,56.78-.1,31.52,44.57,57.19,99.77,57.34,55.2.15,100-25.27,100.09-56.78Z"/>
  <path class="cls-14" d="M1488.13,1106.39c55.2.15,99.87,25.83,99.77,57.34"/>
  <path class="cls-67" d="M701.53,1327.79l-243.66,136.75-5.96-10.65,237.95-133.3,11.67,7.21Z"/>
  <path class="cls-103" d="M495.77,785.13l155.68-89.77-155.68-89.94-155.68,89.94,155.68,89.77Z"/>
  <path class="cls-71" d="M495.77,784.54v50.37l155.68-89.94v-50.2l-155.68,89.77Z"/>
  <path class="cls-104" d="M495.77,784.54v49.58l-155.68-89.94v-49.41l155.68,89.77Z"/>
  <path class="cls-94" d="M495.77,584.85l155.68-89.77-155.68-89.94-155.68,89.94,155.68,89.77Z"/>
  <path class="cls-122" d="M495.77,584.26v141.63l155.68-89.94v-141.46l-155.68,89.77Z"/>
  <path class="cls-116" d="M495.77,584.26v142.06l-155.68-89.94v-141.89l155.68,89.77Z"/>
  <path class="cls-56" d="M467.09,619.97v14.75l-109.91-63.4v-14.75l109.91,63.41Z"/>
  <path class="cls-45" d="M379.18,605.34v14.72l-21.99-12.14v-14.72l21.99,12.14Z"/>
  <path class="cls-45" d="M406.03,620.65v14.08l-14.63-7.9v-14.08l14.63,7.9Z"/>
  <path class="cls-56" d="M464.64,654.07v14.85l-41.51-24.23v-14.85l41.51,24.23Z"/>
  <path class="cls-109" d="M594.1,577.96v17.68l43.96-26.44v-17.52l-43.96,26.28Z"/>
  <path class="cls-85" d="M613.62,604v16.06l24.43-13.24v-16.06l-24.43,13.24Z"/>
  <path class="cls-85" d="M581.88,622.41v17.21l17.11-9.66v-17.21l-17.11,9.66Z"/>
  <path class="cls-109" d="M513.5,661.05v17.64l48.85-28.77v-17.63l-48.85,28.77Z"/>
  <path class="cls-85" d="M513.5,624.46v17.59l46.4-26.38v-17.59l-46.4,26.38Z"/>
  <path class="cls-12" d="M552.49,494.4c.03-18.47-26.13-33.51-58.49-33.6-32.32-.09-58.59,14.81-58.65,33.28-.06,18.47,26.13,33.51,58.46,33.6,32.35.09,58.62-14.81,58.68-33.28Z"/>
  <path class="cls-9" d="M494,439.33c32.35.09,58.52,15.14,58.49,33.6"/>
  <path class="cls-109" d="M467.55,587.3c-2.64-1.47-4.7-.3-4.7,2.65s2.06,6.63,4.7,8.25c2.67,1.48,4.74.3,4.74-2.65,0-3.09-2.06-6.78-4.74-8.25Z"/>
  <path class="cls-109" d="M445.31,574.77c-2.64-1.47-4.7-.29-4.7,2.65s2.06,6.64,4.7,8.26c2.64,1.47,4.71.29,4.71-2.66,0-3.09-2.19-6.78-4.71-8.25Z"/>
  <path class="cls-109" d="M425.1,562.83c-2.64-1.47-4.7-.29-4.7,2.65s2.06,6.64,4.7,8.26c2.67,1.47,4.74.3,4.74-2.65,0-3.1-2.06-6.78-4.74-8.26Z"/>
  <path class="cls-108" d="M508.7,346.99v26.79l-23.23-13.4v-26.93l23.23,13.53Z"/>
  <path class="cls-58" d="M508.7,346.99l23.4-13.53v26.93l-23.4,13.4v-26.79Z"/>
  <path class="cls-79" d="M508.7,346.99l-23.23-13.53,23.23-13.4,23.4,13.4-23.4,13.53Z"/>
  <path class="cls-11" d="M580.08,388.42l-60.04-34.72"/>
  <path class="cls-35" d="M508.7,236.67v26.93l-23.23-13.53v-26.8l23.23,13.4Z"/>
  <path class="cls-62" d="M508.7,236.67l23.4-13.4v26.8l-23.4,13.53v-26.93Z"/>
  <path class="cls-77" d="M508.7,236.67l-23.23-13.4,23.23-13.53,23.4,13.53-23.4,13.4Z"/>
  <path class="cls-99" d="M580.08,388.42v17.77l-15.31-8.88v-17.63l15.31,8.75Z"/>
  <path class="cls-132" d="M580.08,388.42l15.44-8.75v17.63l-15.44,8.88v-17.77Z"/>
  <path class="cls-28" d="M580.08,388.42l-15.31-8.75,15.31-8.88,15.44,8.88-15.44,8.75Z"/>
  <path class="cls-11" d="M495.45,437.9l76.95-44.43"/>
  <path class="cls-89" d="M495.45,437.91v13.4l-11.63-6.7v-13.4l11.63,6.7Z"/>
  <path class="cls-68" d="M495.45,437.91l11.76-6.7v13.4l-11.76,6.7v-13.4Z"/>
  <path class="cls-65" d="M495.45,437.91l-11.63-6.7,11.63-6.7,11.76,6.7-11.76,6.7Z"/>
  <path class="cls-11" d="M436.38,305.44l59.07,125.76,13.24-57.41"/>
  <path class="cls-46" d="M436.38,305.45v15.18l-13.24-7.52v-15.31l13.24,7.66Z"/>
  <path class="cls-72" d="M436.38,305.45l13.15-7.66v15.31l-13.15,7.52v-15.18Z"/>
  <path class="cls-111" d="M436.38,305.45l-13.24-7.65,13.24-7.52,13.15,7.52-13.15,7.65Z"/>
  <path class="cls-11" d="M442.96,309.13l42.51,24.33"/>
  <path class="cls-11" d="M508.7,333.46v-69.86"/>
  <path class="cls-84" d="M398.2,1628.39l240.69-138.8-240.69-139.05-240.7,139.05,240.7,138.8Z"/>
  <path class="cls-117" d="M398.2,1628.39v46.44l240.69-139.05v-46.18l-240.69,138.79Z"/>
  <path class="cls-102" d="M398.2,1628.39v46.44l-240.7-139.05v-46.18l240.7,138.79Z"/>
  <path class="cls-20" d="M158.83,1374.85l224.7-134.43,226.61,134.43-226.61,130.59-224.7-130.59Z"/>
  <path class="cls-100" d="M337.44,1303.8c51.54,31.37,155.95,94.68,161.33,96.98l43.18-25.93-161.32-96.98-43.2,25.93Z"/>
  <path class="cls-78" d="M225.09,1372.94c51.53,31.37,145.39,89.88,150.74,92.18l43.21-25.93-150.74-92.18-43.21,25.93Z"/>
  <path class="cls-107" d="M224.13,1372.94c51.53,31.37,148.25,91.8,153.64,94.1l43.21-25.93-153.64-94.11-43.21,25.93Z"/>
  <path class="cls-83" d="M456.49,1375.22l43.05-26.3,43.38,26.3-43.38,25.55-43.05-25.55Z"/>
  <path class="cls-95" d="M337.44,1304.18l43.03-26.3,43.38,26.3-43.38,25.55-43.03-25.55Z"/>
  <path class="cls-75" d="M224.13,1373.32l43.03-26.3,43.39,26.3-43.39,25.55-43.03-25.55Z"/>
  <path class="cls-76" d="M333.6,1440.53l43.04-26.3,43.38,26.3-43.38,25.55-43.04-25.55Z"/>
  <g class="cls-140">
    <path class="cls-123" d="M156.91,1460.34l226.62-135.41,228.54,135.41-228.54,131.54-226.62-131.54Z"/>
    <path class="cls-42" d="M156.91,1460.34l226.62-135.41,228.54,135.41-228.54,131.54-226.62-131.54Z"/>
  </g>
  <g class="cls-138">
    <path class="cls-60" d="M156.91,1416.16l226.62-135.41,228.54,135.41-228.54,131.54-226.62-131.54Z"/>
    <path class="cls-81" d="M156.91,1416.16l226.62-135.41,228.54,135.41-228.54,131.54-226.62-131.54Z"/>
  </g>
  <circle class="cls-39" cx="1251.11" cy="493.06" r="12.21"/>
  <g class="cls-139">
    <g>
      <path class="cls-27" d="M274.76,593.32c9.01-.56,7.03-15.87,4.59-24.2-.88-3-4.49-4.47-7.47-3.49-2.98.98-4.81,6.64-4.71,9.77.07,2.93-3.05,18.59,7.6,17.93Z"/>
      <path class="cls-63" d="M279.69,577.39c1.51-12.92-12.6-14-10.67.07.52,3.74,2.86,6.47,5.23,6.57,3.69.17,5.13-3.93,5.45-6.64Z"/>
      <path class="cls-27" d="M321.58,572.3c3.93,3.13,8.89,4.81,13.85,4.69.69-.02,1.44-.1,1.88-.63.66-.81.2-2.08-.37-2.98-4.54-7.42-13.09-13.75-16.83-21.64-.44-.91-.83-1.88-1.59-2.52-1.17-.93-2.84-.73-4.25-1.1-1.32-.34-2.74-1.2-3.96-.54-1.1.61-1.32,2.1-1.66,3.37-.37,1.34-.98,4.69-1.39,5.98-.44,1.32-.69,2.76-.32,4.08.49,1.66,1.86,2.86,3.35,3.64,1.47.78,3.08,1.27,4.54,2.08,2.52,1.44,4.47,3.74,6.74,5.57Z"/>
      <path class="cls-27" d="M337.31,576.36c-.44.51-1.2.61-1.86.63-4.93.15-9.92-1.54-13.85-4.67-2.27-1.83-4.25-4.15-6.79-5.54-1.47-.81-3.08-1.3-4.54-2.08-1.47-.81-2.86-2-3.32-3.66-.39-1.32-.12-2.76.29-4.08.37-1.12.88-4.32,1.25-5.47.07-.17.12-.34.17-.51.34-1.24.56-2.74,1.69-3.35,1.2-.66,2.61.2,3.93.54,1.44.36,3.1.14,4.27,1.1.78.63,1.15,1.61,1.59,2.51,1.47,3.13,3.71,5.64,6.13,8.06,3.74,3.66,7.96,9.09,10.7,13.58.51.86,1,2.1.34,2.93Z"/>
      <path class="cls-27" d="M328.9,564.12c.07.52-.1,1.05-.51,1.34-.37.22-.81.22-1.22.2-4.4-.34-8.28-2.98-11.68-5.79-1.76-1.44-3.47-2.98-4.89-4.79-.85-1.1-1.61-2.32-2.12-3.61.07-.17.12-.34.17-.52.34-1.24.39-3.86,1.49-4.47,1.2-.66,2.81.05,4.13.39,1.44.36,3.62-.46,4.79.49.78.63.44,2.71.88,3.62,1.47,3.13,3.91,6.42,6.35,8.84.76,1.02,1.47,2,2.05,2.96.22.39.46.83.56,1.34Z"/>
      <path class="cls-63" d="M324.78,474.61c-.12,2.03-.29,4.35-.44,6.91-.14,2.42-.34,5.06-.51,7.84-.15,2.25-.29,4.59-.44,7.01-1.54,24.18-3.47,54.54-3.47,54.56-.02.07-.07.12-.1.17-2.2,4.08-10.43,5.01-11.19-.17-.88-15.97-3.71-29.92-5.72-42.69-.68-4.37-1.27-8.6-1.63-12.73-.34-3.54-.49-6.99-.42-10.38v-.51c.05-2.96.29-5.89.73-8.77.15-.88.32-1.71.49-2.57l18.61-12.09c0,.54,4.08,12.87,4.08,13.41Z"/>
      <path class="cls-106" d="M302.9,447.95c-3.1,15.83-4.86,28.33-6.74,37.93-.15.73-.29,1.44-.42,2.13-.76,3.66-1.59,6.89-2.52,9.65-.19.63-.42,1.22-.63,1.79l-1.54,7.4-.68,3.22-11.95,57.27-.41,2.03-.39,1.88c0,4.52-6.91,2.98-7.3-.83-.02-.29-.07-.59-.1-.85-.1-.85-.2-1.69-.27-2.52-3.71-34.61-2.68-48.53-.34-61.62.29-1.66.61-3.34.93-5.03.46-2.42.98-4.91,1.49-7.55-.12-.85-.2-1.71-.29-2.57-.03-.22-.05-.44-.07-.66-.03-.12-.03-.24-.05-.37-2.03-18-1.51-31.8-1.05-41.33h32.34v.03Z"/>
      <path class="cls-63" d="M302.9,447.95c-3.1,15.83-4.86,28.33-6.74,37.93-.15.73-.29,1.44-.42,2.13-.76,3.66-1.59,6.89-2.52,9.65-.19.63-.42,1.22-.63,1.79l-1.54,7.4-.68,3.22-11.95,57.27-.41,2.03-.39,1.88c0,4.52-6.91,2.98-7.3-.83-.02-.29-.07-.59-.1-.85-.1-.85-.2-1.69-.27-2.52-3.71-34.61-2.68-48.53-.34-61.62.29-1.66.61-3.34.93-5.03.46-2.42.98-4.91,1.49-7.55-.12-.85-.2-1.71-.29-2.57-.03-.22-.05-.44-.07-.66-.03-.12-.03-.24-.05-.37-2.03-18-1.51-31.8-1.05-41.33h32.34v.03Z"/>
      <path class="cls-135" d="M343.85,405.34l-29.06-5.79s-11.11-36.59-10.67-37.2c.44-.59,11.11-22.57,11.11-22.57l8.35,45.87,25.08,12.6-4.81,7.08Z"/>
      <path class="cls-80" d="M343.85,405.34l-29.06-5.79s-11.11-36.59-10.67-37.2c.44-.59,11.11-22.57,11.11-22.57l8.35,45.87,25.08,12.6-4.81,7.08Z"/>
      <path class="cls-96" d="M287.21,317.54c-18.49,6.01-14.56,23.47-9.55,37.15l13.04-12.28-3.49-24.87Z"/>
      <path class="cls-33" d="M323.92,487.9c-2.81,7.67-41.06,23.11-53.15,11.14l-3.56-52.83c-3.27-17.34-.42-26.28,8.6-34.66,1.1-1,2.25-2,3.52-3l26.84-1.1,10.5-.42c9.14,29.09,9.38,60.77,7.25,80.87Z"/>
      <path class="cls-105" d="M328.05,380.65c.03,5.35-5.06,10.21-11.36,9.36-.03,5.13-1.59,12.28,0,17-2.57,6.16-5.98,10.89-12.77,12.63-6.79,1.71-20.34.29-28.11-8.11,1.3-9.53-1.93-21.71-5.28-31.95-2.59-7.91-3.54-17.9-4.27-21.27,6.2-7.79,11.97-11.04,19.93-16.58,7.94-5.55,14.02-11.92,23.1-8.52,9.09,3.39,7.72,20.78,11.07,27.94,3.32,7.13,7.67,12.09,7.69,19.52Z"/>
      <path class="cls-63" d="M294.42,400.31c.9,1.76,2.74,3.15,5.42,4.18l3.76.83c.36,1.1,2.05,1.32,3.76,1.51,1.24-.2,1.83-.78,1.71-1.79,1-.71,1.59-1.49,1.17-2.47.93-.68,1.34-1.51.83-2.61.81-.85,1.12-1.81.53-2.88l9.23,1.1c1.98.24,2.66-1.64,0-2.25l-17.17-3.15c-2.37-.59-4.81-.59-7.32,0l-5.89,1.51.34,7.11,3.62-1.1Z"/>
      <path class="cls-37" d="M266.26,358.3c-9.77,11.94-20,45.48-12.97,50.44,8.08,7.01,25.45-.73,41.57-7.3-.85-3.81-.95-6.64,1.51-8.67l-29.82,3.39,11.85-18.78c4.61-15.73-3.25-24.86-12.14-19.07Z"/>
      <path class="cls-63" d="M289.66,329.46c-1.17,4.03-4.32,10.28-5.1,14.14-.88,4.74,7.86,12.14,13.75,11.7,4.15-.81,5.2-6.16,5.81-11.04l-14.46-14.8Z"/>
      <path class="cls-96" d="M308.42,314.88c11.75,1.78,24.91,16.15,5.2,24.13.51-6.47,1.66-11.38-5.2-24.13Z"/>
      <path class="cls-137" d="M301.28,306.52c13.68,1.9,17.9,9.92,16.54,20.81-.17,9.14-7.74,21.23-13.06,21-7.57.42-11.29-8.4-17.76-17.85-4.99-15.56,1.54-25.72,14.29-23.96Z"/>
      <path class="cls-96" d="M317.62,327.63c-2.83,3.05-7.4,4.76-13.09,6.08-4.79,1.98-9.46,1.79-11.31,4.47l-5.57-2.29c-5.59-6.42-6.13-24.79,3.45-28.7,15.41-6.23,33.68,9.21,26.52,20.44Z"/>
      <path class="cls-63" d="M293.05,335.37c-.85-3.34-3.17-5.54-5.15-3.62-.93.91-.85,2.54,0,4.64.68,1.64,1.71,2.39,2.98,2.59,1.88.29,2.81-1.05,2.17-3.62Z"/>
      <path class="cls-128" d="M335.58,376.45c-8.67,8.13-14.51,20.42-18.88,38.3l30.07.98c-.44-13.9,8.67-26.89,20.18-39.27h-31.36Z"/>
      <path class="cls-63" d="M345.78,399.14c-3.1.32-3.1,2.74-.81,2.98-3.54-.07-4.1,3.05-1.15,3.22-2.03.1-2.42,2.44.54,2.71-2.2.69-2.37,2.08.12,2.42l3.35.19c1.34.12,3.2-.68,2.81-2.34,1.15,0,2.03-2.76,1.44-2.98,1.02-.44,1.76-2.44,1-3.1,1.41-.76,1.61-2.86-.44-5.13l-.98-1-1.47,2.83-4.42.2Z"/>
    </g>
  </g>
  <path class="cls-63" d="M1819.6,513.02c1.29,2.96,2.55,5.84,3.74,8.6,1.03,4.18,2.84,7.94,4.96,11.6.68,2.68-.68,2.78-3.25,1.37l-5.32-7.86c-1.51,1.27-2.55,3.44-3.42,6.08l1.48,12.07c-.39,2.32-1.32,2.1-2.51.78l-2.13-10.97-.19,11.75c-.84,1-1.51.66-2.09-.93l-.68-3.37c-.58,1.22-1.19,1-1.77-.24,0,0-.45-14.14-.45-14.36s4.61-16.51,4.61-16.51l1.8-3.49,7.02,1.96-1.8,3.54Z"/>
  <path class="cls-61" d="M1842.45,445.24c-2.51,9.5-1.84,21.13-5.12,34.9-4.48,13.8-9.93,20.54-16.27,36.22-.97,1.51-9.73-.44-9.41-2.08,6.57-30.19,2.74-20.32,6.93-33.36,1.87-9.99,2.03-22.76,3.19-34.93.71-7.99,3.74-12.31,7.9-14.11,9.41-3.05,18.08,4.42,12.79,13.36Z"/>
  <path class="cls-119" d="M1842.45,445.24c-2.51,9.5-1.84,21.13-5.12,34.9-4.48,13.8-9.93,20.54-16.27,36.22-.97,1.51-9.73-.44-9.41-2.08,6.57-30.19,2.74-20.32,6.93-33.36,1.87-9.99,2.03-22.76,3.19-34.93.71-7.99,3.74-12.31,7.9-14.11,9.41-3.05,18.08,4.42,12.79,13.36Z"/>
  <path class="cls-118" d="M1841.55,645.89s1.32,7.13.68,10.21c-.68,3.08-8.77,5.06-8.77,5.06,0,0-6.9,8.38-16.56,7.62-5.74-.44-7.64-1.95-8.54-3.61-.87-1.69-.03-3.81,1.06-5.38,1.13-1.56,8.44-4.22,11.41-8.94,1.42-2.29,3.83-7.13,3.83-7.13l.29-2.59c.42-3.69,3.45-6.52,7.12-6.67,4.99-.22,8.93,3.86,8.57,8.69l-.13,1.56,1.03,1.17Z"/>
  <path class="cls-118" d="M1875.35,667.6c1.19,2.25,1.19,6.08,1.29,11.62-1.51,3.06-3.77,5.55-6.57,6.47,0,0-2.13,9.92-15.4,10.26-12.44.32-12.34-4.74-12.28-4.71,0,0,0-2.86,2.87-5.28,1.77-1.51,8.38-7.13,10.02-9.26,1.64-2.13,2.96-5.5,2.96-5.5l.55-8.99h16.79l-.23,5.38Z"/>
  <path class="cls-87" d="M1827.4,511.84l22.07,29.9c-1.1,8.26-2.84,31.07-4.77,38.86,4.09,29.58-1.19,63.06-3.61,64.92-3.42,2.78-11.44,4.5-16.11-2.51,0,0,2.29-32.44-2.03-66.19l4.45-64.97Z"/>
  <path class="cls-110" d="M1842.74,535.97l6.12,55.51c6.8,34.46,9.76,79.13,9.76,79.13,3.96,7.08,14.6,4.25,17.98,0,.35-4.47.71-9.08,1.03-13.85,1.26-20.61,1.13-43.45-6.61-63.01,2.45-14.41,5.09-41.37,3.77-54.56,2.48-7.62,3.38-18.05-.93-28.84-.06-.15-.1-.24-.16-.39-.13.1-.26.22-.39.32-1.84,1.56-3.93,2.66-6.19,3.39-15.95,5.23-39.83-7.94-39.86-7.6-.52,15.97,5.29,22.35,15.47,29.9Z"/>
  <path class="cls-98" d="M1823.43,485.76c1.03,6.62,2.35,12.97,3.67,19.05,0,0,0,1.63,1,3.76,1.55,3.39,5.64,8.01,16.24,8.96,6.99,1.03,12.41,1.05,16.56.51,3.03-.41,5.41-1.1,7.25-1.98.1-.05.19-.1.32-.15l1.13-.59c5.28-3.22,5.22-7.62,5.22-7.62,2.13-11.02,3.61-22.25,4.51-33.73.26-2.93.19-6.94,0-11.31-.35-8.26-2.74-17.66-2.71-23.32-11.41-4.5-14.15-6.79-23.75-12.17-9.89-2.08-19.05-1.24-27.62.32-5.54,20.74-4.64,40.4-1.84,58.25Z"/>
  <path class="cls-44" d="M1844.06,447.03l-1.61,5.13-2.96-1.07v-5.79l2.96-2,1.61,3.73Z"/>
  <path class="cls-44" d="M1842.45,452.16c-.84,10.77-.84,31.09-.03,42.47l-4.77,4.57-3.29-7.48c.61-11.11,2.77-30.16,5.12-40.64l2.96,1.07Z"/>
  <path class="cls-63" d="M1850.6,422.29c.35,0,5.99,6.99,5.99,6.99,7.54,4.27-2.16,20.2-12.47,18.54l-8.51-5.93,14.98-19.59Z"/>
  <path class="cls-69" d="M1854.89,427.15c1.39.98,3.84,2.64,5.96,4.64,0,0-4.12,19.3-16.79,20.37-.9-3.34-2.26-6.01-2.26-6.01,7.83-1.2,13.08-13.09,13.08-19Z"/>
  <path class="cls-41" d="M1841.8,446.15l-4.64,4.44s-4.45-18.15-.55-21.98c3.9-3.86,5.19,17.54,5.19,17.54Z"/>
  <path class="cls-137" d="M1838.07,403.16c9.22.1,14.5,4.44,14.86,14.09-.26,10.13-.77,16.24-5.67,23.18-3.03,3.83-7.15,6.6-11.89,6.35-5.64-.29-13.92-13.75-14.73-23.52-1.39-9.87,7.03-17.41,17.43-20.1Z"/>
  <path class="cls-74" d="M1821.76,430.37c2.09,4.93,14.34,4.03,19.75-2l.61,3.62,4.93-4.11,4.32,5.59,1.55-2.22c3.93-7.86,3.74-20.81-7.44-27.33-14.95-6.01-33.45,11.38-23.72,26.45Z"/>
  <path class="cls-63" d="M1848.44,432.08c.58-1,1.1-2.08,1.22-3.23.13-1.15-.23-2.37-1.1-3.13-.84-.76-2.32-.9-3.22-.17-.61.51-.9,1.34-.9,2.15s.19,1.56.42,2.32c.19.68.42,1.39.61,2.08.16.46.32,1,.77,1.22.42.22.93.1,1.32-.19.39-.24.61-.63.87-1.05Z"/>
  <path class="cls-63" d="M1896.68,533.66l.58,8.67-.35,7.72-2.22,5.74c-.42,1.34-1.93,1.74-1.42.1l-2,6.25c-.42,1.86-2.32,1.88-2.19.12l1.45-8.26-5.19,11.31c-.81,1.69-2.87,1.86-2.39-.44l3.61-12.28-3.8,6.72-3.74,4.52c-1.55,1.54-3.58.71-2.61-1.22l3.93-6.3s1.71-4.91,2.35-7.23c.1-.36-.93-4.81-.93-4.81l-8.93,4.67c-2.42.78-3.38-1.32-1.22-2.88l9.06-7.96s5.25-3.2,5.74-3.49l.48-.29,1.32-4.1,8.51.63-.03,2.83Z"/>
  <path class="cls-114" d="M1879.89,441.63c9.7,10.4,14.5,22.45,21.62,40.25,1.77,14.63-1.06,33.12-4.77,52.61-2.77,1.39-5.7.37-9.47-1.41.35-14.46-3.22-29.19-1.77-43.57-7.64-4.81-15.24-18.73-23.46-30.82-2.38-16.88,7.41-26.11,17.85-17.05Z"/>
  <path class="cls-134" d="M1832.04,716.61c.39,2.28.61,4.59.61,6.93-.13,36.6-52.17,66.11-116.24,65.94-64.1-.18-115.95-29.99-115.85-66.58,0-2.32.23-4.61.64-6.87v-41.18l34.26.86c20.95-11.68,49.66-18.84,81.34-18.75,34.9.1,66.19,8.99,87.43,22.98l27.81.7v35.98Z"/>
  <path class="cls-126" d="M1832.62,677.2c.13-36.6-51.75-66.4-115.82-66.58-64.1-.18-116.14,29.34-116.24,65.94-.13,36.59,51.75,66.4,115.85,66.58,64.06.18,116.11-29.34,116.21-65.94Z"/>
  <path class="cls-59" d="M1832.62,677.2c.13-36.6-51.75-66.4-115.82-66.58-64.1-.18-116.14,29.34-116.24,65.94-.13,36.59,51.75,66.4,115.85,66.58,64.06.18,116.11-29.34,116.21-65.94Z"/>
  <path class="cls-115" d="M1781.57,676.88c.06-20.5-28.97-37.19-64.87-37.29-35.9-.1-65.03,16.43-65.1,36.93-.06,20.5,28.97,37.19,64.87,37.29,35.9.1,65.03-16.43,65.1-36.93Z"/>
  <path class="cls-15" d="M1781.57,611.14c.06-20.5-28.97-37.19-64.87-37.29-35.9-.1-65.03,16.44-65.1,36.93-.06,20.49,28.97,37.19,64.87,37.29,35.9.1,65.03-16.43,65.1-36.93Z"/>
  <path class="cls-21" d="M1812.96,550.16c.06-30.39-42.99-55.14-96.19-55.29-53.24-.15-96.45,24.37-96.55,54.76-.06,30.39,42.99,55.14,96.23,55.29,53.2.15,96.42-24.37,96.52-54.75Z"/>
  <path class="cls-5" d="M1720.06,676.25v-199.06"/>
  <path class="cls-43" d="M1718.99,593.56c15.6,0,28.26-12.65,28.26-28.26s-12.66-28.26-28.26-28.26-28.26,12.65-28.26,28.26,12.66,28.26,28.26,28.26Z"/>
  <path class="cls-30" d="M1708.74,743.31c103.25,0,124.1-49.09,121.62-73.64v-239.11c-35.29,19.31-112.18,57.26-137.35,54.61-25.14-2.65-72.25-40.27-92.65-58.74v246.56c0,29.79,33.1,70.33,108.37,70.33Z"/>
  <path class="cls-47" d="M1832.04,423.53c.39,2.28.61,4.59.58,6.93-.1,36.59-52.14,66.11-116.21,65.94-64.1-.18-115.98-29.99-115.85-66.58,0-2.32.23-4.61.64-6.87v-41.18l34.26.86c20.95-11.68,49.66-18.83,81.34-18.74,34.9.1,66.19,8.98,87.4,22.97l27.84.7v35.99Z"/>
  <path class="cls-136" d="M1832.62,384.13c.13-36.6-51.75-66.41-115.82-66.58-64.1-.18-116.14,29.34-116.24,65.94-.13,36.6,51.75,66.41,115.85,66.58,64.06.18,116.11-29.34,116.21-65.94Z"/>
  <path class="cls-133" d="M1832.62,384.13c.13-36.6-51.75-66.41-115.82-66.58-64.1-.18-116.14,29.34-116.24,65.94-.13,36.6,51.75,66.41,115.85,66.58,64.06.18,116.11-29.34,116.21-65.94Z"/>
  <path class="cls-109" d="M1420.81,950.33c0,4.98-7.09,9-15.82,8.98-8.73-.03-15.79-4.08-15.79-9.07.03-4.98,7.12-9,15.82-8.98,8.73.03,15.79,4.08,15.79,9.07Z"/>
  <path class="cls-109" d="M785.55,949.53c-.03,4.98-7.12,9-15.82,8.98-8.73-.03-15.79-4.09-15.79-9.07s7.09-9,15.82-8.98c8.73.03,15.79,4.08,15.79,9.07Z"/>
  <path class="cls-109" d="M578.11,749.98c6.12-3.4,10.86-.68,10.86,6.11s-4.74,15.28-10.86,19.02c-6.12,3.4-10.89.68-10.89-6.11,0-7.13,4.77-15.63,10.89-19.02Z"/>
  <path class="cls-32" d="M701.53,1333.01v-5.3l-4.7,2.65,4.7,2.65Z"/>
  <path class="cls-130" d="M1416.62,1367.48v-6.96l5.93,3.37-5.93,3.59Z"/>
  <path class="cls-109" d="M409.02,749.79c-6.12-3.4-10.89-.68-10.89,6.11s4.77,15.29,10.89,19.02c6.09,3.4,10.86.68,10.86-6.11,0-7.13-4.77-15.63-10.86-19.02Z"/>
  <path class="cls-109" d="M272.06,1569.64c-6.12-3.4-10.87-.68-10.87,6.11s4.75,15.29,10.87,19.02c6.11,3.4,10.87.68,10.87-6.11,0-7.13-4.76-15.63-10.87-19.02Z"/>
  <path class="cls-109" d="M1639.43,735.64c-6.12-3.4-10.89-.68-10.89,6.12s4.77,15.28,10.89,19.02c6.09,3.4,10.86.68,10.86-6.12,0-7.13-4.77-15.62-10.86-19.02Z"/>
  <path class="cls-50" d="M410.64,760.42c2.13,2.26,1.84,6.54.77,6.98h-3.74c-3.54-1.06-9.76-3.85-6.32-6.56,4.29-3.4,7.19-2.67,9.28-.41Z"/>
  <path class="cls-121" d="M763.63,874.48l-187.13-106.56,5.29-8.76,194.06,108.91v79.64l-12.21-3.51v-69.72Z"/>
  <path class="cls-120" d="M576.27,760.9c-2.58,3.26-.87,6,.32,6.97l8.57-4.27-3.42-4.36c-1.03-.4-3.58-.62-5.48,1.66Z"/>
  <circle class="cls-39" cx="674.69" cy="815.46" r="12.21"/>
  <path class="cls-31" d="M1411.08,883.95l230.57-128.89-6.51-10.74-236.28,132.47v66.38l12.21,7.1v-66.32Z"/>
  <path class="cls-48" d="M1404.28,953.99c4.74,1.4,6.74-2.58,6.74-3.77-.77-.69-2.38-2.09-2.55-2.23-.19-.14-6.38-3.17-9.47-4.68.03,3.75-.32,9.01,5.29,10.68Z"/>
  <circle class="cls-39" cx="1480.68" cy="837.44" r="12.21"/>
  <path class="cls-32" d="M1643.75,747.28c-2.61-4.41-6.86-3.77-8.64-2.9-.32.74,4.12,7.44,6.41,10.7,1.84-.76,4.83-3.38,2.22-7.79Z"/>
  <path class="cls-38" d="M1727.98,1538.83l-311.4-178.29,10.15-6.52,307.33,174.21-6.09,10.6Z"/>
  <path class="cls-91" d="M1914.6,1582.91v6.43l-1.26.82s-.03.05-.03.07c-.16.43-.32.86-.42,1.3-1.74,3.89-4.77,7.35-8.89,9.73l-162.74,93.81c-17.11,9.94-38.32,9.94-55.43,0l-43.7-25.27c-4.12-2.38-7.15-5.84-8.86-9.73-.23,0-2.19-3.67-1.97-9.08.23-4.76,1.74-9.51,5-13.18,1.29-1.51,2.8-3.03,4.74-4.11.13-.11.29-.22.45-.33.16-.11.32-.22.42-.32l146.53-84.52c.26-.17.52-.31.77-.44.35-.2.71-.38.97-.64l1.1-.65c1.93-1.08,2.8-1.73,2.8-1.73h.23l10.6-6.05c.42-.22.87-.46,1.29-.7.87-.48,1.74-.96,2.61-1.25,0,0,.19,0,.19-.22,16.47-7.57,35.51-6.92,51.3,2.16l8.15,4.71,35.19-19.39c3.42-2.43,10.38-9.35,10.96-17.52v76.08Z"/>
  <path class="cls-112" d="M1631.31,1573.59c.23-4.76,1.74-9.51,5-13.19,1.29-1.51,2.8-3.03,4.74-4.11.23-.22.68-.43.87-.65l146.53-84.52c.64-.43,1.32-.65,1.74-1.08l1.1-.65c1.93-1.08,2.8-1.73,2.8-1.73h.23l10.6-6.05c1.29-.65,2.58-1.51,3.9-1.95,0,0,.19,0,.19-.22,16.47-7.57,35.51-6.92,51.3,2.16l43.7,25.27c9.09,5.19,12.34,15.56,9.73,24.64-.19.87-.64,1.73-.84,2.59-1.74,3.89-4.77,7.35-8.89,9.73l-162.74,93.81c-17.11,9.94-38.32,9.94-55.43,0l-43.7-25.27c-4.12-2.38-7.15-5.84-8.86-9.73-.23,0-2.19-3.67-1.97-9.08Z"/>
  <path class="cls-97" d="M1655.09,1574.82c.16-3.54,1.29-7.07,3.67-9.8.97-1.12,2.09-2.25,3.54-3.05.16-.16.48-.32.64-.48l121.49-72.77c.48-.32.97-.48,1.29-.8l.81-.48c1.45-.8,2.09-1.29,2.09-1.29h.16l7.86-4.5c.97-.48.39-.37.39-.37,0,0,4.38-2.19,21.91-10.95,12.21-5.63,20.82-4.9,32.55,1.85l32.42,18.79c6.77,3.86,9.15,11.58,7.25,18.32-.16.64-.48,1.29-.64,1.93-1.29,2.89-3.55,5.47-6.61,7.23l-147.24,89.16c-12.7,7.39-28.46,7.39-41.12,0l-32.45-18.79c-3.06-1.77-4.96-2.42-6.25-5.31-.16,0-1.93-4.66-1.77-8.68Z"/>
  <path class="cls-127" d="M1631.31,1653.58v-76.65c.23,3.16,4.22,11.54,18.24,19.72,14.02,8.18,33.1,18.98,40.89,23.37,2.67,1.46,10.38,4.53,19.72,5.11,9.35.58,17.53-1.22,20.43-2.19v76.67c-6.32,2.19-23.2,4.82-40.15-2.19-2.93-1.17-35.77-20.44-51.85-29.94-4.99-3.29-6.96-10.63-7.28-13.89Z"/>
  <path class="cls-125" d="M1648.48,1491.41v-21.2s3.83-48.37,29.81-63.22c25.97-14.85,38.25,4.44,59.26,0,20.98-4.44,12.15-51.41,43.76-62.46v69.06l-132.83,77.82Z"/>
  <g class="cls-140">
    <path class="cls-34" d="M1624.8,1343.38v232.19l270.28-154.88v-231.55l-270.28,154.24Z"/>
    <path class="cls-66" d="M1624.8,1343.38v232.19l270.28-154.88v-231.55l-270.28,154.24Z"/>
  </g>
  <path class="cls-22" d="M1624.8,1343.38v232.19l270.28-154.88v-231.55l-270.28,154.24Z"/>
  <g class="cls-140">
    <path class="cls-55" d="M1648.48,1428.52l116.59-66.84v-10.43l-116.59,65.21v12.06Z"/>
    <path class="cls-40" d="M1648.48,1428.52l116.59-66.84v-10.43l-116.59,65.21v12.06Z"/>
  </g>
  <path class="cls-86" d="M1648.48,1428.52l95.52-53.36v-11.27l-95.52,52.67v11.96Z"/>
  <path class="cls-92" d="M1648.48,1428.52l95.52-53.36v-11.27l-95.52,52.67v11.96Z"/>
  <path class="cls-49" d="M1648.48,1467.85l73.06-40.51v-10.07l-73.06,38.94v11.64Z"/>
  <path class="cls-64" d="M1648.48,1467.85l73.06-40.51v-10.07l-73.06,38.94v11.64Z"/>
  <path class="cls-113" d="M1797.4,1324.44c28.91-27.72,41.93-54.82,42.63-56.23.71.62,13.82,12.8,42.8,7.42.1,3.35,1.45,66.73-42.44,106.19-44.05,10.68-43.09-54.02-42.99-57.37Z"/>
  <path class="cls-109" d="M1822.18,1595.46c6.12-3.4,10.86-.68,10.86,6.11s-4.74,15.29-10.86,19.02c-6.12,3.4-10.86.68-10.86-6.11,0-7.13,4.74-15.63,10.86-19.02Z"/>
  <circle class="cls-39" cx="1524.64" cy="1416.29" r="12.21"/>
  <path class="cls-120" d="M769.69,952.53c-5.22-.25-6.25-5.84-6.12-8.6,4.06-4.45,12.28,1.77,12.21,2.69-.1.92.45,6.22-6.09,5.91Z"/>
</svg>