<svg viewBox="0 0 397.3 166.3" xmlns="http://www.w3.org/2000/svg" xmlns:xlink="http://www.w3.org/1999/xlink" id="Layer_1" xml:space="preserve" overflow="hidden"><g><path d="M42.6 68.5C43.3 68.4 44.2 68.3 45.1 68.2 46 68.1 47 68.1 47.9 68 48.9 68 49.8 67.9 50.7 67.9 51.6 67.9 52.4 67.9 53.2 67.9 56.4 67.9 59.2 68.4 61.5 69.3 63.8 70.2 65.6 71.5 67.1 73.1 68.5 74.7 69.6 76.7 70.2 78.9 70.9 81.2 71.2 83.6 71.2 86.3 71.2 88.8 70.9 91.1 70.3 93.4 69.7 95.7 68.6 97.7 67.2 99.5 65.8 101.3 63.8 102.7 61.4 103.8 59 104.9 56.1 105.4 52.6 105.4 52 105.4 51.3 105.4 50.4 105.3 49.5 105.3 48.5 105.2 47.5 105.2 46.5 105.1 45.6 105.1 44.7 105 43.8 104.9 43.1 104.9 42.7 104.8L42.6 68.5 42.6 68.5ZM53.8 74.3C53 74.3 52.3 74.3 51.5 74.4 50.7 74.4 50.1 74.5 49.8 74.6L49.8 99C49.9 99 50.2 99.1 50.5 99.1 50.8 99.1 51.2 99.1 51.6 99.2 52 99.2 52.3 99.2 52.7 99.3 53 99.3 53.3 99.3 53.5 99.3 55.5 99.3 57.2 98.9 58.5 98.2 59.8 97.5 60.9 96.5 61.7 95.4 62.5 94.2 63 92.9 63.3 91.3 63.6 89.7 63.8 88.2 63.8 86.5 63.8 85.1 63.7 83.6 63.4 82.2 63.1 80.8 62.6 79.5 61.9 78.3 61.2 77.2 60.1 76.2 58.9 75.5 57.4 74.7 55.8 74.3 53.8 74.3Z" fill="#00D470"/><path d="M73.7 71.5C73.7 70.5 74.1 69.6 74.8 68.9 75.5 68.2 76.6 67.8 77.9 67.8 79.2 67.8 80.3 68.2 81.1 68.9 81.9 69.6 82.3 70.5 82.3 71.5 82.3 72.5 81.9 73.3 81.1 74 80.3 74.7 79.2 75 77.9 75 76.6 75 75.5 74.7 74.8 74 74 73.4 73.7 72.5 73.7 71.5ZM74.7 78.9 81.5 78.9 81.5 104.9 74.7 104.9 74.7 78.9Z" fill="#00D470"/><path d="M98.1 92.5 99 96.5 99.3 96.5 100 92.4 104.4 78.9 111.7 78.9 100.8 105.2 96.7 105.2 85.4 78.9 93.3 78.9 98.1 92.5Z" fill="#00D470"/><path d="M113.6 71.5C113.6 70.5 114 69.6 114.7 68.9 115.4 68.2 116.5 67.8 117.8 67.8 119.1 67.8 120.2 68.2 121 68.9 121.8 69.6 122.2 70.5 122.2 71.5 122.2 72.5 121.8 73.3 121 74 120.2 74.7 119.1 75 117.8 75 116.5 75 115.4 74.7 114.7 74 113.9 73.4 113.6 72.5 113.6 71.5ZM114.5 78.9 121.3 78.9 121.3 104.9 114.5 104.9 114.5 78.9Z" fill="#00D470"/><path d="M148 95.7C148 97.2 148 98.6 148.1 100.1 148.1 101.6 148.3 103.2 148.6 104.9L143.8 104.9 142.9 101.5 142.7 101.5C142 102.7 141 103.7 139.7 104.4 138.4 105.1 136.9 105.5 135.1 105.5 131.8 105.5 129.3 104.4 127.5 102.3 125.7 100.1 124.8 96.8 124.8 92.2 124.8 87.8 125.8 84.3 127.8 81.8 129.8 79.3 132.8 78.1 136.7 78.1 137.8 78.1 138.7 78.2 139.4 78.3 140.1 78.4 140.8 78.6 141.5 78.9L141.5 68.5 148.3 68.5 148.3 95.7 148 95.7ZM136.5 99.9C137.8 99.9 138.9 99.6 139.6 98.9 140.4 98.3 140.9 97.3 141.2 96.1L141.2 85.1C140.7 84.7 140.2 84.4 139.6 84.2 139 84 138.2 83.9 137.3 83.9 135.4 83.9 134 84.5 133 85.8 132 87.1 131.6 89.3 131.6 92.4 131.6 94.6 132 96.4 132.8 97.8 133.5 99.2 134.8 99.9 136.5 99.9Z" fill="#00D470"/><path d="M173.7 102.7C172.7 103.5 171.2 104.2 169.5 104.8 167.7 105.4 165.8 105.7 163.8 105.7 159.6 105.7 156.5 104.5 154.6 102 152.7 99.6 151.7 96.2 151.7 91.9 151.7 87.3 152.8 83.9 155 81.6 157.2 79.3 160.3 78.2 164.2 78.2 165.5 78.2 166.8 78.4 168.1 78.7 169.3 79 170.5 79.6 171.4 80.4 172.4 81.2 173.2 82.3 173.7 83.6 174.3 85 174.6 86.6 174.6 88.7 174.6 89.4 174.6 90.2 174.5 91 174.4 91.8 174.3 92.7 174.1 93.6L158.5 93.6C158.6 95.8 159.2 97.4 160.2 98.5 161.2 99.6 162.9 100.2 165.2 100.2 166.6 100.2 167.9 100 169 99.5 170.1 99.1 171 98.6 171.6 98.2L173.7 102.7ZM164 83.6C162.2 83.6 160.9 84.1 160.1 85.2 159.2 86.3 158.7 87.7 158.6 89.4L168.3 89.4C168.4 87.5 168.2 86.1 167.4 85.1 166.7 84.1 165.5 83.6 164 83.6Z" fill="#00D470"/><path d="M195.2 104.9 195.2 90.1C195.2 88 194.9 86.5 194.3 85.5 193.7 84.6 192.7 84.1 191.2 84.1 189.9 84.1 188.8 84.5 187.9 85.2 187 85.9 186.4 86.9 186 88L186 104.9 179.2 104.9 179.2 78.9 184.6 78.9 185.4 82.3 185.6 82.3C186.4 81.2 187.5 80.2 188.8 79.4 190.1 78.6 191.8 78.2 193.9 78.2 195.2 78.2 196.3 78.4 197.3 78.7 198.3 79 199.2 79.6 199.9 80.4 200.6 81.2 201.1 82.3 201.5 83.7 201.8 85.1 202 86.8 202 88.8L202 105 195.2 104.9 195.2 104.9Z" fill="#00D470"/><path d="M228.8 95.7C228.8 97.2 228.8 98.6 228.9 100.1 228.9 101.6 229.1 103.2 229.4 104.9L224.6 104.9 223.7 101.5 223.5 101.5C222.8 102.7 221.8 103.7 220.5 104.4 219.2 105.1 217.7 105.5 215.9 105.5 212.6 105.5 210.1 104.4 208.3 102.3 206.5 100.1 205.6 96.8 205.6 92.2 205.6 87.8 206.6 84.3 208.6 81.8 210.6 79.3 213.6 78.1 217.5 78.1 218.6 78.1 219.5 78.2 220.2 78.3 220.9 78.4 221.6 78.6 222.3 78.9L222.3 68.5 229.1 68.5 229.1 95.7 228.8 95.7ZM217.3 99.9C218.6 99.9 219.7 99.6 220.4 98.9 221.2 98.3 221.7 97.3 222 96.1L222 85.1C221.5 84.7 221 84.4 220.4 84.2 219.8 84 219 83.9 218.1 83.9 216.2 83.9 214.8 84.5 213.8 85.8 212.8 87.1 212.4 89.3 212.4 92.4 212.4 94.6 212.8 96.4 213.6 97.8 214.3 99.2 215.6 99.9 217.3 99.9Z" fill="#00D470"/><path d="M244.5 97.7C244.5 97 244.2 96.5 243.6 96 243 95.6 242.3 95.2 241.4 94.9 240.5 94.6 239.6 94.2 238.5 93.8 237.5 93.4 236.5 92.9 235.6 92.3 234.7 91.7 234 90.8 233.4 89.9 232.8 88.9 232.5 87.6 232.5 86.1 232.5 83.5 233.3 81.6 234.8 80.2 236.3 78.8 238.5 78.2 241.4 78.2 243.4 78.2 245.2 78.4 246.8 78.8 248.4 79.2 249.6 79.7 250.5 80.2L249 85.1C248.2 84.8 247.2 84.5 246 84.1 244.8 83.8 243.6 83.6 242.3 83.6 240.3 83.6 239.3 84.4 239.3 85.9 239.3 86.5 239.6 87 240.2 87.4 240.8 87.8 241.5 88.1 242.4 88.5 243.3 88.8 244.2 89.2 245.3 89.6 246.4 90 247.3 90.5 248.2 91.1 249.1 91.7 249.8 92.5 250.4 93.5 251 94.5 251.3 95.7 251.3 97.3 251.3 99.9 250.5 102 248.8 103.5 247.1 105 244.6 105.8 241.2 105.8 239.4 105.8 237.6 105.6 236 105.1 234.4 104.6 233.1 104.1 232.1 103.5L234 98.4C234.8 98.9 235.9 99.3 237.2 99.7 238.5 100.1 239.9 100.4 241.3 100.4 242.3 100.4 243.1 100.2 243.7 99.8 244.2 99.3 244.5 98.6 244.5 97.7Z" fill="#00D470"/></g><g><linearGradient x1="482.688" y1="408.475" x2="489.642" y2="434.031" gradientUnits="userSpaceOnUse" id="SVGID_00000097464534294352300090000002121197473653420450_" gradientTransform="matrix(0.3408 0.9401 0.9401 -0.3408 -298.336 -257.771)"><stop offset="0" stop-color="#FFFFFF"/><stop offset="0.00537923" stop-color="#00D470"/><stop offset="0.9999" stop-color="#00C4BC"/></linearGradient><g><g><g><linearGradient x1="252.102" y1="706.701" x2="273.917" y2="786.87" gradientUnits="userSpaceOnUse" id="SVGID_1_" gradientTransform="matrix(1 0 0 1 0 -680.93)"><stop offset="0" stop-color="#FFFFFF"/><stop offset="0.00537923" stop-color="#00D470"/><stop offset="0.9999" stop-color="#00C4BC"/></linearGradient><path d="M267.3 99.9C269.4 99.9 271 99.4 272.1 98.2 273.2 97.1 273.7 95.6 273.7 94.1 273.7 92.2 273.2 90.7 272 89.8 270.8 88.9 269 88.4 266.4 88.4L262.7 88.4 262.7 84.8 268.9 76.3 271.8 74 267.7 74.5 259 74.5 259 68.8 278.7 68.8 278.7 72.5 271.4 82.3 269.1 83.7 269.1 84 271.3 83.7C272.5 83.8 273.7 84.1 274.8 84.5 275.9 85 276.8 85.6 277.6 86.4 278.4 87.2 279.1 88.3 279.5 89.5 280 90.8 280.2 92.1 280.2 93.8 280.2 95.8 279.8 97.5 279.2 99.1 278.6 100.6 277.6 101.8 276.4 102.8 275.2 103.8 273.8 104.5 272.2 105 270.6 105.5 268.9 105.7 267.1 105.7 265.5 105.7 264 105.5 262.4 105.2 260.8 104.9 259.5 104.6 258.5 104L260.3 98.4C261.2 98.9 262.2 99.2 263.3 99.5 264.7 99.8 265.9 99.9 267.3 99.9Z" fill="url(#SVGID_1_)"/></g><g><linearGradient x1="278.019" y1="699.649" x2="299.834" y2="779.818" gradientUnits="userSpaceOnUse" id="SVGID_00000165193750338843010700000000782081856438609299_" gradientTransform="matrix(1 0 0 1 0 -680.93)"><stop offset="0" stop-color="#FFFFFF"/><stop offset="0.00537923" stop-color="#00D470"/><stop offset="0.9999" stop-color="#00C4BC"/></linearGradient><path d="M309.9 93.7C309.9 95.3 309.6 97 309.1 98.4 308.6 99.8 307.7 101.1 306.7 102.1 305.7 103.2 304.4 104 303 104.7 301.5 105.3 299.9 105.6 298.2 105.6 296.4 105.6 294.7 105.3 293.3 104.8 291.8 104.3 290.5 103.3 289.4 102.2 288.3 101.1 287.5 99.6 286.8 97.9 286.2 96.2 285.9 94.2 285.9 91.9 285.9 88.5 286.4 85.4 287.4 82.7 288.4 80 289.7 77.6 291.4 75.5 293 73.5 295.1 71.8 297.2 70.6 299.4 69.3 301.8 68.5 304.2 68.1L305.7 73.4C304 73.7 302.4 74.2 301 75 299.6 75.8 298.3 76.7 297.2 77.8 296.1 78.9 295.1 80.2 294.4 81.5 293.7 82.9 293.1 84.2 292.8 85.7 293.5 84.9 294.4 84.1 295.4 83.5 296.5 82.9 297.9 82.6 299.5 82.6 301.1 82.6 302.5 82.9 303.8 83.3 305.1 83.8 306.3 84.5 307.2 85.4 308.1 86.3 308.8 87.5 309.4 88.9 309.6 90.3 309.9 91.9 309.9 93.7ZM303.4 94.1C303.4 90.3 301.5 88.3 297.7 88.3 296.3 88.3 295.1 88.6 294.2 89.2 293.3 89.8 292.6 90.6 292.2 91.4 292.1 91.8 292.1 92.1 292.1 92.4 292.1 92.7 292.1 92.9 292.1 93.2 292.1 94 292.2 94.8 292.5 95.7 292.8 96.5 293.1 97.3 293.6 97.9 294.1 98.5 294.7 99.1 295.4 99.5 296.1 99.9 297 100.1 298 100.1 299.6 100.1 300.9 99.6 301.9 98.5 302.9 97.2 303.4 95.7 303.4 94.1Z" fill="url(#SVGID_00000165193750338843010700000000782081856438609299_)"/></g><g><linearGradient x1="306.441" y1="691.915" x2="328.255" y2="772.084" gradientUnits="userSpaceOnUse" id="SVGID_00000147898602822805578050000006012322859777545347_" gradientTransform="matrix(1 0 0 1 0 -680.93)"><stop offset="0" stop-color="#FFFFFF"/><stop offset="0.00537923" stop-color="#00D470"/><stop offset="0.9999" stop-color="#00C4BC"/></linearGradient><path d="M314.4 86.8C314.4 80.5 315.5 75.8 317.7 72.6 319.9 69.5 323 67.9 327 67.9 331.4 67.9 334.5 69.5 336.6 72.5 338.6 75.5 339.6 80.3 339.6 86.7 339.6 93.1 338.5 97.8 336.3 100.9 334.1 104 331 105.6 326.9 105.6 322.6 105.6 319.4 104 317.4 100.8 315.4 97.4 314.4 92.8 314.4 86.8ZM321.2 86.8C321.2 91 321.7 94.3 322.6 96.6 323.5 98.9 325 100.1 327.1 100.1 329.1 100.1 330.7 99 331.6 96.9 332.5 94.8 333.1 91.4 333.1 86.9 333.1 82.7 332.6 79.5 331.7 77.2 330.8 74.9 329.2 73.8 327.1 73.8 325 73.8 323.5 74.9 322.6 77 321.6 79 321.2 82.3 321.2 86.8Z" fill="url(#SVGID_00000147898602822805578050000006012322859777545347_)"/></g></g><g><linearGradient x1="305.035" y1="720.705" x2="324.585" y2="792.549" gradientUnits="userSpaceOnUse" id="SVGID_00000008123831054327231890000001047826864543574694_" gradientTransform="matrix(0.9923 0.1236 -0.1236 0.9923 82.3855 -734.676)"><stop offset="0" stop-color="#FFFFFF"/><stop offset="0.00537923" stop-color="#00D470"/><stop offset="0.9999" stop-color="#00C4BC"/></linearGradient><path d="M294.8 137.5C280.8 135.8 267.9 128.7 258.9 117.5 258.1 116.6 258.3 115.2 259.2 114.4 260.1 113.6 261.5 113.8 262.3 114.7 272.8 127.7 289 134.7 305.6 133.3 333.3 131.1 353.9 106.7 351.7 79 350.3 61.3 339.4 45.4 323.3 37.7 320.3 36.3 317.3 35.1 314.2 34.3 313 34 312.3 32.8 312.6 31.6 312.9 30.4 314.1 29.7 315.3 30 318.7 30.8 322.1 32.1 325.2 33.6 342.7 42 354.6 59.2 356.1 78.6 358.5 108.7 336 135.1 306 137.6 302.2 138 298.5 138 294.8 137.5Z" fill="url(#SVGID_00000008123831054327231890000001047826864543574694_)"/></g><g><linearGradient x1="290.008" y1="724.794" x2="309.557" y2="796.638" gradientUnits="userSpaceOnUse" id="SVGID_00000067200209549097433070000000594552786557011890_" gradientTransform="matrix(0.9923 0.1236 -0.1236 0.9923 82.3855 -734.676)"><stop offset="0" stop-color="#FFFFFF"/><stop offset="0.00537923" stop-color="#00D470"/><stop offset="0.9999" stop-color="#00C4BC"/></linearGradient><path d="M261.9 50.5C261.5 50.4 261.1 50.2 260.7 49.9 259.8 49.1 259.7 47.7 260.5 46.8 265.1 41.6 270.5 37.4 276.7 34.2 283 30.9 290 29 297.1 28.4 299.6 28.2 302.1 28.2 304.5 28.3 305.7 28.4 306.7 29.4 306.6 30.6 306.5 31.8 305.5 32.8 304.3 32.7 302 32.6 299.8 32.6 297.4 32.8 290.8 33.3 284.5 35.2 278.6 38.1 273 41 267.9 44.9 263.7 49.7 263.4 50.4 262.7 50.6 261.9 50.5Z" fill="url(#SVGID_00000067200209549097433070000000594552786557011890_)"/></g></g><path d="M255.8 53.7C256.5 52.7 257.9 52.5 258.8 53.2 259.2 53.5 259.5 53.8 259.6 54.2 259.9 54.9 259.8 55.6 259.4 56.2L258 58.6C257.7 59.2 257 59.6 256.3 59.7 255.9 59.7 255.5 59.6 255 59.4 254 58.8 253.6 57.5 254.1 56.4L255.8 53.7Z" fill="url(#SVGID_00000097464534294352300090000002121197473653420450_)"/></g></svg>