<svg viewBox="0 0 626.91 98.08" xmlns="http://www.w3.org/2000/svg" xmlns:xlink="http://www.w3.org/1999/xlink" id="Layer_1" overflow="hidden"><defs/><g><path d="M0 96.85 0 11.25 37.91 11.25C43.21 11.25 48.02 12.45 52.34 14.86 56.66 17.27 60.06 20.51 62.55 24.58 65.04 28.66 66.28 33.3 66.28 38.52 66.28 43.74 65.04 48.32 62.55 52.52 60.06 56.72 56.66 60.04 52.34 62.49 48.02 64.94 43.21 66.16 37.91 66.16L17.73 66.16 17.73 96.86 0 96.86ZM17.73 51.23 37.05 51.23C39.25 51.23 41.19 50.72 42.86 49.7 44.53 48.68 45.81 47.25 46.71 45.42 47.61 43.59 48.06 41.53 48.06 39.24 48.06 36.79 47.53 34.68 46.47 32.88 45.41 31.09 43.86 29.68 41.82 28.66 39.78 27.64 37.42 27.13 34.73 27.13L17.73 27.13 17.73 51.22ZM48.55 96.85 26.78 58.21 45.61 55.15 69.82 96.97 48.54 96.85Z" stroke-width="0"/><path d="M101.62 98.08C96.24 98.08 91.39 96.61 87.07 93.68 82.75 90.75 79.32 86.75 76.8 81.7 74.27 76.65 73.01 70.86 73.01 64.33 73.01 57.8 74.29 52.04 76.86 47.03 79.43 42.02 82.91 38.06 87.32 35.17 91.72 32.28 96.74 30.83 102.36 30.83 105.54 30.83 108.45 31.3 111.1 32.24 113.75 33.18 116.07 34.46 118.07 36.09 120.07 37.72 121.76 39.6 123.15 41.72 124.53 43.84 125.51 46.12 126.08 48.57L122.41 47.96 122.41 32.18 139.65 32.18 139.65 96.87 122.16 96.87 122.16 81.34 126.07 80.97C125.42 83.25 124.36 85.41 122.89 87.45 121.42 89.49 119.61 91.3 117.45 92.89 115.29 94.48 112.86 95.74 110.17 96.68 107.48 97.62 104.63 98.09 101.61 98.09ZM106.39 83.04C109.65 83.04 112.5 82.27 114.95 80.72 117.4 79.17 119.29 76.99 120.64 74.18 121.98 71.37 122.66 68.09 122.66 64.34 122.66 60.59 121.99 57.45 120.64 54.68 119.29 51.91 117.4 49.73 114.95 48.14 112.5 46.55 109.65 45.76 106.39 45.76 103.13 45.76 100.42 46.55 98.01 48.14 95.6 49.73 93.71 51.91 92.32 54.68 90.93 57.45 90.24 60.67 90.24 64.34 90.24 68.01 90.93 71.37 92.32 74.18 93.7 76.99 95.6 79.18 98.01 80.72 100.41 82.27 103.21 83.04 106.39 83.04Z" stroke-width="0"/><path d="M179.03 98.08C173.41 98.08 168.35 96.63 163.87 93.74 159.39 90.85 155.86 86.89 153.29 81.88 150.72 76.87 149.44 71.06 149.44 64.45 149.44 57.84 150.72 52.26 153.29 47.21 155.86 42.16 159.36 38.16 163.81 35.23 168.25 32.29 173.33 30.83 179.04 30.83 182.06 30.83 184.97 31.3 187.78 32.24 190.59 33.18 193.12 34.46 195.36 36.09 197.6 37.72 199.41 39.54 200.8 41.53 202.19 43.53 202.96 45.63 203.12 47.83L198.72 48.56 198.72 6.36 216.09 6.36 216.09 96.86 199.7 96.86 198.97 81.94 202.39 82.31C202.23 84.35 201.49 86.31 200.19 88.18 198.89 90.06 197.15 91.75 194.99 93.26 192.83 94.77 190.38 95.95 187.65 96.81 184.92 97.67 182.04 98.09 179.03 98.09ZM182.94 83.65C186.2 83.65 189.06 82.84 191.5 81.2 193.95 79.57 195.86 77.33 197.25 74.47 198.63 71.62 199.33 68.27 199.33 64.44 199.33 60.61 198.64 57.37 197.25 54.47 195.86 51.58 193.95 49.33 191.5 47.74 189.05 46.15 186.2 45.36 182.94 45.36 179.68 45.36 176.84 46.15 174.44 47.74 172.03 49.33 170.16 51.57 168.82 54.47 167.47 57.36 166.8 60.69 166.8 64.44 166.8 68.19 167.47 71.61 168.82 74.47 170.16 77.32 172.04 79.57 174.44 81.2 176.84 82.83 179.68 83.65 182.94 83.65Z" stroke-width="0"/><path d="M239.69 18.83C236.35 18.83 233.74 18.02 231.86 16.38 229.98 14.75 229.05 12.43 229.05 9.41 229.05 6.64 230.01 4.38 231.92 2.62 233.83 0.87 236.42-0.01 239.69-0.01 242.96-0.01 245.64 0.83 247.52 2.5 249.4 4.17 250.33 6.47 250.33 9.41 250.33 12.35 249.37 14.55 247.46 16.26 245.54 17.97 242.95 18.83 239.69 18.83ZM231.13 96.85 231.13 32.16 248.5 32.16 248.5 96.85 231.13 96.85Z" stroke-width="0"/><path d="M288 98.08C282.62 98.08 277.77 96.61 273.45 93.68 269.13 90.75 265.7 86.75 263.18 81.7 260.65 76.65 259.39 70.86 259.39 64.33 259.39 57.8 260.67 52.04 263.24 47.03 265.81 42.02 269.29 38.06 273.7 35.17 278.1 32.28 283.12 30.83 288.74 30.83 291.92 30.83 294.83 31.3 297.48 32.24 300.13 33.18 302.45 34.46 304.45 36.09 306.45 37.72 308.14 39.6 309.53 41.72 310.91 43.84 311.89 46.12 312.46 48.57L308.79 47.96 308.79 32.18 326.03 32.18 326.03 96.87 308.54 96.87 308.54 81.34 312.45 80.97C311.8 83.25 310.74 85.41 309.27 87.45 307.8 89.49 305.99 91.3 303.83 92.89 301.67 94.48 299.24 95.74 296.55 96.68 293.86 97.62 291.01 98.09 287.99 98.09ZM292.77 83.04C296.03 83.04 298.88 82.27 301.33 80.72 303.78 79.17 305.67 76.99 307.02 74.18 308.36 71.37 309.04 68.09 309.04 64.34 309.04 60.59 308.37 57.45 307.02 54.68 305.67 51.91 303.78 49.73 301.33 48.14 298.88 46.55 296.03 45.76 292.77 45.76 289.51 45.76 286.8 46.55 284.39 48.14 281.98 49.73 280.09 51.91 278.7 54.68 277.31 57.45 276.62 60.67 276.62 64.34 276.62 68.01 277.31 71.37 278.7 74.18 280.08 76.99 281.98 79.18 284.39 80.72 286.79 82.27 289.59 83.04 292.77 83.04Z" stroke-width="0"/><path d="M340.21 96.85 340.21 6.36 357.58 6.36 357.58 96.86 340.21 96.86Z" stroke-width="0"/></g><g><path d="M364.35 96.85 364.35 11.25 382.69 11.25 382.69 96.85 364.35 96.85ZM372.79 27.76 372.79 11.25 422.2 11.25 422.2 27.76 372.79 27.76ZM372.79 62.86 372.79 47.08 417.06 47.08 417.06 62.86 372.79 62.86Z" stroke-width="0" fill="#199BF1"/><path d="M434.06 96.85 434.06 6.36 451.43 6.36 451.43 96.86 434.06 96.86Z" stroke-width="0" fill="#199BF1"/><path d="M494.96 98.08C488.36 98.08 482.46 96.63 477.29 93.74 472.11 90.85 468.04 86.87 465.06 81.82 462.08 76.77 460.6 70.98 460.6 64.45 460.6 57.92 462.09 52.16 465.06 47.15 468.03 42.14 472.11 38.16 477.29 35.23 482.47 32.29 488.36 30.83 494.96 30.83 501.56 30.83 507.33 32.3 512.51 35.23 517.69 38.16 521.74 42.14 524.68 47.15 527.61 52.16 529.08 57.93 529.08 64.45 529.08 70.97 527.61 76.76 524.68 81.82 521.74 86.88 517.69 90.85 512.51 93.74 507.33 96.63 501.48 98.08 494.96 98.08ZM494.96 82.92C498.14 82.92 500.99 82.13 503.52 80.54 506.05 78.95 508.02 76.75 509.45 73.94 510.88 71.13 511.59 67.97 511.59 64.46 511.59 60.95 510.88 57.67 509.45 54.86 508.02 52.05 506.04 49.85 503.52 48.26 500.99 46.67 498.14 45.88 494.96 45.88 491.78 45.88 488.8 46.7 486.28 48.33 483.75 49.96 481.75 52.16 480.29 54.93 478.82 57.7 478.13 60.88 478.21 64.47 478.13 67.98 478.82 71.14 480.29 73.95 481.76 76.76 483.75 78.96 486.28 80.55 488.81 82.14 491.7 82.93 494.96 82.93Z" stroke-width="0" fill="#199BF1"/><path d="M551.58 96.85 529.93 32.16 548.03 32.16 561.24 76.19 558.55 75.82 573.1 41.46 583.37 41.46 598.53 75.95 595.6 76.2 608.81 32.17 626.91 32.17 604.9 96.86 592.3 96.86 577.01 60.05 578.97 60.29 564.05 96.86 551.58 96.86Z" stroke-width="0" fill="#199BF1"/></g></svg>