<?xml version="1.0" encoding="UTF-8"?>
<svg xmlns="http://www.w3.org/2000/svg" version="1.1" viewBox="0 0 665 800.4">
  <!-- Generator: Adobe Illustrator 29.3.1, SVG Export Plug-In . SVG Version: 2.1.0 Build 151)  -->
  <defs>
    <style>
      .st0 {
        fill: #f05e80;
      }

      .st1 {
        fill: #ebebea;
      }

      .st2 {
        fill: #dfe788;
      }

      .st3 {
        font-size: 35px;
      }

      .st3, .st4 {
        fill: #fff;
      }

      .st3, .st5 {
        font-family: Montserrat-Bold, Montserrat;
        font-weight: 700;
      }

      .st6 {
        fill: #fec972;
      }

      .st7 {
        fill: #7fbb42;
      }

      .st8 {
        fill: #18456f;
      }

      .st9 {
        fill: #ee204c;
      }

      .st10 {
        fill: #405e2c;
      }

      .st11 {
        isolation: isolate;
      }

      .st12 {
        fill: #61b4dc;
      }

      .st13 {
        fill: none;
        stroke: #fff;
        stroke-miterlimit: 10;
        stroke-width: 4px;
      }

      .st14 {
        fill: #e3e3e3;
      }

      .st15 {
        fill: #e6e5e5;
      }

      .st16 {
        fill: #f5f5f5;
      }

      .st17 {
        opacity: 0;
      }

      .st5 {
        fill: #ffd956;
        font-size: 21.2px;
      }

      .st18 {
        fill: #b9d768;
      }

      .st19 {
        fill: #5879bc;
      }

      .st20 {
        fill: #f89950;
      }
    </style>
  </defs>
  <g id="Layer_1">
    <polyline class="st13" points="529 -2284.1 2052.4 -3161.9 5211.1 -1338.2 5211.1 -1303.8 5750.6 -990.9 5210 -675.9 5211.1 -570.3 4379.9 -90.4 4213.7 -186.4 5044.9 -666.3 5044.9 -1242.2 4701.5 -1441.4 1991.1 125 1490.9 -161.5 3157.2 -1123.5 2547.9 -1475.6"/>
  </g>
  <g id="Layer_2">
    <g>
      <g>
        <path class="st8" d="M494.6,55l-12.7-7.3c-6.6-3.7-15-4.1-22.5.2l-168.7,96.9c-16.2,9.4-26.2,26.7-26.2,45.4v27.6c0,8.9,4.9,16.2,11.8,20h0s12,7,12,7L494.6,55Z"/>
        <path class="st19" d="M471.5,54.8l-168.7,96.9c-16.2,9.4-26.2,26.7-26.2,45.4v27.6c0,17.6,19,28.6,34.3,19.8l168.7-96.9c16.2-9.4,26.2-26.7,26.2-45.4v-27.6c0-17.6-19-28.6-34.3-19.8Z"/>
      </g>
      <g>
        <g>
          <path class="st10" d="M337.9,131.1l-13.2-7.6s0,0,0,0h0s0,0,0,0c-1-.5-2.4-.3-3.8.9h0c-10.6,8.9-21.6,12.2-30.5,9.3l-5.5-1.8c-1.6-.5-3.6.7-5.2,3l-5.5,8.2c-8.9,13.3-19.9,22.6-30.5,26h0c-2.8.9-5.5,5.3-5.5,9.2v24.1c0,24.7,8.1,43,21.7,50.8h0s13,7.5,13,7.5l65.1-129.5Z"/>
          <path class="st7" d="M303.6,141.3l-5.5-1.8c-1.6-.5-3.6.7-5.2,3l-5.5,8.2c-8.9,13.3-19.9,22.6-30.5,26h0c-2.8.9-5.5,5.3-5.5,9.2v24.1c0,33.1,14.6,54.7,37.4,55h0c4.3,0,9.2-2.8,13.5-7.8h0c22.7-26.6,37.4-65,37.4-98.2v-24.1c0-3.9-2.6-5.2-5.5-2.8h0c-10.6,8.9-21.6,12.2-30.5,9.3Z"/>
          <path class="st4" d="M295.5,152.6l3.2,1.1c8.2,2.7,17.7,1.1,27.6-4.6,1.5-.9,3.1-1.9,4.6-2.9v17.8c0,28.5-12.6,61.8-32.2,84.6-1,1.2-2.1,2.1-3.2,2.8-1.1.6-2.2,1-3.2.9-19.6-.3-32.2-18.9-32.2-47.5v-17.8c1.5-.7,3.1-1.5,4.6-2.4,9.9-5.7,19.5-15.2,27.6-27.3l3.2-4.8M295.5,139.9c-.9.5-1.8,1.4-2.6,2.6l-5.5,8.2c-6.8,10-14.7,17.8-22.7,22.5-2.6,1.5-5.2,2.7-7.8,3.5h0c-.3,0-.6.2-.9.4-2.5,1.4-4.6,5.3-4.6,8.8v24.1c0,33.1,14.6,54.7,37.4,55h0c2.1,0,4.4-.7,6.7-2,2.3-1.3,4.6-3.3,6.7-5.8h0c22.7-26.6,37.4-65,37.4-98.2v-24.1c0-3.4-2.1-4.9-4.6-3.5-.3.2-.6.4-.9.6h0c-2.6,2.2-5.2,4-7.8,5.5-8.1,4.7-16,6-22.7,3.8l-5.5-1.8c-.8-.3-1.7,0-2.6.4h0Z"/>
        </g>
        <path class="st4" d="M294.6,224.1c-2.3,4.4-6,6.6-8.4,4.8l-14.2-10.8c-2.3-1.8-2.3-6.8,0-11.2,2.3-4.4,6.1-6.6,8.4-4.8l10,7.6,20.2-38.6c2.3-4.4,6.1-6.9,8.4-5.3,2.4,1.7,2.5,6.8.1,11.3l-24.6,47Z"/>
      </g>
      <text class="st3" transform="translate(346.3 177.7) rotate(-30) scale(.9) skewX(-30)"><tspan x="0" y="0">SECURED</tspan></text>
      <text class="st5" transform="translate(342.7 205.8) rotate(-30) scale(.9) skewX(-30)"><tspan x="0" y="0">Cybersecurity</tspan></text>
    </g>
    <g>
      <g>
        <g class="st11">
          <g class="st17">
            <path d="M602.1,711.3c6.6,3.8,6.6,10,0,13.8l-49.7,28.9c-6.5,3.8-17.2,3.8-23.8,0L94.4,505.6c-6.6-3.8-6.6-10,0-13.8l49.7-28.9c6.5-3.8,17.2-3.8,23.8,0l434.3,248.3Z"/>
          </g>
          <path class="st16" d="M78.3,492.3v-49.5c.1,2.4,1.7,4.9,4.9,6.7v49.5c-3.3-1.8-4.9-4.3-4.9-6.7Z"/>
          <path class="st14" d="M578.8,655v49.5c-.1,2.4-1.7,4.8-4.8,6.6v-49.5c3.3-1.8,4.8-4.2,4.8-6.6Z"/>
          <polygon class="st14" points="574.1 661.7 574 711.2 525.9 739.1 526.1 689.6 574.1 661.7"/>
          <polygon class="st16" points="503.1 689.6 503 739.1 83.1 499 83.2 449.5 503.1 689.6"/>
          <path class="st14" d="M526.1,689.6v49.5c-6.4,3.7-16.8,3.7-23.1,0v-49.5c6.5,3.7,16.8,3.7,23.1,0Z"/>
          <path class="st4" d="M574.1,648.3c6.3,3.7,6.4,9.6,0,13.3l-48.1,27.9c-6.3,3.7-16.6,3.7-23,0L83.2,449.5c-6.3-3.7-6.4-9.6,0-13.3l48.1-27.9c6.3-3.7,16.6-3.7,23,0l419.9,240.1Z"/>
        </g>
        <g>
          <g class="st11">
            <path class="st15" d="M166.3,317.2l48.5-28.2c36.6-21.3,87.3-18.3,143.2,14l-48.5,28.2c-55.9-32.3-106.6-35.3-143.2-14Z"/>
            <path class="st15" d="M309.5,331.3l48.5-28.2c111.1,64.2,200.9,219.7,200.6,347.4l-48.5,28.2c.4-127.7-89.4-283.2-200.6-347.4Z"/>
          </g>
          <g>
            <path class="st4" d="M471.2,650.2c-.6-26.7-6-54.8-15.2-82.6l12.7-.7c10.1,30.3,16.1,61,16.9,90.2l-14.5-6.9h0ZM146.5,462.3l-14.5-9.8c1-28.3,7.3-52,17.7-70.5l12.7,15.4c-9.5,17.1-15.1,39-15.9,65h0ZM331.8,527.6l7.5,10.2c10.5,16.1,17.2,35.2,17.2,52.2l-95.3-55c0-30.2,21.5-42.4,47.8-27.2,8.3,4.8,16,11.7,22.8,19.9h0ZM451.6,555.1c-12.5-33.5-30.3-66.3-51.8-95.4l7.5-10c23.7,31.9,43.4,67.9,57.1,104.7l-12.7.7h0ZM166.9,390l-12.7-15.3c14.1-20.9,34.1-34.1,58.2-38.3l7.4,18.6c-21.9,4-40.1,16-52.9,35h0ZM228.1,353.9l-7.4-18.6c24.8-2.2,53.4,4.5,83.9,21.1v16.7c-27.8-15.1-53.9-21.2-76.5-19.2h0ZM391.6,449c-22.8-28.6-49.2-53.1-77.4-70.3v-16.7c31,18.8,59.9,45.6,84.9,77l-7.5,10h0ZM309.5,331.3c-111.1-64.2-201.5-12.6-201.9,115.1l402.4,232.4c.4-127.7-89.4-283.2-200.6-347.4h0Z"/>
            <path class="st18" d="M149.7,382c-10.4,18.6-16.7,42.3-17.7,70.5l14.5,9.8c.8-26,6.5-47.9,15.9-65l-12.7-15.4h0Z"/>
            <path class="st2" d="M212.4,336.4c-24.1,4.2-44.1,17.4-58.2,38.3l12.7,15.3c12.8-19.1,31-31.1,52.9-35l-7.4-18.6h0Z"/>
            <path class="st6" d="M304.6,356.4c-30.5-16.6-59.1-23.3-83.9-21.1l7.4,18.6c22.6-2,48.7,4.1,76.4,19.2v-16.7h0Z"/>
            <path class="st20" d="M314.3,362v16.7c28.2,17.2,54.5,41.7,77.3,70.3l7.5-10c-25-31.4-53.9-58.2-84.8-77h0Z"/>
            <path class="st0" d="M407.3,449.7l-7.5,10c21.5,29.1,39.4,61.9,51.8,95.4l12.7-.7c-13.7-36.8-33.3-72.8-57.1-104.7h0Z"/>
            <path class="st9" d="M468.8,566.9l-12.7.7c9.2,27.8,14.6,55.9,15.2,82.6l14.5,6.9c-.8-29.2-6.8-59.8-16.9-90.2h0Z"/>
            <path class="st1" d="M324.4,558.6c2.2,4.9,3.6,10.1,3.6,14.9l-10.3-6-12.7-7.3-15.2-8.8c0-12.1,8.6-17,19.2-10.9,2.4,1.4,4.8,3.3,6.9,5.5"/>
            <path class="st1" d="M331.8,527.6c-6.8-8.2-14.5-15.1-22.8-19.9h0c-26.3-15.2-47.7-3-47.8,27.2l95.3,55c0-17-6.6-36.1-17.2-52.2l-7.5-10.2Z"/>
            <path class="st12" d="M308.9,540.6c-10.5-6.1-19.1-1.2-19.2,10.9l15.2,8.8,12.7,7.3,10.3,6c0-4.8-1.3-10-3.6-14.9-2.1-4.7-5.1-9-8.6-12.6-2.1-2.2-4.5-4.1-6.9-5.5h0Z"/>
          </g>
        </g>
      </g>
      <path class="st12" d="M299.4,544.6l-116.3-116.4c-.8-1-2.2-1.1-3.2-.4l-1.8,1.4c-1,.8-1.1,2.2-.3,3.2l117.6,115.8c1,1.2,2.8,1.1,3.7-.2l.6-.9c.6-.8.5-1.9-.1-2.7Z"/>
    </g>
  </g>
</svg>