<?xml version="1.0" encoding="UTF-8"?>
<svg xmlns="http://www.w3.org/2000/svg" version="1.1" xmlns:xlink="http://www.w3.org/1999/xlink" viewBox="0 0 665 800.4">
  <!-- Generator: Adobe Illustrator 29.3.1, SVG Export Plug-In . SVG Version: 2.1.0 Build 151)  -->
  <defs>
    <style>
      .st0 {
        fill: #f05e80;
      }

      .st1 {
        fill: #ebebea;
      }

      .st2 {
        fill: #ffd956;
        font-size: 19.7px;
      }

      .st2, .st3 {
        font-family: Montserrat-Bold, Montserrat;
        font-weight: 700;
      }

      .st3 {
        font-size: 39.9px;
      }

      .st3, .st4, .st5 {
        fill: #fff;
      }

      .st6 {
        fill: #dfe788;
      }

      .st7 {
        fill: #fec972;
      }

      .st5 {
        opacity: .5;
      }

      .st8 {
        fill: #6d1129;
      }

      .st9 {
        fill: #ee204c;
      }

      .st10 {
        isolation: isolate;
      }

      .st11 {
        fill: none;
        stroke: #fff;
        stroke-miterlimit: 10;
        stroke-width: 4px;
      }

      .st12 {
        fill: #4f697c;
      }

      .st13 {
        fill: #c61f4a;
      }

      .st14 {
        mix-blend-mode: screen;
      }

      .st15 {
        opacity: 0;
      }

      .st16 {
        fill: #b9d768;
      }

      .st17 {
        fill: #374b57;
      }

      .st18 {
        fill: #f89950;
      }
    </style>
  </defs>
  <g class="st10">
    <g id="Layer_1">
      <polyline class="st11" points="-168.3 -2296.5 1355.1 -3174.3 4513.8 -1350.6 4513.7 -1316.2 5053.3 -1003.3 4512.7 -688.3 4513.8 -582.7 3682.6 -102.8 3516.3 -198.8 4347.5 -678.7 4347.5 -1254.6 4004.1 -1453.7 1293.7 112.6 793.5 -173.9 2459.8 -1135.9 1850.5 -1487.9"/>
    </g>
    <g id="Layer_2">
      <g>
        <g>
          <g class="st10">
            <g class="st15">
              <path d="M561.1,667.7c6.1,3.5,6.1,9.3,0,12.8l-46.3,26.9c-6.1,3.5-16,3.5-22.1,0L88.6,476.3c-6.1-3.5-6.1-9.3,0-12.8l46.3-26.9c6.1-3.5,16-3.5,22.1,0l404.2,231.1Z"/>
            </g>
            <path class="st13" d="M73.6,463.9v-46.1c.1,2.3,1.6,4.5,4.6,6.2v46.1c-3.1-1.7-4.6-4-4.6-6.2Z"/>
            <path class="st8" d="M539.4,615.3v46.1c-.1,2.2-1.6,4.5-4.5,6.2v-46.1c3-1.7,4.5-3.9,4.5-6.2Z"/>
            <polygon class="st8" points="535 621.5 534.9 667.6 490.2 693.6 490.3 647.5 535 621.5"/>
            <polygon class="st9" points="468.9 647.5 468.8 693.6 78.1 470.1 78.2 424.1 468.9 647.5"/>
            <path class="st8" d="M490.3,647.5v46.1c-6,3.4-15.6,3.4-21.5,0v-46.1c6,3.4,15.6,3.4,21.5,0Z"/>
            <path class="st4" d="M535,609.1c5.9,3.4,5.9,9,0,12.4l-44.7,26c-5.9,3.4-15.5,3.4-21.4,0L78.2,424.1c-5.9-3.4-5.9-9,0-12.4l44.7-26c5.9-3.4,15.5-3.4,21.4,0l390.7,223.4Z"/>
          </g>
          <g>
            <g class="st10">
              <path class="st9" d="M155.5,301l45.1-26.2c34-19.8,81.2-17,133.2,13l-45.1,26.2c-52-30-99.2-32.8-133.2-13Z"/>
              <path class="st9" d="M288.7,314l45.1-26.2c103.4,59.7,187,204.5,186.7,323.3l-45.1,26.2c.3-118.8-83.2-263.6-186.7-323.3Z"/>
            </g>
            <g>
              <path class="st4" d="M439.3,610.9c-.6-24.9-5.6-51-14.2-76.9l11.9-.6c9.4,28.2,15,56.7,15.8,83.9l-13.5-6.4h0ZM137,436l-13.4-9.1c1-26.3,6.8-48.4,16.5-65.6l11.8,14.3c-8.8,15.9-14,36.3-14.8,60.5h0ZM309.5,496.8l7,9.5c9.8,15,16,32.8,16,48.6l-88.7-51.2c0-28.1,20-39.5,44.5-25.3,7.7,4.4,14.9,10.9,21.2,18.5h0ZM421,522.3c-11.6-31.2-28.2-61.7-48.2-88.8l7-9.3c22.1,29.7,40.3,63.2,53.1,97.5l-11.8.6h0ZM156,368.7l-11.8-14.3c13.1-19.5,31.7-31.7,54.1-35.6l6.9,17.3c-20.4,3.7-37.3,14.9-49.2,32.6h0ZM213,335.1l-6.9-17.3c23.1-2.1,49.7,4.2,78.1,19.7v15.5c-25.9-14.1-50.1-19.7-71.2-17.9h0ZM365.1,423.6c-21.2-26.6-45.8-49.4-72-65.5v-15.5c28.8,17.5,55.7,42.5,79,71.7l-7,9.3h0ZM288.7,314c-103.4-59.7-187.5-11.8-187.9,107.1l374.5,216.2c.3-118.8-83.2-263.6-186.7-323.3h0Z"/>
              <path class="st16" d="M140,361.2c-9.7,17.3-15.5,39.3-16.5,65.6l13.4,9.1c.8-24.2,6-44.5,14.8-60.5l-11.8-14.3h0Z"/>
              <path class="st6" d="M198.4,318.8c-22.4,3.9-41.1,16.2-54.1,35.6l11.8,14.3c11.9-17.7,28.9-28.9,49.2-32.6l-6.9-17.3h0Z"/>
              <path class="st7" d="M284.1,337.4c-28.4-15.5-55-21.7-78.1-19.7l6.9,17.3c21.1-1.8,45.3,3.8,71.1,17.9v-15.5h0Z"/>
              <path class="st18" d="M293.2,342.6v15.5c26.2,16,50.8,38.8,72,65.5l7-9.3c-23.2-29.2-50.2-54.1-78.9-71.7h0Z"/>
              <path class="st0" d="M379.8,424.3l-7,9.3c20,27.1,36.6,57.6,48.2,88.8l11.8-.6c-12.8-34.3-31-67.8-53.1-97.5h0Z"/>
              <path class="st9" d="M437,533.4l-11.9.6c8.5,25.9,13.6,52,14.2,76.9l13.5,6.4c-.8-27.2-6.3-55.7-15.8-83.9h0Z"/>
              <path class="st1" d="M302.6,525.6c2.1,4.6,3.3,9.4,3.3,13.8l-9.6-5.6-11.8-6.8-14.1-8.1c0-11.3,8-15.8,17.8-10.2,2.3,1.3,4.4,3.1,6.4,5.1"/>
              <path class="st1" d="M309.5,496.8c-6.3-7.6-13.5-14-21.2-18.5h0c-24.5-14.1-44.4-2.8-44.5,25.3l88.7,51.2c0-15.8-6.2-33.6-16-48.6l-7-9.5Z"/>
              <path class="st9" d="M288.2,508.8c-9.8-5.7-17.8-1.1-17.8,10.2l14.1,8.1,11.8,6.8,9.6,5.6c0-4.4-1.2-9.3-3.3-13.8-2-4.3-4.7-8.4-8-11.7-2-2-4.2-3.8-6.4-5.1h0Z"/>
            </g>
          </g>
        </g>
        <path class="st9" d="M299.1,524.5l115.1,15.5c1.1.3,2.3-.5,2.5-1.6l.5-2.1c.3-1.2-.5-2.3-1.6-2.5l-115.7-14.4c-1.4-.3-2.7.8-2.6,2.3v1c.2.9.8,1.7,1.7,1.9Z"/>
      </g>
      <g>
        <g>
          <path class="st8" d="M457.2,123l-11.8-6.8c-6.2-3.4-14-3.8-20.9.2l-157,90.1c-15.1,8.7-24.4,24.8-24.4,42.2v25.7c0,8.3,4.6,15,10.9,18.6h0s11.2,6.5,11.2,6.5l191.9-176.5Z"/>
          <path class="st9" d="M435.7,122.9l-157,90.1c-15.1,8.7-24.4,24.8-24.4,42.2v25.7c0,16.4,17.7,26.6,31.9,18.4l157-90.1c15.1-8.7,24.4-24.8,24.4-42.2v-25.7c0-16.4-17.7-26.6-31.9-18.4Z"/>
        </g>
        <text class="st3" transform="translate(321.4 239.9) rotate(-30) scale(.9) skewX(-30)"><tspan x="0" y="0">AT RISK</tspan></text>
        <text class="st2" transform="translate(328.2 260.7) rotate(-30) scale(.9) skewX(-30)"><tspan x="0" y="0">for Cyberattack</tspan></text>
      </g>
      <g>
        <rect class="st17" x="236.2" y="267.6" width="78.5" height="11.9"/>
        <path class="st17" d="M303.3,263.6c15.3,8.9,15.3,23.2,0,32.1-15.3,8.9-40.2,8.9-55.5,0-15.3-8.9-15.3-23.2,0-32.1,15.3-8.9,40.2-8.9,55.5,0Z"/>
        <path class="st12" d="M303.3,251.6c15.3,8.9,15.3,23.2,0,32.1-15.3,8.9-40.2,8.9-55.5,0-15.3-8.9-15.3-23.2,0-32.1,15.3-8.9,40.2-8.9,55.5,0Z"/>
        <path class="st9" d="M307.4,264.9v-26.7c0-17.4-14.1-31.6-31.6-31.6h-.6c-17.4,0-31.6,14.1-31.6,31.6v26.7h0c0,4.7,3.1,9.4,9.3,13,12.4,7.2,32.6,7.2,45.1,0,6.2-3.6,9.3-8.3,9.3-13Z"/>
        <path class="st5" d="M256.8,243.7c0-14.1,7.4-26.3,18.4-33.1-15.2,0-27.6,12.4-27.6,27.6v26.7c0,3.4,2.6,6.9,7.4,9.6.6.3,1.2.7,1.8,1v-31.7Z"/>
        <g class="st14">
          <image width="623" height="622" transform="translate(201.2 169.9) scale(.2)" xlink:href="Cybersecurity_ChallengesCyberSecur-1.png"/>
        </g>
      </g>
    </g>
  </g>
</svg>