<?xml version="1.0" encoding="UTF-8"?>
<svg xmlns="http://www.w3.org/2000/svg" version="1.1" xmlns:xlink="http://www.w3.org/1999/xlink" viewBox="0 0 636.6 820.9">
  <!-- Generator: Adobe Illustrator 29.3.1, SVG Export Plug-In . SVG Version: 2.1.0 Build 151)  -->
  <defs>
    <style>
      .st0 {
        fill: #42476a;
      }

      .st1 {
        fill: #feefb9;
      }

      .st2 {
        fill: #575e8d;
      }

      .st3 {
        fill: #20669b;
      }

      .st4 {
        fill: #f4f6fb;
      }

      .st5 {
        fill: #1e5f8a;
      }

      .st6 {
        fill: #074266;
      }

      .st7, .st8, .st9, .st10, .st11, .st12, .st13, .st14, .st15, .st16, .st17, .st18 {
        fill-rule: evenodd;
      }

      .st7, .st19 {
        fill: #234266;
      }

      .st20 {
        fill: #bdc0da;
      }

      .st21 {
        fill: #f6eb16;
      }

      .st8 {
        fill: #25120f;
      }

      .st22 {
        fill: #fff;
      }

      .st9 {
        opacity: .4;
      }

      .st9, .st23 {
        fill: #818181;
        mix-blend-mode: multiply;
      }

      .st10 {
        fill: #e4bc33;
      }

      .st24 {
        fill: #3f92cf;
      }

      .st25 {
        fill: #fce9a5;
      }

      .st26 {
        fill: #6d75b0;
      }

      .st11 {
        fill: #462c1a;
      }

      .st27 {
        fill: #243b58;
      }

      .st28 {
        fill: #e4e5ef;
      }

      .st29, .st30, .st14 {
        fill: #fdd23c;
      }

      .st30, .st31, .st19 {
        clip-rule: evenodd;
      }

      .st32 {
        fill: #fee282;
      }

      .st33 {
        clip-path: url(#clippath-1);
      }

      .st34 {
        fill: #888;
      }

      .st31, .st17 {
        fill: #fed2a5;
      }

      .st35 {
        isolation: isolate;
      }

      .st12, .st36 {
        fill: #f2ba87;
      }

      .st37 {
        fill: #22557b;
      }

      .st38 {
        fill: #e2e3ee;
      }

      .st39 {
        fill: #1c4f6f;
      }

      .st40 {
        fill: #1b6093;
      }

      .st41 {
        fill: #09528a;
      }

      .st42 {
        clip-path: url(#clippath-3);
      }

      .st43 {
        fill: #878ebe;
      }

      .st13 {
        fill: #26120e;
      }

      .st44 {
        fill: #949ac5;
      }

      .st45 {
        fill: #4e527b;
      }

      .st15 {
        fill: #243b7b;
      }

      .st16 {
        fill: #010101;
      }

      .st46 {
        fill: #c5c8de;
      }

      .st47 {
        fill: #afb4d3;
      }

      .st18 {
        fill: #10233e;
      }

      .st48 {
        fill: #8dc1e3;
      }

      .st49 {
        opacity: 0;
      }

      .st50 {
        clip-path: url(#clippath-2);
      }

      .st51 {
        fill: #a3a7cc;
      }

      .st23 {
        opacity: .3;
      }

      .st52 {
        fill: #225573;
      }

      .st53 {
        fill: #dcdbdb;
      }

      .st54 {
        fill: #cbcce2;
      }

      .st55 {
        clip-path: url(#clippath);
      }
    </style>
    <clipPath id="clippath">
      <path class="st19" d="M561.1,535.3c-.9,42.4-1.4,84.8,5,126.3,0,0,0,58.3,0,58.3,8.9,16.2,16.8,16.2,24.2,10.3,5-31.2,6-62.3,1.1-93.6,7.4-57,28.6-81.2-26.1-125.4l-4.3,24.1h0Z"/>
    </clipPath>
    <clipPath id="clippath-1">
      <path class="st19" d="M531.4,545.1c-.9,42.4-1.4,84.8,5,126.3,0,0,0,58.3,0,58.3,8.9,16.2,16.8,16.2,24.2,10.3,5-31.2,6-62.3,1.1-93.6l11.9-46.7s15.5-24.5,2-43.2c-13.5-18.8-23.3-9.4-23.3-9.4l-21-2.1h0Z"/>
    </clipPath>
    <clipPath id="clippath-2">
      <path class="st30" d="M528.7,575c23.6,26.3,55.6,12.8,76.4-12.4-14.6-42.1-2.2-61.5,6.6-104.5-3.3-37.6-41.7-12.1-57.2,0-12,7.1-20,14.7-18.3,23.6l-7.5,93.3h0Z"/>
    </clipPath>
    <clipPath id="clippath-3">
      <path class="st31" d="M557.9,453.6s3.1-13-6.2-16c-8.8-7.8-8.2-34.6,1.8-47.6l33.9,19.4-5,23.3c-.7,5,1.1,9.7-4.1,13l-20.4,7.8h0Z"/>
    </clipPath>
  </defs>
  <g class="st35">
    <g id="Layer_2">
      <g>
        <polygon class="st23" points="65.7 739 33.2 720.3 516 441.8 548.5 460.5 65.7 739"/>
        <g class="st35">
          <polygon class="st53" points="65.5 350.3 46.2 339.1 513.1 69.5 532.4 80.7 65.5 350.3"/>
          <polygon class="st34" points="66.6 730.5 47.3 719.3 46.1 295.4 65.4 306.6 66.6 730.5"/>
          <polygon class="st45" points="65.5 350.3 46.2 339.1 46.1 295.4 65.4 306.6 65.5 350.3"/>
          <polygon class="st26" points="532.3 37.1 532.4 80.7 65.5 350.3 65.4 306.6 532.3 37.1"/>
          <polygon class="st43" points="65.4 306.6 46.1 295.4 512.9 25.9 532.3 37.1 65.4 306.6"/>
          <polygon class="st28" points="65.4 306.6 65.5 350.3 532.4 80.7 533.5 461 66.6 730.5 65.4 306.6"/>
        </g>
        <g>
          <g>
            <polygon class="st4" points="164.1 444.5 76.3 495.2 76.3 420.2 164.1 369.5 164.1 444.5"/>
            <path class="st54" d="M120.6,436.7c0,11.5-8.1,25.4-18,31.2-9.9,5.7-18,1.1-18-10.4s8.1-25.4,18-31.2v20.8l18-10.4Z"/>
            <path class="st29" d="M123.6,431.4l-18,10.4v-20.8c9.9-5.7,18-1.1,18,10.4Z"/>
            <g>
              <g>
                <polygon class="st26" points="139.4 413.9 133.6 417.3 133.6 409.1 139.4 405.7 139.4 413.9"/>
                <g>
                  <rect class="st26" x="148.1" y="398.8" width="9.2" height=".5" transform="translate(-179 129.7) rotate(-30)"/>
                  <rect class="st26" x="140.4" y="403.8" width="17.4" height=".5" transform="translate(-180.9 127.3) rotate(-29.8)"/>
                  <rect class="st26" x="140.4" y="407" width="17.4" height=".5" transform="translate(-182.5 127.8) rotate(-29.8)"/>
                </g>
              </g>
              <g>
                <polygon class="st51" points="139.4 427.4 133.6 430.7 133.6 422.5 139.4 419.1 139.4 427.4"/>
                <g>
                  <rect class="st26" x="148.1" y="412.3" width="9.2" height=".5" transform="translate(-185.7 131.5) rotate(-30)"/>
                  <rect class="st26" x="140.4" y="417.2" width="17.4" height=".5" transform="translate(-187.6 129.1) rotate(-29.8)"/>
                  <rect class="st26" x="140.4" y="420.4" width="17.4" height=".5" transform="translate(-189.2 129.5) rotate(-29.8)"/>
                </g>
              </g>
              <g>
                <polygon class="st54" points="139.4 440.8 133.6 444.2 133.6 436 139.4 432.6 139.4 440.8"/>
                <g>
                  <rect class="st26" x="148.1" y="425.7" width="9.2" height=".5" transform="translate(-192.5 133.3) rotate(-30)"/>
                  <rect class="st26" x="140.4" y="430.7" width="17.4" height=".5" transform="translate(-194.3 130.9) rotate(-29.8)"/>
                  <rect class="st26" x="140.4" y="433.9" width="17.4" height=".5" transform="translate(-195.8 131.3) rotate(-29.8)"/>
                </g>
              </g>
            </g>
          </g>
          <g>
            <polygon class="st4" points="354.2 334.7 266.4 385.4 266.4 310.5 354.2 259.7 354.2 334.7"/>
            <g>
              <g>
                <polygon class="st29" points="329.8 304 323.9 307.4 323.9 299.1 329.8 295.8 329.8 304"/>
                <g>
                  <rect class="st26" x="338.5" y="288.9" width="9.2" height=".5" transform="translate(-98.6 210.2) rotate(-30)"/>
                  <rect class="st26" x="330.8" y="293.9" width="17.4" height=".5" transform="translate(-101.2 207.4) rotate(-29.8)"/>
                  <rect class="st26" x="330.8" y="297" width="17.4" height=".5" transform="translate(-102.8 207.8) rotate(-29.8)"/>
                </g>
              </g>
              <g>
                <polygon class="st51" points="329.8 317.4 323.9 320.8 323.9 312.6 329.8 309.2 329.8 317.4"/>
                <g>
                  <rect class="st26" x="338.5" y="302.4" width="9.2" height=".5" transform="translate(-105.3 212) rotate(-30)"/>
                  <rect class="st26" x="330.8" y="307.3" width="17.4" height=".5" transform="translate(-107.9 209.1) rotate(-29.8)"/>
                  <rect class="st26" x="330.8" y="310.5" width="17.4" height=".5" transform="translate(-109.5 209.6) rotate(-29.8)"/>
                </g>
              </g>
              <g>
                <polygon class="st32" points="329.8 330.9 323.9 334.3 323.9 326 329.8 322.7 329.8 330.9"/>
                <g>
                  <rect class="st26" x="338.5" y="315.8" width="9.2" height=".5" transform="translate(-112 213.8) rotate(-30)"/>
                  <rect class="st26" x="330.8" y="320.8" width="17.4" height=".5" transform="translate(-114.6 210.9) rotate(-29.8)"/>
                  <rect class="st26" x="330.8" y="323.9" width="17.4" height=".5" transform="translate(-116.2 211.3) rotate(-29.8)"/>
                </g>
              </g>
            </g>
            <g>
              <polygon class="st29" points="276.9 330.2 280 329.8 285.4 319.8 297.2 321.8 301.4 315.4 308.8 317.9 312.9 307.5 318.8 307.7 318.8 334.2 273.2 360.5 273.2 338.2 276.9 330.2"/>
              <polygon class="st2" points="308.9 318.3 301.4 315.8 297.3 322.2 285.5 320.2 280.1 330.1 277 330.5 273.4 338.3 273 338.2 276.8 329.9 280 329.4 285.4 319.4 297.2 321.4 301.4 315 308.7 317.4 312.8 307.1 318.9 307.3 318.6 308.1 313 307.8 308.9 318.3"/>
              <polygon class="st2" points="273.5 364.5 272.9 364.8 272.9 323.5 273.5 323.2 273.5 364.5"/>
              <polygon class="st2" points="317.2 335.5 270.5 362.5 270.5 361.8 317.2 334.8 317.2 335.5"/>
              <polygon class="st2" points="281 356.1 280.4 356.4 280.4 341.5 281 341.2 281 356.1"/>
              <path class="st2" d="M281.6,340.9c0,.6-.4,1.2-.9,1.5-2.2.7.4-3.8.9-1.5Z"/>
              <polygon class="st2" points="309.4 339.6 308.9 340 308.9 325.1 309.4 324.8 309.4 339.6"/>
              <path class="st2" d="M310,324.4c0,.6-.4,1.2-.9,1.5-2.2.7.4-3.8.9-1.5Z"/>
              <polygon class="st2" points="288.7 351.6 288.2 351.9 288.2 343.5 288.7 343.2 288.7 351.6"/>
              <path class="st2" d="M289.3,342.8c0,.6-.4,1.2-.9,1.5-2.2.7.4-3.8.9-1.5Z"/>
              <polygon class="st2" points="297.8 346.3 297.3 346.7 297.3 326.8 297.8 326.4 297.8 346.3"/>
              <path class="st2" d="M298.4,325.8c0,.6-.4,1.2-.9,1.5-2.2.7.4-3.8.9-1.5Z"/>
            </g>
          </g>
          <g>
            <polygon class="st4" points="259.2 389.6 171.3 440.3 171.3 365.3 259.2 314.6 259.2 389.6"/>
            <g>
              <polygon class="st2" points="250.2 337 222.9 352.7 222.9 352.4 250.2 336.7 250.2 337"/>
              <polygon class="st2" points="250.2 353.2 222.9 368.9 222.9 368.6 250.2 352.9 250.2 353.2"/>
              <polygon class="st29" points="230.7 361.1 222.9 365.6 222.9 356.3 230.7 351.8 230.7 361.1"/>
              <g>
                <polygon class="st2" points="250.3 341.3 240.1 347.2 240.1 346.9 250.3 341 250.3 341.3"/>
                <polygon class="st2" points="250.3 343.3 233 353.2 233 352.9 250.3 342.9 250.3 343.3"/>
                <polygon class="st2" points="250.3 345.4 233 355.3 233 355 250.3 345.1 250.3 345.4"/>
                <polygon class="st2" points="250.3 347.5 233 357.5 233 357.1 250.3 347.2 250.3 347.5"/>
                <polygon class="st2" points="250.3 349.6 233 359.6 233 359.3 250.3 349.3 250.3 349.6"/>
              </g>
            </g>
            <g>
              <polygon class="st2" points="250.2 361.7 222.9 377.5 222.9 377.2 250.2 361.4 250.2 361.7"/>
              <polygon class="st2" points="250.2 377.9 222.9 393.7 222.9 393.4 250.2 377.6 250.2 377.9"/>
              <polygon class="st25" points="230.7 385.9 222.9 390.4 222.9 381 230.7 376.5 230.7 385.9"/>
              <g>
                <polygon class="st2" points="250.3 366 240.1 371.9 240.1 371.6 250.3 365.7 250.3 366"/>
                <polygon class="st2" points="250.3 368 233 378 233 377.7 250.3 367.7 250.3 368"/>
                <polygon class="st2" points="250.3 370.1 233 380.1 233 379.8 250.3 369.8 250.3 370.1"/>
                <polygon class="st2" points="250.3 372.2 233 382.2 233 381.9 250.3 371.9 250.3 372.2"/>
                <polygon class="st2" points="250.3 374.4 233 384.3 233 384 250.3 374 250.3 374.4"/>
              </g>
            </g>
            <g>
              <path class="st26" d="M196.3,409.1c-.4.2-.9.5-1.3.7l.2-3c.8-.4,1.6-.8,2.3-1.3l.2,2.7c-.4.3-.9.6-1.4.8ZM200.3,406.2l-.6-2.5c.7-.6,1.5-1.3,2.2-2.1l.9,2.1c-.8.9-1.7,1.7-2.6,2.4ZM192.3,410.8c-.9.3-1.7.5-2.5.6l.9-3.2c.7-.1,1.5-.3,2.2-.5l-.5,3.1ZM187.3,411.5c-.8,0-1.5-.2-2.2-.4l1.5-3.1c.6.2,1.2.3,1.9.4l-1.2,3.2ZM205.2,401.1l-1.2-1.8c.7-.8,1.3-1.7,1.9-2.6l1.5,1.3c-.7,1-1.4,2.1-2.2,3ZM183.1,410.1c-.6-.4-1.2-.9-1.7-1.5l2.1-2.8c.4.5.9.9,1.4,1.3l-1.8,3ZM209.4,394.9l-1.8-.9c.5-.9,1-1.9,1.4-2.9l2,.4c-.5,1.1-1.1,2.3-1.7,3.4ZM180.2,406.7c-.4-.7-.7-1.5-.9-2.3l2.4-2.2c.2.7.5,1.4.8,2l-2.2,2.5ZM212.4,388.1h-2.2c.3-.9.6-1.9.8-2.9l2.4-.5c-.3,1.1-.6,2.3-1,3.4ZM178.7,401.7c-.1-.9-.2-1.9-.2-3l2.5-1.4c0,.9,0,1.8.2,2.6l-2.4,1.8ZM181.1,394.5l-2.4,1c.1-1.1.3-2.2.6-3.3l2.4-.6c-.2,1-.4,1.9-.5,2.9ZM182.4,388.7h-2.2c.4-1,.8-2.2,1.3-3.3l2.1.4c-.4,1-.8,2-1.1,3ZM184.9,382.8l-1.8-.9c.6-1.1,1.3-2.2,2-3.2l1.5,1.4c-.6.9-1.2,1.8-1.7,2.8ZM188.5,377.5l-1.2-1.8c.8-.9,1.6-1.8,2.4-2.7l.9,2.2c-.7.7-1.4,1.5-2.1,2.3ZM203.9,368.5c-.7,0-1.4,0-2.1,0l.9-3.2c.8-.1,1.6-.1,2.4,0l-1.2,3.2ZM192.8,373.1l-.5-2.5c.8-.7,1.7-1.4,2.6-2l.2,2.7c-.8.5-1.6,1.1-2.3,1.8ZM199.7,369.1c-.7.2-1.5.6-2.3.9l.2-2.9c.9-.4,1.8-.8,2.6-1.1l-.5,3.1Z"/>
              <path class="st20" d="M196.3,403.5c-7.2,4.2-13,.8-13-7.5l.4-.2c0,8,5.7,11.3,12.6,7.3,7-4,12.6-13.8,12.6-21.9s-5.7-11.3-12.6-7.3v-.5c7.2-4.2,13-.8,13,7.5s-5.9,18.4-13,22.6Z"/>
              <g>
                <path class="st29" d="M190.4,393.7v-3.8c-.3-1.6,2.9-4.3,2.9-1.4l-.9.5c.2-1.3-1.2-.4-1.1.3,0,0,0,1.6,0,1.6,1.4-2.2,2.3-1.1,2,1.1.3,1.5-2.7,4.3-2.9,1.7ZM192.4,392.6c0-.3.3-2.1-.5-1.6-.8.4-.6,1.5-.6,2.2,0,1,1.2,0,1.1-.6Z"/>
                <path class="st29" d="M194,391.6c.1-1.8-.6-5.4,1.5-6.4,2.4-1.4,1.2,3.7,1.5,4.7.3,1.5-2.7,4.3-2.9,1.7ZM196.1,390.4c-.2-.3.5-4.9-.6-4.2-1,.4-.4,4-.6,4.8,0,1.1,1.2,0,1.1-.6Z"/>
                <path class="st29" d="M197.8,386.8v-1.7c-.2-1,1.8-2.8,1.8-1.1,0,0,0,1.7,0,1.7.2,1-1.8,2.8-1.8,1.1ZM199,386.2c-.1-.2.3-2.5-.3-2.1-.6.2-.2,2-.3,2.5,0,.7.7,0,.6-.4ZM201,382.2l.6-.3-2.5,8.4-.6.3,2.5-8.4ZM200.5,388.4v-1.7c-.2-1,1.8-2.8,1.8-1.1,0,0,0,1.7,0,1.7.2,1-1.8,2.8-1.8,1.1ZM201.7,387.8c-.1-.2.3-2.5-.3-2.1-.6.2-.2,2-.3,2.5,0,.7.7,0,.6-.4Z"/>
              </g>
            </g>
          </g>
          <g>
            <polygon class="st32" points="146.7 366.9 76.3 407.6 76.3 366.7 146.7 326 146.7 366.9"/>
            <g>
              <rect class="st26" x="251.1" y="238.1" width="110.5" height="2" transform="translate(-78.5 185.2) rotate(-30)"/>
              <rect class="st26" x="158.8" y="277.3" width="209.4" height="2" transform="translate(-103.7 168.5) rotate(-29.9)"/>
              <rect class="st26" x="158.8" y="293.1" width="209.4" height="2" transform="translate(-111.6 170.6) rotate(-29.9)"/>
            </g>
          </g>
          <g class="st49">
            <polygon class="st44" points="520.1 236.3 370.4 322.8 370.4 196.9 520.1 110.5 520.1 236.3"/>
            <g>
              <g>
                <polygon class="st22" points="509.6 140.6 391.7 208.7 391.7 207.2 509.6 139.1 509.6 140.6"/>
                <polygon class="st22" points="509.6 156.7 391.7 224.8 391.7 223.3 509.6 155.2 509.6 156.7"/>
                <polygon class="st22" points="509.6 172.9 391.7 240.9 391.7 239.4 509.6 171.3 509.6 172.9"/>
                <polygon class="st22" points="509.6 189 391.7 257.1 391.7 255.6 509.6 187.5 509.6 189"/>
                <polygon class="st22" points="509.6 205.1 391.7 273.2 391.7 271.7 509.6 203.6 509.6 205.1"/>
                <polygon class="st22" points="509.6 221.3 391.7 289.4 391.7 287.8 509.6 219.7 509.6 221.3"/>
              </g>
              <g>
                <path class="st22" d="M382.7,208l-1.9,1.1v-1.3c1.3-.9,2.1-1.9,2.4-2.8l1.2-.7v12.7l-1.7,1v-9.9Z"/>
                <path class="st22" d="M382.9,232.7l3.3-1.9v1.8l-5.3,3v-1.7l2.4-5.9c3-6.1-.8-6.8-.8-2.3l-1.6.9c.3-7.9,8.6-8.2,3.8,1.6,0,0-1.8,4.4-1.8,4.4Z"/>
                <path class="st22" d="M386.2,245c1,3.9-5.3,9.6-5.3,3.9l1.6-1.1c-.3,2.6,2.2,1.1,2-.6,0-1.8.2-3.1-1.9-1.7v-1.8c1.5-.6,2-1.9,1.8-3.5-.2-2-2.3.3-1.9,1.6l-1.6.9c-.8-2.7,4.7-8.3,5.1-3.4,0,1.4-.2,2.8-1.2,3.9.8,0,1.3.6,1.3,1.8Z"/>
                <path class="st22" d="M386.7,262.9l-.9.5v2.6l-1.7,1v-2.6l-3.2,1.9c-.5-1,2.7-10.6,2.9-11.7l2-1.1v8.2l.9-.5v1.8ZM384.1,262.5v-5l-1.7,5.9,1.7-1Z"/>
                <path class="st22" d="M381.2,281.3v-.4l1.6-1.1c-.3,2.5,2.1,1.1,2-.5,0,0,0-2.9,0-2.9-.2-1.9-2.2.4-1.9,1.5l-1.6.9v-7.2l4.8-2.7v1.8l-3.2,1.8v3.1c.4-1.6,3.7-3.6,3.6-.4,0,0,0,3.2,0,3.2.6,2.7-4.9,7.8-5.2,3Z"/>
                <path class="st22" d="M381.2,298v-6.9c-.6-3,5.3-7.8,5.2-2.6l-1.6.9c.3-2.3-2.1-.8-2,.6,0,0,0,2.9,0,2.9.4-1.6,3.8-3.6,3.6-.4,0,0,0,2.5,0,2.5.6,2.7-4.9,7.8-5.3,3.1ZM384.9,296c-.2-.6.6-3.8-.9-2.9-1.4.6-1,2.8-1.1,4,.1,1.8,2.2-.1,2-1.1Z"/>
              </g>
              <polygon class="st26" points="406.1 280.1 397.4 285.1 397.4 242.3 406.1 237.3 406.1 280.1"/>
              <polygon class="st29" points="415.6 274.6 407 279.6 407 267.9 415.6 263 415.6 274.6"/>
              <polygon class="st51" points="425.2 269.1 416.5 274.1 416.5 267 425.2 262 425.2 269.1"/>
              <polygon class="st48" points="434.7 263.6 426.1 268.6 426.1 250.2 434.7 245.2 434.7 263.6"/>
              <polygon class="st26" points="444.3 258.1 435.6 263.1 435.6 240.4 444.3 235.4 444.3 258.1"/>
              <polygon class="st29" points="453.8 252.6 445.2 257.6 445.2 245.3 453.8 240.4 453.8 252.6"/>
              <polygon class="st43" points="463.4 247.1 454.7 252 454.7 226.7 463.4 221.7 463.4 247.1"/>
              <polygon class="st29" points="472.9 241.6 464.3 246.5 464.3 217.6 472.9 212.7 472.9 241.6"/>
              <polygon class="st24" points="482.5 236 473.8 241 473.8 228.3 482.5 223.3 482.5 236"/>
              <polygon class="st21" points="492 230.5 483.4 235.5 483.4 227.6 492 222.6 492 230.5"/>
              <polygon class="st0" points="501.6 225 492.9 230 492.9 174.2 501.6 169.2 501.6 225"/>
              <path class="st29" d="M508.7,144l-8.5,12.9,3.9-1.9-16.8,46.3-8.9,5.4-8.5-6.6c-5.2,5.5-18.4,19.7-22.9,25.4l-7.9,2.1-11.7,12.5-15.8,9.1-16.3-26.5-1.2,1.4,16.7,27.1,16.9-9.7,11.6-12.3,7.9-2.2c4.6-5.8,17.1-19.4,22.3-24.9l8.2,6.4,10.2-6.2,17.2-47.3,2.5,2.1,1-13.2Z"/>
            </g>
          </g>
          <g class="st49">
            <polygon class="st46" points="520.1 344.8 370.4 431.2 370.4 338 520.1 251.6 520.1 344.8"/>
            <g>
              <g>
                <polygon class="st22" points="501.2 276.7 398.7 335.9 398.7 334.6 501.2 275.4 501.2 276.7"/>
                <polygon class="st22" points="501.2 290.8 398.7 350 398.7 348.7 501.2 289.4 501.2 290.8"/>
                <polygon class="st22" points="501.2 304.8 398.7 364 398.7 362.7 501.2 303.5 501.2 304.8"/>
                <polygon class="st22" points="501.2 318.8 398.7 378 398.7 376.7 501.2 317.5 501.2 318.8"/>
                <polygon class="st22" points="501.2 332.9 398.7 392.1 398.7 390.8 501.2 331.5 501.2 332.9"/>
                <polygon class="st22" points="501.2 346.9 398.7 406.1 398.7 404.8 501.2 345.6 501.2 346.9"/>
              </g>
              <g>
                <path class="st22" d="M390.9,335.4l-1.6.9v-1.2c1.1-.7,1.8-1.6,2.1-2.4l1-.6v11l-1.4.8v-8.6Z"/>
                <path class="st22" d="M391.1,356.8l2.9-1.7v1.6l-4.6,2.6c-.5-1.1,1.7-5.5,2.1-6.6,2.6-5.2-.6-5.9-.7-2l-1.4.8c-.3-5.9,9-9.6,1.7,5.2Z"/>
                <path class="st22" d="M393.9,367.5c.9,3.3-4.6,8.4-4.6,3.4l1.4-1c-.3,2.2,1.9.9,1.8-.5,0-1.5.2-2.7-1.7-1.4v-1.6c1.3-.5,1.7-1.7,1.6-3-.2-1.7-2,.3-1.6,1.4l-1.4.8c-.8-2.4,4.1-7.2,4.5-3,0,1.2-.2,2.5-1,3.4.7,0,1.1.5,1.1,1.5Z"/>
                <path class="st22" d="M394.3,383.1l-.8.4v2.3l-1.4.8v-2.3l-2.8,1.6c-.5-.8,2.3-9.2,2.5-10.2l1.7-1v7.1l.8-.4v1.6ZM392.1,382.8v-4.3l-1.5,5.2,1.5-.8Z"/>
                <path class="st22" d="M389.5,399.1v-.3l1.4-1c-.3,2.2,1.8,1,1.7-.5,0,0,0-2.6,0-2.6-.2-1.7-2,.4-1.7,1.3l-1.4.8v-6.3l4.1-2.4v1.6l-2.7,1.6v2.7c.4-1.4,3.2-3.1,3.1-.4,0,0,0,2.8,0,2.8.5,2.4-4.3,6.8-4.6,2.6Z"/>
                <path class="st22" d="M389.6,413.6v-6c-.5-2.6,4.6-6.8,4.5-2.3l-1.4.8c.3-2-1.9-.7-1.7.5,0,0,0,2.5,0,2.5.4-1.4,3.3-3.2,3.2-.4,0,0,0,2.1,0,2.1.5,2.3-4.2,6.8-4.6,2.7ZM392.7,411.8c-.1-.5.5-3.3-.8-2.5-1.2.6-.9,2.4-.9,3.5.1,1.5,1.9-.1,1.7-1Z"/>
              </g>
            </g>
            <path class="st26" d="M499.5,346.6c-5.6-57.4-23.7-32.8-33.2-.3-4.1,11-8.3,19.1-14.7,8.6-8.2-12.7-3.4-25.9-9.9-28.4-5.3-2-14.2,4.5-19.4,10.6-4.1,4.7-6.8,11.5-12.2,25.3-9.9,27.7-9.2,25.9-8.6,40.9,32.7-18.9,65.4-37.7,98-56.6Z"/>
            <path class="st29" d="M401.4,403.2c11-43.1,16.8-54.4,20.1-55.7,4.9,0,9.5,13,13.1,17.1,3,3.8,4.7,6,7.1,4.7,3.3-1.8,6-8.8,7.6-13.1,9.5-24.9-.4-35,18.3-47.9,5.4-2,8.3,4.3,9.7,7.4,4.8,10.5.6,20.3,5.6,22.3,9.6,3,17.2-13,16.6-18.4v27.1c-32.7,18.9-65.4,37.7-98,56.6Z"/>
          </g>
          <g>
            <polygon class="st38" points="520.1 452.4 370.4 538.9 370.4 445.7 520.1 359.2 520.1 452.4"/>
            <g>
              <g>
                <path class="st26" d="M391.9,495.6c-3,2.3-6.3,1.3-6.2-3.3,0,0,0-43.2,0-43.2,0-3.8,2.3-8.2,5.2-9.9,3-2.3,6.3-1.3,6.2,3.3,0,0,0,43.2,0,43.2,0,3.8-2.3,8.2-5.2,9.9Z"/>
                <path class="st26" d="M413.5,483.2c-3,2.3-6.3,1.3-6.2-3.3,0,0,0-43.2,0-43.2,0-3.8,2.3-8.2,5.2-9.9,3-2.3,6.3-1.3,6.2,3.3,0,0,0,43.2,0,43.2,0,3.8-2.3,8.2-5.2,9.9Z"/>
                <path class="st26" d="M435,470.7c-3,2.3-6.3,1.3-6.2-3.3,0,0,0-43.2,0-43.2,0-3.8,2.3-8.2,5.2-9.9,3-2.3,6.3-1.3,6.2,3.3,0,0,0,43.2,0,43.2,0,3.8-2.3,8.2-5.2,9.9Z"/>
                <path class="st26" d="M456.5,458.3c-3,2.3-6.3,1.3-6.2-3.3,0,0,0-43.2,0-43.2,0-3.8,2.3-8.2,5.2-9.9,3-2.3,6.3-1.3,6.2,3.3,0,0,0,43.2,0,43.2,0,3.8-2.3,8.2-5.2,9.9Z"/>
                <path class="st26" d="M478.1,445.9c-3,2.3-6.3,1.3-6.2-3.3,0,0,0-43.2,0-43.2,0-3.8,2.3-8.2,5.2-9.9,3-2.3,6.3-1.3,6.2,3.3,0,0,0,43.2,0,43.2,0,3.8-2.3,8.2-5.2,9.9Z"/>
                <path class="st26" d="M499.6,433.4c-3,2.3-6.3,1.3-6.2-3.3,0,0,0-43.2,0-43.2,0-3.8,2.3-8.2,5.2-9.9,3-2.3,6.3-1.3,6.2,3.3,0,0,0,43.2,0,43.2,0,3.8-2.3,8.2-5.2,9.9Z"/>
              </g>
              <path class="st29" d="M394,494.4c-2.2.9-8.2,6.6-8.3.7.5-4.3-1.8-15.6,3.1-18.1,2.2-.9,8.2-6.6,8.3-.7-.5,4.3,1.8,15.6-3.1,18.1Z"/>
              <path class="st29" d="M413.8,482.9c-2.9,2.2-6.6,2.5-6.6-2.6,0,0,0-36.4,0-36.4,0-3.5,2.2-7.7,4.8-9.2,2.9-2.2,6.6-2.5,6.6,2.6,0,0,0,36.4,0,36.4,0,3.5-2.2,7.7-4.8,9.2Z"/>
              <path class="st29" d="M436.1,470.1c-2.7,1.7-7.2,4.6-7.3-1.2,1-6-3-28.9,4.1-32.3,2.7-1.7,7.2-4.6,7.3,1.2-1,6,3,28.9-4.1,32.3Z"/>
              <path class="st29" d="M459.4,456.6l-6.9,4c-1.2.7-2.3,0-2.3-1.7,0-2.7-.6-7.7,2.3-9.2,0,0,6.9-4,6.9-4,1.2-.7,2.3,0,2.3,1.7,0,2.7.6,7.7-2.3,9.2Z"/>
              <path class="st29" d="M478.5,445.6c-2.9,2.2-6.6,2.8-6.7-2.4,0,0,0-34.7,0-34.7,0-3.5,2.1-7.5,4.7-9,2.9-2.2,6.6-2.8,6.7,2.4,0,0,0,34.7,0,34.7,0,3.5-2.1,7.5-4.7,9Z"/>
              <path class="st29" d="M500.4,433c-2.9,2-6.8,3.8-7-1.8,0,0,0-29.6,0-29.6,0-3.2,2-7,4.4-8.4,2.9-2,6.8-3.8,7,1.8,0,0,0,29.6,0,29.6,0,3.2-2,7-4.4,8.4Z"/>
              <path class="st26" d="M391.4,513.2c-1.3,1.3-.3-9.3-.6-9.4-.1-.6,1.1-1.8,1.2-.7-.2.8.6,9.9-.6,10.1Z"/>
              <path class="st26" d="M412.9,500.8c-1.3,1.3-.3-9.3-.6-9.4-.1-.6,1.1-1.8,1.2-.7-.2.8.6,9.9-.6,10.1Z"/>
              <path class="st26" d="M434.5,488.4c-1.3,1.3-.3-9.3-.6-9.4-.1-.6,1.1-1.8,1.2-.7-.2.8.6,9.9-.6,10.1Z"/>
              <path class="st26" d="M456,475.9c-1.3,1.3-.3-9.3-.6-9.4-.1-.6,1.1-1.8,1.2-.7-.2.8.6,9.9-.6,10.1Z"/>
              <path class="st26" d="M477.5,463.5c-1.3,1.3-.3-9.3-.6-9.4-.1-.6,1.1-1.8,1.2-.7-.2.8.6,9.9-.6,10.1Z"/>
              <path class="st26" d="M499.1,451.1c-1.3,1.3-.3-9.3-.6-9.4-.1-.6,1.1-1.8,1.2-.7-.2.8.6,9.9-.6,10.1Z"/>
              <g>
                <path class="st26" d="M389.2,520.4l-.4.3v-.3c.3-.2.5-.4.6-.6l.3-.2v2.8l-.4.2v-2.2Z"/>
                <path class="st26" d="M390,521.5v-1.5c-.1-.6,1.1-1.8,1.2-.7,0,0,0,1.5,0,1.5.1.6-1.1,1.8-1.2.7ZM390.8,521c0-.1.2-2-.2-1.7-.4.2-.2,1.6-.2,1.9,0,.4.5,0,.5-.3Z"/>
                <path class="st26" d="M391.6,520.6v-1.5c-.1-.6,1.1-1.8,1.2-.7,0,0,0,1.5,0,1.5.1.6-1.1,1.8-1.2.7ZM392.4,520.1c0-.1.2-2-.2-1.7-.4.2-.2,1.6-.2,1.9,0,.4.5,0,.5-.3Z"/>
                <path class="st26" d="M393.5,517.9l-.4.3v-.3c.3-.2.5-.4.6-.6l.3-.2v2.8l-.4.2v-2.2Z"/>
              </g>
              <g>
                <path class="st26" d="M410.8,507.9l-.4.3v-.3c.3-.2.5-.4.6-.6l.3-.2v2.8l-.4.2v-2.2Z"/>
                <path class="st26" d="M411.6,509v-1.5c-.1-.6,1.1-1.8,1.2-.7,0,0,0,1.5,0,1.5.1.6-1.1,1.8-1.2.7ZM412.4,508.5c0-.1.2-2-.2-1.7-.4.2-.2,1.6-.2,1.9,0,.4.5,0,.5-.3Z"/>
                <path class="st26" d="M413.2,508.1v-1.5c-.1-.6,1.1-1.8,1.2-.7,0,0,0,1.5,0,1.5.1.6-1.1,1.8-1.2.7ZM414,507.6c0-.1.2-2-.2-1.7-.4.2-.2,1.6-.2,1.9,0,.4.5,0,.5-.3Z"/>
                <path class="st26" d="M415.1,505.4l-.4.3v-.3c.3-.2.5-.4.6-.6l.3-.2v2.8l-.4.2v-2.2Z"/>
              </g>
              <g>
                <path class="st26" d="M432.4,495.4l-.4.3v-.3c.3-.2.5-.4.6-.6l.3-.2v2.8l-.4.2v-2.2Z"/>
                <path class="st26" d="M433.2,496.6v-1.5c-.1-.6,1.1-1.8,1.2-.7,0,0,0,1.5,0,1.5.1.6-1.1,1.8-1.2.7ZM434,496.1c0-.1.2-2-.2-1.7-.4.2-.2,1.6-.2,1.9,0,.4.5,0,.5-.3Z"/>
                <path class="st26" d="M434.8,495.6v-1.5c-.1-.6,1.1-1.8,1.2-.7,0,0,0,1.5,0,1.5.1.6-1.1,1.8-1.2.7ZM435.6,495.2c0-.1.2-2-.2-1.7-.4.2-.2,1.6-.2,1.9,0,.4.5,0,.5-.3Z"/>
                <path class="st26" d="M436.7,493l-.4.3v-.3c.3-.2.5-.4.6-.6l.3-.2v2.8l-.4.2v-2.2Z"/>
              </g>
              <g>
                <path class="st26" d="M454,483l-.4.3v-.3c.3-.2.5-.4.6-.6l.3-.2v2.8l-.4.2v-2.2Z"/>
                <path class="st26" d="M454.8,484.1v-1.5c-.1-.6,1.1-1.8,1.2-.7,0,0,0,1.5,0,1.5.1.6-1.1,1.8-1.2.7ZM455.6,483.6c0-.1.2-2-.2-1.7-.4.2-.2,1.6-.2,1.9,0,.4.5,0,.5-.3Z"/>
                <path class="st26" d="M456.4,483.2v-1.5c-.1-.6,1.1-1.8,1.2-.7,0,0,0,1.5,0,1.5.1.6-1.1,1.8-1.2.7ZM457.2,482.7c0-.1.2-2-.2-1.7-.4.2-.2,1.6-.2,1.9,0,.4.5,0,.5-.3Z"/>
                <path class="st26" d="M458.3,480.5l-.4.3v-.3c.3-.2.5-.4.6-.6l.3-.2v2.8l-.4.2v-2.2Z"/>
              </g>
              <g>
                <path class="st26" d="M475.6,470.5l-.4.3v-.3c.3-.2.5-.4.6-.6l.3-.2v2.8l-.4.2v-2.2Z"/>
                <path class="st26" d="M476.4,471.6v-1.5c-.1-.6,1.1-1.8,1.2-.7,0,0,0,1.5,0,1.5.1.6-1.1,1.8-1.2.7ZM477.2,471.1c0-.1.2-2-.2-1.7-.4.2-.2,1.6-.2,1.9,0,.4.5,0,.5-.3Z"/>
                <path class="st26" d="M478,470.7v-1.5c-.1-.6,1.1-1.8,1.2-.7,0,0,0,1.5,0,1.5.1.6-1.1,1.8-1.2.7ZM478.8,470.2c0-.1.2-2-.2-1.7-.4.2-.2,1.6-.2,1.9,0,.4.5,0,.5-.3Z"/>
                <path class="st26" d="M479.9,468l-.4.3v-.3c.3-.2.5-.4.6-.6l.3-.2v2.8l-.4.2v-2.2Z"/>
              </g>
              <g>
                <path class="st26" d="M497.2,458l-.4.3v-.3c.3-.2.5-.4.6-.6l.3-.2v2.8l-.4.2v-2.2Z"/>
                <path class="st26" d="M498,459.2v-1.5c-.1-.6,1.1-1.8,1.2-.7,0,0,0,1.5,0,1.5.1.6-1.1,1.8-1.2.7ZM498.8,458.7c0-.1.2-2-.2-1.7-.4.2-.2,1.6-.2,1.9,0,.4.5,0,.5-.3Z"/>
                <path class="st26" d="M499.5,458.2v-1.5c-.1-.6,1.1-1.8,1.2-.7,0,0,0,1.5,0,1.5.1.6-1.1,1.8-1.2.7ZM500.4,457.8c0-.1.2-2-.2-1.7-.4.2-.2,1.6-.2,1.9,0,.4.5,0,.5-.3Z"/>
                <path class="st26" d="M501.5,455.6l-.4.3v-.3c.3-.2.5-.4.6-.6l.3-.2v2.8l-.4.2v-2.2Z"/>
              </g>
            </g>
          </g>
          <g class="st49">
            <polygon class="st1" points="352 549.4 76.3 708.7 76.3 507.8 352 348.6 352 549.4"/>
            <g>
              <g>
                <g>
                  <path class="st26" d="M339.2,486.3l-192.8,111.3v-112.8l192.8-111.3v112.8ZM147.1,596.4l191.4-110.5v-111.2l-191.4,110.5v111.2Z"/>
                  <g>
                    <polygon class="st26" points="321.8 397.7 163.8 489 163.8 488.1 321.8 396.9 321.8 397.7"/>
                    <polygon class="st26" points="321.8 411 163.8 502.3 163.8 501.4 321.8 410.2 321.8 411"/>
                    <polygon class="st26" points="321.8 424.4 163.8 515.6 163.8 514.7 321.8 423.5 321.8 424.4"/>
                    <polygon class="st26" points="321.8 437.7 163.8 528.9 163.8 528 321.8 436.8 321.8 437.7"/>
                    <polygon class="st26" points="321.8 451 163.8 542.2 163.8 541.3 321.8 450.1 321.8 451"/>
                    <polygon class="st26" points="321.8 464.3 163.8 555.5 163.8 554.6 321.8 463.4 321.8 464.3"/>
                  </g>
                </g>
                <path class="st22" d="M158.8,554.6c-.7.4-1-.4-.6-1.1,4.4-8.1,9-13.7,13.8-16.7,3.4-2.2,5.5-2.1,7.4-2,9.4-.1,11.3-11.9,15-21.7,2.8-8.8,5.5-17.1,10.5-20.6,6.3-4,7.7,3.6,14.7-.4,8.2-3.6,17.1-27.7,22.4-8.3,1.4,5.7,4,8.2,7.2,3.3,10.6-14.3,12.1,6.6,21.7-13.7,2.2-4.3,4.5-8.7,7.9-10.5,8.9-4.1,8.5,16.6,19.5-7.9,4.6-11.7,13.1-23.7,23.8-8.5.5.5-.6,2.3-1.3,1.7-10-13.9-16.8-3.9-21.3,7.2-12,26.7-13.9,5.9-20.8,9.4-2.6,1.4-4.6,5.2-6.7,9.2-2.9,5.4-6.8,13.5-12.9,10.4-1.4-.7-2.6-1.3-4.9,0-3.5,1.7-4.5,5.9-7.9,7.4-6.3,2.3-4.9-14.2-10.6-13.2-7.2,3.1-12.9,21.6-25,15.7-1.8-.8-3.3-1.5-5.5,0-4.2,2.9-6.7,10.7-9.3,18.9-12.9,42-17.6,6.9-37,41.5Z"/>
                <path class="st26" d="M321.4,468.3c-20.1-12.1-23.5,28.2-37,1.1-2.7-5.1-5.2-10-9.3-8.1-7.7,5.3-10.3,21.2-24.5,18.2-2.2-.4-4-.8-6,1.2-5.7,5.6-4.4,20.5-10.6,25.5-1.6,1.3-2.7,1.1-3.8.9-7.2-1.1-8.8,9.1-13.8,12.4-3.5,2.4-5.9.6-8.2-1.2-10.4-8.6-11.7,12.4-18.6,16-11.6,6.1-12.6-27.4-30.2,14.5-.3,1.1-1.8,1.3-1.3-.2,18.4-43.9,21.9-11.2,31.4-16.1,6.1-4.4,8.9-25.4,19.8-16.1,2.1,1.6,4.2,3.2,6.9,1.3,4.4-3.5,7.5-14.1,14.8-12.6,1,.1,1.7.3,2.7-.6,6.5-6.2,3.8-30.2,17.8-27.1,13,3.3,15.7-13.3,23.8-18.1,5-2.3,7.7,2.9,10.5,8.4,8.8,18.4,12.2,4,22.4-2.2,4.7-2.5,9.4-2.2,13.8.8.5.3,0,1.5-.6,1.8Z"/>
                <path class="st29" d="M161,555.2c-.6.3-1-.2-.6-1,7.8-19.4,16.5-32.9,25.9-40.1,7.7-6.1,11.1-3.6,18-10.8,10.3-10.4,8.9-25.5,19.2-34.8,3.7-3.1,6.4-3.2,9.1-3.2,13.7.7,14.6-16.5,22.4-22.3,10-5.3,13.6,20.2,23.6,4.9,8.2-11.2,8.3,1,12.2,0,2.2-1,3.6-5.2,5.6-6.9,4.9-4.7,12.5.4,23.8,16,.5.5-.6,2.4-1.3,1.6-13.1-18.2-19.2-18.9-22-16.2-2.1,2-3.4,6.3-6.3,7.4-2.1.8-3-.7-4-2.2-4.2-7.1-7.7,4.1-11.7,6.1-8.5,5.9-12-12.7-19.8-8.9-5.6,4.5-6,13.1-12.8,18.6-12.1,10-17.3-5.1-26.7,21.6-14.4,41.9-29,8.2-54.6,70.3Z"/>
                <g>
                  <g>
                    <path class="st26" d="M163.1,567l-1,.6v-.7c.7-.4,1-1,1.2-1.4l.6-.3v6.4l-.8.5v-5Z"/>
                    <path class="st26" d="M164.7,569.6v-3.5c-.3-1.4,2.5-4,2.7-1.6,0,0,0,3.5,0,3.5.3,1.4-2.5,4-2.7,1.6ZM166.6,568.5c-.2-.3.5-4.6-.5-3.8-.9.4-.4,3.7-.5,4.4,0,1,1.1,0,1-.6Z"/>
                  </g>
                  <g>
                    <path class="st26" d="M189.4,555.9l1.7-1v.9l-2.7,1.5c-.3-.6,1-3.2,1.2-3.8,1.5-2.7-.3-3.7-.4-1.2l-.8.5c0-3.8,5.2-5.2,1,3Z"/>
                    <path class="st26" d="M191.7,554v-3.5c-.3-1.4,2.5-4,2.7-1.6,0,0,0,3.5,0,3.5.3,1.4-2.5,4-2.7,1.6ZM193.5,553c-.2-.3.5-4.6-.5-3.8-.9.4-.4,3.7-.5,4.4,0,1,1.1,0,1-.6Z"/>
                  </g>
                  <g>
                    <path class="st26" d="M217.3,538.7c.6,1.7-2.6,5-2.7,2l.8-.6c-.2,1.3,1.1.5,1-.3,0-.9,0-1.6-1-.8v-.9c.8-.3,1-1,.9-1.8-.1-1-1.2.2-1,.8l-.8.5c0-3.6,4.3-3.5,2,.3.4,0,.7.3.7.9Z"/>
                    <path class="st26" d="M217.9,538.9c.1-1.7-.6-4.9,1.4-5.8,2.2-1.3,1.1,3.4,1.4,4.3.3,1.4-2.5,4-2.7,1.6ZM219.8,537.8c-.2-.3.5-4.6-.5-3.8-.9.4-.4,3.7-.5,4.4,0,1,1.1,0,1-.6Z"/>
                  </g>
                  <g>
                    <path class="st26" d="M243.7,524.1l-.5.3v1.3l-.8.5v-1.3l-1.6,1c-.3-.5,1.4-5.4,1.5-5.9l1-.6v4.2l.5-.3v.9ZM242.4,524v-2.5l-.9,3,.9-.5Z"/>
                    <path class="st26" d="M244.2,523.7v-3.5c-.3-1.4,2.5-4,2.7-1.6,0,0,0,3.5,0,3.5.3,1.4-2.5,4-2.7,1.6ZM246.1,522.6c-.2-.3.5-4.6-.5-3.8-.9.4-.4,3.7-.5,4.4,0,1,1.1,0,1-.6Z"/>
                  </g>
                  <g>
                    <path class="st26" d="M267.1,510.5v-.2l.8-.6c-.2,1.3,1.1.6,1-.3,0,0,0-1.5,0-1.5-.1-1-1.1.2-1,.7l-.8.5v-3.7l2.4-1.4v.9l-1.6.9v1.6c1.6-2.4,2-.4,1.8,1.4.3,1.4-2.5,4-2.7,1.5Z"/>
                    <path class="st26" d="M270.4,508.6v-3.5c-.3-1.4,2.5-4,2.7-1.6,0,0,0,3.5,0,3.5.3,1.4-2.5,4-2.7,1.6ZM272.3,507.5v-3.5c0-1-1.1,0-1,.6,0,0,0,3.5,0,3.5,0,1,1.1,0,1-.6Z"/>
                  </g>
                  <g>
                    <path class="st26" d="M293.3,495.4v-3.5c-.3-1.5,2.7-4,2.6-1.3l-.8.5c.2-1.2-1.1-.4-1,.3,0,0,0,1.5,0,1.5,1.3-2.1,2.1-1,1.8,1,.3,1.4-2.5,3.9-2.7,1.6ZM295.2,494.4v-1.1c0-1-1.1.1-1,.6,0,0,0,1.1,0,1.1,0,.9,1.1,0,1-.6Z"/>
                    <path class="st26" d="M296.7,493.4v-3.5c-.3-1.4,2.5-4,2.7-1.6,0,0,0,3.5,0,3.5.3,1.4-2.5,4-2.7,1.6ZM298.6,492.3c-.2-.3.5-4.6-.5-3.8-.9.4-.4,3.7-.5,4.4,0,1,1.1,0,1-.6Z"/>
                  </g>
                  <g>
                    <path class="st26" d="M321.9,473.9c.2.2-1.3,6.8-1.3,7.2l-.9.5,1.4-6.3-1.7,1v-.9l2.6-1.5Z"/>
                    <path class="st26" d="M322.5,478.5c.1-1.7-.6-4.9,1.4-5.8,2.2-1.3,1.1,3.4,1.4,4.3.3,1.4-2.5,4-2.7,1.6ZM324.3,477.5c-.2-.3.5-4.6-.5-3.8-.9.4-.4,3.7-.5,4.4,0,1,1.1,0,1-.6Z"/>
                  </g>
                </g>
              </g>
              <g>
                <g>
                  <polygon class="st27" points="106 516.9 93.8 524 93.8 518.9 106 511.9 106 516.9"/>
                  <polygon class="st39" points="106 526 93.8 533 93.8 528 106 520.9 106 526"/>
                  <polygon class="st52" points="106 535 93.8 542 93.8 537 106 530 106 535"/>
                  <polygon class="st37" points="106 544.1 93.8 551.1 93.8 546 106 539 106 544.1"/>
                  <polygon class="st5" points="106 553.1 93.8 560.1 93.8 555.1 106 548.1 106 553.1"/>
                  <polygon class="st40" points="106 562.2 93.8 569.2 93.8 564.1 106 557.1 106 562.2"/>
                  <polygon class="st3" points="106 571.2 93.8 578.2 93.8 573.2 106 566.2 106 571.2"/>
                  <polygon class="st41" points="106 580.3 93.8 587.3 93.8 582.2 106 575.2 106 580.3"/>
                  <polygon class="st29" points="106 589.3 93.8 596.3 93.8 591.3 106 584.3 106 589.3"/>
                  <polygon class="st29" points="106 598.4 93.8 605.4 93.8 600.3 106 593.3 106 598.4"/>
                  <polygon class="st26" points="106 607.4 93.8 614.4 93.8 609.4 106 602.4 106 607.4"/>
                  <polygon class="st26" points="106 616.4 93.8 623.5 93.8 618.4 106 611.4 106 616.4"/>
                  <path class="st2" d="M110.2,618.2l-21,12.1v-113.5l21-12.1v113.5ZM89.9,629l19.5-11.3v-111.8l-19.5,11.3v111.8Z"/>
                </g>
                <g>
                  <polygon class="st27" points="134.4 500.6 122.2 507.6 122.2 502.5 134.4 495.5 134.4 500.6"/>
                  <polygon class="st39" points="134.4 509.6 122.2 516.6 122.2 511.6 134.4 504.6 134.4 509.6"/>
                  <polygon class="st52" points="134.4 518.7 122.2 525.7 122.2 520.6 134.4 513.6 134.4 518.7"/>
                  <polygon class="st37" points="134.4 527.7 122.2 534.7 122.2 529.7 134.4 522.7 134.4 527.7"/>
                  <polygon class="st5" points="134.4 536.7 122.2 543.8 122.2 538.7 134.4 531.7 134.4 536.7"/>
                  <polygon class="st26" points="134.4 545.8 122.2 552.8 122.2 547.8 134.4 540.7 134.4 545.8"/>
                  <polygon class="st26" points="134.4 554.8 122.2 561.9 122.2 556.8 134.4 549.8 134.4 554.8"/>
                  <polygon class="st26" points="134.4 563.9 122.2 570.9 122.2 565.9 134.4 558.8 134.4 563.9"/>
                  <polygon class="st29" points="134.4 572.9 122.2 579.9 122.2 574.9 134.4 567.9 134.4 572.9"/>
                  <polygon class="st29" points="134.4 582 122.2 589 122.2 583.9 134.4 576.9 134.4 582"/>
                  <polygon class="st29" points="134.4 591 122.2 598 122.2 593 134.4 586 134.4 591"/>
                  <polygon class="st29" points="134.4 600.1 122.2 607.1 122.2 602 134.4 595 134.4 600.1"/>
                  <path class="st2" d="M138.5,601.8l-21,12.1v-113.5l21-12.1v113.5ZM118.3,612.6l19.5-11.3v-111.8l-19.5,11.3v111.8Z"/>
                </g>
              </g>
            </g>
            <g>
              <g>
                <path class="st26" d="M96.4,672c-2.4-8.5.6-17.3,5.8-25.4l3.9,3.5c-3.4,5.2-5.3,10.8-3.7,16.3l-6,5.7Z"/>
                <path class="st47" d="M113,675.5c-7.2,4.2-13.6,2.5-15.9-4.1l4.5-4.3c1.6,4.8,6.2,5.9,11.3,3v5.5Z"/>
                <path class="st26" d="M113,678v-10.5c2.7-1.5,5.1-4.2,7-7.4l6.5,3.6c-3.6,6.3-8.4,11.4-13.5,14.4Z"/>
                <path class="st29" d="M125.2,662.8l-3.9-2.1c2.1-3.7,3.3-7.7,3.3-11.2l5.4-3.1c0,5.1-1.7,11-4.8,16.5Z"/>
                <path class="st22" d="M131.3,645.7l-7.9,4.6c0-2.1-.5-3.8-1.4-5.1l6.9-8.5c1.6,2.3,2.4,5.4,2.4,9.1Z"/>
                <path class="st6" d="M123.7,643c-1.1-1.6-2.8-2.6-4.8-2.7l1.9-5.2c2.7.1,4.9,1.4,6.4,3.5l-3.5,4.3Z"/>
                <path class="st29" d="M107.5,651.3l-6.7-6c5.3-7.7,12.8-14.7,21.7-14.6l-5.2,14c-4,0-7.3,3.1-9.7,6.6Z"/>
              </g>
              <g>
                <polygon class="st22" points="254.3 561.6 147.1 623.4 147.1 618.8 254.3 556.9 254.3 561.6"/>
                <path class="st45" d="M254.3,556.9l-64.5,37.2c-3-2.3-6.7,3.3-6.5,6.1.2,5,5.7,1.5,6.5-1.4l64.5-37.2v-4.7Z"/>
                <polygon class="st22" points="254.3 579.9 147.1 641.7 147.1 637.1 254.3 575.2 254.3 579.9"/>
                <path class="st45" d="M209,599.5c-1.2.7-2.3,2.1-3,3.5l-59,34.1v4.7l59-34.1c4.6,3.7,10.4-11,3-8.2Z"/>
                <polygon class="st22" points="254.3 598.2 147.1 660 147.1 655.4 254.3 593.5 254.3 598.2"/>
                <path class="st45" d="M254.3,593.5l-26.9,15.5c-3-2.3-6.7,3.3-6.5,6.1.2,5,5.7,1.5,6.5-1.4l26.9-15.5v-4.7Z"/>
                <g>
                  <g>
                    <path class="st26" d="M147.3,613v-2c-.2-.8,1.5-2.3,1.6-.9,0,0,0,2,0,2,.2.8-1.5,2.3-1.6.9ZM148.4,612.4c-.1-.2.3-2.6-.3-2.2-.5.2-.2,2.2-.3,2.6,0,.6.7,0,.6-.3Z"/>
                    <path class="st26" d="M149.8,609.5l-.6.3v-.4c.4-.3.6-.6.7-.8l.3-.2v3.7l-.5.3v-2.9Z"/>
                    <path class="st26" d="M151.2,608.7l-.6.3v-.4c.4-.3.6-.6.7-.8l.3-.2v3.7l-.5.3v-2.9Z"/>
                    <path class="st26" d="M152.2,610.2v-2c-.2-.8,1.5-2.3,1.6-.9,0,0,0,2,0,2,.2.8-1.5,2.3-1.6.9ZM153.3,609.6c-.1-.2.3-2.6-.3-2.2-.5.2-.2,2.2-.3,2.6,0,.6.7,0,.6-.3Z"/>
                    <path class="st26" d="M154.6,606.7l-.6.3v-.4c.4-.3.6-.6.7-.8l.3-.2v3.7l-.5.3v-2.9Z"/>
                  </g>
                  <g>
                    <path class="st26" d="M147.3,633.2v-2c-.2-.8,1.5-2.3,1.6-.9,0,0,0,2,0,2,.2.8-1.5,2.3-1.6.9ZM148.4,632.5c-.1-.2.3-2.6-.3-2.2-.5.2-.2,2.2-.3,2.6,0,.6.7,0,.6-.3Z"/>
                    <path class="st26" d="M149.8,629.7l-.6.3v-.4c.4-.3.6-.6.7-.8l.3-.2v3.7l-.5.3v-2.9Z"/>
                    <path class="st26" d="M151.2,628.8l-.6.3v-.4c.4-.3.6-.6.7-.8l.3-.2v3.7l-.5.3v-2.9Z"/>
                    <path class="st26" d="M152.2,630.3v-2c-.2-.8,1.5-2.3,1.6-.9,0,0,0,2,0,2,.2.8-1.5,2.3-1.6.9ZM153.3,629.7c-.1-.2.3-2.6-.3-2.2-.5.2-.2,2.2-.3,2.6,0,.6.7,0,.6-.3Z"/>
                    <path class="st26" d="M154.6,626.8l-.6.3v-.4c.4-.3.6-.6.7-.8l.3-.2v3.7l-.5.3v-2.9Z"/>
                  </g>
                  <g>
                    <path class="st26" d="M147.3,652v-2c-.2-.8,1.5-2.3,1.6-.9,0,0,0,2,0,2,.2.8-1.5,2.3-1.6.9ZM148.4,651.4v-2c0-.6-.7,0-.6.3,0,.3-.3,3.7.6,1.7Z"/>
                    <path class="st26" d="M149.8,648.5l-.6.3v-.4c.4-.3.6-.6.7-.8l.3-.2v3.7l-.5.3v-2.9Z"/>
                    <path class="st26" d="M151.2,647.6l-.6.3v-.4c.4-.3.6-.6.7-.8l.3-.2v3.7l-.5.3v-2.9Z"/>
                    <path class="st26" d="M152.2,649.2v-2c-.2-.8,1.5-2.3,1.6-.9,0,0,0,2,0,2,.2.8-1.5,2.3-1.6.9ZM153.3,648.5v-2c0-.6-.7,0-.6.3,0,.3-.3,3.7.6,1.7Z"/>
                    <path class="st26" d="M154.6,645.7l-.6.3v-.4c.4-.3.6-.6.7-.8l.3-.2v3.7l-.5.3v-2.9Z"/>
                  </g>
                </g>
              </g>
            </g>
            <g>
              <g>
                <polygon class="st26" points="279 552.3 273.1 555.7 273.1 546 279 542.6 279 552.3"/>
                <g>
                  <rect class="st26" x="284.3" y="523.3" width="59.7" height=".5" transform="translate(-219.4 226.7) rotate(-29.9)"/>
                  <rect class="st26" x="276.6" y="528.8" width="67.9" height=".5" transform="translate(-222.6 225.7) rotate(-29.9)"/>
                  <rect class="st26" x="276.6" y="532.5" width="67.9" height=".5" transform="translate(-224.5 226.2) rotate(-29.9)"/>
                </g>
              </g>
              <g>
                <polygon class="st51" points="279 568.1 273.1 571.5 273.1 561.8 279 558.4 279 568.1"/>
                <g>
                  <rect class="st26" x="284.3" y="539.1" width="59.7" height=".5" transform="translate(-227.3 228.9) rotate(-30)"/>
                  <rect class="st26" x="276.6" y="544.6" width="67.9" height=".5" transform="translate(-230.5 227.8) rotate(-30)"/>
                  <rect class="st26" x="276.6" y="548.3" width="67.9" height=".5" transform="translate(-232.4 228.3) rotate(-30)"/>
                </g>
              </g>
              <g>
                <polygon class="st54" points="279 583.9 273.1 587.3 273.1 577.6 279 574.2 279 583.9"/>
                <g>
                  <rect class="st26" x="284.3" y="554.9" width="59.7" height=".5" transform="translate(-235.2 231) rotate(-30)"/>
                  <rect class="st26" x="276.6" y="560.4" width="67.9" height=".5" transform="translate(-238.4 229.9) rotate(-29.9)"/>
                  <rect class="st26" x="276.6" y="564.1" width="67.9" height=".5" transform="translate(-240.3 230.4) rotate(-30)"/>
                </g>
              </g>
            </g>
          </g>
          <polygon class="st22" points="191.1 264.4 74.3 331.8 74.3 314.7 191.1 247.3 191.1 264.4"/>
          <g>
            <polygon class="st22" points="518.2 58.5 464.8 89.4 464.8 83.6 518.2 52.8 518.2 58.5"/>
            <polygon class="st22" points="518.2 69.2 464.8 100.1 464.8 94.3 518.2 63.5 518.2 69.2"/>
            <polygon class="st22" points="518.2 79.9 464.8 110.8 464.8 105 518.2 74.2 518.2 79.9"/>
          </g>
        </g>
      </g>
      <g>
        <path class="st9" d="M585.3,757.4c-19.5,11.3-51.2,11.3-70.7,0-19.5-11.3-19.5-29.6,0-40.8,19.5-11.3,51.2-11.3,70.7,0,19.5,11.3,19.5,29.6,0,40.8Z"/>
        <g>
          <path class="st8" d="M560.5,742.7v5.5c-.8,6.3-11.8,3.1-16.2,3v-1.4c-8.6-1.4-25.9-1.9-29.5-8.9,0,0,.2-3.9.2-3.9l45.5,5.7Z"/>
          <path class="st11" d="M543.5,747.3c-7.4-.5-25.9-1.5-28.6-9.2-.7-1.6.7-3.7,3.4-4.3,8.8-1.2,14.6.9,22-5l18.8,2.1c4.3,14.4,2.4,20.4-15.6,16.5h0Z"/>
          <path class="st13" d="M589.3,736.8c1.3,6.3-4,7.7-12.1,7.3-3.9-1.2-7.3-3.2-10.3-5.5l.5-1.6c-5.9-3.7-14.5-6.9-19.7-9.8-2.9-1.7-5.2-6.5-2.7-8.9l42.6,12.8,1.8,5.7h0Z"/>
          <path class="st11" d="M589.3,726.3c3.7,12.1-1.9,17.9-16.2,13,0,0-8.2-5.7-8.2-5.7-7.2-3.4-16.3-6.4-21-13.5.1-3.8,2.3-6,4.6-5.5,8.3.4,15.8,2.3,23.3,2.7l17.6,8.9Z"/>
          <g>
            <path class="st7" d="M561.1,535.3c-.9,42.4-1.4,84.8,5,126.3,0,0,0,58.3,0,58.3,8.9,16.2,16.8,16.2,24.2,10.3,5-31.2,6-62.3,1.1-93.6,7.4-57,28.6-81.2-26.1-125.4l-4.3,24.1h0Z"/>
            <g class="st55">
              <path class="st18" d="M588.6,520.4c5.3,22.2,5.9,43.3-1.2,62.5,0,0-1.1,5.5-2.5,13-10.5,49.7,2.4,112.5-11.2,157.6,0,0-37-19.8-33.6-19.6,32.3,1.6,20.5-235.2,20.5-235.2l19.5,19.7,8.5,2Z"/>
            </g>
          </g>
          <g>
            <path class="st7" d="M531.4,545.1c-.9,42.4-1.4,84.8,5,126.3,0,0,0,58.3,0,58.3,8.9,16.2,16.8,16.2,24.2,10.3,5-31.2,6-62.3,1.1-93.6l11.9-46.7s15.5-24.5,2-43.2c-13.5-18.8-23.3-9.4-23.3-9.4l-21-2.1h0Z"/>
            <g class="st33">
              <path class="st18" d="M556.8,512.6c6.9,42.1.5,91.3-9.2,132.5,0,0,3,119.4,3,119.4,0,0-65.2-18.4-62.9-20.9,2.3-2.5,10.1-196.9,10.1-196.9l52.6-18.5,6.4-15.6h0Z"/>
            </g>
          </g>
          <g>
            <path class="st14" d="M528.7,575c23.6,26.3,55.6,12.8,76.4-12.4-14.6-42.1-2.2-61.5,6.6-104.5-3.3-37.6-41.7-12.1-57.2,0-12,7.1-20,14.7-18.3,23.6l-7.5,93.3h0Z"/>
            <g class="st50">
              <path class="st10" d="M556.8,605.7c-7.4-19.4-12.5-47.1-8.7-68.8,1.1-8.4,2.6-16.6,4.4-22.1,5.1-15.7,2.5-48-9.6-47.1-35.9,62.2-36.4,43.9-39.8,117.8l53.8,20.1Z"/>
            </g>
          </g>
          <g>
            <path class="st17" d="M557.9,453.6s3.1-13-6.2-16c-8.8-7.8-8.2-34.6,1.8-47.6l33.9,19.4-5,23.3c-.7,5,1.1,9.7-4.1,13l-20.4,7.8h0Z"/>
            <g class="st42">
              <path class="st12" d="M547.6,441.4l4.1-3.9s11.2.6,14-3.4c0,0-.7,5.9-9.6,9.6l-8.5-2.3h0Z"/>
            </g>
          </g>
          <path class="st16" d="M582.2,391.3c11.4,9.3,13.7,19.4,10.3,30-2.7,8.2-11.2,23.4-22.4,14.9.3-2.2-.2-27-10.8-14.4,0,0,.4-6.7-4.3-9.6,0,0-9.2-9.9-8.7-14.2.8-23.5,24.4-16.6,35.9-6.6h0Z"/>
          <path class="st15" d="M556.1,456.5l.7-5.7c10.3-1.5,18.9-5.5,25.6-12.8,10.5,7.1-11.9,16.6-18.3,17.4-2.9.3-5.7.6-8,1.1h0Z"/>
          <path class="st36" d="M535.6,415.4s4.6-2.7,6.3-5.2c1.7-2.4,6.4-7.6,6.4-7.6,3.8-2.9,10.1-8.7,16.4-4.9.3.9,1.3,2.5-1.9,5.3-3.5,3-5,4.2-5,4.2l-2.7,3.2c2.1-.8,5.4-2.5,7.7-2.4,3.6,0,2.7,1.3.4,2.6-3.7,1.5-5.8,5.2-9.4,6.9-2.4.4-8,5.1-9.8,6.6l-8.4-8.8h0Z"/>
          <path class="st14" d="M526.3,456.2l-2.5-7c4.7-9.8,16.2-16.5,22.9-25.3-1.7-5-4.3-9.1-8-12.1-13.1,5-25.2,17.5-34.3,27.5,0,0-7,7.3-4.3,15.8,2.7,8.5,11.2,4.1,11.2,4.1l15.1-3.1h0Z"/>
          <path class="st14" d="M551.8,483.9c-25.2,18.1-40,3.9-51.7-28.6,0,0,7.6-11,23.9-6.2,0,0,5.9,5.8,10.2,10.1,3,3,6.4,5.6,10,7.9,7.2,4,15.4,8.4,7.6,16.9h0Z"/>
        </g>
      </g>
    </g>
  </g>
</svg>