<?xml version="1.0" encoding="UTF-8"?>
<svg xmlns="http://www.w3.org/2000/svg" version="1.1" xmlns:xlink="http://www.w3.org/1999/xlink" viewBox="0 0 707.8 835.5">
  <!-- Generator: Adobe Illustrator 29.3.1, SVG Export Plug-In . SVG Version: 2.1.0 Build 151)  -->
  <defs>
    <style>
      .st0 {
        fill: #42476a;
      }

      .st1 {
        fill: #feefb9;
      }

      .st2 {
        fill: #575e8d;
      }

      .st3 {
        fill: #20669b;
      }

      .st4 {
        fill: #f4f6fb;
      }

      .st5 {
        fill: #1e5f8a;
      }

      .st6 {
        fill: #074266;
      }

      .st7, .st8, .st9, .st10, .st11, .st12, .st13, .st14, .st15, .st16, .st17, .st18 {
        fill-rule: evenodd;
      }

      .st7, .st19 {
        fill: #234266;
      }

      .st20 {
        fill: #bdc0da;
      }

      .st21 {
        fill: #f6eb16;
      }

      .st8 {
        fill: #25120f;
      }

      .st22 {
        fill: #fff;
      }

      .st9 {
        opacity: .4;
      }

      .st9, .st23 {
        fill: #818181;
        mix-blend-mode: multiply;
      }

      .st10 {
        fill: #e4bc33;
      }

      .st24 {
        fill: #3f92cf;
      }

      .st25 {
        fill: #fce9a5;
      }

      .st26 {
        fill: #6d75b0;
      }

      .st11 {
        fill: #462c1a;
      }

      .st27 {
        fill: #243b58;
      }

      .st28 {
        fill: #e4e5ef;
      }

      .st29, .st30, .st14 {
        fill: #fdd23c;
      }

      .st30, .st31, .st19 {
        clip-rule: evenodd;
      }

      .st32 {
        fill: #fee282;
      }

      .st33 {
        clip-path: url(#clippath-1);
      }

      .st34 {
        fill: #888;
      }

      .st31, .st17 {
        fill: #fed2a5;
      }

      .st35 {
        isolation: isolate;
      }

      .st12, .st36 {
        fill: #f2ba87;
      }

      .st37 {
        fill: #22557b;
      }

      .st38 {
        fill: #e2e3ee;
      }

      .st39 {
        fill: #1c4f6f;
      }

      .st40 {
        fill: #1b6093;
      }

      .st41 {
        fill: #09528a;
      }

      .st42 {
        clip-path: url(#clippath-3);
      }

      .st43 {
        fill: #878ebe;
      }

      .st13 {
        fill: #26120e;
      }

      .st44 {
        fill: #949ac5;
      }

      .st45 {
        fill: #4e527b;
      }

      .st15 {
        fill: #243b7b;
      }

      .st16 {
        fill: #010101;
      }

      .st46 {
        fill: #c5c8de;
      }

      .st47 {
        fill: #afb4d3;
      }

      .st18 {
        fill: #10233e;
      }

      .st48 {
        fill: #8dc1e3;
      }

      .st49 {
        clip-path: url(#clippath-2);
      }

      .st50 {
        fill: #a3a7cc;
      }

      .st23 {
        opacity: .3;
      }

      .st51 {
        fill: #225573;
      }

      .st52 {
        fill: #dcdbdb;
      }

      .st53 {
        fill: #cbcce2;
      }

      .st54 {
        clip-path: url(#clippath);
      }
    </style>
    <clipPath id="clippath">
      <path class="st19" d="M626.5,578.5c-.9,42.4-1.4,84.8,5,126.3,0,0,0,58.3,0,58.3,8.9,16.2,16.8,16.2,24.2,10.3,5-31.2,6-62.3,1.1-93.6,7.4-57,28.6-81.2-26.1-125.4l-4.3,24.1h0Z"/>
    </clipPath>
    <clipPath id="clippath-1">
      <path class="st19" d="M596.8,588.2c-.9,42.4-1.4,84.8,5,126.3,0,0,0,58.3,0,58.3,8.9,16.2,16.8,16.2,24.2,10.3,5-31.2,6-62.3,1.1-93.6l11.9-46.7s15.5-24.5,2-43.2c-13.5-18.8-23.3-9.4-23.3-9.4l-21-2.1h0Z"/>
    </clipPath>
    <clipPath id="clippath-2">
      <path class="st30" d="M594.1,618.2c23.6,26.3,55.6,12.8,76.4-12.4-14.6-42.1-2.2-61.5,6.6-104.5-3.3-37.6-41.7-12.1-57.2,0-12,7.1-20,14.7-18.3,23.6l-7.5,93.3h0Z"/>
    </clipPath>
    <clipPath id="clippath-3">
      <path class="st31" d="M623.3,496.7s3.1-13-6.2-16c-8.8-7.8-8.2-34.6,1.8-47.6l33.9,19.4-5,23.3c-.7,5,1.1,9.7-4.1,13l-20.4,7.8h0Z"/>
    </clipPath>
  </defs>
  <g class="st35">
    <g id="Layer_2">
      <g>
        <polygon class="st23" points="47.5 732.5 15 713.7 497.7 435.2 530.2 454 47.5 732.5"/>
        <g class="st35">
          <polygon class="st52" points="47.2 343.7 27.9 332.5 494.8 62.9 514.1 74.1 47.2 343.7"/>
          <polygon class="st34" points="48.3 724 29 712.7 27.8 288.8 47.1 300.1 48.3 724"/>
          <polygon class="st45" points="47.2 343.7 27.9 332.5 27.8 288.8 47.1 300.1 47.2 343.7"/>
          <polygon class="st26" points="514 30.5 514.1 74.1 47.2 343.7 47.1 300.1 514 30.5"/>
          <polygon class="st43" points="47.1 300.1 27.8 288.8 494.7 19.3 514 30.5 47.1 300.1"/>
          <polygon class="st28" points="47.1 300.1 47.2 343.7 514.1 74.1 515.2 454.4 48.3 724 47.1 300.1"/>
        </g>
        <g>
          <g>
            <polygon class="st4" points="145.9 437.9 58 488.6 58 413.6 145.9 362.9 145.9 437.9"/>
            <path class="st53" d="M102.3,430.1c0,11.5-8.1,25.4-18,31.2-9.9,5.7-18,1.1-18-10.4s8.1-25.4,18-31.2v20.8l18-10.4Z"/>
            <path class="st29" d="M105.4,424.8l-18,10.4v-20.8c9.9-5.7,18-1.1,18,10.4Z"/>
            <g>
              <g>
                <polygon class="st26" points="121.2 407.3 115.3 410.7 115.3 402.5 121.2 399.1 121.2 407.3"/>
                <g>
                  <rect class="st26" x="129.8" y="392.2" width="9.2" height=".5" transform="translate(-178.2 119.7) rotate(-30)"/>
                  <rect class="st26" x="122.2" y="397.2" width="17.4" height=".5" transform="translate(-180 117.4) rotate(-29.8)"/>
                  <rect class="st26" x="122.2" y="400.4" width="17.4" height=".5" transform="translate(-181.6 117.8) rotate(-29.8)"/>
                </g>
              </g>
              <g>
                <polygon class="st50" points="121.2 420.8 115.3 424.1 115.3 415.9 121.2 412.5 121.2 420.8"/>
                <g>
                  <rect class="st26" x="129.8" y="405.7" width="9.2" height=".5" transform="translate(-184.9 121.5) rotate(-30)"/>
                  <rect class="st26" x="122.2" y="410.6" width="17.4" height=".5" transform="translate(-186.7 119.2) rotate(-29.8)"/>
                  <rect class="st26" x="122.2" y="413.8" width="17.4" height=".5" transform="translate(-188.3 119.6) rotate(-29.8)"/>
                </g>
              </g>
              <g>
                <polygon class="st53" points="121.2 434.2 115.3 437.6 115.3 429.4 121.2 426 121.2 434.2"/>
                <g>
                  <rect class="st26" x="129.8" y="419.1" width="9.2" height=".5" transform="translate(-191.6 123.3) rotate(-30)"/>
                  <rect class="st26" x="122.2" y="424.1" width="17.4" height=".5" transform="translate(-193.4 121) rotate(-29.8)"/>
                  <rect class="st26" x="122.2" y="427.3" width="17.4" height=".5" transform="translate(-195 121.4) rotate(-29.8)"/>
                </g>
              </g>
            </g>
          </g>
          <g>
            <polygon class="st4" points="336 328.1 248.1 378.8 248.1 303.9 336 253.1 336 328.1"/>
            <g>
              <g>
                <polygon class="st29" points="311.5 297.4 305.7 300.8 305.7 292.6 311.5 289.2 311.5 297.4"/>
                <g>
                  <rect class="st26" x="320.2" y="282.3" width="9.2" height=".5" transform="translate(-97.8 200.2) rotate(-30)"/>
                  <rect class="st26" x="312.5" y="287.3" width="17.4" height=".5" transform="translate(-100.4 197.4) rotate(-29.8)"/>
                  <rect class="st26" x="312.5" y="290.5" width="17.4" height=".5" transform="translate(-101.9 197.8) rotate(-29.8)"/>
                </g>
              </g>
              <g>
                <polygon class="st50" points="311.5 310.9 305.7 314.2 305.7 306 311.5 302.6 311.5 310.9"/>
                <g>
                  <rect class="st26" x="320.2" y="295.8" width="9.2" height=".5" transform="translate(-104.5 202) rotate(-30)"/>
                  <rect class="st26" x="312.5" y="300.7" width="17.4" height=".5" transform="translate(-107 199.2) rotate(-29.8)"/>
                  <rect class="st26" x="312.5" y="303.9" width="17.4" height=".5" transform="translate(-108.6 199.6) rotate(-29.8)"/>
                </g>
              </g>
              <g>
                <polygon class="st32" points="311.5 324.3 305.7 327.7 305.7 319.5 311.5 316.1 311.5 324.3"/>
                <g>
                  <rect class="st26" x="320.2" y="309.2" width="9.2" height=".5" transform="translate(-111.2 203.7) rotate(-30)"/>
                  <rect class="st26" x="312.5" y="314.2" width="17.4" height=".5" transform="translate(-113.7 201) rotate(-29.8)"/>
                  <rect class="st26" x="312.5" y="317.4" width="17.4" height=".5" transform="translate(-115.3 201.4) rotate(-29.8)"/>
                </g>
              </g>
            </g>
            <g>
              <polygon class="st29" points="258.6 323.6 261.8 323.2 267.2 313.2 279 315.2 283.2 308.8 290.5 311.3 294.6 300.9 300.5 301.1 300.5 327.6 254.9 353.9 254.9 331.7 258.6 323.6"/>
              <polygon class="st2" points="290.6 311.7 283.2 309.2 279 315.6 267.2 313.6 261.8 323.5 258.7 323.9 255.2 331.7 254.7 331.6 258.5 323.3 261.7 322.8 267.1 312.8 279 314.8 283.2 308.4 290.4 310.8 294.5 300.5 300.6 300.7 300.4 301.5 294.7 301.2 290.6 311.7"/>
              <polygon class="st2" points="255.2 357.9 254.7 358.2 254.7 317 255.2 316.6 255.2 357.9"/>
              <polygon class="st2" points="298.9 328.9 252.2 355.9 252.2 355.2 298.9 328.2 298.9 328.9"/>
              <polygon class="st2" points="262.7 349.5 262.1 349.8 262.1 334.9 262.7 334.6 262.7 349.5"/>
              <path class="st2" d="M263.3,334.3c0,.6-.4,1.2-.9,1.5-2.2.7.4-3.8.9-1.5Z"/>
              <polygon class="st2" points="291.1 333.1 290.6 333.4 290.6 318.5 291.1 318.2 291.1 333.1"/>
              <path class="st2" d="M291.7,317.8c0,.6-.4,1.2-.9,1.5-2.2.7.4-3.8.9-1.5Z"/>
              <polygon class="st2" points="270.4 345 269.9 345.3 269.9 337 270.4 336.6 270.4 345"/>
              <path class="st2" d="M271.1,336.2c0,.6-.4,1.2-.9,1.5-2.2.7.4-3.8.9-1.5Z"/>
              <polygon class="st2" points="279.5 339.7 279 340.1 279 320.2 279.5 319.8 279.5 339.7"/>
              <path class="st2" d="M280.1,319.2c0,.6-.4,1.2-.9,1.5-2.2.7.4-3.8.9-1.5Z"/>
            </g>
          </g>
          <g>
            <polygon class="st4" points="240.9 383 153.1 433.7 153.1 358.8 240.9 308 240.9 383"/>
            <g>
              <polygon class="st2" points="231.9 330.4 204.6 346.2 204.6 345.8 231.9 330.1 231.9 330.4"/>
              <polygon class="st2" points="231.9 346.6 204.6 362.3 204.6 362 231.9 346.3 231.9 346.6"/>
              <polygon class="st29" points="212.4 354.5 204.6 359 204.6 349.7 212.4 345.2 212.4 354.5"/>
              <g>
                <polygon class="st2" points="232 334.7 221.8 340.6 221.8 340.3 232 334.4 232 334.7"/>
                <polygon class="st2" points="232 336.7 214.7 346.6 214.7 346.3 232 336.4 232 336.7"/>
                <polygon class="st2" points="232 338.8 214.7 348.8 214.7 348.4 232 338.5 232 338.8"/>
                <polygon class="st2" points="232 340.9 214.7 350.9 214.7 350.6 232 340.6 232 340.9"/>
                <polygon class="st2" points="232 343 214.7 353 214.7 352.7 232 342.7 232 343"/>
              </g>
            </g>
            <g>
              <polygon class="st2" points="231.9 355.1 204.6 370.9 204.6 370.6 231.9 354.8 231.9 355.1"/>
              <polygon class="st2" points="231.9 371.3 204.6 387.1 204.6 386.8 231.9 371 231.9 371.3"/>
              <polygon class="st25" points="212.4 379.3 204.6 383.8 204.6 374.4 212.4 369.9 212.4 379.3"/>
              <g>
                <polygon class="st2" points="232 359.4 221.8 365.3 221.8 365 232 359.1 232 359.4"/>
                <polygon class="st2" points="232 361.4 214.7 371.4 214.7 371.1 232 361.1 232 361.4"/>
                <polygon class="st2" points="232 363.5 214.7 373.5 214.7 373.2 232 363.2 232 363.5"/>
                <polygon class="st2" points="232 365.6 214.7 375.6 214.7 375.3 232 365.3 232 365.6"/>
                <polygon class="st2" points="232 367.8 214.7 377.7 214.7 377.4 232 367.5 232 367.8"/>
              </g>
            </g>
            <g>
              <path class="st26" d="M178,402.5c-.4.2-.9.5-1.3.7l.2-3c.8-.4,1.6-.8,2.3-1.3l.2,2.7c-.4.3-.9.6-1.4.8ZM182,399.6l-.6-2.5c.7-.6,1.5-1.3,2.2-2.1l.9,2.1c-.8.9-1.7,1.7-2.6,2.4ZM174.1,404.2c-.9.3-1.7.5-2.5.6l.9-3.2c.7-.1,1.5-.3,2.2-.5l-.5,3.1ZM169.1,404.9c-.8,0-1.5-.2-2.2-.4l1.5-3.1c.6.2,1.2.3,1.9.4l-1.2,3.2ZM187,394.5l-1.2-1.8c.7-.8,1.3-1.7,1.9-2.6l1.5,1.3c-.7,1-1.4,2.1-2.2,3ZM164.9,403.5c-.6-.4-1.2-.9-1.7-1.5l2.1-2.8c.4.5.9.9,1.4,1.3l-1.8,3ZM191.1,388.3l-1.8-.9c.5-.9,1-1.9,1.4-2.9l2,.4c-.5,1.1-1.1,2.3-1.7,3.4ZM161.9,400.1c-.4-.7-.7-1.5-.9-2.3l2.4-2.2c.2.7.5,1.4.8,2l-2.2,2.5ZM194.1,381.5h-2.2c.3-.9.6-1.9.8-2.9l2.4-.5c-.3,1.1-.6,2.3-1,3.4ZM160.4,395.1c-.1-.9-.2-1.9-.2-3l2.5-1.4c0,.9,0,1.8.2,2.6l-2.4,1.8ZM162.8,387.9l-2.4,1c.1-1.1.3-2.2.6-3.3l2.4-.6c-.2,1-.4,1.9-.5,2.9ZM164.1,382.1h-2.2c.4-1,.8-2.2,1.3-3.3l2.1.4c-.4,1-.8,2-1.1,3ZM166.6,376.2l-1.8-.9c.6-1.1,1.3-2.2,2-3.2l1.5,1.4c-.6.9-1.2,1.8-1.7,2.8ZM170.2,370.9l-1.2-1.8c.8-.9,1.6-1.8,2.4-2.7l.9,2.2c-.7.7-1.4,1.5-2.1,2.3ZM185.7,362c-.7,0-1.4,0-2.1,0l.9-3.2c.8-.1,1.6-.1,2.4,0l-1.2,3.2ZM174.5,366.6l-.5-2.5c.8-.7,1.7-1.4,2.6-2l.2,2.7c-.8.5-1.6,1.1-2.3,1.8ZM181.4,362.5c-.7.2-1.5.6-2.3.9l.2-2.9c.9-.4,1.8-.8,2.6-1.1l-.5,3.1Z"/>
              <path class="st20" d="M178,396.9c-7.2,4.2-13,.8-13-7.5l.4-.2c0,8,5.7,11.3,12.6,7.3,7-4,12.6-13.8,12.6-21.9s-5.7-11.3-12.6-7.3v-.5c7.2-4.2,13-.8,13,7.5s-5.9,18.4-13,22.6Z"/>
              <g>
                <path class="st29" d="M172.1,387.1v-3.8c-.3-1.6,2.9-4.3,2.9-1.4l-.9.5c.2-1.3-1.2-.4-1.1.3,0,0,0,1.6,0,1.6,1.4-2.2,2.3-1.1,2,1.1.3,1.5-2.7,4.3-2.9,1.7ZM174.1,386c0-.3.3-2.1-.5-1.6-.8.4-.6,1.5-.6,2.2,0,1,1.2,0,1.1-.6Z"/>
                <path class="st29" d="M175.8,385c.1-1.8-.6-5.4,1.5-6.4,2.4-1.4,1.2,3.7,1.5,4.7.3,1.5-2.7,4.3-2.9,1.7ZM177.8,383.9c-.2-.3.5-4.9-.6-4.2-1,.4-.4,4-.6,4.8,0,1.1,1.2,0,1.1-.6Z"/>
                <path class="st29" d="M179.5,380.2v-1.7c-.2-1,1.8-2.8,1.8-1.1,0,0,0,1.7,0,1.7.2,1-1.8,2.8-1.8,1.1ZM180.7,379.6c-.1-.2.3-2.5-.3-2.1-.6.2-.2,2-.3,2.5,0,.7.7,0,.6-.4ZM182.7,375.6l.6-.3-2.5,8.4-.6.3,2.5-8.4ZM182.2,381.8v-1.7c-.2-1,1.8-2.8,1.8-1.1,0,0,0,1.7,0,1.7.2,1-1.8,2.8-1.8,1.1ZM183.5,381.2c-.1-.2.3-2.5-.3-2.1-.6.2-.2,2-.3,2.5,0,.7.7,0,.6-.4Z"/>
              </g>
            </g>
          </g>
          <g>
            <polygon class="st32" points="128.5 360.4 58 401 58 360.1 128.5 319.4 128.5 360.4"/>
            <g>
              <rect class="st26" x="232.8" y="231.5" width="110.5" height="2" transform="translate(-77.7 175.2) rotate(-30)"/>
              <rect class="st26" x="140.5" y="270.7" width="209.4" height="2" transform="translate(-102.8 158.5) rotate(-29.9)"/>
              <rect class="st26" x="140.5" y="286.5" width="209.4" height="2" transform="translate(-110.7 160.6) rotate(-29.9)"/>
            </g>
          </g>
          <g>
            <polygon class="st44" points="501.8 229.7 352.1 316.2 352.1 190.3 501.8 103.9 501.8 229.7"/>
            <g>
              <g>
                <polygon class="st22" points="491.4 134 373.4 202.1 373.4 200.6 491.4 132.5 491.4 134"/>
                <polygon class="st22" points="491.4 150.1 373.4 218.2 373.4 216.7 491.4 148.6 491.4 150.1"/>
                <polygon class="st22" points="491.4 166.3 373.4 234.4 373.4 232.8 491.4 164.8 491.4 166.3"/>
                <polygon class="st22" points="491.4 182.4 373.4 250.5 373.4 249 491.4 180.9 491.4 182.4"/>
                <polygon class="st22" points="491.4 198.5 373.4 266.6 373.4 265.1 491.4 197 491.4 198.5"/>
                <polygon class="st22" points="491.4 214.7 373.4 282.8 373.4 281.3 491.4 213.2 491.4 214.7"/>
              </g>
              <g>
                <path class="st22" d="M364.4,201.4l-1.9,1.1v-1.3c1.3-.9,2.1-1.9,2.4-2.8l1.2-.7v12.7l-1.7,1v-9.9Z"/>
                <path class="st22" d="M364.7,226.1l3.3-1.9v1.8l-5.3,3v-1.7l2.4-5.9c3-6.1-.8-6.8-.8-2.3l-1.6.9c.3-7.9,8.6-8.2,3.8,1.6,0,0-1.8,4.4-1.8,4.4Z"/>
                <path class="st22" d="M368,238.4c1,3.9-5.3,9.6-5.3,3.9l1.6-1.1c-.3,2.6,2.2,1.1,2-.6,0-1.8.2-3.1-1.9-1.7v-1.8c1.5-.6,2-1.9,1.8-3.5-.2-2-2.3.3-1.9,1.6l-1.6.9c-.8-2.7,4.7-8.3,5.1-3.4,0,1.4-.2,2.8-1.2,3.9.8,0,1.3.6,1.3,1.8Z"/>
                <path class="st22" d="M368.4,256.3l-.9.5v2.6l-1.7,1v-2.6l-3.2,1.9c-.5-1,2.7-10.6,2.9-11.7l2-1.1v8.2l.9-.5v1.8ZM365.8,255.9v-5l-1.7,5.9,1.7-1Z"/>
                <path class="st22" d="M362.9,274.7v-.4l1.6-1.1c-.3,2.5,2.1,1.1,2-.5,0,0,0-2.9,0-2.9-.2-1.9-2.2.4-1.9,1.5l-1.6.9v-7.2l4.8-2.7v1.8l-3.2,1.8v3.1c.4-1.6,3.7-3.6,3.6-.4,0,0,0,3.2,0,3.2.6,2.7-4.9,7.8-5.2,3Z"/>
                <path class="st22" d="M363,291.4v-6.9c-.6-3,5.3-7.8,5.2-2.6l-1.6.9c.3-2.3-2.1-.8-2,.6,0,0,0,2.9,0,2.9.4-1.6,3.8-3.6,3.6-.4,0,0,0,2.5,0,2.5.6,2.7-4.9,7.8-5.3,3.1ZM366.6,289.4c-.2-.6.6-3.8-.9-2.9-1.4.6-1,2.8-1.1,4,.1,1.8,2.2-.1,2-1.1Z"/>
              </g>
              <polygon class="st26" points="387.8 273.6 379.2 278.5 379.2 235.7 387.8 230.7 387.8 273.6"/>
              <polygon class="st29" points="397.3 268 388.7 273 388.7 261.3 397.3 256.4 397.3 268"/>
              <polygon class="st50" points="406.9 262.5 398.3 267.5 398.3 260.4 406.9 255.4 406.9 262.5"/>
              <polygon class="st48" points="416.4 257 407.8 262 407.8 243.6 416.4 238.6 416.4 257"/>
              <polygon class="st26" points="426 251.5 417.4 256.5 417.4 233.8 426 228.8 426 251.5"/>
              <polygon class="st29" points="435.5 246 426.9 251 426.9 238.8 435.5 233.8 435.5 246"/>
              <polygon class="st43" points="445.1 240.5 436.5 245.5 436.5 220.1 445.1 215.1 445.1 240.5"/>
              <polygon class="st29" points="454.6 235 446 239.9 446 211.1 454.6 206.1 454.6 235"/>
              <polygon class="st24" points="464.2 229.4 455.6 234.4 455.6 221.7 464.2 216.8 464.2 229.4"/>
              <polygon class="st21" points="473.7 223.9 465.1 228.9 465.1 221 473.7 216 473.7 223.9"/>
              <polygon class="st0" points="483.3 218.4 474.7 223.4 474.7 167.6 483.3 162.6 483.3 218.4"/>
              <path class="st29" d="M490.4,137.4l-8.5,12.9,3.9-1.9-16.8,46.3-8.9,5.4-8.5-6.6c-5.2,5.5-18.4,19.7-22.9,25.4l-7.9,2.1-11.7,12.5-15.8,9.1-16.3-26.5-1.2,1.4,16.7,27.1,16.9-9.7,11.6-12.3,7.9-2.2c4.6-5.8,17.1-19.4,22.3-24.9l8.2,6.4,10.2-6.2,17.2-47.3,2.5,2.1,1-13.2Z"/>
            </g>
          </g>
          <g>
            <polygon class="st46" points="501.8 338.2 352.1 424.7 352.1 331.5 501.8 245 501.8 338.2"/>
            <g>
              <g>
                <polygon class="st22" points="483 270.1 380.4 329.3 380.4 328 483 268.8 483 270.1"/>
                <polygon class="st22" points="483 284.2 380.4 343.4 380.4 342.1 483 282.9 483 284.2"/>
                <polygon class="st22" points="483 298.2 380.4 357.4 380.4 356.1 483 296.9 483 298.2"/>
                <polygon class="st22" points="483 312.2 380.4 371.4 380.4 370.1 483 310.9 483 312.2"/>
                <polygon class="st22" points="483 326.3 380.4 385.5 380.4 384.2 483 324.9 483 326.3"/>
                <polygon class="st22" points="483 340.3 380.4 399.5 380.4 398.2 483 339 483 340.3"/>
              </g>
              <g>
                <path class="st22" d="M372.6,328.8l-1.6.9v-1.2c1.1-.7,1.8-1.6,2.1-2.4l1-.6v11l-1.4.8v-8.6Z"/>
                <path class="st22" d="M372.8,350.2l2.9-1.7v1.6l-4.6,2.6c-.5-1.1,1.7-5.5,2.1-6.6,2.6-5.2-.6-5.9-.7-2l-1.4.8c-.3-5.9,9-9.6,1.7,5.2Z"/>
                <path class="st22" d="M375.6,360.9c.9,3.3-4.6,8.4-4.6,3.4l1.4-1c-.3,2.2,1.9.9,1.8-.5,0-1.5.2-2.7-1.7-1.4v-1.6c1.3-.5,1.7-1.7,1.6-3-.2-1.7-2,.3-1.6,1.4l-1.4.8c-.8-2.4,4.1-7.2,4.5-3,0,1.2-.2,2.5-1,3.4.7,0,1.1.5,1.1,1.5Z"/>
                <path class="st22" d="M376,376.5l-.8.4v2.3l-1.4.8v-2.3l-2.8,1.6c-.5-.8,2.3-9.2,2.5-10.2l1.7-1v7.1l.8-.4v1.6ZM373.8,376.2v-4.3l-1.5,5.2,1.5-.8Z"/>
                <path class="st22" d="M371.3,392.5v-.3l1.4-1c-.3,2.2,1.8,1,1.7-.5,0,0,0-2.6,0-2.6-.2-1.7-2,.4-1.7,1.3l-1.4.8v-6.3l4.1-2.4v1.6l-2.7,1.6v2.7c.4-1.4,3.2-3.1,3.1-.4,0,0,0,2.8,0,2.8.5,2.4-4.3,6.8-4.6,2.6Z"/>
                <path class="st22" d="M371.3,407v-6c-.5-2.6,4.6-6.8,4.5-2.3l-1.4.8c.3-2-1.9-.7-1.7.5,0,0,0,2.5,0,2.5.4-1.4,3.3-3.2,3.2-.4,0,0,0,2.1,0,2.1.5,2.3-4.2,6.8-4.6,2.7ZM374.5,405.2c-.1-.5.5-3.3-.8-2.5-1.2.6-.9,2.4-.9,3.5.1,1.5,1.9-.1,1.7-1Z"/>
              </g>
            </g>
            <path class="st26" d="M481.2,340c-5.6-57.4-23.7-32.8-33.2-.3-4.1,11-8.3,19.1-14.7,8.6-8.2-12.7-3.4-25.9-9.9-28.4-5.3-2-14.2,4.5-19.4,10.6-4.1,4.7-6.8,11.5-12.2,25.3-9.9,27.7-9.2,25.9-8.6,40.9,32.7-18.9,65.4-37.7,98-56.6Z"/>
            <path class="st29" d="M383.2,396.6c11-43.1,16.8-54.4,20.1-55.7,4.9,0,9.5,13,13.1,17.1,3,3.8,4.7,6,7.1,4.7,3.3-1.8,6-8.8,7.6-13.1,9.5-24.9-.4-35,18.3-47.9,5.4-2,8.3,4.3,9.7,7.4,4.8,10.5.6,20.3,5.6,22.3,9.6,3,17.2-13,16.6-18.4v27.1c-32.7,18.9-65.4,37.7-98,56.6Z"/>
          </g>
          <g>
            <polygon class="st38" points="501.8 445.8 352.1 532.3 352.1 439.1 501.8 352.6 501.8 445.8"/>
            <g>
              <g>
                <path class="st26" d="M373.7,489c-3,2.3-6.3,1.3-6.2-3.3,0,0,0-43.2,0-43.2,0-3.8,2.3-8.2,5.2-9.9,3-2.3,6.3-1.3,6.2,3.3,0,0,0,43.2,0,43.2,0,3.8-2.3,8.2-5.2,9.9Z"/>
                <path class="st26" d="M395.2,476.6c-3,2.3-6.3,1.3-6.2-3.3,0,0,0-43.2,0-43.2,0-3.8,2.3-8.2,5.2-9.9,3-2.3,6.3-1.3,6.2,3.3,0,0,0,43.2,0,43.2,0,3.8-2.3,8.2-5.2,9.9Z"/>
                <path class="st26" d="M416.7,464.1c-3,2.3-6.3,1.3-6.2-3.3,0,0,0-43.2,0-43.2,0-3.8,2.3-8.2,5.2-9.9,3-2.3,6.3-1.3,6.2,3.3,0,0,0,43.2,0,43.2,0,3.8-2.3,8.2-5.2,9.9Z"/>
                <path class="st26" d="M438.3,451.7c-3,2.3-6.3,1.3-6.2-3.3,0,0,0-43.2,0-43.2,0-3.8,2.3-8.2,5.2-9.9,3-2.3,6.3-1.3,6.2,3.3,0,0,0,43.2,0,43.2,0,3.8-2.3,8.2-5.2,9.9Z"/>
                <path class="st26" d="M459.8,439.3c-3,2.3-6.3,1.3-6.2-3.3,0,0,0-43.2,0-43.2,0-3.8,2.3-8.2,5.2-9.9,3-2.3,6.3-1.3,6.2,3.3,0,0,0,43.2,0,43.2,0,3.8-2.3,8.2-5.2,9.9Z"/>
                <path class="st26" d="M481.3,426.8c-3,2.3-6.3,1.3-6.2-3.3,0,0,0-43.2,0-43.2,0-3.8,2.3-8.2,5.2-9.9,3-2.3,6.3-1.3,6.2,3.3,0,0,0,43.2,0,43.2,0,3.8-2.3,8.2-5.2,9.9Z"/>
              </g>
              <path class="st29" d="M375.7,487.8c-2.2.9-8.2,6.6-8.3.7.5-4.3-1.8-15.6,3.1-18.1,2.2-.9,8.2-6.6,8.3-.7-.5,4.3,1.8,15.6-3.1,18.1Z"/>
              <path class="st29" d="M395.6,476.4c-2.9,2.2-6.6,2.5-6.6-2.6,0,0,0-36.4,0-36.4,0-3.5,2.2-7.7,4.8-9.2,2.9-2.2,6.6-2.5,6.6,2.6,0,0,0,36.4,0,36.4,0,3.5-2.2,7.7-4.8,9.2Z"/>
              <path class="st29" d="M417.8,463.5c-2.7,1.7-7.2,4.6-7.3-1.2,1-6-3-28.9,4.1-32.3,2.7-1.7,7.2-4.6,7.3,1.2-1,6,3,28.9-4.1,32.3Z"/>
              <path class="st29" d="M441.2,450l-6.9,4c-1.2.7-2.3,0-2.3-1.7,0-2.7-.6-7.7,2.3-9.2,0,0,6.9-4,6.9-4,1.2-.7,2.3,0,2.3,1.7,0,2.7.6,7.7-2.3,9.2Z"/>
              <path class="st29" d="M460.3,439c-2.9,2.2-6.6,2.8-6.7-2.4,0,0,0-34.7,0-34.7,0-3.5,2.1-7.5,4.7-9,2.9-2.2,6.6-2.8,6.7,2.4,0,0,0,34.7,0,34.7,0,3.5-2.1,7.5-4.7,9Z"/>
              <path class="st29" d="M482.1,426.4c-2.9,2-6.8,3.8-7-1.8,0,0,0-29.6,0-29.6,0-3.2,2-7,4.4-8.4,2.9-2,6.8-3.8,7,1.8,0,0,0,29.6,0,29.6,0,3.2-2,7-4.4,8.4Z"/>
              <path class="st26" d="M373.1,506.6c-1.3,1.3-.3-9.3-.6-9.4-.1-.6,1.1-1.8,1.2-.7-.2.8.6,9.9-.6,10.1Z"/>
              <path class="st26" d="M394.7,494.2c-1.3,1.3-.3-9.3-.6-9.4-.1-.6,1.1-1.8,1.2-.7-.2.8.6,9.9-.6,10.1Z"/>
              <path class="st26" d="M416.2,481.8c-1.3,1.3-.3-9.3-.6-9.4-.1-.6,1.1-1.8,1.2-.7-.2.8.6,9.9-.6,10.1Z"/>
              <path class="st26" d="M437.7,469.3c-1.3,1.3-.3-9.3-.6-9.4-.1-.6,1.1-1.8,1.2-.7-.2.8.6,9.9-.6,10.1Z"/>
              <path class="st26" d="M459.3,456.9c-1.3,1.3-.3-9.3-.6-9.4-.1-.6,1.1-1.8,1.2-.7-.2.8.6,9.9-.6,10.1Z"/>
              <path class="st26" d="M480.8,444.5c-1.3,1.3-.3-9.3-.6-9.4-.1-.6,1.1-1.8,1.2-.7-.2.8.6,9.9-.6,10.1Z"/>
              <g>
                <path class="st26" d="M371,513.8l-.4.3v-.3c.3-.2.5-.4.6-.6l.3-.2v2.8l-.4.2v-2.2Z"/>
                <path class="st26" d="M371.7,514.9v-1.5c-.1-.6,1.1-1.8,1.2-.7,0,0,0,1.5,0,1.5.1.6-1.1,1.8-1.2.7ZM372.6,514.4c0-.1.2-2-.2-1.7-.4.2-.2,1.6-.2,1.9,0,.4.5,0,.5-.3Z"/>
                <path class="st26" d="M373.3,514v-1.5c-.1-.6,1.1-1.8,1.2-.7,0,0,0,1.5,0,1.5.1.6-1.1,1.8-1.2.7ZM374.2,513.5c0-.1.2-2-.2-1.7-.4.2-.2,1.6-.2,1.9,0,.4.5,0,.5-.3Z"/>
                <path class="st26" d="M375.2,511.3l-.4.3v-.3c.3-.2.5-.4.6-.6l.3-.2v2.8l-.4.2v-2.2Z"/>
              </g>
              <g>
                <path class="st26" d="M392.6,501.3l-.4.3v-.3c.3-.2.5-.4.6-.6l.3-.2v2.8l-.4.2v-2.2Z"/>
                <path class="st26" d="M393.3,502.4v-1.5c-.1-.6,1.1-1.8,1.2-.7,0,0,0,1.5,0,1.5.1.6-1.1,1.8-1.2.7ZM394.2,501.9c0-.1.2-2-.2-1.7-.4.2-.2,1.6-.2,1.9,0,.4.5,0,.5-.3Z"/>
                <path class="st26" d="M394.9,501.5v-1.5c-.1-.6,1.1-1.8,1.2-.7,0,0,0,1.5,0,1.5.1.6-1.1,1.8-1.2.7ZM395.8,501c0-.1.2-2-.2-1.7-.4.2-.2,1.6-.2,1.9,0,.4.5,0,.5-.3Z"/>
                <path class="st26" d="M396.8,498.9l-.4.3v-.3c.3-.2.5-.4.6-.6l.3-.2v2.8l-.4.2v-2.2Z"/>
              </g>
              <g>
                <path class="st26" d="M414.1,488.9l-.4.3v-.3c.3-.2.5-.4.6-.6l.3-.2v2.8l-.4.2v-2.2Z"/>
                <path class="st26" d="M414.9,490v-1.5c-.1-.6,1.1-1.8,1.2-.7,0,0,0,1.5,0,1.5.1.6-1.1,1.8-1.2.7ZM415.8,489.5c0-.1.2-2-.2-1.7-.4.2-.2,1.6-.2,1.9,0,.4.5,0,.5-.3Z"/>
                <path class="st26" d="M416.5,489.1v-1.5c-.1-.6,1.1-1.8,1.2-.7,0,0,0,1.5,0,1.5.1.6-1.1,1.8-1.2.7ZM417.3,488.6c0-.1.2-2-.2-1.7-.4.2-.2,1.6-.2,1.9,0,.4.5,0,.5-.3Z"/>
                <path class="st26" d="M418.4,486.4l-.4.3v-.3c.3-.2.5-.4.6-.6l.3-.2v2.8l-.4.2v-2.2Z"/>
              </g>
              <g>
                <path class="st26" d="M435.7,476.4l-.4.3v-.3c.3-.2.5-.4.6-.6l.3-.2v2.8l-.4.2v-2.2Z"/>
                <path class="st26" d="M436.5,477.5v-1.5c-.1-.6,1.1-1.8,1.2-.7,0,0,0,1.5,0,1.5.1.6-1.1,1.8-1.2.7ZM437.4,477c0-.1.2-2-.2-1.7-.4.2-.2,1.6-.2,1.9,0,.4.5,0,.5-.3Z"/>
                <path class="st26" d="M438.1,476.6v-1.5c-.1-.6,1.1-1.8,1.2-.7,0,0,0,1.5,0,1.5.1.6-1.1,1.8-1.2.7ZM438.9,476.1c0-.1.2-2-.2-1.7-.4.2-.2,1.6-.2,1.9,0,.4.5,0,.5-.3Z"/>
                <path class="st26" d="M440,473.9l-.4.3v-.3c.3-.2.5-.4.6-.6l.3-.2v2.8l-.4.2v-2.2Z"/>
              </g>
              <g>
                <path class="st26" d="M457.3,463.9l-.4.3v-.3c.3-.2.5-.4.6-.6l.3-.2v2.8l-.4.2v-2.2Z"/>
                <path class="st26" d="M458.1,465v-1.5c-.1-.6,1.1-1.8,1.2-.7,0,0,0,1.5,0,1.5.1.6-1.1,1.8-1.2.7ZM459,464.5c0-.1.2-2-.2-1.7-.4.2-.2,1.6-.2,1.9,0,.4.5,0,.5-.3Z"/>
                <path class="st26" d="M459.7,464.1v-1.5c-.1-.6,1.1-1.8,1.2-.7,0,0,0,1.5,0,1.5.1.6-1.1,1.8-1.2.7ZM460.5,463.6c0-.1.2-2-.2-1.7-.4.2-.2,1.6-.2,1.9,0,.4.5,0,.5-.3Z"/>
                <path class="st26" d="M461.6,461.5l-.4.3v-.3c.3-.2.5-.4.6-.6l.3-.2v2.8l-.4.2v-2.2Z"/>
              </g>
              <g>
                <path class="st26" d="M478.9,451.4l-.4.3v-.3c.3-.2.5-.4.6-.6l.3-.2v2.8l-.4.2v-2.2Z"/>
                <path class="st26" d="M479.7,452.6v-1.5c-.1-.6,1.1-1.8,1.2-.7,0,0,0,1.5,0,1.5.1.6-1.1,1.8-1.2.7ZM480.5,452.1c0-.1.2-2-.2-1.7-.4.2-.2,1.6-.2,1.9,0,.4.5,0,.5-.3Z"/>
                <path class="st26" d="M481.3,451.7v-1.5c-.1-.6,1.1-1.8,1.2-.7,0,0,0,1.5,0,1.5.1.6-1.1,1.8-1.2.7ZM482.1,451.2c0-.1.2-2-.2-1.7-.4.2-.2,1.6-.2,1.9,0,.4.5,0,.5-.3Z"/>
                <path class="st26" d="M483.2,449l-.4.3v-.3c.3-.2.5-.4.6-.6l.3-.2v2.8l-.4.2v-2.2Z"/>
              </g>
            </g>
          </g>
          <g>
            <polygon class="st1" points="333.8 542.9 58 702.1 58 501.3 333.8 342 333.8 542.9"/>
            <g>
              <g>
                <g>
                  <path class="st26" d="M320.9,479.7l-192.8,111.3v-112.8l192.8-111.3v112.8ZM128.8,589.8l191.4-110.5v-111.2l-191.4,110.5v111.2Z"/>
                  <g>
                    <polygon class="st26" points="303.5 391.1 145.5 482.4 145.5 481.5 303.5 390.3 303.5 391.1"/>
                    <polygon class="st26" points="303.5 404.5 145.5 495.7 145.5 494.8 303.5 403.6 303.5 404.5"/>
                    <polygon class="st26" points="303.5 417.8 145.5 509 145.5 508.1 303.5 416.9 303.5 417.8"/>
                    <polygon class="st26" points="303.5 431.1 145.5 522.3 145.5 521.4 303.5 430.2 303.5 431.1"/>
                    <polygon class="st26" points="303.5 444.4 145.5 535.6 145.5 534.7 303.5 443.5 303.5 444.4"/>
                    <polygon class="st26" points="303.5 457.7 145.5 548.9 145.5 548.1 303.5 456.8 303.5 457.7"/>
                  </g>
                </g>
                <path class="st22" d="M140.5,548c-.7.4-1-.4-.6-1.1,4.4-8.1,9-13.7,13.8-16.7,3.4-2.2,5.5-2.1,7.4-2,9.4-.1,11.3-11.9,15-21.7,2.8-8.8,5.5-17.1,10.5-20.6,6.3-4,7.7,3.6,14.7-.4,8.2-3.6,17.1-27.7,22.4-8.3,1.4,5.7,4,8.2,7.2,3.3,10.6-14.3,12.1,6.6,21.7-13.7,2.2-4.3,4.5-8.7,7.9-10.5,8.9-4.1,8.5,16.6,19.5-7.9,4.6-11.7,13.1-23.7,23.8-8.5.5.5-.6,2.3-1.3,1.7-10-13.9-16.8-3.9-21.3,7.2-12,26.7-13.9,5.9-20.8,9.4-2.6,1.4-4.6,5.2-6.7,9.2-2.9,5.4-6.8,13.5-12.9,10.4-1.4-.7-2.6-1.3-4.9,0-3.5,1.7-4.5,5.9-7.9,7.4-6.3,2.3-4.9-14.2-10.6-13.2-7.2,3.1-12.9,21.6-25,15.7-1.8-.8-3.3-1.5-5.5,0-4.2,2.9-6.7,10.7-9.3,18.9-12.9,42-17.6,6.9-37,41.5Z"/>
                <path class="st26" d="M303.1,461.7c-20.1-12.1-23.5,28.2-37,1.1-2.7-5.1-5.2-10-9.3-8.1-7.7,5.3-10.3,21.2-24.5,18.2-2.2-.4-4-.8-6,1.2-5.7,5.6-4.4,20.5-10.6,25.5-1.6,1.3-2.7,1.1-3.8.9-7.2-1.1-8.8,9.1-13.8,12.4-3.5,2.4-5.9.6-8.2-1.2-10.4-8.6-11.7,12.4-18.6,16-11.6,6.1-12.6-27.4-30.2,14.5-.3,1.1-1.8,1.3-1.3-.2,18.4-43.9,21.9-11.2,31.4-16.1,6.1-4.4,8.9-25.4,19.8-16.1,2.1,1.6,4.2,3.2,6.9,1.3,4.4-3.5,7.5-14.1,14.8-12.6,1,.1,1.7.3,2.7-.6,6.5-6.2,3.8-30.2,17.8-27.1,13,3.3,15.7-13.3,23.8-18.1,5-2.3,7.7,2.9,10.5,8.4,8.8,18.4,12.2,4,22.4-2.2,4.7-2.5,9.4-2.2,13.8.8.5.3,0,1.5-.6,1.8Z"/>
                <path class="st29" d="M142.8,548.6c-.6.3-1-.2-.6-1,7.8-19.4,16.5-32.9,25.9-40.1,7.7-6.1,11.1-3.6,18-10.8,10.3-10.4,8.9-25.5,19.2-34.8,3.7-3.1,6.4-3.2,9.1-3.2,13.7.7,14.6-16.5,22.4-22.3,10-5.3,13.6,20.2,23.6,4.9,8.2-11.2,8.3,1,12.2,0,2.2-1,3.6-5.2,5.6-6.9,4.9-4.7,12.5.4,23.8,16,.5.5-.6,2.4-1.3,1.6-13.1-18.2-19.2-18.9-22-16.2-2.1,2-3.4,6.3-6.3,7.4-2.1.8-3-.7-4-2.2-4.2-7.1-7.7,4.1-11.7,6.1-8.5,5.9-12-12.7-19.8-8.9-5.6,4.5-6,13.1-12.8,18.6-12.1,10-17.3-5.1-26.7,21.6-14.4,41.9-29,8.2-54.6,70.3Z"/>
                <g>
                  <g>
                    <path class="st26" d="M144.8,560.4l-1,.6v-.7c.7-.4,1-1,1.2-1.4l.6-.3v6.4l-.8.5v-5Z"/>
                    <path class="st26" d="M146.4,563v-3.5c-.3-1.4,2.5-4,2.7-1.6,0,0,0,3.5,0,3.5.3,1.4-2.5,4-2.7,1.6ZM148.3,562c-.2-.3.5-4.6-.5-3.8-.9.4-.4,3.7-.5,4.4,0,1,1.1,0,1-.6Z"/>
                  </g>
                  <g>
                    <path class="st26" d="M171.1,549.3l1.7-1v.9l-2.7,1.5c-.3-.6,1-3.2,1.2-3.8,1.5-2.7-.3-3.7-.4-1.2l-.8.5c0-3.8,5.2-5.2,1,3Z"/>
                    <path class="st26" d="M173.4,547.5v-3.5c-.3-1.4,2.5-4,2.7-1.6,0,0,0,3.5,0,3.5.3,1.4-2.5,4-2.7,1.6ZM175.3,546.4c-.2-.3.5-4.6-.5-3.8-.9.4-.4,3.7-.5,4.4,0,1,1.1,0,1-.6Z"/>
                  </g>
                  <g>
                    <path class="st26" d="M199,532.1c.6,1.7-2.6,5-2.7,2l.8-.6c-.2,1.3,1.1.5,1-.3,0-.9,0-1.6-1-.8v-.9c.8-.3,1-1,.9-1.8-.1-1-1.2.2-1,.8l-.8.5c0-3.6,4.3-3.5,2,.3.4,0,.7.3.7.9Z"/>
                    <path class="st26" d="M199.7,532.3c.1-1.7-.6-4.9,1.4-5.8,2.2-1.3,1.1,3.4,1.4,4.3.3,1.4-2.5,4-2.7,1.6ZM201.5,531.2c-.2-.3.5-4.6-.5-3.8-.9.4-.4,3.7-.5,4.4,0,1,1.1,0,1-.6Z"/>
                  </g>
                  <g>
                    <path class="st26" d="M225.4,517.6l-.5.3v1.3l-.8.5v-1.3l-1.6,1c-.3-.5,1.4-5.4,1.5-5.9l1-.6v4.2l.5-.3v.9ZM224.1,517.4v-2.5l-.9,3,.9-.5Z"/>
                    <path class="st26" d="M226,517.1v-3.5c-.3-1.4,2.5-4,2.7-1.6,0,0,0,3.5,0,3.5.3,1.4-2.5,4-2.7,1.6ZM227.8,516c-.2-.3.5-4.6-.5-3.8-.9.4-.4,3.7-.5,4.4,0,1,1.1,0,1-.6Z"/>
                  </g>
                  <g>
                    <path class="st26" d="M248.8,503.9v-.2l.8-.6c-.2,1.3,1.1.6,1-.3,0,0,0-1.5,0-1.5-.1-1-1.1.2-1,.7l-.8.5v-3.7l2.4-1.4v.9l-1.6.9v1.6c1.6-2.4,2-.4,1.8,1.4.3,1.4-2.5,4-2.7,1.5Z"/>
                    <path class="st26" d="M252.2,502v-3.5c-.3-1.4,2.5-4,2.7-1.6,0,0,0,3.5,0,3.5.3,1.4-2.5,4-2.7,1.6ZM254,500.9v-3.5c0-1-1.1,0-1,.6,0,0,0,3.5,0,3.5,0,1,1.1,0,1-.6Z"/>
                  </g>
                  <g>
                    <path class="st26" d="M275.1,488.8v-3.5c-.3-1.5,2.7-4,2.6-1.3l-.8.5c.2-1.2-1.1-.4-1,.3,0,0,0,1.5,0,1.5,1.3-2.1,2.1-1,1.8,1,.3,1.4-2.5,3.9-2.7,1.6ZM276.9,487.8v-1.1c0-1-1.1.1-1,.6,0,0,0,1.1,0,1.1,0,.9,1.1,0,1-.6Z"/>
                    <path class="st26" d="M278.4,486.8v-3.5c-.3-1.4,2.5-4,2.7-1.6,0,0,0,3.5,0,3.5.3,1.4-2.5,4-2.7,1.6ZM280.3,485.8c-.2-.3.5-4.6-.5-3.8-.9.4-.4,3.7-.5,4.4,0,1,1.1,0,1-.6Z"/>
                  </g>
                  <g>
                    <path class="st26" d="M303.6,467.3c.2.2-1.3,6.8-1.3,7.2l-.9.5,1.4-6.3-1.7,1v-.9l2.6-1.5Z"/>
                    <path class="st26" d="M304.2,472c.1-1.7-.6-4.9,1.4-5.8,2.2-1.3,1.1,3.4,1.4,4.3.3,1.4-2.5,4-2.7,1.6ZM306,470.9c-.2-.3.5-4.6-.5-3.8-.9.4-.4,3.7-.5,4.4,0,1,1.1,0,1-.6Z"/>
                  </g>
                </g>
              </g>
              <g>
                <g>
                  <polygon class="st27" points="87.7 510.3 75.6 517.4 75.6 512.3 87.7 505.3 87.7 510.3"/>
                  <polygon class="st39" points="87.7 519.4 75.6 526.4 75.6 521.4 87.7 514.3 87.7 519.4"/>
                  <polygon class="st51" points="87.7 528.4 75.6 535.5 75.6 530.4 87.7 523.4 87.7 528.4"/>
                  <polygon class="st37" points="87.7 537.5 75.6 544.5 75.6 539.5 87.7 532.4 87.7 537.5"/>
                  <polygon class="st5" points="87.7 546.5 75.6 553.5 75.6 548.5 87.7 541.5 87.7 546.5"/>
                  <polygon class="st40" points="87.7 555.6 75.6 562.6 75.6 557.6 87.7 550.5 87.7 555.6"/>
                  <polygon class="st3" points="87.7 564.6 75.6 571.6 75.6 566.6 87.7 559.6 87.7 564.6"/>
                  <polygon class="st41" points="87.7 573.7 75.6 580.7 75.6 575.6 87.7 568.6 87.7 573.7"/>
                  <polygon class="st29" points="87.7 582.7 75.6 589.7 75.6 584.7 87.7 577.7 87.7 582.7"/>
                  <polygon class="st29" points="87.7 591.8 75.6 598.8 75.6 593.7 87.7 586.7 87.7 591.8"/>
                  <polygon class="st26" points="87.7 600.8 75.6 607.8 75.6 602.8 87.7 595.8 87.7 600.8"/>
                  <polygon class="st26" points="87.7 609.9 75.6 616.9 75.6 611.8 87.7 604.8 87.7 609.9"/>
                  <path class="st2" d="M91.9,611.6l-21,12.1v-113.5l21-12.1v113.5ZM71.6,622.4l19.5-11.3v-111.8l-19.5,11.3v111.8Z"/>
                </g>
                <g>
                  <polygon class="st27" points="116.1 494 103.9 501 103.9 495.9 116.1 488.9 116.1 494"/>
                  <polygon class="st39" points="116.1 503 103.9 510 103.9 505 116.1 498 116.1 503"/>
                  <polygon class="st51" points="116.1 512.1 103.9 519.1 103.9 514 116.1 507 116.1 512.1"/>
                  <polygon class="st37" points="116.1 521.1 103.9 528.1 103.9 523.1 116.1 516.1 116.1 521.1"/>
                  <polygon class="st5" points="116.1 530.2 103.9 537.2 103.9 532.1 116.1 525.1 116.1 530.2"/>
                  <polygon class="st26" points="116.1 539.2 103.9 546.2 103.9 541.2 116.1 534.2 116.1 539.2"/>
                  <polygon class="st26" points="116.1 548.2 103.9 555.3 103.9 550.2 116.1 543.2 116.1 548.2"/>
                  <polygon class="st26" points="116.1 557.3 103.9 564.3 103.9 559.3 116.1 552.2 116.1 557.3"/>
                  <polygon class="st29" points="116.1 566.3 103.9 573.4 103.9 568.3 116.1 561.3 116.1 566.3"/>
                  <polygon class="st29" points="116.1 575.4 103.9 582.4 103.9 577.4 116.1 570.3 116.1 575.4"/>
                  <polygon class="st29" points="116.1 584.4 103.9 591.4 103.9 586.4 116.1 579.4 116.1 584.4"/>
                  <polygon class="st29" points="116.1 593.5 103.9 600.5 103.9 595.5 116.1 588.4 116.1 593.5"/>
                  <path class="st2" d="M120.3,595.2l-21,12.1v-113.5l21-12.1v113.5ZM100,606l19.5-11.3v-111.8l-19.5,11.3v111.8Z"/>
                </g>
              </g>
            </g>
            <g>
              <g>
                <path class="st26" d="M78.1,665.4c-2.4-8.5.6-17.3,5.8-25.4l3.9,3.5c-3.4,5.2-5.3,10.8-3.7,16.3l-6,5.7Z"/>
                <path class="st47" d="M94.7,668.9c-7.2,4.2-13.6,2.5-15.9-4.1l4.5-4.3c1.6,4.8,6.2,5.9,11.3,3v5.5Z"/>
                <path class="st26" d="M94.7,671.4v-10.5c2.7-1.5,5.1-4.2,7-7.4l6.5,3.6c-3.6,6.3-8.4,11.4-13.5,14.4Z"/>
                <path class="st29" d="M106.9,656.3l-3.9-2.1c2.1-3.7,3.3-7.7,3.3-11.2l5.4-3.1c0,5.1-1.7,11-4.8,16.5Z"/>
                <path class="st22" d="M113,639.1l-7.9,4.6c0-2.1-.5-3.8-1.4-5.1l6.9-8.5c1.6,2.3,2.4,5.4,2.4,9.1Z"/>
                <path class="st6" d="M105.4,636.4c-1.1-1.6-2.8-2.6-4.8-2.7l1.9-5.2c2.7.1,4.9,1.4,6.4,3.5l-3.5,4.3Z"/>
                <path class="st29" d="M89.2,644.7l-6.7-6c5.3-7.7,12.8-14.7,21.7-14.6l-5.2,14c-4,0-7.3,3.1-9.7,6.6Z"/>
              </g>
              <g>
                <polygon class="st22" points="236 555 128.8 616.8 128.8 612.2 236 550.3 236 555"/>
                <path class="st45" d="M236,550.3l-64.5,37.2c-3-2.3-6.7,3.3-6.5,6.1.2,5,5.7,1.5,6.5-1.4l64.5-37.2v-4.7Z"/>
                <polygon class="st22" points="236 573.3 128.8 635.1 128.8 630.5 236 568.6 236 573.3"/>
                <path class="st45" d="M190.8,592.9c-1.2.7-2.3,2.1-3,3.5l-59,34.1v4.7l59-34.1c4.6,3.7,10.4-11,3-8.2Z"/>
                <polygon class="st22" points="236 591.6 128.8 653.4 128.8 648.8 236 586.9 236 591.6"/>
                <path class="st45" d="M236,586.9l-26.9,15.5c-3-2.3-6.7,3.3-6.5,6.1.2,5,5.7,1.5,6.5-1.4l26.9-15.5v-4.7Z"/>
                <g>
                  <g>
                    <path class="st26" d="M129,606.4v-2c-.2-.8,1.5-2.3,1.6-.9,0,0,0,2,0,2,.2.8-1.5,2.3-1.6.9ZM130.1,605.8c-.1-.2.3-2.6-.3-2.2-.5.2-.2,2.2-.3,2.6,0,.6.7,0,.6-.3Z"/>
                    <path class="st26" d="M131.5,602.9l-.6.3v-.4c.4-.3.6-.6.7-.8l.3-.2v3.7l-.5.3v-2.9Z"/>
                    <path class="st26" d="M132.9,602.1l-.6.3v-.4c.4-.3.6-.6.7-.8l.3-.2v3.7l-.5.3v-2.9Z"/>
                    <path class="st26" d="M133.9,603.6v-2c-.2-.8,1.5-2.3,1.6-.9,0,0,0,2,0,2,.2.8-1.5,2.3-1.6.9ZM135,603c-.1-.2.3-2.6-.3-2.2-.5.2-.2,2.2-.3,2.6,0,.6.7,0,.6-.3Z"/>
                    <path class="st26" d="M136.4,600.1l-.6.3v-.4c.4-.3.6-.6.7-.8l.3-.2v3.7l-.5.3v-2.9Z"/>
                  </g>
                  <g>
                    <path class="st26" d="M129,626.6v-2c-.2-.8,1.5-2.3,1.6-.9,0,0,0,2,0,2,.2.8-1.5,2.3-1.6.9ZM130.1,625.9c-.1-.2.3-2.6-.3-2.2-.5.2-.2,2.2-.3,2.6,0,.6.7,0,.6-.3Z"/>
                    <path class="st26" d="M131.5,623.1l-.6.3v-.4c.4-.3.6-.6.7-.8l.3-.2v3.7l-.5.3v-2.9Z"/>
                    <path class="st26" d="M132.9,622.2l-.6.3v-.4c.4-.3.6-.6.7-.8l.3-.2v3.7l-.5.3v-2.9Z"/>
                    <path class="st26" d="M133.9,623.8v-2c-.2-.8,1.5-2.3,1.6-.9,0,0,0,2,0,2,.2.8-1.5,2.3-1.6.9ZM135,623.1c-.1-.2.3-2.6-.3-2.2-.5.2-.2,2.2-.3,2.6,0,.6.7,0,.6-.3Z"/>
                    <path class="st26" d="M136.4,620.3l-.6.3v-.4c.4-.3.6-.6.7-.8l.3-.2v3.7l-.5.3v-2.9Z"/>
                  </g>
                  <g>
                    <path class="st26" d="M129,645.4v-2c-.2-.8,1.5-2.3,1.6-.9,0,0,0,2,0,2,.2.8-1.5,2.3-1.6.9ZM130.1,644.8v-2c0-.6-.7,0-.6.3,0,.3-.3,3.7.6,1.7Z"/>
                    <path class="st26" d="M131.5,641.9l-.6.3v-.4c.4-.3.6-.6.7-.8l.3-.2v3.7l-.5.3v-2.9Z"/>
                    <path class="st26" d="M132.9,641.1l-.6.3v-.4c.4-.3.6-.6.7-.8l.3-.2v3.7l-.5.3v-2.9Z"/>
                    <path class="st26" d="M133.9,642.6v-2c-.2-.8,1.5-2.3,1.6-.9,0,0,0,2,0,2,.2.8-1.5,2.3-1.6.9ZM135,642v-2c0-.6-.7,0-.6.3,0,.3-.3,3.7.6,1.7Z"/>
                    <path class="st26" d="M136.4,639.1l-.6.3v-.4c.4-.3.6-.6.7-.8l.3-.2v3.7l-.5.3v-2.9Z"/>
                  </g>
                </g>
              </g>
            </g>
            <g>
              <g>
                <polygon class="st26" points="260.7 545.7 254.9 549.1 254.9 539.4 260.7 536 260.7 545.7"/>
                <g>
                  <rect class="st26" x="266" y="516.7" width="59.7" height=".5" transform="translate(-218.6 216.7) rotate(-29.9)"/>
                  <rect class="st26" x="258.3" y="522.2" width="67.9" height=".5" transform="translate(-221.8 215.7) rotate(-29.9)"/>
                  <rect class="st26" x="258.3" y="525.9" width="67.9" height=".5" transform="translate(-223.7 216.2) rotate(-29.9)"/>
                </g>
              </g>
              <g>
                <polygon class="st50" points="260.7 561.5 254.9 564.9 254.9 555.2 260.7 551.8 260.7 561.5"/>
                <g>
                  <rect class="st26" x="266" y="532.5" width="59.7" height=".5" transform="translate(-226.5 218.9) rotate(-30)"/>
                  <rect class="st26" x="258.3" y="538" width="67.9" height=".5" transform="translate(-229.7 217.8) rotate(-30)"/>
                  <rect class="st26" x="258.3" y="541.7" width="67.9" height=".5" transform="translate(-231.6 218.3) rotate(-30)"/>
                </g>
              </g>
              <g>
                <polygon class="st53" points="260.7 577.3 254.9 580.7 254.9 571 260.7 567.6 260.7 577.3"/>
                <g>
                  <rect class="st26" x="266" y="548.3" width="59.7" height=".5" transform="translate(-234.4 221) rotate(-30)"/>
                  <rect class="st26" x="258.3" y="553.8" width="67.9" height=".5" transform="translate(-237.6 219.9) rotate(-29.9)"/>
                  <rect class="st26" x="258.3" y="557.5" width="67.9" height=".5" transform="translate(-239.4 220.4) rotate(-30)"/>
                </g>
              </g>
            </g>
          </g>
          <polygon class="st22" points="172.8 257.8 56 325.2 56 308.2 172.8 240.7 172.8 257.8"/>
          <g>
            <polygon class="st22" points="499.9 51.9 446.6 82.8 446.6 77 499.9 46.2 499.9 51.9"/>
            <polygon class="st22" points="499.9 62.6 446.6 93.5 446.6 87.7 499.9 56.9 499.9 62.6"/>
            <polygon class="st22" points="499.9 73.4 446.6 104.2 446.6 98.4 499.9 67.6 499.9 73.4"/>
          </g>
        </g>
      </g>
      <g>
        <path class="st9" d="M650.7,800.6c-19.5,11.3-51.2,11.3-70.7,0-19.5-11.3-19.5-29.6,0-40.8,19.5-11.3,51.2-11.3,70.7,0,19.5,11.3,19.5,29.6,0,40.8Z"/>
        <g>
          <path class="st8" d="M625.9,785.9v5.5c-.8,6.3-11.8,3.1-16.2,3v-1.4c-8.6-1.4-25.9-1.9-29.5-8.9,0,0,.2-3.9.2-3.9l45.5,5.7Z"/>
          <path class="st11" d="M608.9,790.5c-7.4-.5-25.9-1.5-28.6-9.2-.7-1.6.7-3.7,3.4-4.3,8.8-1.2,14.6.9,22-5l18.8,2.1c4.3,14.4,2.4,20.4-15.6,16.5h0Z"/>
          <path class="st13" d="M654.7,780c1.3,6.3-4,7.7-12.1,7.3-3.9-1.2-7.3-3.2-10.3-5.5l.5-1.6c-5.9-3.7-14.5-6.9-19.7-9.8-2.9-1.7-5.2-6.5-2.7-8.9l42.6,12.8,1.8,5.7h0Z"/>
          <path class="st11" d="M654.7,769.4c3.7,12.1-1.9,17.9-16.2,13,0,0-8.2-5.7-8.2-5.7-7.2-3.4-16.3-6.4-21-13.5.1-3.8,2.3-6,4.6-5.5,8.3.4,15.8,2.3,23.3,2.7l17.6,8.9Z"/>
          <g>
            <path class="st7" d="M626.5,578.5c-.9,42.4-1.4,84.8,5,126.3,0,0,0,58.3,0,58.3,8.9,16.2,16.8,16.2,24.2,10.3,5-31.2,6-62.3,1.1-93.6,7.4-57,28.6-81.2-26.1-125.4l-4.3,24.1h0Z"/>
            <g class="st54">
              <path class="st18" d="M654,563.5c5.3,22.2,5.9,43.3-1.2,62.5,0,0-1.1,5.5-2.5,13-10.5,49.7,2.4,112.5-11.2,157.6,0,0-37-19.8-33.6-19.6,32.3,1.6,20.5-235.2,20.5-235.2l19.5,19.7,8.5,2Z"/>
            </g>
          </g>
          <g>
            <path class="st7" d="M596.8,588.2c-.9,42.4-1.4,84.8,5,126.3,0,0,0,58.3,0,58.3,8.9,16.2,16.8,16.2,24.2,10.3,5-31.2,6-62.3,1.1-93.6l11.9-46.7s15.5-24.5,2-43.2c-13.5-18.8-23.3-9.4-23.3-9.4l-21-2.1h0Z"/>
            <g class="st33">
              <path class="st18" d="M622.2,555.8c6.9,42.1.5,91.3-9.2,132.5,0,0,3,119.4,3,119.4,0,0-65.2-18.4-62.9-20.9,2.3-2.5,10.1-196.9,10.1-196.9l52.6-18.5,6.4-15.6h0Z"/>
            </g>
          </g>
          <g>
            <path class="st14" d="M594.1,618.2c23.6,26.3,55.6,12.8,76.4-12.4-14.6-42.1-2.2-61.5,6.6-104.5-3.3-37.6-41.7-12.1-57.2,0-12,7.1-20,14.7-18.3,23.6l-7.5,93.3h0Z"/>
            <g class="st49">
              <path class="st10" d="M622.2,648.9c-7.4-19.4-12.5-47.1-8.7-68.8,1.1-8.4,2.6-16.6,4.4-22.1,5.1-15.7,2.5-48-9.6-47.1-35.9,62.2-36.4,43.9-39.8,117.8l53.8,20.1Z"/>
            </g>
          </g>
          <path class="st36" d="M546.6,506.8s-.9-5.2-2.6-7.7c-1.7-2.5-4.8-8.7-4.8-8.7-1.3-4.5-4.5-12.5,1.4-17,1,0,2.8-.3,4.3,3.7,1.5,4.4,2.1,6.1,2.1,6.1l2,3.6c0-2.3-.4-5.9.5-8.1,1.3-3.3,2.2-2,2.6.6,0,4,2.7,7.3,3,11.2-.5,2.4,1.9,9.3,2.6,11.5l-11.2,4.7h0Z"/>
          <path class="st14" d="M581.3,530.2h-7.4c-7.5-8.1-9.6-21.2-15.3-30.6-5.3-.3-10,.7-14.2,3.1,0,14,7.3,29.9,13.3,42,0,0,4.3,9.2,13.2,9.7,8.9.5,7.9-9,7.9-9l2.6-15.2h0Z"/>
          <path class="st14" d="M616.3,516.4c7.8,30-10.8,38.7-45.4,37.9,0,0-7.5-11,2.9-24.5,0,0,7.5-3.4,13-5.9,3.9-1.7,7.6-3.9,10.9-6.5,6.4-5.3,13.4-11.3,18.5-1h0Z"/>
          <g>
            <path class="st17" d="M623.3,496.7s3.1-13-6.2-16c-8.8-7.8-8.2-34.6,1.8-47.6l33.9,19.4-5,23.3c-.7,5,1.1,9.7-4.1,13l-20.4,7.8h0Z"/>
            <g class="st42">
              <path class="st12" d="M613,484.6l4.1-3.9s11.2.6,14-3.4c0,0-.7,5.9-9.6,9.6l-8.5-2.3h0Z"/>
            </g>
          </g>
          <path class="st16" d="M647.6,434.5c11.4,9.3,13.7,19.4,10.3,30-2.7,8.2-11.2,23.4-22.4,14.9.3-2.2-.2-27-10.8-14.4,0,0,.4-6.7-4.3-9.6,0,0-9.2-9.9-8.7-14.2.8-23.5,24.4-16.6,35.9-6.6h0Z"/>
          <path class="st15" d="M621.5,499.7l.7-5.7c10.3-1.5,18.9-5.5,25.6-12.8,10.5,7.1-11.9,16.6-18.3,17.4-2.9.3-5.7.6-8,1.1h0Z"/>
        </g>
      </g>
    </g>
  </g>
</svg>