<?xml version="1.0" encoding="UTF-8"?>
<svg id="Layer_1" data-name="Layer 1" xmlns="http://www.w3.org/2000/svg" xmlns:xlink="http://www.w3.org/1999/xlink" viewBox="0 0 612 792">
  <defs>
    <style>
      .cls-1 {
        fill: #353635;
      }

      .cls-1, .cls-2, .cls-3, .cls-4, .cls-5, .cls-6, .cls-7, .cls-8, .cls-9, .cls-10, .cls-11, .cls-12, .cls-13, .cls-14, .cls-15, .cls-16, .cls-17, .cls-18, .cls-19, .cls-20, .cls-21, .cls-22, .cls-23, .cls-24, .cls-25, .cls-26, .cls-27, .cls-28, .cls-29, .cls-30, .cls-31, .cls-32, .cls-33, .cls-34, .cls-35, .cls-36, .cls-37, .cls-38, .cls-39, .cls-40, .cls-41 {
        stroke-width: 0px;
      }

      .cls-2 {
        fill: url(#linear-gradient-12);
      }

      .cls-3 {
        fill: url(#linear-gradient-17);
      }

      .cls-4 {
        fill: #2e2e2e;
      }

      .cls-5 {
        fill: url(#linear-gradient-19);
      }

      .cls-6 {
        fill: url(#linear-gradient);
      }

      .cls-7 {
        fill: #febd14;
      }

      .cls-8 {
        fill: url(#linear-gradient-21);
      }

      .cls-9 {
        fill: url(#linear-gradient-6);
      }

      .cls-10, .cls-14 {
        fill: #ffde82;
      }

      .cls-10, .cls-25 {
        isolation: isolate;
        opacity: .5;
      }

      .cls-11 {
        fill: #ffc52a;
      }

      .cls-12 {
        fill: url(#linear-gradient-15);
      }

      .cls-13 {
        fill: url(#linear-gradient-11);
      }

      .cls-42 {
        stroke: #ffde82;
        stroke-width: 6.06px;
      }

      .cls-42, .cls-16, .cls-43, .cls-44 {
        fill: none;
      }

      .cls-42, .cls-43, .cls-44 {
        stroke-miterlimit: 10;
      }

      .cls-15 {
        fill: url(#linear-gradient-5);
      }

      .cls-43 {
        stroke: #ffebbd;
        stroke-linecap: round;
        stroke-width: 1.52px;
      }

      .cls-17 {
        fill: #c2c2c2;
      }

      .cls-44 {
        stroke: rgba(255, 222, 130, .3);
        stroke-width: 2.27px;
      }

      .cls-18 {
        fill: url(#linear-gradient-13);
      }

      .cls-19 {
        fill: url(#linear-gradient-23);
      }

      .cls-20 {
        fill: url(#linear-gradient-16);
      }

      .cls-21 {
        fill: url(#linear-gradient-22);
      }

      .cls-22 {
        fill: url(#linear-gradient-20);
      }

      .cls-23 {
        fill: url(#linear-gradient-14);
      }

      .cls-24 {
        fill: url(#linear-gradient-2);
      }

      .cls-25, .cls-34 {
        fill: #fff;
      }

      .cls-26 {
        fill: url(#linear-gradient-7);
      }

      .cls-27 {
        fill: url(#linear-gradient-3);
      }

      .cls-45 {
        clip-path: url(#clippath);
      }

      .cls-28 {
        fill: url(#linear-gradient-9);
      }

      .cls-29 {
        fill: #1d1d1b;
      }

      .cls-30 {
        fill: url(#linear-gradient-8);
      }

      .cls-31 {
        fill: url(#linear-gradient-24);
      }

      .cls-32 {
        fill: url(#linear-gradient-18);
      }

      .cls-33 {
        fill: #fab9a8;
      }

      .cls-35, .cls-36 {
        fill: #f17d2c;
      }

      .cls-36 {
        fill-rule: evenodd;
      }

      .cls-37 {
        fill: url(#linear-gradient-10);
      }

      .cls-38 {
        fill: url(#linear-gradient-4);
      }

      .cls-39 {
        fill: #d7eeeb;
      }

      .cls-40 {
        fill: #4077ab;
      }

      .cls-41 {
        fill: #eeedee;
      }
    </style>
    <linearGradient id="linear-gradient" x1="-83.76" y1="475.69" x2="-388.64" y2="529.46" gradientTransform="translate(564 1028) scale(1 -1)" gradientUnits="userSpaceOnUse">
      <stop offset=".09" stop-color="#e6404b"/>
      <stop offset=".52" stop-color="#f07e2c"/>
      <stop offset="1" stop-color="#ffc415"/>
    </linearGradient>
    <linearGradient id="linear-gradient-2" x1="-954.9" y1="776.99" x2="-106.79" y2="400.53" gradientTransform="translate(564 1028) scale(1 -1)" gradientUnits="userSpaceOnUse">
      <stop offset=".09" stop-color="#e6404b"/>
      <stop offset=".7" stop-color="#f07e2c"/>
      <stop offset=".96" stop-color="#fed721"/>
    </linearGradient>
    <linearGradient id="linear-gradient-3" x1="-505.89" y1="604.13" x2="32.23" y2="37.38" gradientTransform="translate(564 1028) scale(1 -1)" gradientUnits="userSpaceOnUse">
      <stop offset=".09" stop-color="#e6404b"/>
      <stop offset=".7" stop-color="#f07e2c"/>
      <stop offset=".96" stop-color="#ffc415"/>
    </linearGradient>
    <linearGradient id="linear-gradient-4" x1="-83.76" y1="675.97" x2="-388.64" y2="729.74" xlink:href="#linear-gradient"/>
    <linearGradient id="linear-gradient-5" x1="-971.82" y1="939.15" x2="-123.71" y2="562.7" xlink:href="#linear-gradient-2"/>
    <linearGradient id="linear-gradient-6" x1="-528.98" y1="782.49" x2="9.14" y2="215.74" xlink:href="#linear-gradient-3"/>
    <linearGradient id="linear-gradient-7" x1="-342.6" y1="910.15" x2="-134.14" y2="737.08" xlink:href="#linear-gradient-3"/>
    <linearGradient id="linear-gradient-8" x1="-258.14" y1="768.38" x2="-247.44" y2="850.22" xlink:href="#linear-gradient-3"/>
    <linearGradient id="linear-gradient-9" x1="-339.27" y1="904.12" x2="-205.08" y2="848.08" xlink:href="#linear-gradient-3"/>
    <linearGradient id="linear-gradient-10" x1="-342.58" y1="1020.45" x2="-134.11" y2="847.38" xlink:href="#linear-gradient-3"/>
    <linearGradient id="linear-gradient-11" x1="-258.15" y1="878.65" x2="-247.45" y2="960.49" xlink:href="#linear-gradient-3"/>
    <linearGradient id="linear-gradient-12" x1="-339.25" y1="1014.42" x2="-205.06" y2="958.39" xlink:href="#linear-gradient-3"/>
    <linearGradient id="linear-gradient-13" x1="-242.72" y1="850.61" x2="-105.34" y2="736.55" xlink:href="#linear-gradient-3"/>
    <linearGradient id="linear-gradient-14" x1="-187.1" y1="757.14" x2="-180.04" y2="811.07" xlink:href="#linear-gradient-3"/>
    <linearGradient id="linear-gradient-15" x1="-240.54" y1="846.62" x2="-152.11" y2="809.7" xlink:href="#linear-gradient-3"/>
    <linearGradient id="linear-gradient-16" x1="-314.06" y1="792.72" x2="-209.85" y2="706.19" xlink:href="#linear-gradient-3"/>
    <linearGradient id="linear-gradient-17" x1="-271.84" y1="721.83" x2="-266.49" y2="762.75" xlink:href="#linear-gradient-3"/>
    <linearGradient id="linear-gradient-18" x1="-312.42" y1="789.69" x2="-245.32" y2="761.68" xlink:href="#linear-gradient-3"/>
    <linearGradient id="linear-gradient-19" x1="-378.77" y1="928.72" x2="-260.7" y2="830.67" xlink:href="#linear-gradient-3"/>
    <linearGradient id="linear-gradient-20" x1="-330.92" y1="848.4" x2="-324.86" y2="894.75" xlink:href="#linear-gradient-3"/>
    <linearGradient id="linear-gradient-21" x1="-376.89" y1="925.3" x2="-300.87" y2="893.55" xlink:href="#linear-gradient-3"/>
    <clipPath id="clippath">
      <rect class="cls-16" x="47.14" y="106.84" width="167.3" height="310.33"/>
    </clipPath>
    <linearGradient id="linear-gradient-22" x1="-413.87" y1="836.15" x2="-468.76" y2="825.91" gradientTransform="translate(564 1028) scale(1 -1)" gradientUnits="userSpaceOnUse">
      <stop offset=".08" stop-color="#0c8eca"/>
      <stop offset=".86" stop-color="#5dc7ce"/>
    </linearGradient>
    <linearGradient id="linear-gradient-23" x1="-432.51" y1="834.34" x2="-508.45" y2="819.71" xlink:href="#linear-gradient-22"/>
    <linearGradient id="linear-gradient-24" x1="-466.89" y1="827.61" x2="-521.94" y2="815.12" xlink:href="#linear-gradient-22"/>
  </defs>
  <path class="cls-6" d="M291.97,608.96l155.68-89.77-155.68-89.94-155.68,89.94,155.68,89.77Z"/>
  <path class="cls-24" d="M291.97,608.37v50.37l155.68-89.94v-50.2l-155.68,89.77Z"/>
  <path class="cls-27" d="M291.97,608.37v49.58l-155.68-89.94v-49.41l155.68,89.77Z"/>
  <path class="cls-38" d="M291.97,408.68l155.68-89.77-155.68-89.94-155.68,89.94,155.68,89.77Z"/>
  <path class="cls-15" d="M291.97,408.09v141.63l155.68-89.94v-141.46l-155.68,89.77Z"/>
  <path class="cls-9" d="M291.97,408.09v142.06l-155.68-89.94v-141.89l155.68,89.77Z"/>
  <path class="cls-14" d="M263.29,443.8v14.75l-109.91-63.4v-14.75l109.91,63.41Z"/>
  <path class="cls-10" d="M175.38,429.17v14.72l-21.99-12.14v-14.72l21.99,12.14Z"/>
  <path class="cls-10" d="M202.22,444.48v14.08l-14.63-7.9v-14.08l14.63,7.9Z"/>
  <path class="cls-14" d="M260.84,477.9v14.85l-41.51-24.23v-14.85l41.51,24.23Z"/>
  <path class="cls-34" d="M390.29,401.79v17.68l43.96-26.44v-17.52l-43.96,26.28Z"/>
  <path class="cls-25" d="M409.82,427.83v16.06l24.43-13.24v-16.06l-24.43,13.24Z"/>
  <path class="cls-25" d="M378.08,446.24v17.21l17.11-9.66v-17.21l-17.11,9.66Z"/>
  <path class="cls-34" d="M309.7,484.88v17.64l48.85-28.77v-17.63l-48.85,28.77Z"/>
  <path class="cls-25" d="M309.7,448.29v17.59l46.4-26.38v-17.59l-46.4,26.38Z"/>
  <path class="cls-44" d="M348.69,318.23c.03-18.47-26.13-33.51-58.49-33.6-32.32-.09-58.59,14.81-58.65,33.28-.06,18.47,26.13,33.51,58.46,33.6,32.35.09,58.62-14.81,58.68-33.28Z"/>
  <path class="cls-42" d="M290.2,263.16c32.35.09,58.52,15.14,58.49,33.6"/>
  <path class="cls-34" d="M263.74,411.13c-2.64-1.47-4.7-.3-4.7,2.65s2.06,6.63,4.7,8.25c2.67,1.48,4.74.3,4.74-2.65,0-3.09-2.06-6.78-4.74-8.25Z"/>
  <path class="cls-34" d="M241.51,398.6c-2.64-1.47-4.7-.29-4.7,2.65s2.06,6.64,4.7,8.26c2.64,1.47,4.71.29,4.71-2.66,0-3.09-2.19-6.78-4.71-8.25Z"/>
  <path class="cls-34" d="M221.3,386.66c-2.64-1.47-4.7-.29-4.7,2.65s2.06,6.64,4.7,8.26c2.67,1.47,4.74.3,4.74-2.65,0-3.1-2.06-6.78-4.74-8.26Z"/>
  <path class="cls-26" d="M304.89,170.82v26.79l-23.23-13.4v-26.93l23.23,13.53Z"/>
  <path class="cls-30" d="M304.89,170.82l23.4-13.53v26.93l-23.4,13.4v-26.79Z"/>
  <path class="cls-28" d="M304.89,170.82l-23.23-13.53,23.23-13.4,23.4,13.4-23.4,13.53Z"/>
  <path class="cls-43" d="M376.27,212.25l-60.04-34.72"/>
  <path class="cls-37" d="M304.89,60.5v26.93l-23.23-13.53v-26.8l23.23,13.4Z"/>
  <path class="cls-13" d="M304.89,60.5l23.4-13.4v26.8l-23.4,13.53v-26.93Z"/>
  <path class="cls-2" d="M304.89,60.5l-23.23-13.4,23.23-13.53,23.4,13.53-23.4,13.4Z"/>
  <path class="cls-18" d="M376.27,212.25v17.77l-15.31-8.88v-17.63l15.31,8.75Z"/>
  <path class="cls-23" d="M376.27,212.25l15.44-8.75v17.63l-15.44,8.88v-17.77Z"/>
  <path class="cls-12" d="M376.27,212.25l-15.31-8.75,15.31-8.88,15.44,8.88-15.44,8.75Z"/>
  <path class="cls-43" d="M291.65,261.73l76.95-44.43"/>
  <path class="cls-20" d="M291.65,261.74v13.4l-11.63-6.7v-13.4l11.63,6.7Z"/>
  <path class="cls-3" d="M291.65,261.74l11.76-6.7v13.4l-11.76,6.7v-13.4Z"/>
  <path class="cls-32" d="M291.65,261.74l-11.63-6.7,11.63-6.7,11.76,6.7-11.76,6.7Z"/>
  <path class="cls-43" d="M232.58,129.27l59.07,125.76,13.24-57.41"/>
  <path class="cls-5" d="M232.58,129.28v15.18l-13.24-7.52v-15.31l13.24,7.66Z"/>
  <path class="cls-22" d="M232.58,129.28l13.15-7.66v15.31l-13.15,7.52v-15.18Z"/>
  <path class="cls-8" d="M232.58,129.28l-13.24-7.65,13.24-7.52,13.15,7.52-13.15,7.65Z"/>
  <path class="cls-43" d="M239.15,132.96l42.51,24.33"/>
  <path class="cls-43" d="M304.89,157.29v-69.86"/>
  <g class="cls-45">
    <g>
      <path class="cls-1" d="M70.95,417.15c9.01-.56,7.03-15.87,4.59-24.2-.88-3-4.49-4.47-7.47-3.49-2.98.98-4.81,6.64-4.71,9.77.07,2.93-3.05,18.59,7.6,17.93Z"/>
      <path class="cls-17" d="M75.89,401.22c1.51-12.92-12.6-14-10.67.07.52,3.74,2.86,6.47,5.23,6.57,3.69.17,5.13-3.93,5.45-6.64Z"/>
      <path class="cls-1" d="M117.77,396.13c3.93,3.13,8.89,4.81,13.85,4.69.69-.02,1.44-.1,1.88-.63.66-.81.2-2.08-.37-2.98-4.54-7.42-13.09-13.75-16.83-21.64-.44-.91-.83-1.88-1.59-2.52-1.17-.93-2.84-.73-4.25-1.1-1.32-.34-2.74-1.2-3.96-.54-1.1.61-1.32,2.1-1.66,3.37-.37,1.34-.98,4.69-1.39,5.98-.44,1.32-.69,2.76-.32,4.08.49,1.66,1.86,2.86,3.35,3.64,1.47.78,3.08,1.27,4.54,2.08,2.52,1.44,4.47,3.74,6.74,5.57Z"/>
      <path class="cls-1" d="M133.5,400.19c-.44.51-1.2.61-1.86.63-4.93.15-9.92-1.54-13.85-4.67-2.27-1.83-4.25-4.15-6.79-5.54-1.47-.81-3.08-1.3-4.54-2.08-1.47-.81-2.86-2-3.32-3.66-.39-1.32-.12-2.76.29-4.08.37-1.12.88-4.32,1.25-5.47.07-.17.12-.34.17-.51.34-1.24.56-2.74,1.69-3.35,1.2-.66,2.61.2,3.93.54,1.44.36,3.1.14,4.27,1.1.78.63,1.15,1.61,1.59,2.51,1.47,3.13,3.71,5.64,6.13,8.06,3.74,3.66,7.96,9.09,10.7,13.58.51.86,1,2.1.34,2.93Z"/>
      <path class="cls-1" d="M125.1,387.95c.07.52-.1,1.05-.51,1.34-.37.22-.81.22-1.22.2-4.4-.34-8.28-2.98-11.68-5.79-1.76-1.44-3.47-2.98-4.89-4.79-.85-1.1-1.61-2.32-2.12-3.61.07-.17.12-.34.17-.52.34-1.24.39-3.86,1.49-4.47,1.2-.66,2.81.05,4.13.39,1.44.36,3.62-.46,4.79.49.78.63.44,2.71.88,3.62,1.47,3.13,3.91,6.42,6.35,8.84.76,1.02,1.47,2,2.05,2.96.22.39.46.83.56,1.34Z"/>
      <path class="cls-17" d="M120.98,298.44c-.12,2.03-.29,4.35-.44,6.91-.14,2.42-.34,5.06-.51,7.84-.15,2.25-.29,4.59-.44,7.01-1.54,24.18-3.47,54.54-3.47,54.56-.02.07-.07.12-.1.17-2.2,4.08-10.43,5.01-11.19-.17-.88-15.97-3.71-29.92-5.72-42.69-.68-4.37-1.27-8.6-1.63-12.73-.34-3.54-.49-6.99-.42-10.38v-.51c.05-2.96.29-5.89.73-8.77.15-.88.32-1.71.49-2.57l18.61-12.09c0,.54,4.08,12.87,4.08,13.41Z"/>
      <path class="cls-33" d="M99.09,271.78c-3.1,15.83-4.86,28.33-6.74,37.93-.15.73-.29,1.44-.42,2.13-.76,3.66-1.59,6.89-2.52,9.65-.19.63-.42,1.22-.63,1.79l-1.54,7.4-.68,3.22-11.95,57.27-.41,2.03-.39,1.88c0,4.52-6.91,2.98-7.3-.83-.02-.29-.07-.59-.1-.85-.1-.85-.2-1.69-.27-2.52-3.71-34.61-2.68-48.53-.34-61.62.29-1.66.61-3.34.93-5.03.46-2.42.98-4.91,1.49-7.55-.12-.85-.2-1.71-.29-2.57-.03-.22-.05-.44-.07-.66-.03-.12-.03-.24-.05-.37-2.03-18-1.51-31.8-1.05-41.33h32.34v.03Z"/>
      <path class="cls-17" d="M99.09,271.78c-3.1,15.83-4.86,28.33-6.74,37.93-.15.73-.29,1.44-.42,2.13-.76,3.66-1.59,6.89-2.52,9.65-.19.63-.42,1.22-.63,1.79l-1.54,7.4-.68,3.22-11.95,57.27-.41,2.03-.39,1.88c0,4.52-6.91,2.98-7.3-.83-.02-.29-.07-.59-.1-.85-.1-.85-.2-1.69-.27-2.52-3.71-34.61-2.68-48.53-.34-61.62.29-1.66.61-3.34.93-5.03.46-2.42.98-4.91,1.49-7.55-.12-.85-.2-1.71-.29-2.57-.03-.22-.05-.44-.07-.66-.03-.12-.03-.24-.05-.37-2.03-18-1.51-31.8-1.05-41.33h32.34v.03Z"/>
      <path class="cls-40" d="M140.05,229.18l-29.06-5.79s-11.11-36.59-10.67-37.2c.44-.59,11.11-22.57,11.11-22.57l8.35,45.87,25.08,12.6-4.81,7.08Z"/>
      <path class="cls-21" d="M140.05,229.18l-29.06-5.79s-11.11-36.59-10.67-37.2c.44-.59,11.11-22.57,11.11-22.57l8.35,45.87,25.08,12.6-4.81,7.08Z"/>
      <path class="cls-29" d="M83.41,141.37c-18.49,6.01-14.56,23.47-9.55,37.15l13.04-12.28-3.49-24.87Z"/>
      <path class="cls-4" d="M120.12,311.73c-2.81,7.67-41.06,23.11-53.15,11.14l-3.56-52.83c-3.27-17.34-.42-26.28,8.6-34.66,1.1-1,2.25-2,3.52-3l26.84-1.1,10.5-.42c9.14,29.09,9.38,60.77,7.25,80.87Z"/>
      <path class="cls-19" d="M124.25,204.48c.03,5.35-5.06,10.21-11.36,9.36-.03,5.13-1.59,12.28,0,17-2.57,6.16-5.98,10.89-12.77,12.63-6.79,1.71-20.34.29-28.11-8.11,1.3-9.53-1.93-21.71-5.28-31.95-2.59-7.91-3.54-17.9-4.27-21.27,6.2-7.79,11.97-11.04,19.93-16.58,7.94-5.55,14.02-11.92,23.1-8.52,9.09,3.39,7.72,20.78,11.07,27.94,3.32,7.13,7.67,12.09,7.69,19.52Z"/>
      <path class="cls-17" d="M90.62,224.15c.9,1.76,2.74,3.15,5.42,4.18l3.76.83c.36,1.1,2.05,1.32,3.76,1.51,1.24-.2,1.83-.78,1.71-1.79,1-.71,1.59-1.49,1.17-2.47.93-.68,1.34-1.51.83-2.61.81-.85,1.12-1.81.53-2.88l9.23,1.1c1.98.24,2.66-1.64,0-2.25l-17.17-3.15c-2.37-.59-4.81-.59-7.32,0l-5.89,1.51.34,7.11,3.62-1.1Z"/>
      <path class="cls-31" d="M62.45,182.13c-9.77,11.94-20,45.48-12.97,50.44,8.08,7.01,25.45-.73,41.57-7.3-.85-3.81-.95-6.64,1.51-8.67l-29.82,3.39,11.85-18.78c4.61-15.73-3.25-24.86-12.14-19.07Z"/>
      <path class="cls-17" d="M85.85,153.29c-1.17,4.03-4.32,10.28-5.1,14.14-.88,4.74,7.86,12.14,13.75,11.7,4.15-.81,5.2-6.16,5.81-11.04l-14.46-14.8Z"/>
      <path class="cls-29" d="M104.61,138.71c11.75,1.78,24.91,16.15,5.2,24.13.51-6.47,1.66-11.38-5.2-24.13Z"/>
      <path class="cls-41" d="M97.48,130.35c13.68,1.9,17.9,9.92,16.54,20.81-.17,9.14-7.74,21.23-13.06,21-7.57.42-11.29-8.4-17.76-17.85-4.99-15.56,1.54-25.72,14.29-23.96Z"/>
      <path class="cls-29" d="M113.82,151.46c-2.83,3.05-7.4,4.76-13.09,6.08-4.79,1.98-9.46,1.79-11.31,4.47l-5.57-2.29c-5.59-6.42-6.13-24.79,3.45-28.7,15.41-6.23,33.68,9.21,26.52,20.44Z"/>
      <path class="cls-17" d="M89.25,159.2c-.85-3.34-3.17-5.54-5.15-3.62-.93.91-.85,2.54,0,4.64.68,1.64,1.71,2.39,2.98,2.59,1.88.29,2.81-1.05,2.17-3.62Z"/>
      <path class="cls-39" d="M131.77,200.28c-8.67,8.13-14.51,20.42-18.88,38.3l30.07.98c-.44-13.9,8.67-26.89,20.18-39.27h-31.36Z"/>
      <path class="cls-17" d="M141.98,222.98c-3.1.32-3.1,2.74-.81,2.98-3.54-.07-4.1,3.05-1.15,3.22-2.03.1-2.42,2.44.54,2.71-2.2.69-2.37,2.08.12,2.42l3.35.19c1.34.12,3.2-.68,2.81-2.34,1.15,0,2.03-2.76,1.44-2.98,1.02-.44,1.76-2.44,1-3.1,1.41-.76,1.61-2.86-.44-5.13l-.98-1-1.47,2.83-4.42.2Z"/>
    </g>
  </g>
  <path class="cls-34" d="M374.31,573.81c6.12-3.4,10.86-.68,10.86,6.11s-4.74,15.28-10.86,19.02c-6.12,3.4-10.89.68-10.89-6.11,0-7.13,4.77-15.63,10.89-19.02Z"/>
  <path class="cls-34" d="M205.22,573.62c-6.12-3.4-10.89-.68-10.89,6.11s4.77,15.29,10.89,19.02c6.09,3.4,10.86.68,10.86-6.11,0-7.13-4.77-15.63-10.86-19.02Z"/>
  <path class="cls-11" d="M206.83,584.26c2.13,2.26,1.84,6.54.77,6.98h-3.74c-3.54-1.06-9.76-3.85-6.32-6.56,4.29-3.4,7.19-2.67,9.28-.41Z"/>
  <path class="cls-36" d="M559.83,698.31l-187.13-106.56,5.29-8.76,194.06,108.91v79.64l-12.21-3.51v-69.72Z"/>
  <path class="cls-35" d="M372.47,584.73c-2.58,3.26-.87,6,.32,6.97l8.57-4.27-3.42-4.36c-1.03-.4-3.58-.62-5.48,1.66Z"/>
  <circle class="cls-7" cx="470.89" cy="639.29" r="12.21"/>
</svg>