<?xml version="1.0" encoding="UTF-8"?>
<svg xmlns="http://www.w3.org/2000/svg" version="1.1" xmlns:xlink="http://www.w3.org/1999/xlink" viewBox="0 0 713.6 949.4">
  <!-- Generator: Adobe Illustrator 29.3.1, SVG Export Plug-In . SVG Version: 2.1.0 Build 151)  -->
  <defs>
    <style>
      .st0 {
        fill: url(#linear-gradient2);
      }

      .st1 {
        fill: #cacddb;
        mix-blend-mode: multiply;
      }

      .st2 {
        fill: #ebebea;
      }

      .st3 {
        fill: #f6f6f6;
      }

      .st4 {
        fill: #484848;
      }

      .st5 {
        fill: #929295;
      }

      .st6 {
        fill: #1b1b24;
      }

      .st7 {
        fill: #2f2e3d;
      }

      .st8 {
        fill: #2c2c3a;
      }

      .st9 {
        fill: #b7b6b8;
      }

      .st10 {
        fill: #8397aa;
      }

      .st11 {
        fill: #302f3f;
      }

      .st12 {
        fill: #cacbd0;
      }

      .st13 {
        fill: #b2c2d4;
      }

      .st14 {
        fill: #fff;
      }

      .st15 {
        fill: #ec1d24;
      }

      .st16 {
        fill: #2f2e3e;
      }

      .st17 {
        fill: url(#linear-gradient1);
      }

      .st18 {
        fill: #b9b9b9;
      }

      .st19 {
        fill: #181820;
      }

      .st20 {
        fill: #ef403e;
      }

      .st21 {
        fill: #4a4955;
      }

      .st22 {
        isolation: isolate;
      }

      .st23 {
        fill: #989798;
      }

      .st24 {
        fill: #434d68;
      }

      .st25 {
        fill: #666;
      }

      .st26 {
        fill: url(#linear-gradient4);
      }

      .st27 {
        fill: #b0b1b1;
      }

      .st28 {
        fill: #49aec2;
        opacity: .6;
      }

      .st29 {
        fill: #333242;
      }

      .st30 {
        fill: #3e3e3e;
      }

      .st31 {
        fill: url(#linear-gradient5);
      }

      .st32 {
        fill: url(#linear-gradient3);
      }

      .st33 {
        fill: #727272;
      }

      .st34 {
        fill: #dcdcdc;
      }

      .st35 {
        fill: #21212c;
      }

      .st36 {
        fill: #dadade;
      }

      .st37 {
        fill: #d2dde8;
      }

      .st38 {
        fill: #737375;
      }

      .st39 {
        fill: #e6e7e6;
      }

      .st40 {
        fill: url(#linear-gradient6);
      }

      .st41 {
        fill: #acacac;
      }

      .st42 {
        fill: #a3b3c3;
      }

      .st43 {
        fill: #2e2c3c;
      }

      .st44 {
        fill: #801517;
      }

      .st45 {
        fill: #4f5b7b;
      }

      .st46 {
        fill: #939396;
      }

      .st47 {
        fill: url(#linear-gradient);
      }

      .st48 {
        fill: #a4a4a8;
      }

      .st49 {
        fill: #949698;
      }

      .st50 {
        fill: #864e51;
      }

      .st51 {
        fill: #878787;
      }
    </style>
    <linearGradient id="linear-gradient" x1="733.8" y1="752.9" x2="784.3" y2="752.9" gradientTransform="translate(-173.3 -530) rotate(6.4)" gradientUnits="userSpaceOnUse">
      <stop offset="0" stop-color="#ffdba7"/>
      <stop offset="1" stop-color="#fcc4a6"/>
    </linearGradient>
    <linearGradient id="linear-gradient1" x1="750.4" y1="744" x2="791.3" y2="744" xlink:href="#linear-gradient"/>
    <linearGradient id="linear-gradient2" x1="780.6" y1="743.5" x2="787.2" y2="743.5" xlink:href="#linear-gradient"/>
    <linearGradient id="linear-gradient3" x1="719.4" y1="580.7" x2="744.6" y2="580.7" gradientTransform="translate(-126 -416.9) rotate(5.1)" xlink:href="#linear-gradient"/>
    <linearGradient id="linear-gradient4" x1="705.1" y1="649.3" x2="733.3" y2="649.3" xlink:href="#linear-gradient"/>
    <linearGradient id="linear-gradient5" x1="6692" y1="487.8" x2="6614" y2="352.8" gradientTransform="translate(6912.6) rotate(-180) scale(1 -1)" gradientUnits="userSpaceOnUse">
      <stop offset="0" stop-color="#c4c4c8"/>
      <stop offset=".7" stop-color="#d2d2d6"/>
    </linearGradient>
    <linearGradient id="linear-gradient6" x1="6686.7" y1="522.7" x2="6650.9" y2="460.6" gradientTransform="translate(6912.6) rotate(-180) scale(1 -1)" gradientUnits="userSpaceOnUse">
      <stop offset="0" stop-color="#c4c4c8"/>
      <stop offset="0" stop-color="#c4c4c8"/>
      <stop offset=".3" stop-color="#ceced2"/>
      <stop offset=".7" stop-color="#d2d2d6"/>
    </linearGradient>
  </defs>
  <g class="st22">
    <g id="Layer_2">
      <g>
        <g>
          <path class="st28" d="M408.3,696.5c25.8,14.9,67.7,14.8,93.6-.2,25.9-15,26.1-39.2.3-54-25.8-14.9-67.7-14.8-93.6.2-25.9,15-26.1,39.2-.3,54Z"/>
          <path class="st28" d="M515.5,738.1c25.8,14.9,67.7,14.8,93.6-.2,25.9-15,26.1-39.2.3-54-25.8-14.9-67.7-14.8-93.6.2-25.9,15-26.1,39.2-.3,54Z"/>
          <g>
            <path class="st14" d="M447.1,275.7l-4.5-4.7s-35.8-2.3-35.1,6.9c.7,9.2,18.6,24.3,29.3,34,10.8,9.6,21.2,21.7,22.6,22.7,1.4,1,10.5-34.2,9.8-36.9-.7-2.6.8-3.7.2-4.1-.7-.4-22.4-17.9-22.4-17.9Z"/>
            <path class="st29" d="M470.7,638.4c2.4.2,4.9.9,5.4,2.7.5,1.8,0,7.2,0,7.8-.1.6-4.2,6.5-5.9,7.8-1.7,1.3-2.9,1.8-2.9,1.8,0,0-1.9,3.6-2.1,5.9-.2,2.3-3.4,13.2-11,17.2-7.6,4.1-14.2.9-17.6-1.5-3.4-2.4-3.1-5.5-3.1-7.5,0-2,1.1-7.4,2.6-9.9,1.5-2.4,16.2-12.6,16.2-12.6l18.4-11.7Z"/>
            <path class="st29" d="M581.6,686.3c2.1.6,3.9,2.6,4.2,5.3.4,2.8-.6,6.8-1.4,8.6s-4.3,12.5-5,14.8c-.7,2.4-3,7.2-6.8,11.7-3.8,4.5-10.4,10.2-23.3,9.9-12.9-.3-12.2-8.5-12.2-9.7,0-1.2.8-5.3,4.2-9.6,3.4-4.3,40.3-31,40.3-31Z"/>
            <path class="st41" d="M452.3,637.2c-2.4,3.8-5.2,8-5.8,9.6-.6,1.6-6.3,11-9.1,15.7-2.7,4.7-2.6,11.1-1.7,13,.8,1.9,7.9,6.1,13.2,5,5.3-1.1,11.4-8.9,12.1-11s3.9-9.4,4.3-10.3c.4-.9,6.1-8.8,7.1-9.9,1-1.1,2.9-5.5,3-6.8,0-1.3-1.2-9.7-1.2-9.7l-21.9,4.5Z"/>
            <path class="st41" d="M557.4,684.4c.2,1.5-1.1,7.8-1.7,8.9-.6,1.1-13.3,21.5-14.6,24.4-1.3,2.8-1.2,9.6-1.2,10.5s6.1,6.9,15.8,4.9c9.8-2,17.7-9.7,19.6-12.4,1.8-2.7,5-14.6,5.6-16.6.7-1.9,4.2-7.3,3.9-13.4-.3-6.1-2.1-9.5-2.1-9.5l-25.4,3.3Z"/>
            <path class="st14" d="M557,689.1c.1.2-1.1,6.1-.7,6.5.4.4,2.7-1.4,2.7-1.4,0,0,3.4,1.1,7.4,1.8,4,.7,10.7.8,10.7.8l2.5.8s4.7-8.4,3.8-10.4c-.8-2-2-3.3-2-3.3,0,0-7.6-8.2-10.9-8.3-3.3-.1-13.5,13.4-13.5,13.4Z"/>
            <path class="st14" d="M451.4,639.5c-.6.1-1.5,2.7-1.6,3.5,0,.9,1.7,2,1.7,2,0,0,12.5,6.3,14.7,6.1,2.2-.2,8.1-6.7,8.1-6.7l.6-4.9h-23.5Z"/>
            <path class="st24" d="M464.3,429.7c-6,18.5-10,34.4-14.5,51.2-3.1,11.8-9,59.2-9.2,68.5-.2,9.3,9.5,88.5,10.1,93.7.6,5.2,13.2,8.1,17.5,5.9,4.3-2.1,10.3-8.3,10.5-10.6.2-2.4,3.4-80.2,3.4-80.2,0,0,4.8-9.3,8-14.9,3.2-5.6,17.7-37.2,18.7-40.1,1-2.9,3.1-51,0-55.4-3.2-4.4-44.4-18.2-44.4-18.2Z"/>
            <path class="st45" d="M472.3,647.3c2.3-29.9,6.7-87.1,7.1-88.9.2-.9.6-1.8,1.8-4,1.4-2.7,4.1-7.8,8.8-17.9,5.7-12.2,10.1-19.3,13.4-24.4,1.7-2.6,3-4.7,4-6.8l-1.3-.7c-1,2-2.3,4.1-4,6.7-3.3,5.2-7.8,12.4-13.5,24.6-4.7,10.1-7.4,15.1-8.8,17.8-1.2,2.3-1.7,3.2-1.9,4.4-.5,2.4-6.8,85.5-7.1,89.1h1.5Z"/>
            <path class="st24" d="M497.6,454c.2,5.7-4.3,24-3.7,36.5.6,12.5,3.3,16.9,4.7,18.2,1.3,1.3,8.7,3.4,10,4.8,1.2,1.3,12.8,38.9,16.6,55.8,3.9,17,3.6,19.8,6.5,29.6,3,9.8,15.2,38,18.9,56.2,3.6,18.1,5.4,29.4,6.3,33.6.9,4.3,18.2,5.5,23,3.4s4.8-8.8,4.8-8.8c0,0-1.8-31.3-6.6-52.5-4.8-21.1-15-50.7-15.7-54-.7-3.3-.9-45.1-2.3-64.1-1.4-19-7.9-54.8-8.3-56.5s-1.9-18.3-1.9-18.3l-52.3,16.1Z"/>
            <path class="st45" d="M495.1,503.6l1.3-.7c-4.4-8.1-.5-34.9,0-36.7l-.6-.2h0c0,0,.6-.5.6-.5l-1-.2c-.9.6-2.1,13.3-2.3,16-.5,7.5-.6,17.5,2,22.3Z"/>
            <path class="st45" d="M494.3,498.5c.4,0,8.8-2,9.5-7.2.3-1.9.4-5,.5-8.5.2-5.2.4-11.7,1.2-17.9l-1.4-.2c-.8,6.3-1,12.8-1.2,18.1-.1,3.5-.2,6.5-.5,8.4-.5,3.4-6.2,5.5-8.4,6l.3,1.4Z"/>
            <path class="st45" d="M580.5,691.2h1.5c0-.6-3.6-53.4-6.4-68.3-1.6-8.3-6.2-19.3-10-28.2-2.9-6.8-5.6-13.3-5.4-15.1.5-4.2-.8-54.9-2.1-68.3-1.3-12.7-6.6-54.7-8.3-58.5l-1.3.6c1.5,3.3,6.8,44.4,8.1,58,1.3,13.3,2.6,63.7,2.1,68-.2,2.1,1.8,7.2,5.5,15.9,3.7,8.8,8.4,19.8,9.9,27.9,2.8,14.8,6.4,67.5,6.4,68Z"/>
            <path class="st29" d="M459.6,444.2c2.8,6.6,14.3,21.1,36.1,24.4,21.8,3.2,39.6-4,45.2-6.6,5.7-2.6,10.8-5.8,10.8-5.8l-1.6-14.3s-7,7.8-22.4,12.5c-15.5,4.7-24.8,5.1-37,2.3-12.2-2.8-22-11.9-24.2-16.7-2.2-4.8-2.7-6-2.8-7,0-1-.4-2-.4-2l-3.9,13.1Z"/>
            <path class="st24" d="M474.1,464.4c.7-6.4,2.7-12.8,5.9-18.4l-2.5-1.4c-3.3,6-5.5,12.7-6.2,19.6l2.9.3Z"/>
            <path class="st24" d="M517.7,471.9l-1.3-.4.3-1.3c1-4.5,1-9.2,0-13.7l2.9-.6c.9,4.5,1,9.2.2,13.7l.3.2-.5,1.3c-.2.6-.8,1-1.5,1s-.3,0-.4,0ZM517.6,471.7l.6-1.2-.6,1.2ZM516.9,469.9l1.3.5.4-1.3c-.1,0-.3,0-.4,0-.6,0-1.1.3-1.3.9Z"/>
            <path class="st24" d="M552.6,459.4c.6-2.5.2-5.1-.2-7.5-.6-3.3-1.3-6.6-2.1-9.8-.1-.6-.6-1.3-1.4-1.6-.6-.2-1.2,0-1.6.4l2,2.1c-.3.3-.8.4-1.2.3,0,0-.5-.2-.6-.5.8,3.2,1.5,6.4,2,9.7.4,2.2.7,4.4.3,6.4l2.8.6Z"/>
            <path class="st45" d="M530.8,474c1.3,0,2.8-.1,4.3-.3,11-1.6,17.1-3.4,17.2-3.5l-.4-1.4c0,0-6.1,1.8-17,3.4-5.1.7-9,.2-11.2-1.7-1.6-1.4-1.9-3.1-2-4h-1.5c0,2.1,1,3.9,2.5,5.1,1.9,1.5,4.5,2.3,8,2.3Z"/>
            <path class="st45" d="M464,466.9c.4,0,.9,0,1.3-.1,2.1-.4,4.1-1.9,5.7-4.4,1.9-2.9,3-6.7,2.9-7.3l-.7.2h-.7c0,.8-2.5,9.1-7.5,10.1-5.1,1-9.5-6-9.5-6.1l-1.2.8c.2.3,4.3,6.9,9.8,6.9Z"/>
            <path class="st2" d="M524.4,299.3c8.6,3.4,25.5-.4,35.5,2.4,9.9,2.8,12.6,10.9,11.1,22.7-1.5,11.9-6.2,32.4-8.1,40.4-1.9,7.9-12.3,71.1-13.2,73.9s-19.3,16.8-41.5,17.6c-22.2.8-39.1-8.1-43.4-20.1-4.3-12,1.1-35.4.4-46.1-.7-10.7-4.5-50-5.7-57.3-2.5-15.1,7.6-38.5,10.6-39.6,3-1.2,14.5-1.2,16.6-.8,2.2.3,37.7,6.9,37.7,6.9Z"/>
            <polygon class="st20" points="500.2 339.1 488 418.3 499.4 434.1 511.6 422.6 505.7 338.1 500.2 339.1"/>
            <path class="st14" d="M611.9,302.4c4,2.7,9.3-.3,9.4,3.2s-3.1,11.2-11.6,18.4c-8.5,7.2-43,29.1-44.7,30.3-1.6,1.2-9.4-22.4-10.1-31.7-.6-9.4,3.1-19.8,5.8-21,2.7-1.1,11.1-2.6,12.9-2.9,1.8-.4,11.1-1.9,12.8-2.3,1.7-.3,25.5,6,25.5,6Z"/>
            <path class="st14" d="M560.9,248.8c-2.3-1.4-7.3,3.4-8.8,6.6-1.5,3.2-2.6,5.7-1.7,8.1.9,2.4,30,32,31.9,34.7,1.9,2.6,5.6,9.4,15.2,13.1,9.6,3.6,20.3.1,22.2-2.2,1.9-2.3,2-6.8,1.2-10.2-.9-3.4-4.7-9.6-20-22.1-15.3-12.5-39.9-27.9-39.9-27.9Z"/>
            <path class="st14" d="M464.3,217.6c-8.3-8.7-13-2.1-14-1.6-1,.5-15.7,15.3-23.6,26.2-7.9,11-20.3,23.8-20.9,29.9-.6,6.1,7.9,13.8,15.3,12.9,7.4-1,17.7-8,21.6-14,3.9-6,25.4-42.7,26.3-46,.9-3.3-4.6-7.4-4.6-7.4Z"/>
            <g class="st22">
              <polygon class="st13" points="569.6 127.7 574.3 149.9 547.6 250.7 542.9 228.4 569.6 127.7"/>
              <polygon class="st37" points="542.9 228.4 547.6 250.7 469.4 243.5 464.7 221.3 542.9 228.4"/>
              <polygon class="st3" points="569.6 127.7 542.9 228.4 464.7 221.3 491.4 120.5 569.6 127.7"/>
            </g>
            <path class="st47" d="M474.3,284.9c-1.5,4.1-1.9,11.4-.8,14.6,1,3.2,17.6,28.3,20,30.8,2.4,2.5,9,2.5,11,1.7,2-.8,15.1-12.1,16.6-17.8,1.5-5.7.4-11.5,0-12.9-.3-1.4-10.2-19-10.2-19,0,0-6.8-9.5-16.8-8.9-10,.7-19.8,11.4-19.8,11.4Z"/>
            <path class="st17" d="M511,319.8c3.7,1,6.3.5,9.9-1.7,3.6-2.2,8.7-10.9,8.5-13-.3-2.1-2.1-3.6-2.5-5.1s2.1-16.7-.6-22.6c-2.7-6-30.8-10.9-34.6-2.2-3.8,8.7,19.3,44.6,19.3,44.6Z"/>
            <path class="st0" d="M520.9,291.6c1.1-1.7,2.6-2.8,4.5-1.1,1.9,1.7.2,9.1-.1,10.5-.4,1.4-2.1,2.3-3.4,1.5s-2.4-5.6-2.4-5.6l1.5-5.3Z"/>
            <path class="st50" d="M520.3,303.8c-.3.7-2.7,2.4-2.7,2.4,0,0-5-8.1-6.6-8.2-1.6-.2-4.6-1.4-5.7-3.1-1.1-1.7-5.6-4.8-6.9-3.9s-11.6,4-15.6,4.1-10-1.8-10-1.8l.2,4s-4-2.9-5.6-5.2c-1.5-2.3-3.2-8.8.2-19.6,3.3-10.8,10-15.4,14.3-18.3,4.3-2.9,13.3-2.7,13.3-2.7,0,0,6.2-2.4,13.3.2,7.1,2.6,17.9,8.2,20.1,18,2.3,9.8.2,22.8-.2,24.6s-1.3,6.7-1.3,6.7l-1.4-1.8s2.4-8.2.6-9c-1.8-.8-4.1-.4-5.8,3.2-1.7,3.5-.2,10.6-.2,10.6Z"/>
            <path class="st14" d="M528.8,303.5c.5,2-8.6,13.5-10.2,15.1-1.6,1.6-2.8,5.2-3.5,6.2-.7,1-4.4,4.3-4.4,4.3l8.8-3.3,5.8,2.3s8.4-11.4,10.4-15.4c1.9-4,1.5-9.7,1.2-10s-4.4-10.5-5.7-11.8c-1.3-1.3-3.8-1.5-3.8-1.5,0,0-1.3,9.9-1.2,10.7,0,.8,2.6,3.4,2.6,3.4Z"/>
            <path class="st32" d="M551.3,207.3s-2,1-1.9,7.2c0,6.2-1.3,13-1.3,13l-3.7,10.9s-6,.6-6.9.6,1,4.9,1.9,7c.9,2.2,3.2,2.9,4,3.7.8.9,6.1,11.3,6.7,12.2.6.9,7.5,1.8,9.8-3.7,2.3-5.5,1.4-7.2.8-8.8-.7-1.5-2.5-3.9-3.2-6.4-.7-2.5,1.7-19.1,2-21.3.3-2.2-3.1-17.3-2.9-19.1.2-1.9,1.2-9.3.3-10.1-.9-.8-3.1-.4-3.1-.4l-1.1,3.6s-1.1-.4-1.8,2c-.7,2.4.5,9.6.5,9.6Z"/>
            <path class="st26" d="M459,206.1c-.5,2.6-5.9,10.2-6.6,12-.7,1.8,3.1,6.4,6.5,8.2,3.5,1.8,6.3,1.7,7.9-1.2,1.6-2.9,4-8.3,4-8.3,0,0,1.4-2.8,2.1-4.1.6-1.3-.2-10.8.1-12.6.3-1.9,4.5-6.6,4.7-6.8.2-.3,5.6-1.9,6.1-4,.5-2.1-1.5-3.3-1.5-3.3,0,0-7.2,2.6-7.4,2.3-.3-.3-1.5.2-1.5.2l3.7-13.9s-.1-6,.6-7.2c.7-1.2.5-2.2.5-2.2,0,0-.2-1.9-1.8-1.4-1.6.5-4.4,5.5-4.4,5.5,0,0-8.7,1.6-9.6,2.3-.9.7-1.3,4.6-1.3,4.6l-1,7.8-1.9,5.8.8,4.8v11.8Z"/>
            <polygon class="st3" points="473 200.1 468.3 207.8 464.7 221.3 479.3 222.6 473 200.1"/>
          </g>
          <polygon class="st37" points="464.7 221.3 469.4 243.5 476.7 226.2 474.2 222.2 464.7 221.3"/>
          <path class="st14" d="M521,349.9l-1.3,22.8,10,10s13.1-8.7,13.7-10.4,2.9-21.9,1.6-22.4c-9.5,1.3-24.1,0-24.1,0Z"/>
          <polygon class="st20" points="495.8 331.1 497.7 339.1 502.4 341.9 507.5 339.9 511.6 328.4 505.7 325.4 495.8 331.1"/>
        </g>
        <polygon class="st28" points="438.1 870 116.6 693.6 273.9 602.7 589.8 782.4 438.1 870"/>
        <g>
          <g class="st22">
            <polygon class="st33" points="570.8 629.3 570.3 782 565 785.1 565.5 632.4 570.8 629.3"/>
            <polygon class="st51" points="565.5 632.4 565 785.1 559.7 782 560.1 629.3 565.5 632.4"/>
            <polygon class="st18" points="570.8 629.3 565.5 632.4 560.1 629.3 565.4 626.2 570.8 629.3"/>
          </g>
          <g class="st22">
            <polygon class="st33" points="442.5 855.8 565 785.1 565 779 442.6 849.7 442.5 855.8"/>
            <polygon class="st23" points="442.6 849.7 565 779 559.7 775.9 437.2 846.6 442.6 849.7"/>
            <polygon class="st18" points="442.5 855.8 442.6 849.7 437.2 846.6 437.2 852.7 442.5 855.8"/>
          </g>
          <g class="st22">
            <polygon class="st33" points="441.4 739.3 564.3 668.3 564.3 664.4 441.5 735.3 441.4 739.3"/>
            <polygon class="st23" points="441.5 735.3 564.3 664.4 560.9 662.4 438 733.3 441.5 735.3"/>
            <polygon class="st34" points="441.4 739.3 441.5 735.3 438 733.3 438 737.3 441.4 739.3"/>
          </g>
          <g class="st22">
            <polygon class="st33" points="443 697.9 442.5 855.8 437.2 858.9 437.7 701 443 697.9"/>
            <polygon class="st51" points="437.7 701 437.2 858.9 431.9 855.8 432.4 697.9 437.7 701"/>
            <polygon class="st18" points="443 697.9 437.7 701 432.4 697.9 437.7 694.8 443 697.9"/>
          </g>
          <g class="st22">
            <polygon class="st33" points="282.2 463.5 281.7 616.2 276.4 619.3 276.9 466.6 282.2 463.5"/>
            <polygon class="st51" points="276.9 466.6 276.4 619.3 271.1 616.2 271.5 463.5 276.9 466.6"/>
            <polygon class="st18" points="282.2 463.5 276.9 466.6 271.5 463.5 276.8 460.4 282.2 463.5"/>
          </g>
          <g class="st22">
            <polygon class="st33" points="154 690 276.4 619.3 276.4 613.2 154 683.9 154 690"/>
            <polygon class="st23" points="154 683.9 276.4 613.2 271.1 610.1 148.6 680.8 154 683.9"/>
            <polygon class="st18" points="154 690 154 683.9 148.6 680.8 148.6 686.9 154 690"/>
          </g>
          <g class="st22">
            <polygon class="st33" points="152.9 573.4 275.7 502.5 275.7 498.5 152.9 569.5 152.9 573.4"/>
            <polygon class="st23" points="152.9 569.5 275.7 498.5 272.3 496.6 149.4 567.5 152.9 569.5"/>
            <polygon class="st34" points="152.9 573.4 152.9 569.5 149.4 567.5 149.4 571.5 152.9 573.4"/>
          </g>
          <g class="st22">
            <polygon class="st33" points="154.4 532.1 154 690 148.6 693.1 149.1 535.1 154.4 532.1"/>
            <polygon class="st51" points="149.1 535.1 148.6 693.1 143.3 690 143.8 532.1 149.1 535.1"/>
            <polygon class="st18" points="154.4 532.1 149.1 535.1 143.8 532.1 149.1 529 154.4 532.1"/>
          </g>
          <g class="st22">
            <polygon class="st27" points="282.2 463.5 281.7 616.2 276.4 619.3 276.9 466.6 282.2 463.5"/>
            <polygon class="st33" points="276.9 466.6 276.4 619.3 271.1 616.2 271.5 463.5 276.9 466.6"/>
            <polygon class="st18" points="282.2 463.5 276.9 466.6 271.5 463.5 276.8 460.4 282.2 463.5"/>
          </g>
          <g>
            <polygon class="st30" points="429.6 716.9 429.6 708.2 581 620.7 581 629.4 429.6 716.9"/>
            <polygon class="st4" points="429.6 708.2 125 533.1 125 541.8 429.6 716.9 429.6 708.2"/>
            <polygon class="st25" points="429.6 708.2 125 533.1 276.3 445.6 581 620.7 429.6 708.2"/>
          </g>
        </g>
        <path class="st1" d="M214.2,490.4c1-.6,2.2-1,3.5-1.3l30.4-6.7c4.6-1,9.6,0,11.1,2.4l45.3,69.9c1,1.6.1,3.4-2.1,4.7-1,.6-2.2,1-3.5,1.3l-30.4,6.7c-4.6,1-9.6,0-11.1-2.4l-45.3-69.9c-1-1.6-.1-3.4,2.1-4.7h0Z"/>
        <g>
          <g>
            <g>
              <g>
                <polygon class="st13" points="290.5 547.5 337.7 574.7 337.7 540 290.5 512.7 290.5 547.5"/>
                <polygon class="st37" points="337.7 540 337.7 574.7 405.2 535.8 405.2 501.1 337.7 540"/>
              </g>
              <polygon class="st10" points="385.2 525.7 365.4 538.2 349 546.4 365.7 536.7 385.2 525.7"/>
              <polygon class="st10" points="337.7 566.8 337.7 568.4 361.1 553.6 337.7 566.8"/>
              <polygon class="st42" points="337.7 566.8 328.8 563.3 337.7 568.4 337.7 566.8"/>
              <polygon class="st42" points="290.5 521.5 300.6 527.5 290.5 523.2 290.5 521.5"/>
              <polygon class="st42" points="310.7 539.1 325.9 547.5 335 553.5 324.3 548.2 310.7 539.1"/>
            </g>
            <path class="st39" d="M405.2,515.3s.8.2,2.3,1.1,2.4,1.8,2.4,1.8c0,0-3.3.8-8.4,3.8-6.3,3.7-11,5.5-11,5.5l14.7-9v-3Z"/>
            <polygon class="st39" points="290.6 529.5 307.2 540.7 287.9 531.5 290.6 529.5"/>
            <polygon class="st39" points="330.6 559.3 337.7 561.6 347.8 558.3 337.7 563.6 330.6 559.3"/>
          </g>
          <g>
            <polygon class="st3" points="290.5 512.7 337.7 540 405.2 501.1 396 495.8 357.9 473.8 290.5 512.7"/>
            <polygon class="st37" points="304.5 512.4 339.8 532.8 341.7 531.7 306.4 511.3 304.5 512.4"/>
            <polygon class="st37" points="313.3 507.3 348.6 527.7 350.6 526.6 315.2 506.2 313.3 507.3"/>
            <polygon class="st37" points="317.2 514.6 344.2 530.3 346.2 529.1 319.1 513.5 317.2 514.6"/>
            <polygon class="st37" points="326.5 499.7 361.9 520.1 363.8 519 328.5 498.6 326.5 499.7"/>
            <polygon class="st37" points="330.4 507 357.5 522.6 359.4 521.5 332.3 505.9 330.4 507"/>
            <polygon class="st37" points="335.4 494.6 370.7 515 372.6 513.9 337.3 493.5 335.4 494.6"/>
            <polygon class="st37" points="339.2 501.9 366.3 517.5 368.2 516.4 341.2 500.8 339.2 501.9"/>
            <polygon class="st37" points="360.4 488.7 388.3 504.8 390.3 503.7 362.4 487.6 360.4 488.7"/>
            <polygon class="st37" points="364.3 496 383.9 507.3 385.8 506.2 366.2 494.9 364.3 496"/>
          </g>
        </g>
        <g>
          <polygon class="st1" points="426.2 681.9 413.3 682 375.2 660 385 654.3 425.7 630.8 426.2 681.9"/>
          <g>
            <g class="st22">
              <polygon class="st43" points="469.9 652.5 431 629.8 427 629.1 466 651.7 469.9 652.5"/>
              <polygon class="st16" points="466 651.7 427 629.1 409 636.7 448 659.4 466 651.7"/>
              <polygon class="st43" points="448 659.4 409 636.7 389.1 648.2 428.1 670.9 448 659.4"/>
              <polygon class="st19" points="425.7 674.4 386.7 651.7 386.7 659.3 425.7 682 425.7 674.4"/>
              <polygon class="st35" points="428.1 670.9 389.1 648.2 386.7 651.7 425.7 674.4 428.1 670.9"/>
              <polygon class="st19" points="428.1 670.9 425.7 674.4 425.7 682 469.9 656.4 469.9 652.5 466 651.7 448 659.4 428.1 670.9"/>
            </g>
            <g>
              <g class="st22">
                <polygon class="st38" points="444.1 641 443.9 642 446.8 643.8 447 642.9 444.1 641"/>
                <polygon class="st38" points="447 642.9 446.8 643.8 449.1 642.9 449.2 641.9 447 642.9"/>
                <polygon class="st36" points="449.2 641.9 446.3 640.1 444.1 641 447 642.9 449.2 641.9"/>
              </g>
              <g class="st22">
                <polygon class="st38" points="440.7 642.4 440.5 643.4 443.4 645.3 443.6 644.3 440.7 642.4"/>
                <polygon class="st38" points="443.6 644.3 443.4 645.3 445.7 644.3 445.8 643.3 443.6 644.3"/>
                <polygon class="st36" points="445.8 643.3 442.9 641.5 440.7 642.4 443.6 644.3 445.8 643.3"/>
              </g>
              <g class="st22">
                <polygon class="st38" points="437.2 643.8 437.1 644.8 440 646.7 440.1 645.7 437.2 643.8"/>
                <polygon class="st38" points="440.1 645.7 440 646.7 442.2 645.8 442.4 644.8 440.1 645.7"/>
                <polygon class="st36" points="442.4 644.8 439.5 642.9 437.2 643.8 440.1 645.7 442.4 644.8"/>
              </g>
              <g class="st22">
                <polygon class="st38" points="433.8 645.3 433.7 646.2 436.6 648.1 436.7 647.1 433.8 645.3"/>
                <polygon class="st38" points="436.7 647.1 436.6 648.1 438.8 647.2 439 646.2 436.7 647.1"/>
                <polygon class="st36" points="439 646.2 436.1 644.3 433.8 645.3 436.7 647.1 439 646.2"/>
              </g>
              <g class="st22">
                <polygon class="st38" points="431.1 646.4 431 647.4 433.9 649.2 434 648.3 431.1 646.4"/>
                <polygon class="st38" points="434 648.3 433.9 649.2 435.4 648.6 435.5 647.6 434 648.3"/>
                <polygon class="st36" points="435.5 647.6 432.7 645.8 431.1 646.4 434 648.3 435.5 647.6"/>
              </g>
              <g class="st22">
                <polygon class="st38" points="448.1 643.6 447.9 644.5 450.8 646.4 451 645.4 448.1 643.6"/>
                <polygon class="st38" points="451 645.4 450.8 646.4 453.1 645.5 453.2 644.5 451 645.4"/>
                <polygon class="st36" points="453.2 644.5 450.3 642.6 448.1 643.6 451 645.4 453.2 644.5"/>
              </g>
              <g class="st22">
                <polygon class="st38" points="444.7 645 444.5 646 447.4 647.8 447.6 646.9 444.7 645"/>
                <polygon class="st38" points="447.6 646.9 447.4 647.8 449.6 646.9 449.8 645.9 447.6 646.9"/>
                <polygon class="st36" points="449.8 645.9 446.9 644.1 444.7 645 447.6 646.9 449.8 645.9"/>
              </g>
              <g class="st22">
                <polygon class="st38" points="441.2 646.4 441.1 647.4 444 649.3 444.1 648.3 441.2 646.4"/>
                <polygon class="st38" points="444.1 648.3 444 649.3 446.2 648.3 446.4 647.4 444.1 648.3"/>
                <polygon class="st36" points="446.4 647.4 443.5 645.5 441.2 646.4 444.1 648.3 446.4 647.4"/>
              </g>
              <g class="st22">
                <polygon class="st38" points="437.8 647.8 437.7 648.8 440.6 650.7 440.7 649.7 437.8 647.8"/>
                <polygon class="st38" points="440.7 649.7 440.6 650.7 442.8 649.8 443 648.8 440.7 649.7"/>
                <polygon class="st36" points="443 648.8 440.1 646.9 437.8 647.8 440.7 649.7 443 648.8"/>
              </g>
              <g class="st22">
                <polygon class="st38" points="435.1 649 435 650 437.9 651.8 438 650.8 435.1 649"/>
                <polygon class="st38" points="438 650.8 437.9 651.8 439.4 651.2 439.5 650.2 438 650.8"/>
                <polygon class="st36" points="439.5 650.2 436.6 648.3 435.1 649 438 650.8 439.5 650.2"/>
              </g>
              <g class="st22">
                <polygon class="st38" points="452.1 646.1 451.9 647.1 454.8 649 455 648 452.1 646.1"/>
                <polygon class="st38" points="455 648 454.8 649 457.1 648.1 457.2 647.1 455 648"/>
                <polygon class="st36" points="457.2 647.1 454.3 645.2 452.1 646.1 455 648 457.2 647.1"/>
              </g>
              <g class="st22">
                <polygon class="st38" points="448.7 647.6 448.5 648.5 451.4 650.4 451.5 649.4 448.7 647.6"/>
                <polygon class="st38" points="451.5 649.4 451.4 650.4 453.6 649.5 453.8 648.5 451.5 649.4"/>
                <polygon class="st36" points="453.8 648.5 450.9 646.6 448.7 647.6 451.5 649.4 453.8 648.5"/>
              </g>
              <g class="st22">
                <polygon class="st38" points="445.2 649 445.1 650 448 651.8 448.1 650.9 445.2 649"/>
                <polygon class="st38" points="448.1 650.9 448 651.8 450.2 650.9 450.4 649.9 448.1 650.9"/>
                <polygon class="st36" points="450.4 649.9 447.5 648.1 445.2 649 448.1 650.9 450.4 649.9"/>
              </g>
              <g class="st22">
                <polygon class="st38" points="441.8 650.4 441.7 651.4 444.6 653.3 444.7 652.3 441.8 650.4"/>
                <polygon class="st38" points="444.7 652.3 444.6 653.3 446.8 652.3 447 651.4 444.7 652.3"/>
                <polygon class="st36" points="447 651.4 444.1 649.5 441.8 650.4 444.7 652.3 447 651.4"/>
              </g>
              <g class="st22">
                <polygon class="st38" points="439.1 651.6 439 652.5 441.9 654.4 442 653.4 439.1 651.6"/>
                <polygon class="st38" points="442 653.4 441.9 654.4 443.4 653.8 443.5 652.8 442 653.4"/>
                <polygon class="st36" points="443.5 652.8 440.6 650.9 439.1 651.6 442 653.4 443.5 652.8"/>
              </g>
              <g class="st22">
                <polygon class="st38" points="456.1 648.7 455.9 649.7 458.8 651.6 459 650.6 456.1 648.7"/>
                <polygon class="st38" points="459 650.6 458.8 651.6 461 650.6 461.2 649.7 459 650.6"/>
                <polygon class="st36" points="461.2 649.7 458.3 647.8 456.1 648.7 459 650.6 461.2 649.7"/>
              </g>
              <g class="st22">
                <polygon class="st38" points="452.6 650.1 452.5 651.1 455.4 653 455.5 652 452.6 650.1"/>
                <polygon class="st38" points="455.5 652 455.4 653 457.6 652.1 457.8 651.1 455.5 652"/>
                <polygon class="st36" points="457.8 651.1 454.9 649.2 452.6 650.1 455.5 652 457.8 651.1"/>
              </g>
              <g class="st22">
                <polygon class="st38" points="449.2 651.6 449.1 652.6 452 654.4 452.1 653.4 449.2 651.6"/>
                <polygon class="st38" points="452.1 653.4 452 654.4 454.2 653.5 454.4 652.5 452.1 653.4"/>
                <polygon class="st36" points="454.4 652.5 451.5 650.6 449.2 651.6 452.1 653.4 454.4 652.5"/>
              </g>
              <g class="st22">
                <polygon class="st38" points="445.8 653 445.7 654 448.6 655.8 448.7 654.9 445.8 653"/>
                <polygon class="st38" points="448.7 654.9 448.6 655.8 450.8 654.9 450.9 653.9 448.7 654.9"/>
                <polygon class="st36" points="450.9 653.9 448.1 652.1 445.8 653 448.7 654.9 450.9 653.9"/>
              </g>
              <g class="st22">
                <polygon class="st38" points="443.1 654.1 443 655.1 445.9 657 446 656 443.1 654.1"/>
                <polygon class="st38" points="446 656 445.9 657 447.4 656.3 447.5 655.4 446 656"/>
                <polygon class="st36" points="447.5 655.4 444.6 653.5 443.1 654.1 446 656 447.5 655.4"/>
              </g>
            </g>
            <g class="st22">
              <polygon class="st19" points="431.6 641 423.1 636 423 637.9 431.4 642.8 431.6 641"/>
              <polygon class="st19" points="431.2 639.4 422.8 634.5 423.1 636 431.6 641 431.2 639.4"/>
              <polygon class="st11" points="442.8 630.3 434.3 625.4 418.5 629.4 427 634.3 442.8 630.3"/>
              <polygon class="st7" points="427 634.3 418.5 629.4 412.6 632.2 421.1 637.1 427 634.3"/>
              <polygon class="st7" points="421.1 637.1 412.6 632.2 406.8 634.9 415.2 639.8 421.1 637.1"/>
              <polygon class="st19" points="397.2 655.2 388.7 650.3 388.4 654 396.9 658.9 397.2 655.2"/>
              <polygon class="st8" points="415.2 639.8 406.8 634.9 390.4 645.8 398.9 650.7 415.2 639.8"/>
              <polygon class="st19" points="415.2 639.8 398.9 650.7 397.2 655.2 396.9 658.9 409 653.3 409.2 651.4 409.8 649.4 420.7 642.1 431.2 639.4 431.6 641 431.4 642.8 443.6 637.2 443.9 633.4 442.8 630.3 427 634.3 421.1 637.1 415.2 639.8"/>
              <polygon class="st6" points="398.9 650.7 390.4 645.8 388.7 650.3 397.2 655.2 398.9 650.7"/>
            </g>
            <g class="st22">
              <polygon class="st44" points="427.5 667 425.1 665.6 425.1 666.7 427.5 668.1 427.5 667"/>
              <polygon class="st15" points="429.5 665.8 427.1 664.4 425.1 665.6 427.5 667 429.5 665.8"/>
              <polygon class="st44" points="427.5 667 427.5 668.1 429.5 667 429.5 665.8 427.5 667"/>
            </g>
            <g>
              <path class="st35" d="M425.5,663.3l-13.8-7.9c-1.2-.7-1-1.9.3-2.6l8.1-4.7c1.3-.8,3.4-.9,4.6-.2l13.8,7.9c1.2.7,1,1.9-.3,2.6l-8.1,4.7c-1.3.8-3.4.9-4.6.2Z"/>
              <path class="st8" d="M430.3,658.8c-2.4,1.4-6.7,1.1-9.7-.6-3-1.7-3.5-4.2-1.1-5.6,2.4-1.4,6.7-1.1,9.7.6,3,1.7,3.5,4.2,1.1,5.6Z"/>
            </g>
            <path class="st16" d="M426.4,640.6l3.6-.9,1.4.9,10.1-4.6,2.8,1.6s-2.4,2.2-2.3,2.3c0,.1-11.6,4.7-11.6,4.7l-4-4Z"/>
            <polygon class="st16" points="409.2 651.4 400.6 654.9 405.3 657.7 409.9 653.8 409.2 651.4"/>
            <polygon class="st35" points="402.7 661 405.3 657.7 400.6 654.9 397.8 658.2 402.7 661"/>
          </g>
        </g>
        <g>
          <g>
            <path class="st49" d="M294.2,525.8l-.2-105,7.7-1.8.2,105c0,2.2-.4,3.4-1.1,3.6l-7.7,1.8c.7-.2,1.1-1.4,1.1-3.6Z"/>
            <path class="st31" d="M228.1,312.6l62.8,96.8c1.7,2.5,3,7.6,3,11.4l.2,105c0,3.7-1.3,4.7-3,2.2l-62.8-96.8c-1.7-2.5-3-7.6-3-11.4v-11.6s-.2-93.3-.2-93.3c0-3.7,1.3-4.7,3-2.2Z"/>
            <path class="st9" d="M260,455.4c1-.1,1.8-1,2.5-2.4.8-1.8,1.2-4.4,1.2-7.5v-4.8c-.1-3.7-.8-7.7-2-11.5-1.2-3.7-2.7-6.7-4.3-8.3-1-1-2-1.5-2.9-1.4-1,.1-1.8,1-2.5,2.4-.8,1.8-1.2,4.4-1.2,7.5v4.8c.1,3.7.8,7.7,2,11.5,1.2,3.7,2.7,6.7,4.3,8.3,1,1,2,1.5,2.9,1.4Z"/>
            <path class="st46" d="M262.8,452.1c-1.2,24.1,5.7,40.9,5.7,40.9l-13.5-20.7,7.8-20.2Z"/>
            <path class="st21" d="M234,309.5c.4,0,.8.1,1.3.7.2.2.3.4.5.7l62.8,96.8c1,1.6,1.9,4.2,2.5,6.8.3,1.6.5,3.2.5,4.6l.2,93.3-7.7,1.8-.2-93.3c0-1.4-.2-3-.5-4.6-.5-2.6-1.5-5.2-2.5-6.8l-62.8-96.8c-.2-.3-.4-.5-.5-.7-.5-.6-.9-.8-1.3-.7l7.7-1.8Z"/>
            <path class="st49" d="M234,309.5c.4,0,.8.1,1.3.7.2.2.3.4.5.7l62.8,96.8c1,1.6,1.9,4.2,2.5,6.8.3,1.6.5,3.2.5,4.6l.2,93.3-7.7,1.8-.2-93.3c0-1.4-.2-3-.5-4.6-.5-2.6-1.5-5.2-2.5-6.8l-62.8-96.8c-.2-.3-.4-.5-.5-.7-.5-.6-.9-.8-1.3-.7l7.7-1.8Z"/>
            <path class="st21" d="M298.8,513l-.2-93.3c0-1.4-.2-3-.5-4.6-.5-2.6-1.5-5.2-2.5-6.8l-62.8-96.8c-.2-.3-.4-.5-.5-.7-.4-.5-.8-.7-1.2-.7l2.9-.7c.4,0,.8.1,1.3.7.2.2.3.4.5.7l62.8,96.8c1,1.6,1.9,4.2,2.5,6.8.3,1.6.5,3.2.5,4.6l.2,93.3-7.7,1.8h0s4.7-1.1,4.7-1.1Z"/>
          </g>
          <g>
            <polygon class="st5" points="239.5 514.9 249.4 532.1 285.5 524.7 275 507.6 239.5 514.9"/>
            <path class="st5" d="M230.8,512l8,17.8c1.4,2.5,6.7,3.1,10.7,2.3l-9.9-17.2c-3.9.8-7.3-.4-8.8-2.9h0Z"/>
            <path class="st40" d="M226.2,498c.2-1.6.9-3.3,1.8-4.9l21.6-34.9c.6-1,1-2,1.1-3,0-.3,0-.6,0-.9l9.9,17.2c0,.3,0,.6,0,.9-.1,1-.5,2-1.1,3l-21.6,34.9c-1,1.6-1.6,3.3-1.8,4.9,0,.5-.1,1-.1,1.5v7.9c0,1.7.5,3.2,1.2,4.4l-9.9-17.2c-.7-1.3-1.2-2.8-1.2-4.4v-7.9c0-.5,0-1,0-1.5Z"/>
            <path class="st48" d="M249.4,532.1c-5.2,1.1-11.2-1.9-11.2-6.1v-11.3c0-.3,2.2-4.9,3-6.2l19.7-31.1c1.3-2.1,1.9-4.4,1.9-6.5h-.2s-2.2.5-2.2.5h.2c0,1.3-.4,2.6-1.2,3.9l-21.6,34.9c-1.3,2.1-1.9,4.4-1.9,6.5v7.9c0,6.9,7.1,11,15.7,9.2l33.8-7v-2.3l-36.1,7.4Z"/>
            <path class="st48" d="M252.8,453.5l7.9,18.1,2.2-.5-.2-33.5c0-4-1.1-7.9-3-11.3l-2.8-4.9c-.6-1-1.6-1.3-2.5-1.1-.2,0-2.3.9-2.5,1-.7.3.8.2.8,1.2l.2,31Z"/>
            <path class="st12" d="M250.8,454.3l9.9,17.2-.2-33.5c0-4-1.1-7.9-3-11.3l-2.6-4.6c-1.1-2-4.2-1.2-4.2,1.1l.2,31Z"/>
          </g>
        </g>
        <g>
          <g>
            <g>
              <g>
                <polygon class="st13" points="359.8 586.3 407 613.6 407 560.9 359.8 533.6 359.8 586.3"/>
                <polygon class="st37" points="407 560.9 407 613.6 474.5 574.6 474.5 521.9 407 560.9"/>
              </g>
              <polygon class="st10" points="454.5 564.5 434.8 577 418.4 585.3 435 575.6 454.5 564.5"/>
              <polygon class="st10" points="407 605.7 407 607.2 430.4 592.4 407 605.7"/>
              <polygon class="st42" points="407 605.7 398.1 602.1 407 607.2 407 605.7"/>
              <polygon class="st42" points="359.8 560.4 369.9 566.3 359.8 562 359.8 560.4"/>
              <polygon class="st42" points="380.1 577.9 395.2 586.3 404.3 592.3 393.6 587 380.1 577.9"/>
            </g>
            <path class="st39" d="M474.5,554.2s.8.2,2.3,1.1c1.5.9,2.4,1.8,2.4,1.8,0,0-3.3.8-8.4,3.8-6.3,3.7-11,5.5-11,5.5l14.7-9v-3Z"/>
            <polygon class="st39" points="359.9 568.3 376.5 579.6 357.2 570.3 359.9 568.3"/>
            <polygon class="st39" points="399.9 598.2 407 600.5 417.2 597.2 407 602.5 399.9 598.2"/>
          </g>
          <g>
            <polygon class="st3" points="359.8 533.6 407 560.9 474.5 521.9 465.3 516.6 427.3 494.7 359.8 533.6"/>
            <polygon class="st37" points="373.8 533.3 409.1 553.7 411.1 552.6 375.7 532.2 373.8 533.3"/>
            <polygon class="st37" points="382.6 528.2 418 548.6 419.9 547.5 384.6 527.1 382.6 528.2"/>
            <polygon class="st37" points="386.5 535.5 413.5 551.1 415.5 550 388.4 534.4 386.5 535.5"/>
            <polygon class="st37" points="395.9 520.5 431.2 540.9 433.1 539.8 397.8 519.4 395.9 520.5"/>
            <polygon class="st37" points="399.7 527.9 426.8 543.5 428.7 542.4 401.7 526.8 399.7 527.9"/>
            <polygon class="st37" points="404.7 515.5 440 535.8 441.9 534.7 406.6 514.3 404.7 515.5"/>
            <polygon class="st37" points="408.5 522.8 435.6 538.4 437.5 537.3 410.5 521.7 408.5 522.8"/>
            <polygon class="st37" points="429.7 509.6 457.6 525.7 459.6 524.6 431.7 508.4 429.7 509.6"/>
            <polygon class="st37" points="433.6 516.9 453.2 528.2 455.2 527.1 435.5 515.8 433.6 516.9"/>
          </g>
        </g>
        <g>
          <g>
            <g>
              <g>
                <polygon class="st1" points="211.1 571.6 199 571.7 131.6 532.7 140.8 527.4 178.8 505.5 211.1 571.6"/>
                <polygon class="st37" points="258.3 544.4 211.1 571.6 211.1 540 258.3 512.7 258.3 544.4"/>
                <polygon class="st13" points="211.1 540 211.1 571.6 143.7 532.7 143.7 501.1 211.1 540"/>
              </g>
              <polygon class="st10" points="163.6 522.5 183.4 535.1 199.8 543.3 183.2 533.6 163.6 522.5"/>
              <polygon class="st10" points="211.1 563.7 211.1 565.3 187.7 550.5 211.1 563.7"/>
              <polygon class="st42" points="211.1 563.7 220 560.2 211.1 565.3 211.1 563.7"/>
              <polygon class="st42" points="258.3 518.4 248.2 524.4 258.3 520.1 258.3 518.4"/>
              <polygon class="st42" points="238.1 536 223 544.4 213.9 550.3 224.6 545 238.1 536"/>
            </g>
            <path class="st39" d="M143.7,512.2s-.8.2-2.3,1.1c-1.5.9-2.4,1.8-2.4,1.8,0,0,3.3.8,8.4,3.8,6.3,3.7,11,5.5,11,5.5l-14.7-9v-3Z"/>
            <polygon class="st39" points="258.3 526.4 241.6 537.6 260.9 528.4 258.3 526.4"/>
            <polygon class="st39" points="218.3 556.2 211.1 558.5 201 555.2 211.1 560.5 218.3 556.2"/>
          </g>
          <g>
            <polygon class="st3" points="258.3 512.7 211.1 540 143.7 501.1 152.9 495.8 190.9 473.8 258.3 512.7"/>
            <polygon class="st37" points="244.3 512.4 209 532.8 207.1 531.7 242.4 511.3 244.3 512.4"/>
            <polygon class="st37" points="235.5 507.3 200.2 527.7 198.3 526.6 233.6 506.2 235.5 507.3"/>
            <polygon class="st37" points="231.7 514.6 204.6 530.3 202.7 529.1 229.7 513.5 231.7 514.6"/>
            <polygon class="st37" points="222.3 499.7 187 520.1 185 519 220.4 498.6 222.3 499.7"/>
            <polygon class="st37" points="218.4 507 191.4 522.6 189.4 521.5 216.5 505.9 218.4 507"/>
            <polygon class="st37" points="213.5 494.6 178.1 515 176.2 513.9 211.5 493.5 213.5 494.6"/>
            <polygon class="st37" points="209.6 501.9 182.6 517.5 180.6 516.4 207.7 500.8 209.6 501.9"/>
            <polygon class="st37" points="188.4 488.7 160.5 504.8 158.6 503.7 186.5 487.6 188.4 488.7"/>
            <polygon class="st37" points="184.5 496 164.9 507.3 163 506.2 182.6 494.9 184.5 496"/>
          </g>
        </g>
        <g>
          <g>
            <g>
              <g>
                <polygon class="st1" points="346.5 643.5 334.4 643.5 267 604.6 276.2 599.3 314.2 577.4 346.5 643.5"/>
                <polygon class="st37" points="393.7 616.2 346.5 643.5 346.5 608.7 393.7 581.5 393.7 616.2"/>
                <polygon class="st13" points="346.5 608.7 346.5 643.5 279.1 604.6 279.1 569.8 346.5 608.7"/>
              </g>
              <polygon class="st10" points="299 594.4 318.8 606.9 335.2 615.2 318.6 605.5 299 594.4"/>
              <polygon class="st10" points="346.5 635.6 346.5 637.1 323.1 622.3 346.5 635.6"/>
              <polygon class="st42" points="346.5 635.6 355.4 632 346.5 637.1 346.5 635.6"/>
              <polygon class="st42" points="393.7 590.3 383.6 596.2 393.7 592 393.7 590.3"/>
              <polygon class="st42" points="373.5 607.8 358.3 616.2 349.2 622.2 360 616.9 373.5 607.8"/>
            </g>
            <path class="st39" d="M279.1,584.1s-.8.2-2.3,1.1c-1.5.9-2.4,1.8-2.4,1.8,0,0,3.3.8,8.4,3.8,6.3,3.7,11,5.5,11,5.5l-14.7-9v-3Z"/>
            <polygon class="st39" points="393.7 598.2 377 609.5 396.3 600.2 393.7 598.2"/>
            <polygon class="st39" points="353.7 628.1 346.5 630.4 336.4 627.1 346.5 632.4 353.7 628.1"/>
          </g>
          <g>
            <polygon class="st3" points="393.7 581.5 346.5 608.7 279.1 569.8 288.3 564.5 326.3 542.6 393.7 581.5"/>
            <polygon class="st37" points="379.7 581.2 344.4 601.6 342.5 600.4 377.8 580 379.7 581.2"/>
            <polygon class="st37" points="370.9 576.1 335.6 596.5 333.7 595.3 369 575 370.9 576.1"/>
            <polygon class="st37" points="367 583.4 340 599 338.1 597.9 365.1 582.3 367 583.4"/>
            <polygon class="st37" points="357.7 568.4 322.4 588.8 320.4 587.7 355.8 567.3 357.7 568.4"/>
            <polygon class="st37" points="353.8 575.8 326.8 591.4 324.8 590.3 351.9 574.6 353.8 575.8"/>
            <polygon class="st37" points="348.9 563.3 313.5 583.7 311.6 582.6 346.9 562.2 348.9 563.3"/>
            <polygon class="st37" points="345 570.7 317.9 586.3 316 585.2 343.1 569.5 345 570.7"/>
            <polygon class="st37" points="323.8 557.4 295.9 573.5 294 572.4 321.9 556.3 323.8 557.4"/>
            <polygon class="st37" points="319.9 564.8 300.3 576.1 298.4 575 318 563.7 319.9 564.8"/>
          </g>
        </g>
        <g>
          <g>
            <g>
              <g>
                <polygon class="st13" points="440 624.3 487.2 651.6 487.2 616.8 440 589.6 440 624.3"/>
                <polygon class="st37" points="487.2 616.8 487.2 651.6 554.6 612.7 554.6 577.9 487.2 616.8"/>
              </g>
              <polygon class="st10" points="534.7 602.5 514.9 615 498.5 623.3 515.1 613.6 534.7 602.5"/>
              <polygon class="st10" points="487.2 643.7 487.2 645.2 510.6 630.4 487.2 643.7"/>
              <polygon class="st42" points="487.2 643.7 478.3 640.1 487.2 645.2 487.2 643.7"/>
              <polygon class="st42" points="440 598.4 450.1 604.3 440 600 440 598.4"/>
              <polygon class="st42" points="460.2 615.9 475.3 624.3 484.4 630.3 473.7 625 460.2 615.9"/>
            </g>
            <path class="st39" d="M554.6,592.2s.8.2,2.3,1.1c1.5.9,2.4,1.8,2.4,1.8,0,0-3.3.8-8.4,3.8-6.3,3.7-11,5.5-11,5.5l14.7-9v-3Z"/>
            <polygon class="st39" points="440 606.3 456.7 617.6 437.3 608.3 440 606.3"/>
            <polygon class="st39" points="480 636.2 487.2 638.5 497.3 635.2 487.2 640.5 480 636.2"/>
          </g>
          <g>
            <polygon class="st3" points="440 589.6 487.2 616.8 554.6 577.9 545.4 572.6 507.4 550.7 440 589.6"/>
            <polygon class="st37" points="453.9 589.2 489.3 609.6 491.2 608.5 455.9 588.1 453.9 589.2"/>
            <polygon class="st37" points="462.8 584.2 498.1 604.6 500 603.4 464.7 583 462.8 584.2"/>
            <polygon class="st37" points="466.6 591.5 493.7 607.1 495.6 606 468.6 590.4 466.6 591.5"/>
            <polygon class="st37" points="476 576.5 511.3 596.9 513.2 595.8 477.9 575.4 476 576.5"/>
            <polygon class="st37" points="479.9 583.8 506.9 599.5 508.8 598.3 481.8 582.7 479.9 583.8"/>
            <polygon class="st37" points="484.8 571.4 520.1 591.8 522.1 590.7 486.7 570.3 484.8 571.4"/>
            <polygon class="st37" points="488.7 578.8 515.7 594.4 517.7 593.3 490.6 577.6 488.7 578.8"/>
            <polygon class="st37" points="509.9 565.5 537.8 581.6 539.7 580.5 511.8 564.4 509.9 565.5"/>
            <polygon class="st37" points="513.8 572.9 533.4 584.2 535.3 583.1 515.7 571.7 513.8 572.9"/>
          </g>
        </g>
      </g>
    </g>
  </g>
</svg>