<?xml version="1.0" encoding="UTF-8"?>
<svg xmlns="http://www.w3.org/2000/svg" version="1.1" xmlns:xlink="http://www.w3.org/1999/xlink" viewBox="0 0 1042.9 989.9">
  <!-- Generator: Adobe Illustrator 29.3.1, SVG Export Plug-In . SVG Version: 2.1.0 Build 151)  -->
  <defs>
    <style>
      .st0 {
        fill: #c5c8d8;
      }

      .st1 {
        fill: url(#linear-gradient2);
      }

      .st2 {
        fill: url(#linear-gradient36);
      }

      .st3 {
        fill: url(#linear-gradient39);
      }

      .st4 {
        fill: #cacddb;
      }

      .st4, .st5 {
        mix-blend-mode: multiply;
      }

      .st6 {
        clip-path: url(#clippath-6);
      }

      .st7 {
        clip-path: url(#clippath-7);
      }

      .st8 {
        fill: #ebebea;
      }

      .st9 {
        fill: url(#linear-gradient34);
      }

      .st10 {
        fill: #484848;
      }

      .st11 {
        clip-path: url(#clippath-4);
      }

      .st12 {
        fill: url(#linear-gradient33);
      }

      .st13 {
        fill: url(#linear-gradient10);
      }

      .st14 {
        fill: #1b1b24;
      }

      .st15 {
        fill: #2f2e3d;
      }

      .st16 {
        fill: url(#linear-gradient32);
      }

      .st17 {
        fill: #2c2c3a;
      }

      .st18 {
        fill: #515061;
      }

      .st19 {
        fill: #231f20;
      }

      .st20 {
        fill: url(#linear-gradient21);
      }

      .st21 {
        fill: url(#linear-gradient37);
      }

      .st22 {
        fill: #302f3f;
      }

      .st23 {
        fill: url(#linear-gradient27);
      }

      .st24 {
        clip-path: url(#clippath-9);
      }

      .st25 {
        clip-path: url(#clippath-10);
      }

      .st26 {
        fill: #848484;
      }

      .st27 {
        fill: #25242f;
      }

      .st28 {
        fill: url(#linear-gradient35);
      }

      .st29 {
        fill: #fff;
      }

      .st30 {
        fill: #ec1d24;
      }

      .st31 {
        fill: #2f2e3e;
      }

      .st32 {
        fill: #fbfbfb;
      }

      .st33 {
        fill: url(#linear-gradient26);
      }

      .st34 {
        fill: url(#linear-gradient1);
      }

      .st35 {
        fill: #b9b9b9;
      }

      .st36 {
        fill: url(#linear-gradient9);
      }

      .st37 {
        fill: url(#linear-gradient18);
      }

      .st38 {
        fill: #697097;
      }

      .st39 {
        fill: url(#linear-gradient23);
      }

      .st40 {
        fill: url(#linear-gradient43);
      }

      .st41 {
        clip-path: url(#clippath-11);
      }

      .st42 {
        fill: url(#linear-gradient8);
      }

      .st43 {
        fill: #f3f5fb;
      }

      .st44 {
        fill: url(#linear-gradient11);
      }

      .st45 {
        fill: #181820;
      }

      .st46 {
        fill: none;
      }

      .st47 {
        fill: #2d2d38;
      }

      .st48 {
        fill: #f0f0f4;
      }

      .st49 {
        fill: #e7e6ef;
      }

      .st50 {
        fill: url(#radial-gradient);
      }

      .st51 {
        fill: url(#linear-gradient16);
      }

      .st52 {
        fill: url(#linear-gradient24);
      }

      .st53 {
        fill: #c5c8d7;
      }

      .st54 {
        opacity: .8;
      }

      .st55 {
        fill: url(#linear-gradient30);
      }

      .st56 {
        fill: url(#radial-gradient1);
      }

      .st57 {
        clip-path: url(#clippath-1);
      }

      .st58 {
        fill: #4a4955;
      }

      .st59 {
        fill: url(#linear-gradient46);
      }

      .st60 {
        fill: #dcdbe9;
      }

      .st61 {
        fill: url(#linear-gradient22);
      }

      .st62 {
        fill: #8f8f8f;
      }

      .st63 {
        isolation: isolate;
      }

      .st64 {
        fill: url(#linear-gradient29);
      }

      .st65 {
        clip-path: url(#clippath-5);
      }

      .st66 {
        clip-path: url(#clippath-8);
      }

      .st67 {
        fill: url(#linear-gradient19);
      }

      .st68 {
        fill: url(#linear-gradient12);
      }

      .st69 {
        fill: url(#linear-gradient42);
      }

      .st70 {
        fill: url(#linear-gradient28);
      }

      .st71 {
        fill: #989798;
      }

      .st72 {
        clip-path: url(#clippath-3);
      }

      .st73 {
        fill: url(#linear-gradient40);
      }

      .st74 {
        fill: #434d68;
      }

      .st75 {
        fill: #666;
      }

      .st76 {
        fill: url(#linear-gradient7);
      }

      .st77 {
        fill: #d4d4e3;
      }

      .st78 {
        fill: #76767d;
      }

      .st79 {
        fill: url(#linear-gradient20);
      }

      .st80 {
        fill: url(#linear-gradient4);
      }

      .st81 {
        fill: #f3797f;
      }

      .st82 {
        fill: url(#linear-gradient31);
      }

      .st83 {
        fill: #fffefe;
      }

      .st5 {
        fill: #ced9e6;
      }

      .st84 {
        fill: #b0b1b1;
      }

      .st85 {
        fill: #49aec2;
        opacity: .6;
      }

      .st86 {
        fill: #333242;
      }

      .st87 {
        fill: #3e3e3e;
      }

      .st88 {
        fill: url(#linear-gradient14);
      }

      .st89 {
        fill: url(#linear-gradient5);
      }

      .st90 {
        fill: url(#linear-gradient3);
      }

      .st91 {
        fill: #727272;
      }

      .st92 {
        fill: #dcdcdc;
      }

      .st93 {
        fill: url(#linear-gradient38);
      }

      .st94 {
        fill: url(#linear-gradient25);
      }

      .st95 {
        fill: url(#linear-gradient15);
      }

      .st96 {
        fill: #21212c;
      }

      .st97 {
        fill: #dadade;
      }

      .st98 {
        fill: url(#linear-gradient17);
      }

      .st99 {
        fill: #737375;
      }

      .st100 {
        fill: #323333;
        mix-blend-mode: screen;
      }

      .st101 {
        fill: #7575b7;
      }

      .st102 {
        fill: url(#linear-gradient6);
      }

      .st103 {
        clip-path: url(#clippath-2);
      }

      .st104 {
        fill: #acacac;
      }

      .st105 {
        fill: #2e2c3c;
      }

      .st106 {
        fill: url(#linear-gradient13);
      }

      .st107 {
        fill: url(#linear-gradient45);
      }

      .st108 {
        fill: #801517;
      }

      .st109 {
        fill: url(#linear-gradient47);
      }

      .st110 {
        fill: #3a3943;
      }

      .st111 {
        fill: #5d5c64;
      }

      .st112 {
        fill: url(#linear-gradient);
      }

      .st113 {
        fill: url(#linear-gradient44);
      }

      .st114 {
        fill: #dbdbe8;
      }

      .st115 {
        fill: #d9dbe7;
      }

      .st116 {
        clip-path: url(#clippath);
      }

      .st117 {
        fill: url(#linear-gradient41);
      }

      .st118 {
        fill: #864e51;
      }

      .st119 {
        fill: #878787;
      }
    </style>
    <linearGradient id="linear-gradient" x1="313.2" y1="497.8" x2="385.9" y2="497.8" gradientUnits="userSpaceOnUse">
      <stop offset="0" stop-color="#ffdba7"/>
      <stop offset="1" stop-color="#fcc4a6"/>
    </linearGradient>
    <linearGradient id="linear-gradient1" x1="371.9" y1="587.8" x2="463.9" y2="587.8" xlink:href="#linear-gradient"/>
    <linearGradient id="linear-gradient2" x1="-1769.1" y1="312.3" x2="-1769.1" y2="332.7" gradientTransform="translate(2094 -10.1) rotate(-6.1)" xlink:href="#linear-gradient"/>
    <linearGradient id="linear-gradient3" x1="449.8" y1="602.3" x2="497.8" y2="602.3" xlink:href="#linear-gradient"/>
    <linearGradient id="linear-gradient4" x1="328.4" y1="248.9" x2="1164.4" y2="281.8" gradientUnits="userSpaceOnUse">
      <stop offset="0" stop-color="#48c2c7"/>
      <stop offset="1" stop-color="#1776ba"/>
    </linearGradient>
    <linearGradient id="linear-gradient5" x1="371.6" y1="342.3" x2="802.1" y2="359.2" xlink:href="#linear-gradient4"/>
    <linearGradient id="linear-gradient6" x1="4057.5" y1="342.8" x2="4485.2" y2="359.6" gradientTransform="translate(5046.5) rotate(-180) scale(1 -1)" xlink:href="#linear-gradient4"/>
    <linearGradient id="linear-gradient7" x1="575.5" y1="214.9" x2="594.3" y2="198.8" gradientUnits="userSpaceOnUse">
      <stop offset="0" stop-color="#ffc515"/>
      <stop offset="1" stop-color="#e73f4a"/>
    </linearGradient>
    <linearGradient id="linear-gradient8" x1="634.5" y1="263.4" x2="643.6" y2="241.5" xlink:href="#linear-gradient7"/>
    <radialGradient id="radial-gradient" cx="628.5" cy="214.7" fx="628.5" fy="214.7" r="78.9" gradientUnits="userSpaceOnUse">
      <stop offset="0" stop-color="#ffc515"/>
      <stop offset="1" stop-color="#e73f4a"/>
    </radialGradient>
    <radialGradient id="radial-gradient1" cx="628.5" cy="214.7" fx="628.5" fy="214.7" r="78.9" xlink:href="#radial-gradient"/>
    <linearGradient id="linear-gradient9" x1="548.8" y1="152.4" x2="735.9" y2="322.7" xlink:href="#linear-gradient7"/>
    <linearGradient id="linear-gradient10" x1="562.1" y1="141.5" x2="646.1" y2="141.5" xlink:href="#linear-gradient7"/>
    <linearGradient id="linear-gradient11" x1="611" y1="163.1" x2="646.1" y2="163.1" xlink:href="#linear-gradient7"/>
    <linearGradient id="linear-gradient12" x1="637.1" y1="216.5" x2="671.8" y2="210.2" xlink:href="#linear-gradient7"/>
    <linearGradient id="linear-gradient13" x1="654" y1="249" x2="689" y2="222.6" xlink:href="#linear-gradient7"/>
    <linearGradient id="linear-gradient14" x1="558.2" y1="142.1" x2="745.3" y2="312.4" xlink:href="#linear-gradient7"/>
    <linearGradient id="linear-gradient15" x1="670.7" y1="237.1" x2="734.6" y2="237.1" xlink:href="#linear-gradient7"/>
    <linearGradient id="linear-gradient16" x1="653" y1="176.7" x2="700.1" y2="176.7" xlink:href="#linear-gradient7"/>
    <linearGradient id="linear-gradient17" x1="727.4" y1="292.6" x2="756.5" y2="292.6" xlink:href="#linear-gradient7"/>
    <linearGradient id="linear-gradient18" x1="713.9" y1="261.4" x2="756.9" y2="240.8" xlink:href="#linear-gradient7"/>
    <linearGradient id="linear-gradient19" x1="723" y1="280" x2="765.9" y2="259.4" xlink:href="#linear-gradient7"/>
    <linearGradient id="linear-gradient20" x1="728.1" y1="290.6" x2="771" y2="270" xlink:href="#linear-gradient7"/>
    <linearGradient id="linear-gradient21" x1="572.4" y1="126.4" x2="759.6" y2="296.7" xlink:href="#linear-gradient7"/>
    <linearGradient id="linear-gradient22" x1="765" y1="264.6" x2="803" y2="241" xlink:href="#linear-gradient7"/>
    <linearGradient id="linear-gradient23" x1="737.6" y1="216.6" x2="775.8" y2="192.8" xlink:href="#linear-gradient7"/>
    <linearGradient id="linear-gradient24" x1="721.1" y1="260.6" x2="806.8" y2="367.8" xlink:href="#linear-gradient7"/>
    <linearGradient id="linear-gradient25" x1="738.3" y1="246.8" x2="824.1" y2="354" xlink:href="#linear-gradient7"/>
    <linearGradient id="linear-gradient26" x1="755.5" y1="233" x2="841.3" y2="340.2" xlink:href="#linear-gradient7"/>
    <linearGradient id="linear-gradient27" x1="758.8" y1="301.4" x2="816.4" y2="308" xlink:href="#linear-gradient7"/>
    <linearGradient id="linear-gradient28" x1="763.8" y1="257.9" x2="821.3" y2="264.5" xlink:href="#linear-gradient7"/>
    <linearGradient id="linear-gradient29" x1="778.8" y1="214.4" x2="864.6" y2="321.6" xlink:href="#linear-gradient7"/>
    <linearGradient id="linear-gradient30" x1="767.5" y1="225.4" x2="825" y2="231.9" xlink:href="#linear-gradient7"/>
    <linearGradient id="linear-gradient31" x1="784.8" y1="209.6" x2="870.6" y2="316.8" xlink:href="#linear-gradient7"/>
    <linearGradient id="linear-gradient32" x1="790.8" y1="204.8" x2="876.5" y2="312" xlink:href="#linear-gradient7"/>
    <linearGradient id="linear-gradient33" x1="771.1" y1="192.9" x2="828.7" y2="199.5" xlink:href="#linear-gradient7"/>
    <clipPath id="clippath">
      <polygon class="st46" points="788.2 209.2 788.2 201.1 797 206.2 797 214.3 788.2 209.2"/>
    </clipPath>
    <clipPath id="clippath-1">
      <polygon class="st46" points="803.8 243.2 803.9 234.8 819.1 243.6 819.1 252 803.8 243.2"/>
    </clipPath>
    <clipPath id="clippath-2">
      <polygon class="st46" points="822.8 278 822.8 269.9 836.6 277.9 836.6 286 822.8 278"/>
    </clipPath>
    <clipPath id="clippath-3">
      <polygon class="st46" points="819.9 320.8 819.9 312.4 833.3 320.1 833.2 328.5 819.9 320.8"/>
    </clipPath>
    <clipPath id="clippath-4">
      <polygon class="st46" points="795.9 330.2 795.9 322.1 814 332.6 814 340.7 795.9 330.2"/>
    </clipPath>
    <clipPath id="clippath-5">
      <polygon class="st46" points="779.9 341.7 780 333.3 789.4 338.7 789.3 347.2 779.9 341.7"/>
    </clipPath>
    <linearGradient id="linear-gradient34" x1="485.7" y1="93.4" x2="507.3" y2="128.1" xlink:href="#linear-gradient7"/>
    <linearGradient id="linear-gradient35" x1="460.9" y1="177.2" x2="623.4" y2="229.2" xlink:href="#linear-gradient7"/>
    <linearGradient id="linear-gradient36" x1="485.2" y1="93.7" x2="506.9" y2="128.4" xlink:href="#linear-gradient7"/>
    <linearGradient id="linear-gradient37" x1="465.1" y1="164.2" x2="627.5" y2="216.1" xlink:href="#linear-gradient7"/>
    <linearGradient id="linear-gradient38" x1="469.3" y1="151.1" x2="631.7" y2="203" xlink:href="#linear-gradient7"/>
    <linearGradient id="linear-gradient39" x1="469.1" y1="103.7" x2="490.7" y2="138.4" xlink:href="#linear-gradient7"/>
    <linearGradient id="linear-gradient40" x1="484.8" y1="93.9" x2="506.5" y2="128.6" xlink:href="#linear-gradient7"/>
    <linearGradient id="linear-gradient41" x1="500.2" y1="84.3" x2="521.9" y2="119" xlink:href="#linear-gradient7"/>
    <linearGradient id="linear-gradient42" x1="481.6" y1="112.6" x2="644" y2="164.6" xlink:href="#linear-gradient7"/>
    <linearGradient id="linear-gradient43" x1="531.9" y1="64.6" x2="553.5" y2="99.3" xlink:href="#linear-gradient7"/>
    <linearGradient id="linear-gradient44" x1="489.7" y1="87.1" x2="652.2" y2="139.1" xlink:href="#linear-gradient7"/>
    <linearGradient id="linear-gradient45" x1="497.8" y1="61.8" x2="660.3" y2="113.8" xlink:href="#linear-gradient7"/>
    <linearGradient id="linear-gradient46" x1="579" y1="35.2" x2="600.6" y2="69.9" xlink:href="#linear-gradient7"/>
    <linearGradient id="linear-gradient47" x1="563.3" y1="45" x2="584.9" y2="79.7" xlink:href="#linear-gradient7"/>
    <clipPath id="clippath-6">
      <polygon class="st46" points="585 99 584.9 90.6 599.4 82.2 599.5 90.7 585 99"/>
    </clipPath>
    <clipPath id="clippath-7">
      <polygon class="st46" points="549.9 118.4 549.9 110.3 567.9 99.9 567.9 108 549.9 118.4"/>
    </clipPath>
    <clipPath id="clippath-8">
      <polygon class="st46" points="518.7 136.3 518.7 128.2 532.7 120.1 532.7 128.2 518.7 136.3"/>
    </clipPath>
    <clipPath id="clippath-9">
      <polygon class="st46" points="497.7 174.7 497.6 164.4 514.1 154.9 514.1 165.3 497.7 174.7"/>
    </clipPath>
    <clipPath id="clippath-10">
      <polygon class="st46" points="507.5 189.6 507.4 181.5 523.3 172.4 523.3 180.5 507.5 189.6"/>
    </clipPath>
    <clipPath id="clippath-11">
      <polygon class="st46" points="520.2 208.4 520.2 200.3 535 191.8 535 199.8 520.2 208.4"/>
    </clipPath>
  </defs>
  <g class="st63">
    <g id="Layer_2">
      <g>
        <g>
          <g>
            <polygon class="st85" points="636.1 916.7 266.8 714 447.4 609.6 810.3 816 636.1 916.7"/>
            <g>
              <g class="st63">
                <polygon class="st91" points="788.5 640.2 788 815.6 781.9 819.2 782.4 643.7 788.5 640.2"/>
                <polygon class="st119" points="782.4 643.7 781.9 819.2 775.7 815.6 776.3 640.2 782.4 643.7"/>
                <polygon class="st35" points="788.5 640.2 782.4 643.7 776.3 640.2 782.4 636.7 788.5 640.2"/>
              </g>
              <g class="st63">
                <polygon class="st91" points="641.2 900.4 781.9 819.2 781.9 812.1 641.2 893.4 641.2 900.4"/>
                <polygon class="st71" points="641.2 893.4 781.9 812.1 775.8 808.6 635.1 889.8 641.2 893.4"/>
                <polygon class="st35" points="641.2 900.4 641.2 893.4 635.1 889.8 635.1 896.9 641.2 900.4"/>
              </g>
              <g class="st63">
                <polygon class="st91" points="639.9 766.5 781.1 685 781.1 680.5 639.9 762 639.9 766.5"/>
                <polygon class="st71" points="639.9 762 781.1 680.5 777.2 678.2 636 759.7 639.9 762"/>
                <polygon class="st92" points="639.9 766.5 639.9 762 636 759.7 636 764.3 639.9 766.5"/>
              </g>
              <g class="st63">
                <polygon class="st91" points="641.7 719 641.2 900.4 635.1 904 635.6 722.5 641.7 719"/>
                <polygon class="st119" points="635.6 722.5 635.1 904 629 900.4 629.5 719 635.6 722.5"/>
                <polygon class="st35" points="641.7 719 635.6 722.5 629.5 719 635.6 715.5 641.7 719"/>
              </g>
              <g class="st63">
                <polygon class="st91" points="457 449.7 456.4 625.2 450.4 628.7 450.9 453.2 457 449.7"/>
                <polygon class="st119" points="450.9 453.2 450.4 628.7 444.2 625.2 444.8 449.7 450.9 453.2"/>
                <polygon class="st35" points="457 449.7 450.9 453.2 444.8 449.7 450.9 446.2 457 449.7"/>
              </g>
              <g class="st63">
                <polygon class="st91" points="309.7 709.9 450.4 628.7 450.4 621.7 309.7 702.9 309.7 709.9"/>
                <polygon class="st71" points="309.7 702.9 450.4 621.7 444.2 618.1 303.6 699.4 309.7 702.9"/>
                <polygon class="st35" points="309.7 709.9 309.7 702.9 303.6 699.4 303.5 706.4 309.7 709.9"/>
              </g>
              <g class="st63">
                <polygon class="st91" points="308.4 576 449.6 494.5 449.6 490 308.4 571.5 308.4 576"/>
                <polygon class="st71" points="308.4 571.5 449.6 490 445.6 487.7 304.5 569.2 308.4 571.5"/>
                <polygon class="st92" points="308.4 576 308.4 571.5 304.5 569.2 304.5 573.8 308.4 576"/>
              </g>
              <g class="st63">
                <polygon class="st91" points="310.2 528.5 309.7 709.9 303.6 713.5 304.1 532 310.2 528.5"/>
                <polygon class="st119" points="304.1 532 303.6 713.5 297.4 709.9 298 528.5 304.1 532"/>
                <polygon class="st35" points="310.2 528.5 304.1 532 298 528.5 304.1 525 310.2 528.5"/>
              </g>
              <g class="st63">
                <polygon class="st84" points="457 449.7 456.4 625.2 450.4 628.7 450.9 453.2 457 449.7"/>
                <polygon class="st91" points="450.9 453.2 450.4 628.7 444.2 625.2 444.8 449.7 450.9 453.2"/>
                <polygon class="st35" points="457 449.7 450.9 453.2 444.8 449.7 450.9 446.2 457 449.7"/>
              </g>
              <g>
                <polygon class="st87" points="626.4 740.8 626.4 730.8 800.2 630.3 800.2 640.3 626.4 740.8"/>
                <polygon class="st10" points="626.4 730.8 276.4 529.7 276.4 539.7 626.4 740.8 626.4 730.8"/>
                <polygon class="st75" points="626.4 730.8 276.4 529.7 450.3 429.2 800.2 630.3 626.4 730.8"/>
              </g>
            </g>
            <g>
              <polygon class="st4" points="657.4 679.6 672.2 679.7 716.1 654.4 704.8 647.9 658 620.9 657.4 679.6"/>
              <g>
                <g class="st63">
                  <polygon class="st105" points="607.2 645.8 652 619.7 656.5 618.9 611.8 644.9 607.2 645.8"/>
                  <polygon class="st31" points="611.8 644.9 656.5 618.9 677.2 627.7 632.4 653.7 611.8 644.9"/>
                  <polygon class="st105" points="632.4 653.7 677.2 627.7 700.1 640.9 655.3 666.9 632.4 653.7"/>
                  <polygon class="st45" points="658.1 670.9 702.9 644.9 702.8 653.6 658.1 679.7 658.1 670.9"/>
                  <polygon class="st96" points="655.3 666.9 700.1 640.9 702.9 644.9 658.1 670.9 655.3 666.9"/>
                  <polygon class="st45" points="655.3 666.9 658.1 670.9 658.1 679.7 607.2 650.3 607.2 645.8 611.8 644.9 632.4 653.7 655.3 666.9"/>
                </g>
                <g>
                  <g class="st63">
                    <polygon class="st99" points="636.9 632.6 637.1 633.7 633.8 635.9 633.6 634.7 636.9 632.6"/>
                    <polygon class="st99" points="633.6 634.7 633.8 635.9 631.2 634.8 631 633.7 633.6 634.7"/>
                    <polygon class="st97" points="631 633.7 634.4 631.5 636.9 632.6 633.6 634.7 631 633.7"/>
                  </g>
                  <g class="st63">
                    <polygon class="st99" points="640.9 634.2 641 635.4 637.7 637.5 637.5 636.4 640.9 634.2"/>
                    <polygon class="st99" points="637.5 636.4 637.7 637.5 635.1 636.4 635 635.3 637.5 636.4"/>
                    <polygon class="st97" points="635 635.3 638.3 633.2 640.9 634.2 637.5 636.4 635 635.3"/>
                  </g>
                  <g class="st63">
                    <polygon class="st99" points="644.8 635.9 644.9 637 641.6 639.1 641.5 638 644.8 635.9"/>
                    <polygon class="st99" points="641.5 638 641.6 639.1 639 638.1 638.9 636.9 641.5 638"/>
                    <polygon class="st97" points="638.9 636.9 642.2 634.8 644.8 635.9 641.5 638 638.9 636.9"/>
                  </g>
                  <g class="st63">
                    <polygon class="st99" points="648.7 637.5 648.9 638.6 645.5 640.8 645.4 639.7 648.7 637.5"/>
                    <polygon class="st99" points="645.4 639.7 645.5 640.8 643 639.7 642.8 638.6 645.4 639.7"/>
                    <polygon class="st97" points="642.8 638.6 646.1 636.4 648.7 637.5 645.4 639.7 642.8 638.6"/>
                  </g>
                  <g class="st63">
                    <polygon class="st99" points="651.8 638.8 652 639.9 648.6 642.1 648.5 641 651.8 638.8"/>
                    <polygon class="st99" points="648.5 641 648.6 642.1 646.9 641.3 646.7 640.2 648.5 641"/>
                    <polygon class="st97" points="646.7 640.2 650.1 638.1 651.8 638.8 648.5 641 646.7 640.2"/>
                  </g>
                  <g class="st63">
                    <polygon class="st99" points="632.3 635.6 632.5 636.7 629.2 638.8 629 637.7 632.3 635.6"/>
                    <polygon class="st99" points="629 637.7 629.2 638.8 626.6 637.8 626.5 636.6 629 637.7"/>
                    <polygon class="st97" points="626.5 636.6 629.8 634.5 632.3 635.6 629 637.7 626.5 636.6"/>
                  </g>
                  <g class="st63">
                    <polygon class="st99" points="636.3 637.2 636.4 638.3 633.1 640.5 632.9 639.3 636.3 637.2"/>
                    <polygon class="st99" points="632.9 639.3 633.1 640.5 630.5 639.4 630.4 638.3 632.9 639.3"/>
                    <polygon class="st97" points="630.4 638.3 633.7 636.1 636.3 637.2 632.9 639.3 630.4 638.3"/>
                  </g>
                  <g class="st63">
                    <polygon class="st99" points="640.2 638.8 640.4 640 637 642.1 636.9 641 640.2 638.8"/>
                    <polygon class="st99" points="636.9 641 637 642.1 634.5 641 634.3 639.9 636.9 641"/>
                    <polygon class="st97" points="634.3 639.9 637.6 637.8 640.2 638.8 636.9 641 634.3 639.9"/>
                  </g>
                  <g class="st63">
                    <polygon class="st99" points="644.1 640.5 644.3 641.6 641 643.7 640.8 642.6 644.1 640.5"/>
                    <polygon class="st99" points="640.8 642.6 641 643.7 638.4 642.7 638.2 641.5 640.8 642.6"/>
                    <polygon class="st97" points="638.2 641.5 641.5 639.4 644.1 640.5 640.8 642.6 638.2 641.5"/>
                  </g>
                  <g class="st63">
                    <polygon class="st99" points="647.2 641.8 647.4 642.9 644.1 645 643.9 643.9 647.2 641.8"/>
                    <polygon class="st99" points="643.9 643.9 644.1 645 642.3 644.3 642.1 643.2 643.9 643.9"/>
                    <polygon class="st97" points="642.1 643.2 645.5 641 647.2 641.8 643.9 643.9 642.1 643.2"/>
                  </g>
                  <g class="st63">
                    <polygon class="st99" points="627.8 638.5 627.9 639.6 624.6 641.8 624.4 640.7 627.8 638.5"/>
                    <polygon class="st99" points="624.4 640.7 624.6 641.8 622 640.7 621.9 639.6 624.4 640.7"/>
                    <polygon class="st97" points="621.9 639.6 625.2 637.4 627.8 638.5 624.4 640.7 621.9 639.6"/>
                  </g>
                  <g class="st63">
                    <polygon class="st99" points="631.7 640.2 631.8 641.3 628.5 643.4 628.3 642.3 631.7 640.2"/>
                    <polygon class="st99" points="628.3 642.3 628.5 643.4 625.9 642.4 625.8 641.2 628.3 642.3"/>
                    <polygon class="st97" points="625.8 641.2 629.1 639.1 631.7 640.2 628.3 642.3 625.8 641.2"/>
                  </g>
                  <g class="st63">
                    <polygon class="st99" points="635.6 641.8 635.8 642.9 632.4 645.1 632.3 643.9 635.6 641.8"/>
                    <polygon class="st99" points="632.3 643.9 632.4 645.1 629.9 644 629.7 642.9 632.3 643.9"/>
                    <polygon class="st97" points="629.7 642.9 633 640.7 635.6 641.8 632.3 643.9 629.7 642.9"/>
                  </g>
                  <g class="st63">
                    <polygon class="st99" points="639.5 643.4 639.7 644.6 636.4 646.7 636.2 645.6 639.5 643.4"/>
                    <polygon class="st99" points="636.2 645.6 636.4 646.7 633.8 645.6 633.6 644.5 636.2 645.6"/>
                    <polygon class="st97" points="633.6 644.5 637 642.4 639.5 643.4 636.2 645.6 633.6 644.5"/>
                  </g>
                  <g class="st63">
                    <polygon class="st99" points="642.6 644.7 642.8 645.9 639.5 648 639.3 646.9 642.6 644.7"/>
                    <polygon class="st99" points="639.3 646.9 639.5 648 637.7 647.3 637.5 646.1 639.3 646.9"/>
                    <polygon class="st97" points="637.5 646.1 640.9 644 642.6 644.7 639.3 646.9 637.5 646.1"/>
                  </g>
                  <g class="st63">
                    <polygon class="st99" points="623.2 641.5 623.3 642.6 620 644.7 619.8 643.6 623.2 641.5"/>
                    <polygon class="st99" points="619.8 643.6 620 644.7 617.4 643.7 617.3 642.5 619.8 643.6"/>
                    <polygon class="st97" points="617.3 642.5 620.6 640.4 623.2 641.5 619.8 643.6 617.3 642.5"/>
                  </g>
                  <g class="st63">
                    <polygon class="st99" points="627.1 643.1 627.2 644.2 623.9 646.4 623.8 645.3 627.1 643.1"/>
                    <polygon class="st99" points="623.8 645.3 623.9 646.4 621.4 645.3 621.2 644.2 623.8 645.3"/>
                    <polygon class="st97" points="621.2 644.2 624.5 642 627.1 643.1 623.8 645.3 621.2 644.2"/>
                  </g>
                  <g class="st63">
                    <polygon class="st99" points="631 644.8 631.2 645.9 627.8 648 627.7 646.9 631 644.8"/>
                    <polygon class="st99" points="627.7 646.9 627.8 648 625.3 647 625.1 645.8 627.7 646.9"/>
                    <polygon class="st97" points="625.1 645.8 628.4 643.7 631 644.8 627.7 646.9 625.1 645.8"/>
                  </g>
                  <g class="st63">
                    <polygon class="st99" points="634.9 646.4 635.1 647.5 631.8 649.7 631.6 648.5 634.9 646.4"/>
                    <polygon class="st99" points="631.6 648.5 631.8 649.7 629.2 648.6 629 647.5 631.6 648.5"/>
                    <polygon class="st97" points="629 647.5 632.4 645.3 634.9 646.4 631.6 648.5 629 647.5"/>
                  </g>
                  <g class="st63">
                    <polygon class="st99" points="638 647.7 638.2 648.8 634.9 651 634.7 649.8 638 647.7"/>
                    <polygon class="st99" points="634.7 649.8 634.9 651 633.1 650.2 633 649.1 634.7 649.8"/>
                    <polygon class="st97" points="633 649.1 636.3 647 638 647.7 634.7 649.8 633 649.1"/>
                  </g>
                </g>
                <g class="st63">
                  <polygon class="st45" points="651.3 632.6 661 626.9 661.2 629.1 651.5 634.7 651.3 632.6"/>
                  <polygon class="st45" points="651.7 630.8 661.4 625.1 661 626.9 651.3 632.6 651.7 630.8"/>
                  <polygon class="st22" points="638.5 620.3 648.2 614.7 666.3 619.3 656.6 625 638.5 620.3"/>
                  <polygon class="st15" points="656.6 625 666.3 619.3 673.1 622.5 663.3 628.1 656.6 625"/>
                  <polygon class="st15" points="663.3 628.1 673.1 622.5 679.8 625.6 670.1 631.3 663.3 628.1"/>
                  <polygon class="st45" points="690.8 648.9 700.5 643.3 700.8 647.6 691.1 653.2 690.8 648.9"/>
                  <polygon class="st17" points="670.1 631.3 679.8 625.6 698.5 638.1 688.8 643.8 670.1 631.3"/>
                  <polygon class="st45" points="670.1 631.3 688.8 643.8 690.8 648.9 691.1 653.2 677.2 646.7 677 644.5 676.3 642.2 663.8 633.9 651.7 630.8 651.3 632.6 651.5 634.7 637.5 628.2 637.2 623.9 638.5 620.3 656.6 625 663.3 628.1 670.1 631.3"/>
                  <polygon class="st14" points="688.8 643.8 698.5 638.1 700.5 643.3 690.8 648.9 688.8 643.8"/>
                </g>
                <g class="st63">
                  <polygon class="st108" points="656 662.4 658.7 660.9 658.7 662.2 656 663.8 656 662.4"/>
                  <polygon class="st30" points="653.7 661.1 656.5 659.5 658.7 660.9 656 662.4 653.7 661.1"/>
                  <polygon class="st108" points="656 662.4 656 663.8 653.7 662.4 653.7 661.1 656 662.4"/>
                </g>
                <g>
                  <path class="st96" d="M658.3,658.2l15.8-9.1c1.3-.8,1.2-2.1-.4-3l-9.3-5.4c-1.5-.9-3.9-1-5.3-.2l-15.8,9.1c-1.3.8-1.2,2.1.4,3l9.3,5.4c1.5.9,3.9,1,5.3.2Z"/>
                  <path class="st17" d="M652.8,653.1c2.7,1.6,7.8,1.3,11.2-.7,3.4-2,4-4.9,1.3-6.5-2.7-1.6-7.8-1.3-11.2.7-3.4,2-4,4.9-1.3,6.5Z"/>
                </g>
                <path class="st31" d="M657.2,632.2l-4.2-1.1-1.6,1-11.6-5.2-3.2,1.9s2.7,2.5,2.7,2.7c0,.1,13.3,5.3,13.3,5.3l4.6-4.6Z"/>
                <polygon class="st31" points="677 644.5 686.9 648.6 681.4 651.8 676.3 647.3 677 644.5"/>
                <polygon class="st96" points="684.5 655.6 681.4 651.8 686.9 648.6 690.1 652.3 684.5 655.6"/>
              </g>
            </g>
          </g>
          <g>
            <path class="st10" d="M497.6,550.8l33.7-19.6c2.1-1.2,24.4-1.9,26.5-.7h0c.7.2,1.4.4,1.9.7l93.8,54c2,1.2,2,3.1,0,4.3l-33.7,19.6c-.4.2-.9.4-1.4.5h0c-1.5.9-23.5.4-25-.5l-95.8-55.1c-1.5-.9-1.5-2.3,0-3.1Z"/>
            <g>
              <path class="st0" d="M524,554.7l31.1-17.9c3.2-1.9,4.9-5.5,4.4-9.2l-7.3-49.1,17.8,10.3,29.6,62.3c1.9,4,.3,8.8-3.5,11.1l-28.2,16.3c-6.3,3.6-14,3.6-20.2,0l-23.7-13.7c-3.9-2.2-3.9-7.8,0-10Z"/>
              <path class="st60" d="M524.2,561.5l23.7,13.7c6.3,3.6,14,3.6,20.2,0l26.1-15.1c2.9-1.7,4-5.3,2.6-8.3l-30.4-64.1-17.8-10.3,7.3,49.1c.6,3.7-1.1,7.3-4.4,9.2l-27.3,15.8c-3.9,2.2-3.9,7.8,0,10Z"/>
              <g>
                <path class="st48" d="M497.3,468.1l3.1-104-2.4-3.6,4.4-2h0c.9-.4,2.1-.3,3.4.5l132.1,76.3c2.8,1.6,5,5.6,4.9,8.9l-3.2,106.1v2.9c-.2,2.6-1.3,4.4-2.9,5l-4.3,1.9-2.7-4-125.6-72.5c-4-2.3-7.1-7.9-7-12.6v-2.9Z"/>
                <path class="st77" d="M638.4,446.2l-3.3,109c-.1,4.7-3.5,6.6-7.5,4.3l-127.9-73.8c-4-2.3-7.1-7.9-7-12.6v-2.9c0,0,142.4,82.2,142.4,82.2l3.2-106.1h0Z"/>
                <path class="st58" d="M501.3,361c-2.8-1.6-5.2-.3-5.3,3l-3.2,106.1,142.3,82.2,3.2-106.1c.1-3.3-2.1-7.3-4.9-8.9l-132.1-76.3h0Z"/>
                <polygon class="st101" points="499.1 363.7 635.4 442.4 632.4 542.9 496 464.2 499.1 363.7 499.1 363.7"/>
                <g>
                  <polygon class="st48" points="524.4 397.8 608.9 446.6 607 508.8 522.6 460.1 524.4 397.8 524.4 397.8"/>
                  <polygon class="st115" points="524.4 397.8 608.9 446.6 608.6 457.1 524.1 408.3 524.4 397.8 524.4 397.8"/>
                  <polygon class="st81" points="600.4 446 605.7 449.1 605.6 453 600.3 449.9 600.4 446 600.4 446"/>
                </g>
              </g>
              <path class="st48" d="M524.2,561.5l23.7,13.7c6.3,3.6,14,3.6,20.2,0l26.1-15.1-42.7-24.4-27.3,15.8c-3.9,2.2-3.9,7.8,0,10Z"/>
            </g>
            <polygon class="st100" points="619.5 429.2 557.1 518.8 519.3 497 584.8 409.2 619.5 429.2"/>
          </g>
          <g>
            <path class="st53" d="M410.8,561.5l42.1-24.3c1.4-.8,3.8-.8,5.2,0l107,62.1,5.8,1.4v2.8h0c0,.5-.4,1.1-1.1,1.5l-43.3,25c-1.4.8-3.8.8-5.2,0l-111.7-64.8c-.7-.4-1-.9-1.1-1.4h0v-2.8l2.2.5Z"/>
            <path class="st114" d="M409.6,562.5l111.7,64.8c1.4.8,3.8.8,5.2,0l43.3-25c1.4-.8,1.4-2.2,0-3l-111.7-64.8c-1.4-.8-3.8-.8-5.2,0l-43.3,25c-1.4.8-1.4,2.2,0,3Z"/>
            <g>
              <path class="st49" d="M548.8,602.1v-.6h.5s4.9-2.8,4.9-2.8c.5-.3,1.3-.3,1.8,0l4.9,2.9h.4v.6h0s0,0,0,0c0,.2-.1.4-.4.5l-5,2.9c-.5.3-1.3.3-1.8,0l-5-2.9c-.2-.1-.4-.3-.4-.5Z"/>
              <path class="st49" d="M517.1,620.4v-.6h.5s4.9-2.8,4.9-2.8c.5-.3,1.3-.3,1.8,0l4.9,2.9h.4v.6h0s0,0,0,0c0,.2-.1.4-.4.5l-5,2.9c-.5.3-1.3.3-1.8,0l-5-2.9c-.2-.1-.4-.3-.4-.5Z"/>
              <path class="st49" d="M509.3,615.9v-.6h.5s4.9-2.8,4.9-2.8c.5-.3,1.3-.3,1.8,0l4.9,2.9h.4v.6h0s0,0,0,0c0,.2-.1.4-.4.5l-5,2.9c-.5.3-1.3.3-1.8,0l-5-2.9c-.2-.1-.4-.3-.4-.5Z"/>
              <path class="st49" d="M501.5,611.3v-.6h.5s4.9-2.8,4.9-2.8c.5-.3,1.3-.3,1.8,0l4.9,2.9h.4v.6h0s0,0,0,0c0,.2-.1.4-.4.5l-5,2.9c-.5.3-1.3.3-1.8,0l-5-2.9c-.2-.1-.4-.3-.4-.5Z"/>
              <path class="st49" d="M493.7,606.8v-.6h.5s4.9-2.8,4.9-2.8c.5-.3,1.3-.3,1.8,0l4.9,2.9h.4v.6h0s0,0,0,0c0,.2-.1.4-.4.5l-5,2.9c-.5.3-1.3.3-1.8,0l-5-2.9c-.2-.1-.4-.3-.4-.5Z"/>
              <path class="st49" d="M540.9,597.6v-.6h.5s4.9-2.8,4.9-2.8c.5-.3,1.3-.3,1.8,0l4.9,2.9h.4v.6h0s0,0,0,0c0,.2-.1.4-.4.5l-5,2.9c-.5.3-1.3.3-1.8,0l-5-2.9c-.2-.1-.4-.3-.4-.5Z"/>
              <path class="st49" d="M528.7,599.6v-.6h.5s4.9-2.8,4.9-2.8c.5-.3,1.3-.3,1.8,0l4.9,2.9h.4v.6h0s0,0,0,0c0,.2-.1.4-.4.5l-5,2.9c-.5.3-1.3.3-1.8,0l-5-2.9c-.2-.1-.4-.3-.4-.5Z"/>
              <path class="st49" d="M520.9,595v-.6h.5s4.9-2.8,4.9-2.8c.5-.3,1.3-.3,1.8,0l4.9,2.9h.4v.6h0s0,0,0,0c0,.2-.1.4-.4.5l-5,2.9c-.5.3-1.3.3-1.8,0l-5-2.9c-.2-.1-.4-.3-.4-.5Z"/>
              <path class="st49" d="M516.8,601.9v-.6h.5s4.9-2.8,4.9-2.8c.5-.3,1.3-.3,1.8,0l4.9,2.9h.4v.6h0s0,0,0,0c0,.2-.1.4-.4.5l-5,2.9c-.5.3-1.3.3-1.8,0l-5-2.9c-.2-.1-.4-.3-.4-.5Z"/>
              <path class="st49" d="M508.8,606.5v-.6h.5s4.9-2.8,4.9-2.8c.5-.3,1.3-.3,1.8,0l4.9,2.9h.4v.6h0s0,0,0,0c0,.2-.1.4-.4.5l-5,2.9c-.5.3-1.3.3-1.8,0l-5-2.9c-.2-.1-.4-.3-.4-.5Z"/>
              <path class="st49" d="M501,601.9v-.6h.5s4.9-2.8,4.9-2.8c.5-.3,1.3-.3,1.8,0l4.9,2.9h.4v.6h0s0,0,0,0c0,.2-.1.4-.4.5l-5,2.9c-.5.3-1.3.3-1.8,0l-5-2.9c-.2-.1-.4-.3-.4-.5Z"/>
              <path class="st49" d="M493.2,597.4v-.6h.5s4.9-2.8,4.9-2.8c.5-.3,1.3-.3,1.8,0l4.9,2.9h.4v.6h0s0,0,0,0c0,.2-.1.4-.4.5l-5,2.9c-.5.3-1.3.3-1.8,0l-5-2.9c-.2-.1-.4-.3-.4-.5Z"/>
              <path class="st49" d="M485.4,592.9v-.6h.5s4.9-2.8,4.9-2.8c.5-.3,1.3-.3,1.8,0l4.9,2.9h.4v.6h0s0,0,0,0c0,.2-.1.4-.4.5l-5,2.9c-.5.3-1.3.3-1.8,0l-5-2.9c-.2-.1-.4-.3-.4-.5Z"/>
              <path class="st49" d="M477.6,588.3v-.6h.5s4.9-2.8,4.9-2.8c.5-.3,1.3-.3,1.8,0l4.9,2.9h.4v.6h0s0,0,0,0c0,.2-.1.4-.4.5l-5,2.9c-.5.3-1.3.3-1.8,0l-5-2.9c-.2-.1-.4-.3-.4-.5Z"/>
              <path class="st49" d="M469.8,583.8v-.6h.5s4.9-2.8,4.9-2.8c.5-.3,1.3-.3,1.8,0l4.9,2.9h.4v.6h0s0,0,0,0c0,.2-.1.4-.4.5l-5,2.9c-.5.3-1.3.3-1.8,0l-5-2.9c-.2-.1-.4-.3-.4-.5Z"/>
              <path class="st49" d="M462,579.3v-.6h.5s4.9-2.8,4.9-2.8c.5-.3,1.3-.3,1.8,0l4.9,2.9h.4v.6h0s0,0,0,0c0,.2-.1.4-.4.5l-5,2.9c-.5.3-1.3.3-1.8,0l-5-2.9c-.2-.1-.4-.3-.4-.5Z"/>
              <path class="st49" d="M454.2,574.7v-.6h.5s4.9-2.8,4.9-2.8c.5-.3,1.3-.3,1.8,0l4.9,2.9h.4v.6h0s0,0,0,0c0,.2-.1.4-.4.5l-5,2.9c-.5.3-1.3.3-1.8,0l-5-2.9c-.2-.1-.4-.3-.4-.5Z"/>
              <path class="st49" d="M446.4,570.2v-.6h.5s4.9-2.8,4.9-2.8c.5-.3,1.3-.3,1.8,0l4.9,2.9h.4v.6h0s0,0,0,0c0,.2-.1.4-.4.5l-5,2.9c-.5.3-1.3.3-1.8,0l-5-2.9c-.2-.1-.4-.3-.4-.5Z"/>
              <path class="st49" d="M438,574.4v-.6h.5s4.9-2.8,4.9-2.8c.5-.3,1.3-.3,1.8,0l4.9,2.9h.4v.6h0s0,0,0,0c0,.2-.1.4-.4.5l-5,2.9c-.5.3-1.3.3-1.8,0l-5-2.9c-.2-.1-.4-.3-.4-.5Z"/>
              <path class="st49" d="M430.2,569.9v-.6h.5s4.9-2.8,4.9-2.8c.5-.3,1.3-.3,1.8,0l4.9,2.9h.4v.6h0s0,0,0,0c0,.2-.1.4-.4.5l-5,2.9c-.5.3-1.3.3-1.8,0l-5-2.9c-.2-.1-.4-.3-.4-.5Z"/>
              <path class="st49" d="M414.4,560.7v-.6h.5s4.9-2.8,4.9-2.8c.5-.3,1.3-.3,1.8,0l4.9,2.9h.4v.6h0s0,0,0,0c0,.2-.1.4-.4.5l-5,2.9c-.5.3-1.3.3-1.8,0l-5-2.9c-.2-.1-.4-.3-.4-.5Z"/>
              <path class="st49" d="M422.8,555.6l4.9-2.8c.5-.3,1.3-.3,1.8,0l.7.4h0l4.2,2.5h.4v.2l.3.2h.4v.6h0s0,0,0,0c0,.2-.1.4-.4.5l-5,2.9c-.5.3-1.3.3-1.8,0l-5.7-3.3c-.2-.1-.4-.3-.4-.5v-.6h.5Z"/>
              <path class="st49" d="M438.6,565.7v-.6h.5s4.9-2.8,4.9-2.8c.5-.3,1.3-.3,1.8,0l4.9,2.9h.4v.6h0s0,0,0,0c0,.2-.1.4-.4.5l-5,2.9c-.5.3-1.3.3-1.8,0l-5-2.9c-.2-.1-.4-.3-.4-.5Z"/>
              <path class="st49" d="M430.8,561.1v-.6h.5s4.9-2.8,4.9-2.8c.5-.3,1.3-.3,1.8,0l4.9,2.9h.4v.6h0s0,0,0,0c0,.2-.1.4-.4.5l-5,2.9c-.5.3-1.3.3-1.8,0l-5-2.9c-.2-.1-.4-.3-.4-.5Z"/>
              <path class="st49" d="M509,597.3v-.6h.5s4.9-2.8,4.9-2.8c.5-.3,1.3-.3,1.8,0l4.9,2.9h.4v.6h0s0,0,0,0c0,.2-.1.4-.4.5l-5,2.9c-.5.3-1.3.3-1.8,0l-5-2.9c-.2-.1-.4-.3-.4-.5Z"/>
              <path class="st49" d="M501.2,592.8v-.6h.5s4.9-2.8,4.9-2.8c.5-.3,1.3-.3,1.8,0l4.9,2.9h.4v.6h0s0,0,0,0c0,.2-.1.4-.4.5l-5,2.9c-.5.3-1.3.3-1.8,0l-5-2.9c-.2-.1-.4-.3-.4-.5Z"/>
              <path class="st49" d="M493.4,588.3v-.6h.5s4.9-2.8,4.9-2.8c.5-.3,1.3-.3,1.8,0l4.9,2.9h.4v.6h0s0,0,0,0c0,.2-.1.4-.4.5l-5,2.9c-.5.3-1.3.3-1.8,0l-5-2.9c-.2-.1-.4-.3-.4-.5Z"/>
              <path class="st49" d="M485.6,583.7v-.6h.5s4.9-2.8,4.9-2.8c.5-.3,1.3-.3,1.8,0l4.9,2.9h.4v.6h0s0,0,0,0c0,.2-.1.4-.4.5l-5,2.9c-.5.3-1.3.3-1.8,0l-5-2.9c-.2-.1-.4-.3-.4-.5Z"/>
              <path class="st49" d="M477.8,579.2v-.6h.5s4.9-2.8,4.9-2.8c.5-.3,1.3-.3,1.8,0l4.9,2.9h.4v.6h0s0,0,0,0c0,.2-.1.4-.4.5l-5,2.9c-.5.3-1.3.3-1.8,0l-5-2.9c-.2-.1-.4-.3-.4-.5Z"/>
              <path class="st49" d="M470,574.7v-.6h.5s4.9-2.8,4.9-2.8c.5-.3,1.3-.3,1.8,0l4.9,2.9h.4v.6h0s0,0,0,0c0,.2-.1.4-.4.5l-5,2.9c-.5.3-1.3.3-1.8,0l-5-2.9c-.2-.1-.4-.3-.4-.5Z"/>
              <path class="st49" d="M462.2,570.1v-.6h.5s4.9-2.8,4.9-2.8c.5-.3,1.3-.3,1.8,0l4.9,2.9h.4v.6h0s0,0,0,0c0,.2-.1.4-.4.5l-5,2.9c-.5.3-1.3.3-1.8,0l-5-2.9c-.2-.1-.4-.3-.4-.5Z"/>
              <path class="st49" d="M454.4,565.6v-.6h.5s4.9-2.8,4.9-2.8c.5-.3,1.3-.3,1.8,0l4.9,2.9h.4v.6h0s0,0,0,0c0,.2-.1.4-.4.5l-5,2.9c-.5.3-1.3.3-1.8,0l-5-2.9c-.2-.1-.4-.3-.4-.5Z"/>
              <path class="st49" d="M446.5,561.1v-.6h.5s4.9-2.8,4.9-2.8c.5-.3,1.3-.3,1.8,0l4.9,2.9h.4v.6h0s0,0,0,0c0,.2-.1.4-.4.5l-5,2.9c-.5.3-1.3.3-1.8,0l-5-2.9c-.2-.1-.4-.3-.4-.5Z"/>
              <path class="st49" d="M513.1,590.5v-.6h.5s4.9-2.8,4.9-2.8c.5-.3,1.3-.3,1.8,0l4.9,2.9h.4v.6h0s0,0,0,0c0,.2-.1.4-.4.5l-5,2.9c-.5.3-1.3.3-1.8,0l-5-2.9c-.2-.1-.4-.3-.4-.5Z"/>
              <path class="st49" d="M505.3,585.9v-.6h.5s4.9-2.8,4.9-2.8c.5-.3,1.3-.3,1.8,0l4.9,2.9h.4v.6h0s0,0,0,0c0,.2-.1.4-.4.5l-5,2.9c-.5.3-1.3.3-1.8,0l-5-2.9c-.2-.1-.4-.3-.4-.5Z"/>
              <path class="st49" d="M497.4,581.4v-.6h.5s4.9-2.8,4.9-2.8c.5-.3,1.3-.3,1.8,0l4.9,2.9h.4v.6h0s0,0,0,0c0,.2-.1.4-.4.5l-5,2.9c-.5.3-1.3.3-1.8,0l-5-2.9c-.2-.1-.4-.3-.4-.5Z"/>
              <path class="st49" d="M489.6,576.9v-.6h.5s4.9-2.8,4.9-2.8c.5-.3,1.3-.3,1.8,0l4.9,2.9h.4v.6h0s0,0,0,0c0,.2-.1.4-.4.5l-5,2.9c-.5.3-1.3.3-1.8,0l-5-2.9c-.2-.1-.4-.3-.4-.5Z"/>
              <path class="st49" d="M481.8,572.3v-.6h.5s4.9-2.8,4.9-2.8c.5-.3,1.3-.3,1.8,0l4.9,2.9h.4v.6h0s0,0,0,0c0,.2-.1.4-.4.5l-5,2.9c-.5.3-1.3.3-1.8,0l-5-2.9c-.2-.1-.4-.3-.4-.5Z"/>
              <path class="st49" d="M474,567.8v-.6h.5s4.9-2.8,4.9-2.8c.5-.3,1.3-.3,1.8,0l4.9,2.9h.4v.6h0s0,0,0,0c0,.2-.1.4-.4.5l-5,2.9c-.5.3-1.3.3-1.8,0l-5-2.9c-.2-.1-.4-.3-.4-.5Z"/>
              <path class="st49" d="M466.2,563.3v-.6h.5s4.9-2.8,4.9-2.8c.5-.3,1.3-.3,1.8,0l4.9,2.9h.4v.6h0s0,0,0,0c0,.2-.1.4-.4.5l-5,2.9c-.5.3-1.3.3-1.8,0l-5-2.9c-.2-.1-.4-.3-.4-.5Z"/>
              <path class="st49" d="M458.4,558.7v-.6h.5s4.9-2.8,4.9-2.8c.5-.3,1.3-.3,1.8,0l4.9,2.9h.4v.6h0s0,0,0,0c0,.2-.1.4-.4.5l-5,2.9c-.5.3-1.3.3-1.8,0l-5-2.9c-.2-.1-.4-.3-.4-.5Z"/>
              <path class="st49" d="M450.6,554.2v-.6h.5s4.9-2.8,4.9-2.8c.5-.3,1.3-.3,1.8,0l4.9,2.9h.4v.6h0s0,0,0,0c0,.2-.1.4-.4.5l-5,2.9c-.5.3-1.3.3-1.8,0l-5-2.9c-.2-.1-.4-.3-.4-.5Z"/>
              <path class="st49" d="M533.1,593v-.6h.5s4.9-2.8,4.9-2.8c.5-.3,1.3-.3,1.8,0l4.9,2.9h.4v.6h0s0,0,0,0c0,.2-.1.4-.4.5l-5,2.9c-.5.3-1.3.3-1.8,0l-5-2.9c-.2-.1-.4-.3-.4-.5Z"/>
              <path class="st49" d="M525.3,588.5v-.6h.5s4.9-2.8,4.9-2.8c.5-.3,1.3-.3,1.8,0l4.9,2.9h.4v.6h0s0,0,0,0c0,.2-.1.4-.4.5l-5,2.9c-.5.3-1.3.3-1.8,0l-5-2.9c-.2-.1-.4-.3-.4-.5Z"/>
              <path class="st49" d="M517.5,584v-.6h.5s4.9-2.8,4.9-2.8c.5-.3,1.3-.3,1.8,0l4.9,2.9h.4v.6h0s0,0,0,0c0,.2-.1.4-.4.5l-5,2.9c-.5.3-1.3.3-1.8,0l-5-2.9c-.2-.1-.4-.3-.4-.5Z"/>
              <path class="st49" d="M509.7,579.4v-.6h.5s4.9-2.8,4.9-2.8c.5-.3,1.3-.3,1.8,0l4.9,2.9h.4v.6h0s0,0,0,0c0,.2-.1.4-.4.5l-5,2.9c-.5.3-1.3.3-1.8,0l-5-2.9c-.2-.1-.4-.3-.4-.5Z"/>
              <path class="st49" d="M501.9,574.9v-.6h.5s4.9-2.8,4.9-2.8c.5-.3,1.3-.3,1.8,0l4.9,2.9h.4v.6h0s0,0,0,0c0,.2-.1.4-.4.5l-5,2.9c-.5.3-1.3.3-1.8,0l-5-2.9c-.2-.1-.4-.3-.4-.5Z"/>
              <path class="st49" d="M494.1,570.4v-.6h.5s4.9-2.8,4.9-2.8c.5-.3,1.3-.3,1.8,0l4.9,2.9h.4v.6h0s0,0,0,0c0,.2-.1.4-.4.5l-5,2.9c-.5.3-1.3.3-1.8,0l-5-2.9c-.2-.1-.4-.3-.4-.5Z"/>
              <path class="st49" d="M486.3,565.8v-.6h.5s4.9-2.8,4.9-2.8c.5-.3,1.3-.3,1.8,0l4.9,2.9h.4v.6h0s0,0,0,0c0,.2-.1.4-.4.5l-5,2.9c-.5.3-1.3.3-1.8,0l-5-2.9c-.2-.1-.4-.3-.4-.5Z"/>
              <path class="st49" d="M478.5,561.3v-.6h.5s4.9-2.8,4.9-2.8c.5-.3,1.3-.3,1.8,0l4.9,2.9h.4v.6h0s0,0,0,0c0,.2-.1.4-.4.5l-5,2.9c-.5.3-1.3.3-1.8,0l-5-2.9c-.2-.1-.4-.3-.4-.5Z"/>
              <path class="st49" d="M470.7,556.8v-.6h.5s4.9-2.8,4.9-2.8c.5-.3,1.3-.3,1.8,0l4.9,2.9h.4v.6h0s0,0,0,0c0,.2-.1.4-.4.5l-5,2.9c-.5.3-1.3.3-1.8,0l-5-2.9c-.2-.1-.4-.3-.4-.5Z"/>
              <path class="st49" d="M462.9,552.2v-.6h.5s4.9-2.8,4.9-2.8c.5-.3,1.3-.3,1.8,0l4.9,2.9h.4v.6h0s0,0,0,0c0,.2-.1.4-.4.5l-5,2.9c-.5.3-1.3.3-1.8,0l-5-2.9c-.2-.1-.4-.3-.4-.5Z"/>
              <path class="st49" d="M455.1,547.7v-.6h.5s4.9-2.8,4.9-2.8c.5-.3,1.3-.3,1.8,0l4.9,2.9h.4v.6h0s0,0,0,0c0,.2-.1.4-.4.5l-5,2.9c-.5.3-1.3.3-1.8,0l-5-2.9c-.2-.1-.4-.3-.4-.5Z"/>
              <path class="st49" d="M446.1,541.8h.5s4.9-2.8,4.9-2.8c.5-.3,1.3-.3,1.8,0l6.1,3.5h.5s0,.6,0,.6c0,0,0,0,0,0h0s0,0,0,0c0,.2-.1.3-.4.5l-5,2.9c-.5.3-1.3.3-1.8,0l-6.2-3.6c-.3-.2-.4-.4-.4-.6h0v-.6Z"/>
              <path class="st49" d="M445.8,578.9v-.6h.5s4.9-2.8,4.9-2.8c.4-.2.9-.3,1.4-.2.2,0,.3,0,.4.2l4.9,2.9h.4v.2l34.7,20.2h0l4.9,2.9h.4v.6h0s0,0,0,0c0,0,0,0,0,0,0,0,0,0,0,.1,0,0,0,0,0,0,0,0,0,0,0,0,0,0,0,0,0,0,0,0,0,0,0,0,0,0,0,0-.2.1h0s-5,2.9-5,2.9c-.1,0-.3.1-.4.2-.2,0-.3,0-.5,0-.3,0-.7,0-.9-.2l-5-2.9h0l-40-23.3c-.3-.2-.4-.3-.4-.5Z"/>
              <path class="st49" d="M547.6,592.4h0v-.6h.3c0,0,0,0,0,0l1.3-.8c.5-.3,1.3-.3,1.8,0l4.6,2.7.7.2v.6c0,.2-.1.4-.4.5l-1.3.8c-.5.3-1.3.3-1.8,0l-5-2.9c-.2-.1-.4-.3-.4-.5h0Z"/>
              <path class="st49" d="M539.8,587.8h0v-.6h.3c0,0,0,0,0,0l1.3-.8c.5-.3,1.3-.3,1.8,0l4.6,2.7.7.2v.6c0,.2-.1.4-.4.5l-1.3.8c-.5.3-1.3.3-1.8,0l-5-2.9c-.2-.1-.4-.3-.4-.5h0Z"/>
              <path class="st49" d="M532,583.3s0,0,0,0v-.6h.3c0,0,0,0,0,0l1.3-.8c.5-.3,1.3-.3,1.8,0l4.6,2.7.7.2v.6c0,.2-.1.4-.4.5l-1.3.8c-.5.3-1.3.3-1.8,0l-5-2.9c-.2-.1-.4-.3-.4-.5h0Z"/>
              <path class="st49" d="M524.2,578.7s0,0,0,0v-.6h.3c0,0,0,0,0,0l1.3-.8c.5-.3,1.3-.3,1.8,0l4.6,2.7.7.2v.6c0,.2-.1.4-.4.5l-1.3.8c-.5.3-1.3.3-1.8,0l-5-2.9c-.2-.1-.4-.3-.4-.5h0Z"/>
              <path class="st49" d="M516.4,574.2h0v-.6h.3c0,0,0,0,0,0l1.3-.8c.5-.3,1.3-.3,1.8,0l4.6,2.7.7.2v.6c0,.2-.1.4-.4.5l-1.3.8c-.5.3-1.3.3-1.8,0l-5-2.9c-.2-.1-.4-.3-.4-.5h0Z"/>
              <path class="st49" d="M508.6,569.7h0v-.6h.3c0,0,0,0,0,0l1.3-.8c.5-.3,1.3-.3,1.8,0l4.6,2.7.7.2v.6c0,.2-.1.4-.4.5l-1.3.8c-.5.3-1.3.3-1.8,0l-5-2.9c-.2-.1-.4-.3-.4-.5h0Z"/>
              <path class="st49" d="M500.8,565.1h0v-.6h.3c0,0,0,0,0,0l1.3-.8c.5-.3,1.3-.3,1.8,0l4.6,2.7.7.2v.6c0,.2-.1.4-.4.5l-1.3.8c-.5.3-1.3.3-1.8,0l-5-2.9c-.2-.1-.4-.3-.4-.5h0Z"/>
              <path class="st49" d="M492.9,560.6h0v-.6h.3c0,0,0,0,0,0l1.3-.8c.5-.3,1.3-.3,1.8,0l4.6,2.7.7.2v.6c0,.2-.1.4-.4.5l-1.3.8c-.5.3-1.3.3-1.8,0l-5-2.9c-.2-.1-.4-.3-.4-.5h0Z"/>
              <path class="st49" d="M485.1,556.1h0v-.6h.3c0,0,0,0,0,0l1.3-.8c.5-.3,1.3-.3,1.8,0l4.6,2.7.7.2v.6c0,.2-.1.4-.4.5l-1.3.8c-.5.3-1.3.3-1.8,0l-5-2.9c-.2-.1-.4-.3-.4-.5h0Z"/>
              <path class="st49" d="M477.3,551.5h0v-.6h.3c0,0,0,0,0,0l1.3-.8c.5-.3,1.3-.3,1.8,0l4.6,2.7.7.2v.6c0,.2-.1.4-.4.5l-1.3.8c-.5.3-1.3.3-1.8,0l-5-2.9c-.2-.1-.4-.3-.4-.5h0Z"/>
              <path class="st49" d="M469.5,547h0v-.6h.3c0,0,0,0,0,0l1.3-.8c.5-.3,1.3-.3,1.8,0l4.6,2.7.7.2v.6c0,.2-.1.4-.4.5l-1.3.8c-.5.3-1.3.3-1.8,0l-5-2.9c-.2-.1-.4-.3-.4-.5h0Z"/>
              <path class="st49" d="M461.7,542.4s0,0,0,0v-.6h.3c0,0,0,0,0,0l1.3-.8c.5-.3,1.3-.3,1.8,0l4.6,2.7.7.2v.6c0,.2-.1.4-.4.5l-1.3.8c-.5.3-1.3.3-1.8,0l-5-2.9c-.2-.1-.4-.3-.4-.5h0Z"/>
              <path class="st49" d="M453.9,537.9s0,0,0,0v-.6h.3c0,0,0,0,0,0l1.3-.8c.5-.3,1.3-.3,1.8,0l4.6,2.7.7.2v.6c0,.2-.1.4-.4.5l-1.3.8c-.5.3-1.3.3-1.8,0l-5-2.9c-.2-.1-.4-.3-.4-.5h0Z"/>
              <path class="st49" d="M536.4,603.6h.4s0,0,0,0l5-2.9c.5-.3,1.3-.3,1.8,0l9.3,5.4h.5v.6h0s0,0,0,0c0,.2-.1.4-.4.5l-5,2.9c-.5.3-1.3.3-1.8,0l-9.4-5.5c-.2-.1-.4-.3-.4-.5h0v-.6Z"/>
              <path class="st49" d="M524.6,605.8h.3c0,0,0,0,0,0l5-2.9c.5-.3,1.3-.3,1.8,0l13,7.6.7.2v.6h0c0,.2-.1.4-.4.5l-5,2.9c-.5.3-1.3.3-1.8,0l-13.3-7.7c-.3-.1-.4-.3-.4-.5h0v-.6Z"/>
              <path class="st49" d="M516.7,610.4h.3c0,0,0,0,0,0l5-2.9c.5-.3,1.3-.3,1.8,0l13,7.6.7.2v.6h0c0,.2-.1.4-.4.5l-5,2.9c-.5.3-1.3.3-1.8,0l-13.3-7.7c-.3-.1-.4-.3-.4-.5h0v-.6Z"/>
              <path class="st49" d="M438.1,546.4h.4c0,0,0,0,0,0l5-2.9c.5-.3,1.3-.3,1.8,0l9.4,5.5h.5v.6h0s0,0,0,0c0,.2-.1.4-.4.5l-5,2.9c-.5.3-1.3.3-1.8,0l-9.6-5.6c-.3-.1-.4-.3-.4-.5h0v-.6Z"/>
              <path class="st49" d="M430.6,551l5-2.9c.5-.3,1.3-.3,1.8,0l13.5,7.8c.5.3.5.8,0,1.1l-5,2.9c-.5.3-1.3.3-1.8,0l-13.5-7.8c-.5-.3-.5-.8,0-1.1h0Z"/>
              <path class="st49" d="M426.1,563.3h0v-.6h.3c0,0,0,0,0,0l1.3-.8c.5-.3,1.3-.3,1.8,0l4.6,2.7.7.2v.6c0,.2-.1.4-.4.5l-1.3.8c-.5.3-1.3.3-1.8,0l-5-2.9c-.2-.1-.4-.3-.4-.5h0Z"/>
              <path class="st49" d="M422.4,565.4h0v-.6h.3c0,0,0,0,0,0l1.3-.8c.5-.3,1.3-.3,1.8,0l4.6,2.7.7.2v.6c0,.2-.1.4-.4.5l-1.3.8c-.5.3-1.3.3-1.8,0l-5-2.9c-.2-.1-.4-.3-.4-.5h0Z"/>
              <path class="st49" d="M509.2,606l5-2.9c.5-.3,1.3-.3,1.8,0l5,2.9c.5.3.5.8,0,1.1l-5,2.9c-.5.3-1.3.3-1.8,0l-5-2.9c-.5-.3-.5-.8,0-1.1h0Z"/>
            </g>
            <path class="st49" d="M555.4,596.9h0v-.6h.4c0,.1,0,0,0,0l1.3-.8c.5-.3,1.3-.3,1.8,0l5.7,3.3.8.2v.6h0c0,.2-.1.3-.4.5l-1.3.8c-.5.3-1.3.3-1.8,0l-6.2-3.6c-.3-.2-.4-.3-.4-.5Z"/>
            <g>
              <path class="st43" d="M549.1,601l5-2.9c.5-.3,1.3-.3,1.8,0l5,2.9c.5.3.5.8,0,1.1l-5,2.9c-.5.3-1.3.3-1.8,0l-5-2.9c-.5-.3-.5-.8,0-1.1h0Z"/>
              <path class="st43" d="M541.3,596.5l5-2.9c.5-.3,1.3-.3,1.8,0l5,2.9c.5.3.5.8,0,1.1l-5,2.9c-.5.3-1.3.3-1.8,0l-5-2.9c-.5-.3-.5-.8,0-1.1h0Z"/>
              <path class="st43" d="M533.5,592l5-2.9c.5-.3,1.3-.3,1.8,0l5,2.9c.5.3.5.8,0,1.1l-5,2.9c-.5.3-1.3.3-1.8,0l-5-2.9c-.5-.3-.5-.8,0-1.1h0Z"/>
              <path class="st43" d="M525.7,587.4l5-2.9c.5-.3,1.3-.3,1.8,0l5,2.9c.5.3.5.8,0,1.1l-5,2.9c-.5.3-1.3.3-1.8,0l-5-2.9c-.5-.3-.5-.8,0-1.1h0Z"/>
              <path class="st43" d="M517.9,582.9l5-2.9c.5-.3,1.3-.3,1.8,0l5,2.9c.5.3.5.8,0,1.1l-5,2.9c-.5.3-1.3.3-1.8,0l-5-2.9c-.5-.3-.5-.8,0-1.1h0Z"/>
              <path class="st43" d="M510.1,578.4l5-2.9c.5-.3,1.3-.3,1.8,0l5,2.9c.5.3.5.8,0,1.1l-5,2.9c-.5.3-1.3.3-1.8,0l-5-2.9c-.5-.3-.5-.8,0-1.1h0Z"/>
              <path class="st43" d="M502.3,573.8l5-2.9c.5-.3,1.3-.3,1.8,0l5,2.9c.5.3.5.8,0,1.1l-5,2.9c-.5.3-1.3.3-1.8,0l-5-2.9c-.5-.3-.5-.8,0-1.1h0Z"/>
              <path class="st43" d="M494.5,569.3l5-2.9c.5-.3,1.3-.3,1.8,0l5,2.9c.5.3.5.8,0,1.1l-5,2.9c-.5.3-1.3.3-1.8,0l-5-2.9c-.5-.3-.5-.8,0-1.1h0Z"/>
              <path class="st43" d="M486.7,564.7l5-2.9c.5-.3,1.3-.3,1.8,0l5,2.9c.5.3.5.8,0,1.1l-5,2.9c-.5.3-1.3.3-1.8,0l-5-2.9c-.5-.3-.5-.8,0-1.1h0Z"/>
              <path class="st43" d="M478.9,560.2l5-2.9c.5-.3,1.3-.3,1.8,0l5,2.9c.5.3.5.8,0,1.1l-5,2.9c-.5.3-1.3.3-1.8,0l-5-2.9c-.5-.3-.5-.8,0-1.1h0Z"/>
              <path class="st43" d="M471.1,555.7l5-2.9c.5-.3,1.3-.3,1.8,0l5,2.9c.5.3.5.8,0,1.1l-5,2.9c-.5.3-1.3.3-1.8,0l-5-2.9c-.5-.3-.5-.8,0-1.1h0Z"/>
              <path class="st43" d="M521.2,593.9l5-2.9c.5-.3,1.3-.3,1.8,0l5,2.9c.5.3.5.8,0,1.1l-5,2.9c-.5.3-1.3.3-1.8,0l-5-2.9c-.5-.3-.5-.8,0-1.1h0Z"/>
              <path class="st43" d="M513.4,589.4l5-2.9c.5-.3,1.3-.3,1.8,0l5,2.9c.5.3.5.8,0,1.1l-5,2.9c-.5.3-1.3.3-1.8,0l-5-2.9c-.5-.3-.5-.8,0-1.1h0Z"/>
              <path class="st43" d="M505.6,584.9l5-2.9c.5-.3,1.3-.3,1.8,0l5,2.9c.5.3.5.8,0,1.1l-5,2.9c-.5.3-1.3.3-1.8,0l-5-2.9c-.5-.3-.5-.8,0-1.1h0Z"/>
              <path class="st43" d="M497.8,580.3l5-2.9c.5-.3,1.3-.3,1.8,0l5,2.9c.5.3.5.8,0,1.1l-5,2.9c-.5.3-1.3.3-1.8,0l-5-2.9c-.5-.3-.5-.8,0-1.1h0Z"/>
              <path class="st43" d="M490,575.8l5-2.9c.5-.3,1.3-.3,1.8,0l5,2.9c.5.3.5.8,0,1.1l-5,2.9c-.5.3-1.3.3-1.8,0l-5-2.9c-.5-.3-.5-.8,0-1.1h0Z"/>
              <path class="st43" d="M482.2,571.3l5-2.9c.5-.3,1.3-.3,1.8,0l5,2.9c.5.3.5.8,0,1.1l-5,2.9c-.5.3-1.3.3-1.8,0l-5-2.9c-.5-.3-.5-.8,0-1.1h0Z"/>
              <path class="st43" d="M474.4,566.7l5-2.9c.5-.3,1.3-.3,1.8,0l5,2.9c.5.3.5.8,0,1.1l-5,2.9c-.5.3-1.3.3-1.8,0l-5-2.9c-.5-.3-.5-.8,0-1.1h0Z"/>
              <path class="st43" d="M466.6,562.2l5-2.9c.5-.3,1.3-.3,1.8,0l5,2.9c.5.3.5.8,0,1.1l-5,2.9c-.5.3-1.3.3-1.8,0l-5-2.9c-.5-.3-.5-.8,0-1.1h0Z"/>
              <path class="st43" d="M458.8,557.6l5-2.9c.5-.3,1.3-.3,1.8,0l5,2.9c.5.3.5.8,0,1.1l-5,2.9c-.5.3-1.3.3-1.8,0l-5-2.9c-.5-.3-.5-.8,0-1.1h0Z"/>
              <path class="st43" d="M451,553.1l5-2.9c.5-.3,1.3-.3,1.8,0l5,2.9c.5.3.5.8,0,1.1l-5,2.9c-.5.3-1.3.3-1.8,0l-5-2.9c-.5-.3-.5-.8,0-1.1h0Z"/>
              <path class="st43" d="M463.3,551.1l5-2.9c.5-.3,1.3-.3,1.8,0l5,2.9c.5.3.5.8,0,1.1l-5,2.9c-.5.3-1.3.3-1.8,0l-5-2.9c-.5-.3-.5-.8,0-1.1h0Z"/>
              <path class="st43" d="M455.4,546.6l5-2.9c.5-.3,1.3-.3,1.8,0l5,2.9c.5.3.5.8,0,1.1l-5,2.9c-.5.3-1.3.3-1.8,0l-5-2.9c-.5-.3-.5-.8,0-1.1h0Z"/>
              <path class="st43" d="M517.5,619.3l5-2.9c.5-.3,1.3-.3,1.8,0l5,2.9c.5.3.5.8,0,1.1l-5,2.9c-.5.3-1.3.3-1.8,0l-5-2.9c-.5-.3-.5-.8,0-1.1h0Z"/>
              <path class="st43" d="M509.7,614.8l5-2.9c.5-.3,1.3-.3,1.8,0l5,2.9c.5.3.5.8,0,1.1l-5,2.9c-.5.3-1.3.3-1.8,0l-5-2.9c-.5-.3-.5-.8,0-1.1h0Z"/>
              <path class="st43" d="M501.9,610.2l5-2.9c.5-.3,1.3-.3,1.8,0l5,2.9c.5.3.5.8,0,1.1l-5,2.9c-.5.3-1.3.3-1.8,0l-5-2.9c-.5-.3-.5-.8,0-1.1h0Z"/>
              <path class="st43" d="M494.1,605.7l5-2.9c.5-.3,1.3-.3,1.8,0l5,2.9c.5.3.5.8,0,1.1l-5,2.9c-.5.3-1.3.3-1.8,0l-5-2.9c-.5-.3-.5-.8,0-1.1h0Z"/>
              <path class="st43" d="M529.1,598.5l5-2.9c.5-.3,1.3-.3,1.8,0l5,2.9c.5.3.5.8,0,1.1l-5,2.9c-.5.3-1.3.3-1.8,0l-5-2.9c-.5-.3-.5-.8,0-1.1h0Z"/>
              <path class="st43" d="M446.4,541.4l5-2.9c.5-.3,1.3-.3,1.8,0l6.2,3.6c.5.3.5.8,0,1.1l-5,2.9c-.5.3-1.3.3-1.8,0l-6.2-3.6c-.5-.3-.5-.8,0-1.1h0Z"/>
              <path class="st43" d="M446.2,577.9l5-2.9c.5-.3,1.3-.3,1.8,0l45,26.2c.5.3.5.8,0,1.1l-5,2.9c-.5.3-1.3.3-1.8,0l-45-26.2c-.5-.3-.5-.8,0-1.1h0Z"/>
              <path class="st43" d="M548,591.3l1.3-.8c.5-.3,1.3-.3,1.8,0l5,2.9c.5.3.5.8,0,1.1l-1.3.8c-.5.3-1.3.3-1.8,0l-5-2.9c-.5-.3-.5-.8,0-1.1h0Z"/>
              <path class="st43" d="M540.2,586.7l1.3-.8c.5-.3,1.3-.3,1.8,0l5,2.9c.5.3.5.8,0,1.1l-1.3.8c-.5.3-1.3.3-1.8,0l-5-2.9c-.5-.3-.5-.8,0-1.1h0Z"/>
              <path class="st43" d="M532.4,582.2l1.3-.8c.5-.3,1.3-.3,1.8,0l5,2.9c.5.3.5.8,0,1.1l-1.3.8c-.5.3-1.3.3-1.8,0l-5-2.9c-.5-.3-.5-.8,0-1.1h0Z"/>
              <path class="st43" d="M524.6,577.7l1.3-.8c.5-.3,1.3-.3,1.8,0l5,2.9c.5.3.5.8,0,1.1l-1.3.8c-.5.3-1.3.3-1.8,0l-5-2.9c-.5-.3-.5-.8,0-1.1h0Z"/>
              <path class="st43" d="M516.7,573.1l1.3-.8c.5-.3,1.3-.3,1.8,0l5,2.9c.5.3.5.8,0,1.1l-1.3.8c-.5.3-1.3.3-1.8,0l-5-2.9c-.5-.3-.5-.8,0-1.1h0Z"/>
              <path class="st43" d="M508.9,568.6l1.3-.8c.5-.3,1.3-.3,1.8,0l5,2.9c.5.3.5.8,0,1.1l-1.3.8c-.5.3-1.3.3-1.8,0l-5-2.9c-.5-.3-.5-.8,0-1.1h0Z"/>
              <path class="st43" d="M501.1,564l1.3-.8c.5-.3,1.3-.3,1.8,0l5,2.9c.5.3.5.8,0,1.1l-1.3.8c-.5.3-1.3.3-1.8,0l-5-2.9c-.5-.3-.5-.8,0-1.1h0Z"/>
              <path class="st43" d="M493.3,559.5l1.3-.8c.5-.3,1.3-.3,1.8,0l5,2.9c.5.3.5.8,0,1.1l-1.3.8c-.5.3-1.3.3-1.8,0l-5-2.9c-.5-.3-.5-.8,0-1.1h0Z"/>
              <path class="st43" d="M485.5,555l1.3-.8c.5-.3,1.3-.3,1.8,0l5,2.9c.5.3.5.8,0,1.1l-1.3.8c-.5.3-1.3.3-1.8,0l-5-2.9c-.5-.3-.5-.8,0-1.1h0Z"/>
              <path class="st43" d="M477.7,550.4l1.3-.8c.5-.3,1.3-.3,1.8,0l5,2.9c.5.3.5.8,0,1.1l-1.3.8c-.5.3-1.3.3-1.8,0l-5-2.9c-.5-.3-.5-.8,0-1.1h0Z"/>
              <path class="st43" d="M469.9,545.9l1.3-.8c.5-.3,1.3-.3,1.8,0l5,2.9c.5.3.5.8,0,1.1l-1.3.8c-.5.3-1.3.3-1.8,0l-5-2.9c-.5-.3-.5-.8,0-1.1h0Z"/>
              <path class="st43" d="M462.1,541.4l1.3-.8c.5-.3,1.3-.3,1.8,0l5,2.9c.5.3.5.8,0,1.1l-1.3.8c-.5.3-1.3.3-1.8,0l-5-2.9c-.5-.3-.5-.8,0-1.1h0Z"/>
              <path class="st43" d="M454.3,536.8l1.3-.8c.5-.3,1.3-.3,1.8,0l5,2.9c.5.3.5.8,0,1.1l-1.3.8c-.5.3-1.3.3-1.8,0l-5-2.9c-.5-.3-.5-.8,0-1.1h0Z"/>
              <path class="st43" d="M555.8,595.8l1.3-.8c.5-.3,1.3-.3,1.8,0l6.2,3.6c.5.3.5.8,0,1.1l-1.3.8c-.5.3-1.3.3-1.8,0l-6.2-3.6c-.5-.3-.5-.8,0-1.1h0Z"/>
              <path class="st43" d="M536.8,603l5-2.9c.5-.3,1.3-.3,1.8,0l9.4,5.5c.5.3.5.8,0,1.1l-5,2.9c-.5.3-1.3.3-1.8,0l-9.4-5.5c-.5-.3-.5-.8,0-1.1h0Z"/>
              <path class="st43" d="M525,605.3l5-2.9c.5-.3,1.3-.3,1.8,0l13.3,7.7c.5.3.5.8,0,1.1l-5,2.9c-.5.3-1.3.3-1.8,0l-13.3-7.7c-.5-.3-.5-.8,0-1.1h0Z"/>
              <path class="st43" d="M517,609.9l5-2.9c.5-.3,1.3-.3,1.8,0l13.3,7.7c.5.3.5.8,0,1.1l-5,2.9c-.5.3-1.3.3-1.8,0l-13.3-7.7c-.5-.3-.5-.8,0-1.1h0Z"/>
              <path class="st43" d="M438.5,545.9l5-2.9c.5-.3,1.3-.3,1.8,0l9.6,5.6c.5.3.5.8,0,1.1l-5,2.9c-.5.3-1.3.3-1.8,0l-9.6-5.6c-.5-.3-.5-.8,0-1.1h0Z"/>
              <path class="st43" d="M430.6,550.5l5-2.9c.5-.3,1.3-.3,1.8,0l13.5,7.8c.5.3.5.8,0,1.1l-5,2.9c-.5.3-1.3.3-1.8,0l-13.5-7.8c-.5-.3-.5-.8,0-1.1h0Z"/>
              <path class="st43" d="M426.5,562.2l1.4-.8c.5-.3,1.3-.3,1.8,0l5,2.9c.5.3.5.8,0,1.1l-1.4.8c-.5.3-1.3.3-1.8,0l-5-2.9c-.5-.3-.5-.8,0-1.1h0Z"/>
              <path class="st43" d="M422.8,564.3l1.3-.8c.5-.3,1.3-.3,1.8,0l5,2.9c.5.3.5.8,0,1.1l-1.3.8c-.5.3-1.3.3-1.8,0l-5-2.9c-.5-.3-.5-.8,0-1.1h0Z"/>
              <path class="st43" d="M454.7,564.5l5-2.9c.5-.3,1.3-.3,1.8,0l5,2.9c.5.3.5.8,0,1.1l-5,2.9c-.5.3-1.3.3-1.8,0l-5-2.9c-.5-.3-.5-.8,0-1.1h0Z"/>
              <path class="st43" d="M446.9,560l5-2.9c.5-.3,1.3-.3,1.8,0l5,2.9c.5.3.5.8,0,1.1l-5,2.9c-.5.3-1.3.3-1.8,0l-5-2.9c-.5-.3-.5-.8,0-1.1h0Z"/>
              <path class="st43" d="M446.8,569.1l5-2.9c.5-.3,1.3-.3,1.8,0l5,2.9c.5.3.5.8,0,1.1l-5,2.9c-.5.3-1.3.3-1.8,0l-5-2.9c-.5-.3-.5-.8,0-1.1h0Z"/>
              <path class="st43" d="M439,564.6l5-2.9c.5-.3,1.3-.3,1.8,0l5,2.9c.5.3.5.8,0,1.1l-5,2.9c-.5.3-1.3.3-1.8,0l-5-2.9c-.5-.3-.5-.8,0-1.1h0Z"/>
              <path class="st43" d="M431.2,560l5-2.9c.5-.3,1.3-.3,1.8,0l5,2.9c.5.3.5.8,0,1.1l-5,2.9c-.5.3-1.3.3-1.8,0l-5-2.9c-.5-.3-.5-.8,0-1.1h0Z"/>
              <path class="st43" d="M422.6,555.1l5-2.9c.5-.3,1.3-.3,1.8,0l5.7,3.3c.5.3.5.8,0,1.1l-5,2.9c-.5.3-1.3.3-1.8,0l-5.7-3.3c-.5-.3-.5-.8,0-1.1h0Z"/>
              <path class="st43" d="M470.3,573.6l5-2.9c.5-.3,1.3-.3,1.8,0l5,2.9c.5.3.5.8,0,1.1l-5,2.9c-.5.3-1.3.3-1.8,0l-5-2.9c-.5-.3-.5-.8,0-1.1h0Z"/>
              <path class="st43" d="M462.5,569l5-2.9c.5-.3,1.3-.3,1.8,0l5,2.9c.5.3.5.8,0,1.1l-5,2.9c-.5.3-1.3.3-1.8,0l-5-2.9c-.5-.3-.5-.8,0-1.1h0Z"/>
              <path class="st43" d="M462.4,578.2l5-2.9c.5-.3,1.3-.3,1.8,0l5,2.9c.5.3.5.8,0,1.1l-5,2.9c-.5.3-1.3.3-1.8,0l-5-2.9c-.5-.3-.5-.8,0-1.1h0Z"/>
              <path class="st43" d="M454.6,573.6l5-2.9c.5-.3,1.3-.3,1.8,0l5,2.9c.5.3.5.8,0,1.1l-5,2.9c-.5.3-1.3.3-1.8,0l-5-2.9c-.5-.3-.5-.8,0-1.1h0Z"/>
              <path class="st43" d="M486,582.7l5-2.9c.5-.3,1.3-.3,1.8,0l5,2.9c.5.3.5.8,0,1.1l-5,2.9c-.5.3-1.3.3-1.8,0l-5-2.9c-.5-.3-.5-.8,0-1.1h0Z"/>
              <path class="st43" d="M478.2,578.1l5-2.9c.5-.3,1.3-.3,1.8,0l5,2.9c.5.3.5.8,0,1.1l-5,2.9c-.5.3-1.3.3-1.8,0l-5-2.9c-.5-.3-.5-.8,0-1.1h0Z"/>
              <path class="st43" d="M478,587.3l5-2.9c.5-.3,1.3-.3,1.8,0l5,2.9c.5.3.5.8,0,1.1l-5,2.9c-.5.3-1.3.3-1.8,0l-5-2.9c-.5-.3-.5-.8,0-1.1h0Z"/>
              <path class="st43" d="M470.2,582.7l5-2.9c.5-.3,1.3-.3,1.8,0l5,2.9c.5.3.5.8,0,1.1l-5,2.9c-.5.3-1.3.3-1.8,0l-5-2.9c-.5-.3-.5-.8,0-1.1h0Z"/>
              <path class="st43" d="M501.6,591.7l5-2.9c.5-.3,1.3-.3,1.8,0l5,2.9c.5.3.5.8,0,1.1l-5,2.9c-.5.3-1.3.3-1.8,0l-5-2.9c-.5-.3-.5-.8,0-1.1h0Z"/>
              <path class="st43" d="M493.8,587.2l5-2.9c.5-.3,1.3-.3,1.8,0l5,2.9c.5.3.5.8,0,1.1l-5,2.9c-.5.3-1.3.3-1.8,0l-5-2.9c-.5-.3-.5-.8,0-1.1h0Z"/>
              <path class="st43" d="M493.6,596.3l5-2.9c.5-.3,1.3-.3,1.8,0l5,2.9c.5.3.5.8,0,1.1l-5,2.9c-.5.3-1.3.3-1.8,0l-5-2.9c-.5-.3-.5-.8,0-1.1h0Z"/>
              <path class="st43" d="M485.8,591.8l5-2.9c.5-.3,1.3-.3,1.8,0l5,2.9c.5.3.5.8,0,1.1l-5,2.9c-.5.3-1.3.3-1.8,0l-5-2.9c-.5-.3-.5-.8,0-1.1h0Z"/>
              <path class="st43" d="M517.2,600.8l5-2.9c.5-.3,1.3-.3,1.8,0l5,2.9c.5.3.5.8,0,1.1l-5,2.9c-.5.3-1.3.3-1.8,0l-5-2.9c-.5-.3-.5-.8,0-1.1h0Z"/>
              <path class="st43" d="M509.4,596.3l5-2.9c.5-.3,1.3-.3,1.8,0l5,2.9c.5.3.5.8,0,1.1l-5,2.9c-.5.3-1.3.3-1.8,0l-5-2.9c-.5-.3-.5-.8,0-1.1h0Z"/>
              <path class="st43" d="M509.2,605.4l5-2.9c.5-.3,1.3-.3,1.8,0l5,2.9c.5.3.5.8,0,1.1l-5,2.9c-.5.3-1.3.3-1.8,0l-5-2.9c-.5-.3-.5-.8,0-1.1h0Z"/>
              <path class="st43" d="M501.4,600.9l5-2.9c.5-.3,1.3-.3,1.8,0l5,2.9c.5.3.5.8,0,1.1l-5,2.9c-.5.3-1.3.3-1.8,0l-5-2.9c-.5-.3-.5-.8,0-1.1h0Z"/>
              <path class="st43" d="M438.4,573.3l5-2.9c.5-.3,1.3-.3,1.8,0l5,2.9c.5.3.5.8,0,1.1l-5,2.9c-.5.3-1.3.3-1.8,0l-5-2.9c-.5-.3-.5-.8,0-1.1h0Z"/>
              <path class="st43" d="M430.6,568.8l5-2.9c.5-.3,1.3-.3,1.8,0l5,2.9c.5.3.5.8,0,1.1l-5,2.9c-.5.3-1.3.3-1.8,0l-5-2.9c-.5-.3-.5-.8,0-1.1h0Z"/>
              <path class="st43" d="M414.8,559.6l5-2.9c.5-.3,1.3-.3,1.8,0l5,2.9c.5.3.5.8,0,1.1l-5,2.9c-.5.3-1.3.3-1.8,0l-5-2.9c-.5-.3-.5-.8,0-1.1h0Z"/>
            </g>
          </g>
          <g>
            <path class="st85" d="M259.4,814.4c49.6-28.6,130.2-28.5,180.1.3,49.9,28.8,50.1,75.3.6,104-49.6,28.6-130.2,28.5-180.1-.3-49.9-28.8-50.1-75.3-.6-104Z"/>
            <g>
              <path class="st62" d="M414.4,809.6c.5,5.8,0,5.8,0,5.8,0,0-.3,5.5,3.9,7.4,4.2,1.8,12.6,3.7,17.9-1.3,5.3-5,5.8-8.4,13.9-13.9,8.1-5.5,4.5-19.4,3.2-22.9-1.3-3.4-20.2,1.1-21.8,2.4-1.6,1.3-18,12.5-17.1,22.6Z"/>
              <path class="st18" d="M414.4,806.8c.5,5.8,0,5.8,0,5.8,0,0-.3,5.5,3.9,7.4,4.2,1.8,12.6,3.7,17.9-1.3,5.3-5,5.8-8.4,13.9-13.9,8.1-5.5,4.5-19.4,3.2-22.9-1.3-3.4-20.2,1.1-21.8,2.4-1.6,1.3-18,12.5-17.1,22.6Z"/>
              <path class="st38" d="M409.6,805.1c18.4,13.8,36.5-5.3,36.5-5.3l-21.1-146.9-36.6,5.3,21.1,146.9Z"/>
              <path class="st86" d="M477.4,821.6l18.3,10.6s19.7,7.9,22.9,11.2c3.3,3.3,3.3,7.8-.5,10.8-3.8,3-19.2,4.6-37.9,1.3-18.8-3.3-28.4-.6-34.2-5.4-5.8-4.8-.7-17.1-.7-17.1,0,0-.9-4,4.6-8.2,5.5-4.2,27.5-3.1,27.5-3.1Z"/>
              <path class="st104" d="M477.4,817.4l18.3,10.6s19.7,7.9,22.9,11.2c3.3,3.3,3.3,7.8-.5,10.8-3.8,3-19.2,4.6-37.9,1.3-18.8-3.3-28.4-.6-34.2-5.4-5.8-4.8-.7-17.1-.7-17.1,0,0-.9-4,4.6-8.2,5.5-4.2,27.5-3.1,27.5-3.1Z"/>
              <path class="st74" d="M447.7,825.8c19.4,10.8,36.7-3.5,36.7-3.5l-11.6-120-36.7,3.5,11.6,120Z"/>
            </g>
            <g>
              <g>
                <g>
                  <path class="st78" d="M293,796.7c-1.5-.9-3-1-4.2-.4h0s-5.3,2.4-5.3,2.4l6.3,17.2,5.8-2.6h0c1.4-.7,2.4-2.4,2.6-4.8.4-4.4-1.9-9.7-5.3-11.8Z"/>
                  <path class="st111" d="M287.7,799.1c-3.3-2.1-6.4-.1-6.8,4.3-.4,4.4,1.9,9.7,5.3,11.8,3.3,2.1,6.4.1,6.8-4.3.4-4.4-1.9-9.7-5.3-11.8Z"/>
                </g>
                <g>
                  <path class="st78" d="M453,896.3c0-4.4-3.1-9.7-6.9-11.9-1.9-1.1-3.7-1.2-4.9-.5h0s-6.3,4-6.3,4l10.2,16.6,5.9-3.8h0c1.3-.7,2-2.2,2-4.4Z"/>
                  <path class="st111" d="M446.9,900.2c0,4.4-3.1,6.1-6.9,3.9-3.8-2.2-6.9-7.5-6.9-11.9s3.1-6.1,6.9-3.9c3.8,2.2,6.9,7.5,6.9,11.9Z"/>
                </g>
                <g>
                  <path class="st78" d="M245.6,872.8c0-4.4-3.6-8-8-8s-7.7,3.3-7.9,7.5h0s0,.3,0,.3c0,0,0,.1,0,.2s0,.1,0,.2v4.2h1.3c1.4,2.2,3.9,3.6,6.7,3.6s5.2-1.4,6.7-3.6h1.3v-4.4Z"/>
                  <path class="st111" d="M245.6,877.2c0,4.4-3.6,8-8,8s-8-3.6-8-8,3.6-8,8-8,8,3.6,8,8Z"/>
                </g>
                <g>
                  <path class="st78" d="M429.7,803.5s0,0,0,0h0s0,0,0,0c-1.2-.7-3-.6-4.9.5-3.8,2.2-6.9,7.5-6.9,11.9s.7,3.5,1.8,4.3h0s5.6,3.9,5.6,3.9l9.8-16.9-5.4-3.8Z"/>
                  <path class="st111" d="M437.2,811.7c0,4.4-3.1,9.7-6.9,11.9-3.8,2.2-6.9.4-6.9-3.9s3.1-9.7,6.9-11.9c3.8-2.2,6.9-.4,6.9,3.9Z"/>
                </g>
                <g>
                  <path class="st78" d="M321.4,913.7h0c-.2-.1-.5.2-.8,1.1-.8,2.4-1.5,7.9-1.5,12.3,0,3,.3,4.7.8,4.6h0s8.9,1.1,8.9,1.1l1.6-18.1-9-1Z"/>
                  <path class="st111" d="M329.7,915.8c-.8,2.4-1.5,7.9-1.5,12.3,0,4.4.6,6,1.5,3.5.8-2.4,1.5-7.9,1.5-12.3,0-4.4-.6-6-1.5-3.5Z"/>
                </g>
                <g>
                  <path class="st0" d="M363.3,837.8c-8.2,4.8-21.6,4.7-29.9,0-8.3-4.8-8.3-12.5,0-17.3,8.2-4.8,21.6-4.7,29.9,0,8.3,4.8,8.3,12.5,0,17.3Z"/>
                  <polygon class="st0" points="340.4 822.5 326.7 868 326.4 868.8 326.4 869 321.2 918.4 327.3 919.3 337.8 870.9 337.5 871.9 356.1 828.2 340.4 822.5"/>
                  <polygon class="st0" points="347.3 817.3 270.6 831.6 269.6 831.8 269 832.3 231.8 864.2 235.8 868.9 272.9 836.9 271.3 837.7 349.3 833.3 347.3 817.3"/>
                  <polygon class="st0" points="353.2 819.9 307.8 784.4 306.2 783.1 304.5 783.8 284.1 792.7 286.5 798.3 307 789.5 303.7 788.9 343.3 830.7 353.2 819.9"/>
                  <polygon class="st0" points="353.6 834.4 405.5 795.7 402.8 795.9 429.6 807.8 432 802.2 405.3 790.3 404.1 789.8 402.5 790.4 343 816.2 353.6 834.4"/>
                  <polygon class="st0" points="345.1 834 414.2 852.7 412.9 851.8 445.1 891 449.8 887.1 417.6 847.9 417.2 847.4 416.3 847 351.5 816.6 345.1 834"/>
                  <path class="st115" d="M363.3,830.1c-8.2,4.8-21.6,4.7-29.9,0-8.3-4.8-8.3-12.5,0-17.3,8.2-4.8,21.6-4.7,29.9,0,8.3,4.8,8.3,12.5,0,17.3Z"/>
                </g>
                <g>
                  <g>
                    <path class="st78" d="M362,819.6h0v-23.3h-3.1c-.3-.2-.6-.4-.9-.6-5.4-3.1-14.1-3.1-19.4,0-.4.2-.7.4-1,.6h-3v23.3h0c0,2,1.4,4,4.1,5.6,5.4,3.1,14.1,3.1,19.4,0,2.7-1.6,4-3.6,4-5.6Z"/>
                    <path class="st111" d="M358,802c-5.3,3.1-14,3.1-19.4,0-5.4-3.1-5.4-8.1,0-11.2,5.3-3.1,14-3.1,19.4,0,5.4,3.1,5.4,8.1,0,11.2Z"/>
                  </g>
                  <g>
                    <path class="st0" d="M359.9,794.6h0v-34.2h-2.6c-.2-.2-.5-.3-.8-.5-4.5-2.6-11.9-2.6-16.4,0-.3.2-.6.3-.8.5h-2.5v34.2h0c0,1.7,1.2,3.4,3.4,4.7,4.5,2.6,11.9,2.6,16.4,0,2.3-1.3,3.4-3,3.4-4.7Z"/>
                    <path class="st115" d="M356.5,765.1c-4.5,2.6-11.8,2.6-16.4,0-4.5-2.6-4.6-6.8,0-9.5,4.5-2.6,11.8-2.6,16.4,0,4.5,2.6,4.6,6.8,0,9.5Z"/>
                  </g>
                </g>
              </g>
              <path class="st110" d="M219.6,766.1l70.1,39.4,22,12.4s4.9,4.6,21.5,2.5c16.6-2.1,70.1-21,78.7-25.7,3.7-2,17.2-8.8,19.4-10.6,0,0,0,0,0,0,1.5-1.3,2.7-2.7,3.6-4.5.7-1.5,1.3-3.2,1.6-5.4,1.4-8.3,0-22.6,0-22.6,0-2.9-1.9-5.7-5.5-7.8l-1.9-1.1h0l-83.9-48.4c-2.4-1.3-5.2-2.3-8.3-2.7-3.2-.5-6.6-.6-10-.2-4.8.6-9.5,2-13.4,4.2l-82.9,46.9c-2.9,1.6-4.3,3.8-4.2,5.8,0,0,0,0,0,0-.3,2.6-3.4,5.1-3.4,5.1l-3.3,12.5Z"/>
              <path class="st74" d="M287.9,694.6s-7.3,10.8-1.6,32.5c5.8,21.7,25.6,37.3,46.2,45.7,20.7,8.4,42.3,2.3,53.9-4.2,11.6-6.5,76.5-44.1,84.2-56.3,7.7-12.2-2-31.3-17.7-30.1-15.7,1.2-91.3,24.3-91.3,24.3l-73.9-12Z"/>
              <path class="st38" d="M333.6,675.6s62.7-28.3,74.6-31.3c11.9-3,18.6,8.8,19.2,18.1.5,9.3-10.9,25.4-14.1,27.7-3.2,2.3-56.8,21-56.8,21l-22.8-35.4Z"/>
              <path class="st47" d="M289.8,805.6l22,12.4s4.9,4.6,21.5,2.5c16.6-2.1,70.1-21,78.7-25.7,3.7-2,17.2-8.8,19.4-10.6,0,0,0,0,0,0,1.5-1.3,2.7-2.7,3.6-4.5.7-1.5,1.3-3.2,1.6-5.4,1.4-8.3,0-22.6,0-22.6-.8,6.7-83.8,37.5-99.8,39.1-16.1,1.6-30.4-21.5-30.4-21.5,0,0-16.5,16-16.6,36.1Z"/>
              <g>
                <path class="st0" d="M241.3,743.2c.2-2.1,5.7-50.4,6.1-60.4,1.6-5.4,34.8-21.6,64.7-33.6l-2.5-6.1c-25.5,10.2-68.4,28.9-68.8,39.4-.4,9.8-6,59.5-6.1,60l6.6.7Z"/>
                <g>
                  <path class="st27" d="M316,629.9s-3.5,1.1-9.2,2.8c-2.9-.3-5.9,0-7.9,1.3l-9,4.1c-26.4,8.4-63.6,20.8-63.9,23.6-.5,3.6-.1,7.2,0,8.2,0,0,0,.1,0,.2,0,0,0,.2,0,.2h0c.3,1.4,1.4,2.7,3.3,3.9,4.1,2.4,10.4,2.6,13.9.6l70.5-32.1c1.1-.6,1.8-1.4,2.1-2.2.1-.2.2-.5.3-.7,1.5-6.6-.2-9.7-.2-9.7Z"/>
                  <path class="st111" d="M228.3,657.9l70.5-32.1c3.5-2,9.8-1.8,13.9.6h0c4.1,2.4,4.5,6,1,8l-70.5,32.1c-3.5,2-9.8,1.8-13.9-.6-4.1-2.4-4.5-6-1-8Z"/>
                </g>
              </g>
            </g>
            <g>
              <path class="st8" d="M263.7,589.5c7.5,26.8,9,68.9,9,68.9,0,24.1,2.5,41.8,4.5,47.7,2,5.9,10.1,11.3,20.8,18.5,10.7,7.1,24.3,12.6,45.5,11.8,14.7-.6,25.7-6.6,33.1-13.5h0c3.4-3.2,6-6.5,8-9.6,6.3-10,2.1-52.6,6.2-66.8,1.6-5.6,2.8-15.4,3.3-25.6.9-15.7.4-32.3-1.5-35.3-3.1-5-21-22.3-32.1-31.3-11-9-42.7-22.8-51.9-24.1-9.3-1.3-27-11.7-40.3,0-13.3,11.7-12,32.4-4.4,59.2Z"/>
              <path class="st5" d="M376.7,722.9c3.4-3.1,6-6.4,8-9.5,6.3-10,2.1-52.6,6.2-66.8,1.6-5.6,2.8-15.4,3.3-25.6l-28.6-15.7s3.2,33.5,12.5,48c7.4,11.6,1.4,53.2-1.4,69.6Z"/>
              <path class="st112" d="M352.2,541.7l4.2-8.6s8.8,1.9,12,1.8c3.2-.1,10.6-12.1,14.1-27.5,3.5-15.3.8-24,2.2-28.4,1.4-4.5,2.7-19.7-2-23.8-4.7-4.1-70.2,2.2-69.3,17.2.9,15,13.2,34.9,10.8,41.7-2.3,6.9-8.4,14.3-8.4,14.3,0,0,11.6,14.5,36.5,13.4Z"/>
              <path class="st34" d="M463,583.1c-2.4,1.2-13.3,1.9-13.3,1.9,0,0-6.7.7-7.6.9-.9.2-4.9,2.7-4.6,5.2.2,1.1,1.3,1.7,2.6,2,.8.2,1.6.3,2.2.4.9,0,1.5,0,1.5,0l1.2.4h0l5.6,1.8s.1,7.1-2.5,6.3c-2.6-.8-5.3-2.1-5.9-2.2-.2,0-1.3-.1-2.9-.3h0c-3.8-.3-9.8-.8-9.8-.8l-9.3-4.1s-10.1.6-11.3,1.3c-1.1.7-27,11.8-27,11.8,0,0-.4-.3-1-.7-4.4-3.2-20.4-16.3,4.2-21.1,28.1-5.5,43.4-5.9,44.5-6.4,1.1-.5,16.5-6.7,16.5-6.7,0,0,8.7-4.7,10-5.1.7-.2,1.3,0,1.8.3.4.3.6.8.4,1.5-.5,1.3-7.3,6.4-7.3,6.4l-4,2.5,2.3.2h0l13,1s.9.7,1.4,1.5h0s0,0,0,.1h0c.3.7.2,1.3-.8,1.8Z"/>
              <path class="st118" d="M386.7,473.4s-9.9,8.8-10.3,12.9c-.4,4.1,1.3,11.6-7.7,2.5-9-9-7.2,24.9-17.6,28.6-10.4,3.7-24.7-2.3-26.7-4.5-2.1-2.3-18.3-17.7-15.8-46.2,1.3-14.4,22.8-27.7,37-30.1,14.1-2.4,40.1,7.9,41.9,20.7,1.8,12.8-.8,16.2-.8,16.2Z"/>
              <path class="st1" d="M370.9,488.7s-7.1-2.2-7,9.1c.1,11.3,3.1,12.3,5.5,12.2,2.4,0,2.3-2.7,2.3-2.7,0,0-1.5-5,0-8.5s3.4-8.5-.8-10Z"/>
              <path class="st29" d="M325.2,531.4s9.4,4.7,19.4,7.2c10,2.5,8.3,1.3,8.3,1.3l8.8,9.5,7.6,13.6s-7.9-4-16-7.3c-8.1-3.3-18.1-4.2-29.2-9.9-11.1-5.7-15.6-10.1-15.6-12.8v-2.7s7.4-7.5,8-7.7c.7-.3,2.7.9,2.7.9,0,0-1.4,3.8,6,7.9Z"/>
              <path class="st29" d="M375.3,583.1s17.4-11.7,32.8,23c22.2,50,25.6,54.6,29.8,64.7,4.3,10.1-2.9,15.7-10,17.4-7.1,1.7-27-20.1-39.9-40.9-12.8-20.8-37.2-50.5-12.8-64.2Z"/>
            </g>
            <g>
              <path class="st47" d="M180.1,587.8l28.2,107.2s3.1,58.7,7.1,66.3c3.3,6.3,64.4,39.6,86.2,51.3,2.6,2,5.1,3.5,7.5,4,0,0,0,0,0,0,0,0,0,0,0,0,1.7.4,3.4.4,4.9-.3.5-.2.9-.4,1.4-.7,12.7-7.7,18.1-17.3,20.1-22,.6-.7.9-1.6,1-2.9l-.2-39.3c0-16.6-27.6-85.3-27.6-85.3l1.5-38.3c.6-8.8-4-19-10.3-22.6l-79.1-44.4c-.5-.3-1.1-.5-1.6-.6-.5-.2-.9-.4-1-.5-1.2-.4-2.5-.5-3.8-.5-11.2,0-25.1,11.5-25.1,11.5-3.7,3-7.1,7.8-9,15.4-.1.4-.2.9-.3,1.4Z"/>
              <path class="st27" d="M180.1,587.8l28.2,107.2s3.1,58.7,7.1,66.3c3.3,6.3,64.4,39.6,86.2,51.3,2.6,2,5.1,3.5,7.5,4,0,0,0,0,0,0,0,0,0,0,0,0,1.7.4,3.4.4,4.9-.3,1.7-9.5,1.3-33.4,0-47.5-1.5-14.3-12.8-53.1-24.6-83.6-11.7-30.5-8.4-43.5-15.1-51.9-6.7-8.4-64.1-36.6-79.1-45.6-11.1-6.6-14.1-3.5-15-1.4-.3.7-.3,1.4-.3,1.4Z"/>
              <g>
                <path class="st0" d="M347.1,796.5c1-.6,1.6-1.3,1.8-2.8.2-1.4.3-2.8.5-4.2.4-3.6.8-7.2,1.2-10.7,1.5-13.5,3.3-27,3.9-40.6.5-1.8,2.8-3.2,4.2-4.2,7.7-5.5,16.5-9.7,25-13.8,5.7-2.8,11.5-5.4,17.3-7.9,3-1.3,6-2.6,9.1-3.9,2.6-1.1,6-1.7,6.9-4.8.3-.9.3-2,.2-2.9,0-.6-.1-1.7-.8-1.9-.4-.1-1.3.4-1.7.6-1.2.5-2.3,1-3.5,1.4-9.3,3.8-18.6,7.8-27.7,12.1-8.4,4-16.9,8.2-24.7,13.4-2.8,1.8-5.5,3.8-7.8,6.2-1.4,1.4-3,3.3-3.1,5.4-.3,7.3-1.2,14.6-2,21.8-.8,7.5-1.6,14.9-2.4,22.4-.3,3-.7,6-1,9-.2,1.6-1.1,3.7,0,5.1,1.2,1.3,3.1,1,4.5.2Z"/>
                <g>
                  <path class="st27" d="M423,685.3s-3.5,1.1-9.2,2.8c-2.9-.3-5.9,0-7.9,1.3l-9,4.1c-26.4,8.4-63.6,20.8-63.9,23.6-.5,3.6-.1,7.2,0,8.2,0,0,0,.1,0,.2,0,0,0,.2,0,.2h0c.3,1.4,1.4,2.7,3.3,3.9,4.1,2.4,10.4,2.6,13.9.6l70.5-32.1c1.1-.6,1.8-1.4,2.1-2.2.1-.2.2-.5.3-.7,1.5-6.6-.2-9.7-.2-9.7Z"/>
                  <path class="st111" d="M335.4,713.4l70.5-32.1c3.5-2,9.8-1.8,13.9.6h0c4.1,2.4,4.5,6,1,8l-70.5,32.1c-3.5,2-9.8,1.8-13.9-.6-4.1-2.4-4.5-6-1-8Z"/>
                </g>
              </g>
            </g>
            <path class="st90" d="M451.2,609.3c7.6-11.6,18.2-19.3,18.2-19.3l8.1-1.6,3.1,1.3,4.8-1.9,10,1.2s1.7,1.8.5,3.1c-1.2,1.3-5.9,1.4-5.9,1.4l-5.4,2.3,7.9-.5,5.1,2.8s.5,3.5,0,4.7c-.5,1.2-2.3,2.1-2.3,2.1l-.8.2s.6,3.1-.4,4.5c-1,1.4-2.4,1.4-2.4,1.4l-1-2-2.8-.7-4.4,1.4s-3,2.4-6.6,4c-5.5,2.3-7.4,2-7.4,2,0,0-25.9,5.3-18.3-6.3Z"/>
            <path class="st29" d="M423.9,649.3s21.2-40.7,27.8-42.1c9.3-1.9,14.2,6.2,13,12.4-1.3,6.2-21.6,62.8-31.9,66.6-19.1,6.9-19.1-15.4-19.1-15.4,0,0,1.2-4.4,10.3-21.5Z"/>
          </g>
        </g>
        <g>
          <g class="st54">
            <polygon class="st80" points="681.3 410.6 424.5 262.3 679.6 115 936.4 263.3 681.3 410.6"/>
            <polygon class="st89" points="681.3 436.5 424.4 288.2 424.5 262.3 681.3 410.6 681.3 436.5"/>
            <polygon class="st102" points="681.3 436.5 936.5 289.2 936.4 263.3 681.3 410.6 681.3 436.5"/>
          </g>
          <g>
            <g class="st63">
              <polygon class="st19" points="560.6 193.3 589.7 176.4 583.7 188.2 554.6 205.1 560.6 193.3"/>
              <path class="st29" d="M591.5,178.9c-9.7,5.6-19.4,11.3-29.1,16.9-.6-.8-1.2-1.6-1.8-2.5l29.1-16.9c.6.8,1.2,1.6,1.8,2.5Z"/>
              <path class="st19" d="M554.6,205.1l29.1-16.9c7.2,10.4,19.6,21.6,31.8,28.7l-29.1,16.9c-12.2-7.1-24.7-18.3-31.8-28.7Z"/>
              <path class="st29" d="M615.7,200.7c7.5,4.3,11.5,4.7,13.5,3.5l-29.1,16.9c-2,1.2-6,.8-13.5-3.5-8.3-4.8-17.3-13-24.1-21.8,9.7-5.6,19.4-11.3,29.1-16.9,6.8,8.9,15.8,17.1,24.1,21.8Z"/>
              <path class="st76" d="M628.8,203.5l-28.9,17.7c-2.3,1.4-6.8.2-13.1-3.4-9.1-5.2-19.2-14.7-26.1-24.5l29.1-16.9c6.9,9.8,16.9,18.4,26,23.6,6.3,3.7,10.8,4.8,13.1,3.4Z"/>
              <path class="st19" d="M642.7,222.1l-29.1,16.9c-5.7,3.3-15.2,1.7-27.2-5.2l29.1-16.9c12,6.9,21.4,8.5,27.2,5.2Z"/>
              <path class="st19" d="M562.6,136.7l29.1-16.9c-4.4,2.6-6.3,8-6.3,14.2,0,19.5,15.8,32.9,28.5,43.6,9.3,7.9,17.4,14.7,17.4,22,0,1.7-.4,3.6-2.1,4.6l-29.1,16.9c1.6-1,2.1-2.9,2.1-4.6,0-7.3-8-14.1-17.4-22-12.7-10.7-28.5-24.1-28.5-43.6,0-6.3,1.9-11.7,6.3-14.2Z"/>
              <path class="st29" d="M615.3,160.7c-9.7,5.6-19.4,11.3-29.1,16.9-4.9-4.2-8.9-8.2-11-12.2,9.7-5.6,19.4-11.3,29.1-16.9,2,4,6.1,8,11,12.2Z"/>
              <polygon class="st42" points="617.7 250.3 646.8 233.4 664.9 243.9 635.8 260.8 617.7 250.3"/>
              <path class="st29" d="M603,143.1c0,1.8.5,3.6,1.4,5.4-9.7,5.6-19.4,11.3-29.1,16.9-.9-1.8-1.4-3.5-1.4-5.4,0-2.5.8-4.2,2.2-5l29.1-16.9c-1.4.8-2.2,2.5-2.2,5Z"/>
              <path class="st29" d="M623.8,167.9c-9.7,5.6-19.4,11.3-29.1,16.9-1.2-1-2.4-2-3.5-3-1.7-1.4-3.4-2.9-5-4.2,9.7-5.6,19.4-11.3,29.1-16.9,1.6,1.4,3.3,2.8,5,4.2,1.2,1,2.3,2,3.5,3Z"/>
              <path class="st50" d="M575.7,155.2l29.3-16.1c-1.3.8-2.1,2.3-2.1,4.6,0,6.7,7.8,13.3,16.9,20.9l-29.1,16.9c-9.1-7.6-16.9-14.2-16.9-20.9-.1-3.1.7-4.4,1.8-5.4Z"/>
              <path class="st29" d="M623.8,167.9c5.4,4.6,11,9.7,15.5,15.5-9.7,5.6-19.4,11.3-29.1,16.9-4.5-5.8-10.2-10.9-15.5-15.5,9.7-5.6,19.4-11.3,29.1-16.9Z"/>
              <path class="st29" d="M648.8,208.3c0,6.9-2.2,11.5-6.2,13.8l-29.1,16.9c4-2.3,6.1-6.9,6.2-13.8,0-9.6-3.9-17.8-9.5-24.9,9.7-5.6,19.4-11.3,29.1-16.9,5.5,7.1,9.5,15.2,9.5,24.9Z"/>
              <path class="st56" d="M642.9,222.9l-29.3,16.1c4.6-2.7,6.1-8,6.1-14.2,0-7.3-2.4-13.6-5.8-19.3-5.8-9.6-14.9-17.2-23.1-24l29.6-17.2c12.9,10.9,29,24.4,29,44.2,0,6.1-2,11.6-6.5,14.3Z"/>
              <path class="st29" d="M591.7,119.8c5.1-3,13.7-2.2,26.8,5.3l-29.1,16.9c-13.1-7.5-21.6-8.3-26.8-5.3,8.7-5.1,20.4-11.8,29.1-16.9Z"/>
              <path class="st19" d="M576.1,155l29.1-16.9c2.5-1.4,7-.4,13.1,3.1,7.2,4.1,14.7,10.9,21.8,19.6l-29.1,16.9c-7.1-8.7-14.6-15.4-21.8-19.6-6.2-3.6-10.7-4.6-13.1-3.1Z"/>
              <polygon class="st29" points="616.5 165.5 645.5 148.6 640.1 160.8 611 177.7 616.5 165.5"/>
              <path class="st36" d="M589.4,142c10.2,5.9,20.1,14.5,27.1,23.5l-5.5,12.2c-7.1-8.7-14.6-15.4-21.8-19.6-9.7-5.6-15.3-4.9-15.4,1.9,0,7.2,8,14,17.4,21.8,12.7,10.7,28.6,24,28.5,43.3,0,16.9-13.1,20.3-33.3,8.6-12.2-7.1-24.7-18.3-31.8-28.7l6-11.8c7,9.8,16.9,19.1,26,24.3,13.5,7.8,15.6,2.7,15.6-1.1,0-7.3-8-14.1-17.4-22-12.7-10.7-28.5-24.1-28.5-43.6,0-13.5,8.8-23,33.1-8.9Z"/>
              <path class="st29" d="M589.4,142l29.1-16.9c10.2,5.9,20.1,14.5,27.1,23.5l-29.1,16.9c-7-9-16.8-17.6-27.1-23.5Z"/>
              <path class="st13" d="M562.1,136.9l29.1-17.7c.6-.4,1.3-.7,2-.9,5.9-2.1,14.7,0,25.3,6.2,10.4,6,20.5,14.8,27.6,24l-29.6,17.1c-7.1-9.2-17.1-17.8-27.5-23.8-10.6-6.1-18.9-7.9-24.8-5.8-.7.2-1.4.6-2,.9Z"/>
              <polygon class="st44" points="616.4 165.6 646.1 148.5 640.1 161.7 611 177.7 616.4 165.6"/>
              <polygon class="st19" points="680 266.8 709.1 249.9 716 273.4 686.9 290.3 680 266.8"/>
              <polygon class="st68" points="661.6 204.8 690.7 187.9 677.7 216.4 648.6 233.3 661.6 204.8"/>
              <polygon class="st106" points="648.6 233.3 677.7 216.4 703.6 231.4 674.5 248.3 648.6 233.3"/>
              <polygon class="st19" points="661.6 204.8 690.7 187.9 703.6 231.4 674.5 248.3 661.6 204.8"/>
              <path class="st88" d="M670.7,190.5l34.9,110.5-18.6-10.7-6.9-23.5-37.1-21.4-7.1,15.4-18.1-10.5,35.2-70,17.7,10.2ZM648.6,233.3l26,15-12.9-43.5-13.1,28.5"/>
              <polygon class="st95" points="670.7 190.5 700.1 173.1 734.6 284.1 705.5 301 670.7 190.5"/>
              <polygon class="st51" points="653 180.3 682.4 162.9 700.1 173.1 670.7 190.5 653 180.3"/>
            </g>
            <g class="st63">
              <polygon class="st98" points="727.4 288.6 756.5 271.7 756.5 296.7 727.4 313.6 727.4 288.6"/>
              <polygon class="st37" points="727.8 239.5 757.3 223.3 756.4 255.5 727.1 272.4 727.8 239.5"/>
              <polygon class="st67" points="727.5 272.1 756.6 254.5 771.2 262.9 741.7 280.3 727.5 272.1"/>
              <path class="st79" d="M785.3,265.8l-28.9,18.5c-2.8,1.6-8.7-.6-14.7-4l29.6-17.7c6,3.4,11.1,4.8,13.9,3.1Z"/>
              <path class="st19" d="M785.4,266.7l-29.1,16.9c2.3-1.3,3.5-4.3,3.5-8.9,0-10.4-6-19.7-17.1-26.1l29.1-16.9c11,6.4,17.1,15.6,17.1,26.1,0,4.6-1.2,7.6-3.5,8.9Z"/>
              <path class="st19" d="M799.5,285.8l-29.1,16.9c-5.9,3.4-15.1,1.9-26.8-4.8l29.1-16.9c11.6,6.7,20.9,8.2,26.8,4.8Z"/>
              <path class="st20" d="M743.8,232.8c21,12.1,34,32.2,34,52.3,0,20.1-13.1,25-34.2,12.9l-16.2-9.4v25.1c0,0-17.8-10.2-17.8-10.2l.3-90.2,33.9,19.6ZM742.7,280.9c11,6.4,17.1,4.2,17.2-6.2,0-10.4-6-19.7-17.1-26.1l-15.2-8.8v32.2c0,0,15.1,8.8,15.1,8.8"/>
              <path class="st61" d="M800.8,287.4l-30,15.1c4.7-3,7-8.6,7-17.7,0-8.4-2.4-16.6-6.3-24.2-5.7-10.9-14.9-20.5-27.5-27.8l28.6-17.3c21.4,12.3,34,30.6,35.3,51.6,0,9.1-.8,14-7,20.2Z"/>
              <polygon class="st39" points="709.9 213.2 738.5 195.9 772.5 215.5 743.9 232.8 709.9 213.2"/>
            </g>
          </g>
        </g>
        <g>
          <g class="st63">
            <polygon points="764.3 325.8 784.2 314.3 802.1 348.8 782.2 360.4 764.3 325.8"/>
            <polygon points="782.2 360.4 802.1 348.8 823 340.3 803.1 351.9 782.2 360.4"/>
            <polygon class="st32" points="785.2 317.4 805.1 305.8 823 340.3 803.1 351.9 785.2 317.4"/>
            <polygon class="st26" points="764.3 325.8 784.2 314.3 805.1 305.8 785.2 317.4 764.3 325.8"/>
            <polygon class="st52" points="764.3 325.8 785.2 317.4 803.1 351.9 782.2 360.4 764.3 325.8"/>
            <polygon class="st32" points="806.5 308.7 826.5 297.1 844.4 331.6 824.5 343.2 806.5 308.7"/>
            <polygon class="st26" points="785.5 317.2 805.4 305.7 826.5 297.1 806.5 308.7 785.5 317.2"/>
            <polygon class="st94" points="785.6 317.2 806.7 308.7 824.6 343.2 803.6 351.8 785.6 317.2"/>
            <polygon class="st33" points="806.9 308.5 827.9 300 845.9 334.5 824.8 343 806.9 308.5"/>
            <polygon class="st23" points="828 300 847.9 288.4 865.8 322.9 845.9 334.5 828 300"/>
            <polygon class="st26" points="806.9 308.5 826.8 296.9 847.9 288.4 827.9 300 806.9 308.5"/>
            <polygon points="791.2 229.4 811.2 217.8 811.5 217.7 791.6 229.2 791.2 229.4"/>
            <polygon class="st70" points="831.1 256.3 851 244.7 868.9 279.2 849 290.8 831.1 256.3"/>
            <polygon class="st26" points="810 264.8 830 253.2 851 244.7 831.1 256.3 810 264.8"/>
            <polygon class="st64" points="810.1 264.8 831.1 256.3 849 290.8 828 299.3 810.1 264.8"/>
            <polygon class="st55" points="812.9 221.2 832.8 209.6 850.7 244.1 830.8 255.7 812.9 221.2"/>
            <polygon class="st82" points="791.8 229.7 812.9 221.2 830.8 255.7 809.8 264.2 791.8 229.7"/>
            <polygon class="st26" points="791.8 229.7 811.7 218.2 832.8 209.6 812.9 221.2 791.8 229.7"/>
            <polygon points="812.6 220.7 832.5 209.1 832.8 209 812.9 220.6 812.6 220.7"/>
            <polygon class="st16" points="773.8 195 794.8 186.4 812.6 220.7 791.6 229.2 773.8 195"/>
            <polygon class="st26" points="773.8 195 793.7 183.4 814.8 174.8 794.8 186.4 773.8 195"/>
            <polygon class="st12" points="794.8 186.4 814.8 174.8 832.5 209.1 812.6 220.7 794.8 186.4"/>
          </g>
          <g class="st63">
            <g class="st116">
              <g>
                <polyline class="st83" points="793.9 204.4 788.2 201.1 788.2 209.2 790.5 210.5 790.5 208 793.5 209.7 793.5 207.6 790.6 205.9 790.6 204.5 793.9 206.4 793.9 204.4"/>
                <polyline class="st83" points="797 206.2 794.7 204.8 794.6 212.9 797 214.3 797 206.2"/>
              </g>
            </g>
          </g>
          <g class="st63">
            <g class="st57">
              <g>
                <path class="st83" d="M807.8,237c-.6-.3-1.1-.5-1.6-.6s-.9,0-1.2.2c-.4.2-.6.5-.8.9-.2.4-.3.9-.3,1.5s0,1.3.3,1.9c.2.6.5,1.2.8,1.8.4.6.8,1.1,1.2,1.6.5.5,1,.9,1.6,1.2s1.3.6,1.8.6c.5,0,1-.1,1.3-.4l-1.5-2.4c-.2.2-.4.3-.7.3-.2,0-.5,0-.8-.2s-.5-.3-.7-.5c-.2-.2-.4-.4-.5-.7-.1-.3-.3-.5-.3-.8,0-.3-.1-.6-.1-.9s0-.6.1-.8c0-.2.2-.4.3-.5.1,0,.3-.1.5-.1.2,0,.4.1.7.2s.6.4.8.7c.3.3.5.7.7,1.1l1.5-.7c-.3-.7-.8-1.4-1.3-2-.5-.6-1.1-1.1-1.8-1.5"/>
                <path class="st83" d="M815.2,247.5c-.2-.1-.4-.3-.6-.5-.2-.2-.4-.4-.5-.7-.1-.3-.3-.5-.3-.8,0-.3-.1-.6-.1-.9s0-.6.1-.8c0-.2.2-.4.3-.4.1,0,.3-.1.5-.1.2,0,.4,0,.6.2s.4.3.6.5c.2.2.4.4.5.7.1.2.3.5.3.8,0,.3.1.6.1.9s0,.6-.1.8c0,.2-.2.3-.3.4-.1,0-.3.1-.5.1-.2,0-.4,0-.6-.2M815.2,241.3c-.6-.3-1.1-.5-1.6-.6-.5,0-.9,0-1.3.2-.4.2-.6.5-.8.9s-.3.9-.3,1.5,0,1.2.3,1.9.5,1.2.8,1.8c.4.6.8,1.1,1.3,1.6.5.5,1,.9,1.6,1.2.6.3,1.1.5,1.6.6.5,0,.9,0,1.3-.2.4-.2.6-.5.8-.9s.3-.9.3-1.5,0-1.2-.3-1.9-.5-1.2-.8-1.8c-.4-.6-.8-1.1-1.3-1.6-.5-.5-1-.9-1.6-1.2"/>
              </g>
            </g>
          </g>
          <g class="st63">
            <g class="st103">
              <g>
                <polyline class="st83" points="829.3 273.6 822.8 269.9 822.8 272 824.8 273.2 824.8 279.2 827.2 280.5 827.2 274.6 829.3 275.8 829.3 273.6"/>
                <path class="st83" d="M832.3,277.5l.9.5c.3.2.6.4.7.7.2.3.2.5.2.8s0,.5-.2.6c-.2,0-.4,0-.7-.2l-.9-.5v-1.9M833.3,276l-3.4-2v8.1s2.4,1.4,2.4,1.4v-2s.6.4.6.4l1.2,2.7,2.5,1.5-1.5-3.3c.4,0,.7-.1.9-.4.3-.3.4-.8.4-1.4s-.1-1.2-.4-1.8c-.3-.6-.6-1.2-1.1-1.7-.5-.5-1.1-1-1.7-1.4"/>
              </g>
            </g>
          </g>
          <g class="st63">
            <g class="st72">
              <g>
                <path class="st83" d="M822.3,316l.9.5c.3.2.6.4.7.7.2.3.2.5.2.8s0,.5-.2.6c-.2,0-.4,0-.7-.2l-.9-.5v-1.9M823.3,314.5l-3.4-2v8.1s2.3,1.4,2.3,1.4v-2s1,.6,1,.6c.7.4,1.2.6,1.7.6.5,0,.9-.1,1.1-.4.3-.3.4-.8.4-1.4s-.1-1.2-.4-1.8c-.3-.6-.6-1.2-1.1-1.7-.5-.5-1-1-1.7-1.4"/>
                <path class="st83" d="M830.3,318.4c-.7-.4-1.3-.6-1.8-.7-.5,0-.9,0-1.1.4-.2.3-.4.7-.4,1.2s0,.8.2,1.2c.1.4.3.7.6,1,.2.3.5.6.8.9.3.3.6.5.8.7.3.2.5.4.8.6.2.2.4.4.6.5.1.2.2.3.2.5s0,.2,0,.2c0,0-.2,0-.3,0-.1,0-.3-.1-.5-.3-.4-.2-.8-.5-1.2-.9-.4-.4-.8-.8-1.1-1.2l-.8,1.5c.4.5.8.9,1.4,1.4.5.5,1.1.9,1.7,1.2s1.3.6,1.8.7c.5,0,.8-.1,1.1-.4.2-.3.4-.7.4-1.1s0-.8-.2-1.2c-.1-.4-.3-.7-.6-1-.2-.3-.5-.6-.8-.9-.3-.3-.6-.5-.8-.7-.3-.2-.5-.4-.8-.6-.2-.2-.4-.4-.6-.5s-.2-.3-.2-.5,0-.2,0-.2c0,0,.2,0,.3,0,.1,0,.3.1.5.2s.6.4,1,.7.7.6,1,1l.7-1.6c-.4-.4-.8-.9-1.2-1.2-.5-.4-.9-.7-1.4-1"/>
              </g>
            </g>
          </g>
          <g class="st63">
            <g class="st11">
              <g>
                <polyline class="st83" points="807.8 329 805.5 327.7 804.2 331.6 803 326.2 800.8 325 799.5 328.8 798.3 323.5 795.9 322.1 798.1 331.5 800.6 332.9 801.9 329.3 803 334.3 805.5 335.8 807.8 329"/>
                <polyline class="st83" points="814 332.6 808.3 329.3 808.3 337.4 810.7 338.7 810.7 336.1 813.6 337.8 813.6 335.8 810.7 334.1 810.7 332.7 814 334.6 814 332.6"/>
              </g>
            </g>
          </g>
          <g class="st63">
            <g class="st65">
              <g>
                <polyline class="st83" points="782.3 334.8 780 333.5 779.9 341.6 782.3 342.9 782.3 334.8"/>
                <path class="st83" d="M786.4,337c-.7-.4-1.3-.6-1.8-.7-.5,0-.9,0-1.1.4-.2.3-.4.7-.4,1.2s0,.8.2,1.2c.1.4.3.7.6,1,.2.3.5.6.8.9s.6.5.8.7c.3.2.5.4.8.6.2.2.4.4.6.5.1.2.2.3.2.5s0,.2,0,.2c0,0-.2,0-.3,0-.1,0-.3-.1-.5-.3-.4-.2-.8-.5-1.2-.9-.4-.4-.8-.8-1.1-1.2l-.8,1.5c.4.4.8.9,1.4,1.4.5.5,1.1.9,1.7,1.2s1.3.6,1.8.7c.5,0,.9,0,1.1-.4.2-.3.4-.7.4-1.1s0-.8-.2-1.2-.3-.7-.6-1c-.2-.3-.5-.6-.8-.9-.3-.3-.5-.5-.8-.7-.3-.2-.5-.4-.8-.6-.2-.2-.4-.4-.6-.5s-.2-.3-.2-.5,0-.2,0-.2c0,0,.2,0,.3,0,.1,0,.3.1.5.2s.6.4,1,.7c.3.3.7.6,1,1l.7-1.6c-.4-.5-.8-.9-1.2-1.3-.5-.4-.9-.7-1.4-1"/>
              </g>
            </g>
          </g>
        </g>
        <g>
          <g class="st63">
            <polygon points="550.3 199 541 179.3 508.6 196.5 517.8 216.3 550.3 199"/>
            <polygon points="517.8 216.3 508.6 196.5 496.9 178.7 506.1 198.4 517.8 216.3"/>
            <polygon class="st32" points="538.6 181.2 529.3 161.5 496.9 178.7 506.1 198.4 538.6 181.2"/>
            <polygon class="st9" points="550.3 199 541 179.3 529.3 161.5 538.6 181.2 550.3 199"/>
            <polygon class="st28" points="550.3 199 538.6 181.2 506.1 198.4 517.8 216.3 550.3 199"/>
            <polygon class="st32" points="526.6 163 517.4 143.3 484.9 160.5 494.2 180.2 526.6 163"/>
            <polygon class="st2" points="538.4 181 529.2 161.3 517.4 143.3 526.6 163 538.4 181"/>
            <polygon class="st21" points="538.3 180.9 526.5 162.9 494 180.1 505.8 198.1 538.3 180.9"/>
            <polygon class="st93" points="526.5 162.7 514.7 144.7 482.2 161.9 494 179.9 526.5 162.7"/>
            <polygon class="st3" points="514.7 144.7 505.4 125 472.9 142.2 482.2 161.9 514.7 144.7"/>
            <polygon class="st73" points="526.5 162.7 517.2 143 505.4 125 514.7 144.7 526.5 162.7"/>
            <polygon points="581.2 109.5 571.9 89.8 571.7 89.6 581 109.3 581.2 109.5"/>
            <polygon class="st117" points="535.7 109 526.5 89.3 494 106.5 503.2 126.2 535.7 109"/>
            <polygon class="st26" points="547.5 127 538.2 107.3 526.5 89.3 535.7 109 547.5 127"/>
            <polygon class="st69" points="547.5 127 535.7 109 503.2 126.2 515 144.2 547.5 127"/>
            <polygon class="st40" points="568.8 91.5 559.5 71.8 527 89 536.3 108.8 568.8 91.5"/>
            <polygon class="st113" points="580.5 109.5 568.7 91.5 536.3 108.7 548 126.7 580.5 109.5"/>
            <polygon class="st26" points="580.6 109.5 571.3 89.8 559.5 71.8 568.8 91.5 580.6 109.5"/>
            <polygon points="569.2 91.3 560 71.6 559.8 71.3 569.1 91 569.2 91.3"/>
            <polygon class="st107" points="613.3 92.2 601.5 74.2 569.2 91.3 581 109.3 613.3 92.2"/>
            <polygon class="st59" points="613.3 92.2 604 72.5 592.2 54.5 601.5 74.2 613.3 92.2"/>
            <polygon class="st109" points="601.5 74.2 592.2 54.5 560 71.6 569.2 91.3 601.5 74.2"/>
          </g>
          <g class="st63">
            <g class="st6">
              <g>
                <path class="st83" d="M588.3,88.6c-.7.4-1.3.9-1.8,1.4-.5.5-.9,1.1-1.1,1.6-.2.6-.4,1.1-.4,1.6s0,.7.2,1c.1.2.3.3.6.4.2,0,.5,0,.8,0,.3,0,.6-.1.8-.2.3,0,.5-.2.8-.3.2,0,.4-.1.6-.1.1,0,.2,0,.2.2s0,.2,0,.3c0,.1-.2.2-.3.3-.1.1-.3.2-.5.4-.4.2-.8.4-1.2.5-.4,0-.8.1-1.1.1l-.8,2.4c.4,0,.8,0,1.4-.2.5-.2,1.1-.4,1.7-.7.7-.4,1.3-.9,1.8-1.4.5-.5.8-1.1,1.1-1.6.2-.6.4-1.1.4-1.6s0-.7-.2-.9c-.1-.2-.3-.3-.6-.4-.2,0-.5,0-.8,0-.3,0-.6.1-.8.2-.3,0-.5.2-.8.3-.2,0-.4.1-.6.1s-.2,0-.2-.2,0-.2,0-.3c0-.1.2-.2.3-.3.1-.1.3-.3.5-.4s.6-.3,1-.4c.3,0,.7-.1,1-.1l.7-2.4c-.4,0-.8,0-1.3.2-.5.2-.9.4-1.4.6"/>
                <path class="st83" d="M594.4,91.3v-3.8s1-.6,1-.6c.3-.2.6-.3.9-.3.3,0,.5,0,.6.3.1.2.2.5.2.9s0,.8-.2,1.2c-.1.4-.3.7-.6,1-.2.3-.5.5-.9.7l-1,.6M595.5,84.7l-3.5,2v8.1s3.5-2,3.5-2c.8-.5,1.5-1,2.1-1.7.6-.7,1.1-1.4,1.4-2.2.3-.8.5-1.6.5-2.5s-.2-1.5-.5-1.9c-.3-.4-.8-.6-1.4-.6-.6,0-1.3.3-2.1.7"/>
              </g>
            </g>
          </g>
          <g class="st63">
            <g class="st7">
              <g>
                <path class="st83" d="M558.3,105.4l-2,1.1-2.2,5.6-2.3-3-2,1.1v8.1s2.2-1.2,2.2-1.2v-3.6s1.5,1.9,1.5,1.9l1-.6,1.5-3.8v3.7s2.2-1.2,2.2-1.2v-8.1"/>
                <path class="st83" d="M567.9,99.9l-1.9,1.1-2.2,5.6-2.3-3-2,1.1v8.1s2.2-1.2,2.2-1.2v-3.6s1.5,2,1.5,2l1-.6,1.5-3.9v3.7s2.2-1.2,2.2-1.2v-8.1"/>
              </g>
            </g>
          </g>
          <g class="st63">
            <g class="st66">
              <g>
                <path class="st83" d="M521.1,128.9l.9-.5c.3-.2.6-.2.7-.2.2,0,.2.3.2.6s0,.6-.2.8c-.2.3-.4.5-.7.7l-.9.5v-1.9M522.1,126.2l-3.4,2v8.1s2.4-1.4,2.4-1.4v-2s1-.6,1-.6c.7-.4,1.2-.8,1.7-1.4s.8-1.1,1.1-1.7c.3-.6.4-1.2.4-1.8s-.1-1.1-.4-1.4c-.3-.3-.6-.4-1.1-.4-.5,0-1,.2-1.7.6"/>
                <path class="st83" d="M528.4,124.7l.9-.5c.3-.2.6-.2.7-.2.2,0,.2.3.2.6s0,.6-.2.8c-.2.3-.4.5-.7.7l-.9.5v-1.9M529.5,122l-3.4,2v8.1s2.4-1.4,2.4-1.4v-2s1-.6,1-.6c.7-.4,1.2-.8,1.7-1.4.5-.5.8-1.1,1.1-1.7.3-.6.4-1.2.4-1.8s-.1-1.1-.4-1.4c-.3-.3-.6-.4-1.1-.4-.5,0-1,.2-1.7.6"/>
              </g>
            </g>
          </g>
          <g class="st63">
            <g class="st24">
              <g>
                <path class="st83" d="M501.6,168.4c-.2.1-.4.2-.6.2-.2,0-.4,0-.5-.1-.1,0-.3-.2-.3-.4,0-.2-.1-.5-.1-.8s0-.6.1-.9c0-.3.2-.6.3-.8.1-.3.3-.5.5-.7.2-.2.4-.4.6-.5s.4-.2.6-.2c.2,0,.4,0,.5.1.1,0,.3.2.3.4s.1.5.1.8,0,.6-.1.9-.2.6-.3.8c-.1.3-.3.5-.5.7-.2.2-.4.4-.6.5M501.6,162.1c-.6.3-1.1.7-1.6,1.2-.5.5-.9,1-1.3,1.6-.4.6-.6,1.2-.8,1.8s-.3,1.2-.3,1.9,0,1.1.3,1.5.5.7.8.9.8.2,1.3.2c.2,0,.4,0,.6-.2.3.2.5.3.7.4.3.1.6.2.8.2.3,0,.5,0,.8-.1.3,0,.6-.2.9-.4.9-.5,1.6-1.2,2-2.2l-1-.8c-.3.5-.6.9-1,1.1s-.3.1-.4.1c0,0-.2,0-.3,0,.4-.5.8-1,1.1-1.5.4-.6.6-1.2.8-1.8.2-.6.3-1.3.3-1.9s-.1-1.1-.3-1.5c-.2-.4-.5-.7-.8-.9-.4-.2-.8-.2-1.3-.2-.5,0-1,.3-1.6.6"/>
                <path class="st83" d="M509.1,162.7l.7-2.4.7,1.6-1.4.8M511,156.9l-2.3,1.3-3,9.9,2.4-1.4.5-1.7,2.7-1.5.5,1.1,2.5-1.4-3.1-6.3"/>
              </g>
            </g>
          </g>
          <g class="st63">
            <g class="st25">
              <g>
                <path class="st83" d="M509.8,182.3l.9-.5c.3-.2.6-.2.7-.2.2,0,.2.3.2.6s0,.6-.2.8c-.2.3-.4.5-.7.7l-.9.5v-1.9M510.8,179.6l-3.4,2v8.1s2.4-1.4,2.4-1.4v-2s1-.6,1-.6c.7-.4,1.2-.8,1.7-1.4.5-.5.8-1.1,1.1-1.7.3-.6.4-1.2.4-1.8s-.1-1.1-.4-1.4c-.3-.3-.6-.4-1.1-.4-.5,0-1,.2-1.7.6"/>
                <path class="st83" d="M523.2,172.4l-1.9,1.1-2.2,5.6-2.3-3-1.9,1.1v8.1s2.2-1.2,2.2-1.2v-3.6s1.5,2,1.5,2l1-.6,1.5-3.9v3.7s2.2-1.2,2.2-1.2v-8.1"/>
              </g>
            </g>
          </g>
          <g class="st63">
            <g class="st41">
              <g>
                <polyline class="st83" points="527.1 196.3 524.7 197.7 524.7 200.6 522.5 201.8 522.5 199 520.2 200.3 520.2 208.4 522.5 207 522.5 204.1 524.7 202.8 524.7 205.8 527.1 204.4 527.1 196.3"/>
                <path class="st83" d="M530.6,196.4l.9-.5c.3-.2.6-.2.7-.2.2,0,.2.3.2.6s0,.6-.2.8c-.2.3-.4.5-.7.7l-.9.5v-1.9M531.6,193.7l-3.4,2v8.1s2.4-1.4,2.4-1.4v-2s.6-.4.6-.4l1.2,1.3,2.5-1.5-1.5-1.6c.4-.5.7-1,.9-1.5.3-.6.4-1.2.4-1.8s-.1-1.1-.4-1.4c-.3-.3-.6-.4-1.1-.4-.5,0-1,.2-1.7.6"/>
              </g>
            </g>
          </g>
        </g>
      </g>
    </g>
  </g>
</svg>