<?xml version="1.0" encoding="UTF-8"?>
<svg xmlns="http://www.w3.org/2000/svg" version="1.1" xmlns:xlink="http://www.w3.org/1999/xlink" viewBox="0 0 987.5 1262.7">
  <!-- Generator: Adobe Illustrator 29.3.1, SVG Export Plug-In . SVG Version: 2.1.0 Build 151)  -->
  <defs>
    <style>
      .st0, .st1, .st2 {
        clip-rule: evenodd;
      }

      .st0, .st3 {
        fill: #244267;
      }

      .st4, .st5, .st6, .st7, .st8, .st9, .st10, .st11, .st12, .st3, .st13, .st14, .st15 {
        fill-rule: evenodd;
      }

      .st4, .st1 {
        fill: #fed1a5;
      }

      .st16 {
        fill: url(#linear-gradient2);
      }

      .st17 {
        fill: url(#linear-gradient36);
      }

      .st18 {
        fill: #823f35;
      }

      .st19 {
        fill: url(#linear-gradient39);
      }

      .st20 {
        clip-path: url(#clippath-6);
      }

      .st21 {
        clip-path: url(#clippath-7);
      }

      .st22 {
        fill: #cf2028;
      }

      .st23 {
        fill: url(#linear-gradient34);
      }

      .st24 {
        fill: url(#linear-gradient58);
      }

      .st25 {
        clip-path: url(#clippath-15);
      }

      .st26 {
        clip-path: url(#clippath-4);
      }

      .st5 {
        fill: #26130f;
      }

      .st27 {
        fill: url(#linear-gradient33);
      }

      .st28 {
        fill: #9b4a3f;
      }

      .st29 {
        fill: url(#linear-gradient10);
      }

      .st30 {
        fill: url(#linear-gradient63);
      }

      .st31 {
        fill: #054367;
      }

      .st32 {
        fill: #ed2926;
      }

      .st33 {
        fill: url(#linear-gradient32);
      }

      .st6 {
        fill: #27120f;
      }

      .st34 {
        fill: #231f20;
      }

      .st35 {
        fill: url(#linear-gradient21);
      }

      .st36 {
        fill: url(#linear-gradient37);
      }

      .st37 {
        fill: url(#linear-gradient56);
      }

      .st38 {
        fill: url(#linear-gradient27);
      }

      .st39 {
        clip-path: url(#clippath-9);
      }

      .st40 {
        fill: url(#linear-gradient53);
      }

      .st41 {
        fill: #a95246;
      }

      .st42 {
        clip-path: url(#clippath-10);
      }

      .st43 {
        fill: #d56757;
      }

      .st44 {
        fill: url(#linear-gradient57);
      }

      .st7, .st2 {
        fill: #92a6cd;
      }

      .st45 {
        fill: url(#linear-gradient35);
      }

      .st46 {
        fill: #fff;
      }

      .st47 {
        fill: #22557c;
      }

      .st48 {
        fill: url(#linear-gradient26);
      }

      .st49 {
        fill: url(#linear-gradient1);
      }

      .st8 {
        fill: #253c7a;
      }

      .st9 {
        fill: #818181;
        mix-blend-mode: multiply;
        opacity: .4;
      }

      .st50 {
        fill: #864237;
      }

      .st51 {
        fill: url(#linear-gradient9);
      }

      .st52, .st13 {
        fill: #f1b986;
      }

      .st53 {
        fill: url(#linear-gradient18);
      }

      .st54 {
        fill: #ae5548;
      }

      .st55 {
        fill: url(#linear-gradient61);
      }

      .st56 {
        fill: url(#linear-gradient23);
      }

      .st57 {
        fill: url(#linear-gradient43);
      }

      .st58 {
        clip-path: url(#clippath-11);
      }

      .st59 {
        fill: url(#linear-gradient8);
      }

      .st60 {
        fill: #a04d41;
      }

      .st61 {
        fill: #3f90ce;
      }

      .st62 {
        fill: url(#linear-gradient11);
      }

      .st63 {
        fill: none;
      }

      .st64 {
        fill: #ffcc04;
      }

      .st65 {
        fill: #96483d;
      }

      .st66 {
        fill: url(#linear-gradient16);
      }

      .st67 {
        fill: url(#linear-gradient24);
      }

      .st68 {
        fill: url(#linear-gradient30);
      }

      .st69 {
        clip-path: url(#clippath-1);
      }

      .st70 {
        fill: #5ac5c6;
      }

      .st71 {
        fill: url(#linear-gradient46);
      }

      .st10 {
        fill: #462d1b;
      }

      .st72 {
        fill: url(#linear-gradient22);
      }

      .st73 {
        isolation: isolate;
      }

      .st74 {
        fill: url(#linear-gradient29);
      }

      .st75 {
        clip-path: url(#clippath-5);
      }

      .st76 {
        fill: #8c4339;
      }

      .st77 {
        clip-path: url(#clippath-8);
      }

      .st78 {
        fill: url(#linear-gradient49);
      }

      .st79 {
        fill: url(#linear-gradient19);
      }

      .st80 {
        fill: #216599;
      }

      .st81 {
        fill: url(#linear-gradient12);
      }

      .st82 {
        fill: url(#linear-gradient42);
      }

      .st83 {
        fill: url(#linear-gradient28);
      }

      .st84 {
        fill: #1b6093;
      }

      .st85 {
        fill: #f15b44;
      }

      .st86 {
        clip-path: url(#clippath-3);
      }

      .st87 {
        fill: url(#linear-gradient40);
      }

      .st88 {
        fill: url(#linear-gradient62);
      }

      .st89 {
        fill: url(#linear-gradient7);
      }

      .st90 {
        fill: url(#linear-gradient59);
      }

      .st91 {
        clip-path: url(#clippath-12);
      }

      .st92 {
        fill: #1f608a;
      }

      .st93 {
        fill: url(#linear-gradient20);
      }

      .st94 {
        fill: url(#linear-gradient4);
      }

      .st95 {
        fill: url(#linear-gradient31);
      }

      .st96 {
        clip-path: url(#clippath-14);
      }

      .st11 {
        fill: #7387be;
      }

      .st97 {
        fill: #085289;
      }

      .st98 {
        fill: url(#linear-gradient14);
      }

      .st99 {
        fill: url(#linear-gradient5);
      }

      .st100 {
        fill: #a45044;
      }

      .st101 {
        fill: url(#linear-gradient3);
      }

      .st102 {
        fill: #dbdada;
      }

      .st103 {
        fill: url(#linear-gradient55);
      }

      .st12 {
        fill: #010101;
      }

      .st104 {
        fill: #77cddf;
      }

      .st105 {
        fill: url(#linear-gradient38);
      }

      .st106 {
        fill: #ffdb7c;
      }

      .st107 {
        fill: url(#linear-gradient25);
      }

      .st108 {
        fill: url(#linear-gradient52);
      }

      .st109 {
        fill: url(#linear-gradient15);
      }

      .st110 {
        fill: #c65f51;
      }

      .st111 {
        fill: #50c4cf;
      }

      .st112 {
        fill: url(#linear-gradient17);
      }

      .st113 {
        fill: url(#linear-gradient54);
      }

      .st114 {
        fill: url(#linear-gradient50);
      }

      .st115 {
        fill: #b5574a;
      }

      .st116 {
        fill: url(#linear-gradient51);
      }

      .st117 {
        fill: url(#linear-gradient6);
      }

      .st118 {
        clip-path: url(#clippath-2);
      }

      .st119 {
        fill: #11898d;
      }

      .st120 {
        fill: url(#linear-gradient64);
      }

      .st121 {
        fill: #864137;
      }

      .st122 {
        fill: #bd5a4d;
      }

      .st123 {
        clip-path: url(#clippath-13);
      }

      .st124 {
        fill: url(#linear-gradient48);
      }

      .st125 {
        fill: #ac5347;
      }

      .st126 {
        fill: url(#linear-gradient13);
      }

      .st127 {
        fill: url(#linear-gradient45);
      }

      .st128 {
        fill: url(#linear-gradient47);
      }

      .st129 {
        fill: url(#linear-gradient60);
      }

      .st130 {
        fill: url(#linear-gradient);
      }

      .st131 {
        fill: #f9b31d;
      }

      .st132 {
        fill: url(#linear-gradient44);
      }

      .st14 {
        fill: #637fb5;
      }

      .st133 {
        clip-path: url(#clippath);
      }

      .st134 {
        fill: url(#linear-gradient41);
      }

      .st135 {
        fill: #f8b1a8;
      }

      .st136 {
        fill: #8f453c;
      }

      .st137 {
        fill: #f37665;
      }

      .st138 {
        fill: #cbcbca;
      }

      .st139 {
        fill: #c25d4f;
      }

      .st140 {
        fill: #4d4d51;
      }

      .st15 {
        fill: #10223c;
      }

      .st141 {
        fill: #b9584c;
      }
    </style>
    <clipPath id="clippath">
      <path class="st63" d="M216.3,855.2l-16.4-9.6c-1.8-1-2.8-3.2-2.8-6.3l16.4,9.6c0,3.1,1.1,5.2,2.8,6.3Z"/>
    </clipPath>
    <linearGradient id="linear-gradient" x1="638.6" y1="267.4" x2="634.5" y2="274.8" gradientUnits="userSpaceOnUse">
      <stop offset="0" stop-color="#6a7abb"/>
      <stop offset="1" stop-color="#0b509d"/>
    </linearGradient>
    <clipPath id="clippath-1">
      <path class="st130" d="M630.6,268.1l16.4,9.6c-1.8-1-4.2-.9-6.9.7l-16.4-9.6c2.7-1.6,5.2-1.7,6.9-.7Z"/>
    </clipPath>
    <linearGradient id="linear-gradient1" x1="636.5" y1="266.2" x2="632.3" y2="273.7" xlink:href="#linear-gradient"/>
    <linearGradient id="linear-gradient2" x1="637.2" y1="266.6" x2="633.1" y2="274.1" xlink:href="#linear-gradient"/>
    <linearGradient id="linear-gradient3" x1="637.9" y1="266.9" x2="633.7" y2="274.4" xlink:href="#linear-gradient"/>
    <linearGradient id="linear-gradient4" x1="638.4" y1="267.2" x2="634.3" y2="274.7" xlink:href="#linear-gradient"/>
    <linearGradient id="linear-gradient5" x1="638.9" y1="267.5" x2="634.8" y2="275" xlink:href="#linear-gradient"/>
    <linearGradient id="linear-gradient6" x1="639.4" y1="267.8" x2="635.3" y2="275.3" xlink:href="#linear-gradient"/>
    <linearGradient id="linear-gradient7" x1="639.9" y1="268.1" x2="635.7" y2="275.6" xlink:href="#linear-gradient"/>
    <linearGradient id="linear-gradient8" x1="640.4" y1="268.3" x2="636.2" y2="275.8" xlink:href="#linear-gradient"/>
    <linearGradient id="linear-gradient9" x1="640.8" y1="268.6" x2="636.7" y2="276.1" xlink:href="#linear-gradient"/>
    <linearGradient id="linear-gradient10" x1="641.1" y1="268.7" x2="637" y2="276.2" xlink:href="#linear-gradient"/>
    <linearGradient id="linear-gradient11" x1="218.1" y1="511.1" x2="207.6" y2="535.7" xlink:href="#linear-gradient"/>
    <linearGradient id="linear-gradient12" x1="330.3" y1="312.9" x2="425.9" y2="396.7" xlink:href="#linear-gradient"/>
    <linearGradient id="linear-gradient13" x1="214.3" y1="509.5" x2="203.8" y2="534" xlink:href="#linear-gradient"/>
    <linearGradient id="linear-gradient14" x1="214.3" y1="509.5" x2="203.8" y2="534" xlink:href="#linear-gradient"/>
    <clipPath id="clippath-2">
      <path class="st98" d="M212.5,536.4l-16.4-9.6c0-6.2,4.3-13.7,9.7-16.8l16.4,9.6c-5.4,3.1-9.7,10.7-9.7,16.8Z"/>
    </clipPath>
    <linearGradient id="linear-gradient15" x1="213.6" y1="509.2" x2="203.1" y2="533.7" xlink:href="#linear-gradient"/>
    <linearGradient id="linear-gradient16" x1="213.1" y1="509" x2="202.6" y2="533.5" xlink:href="#linear-gradient"/>
    <linearGradient id="linear-gradient17" x1="212.9" y1="508.9" x2="202.4" y2="533.4" xlink:href="#linear-gradient"/>
    <linearGradient id="linear-gradient18" x1="212.7" y1="508.9" x2="202.3" y2="533.4" xlink:href="#linear-gradient"/>
    <linearGradient id="linear-gradient19" x1="212.7" y1="508.8" x2="202.2" y2="533.3" xlink:href="#linear-gradient"/>
    <linearGradient id="linear-gradient20" x1="212.6" y1="508.8" x2="202.2" y2="533.3" xlink:href="#linear-gradient"/>
    <linearGradient id="linear-gradient21" x1="212.6" y1="508.8" x2="202.2" y2="533.3" xlink:href="#linear-gradient"/>
    <linearGradient id="linear-gradient22" x1="212.7" y1="508.8" x2="202.2" y2="533.3" xlink:href="#linear-gradient"/>
    <linearGradient id="linear-gradient23" x1="212.7" y1="508.9" x2="202.3" y2="533.4" xlink:href="#linear-gradient"/>
    <linearGradient id="linear-gradient24" x1="212.9" y1="508.9" x2="202.4" y2="533.4" xlink:href="#linear-gradient"/>
    <linearGradient id="linear-gradient25" x1="213" y1="509" x2="202.5" y2="533.5" xlink:href="#linear-gradient"/>
    <linearGradient id="linear-gradient26" x1="213.2" y1="509.1" x2="202.7" y2="533.6" xlink:href="#linear-gradient"/>
    <linearGradient id="linear-gradient27" x1="213.5" y1="509.2" x2="203" y2="533.7" xlink:href="#linear-gradient"/>
    <linearGradient id="linear-gradient28" x1="213.9" y1="509.4" x2="203.4" y2="533.9" xlink:href="#linear-gradient"/>
    <linearGradient id="linear-gradient29" x1="215.1" y1="509.9" x2="204.6" y2="534.4" xlink:href="#linear-gradient"/>
    <linearGradient id="linear-gradient30" x1="212.4" y1="418.3" x2="650.3" y2="418.3" xlink:href="#linear-gradient"/>
    <clipPath id="clippath-3">
      <polygon class="st63" points="360.8 760.8 360 493.8 633.1 336.1 633.9 603.1 360.8 760.8"/>
    </clipPath>
    <clipPath id="clippath-4">
      <polygon class="st63" points="239.2 760.7 238.6 563 333 508.5 333.5 706.2 239.2 760.7"/>
    </clipPath>
    <linearGradient id="linear-gradient31" x1="238.6" y1="548.7" x2="327.4" y2="548.7" gradientUnits="userSpaceOnUse">
      <stop offset="0" stop-color="#9ddae8"/>
      <stop offset="1" stop-color="#759fd4"/>
    </linearGradient>
    <linearGradient id="linear-gradient32" x1="676.1" y1="318.6" x2="696.7" y2="307" xlink:href="#linear-gradient"/>
    <linearGradient id="linear-gradient33" x1="676.1" y1="318.6" x2="696.7" y2="307" xlink:href="#linear-gradient"/>
    <clipPath id="clippath-5">
      <path class="st27" d="M688.4,307l9.9,5.7c-1.1-.6-2.6-.6-4.3.4l-9.9-5.7c1.7-1,3.2-1.1,4.3-.4Z"/>
    </clipPath>
    <linearGradient id="linear-gradient34" x1="675.6" y1="317.9" x2="696.3" y2="306.2" xlink:href="#linear-gradient"/>
    <linearGradient id="linear-gradient35" x1="675.7" y1="318" x2="696.4" y2="306.3" xlink:href="#linear-gradient"/>
    <linearGradient id="linear-gradient36" x1="675.8" y1="318.1" x2="696.4" y2="306.4" xlink:href="#linear-gradient"/>
    <linearGradient id="linear-gradient37" x1="675.8" y1="318.2" x2="696.5" y2="306.6" xlink:href="#linear-gradient"/>
    <linearGradient id="linear-gradient38" x1="675.9" y1="318.4" x2="696.6" y2="306.7" xlink:href="#linear-gradient"/>
    <linearGradient id="linear-gradient39" x1="676" y1="318.6" x2="696.7" y2="306.9" xlink:href="#linear-gradient"/>
    <linearGradient id="linear-gradient40" x1="676.1" y1="318.8" x2="696.8" y2="307.1" xlink:href="#linear-gradient"/>
    <linearGradient id="linear-gradient41" x1="676.3" y1="319" x2="697" y2="307.3" xlink:href="#linear-gradient"/>
    <linearGradient id="linear-gradient42" x1="676.4" y1="319.2" x2="697.1" y2="307.6" xlink:href="#linear-gradient"/>
    <linearGradient id="linear-gradient43" x1="676.5" y1="319.4" x2="697.2" y2="307.7" xlink:href="#linear-gradient"/>
    <clipPath id="clippath-6">
      <path class="st63" d="M505.8,547.7c-2.5-2.1-12.4-5.1-11.6-9.7l9.9,5.7c0,1.9.7,3.3,1.8,3.9Z"/>
    </clipPath>
    <linearGradient id="linear-gradient44" x1="494.1" y1="542.9" x2="505.8" y2="542.9" xlink:href="#linear-gradient"/>
    <linearGradient id="linear-gradient45" x1="493.8" y1="484" x2="504" y2="484" xlink:href="#linear-gradient"/>
    <linearGradient id="linear-gradient46" x1="499.9" y1="363.5" x2="693.9" y2="363.5" xlink:href="#linear-gradient"/>
    <linearGradient id="linear-gradient47" x1="503.6" y1="417.2" x2="499.3" y2="425" xlink:href="#linear-gradient"/>
    <linearGradient id="linear-gradient48" x1="503.6" y1="417.2" x2="499.3" y2="425" xlink:href="#linear-gradient"/>
    <clipPath id="clippath-7">
      <path class="st124" d="M503.7,430l-9.9-5.7c0-3.9,2.7-8.6,6.1-10.5l9.9,5.7c-3.4,1.9-6.1,6.7-6.1,10.5Z"/>
    </clipPath>
    <linearGradient id="linear-gradient49" x1="503.9" y1="417.3" x2="499.6" y2="425.2" xlink:href="#linear-gradient"/>
    <linearGradient id="linear-gradient50" x1="503.6" y1="417.1" x2="499.2" y2="425" xlink:href="#linear-gradient"/>
    <linearGradient id="linear-gradient51" x1="503.3" y1="417" x2="499" y2="424.9" xlink:href="#linear-gradient"/>
    <linearGradient id="linear-gradient52" x1="503.2" y1="416.9" x2="498.9" y2="424.8" xlink:href="#linear-gradient"/>
    <linearGradient id="linear-gradient53" x1="503.1" y1="416.9" x2="498.8" y2="424.7" xlink:href="#linear-gradient"/>
    <linearGradient id="linear-gradient54" x1="503" y1="416.8" x2="498.7" y2="424.7" xlink:href="#linear-gradient"/>
    <linearGradient id="linear-gradient55" x1="503" y1="416.8" x2="498.7" y2="424.7" xlink:href="#linear-gradient"/>
    <linearGradient id="linear-gradient56" x1="503" y1="416.8" x2="498.6" y2="424.6" xlink:href="#linear-gradient"/>
    <linearGradient id="linear-gradient57" x1="502.9" y1="416.8" x2="498.6" y2="424.6" xlink:href="#linear-gradient"/>
    <linearGradient id="linear-gradient58" x1="503" y1="416.8" x2="498.6" y2="424.6" xlink:href="#linear-gradient"/>
    <linearGradient id="linear-gradient59" x1="503" y1="416.8" x2="498.7" y2="424.7" xlink:href="#linear-gradient"/>
    <linearGradient id="linear-gradient60" x1="503.1" y1="416.8" x2="498.7" y2="424.7" xlink:href="#linear-gradient"/>
    <linearGradient id="linear-gradient61" x1="503.2" y1="416.9" x2="498.8" y2="424.8" xlink:href="#linear-gradient"/>
    <linearGradient id="linear-gradient62" x1="503.3" y1="417" x2="499" y2="424.8" xlink:href="#linear-gradient"/>
    <linearGradient id="linear-gradient63" x1="503.9" y1="417.3" x2="499.6" y2="425.2" xlink:href="#linear-gradient"/>
    <linearGradient id="linear-gradient64" x1="503.7" y1="430.2" x2="700.6" y2="430.2" xlink:href="#linear-gradient"/>
    <clipPath id="clippath-8">
      <path class="st0" d="M683.1,664.3c-1.3,66.4-2.1,132.6,7.9,197.5,0,0,0,91.3,0,91.3,14,25.3,26.3,25.4,37.9,16.1,7.8-48.8,9.3-97.4,1.8-146.4,11.5-89.2,44.8-127.1-40.9-196.2l-6.7,37.7h0Z"/>
    </clipPath>
    <clipPath id="clippath-9">
      <path class="st0" d="M636.7,679.5c-1.3,66.4-2.1,132.6,7.9,197.5,0,0,0,91.3,0,91.3,14,25.3,26.3,25.4,37.9,16.1,7.8-48.8,9.3-97.4,1.8-146.4l18.5-73s24.2-38.3,3.2-67.6c-21-29.4-36.4-14.7-36.4-14.7l-32.9-3.2h0Z"/>
    </clipPath>
    <clipPath id="clippath-10">
      <path class="st2" d="M632.4,726.4c37,41.1,86.9,20.1,119.5-19.3-22.8-65.8-3.5-96.2,10.3-163.5-5.2-58.9-65.2-18.9-89.4,0-18.8,11.1-31.3,23-28.6,36.9l-11.8,146h0Z"/>
    </clipPath>
    <clipPath id="clippath-11">
      <path class="st1" d="M678.2,536.4s4.8-20.3-9.7-25c-13.7-12.3-12.9-54.2,2.9-74.4l53,30.4-7.9,36.5c-1.1,7.8,1.7,15.2-6.4,20.4l-31.8,12.2h0Z"/>
    </clipPath>
    <clipPath id="clippath-12">
      <path class="st63" d="M411.5,345.8l9.9,5.7c-1.1-.6-2.6-.6-4.3.4l-9.9-5.7c1.7-1,3.2-1.1,4.3-.4Z"/>
    </clipPath>
    <clipPath id="clippath-13">
      <path class="st63" d="M228.9,586.5c-2.5-2.1-12.4-5.1-11.6-9.7l9.9,5.7c0,1.9.7,3.3,1.8,3.9Z"/>
    </clipPath>
    <clipPath id="clippath-14">
      <path class="st63" d="M226.8,468.8l-9.9-5.7c0-3.9,2.7-8.6,6.1-10.5l9.9,5.7c-3.4,1.9-6.1,6.7-6.1,10.5Z"/>
    </clipPath>
    <clipPath id="clippath-15">
      <polygon class="st63" points="280.8 540.3 280.5 445.1 381.4 386.8 381.7 482 280.8 540.3"/>
    </clipPath>
  </defs>
  <g class="st73">
    <g id="Layer_2">
      <g>
        <g>
          <g class="st73">
            <g class="st73">
              <g class="st133">
                <g class="st73">
                  <path class="st138" d="M216.3,855.2l-16.4-9.6c-1.8-1-2.8-3.2-2.8-6.3l16.4,9.6c0,3.1,1.1,5.2,2.8,6.3"/>
                </g>
              </g>
            </g>
            <polygon class="st138" points="213.4 849 197 839.4 196.2 550.1 212.6 559.7 213.4 849"/>
            <polygon class="st102" points="212.6 559.7 196.2 550.1 633.6 297.6 650 307.1 212.6 559.7"/>
            <path class="st46" d="M650,307.1l.8,289.3c0,6.2-4.3,13.7-9.7,16.8l-417.9,241.3c-5.4,3.1-9.8.6-9.8-5.6l-.8-289.3,437.4-252.5Z"/>
          </g>
          <g class="st73">
            <g>
              <path class="st130" d="M630.6,268.1l16.4,9.6c-1.8-1-4.2-.9-6.9.7l-16.4-9.6c2.7-1.6,5.2-1.7,6.9-.7Z"/>
              <g class="st69">
                <g class="st73">
                  <path class="st49" d="M640.2,278.3l-16.4-9.6c.5-.3.9-.5,1.4-.7l16.4,9.6c-.4.2-.9.4-1.4.7"/>
                  <path class="st16" d="M641.5,277.6l-16.4-9.6c.4-.2.8-.3,1.1-.4l16.4,9.6c-.4.1-.8.2-1.1.4"/>
                  <path class="st101" d="M642.7,277.2l-16.4-9.6c.3,0,.6-.1.9-.2l16.4,9.6c-.3,0-.6.1-.9.2"/>
                  <path class="st94" d="M643.5,277l-16.4-9.6c.2,0,.5,0,.7,0l16.4,9.6c-.2,0-.5,0-.7,0"/>
                  <path class="st99" d="M644.3,277l-16.4-9.6c.2,0,.4,0,.6,0l16.4,9.6c-.2,0-.4,0-.6,0"/>
                  <path class="st117" d="M644.9,277l-16.4-9.6c.9-.3,16.3,9.5,17,9.6-.2,0-.4,0-.6,0"/>
                  <path class="st89" d="M645.5,277l-16.4-9.6c.7-.1,16.4,9.5,17,9.7-.2,0-.4,0-.5-.1"/>
                  <path class="st59" d="M646,277.2l-16.4-9.6c.6,0,16.4,9.5,17,9.7-.2,0-.3-.1-.5-.2"/>
                  <path class="st51" d="M646.5,277.3l-16.4-9.6c.5.2,16.4,9.5,16.9,9.8-.2,0-.3-.2-.5-.2"/>
                  <path class="st29" d="M647,277.6l-16.4-9.6s16.5,9.6,16.5,9.6c0,0,0,0,0,0"/>
                </g>
              </g>
            </g>
            <polygon class="st62" points="212.6 559.7 196.2 550.1 196.1 526.9 212.5 536.4 212.6 559.7"/>
            <polygon class="st81" points="222.3 519.6 205.8 510 623.7 268.7 640.2 278.3 222.3 519.6"/>
            <g>
              <path class="st126" d="M212.5,536.4l-16.4-9.6c0-6.2,4.3-13.7,9.7-16.8l16.4,9.6c-5.4,3.1-9.7,10.7-9.7,16.8Z"/>
              <g class="st118">
                <g class="st73">
                  <path class="st109" d="M212.5,536.4l-16.4-9.6c0-.6,0-1.3.1-1.9l16.4,9.6c0,.6-.1,1.3-.1,1.9"/>
                  <path class="st66" d="M212.7,534.5l-16.4-9.6c0-.4.1-.9.2-1.4l16.4,9.6c0,.5-.2.9-.2,1.4"/>
                  <path class="st112" d="M212.9,533.1l-16.4-9.6c0-.4.2-.7.3-1.1l16.4,9.6c-.1.4-.2.7-.3,1.1"/>
                  <path class="st53" d="M213.2,532l-16.4-9.6c0-.3.2-.7.3-1l16.4,9.6c-.1.3-.2.7-.3,1"/>
                  <path class="st79" d="M213.5,531l-16.4-9.6c.1-.3.2-.6.3-.9l16.4,9.6c-.1.3-.2.6-.3.9"/>
                  <path class="st93" d="M213.8,530.1l-16.4-9.6c.1-.3.2-.6.4-.9l16.4,9.6c-.1.3-.2.6-.4.9"/>
                  <path class="st35" d="M214.2,529.2l-16.4-9.6c.1-.3.3-.6.4-.8l16.4,9.6c-.1.3-.3.6-.4.8"/>
                  <path class="st72" d="M214.6,528.4l-16.4-9.6c.1-.3.3-.6.4-.8l16.4,9.6c-.1.3-.3.6-.4.8"/>
                  <path class="st56" d="M215,527.6l-16.4-9.6c.1-.3.3-.6.5-.8l16.4,9.6c-.2.3-.3.5-.5.8"/>
                  <path class="st67" d="M215.4,526.7l-16.4-9.6c.2-.3.3-.6.5-.8l16.4,9.6c-.2.3-.3.5-.5.8"/>
                  <path class="st107" d="M215.9,525.9l-16.4-9.6c.2-.3.4-.6.6-.8l16.4,9.6c-.2.3-.4.6-.6.8"/>
                  <path class="st48" d="M216.5,525.1l-16.4-9.6c.2-.3.4-.6.6-.9l16.4,9.6c-.2.3-.4.6-.6.9"/>
                  <path class="st38" d="M217.1,524.2l-16.4-9.6c.3-.3.5-.7.8-1l16.4,9.6c-.3.3-.5.6-.8,1"/>
                  <path class="st83" d="M217.9,523.2l-16.4-9.6c.3-.4.7-.8,1.1-1.1l16.4,9.6c-.4.4-.7.7-1.1,1.1"/>
                  <path class="st74" d="M219,522.1l-16.4-9.6c1-1,2.1-1.9,3.3-2.5l16.4,9.6c-1.1.7-2.2,1.5-3.3,2.5"/>
                </g>
              </g>
            </g>
            <path class="st68" d="M640.2,278.3c15.2-8.3,8.4,22.5,9.9,28.8l-437.4,252.5c.5-11.9-3.6-33.2,9.7-40.1,0,0,417.9-241.3,417.9-241.3Z"/>
          </g>
        </g>
        <g class="st73">
          <g class="st86">
            <g>
              <polyline class="st32" points="401 488 390.6 494 390.6 498.3 401 492.3 401 488"/>
              <polyline class="st137" points="401 495.7 390.6 501.6 390.6 505.9 401 499.9 401 495.7"/>
              <polyline class="st137" points="401 503.3 390.6 509.3 390.7 513.6 401 507.6 401 503.3"/>
              <polyline class="st47" points="401.1 511 390.7 517 390.7 521.3 401.1 515.3 401.1 511"/>
              <polyline class="st92" points="401.1 518.7 390.7 524.7 390.7 529 401.1 523 401.1 518.7"/>
              <polyline class="st84" points="401.1 526.4 390.7 532.4 390.7 536.7 401.1 530.7 401.1 526.4"/>
              <polyline class="st80" points="401.1 534.1 390.7 540.1 390.7 544.4 401.1 538.4 401.1 534.1"/>
              <polyline class="st97" points="401.1 541.8 390.8 547.8 390.8 552.1 401.2 546.1 401.1 541.8"/>
              <polyline class="st70" points="401.2 549.5 390.8 555.5 390.8 559.8 401.2 553.8 401.2 549.5"/>
              <polyline class="st111" points="401.2 557.2 390.8 563.2 390.8 567.5 401.2 561.5 401.2 557.2"/>
              <polyline class="st119" points="401.2 564.9 390.8 570.9 390.8 575.2 401.2 569.2 401.2 564.9"/>
              <polyline class="st104" points="401.2 572.6 390.8 578.6 390.9 582.9 401.2 576.9 401.2 572.6"/>
              <path class="st31" d="M387.5,587.6l-.3-95,16.7-9.6.3,95-16.7,9.6M404.5,481.8l-18,10.4.3,96.5,18-10.4-.3-96.5"/>
              <polyline class="st32" points="425.2 474 414.8 480 414.9 484.3 425.2 478.3 425.2 474"/>
              <polyline class="st137" points="425.2 481.7 414.9 487.7 414.9 491.9 425.3 486 425.2 481.7"/>
              <polyline class="st137" points="425.3 489.4 414.9 495.4 414.9 499.6 425.3 493.6 425.3 489.4"/>
              <polyline class="st47" points="425.3 497 414.9 503 414.9 507.3 425.3 501.3 425.3 497"/>
              <polyline class="st92" points="425.3 504.7 414.9 510.7 414.9 515 425.3 509 425.3 504.7"/>
              <polyline class="st111" points="425.3 512.4 414.9 518.4 415 522.7 425.3 516.7 425.3 512.4"/>
              <polyline class="st70" points="425.4 520.1 415 526.1 415 530.4 425.4 524.4 425.4 520.1"/>
              <polyline class="st104" points="425.4 527.8 415 533.8 415 538.1 425.4 532.1 425.4 527.8"/>
              <polyline class="st70" points="425.4 535.5 415 541.5 415 545.8 425.4 539.8 425.4 535.5"/>
              <polyline class="st111" points="425.4 543.2 415 549.2 415 553.5 425.4 547.5 425.4 543.2"/>
              <polyline class="st119" points="425.4 550.9 415.1 556.9 415.1 561.2 425.5 555.2 425.4 550.9"/>
              <polyline class="st104" points="425.5 558.6 415.1 564.6 415.1 568.9 425.5 562.9 425.5 558.6"/>
              <path class="st31" d="M411.7,573.6l-.3-95,16.7-9.6.3,95-16.7,9.6M428.8,467.8l-18,10.4.3,96.5,18-10.4-.3-96.5"/>
              <polyline class="st31" points="621.1 519 504.8 586.1 504.8 587.5 621.1 520.3 621.1 519"/>
              <polyline class="st31" points="621.3 587.6 505 654.7 505 656.1 621.3 588.9 621.3 587.6"/>
              <polyline class="st85" points="538 583.2 504.9 602.4 505 642 538.1 622.9 538 583.2"/>
              <polyline class="st31" points="621.4 537.3 578 562.3 578 563.7 621.4 538.6 621.4 537.3"/>
              <polyline class="st31" points="621.4 545.6 547.9 588.1 547.9 589.4 621.4 546.9 621.4 545.6"/>
              <polyline class="st31" points="621.4 554.6 547.9 597 547.9 598.4 621.4 555.9 621.4 554.6"/>
              <polyline class="st31" points="621.5 563.5 547.9 606 547.9 607.3 621.5 564.9 621.5 563.5"/>
              <polyline class="st31" points="621.5 572.5 547.9 615 547.9 616.3 621.5 573.8 621.5 572.5"/>
              <path class="st135" d="M408.8,635.7l-12.3,22.8-7.2,1.1-8.1,17.7v50.4c.1,0,16.2-9.3,16.2-9.3v-31.3c-2.8,0-1-4.2.5-4.9,2.9-1.4,2.2,3.1.7,4.2v31.3c0,0,16.7-9.6,16.7-9.6v-16.5c-2.8,0-1-4.2.6-4.9,2.9-1.4,2.2,3.1.7,4.2v16.5s19.8-11.4,19.8-11.4v-43.4c-2.8,0-1.1-4.2.5-4.9,2.9-1.4,2.2,3.1.7,4.2v43.4c.1,0,25.7-14.7,25.7-14.7v-31.3c-2.8,0-1.1-4.3.5-4.9,2.9-1.4,2.2,3.1.7,4.2v31.3c0,0,18.1-10.4,18.1-10.4v.7s3.6-2.1,3.6-2.1l-.2-61.1h0l-.3.8-13.2-.5-9.4,24.1-17.2-5.6-9.7,14.6-27.3-4.4"/>
              <path class="st85" d="M408.5,633.9l-12.5,23-7.4,1.1c-.5,1.6-8.9,17.7-7.6,19.2l8.1-17.7,7.2-1.1,12.3-22.8,27.3,4.4,9.7-14.6,17.2,5.6,9.4-24.1,13.2.5c.1-.4.4-1.2.6-1.6l-14.2-.5-9.3,23.8-16.9-5.5-9.7,14.7-27.5-4.5"/>
              <path class="st85" d="M381.3,729l-1.3.7v8.7s1.3-.7,1.3-.7v-8.7M381,642.7l-1.3.7.2,84.8,1.3-.7c0-20.9-.2-64.3-.2-84.8"/>
              <path class="st85" d="M482.4,669.1l-18,10.4v.7s-1.3.7-1.3.7v-.7s-25.5,14.7-25.5,14.7v.7s-1.3.7-1.3.7v-.7s-19.8,11.4-19.8,11.4v.7s-1.3.7-1.3.7v-.7s-16.7,9.6-16.7,9.6v.7s-1.3.7-1.3.7v-.7c-4.9,2.8-18.3,10.6-23.1,13.3v1.5s5.7-3.3,5.7-3.3c1.7-1,100.8-58.2,102.4-59.1,0-.4,0-1.1,0-1.5"/>
              <path class="st85" d="M397.2,687v31.3c0,0,0,.7,0,.7l1.3-.7v-.7s0-31.3,0-31.3c-.4.3-.8.7-1.3.7"/>
              <path class="st85" d="M397.8,682.1c-1.1.7-2,2.2-2,3.5,1.2,5.3,7.2-5.2,2-3.5"/>
              <path class="st85" d="M464.3,648.3c-.4.3-.8.7-1.3.7v31.3c0,0,0,.7,0,.7l1.3-.7v-.7s0-31.3,0-31.3"/>
              <path class="st85" d="M463.6,644.1c-1.6.7-3.3,5-.6,4.9,2.4-.2,4.2-6.3.6-4.9"/>
              <path class="st85" d="M415.2,691.4v16.5s0,.7,0,.7l1.3-.7v-.7s0-16.5,0-16.5c-.4.3-.8.7-1.3.7"/>
              <path class="st85" d="M415.8,686.5c-1.6.7-3.3,5-.6,4.9,2.4-.2,4.2-6.3.6-4.9"/>
              <path class="st85" d="M437.4,651.6c-.4.3-.8.6-1.3.7,0,.9.1,43.3.1,44.2l1.3-.7c0-.9-.1-43.3-.1-44.2"/>
              <path class="st85" d="M436.8,647.4c-1.6.7-3.3,5-.6,4.9,2.4-.2,4.2-6.3.6-4.9"/>
            </g>
          </g>
        </g>
        <g class="st73">
          <g class="st26">
            <g>
              <path class="st95" d="M308.7,540.4v-13.2s14.9-8.6,14.9-8.6v13.2s-14.9,8.6-14.9,8.6M327.4,511.7l-88.8,51.3v22.7c0,0,88.8-51.3,88.8-51.3v-22.7"/>
              <path class="st140" d="M316.2,532.9c-7.6,2.5,1.3-12.9,3-5.1,0,1.9-1.3,4.2-3,5.1M323.7,518.6l-15,8.6v13.2s15-8.6,15-8.6v-13.2"/>
              <path class="st46" d="M316.2,526.1c-2.8,1-4.8,8.8,0,6.8,2.8-1,4.8-8.8,0-6.8"/>
              <path class="st135" d="M246.2,601.5c-7.6,2.5,1.3-12.9,3-5.1,0,1.9-1.3,4.2-3,5.1M253.6,587.2l-15,8.6v13.2s15-8.6,15-8.6v-13.2"/>
              <path class="st46" d="M246.2,594.7c-1.6.9-3,3.2-2.9,5.1,1.7,7.8,10.5-7.6,2.9-5.1"/>
              <path class="st135" d="M246.6,753.2c-7.6,2.5,1.3-12.9,3-5.1,0,1.9-1.3,4.2-3,5.1M254.1,738.8l-15,8.6v13.2s15-8.6,15-8.6v-13.2"/>
              <path class="st46" d="M246.6,746.4c-2.8,1-4.8,8.8,0,6.8,2.8-1,4.8-8.8,0-6.8"/>
              <path class="st61" d="M261.9,591.4v-4.8c.3-.2,1-.7,1,0-.2,1.1.7,4.4-1,4.7M262.4,585.4l-1.4.8v6.7c1.3-.6,2.9-1.6,2.8-3.2-.3-.9.9-5.6-1.4-4.3"/>
              <path class="st61" d="M265.6,587.8l.3-3,.4,2.6-.7.4M266.5,583.1l-1.2.7-.9,7.2.9-.5.2-1.6.9-.5.2,1.4.9-.5-1-6.1"/>
              <polyline class="st61" points="270.3 580.9 267.5 582.5 267.6 583.4 268.5 582.9 268.5 588.6 269.4 588.1 269.4 582.4 270.4 581.8 270.3 580.9"/>
              <path class="st61" d="M271.6,584.4l.3-3,.4,2.6-.7.4M272.5,579.6l-1.2.7-.9,7.2.9-.5.2-1.6.9-.5.2,1.4.9-.5-1-6.1"/>
              <path class="st61" d="M276.8,581.4l.3-3,.4,2.6-.7.4M277.7,576.6l-1.2.7-.9,7.2.9-.5.2-1.6.9-.5.2,1.4.9-.5-1-6.1"/>
              <polyline class="st61" points="282.3 574 281.4 574.5 281.5 578.9 280.3 575.1 279.3 575.7 279.4 582.3 280.2 581.8 280.2 577.6 281.4 581.2 282.3 580.6 282.3 574"/>
              <path class="st61" d="M284.2,577.1l.3-3,.4,2.6-.7.4M285.1,572.3l-1.2.7-.9,7.2.9-.5.2-1.6.9-.5.2,1.4.9-.5-1-6.1"/>
              <polyline class="st61" points="287.6 570.9 286.8 571.4 286.8 578 289.2 576.6 289.2 575.7 287.7 576.6 287.6 570.9"/>
              <path class="st61" d="M292.2,568.2l-.9.5-.7,2.9-.7-2.1-.9.5,1.2,3.2v2.8s.9-.5.9-.5c-.3-1.8.6-5.7,1.2-7.4"/>
              <path class="st61" d="M293.9,567.2c-1.3.8-2.1,3.2-.2,4,.7.3.8.5.8,1,0,.9-1.3,1.6-1.1.3l-.8.6c0,2.8,3.1.2,2.8-1.4.3-1.2-1.9-1.5-1.9-2.5,0-.9,1.1-1.5,1-.2l.8-.6c0-1-.4-1.6-1.3-1.1"/>
              <polyline class="st61" points="297 565.5 296.1 566 296.1 572.7 297 572.1 297 565.5"/>
              <path class="st61" d="M299.1,564.1c-1.3.8-2.1,3.2-.2,4,.7.3.8.5.8,1,0,.9-1.3,1.6-1.1.3l-.8.6c0,2.8,3.1.2,2.8-1.4.3-1.2-1.9-1.5-1.9-2.5,0-.9,1.1-1.5,1-.2l.8-.6c0-1-.4-1.6-1.3-1"/>
              <path class="st61" d="M262.4,742.9v-4.8c.3-.2,1-.7,1,0-.2,1.1.7,4.4-1,4.7M262.9,736.9l-1.4.8v6.7c1.3-.6,2.9-1.6,2.8-3.2-.3-.9.9-5.6-1.4-4.3"/>
              <path class="st61" d="M266,739.3l.3-3,.4,2.6-.7.4M267,734.5l-1.2.7-.9,7.2.9-.5.2-1.6.9-.5.2,1.4.9-.5-1-6.1"/>
              <polyline class="st61" points="270.8 732.3 268 733.9 268 734.9 268.9 734.3 269 740.1 269.8 739.5 269.8 733.8 270.8 733.3 270.8 732.3"/>
              <path class="st61" d="M272,735.8l.3-3,.4,2.6-.7.4M273,731.1l-1.2.7-.9,7.2.9-.5.2-1.6.9-.5.2,1.4.9-.5-1-6.1"/>
              <path class="st61" d="M277.2,732.9l.3-3,.4,2.6-.7.4M278.1,728.1l-1.2.7-.9,7.2.9-.5.2-1.6.9-.5.2,1.4.9-.5-1-6.1"/>
              <polyline class="st61" points="282.7 725.4 281.9 725.9 281.9 730.4 280.7 726.6 279.8 727.1 279.8 733.8 280.7 733.3 280.6 729 281.8 732.6 282.8 732.1 282.7 725.4"/>
              <path class="st61" d="M284.6,728.6l.3-3,.4,2.6-.7.4M285.6,723.8l-1.2.7-.9,7.2.9-.5.2-1.6.9-.5.2,1.4.9-.5-1-6.1"/>
              <polyline class="st61" points="288.1 722.3 287.2 722.8 287.2 729.5 289.7 728.1 289.7 727.1 288.1 728.1 288.1 722.3"/>
              <path class="st61" d="M292.7,719.7l-.9.5-.7,2.9-.7-2.1-.9.5,1.2,3.2v2.8s.9-.5.9-.5c-.3-1.8.6-5.7,1.2-7.4"/>
              <path class="st61" d="M294.3,718.6c-1.3.8-2.1,3.2-.2,4,.7.3.8.6.8,1,0,.9-1.3,1.6-1.1.3l-.8.6c0,2.8,3.1.2,2.8-1.4.3-1.2-1.9-1.5-1.9-2.5,0-.9,1.1-1.5,1-.2l.8-.6c0-1-.4-1.6-1.3-1.1"/>
              <polyline class="st61" points="297.4 716.9 296.5 717.5 296.6 724.1 297.4 723.6 297.4 716.9"/>
              <path class="st61" d="M299.6,715.6c-1.3.8-2.1,3.2-.2,4,.7.3.8.6.8,1,0,.9-1.3,1.6-1.1.3l-.8.6c0,2.8,3.1.2,2.8-1.4.3-1.2-1.9-1.5-1.9-2.5,0-.9,1.1-1.5,1-.2l.8-.6c0-1-.4-1.6-1.3-1"/>
              <path class="st61" d="M247.9,621.4v-4.8c.3-.2,1-.7,1,0-.2,1.1.7,4.4-1,4.7M248.3,615.4l-1.4.8v6.7c1.3-.6,2.9-1.6,2.8-3.2-.3-.9.9-5.6-1.4-4.3"/>
              <path class="st61" d="M251.5,617.8l.3-3,.4,2.6-.7.4M252.5,613l-1.2.7-.9,7.2.9-.5.2-1.6.9-.5.2,1.4.9-.5-1-6.1"/>
              <polyline class="st61" points="256.3 610.8 253.5 612.5 253.5 613.4 254.4 612.9 254.4 618.6 255.3 618.1 255.3 612.3 256.3 611.8 256.3 610.8"/>
              <path class="st61" d="M257.5,614.3l.3-3,.4,2.6-.7.4M258.5,609.6l-1.2.7-.9,7.2.9-.5.2-1.6.9-.5.2,1.4.9-.5-1-6.1"/>
              <path class="st61" d="M262.7,611.4l.3-3,.4,2.6-.7.4M263.6,606.6l-1.2.7-.9,7.2.9-.5.2-1.6.9-.5.2,1.4.9-.5-1-6.1"/>
              <polyline class="st61" points="268.2 603.9 267.4 604.4 267.4 608.9 266.2 605.1 265.3 605.6 265.3 612.3 266.2 611.8 266.1 607.5 267.3 611.1 268.2 610.6 268.2 603.9"/>
              <path class="st61" d="M270.1,607.1l.3-3,.4,2.6-.7.4M271,602.3l-1.2.7-.9,7.2.9-.5.2-1.6.9-.5.2,1.4.9-.5-1-6.1"/>
              <polyline class="st61" points="273.6 600.8 272.7 601.4 272.7 608 275.2 606.6 275.2 605.7 273.6 606.6 273.6 600.8"/>
              <path class="st61" d="M278.1,598.2l-.9.5-.7,2.9-.7-2.2-.9.5,1.2,3.2v2.8s.9-.5.9-.5c-.3-1.8.6-5.7,1.2-7.4"/>
              <path class="st61" d="M279.8,597.1c-1.3.8-2.1,3.2-.2,4,.7.3.8.6.8,1,0,.9-1.3,1.6-1.1.3l-.8.6c0,2.8,3.1.2,2.8-1.4.3-1.2-1.9-1.5-1.9-2.5,0-.9,1.1-1.5,1-.2l.8-.6c0-1-.4-1.6-1.3-1.1"/>
              <polyline class="st61" points="282.9 595.5 282 596 282 602.6 282.9 602.1 282.9 595.5"/>
              <path class="st61" d="M285.1,594.1c-1.3.8-2.1,3.2-.2,4,.7.3.8.6.8,1,0,.9-1.3,1.6-1.1.3l-.8.6c0,2.8,3.1.2,2.8-1.4.3-1.2-1.9-1.5-1.9-2.5,0-.9,1.1-1.5,1-.2l.8-.6c0-1-.4-1.6-1.3-1.1"/>
              <path class="st61" d="M294.5,594.5v-4.8c.3-.2,1-.7,1,0-.2,1.1.7,4.4-1,4.7M295,588.5l-1.4.8v6.7c1.3-.6,2.9-1.6,2.8-3.2-.3-.9.9-5.6-1.4-4.3"/>
              <path class="st61" d="M298.1,590.9l.3-3,.4,2.6-.7.4M299.1,586.1l-1.2.7-.9,7.2.9-.5.2-1.6.9-.5.2,1.4.9-.5-1-6.1"/>
              <polyline class="st61" points="302.9 583.9 300.1 585.5 300.1 586.5 301.1 585.9 301.1 591.6 302 591.1 302 585.4 302.9 584.9 302.9 583.9"/>
              <path class="st61" d="M304.2,587.4l.3-3,.4,2.6-.7.4M305.1,582.6l-1.2.7-.9,7.2.9-.5.2-1.6.9-.5.2,1.4.9-.5-1-6.1"/>
              <path class="st61" d="M309.3,584.4l.3-3,.4,2.6-.7.4M310.3,579.7l-1.2.7-.9,7.2.9-.5.2-1.6.9-.5.2,1.4.9-.5-1-6.1"/>
              <polyline class="st61" points="314.9 577 314 577.5 314 582 312.9 578.1 311.9 578.7 311.9 585.4 312.8 584.9 312.8 580.6 314 584.2 314.9 583.7 314.9 577"/>
              <path class="st61" d="M316.7,580.1l.3-3,.4,2.6-.7.4M317.7,575.4l-1.2.7-.9,7.2.9-.5.2-1.6.9-.5.2,1.4.9-.5-1-6.1"/>
              <polyline class="st61" points="320.2 573.9 319.3 574.4 319.4 581.1 321.8 579.7 321.8 578.7 320.2 579.6 320.2 573.9"/>
              <path class="st61" d="M324.8,571.3l-.9.5-.7,2.9-.7-2.2-.9.5,1.2,3.2v2.8s.9-.5.9-.5c-.3-1.8.6-5.7,1.2-7.4"/>
              <path class="st61" d="M326.5,570.2c-1.3.8-2.1,3.2-.2,4,.7.3.8.6.8,1,0,.9-1.3,1.6-1.1.3l-.8.6c0,2.8,3.1.2,2.8-1.4.3-1.2-1.9-1.5-1.9-2.5,0-.9,1.1-1.5,1-.2l.8-.6c0-1-.4-1.6-1.3-1.1"/>
              <polyline class="st61" points="329.6 568.5 328.7 569 328.7 575.7 329.6 575.2 329.6 568.5"/>
              <path class="st61" d="M331.7,567.2c-1.3.8-2.1,3.2-.2,4,.7.3.8.6.8,1,0,.9-1.3,1.6-1.1.3l-.8.6c0,2.8,3.1.2,2.8-1.4.3-1.2-1.9-1.5-1.9-2.5,0-.9,1.1-1.5,1-.2l.8-.6c0-1-.4-1.6-1.3-1"/>
              <path class="st61" d="M247.9,639.2v-4.8c.3-.2,1-.7,1,0-.2,1.1.7,4.4-1,4.7M248.4,633.2l-1.4.8v6.7c1.3-.6,2.9-1.6,2.8-3.2-.3-.9.9-5.6-1.4-4.3"/>
              <path class="st61" d="M251.6,635.6l.3-3,.4,2.6-.7.4M252.5,630.8l-1.2.7-.9,7.2.9-.5.2-1.6.9-.5.2,1.4.9-.5-1-6.1"/>
              <polyline class="st61" points="256.3 628.6 253.5 630.2 253.5 631.2 254.5 630.6 254.5 636.4 255.4 635.9 255.4 630.1 256.3 629.6 256.3 628.6"/>
              <path class="st61" d="M257.6,632.1l.3-3,.4,2.6-.7.4M258.5,627.4l-1.2.7-.9,7.2.9-.5.2-1.6.9-.5.2,1.4.9-.5-1-6.1"/>
              <path class="st61" d="M262.7,629.2l.3-3,.4,2.6-.7.4M263.7,624.4l-1.2.7-.9,7.2.9-.5.2-1.6.9-.5.2,1.4.9-.5-1-6.1"/>
              <polyline class="st61" points="268.3 621.7 267.4 622.2 267.4 626.7 266.3 622.9 265.3 623.4 265.3 630.1 266.2 629.6 266.2 625.3 267.4 628.9 268.3 628.4 268.3 621.7"/>
              <path class="st61" d="M270.2,624.9l.3-3,.4,2.6-.7.4M271.1,620.1l-1.2.7-.9,7.2.9-.5.2-1.6.9-.5.2,1.4.9-.5-1-6.1"/>
              <polyline class="st61" points="273.6 618.6 272.7 619.1 272.8 625.8 275.2 624.4 275.2 623.5 273.6 624.4 273.6 618.6"/>
              <path class="st61" d="M278.2,616l-.9.5-.7,2.9-.7-2.1-.9.5,1.2,3.2v2.8s.9-.5.9-.5c-.3-1.8.6-5.7,1.2-7.4"/>
              <path class="st61" d="M279.9,614.9c-1.3.8-2.1,3.2-.2,4,.7.3.8.6.8,1,0,.9-1.3,1.6-1.1.3l-.8.6c0,2.8,3.1.2,2.8-1.4.3-1.2-1.9-1.5-1.9-2.5,0-.9,1.1-1.5,1-.2l.8-.6c0-1-.4-1.6-1.3-1.1"/>
              <polyline class="st61" points="283 613.3 282.1 613.8 282.1 620.4 283 619.9 283 613.3"/>
              <path class="st61" d="M285.1,611.9c-1.3.8-2.1,3.2-.2,4,.7.3.8.6.8,1,0,.9-1.3,1.6-1.1.3l-.8.6c0,2.8,3.1.2,2.8-1.4.3-1.2-1.9-1.5-1.9-2.5,0-.9,1.1-1.5,1-.2l.8-.6c0-1-.4-1.6-1.3-1.1"/>
              <path class="st61" d="M294.6,612.3v-4.8c.3-.2,1-.7,1,0-.2,1.1.7,4.4-1,4.7M295,606.3l-1.4.8v6.7c1.3-.6,2.9-1.6,2.8-3.2-.3-.9.9-5.6-1.4-4.3"/>
              <path class="st61" d="M298.2,608.7l.3-3,.4,2.6-.7.4M299.1,603.9l-1.2.7-.9,7.2.9-.5.2-1.6.9-.5.2,1.4.9-.5-1-6.1"/>
              <polyline class="st61" points="303 601.7 300.2 603.3 300.2 604.3 301.1 603.7 301.1 609.4 302 608.9 302 603.2 303 602.7 303 601.7"/>
              <path class="st61" d="M304.2,605.2l.3-3,.4,2.6-.7.4M305.2,600.4l-1.2.7-.9,7.2.9-.5.2-1.6.9-.5.2,1.4.9-.5-1-6.1"/>
              <path class="st61" d="M309.4,602.2l.3-3,.4,2.6-.7.4M310.3,597.5l-1.2.7-.9,7.2.9-.5.2-1.6.9-.5.2,1.4.9-.5-1-6.1"/>
              <polyline class="st61" points="314.9 594.8 314.1 595.3 314.1 599.8 312.9 595.9 312 596.5 312 603.2 312.8 602.7 312.8 598.4 314 602 314.9 601.5 314.9 594.8"/>
              <path class="st61" d="M316.8,597.9l.3-3,.4,2.6-.7.4M317.7,593.2l-1.2.7-.9,7.2.9-.5.2-1.6.9-.5.2,1.4.9-.5-1-6.1"/>
              <polyline class="st61" points="320.3 591.7 319.4 592.2 319.4 598.9 321.9 597.5 321.8 596.5 320.3 597.4 320.3 591.7"/>
              <path class="st61" d="M324.8,589.1l-.9.5-.7,2.9-.7-2.1-.9.5,1.2,3.2v2.8s.9-.5.9-.5c-.3-1.8.6-5.7,1.2-7.4"/>
              <path class="st61" d="M326.5,588c-1.3.8-2.1,3.2-.2,4,.7.3.8.6.8,1,0,.9-1.3,1.6-1.1.3l-.8.6c0,2.8,3.1.2,2.8-1.4.3-1.2-1.9-1.5-1.9-2.5,0-.9,1.1-1.5,1-.2l.8-.6c0-1-.4-1.6-1.3-1.1"/>
              <polyline class="st61" points="329.6 586.3 328.7 586.8 328.7 593.5 329.6 593 329.6 586.3"/>
              <path class="st61" d="M331.7,585c-1.3.8-2.1,3.2-.2,4,.7.3.8.6.8,1,0,.9-1.3,1.6-1.1.3l-.8.6c0,2.8,3.1.2,2.8-1.4.3-1.2-1.9-1.5-1.9-2.5,0-.9,1.1-1.5,1-.2l.8-.6c0-1-.4-1.6-1.3-1"/>
              <path class="st61" d="M248,657v-4.8c.3-.2,1-.7,1,0-.2,1.1.7,4.4-1,4.7M248.4,651l-1.4.8v6.7c1.3-.6,2.9-1.6,2.8-3.2-.3-.9.9-5.6-1.4-4.3"/>
              <path class="st61" d="M251.6,653.4l.3-3,.4,2.6-.7.4M252.6,648.6l-1.2.7-.9,7.2.9-.5.2-1.6.9-.5.2,1.4.9-.5-1-6.1"/>
              <polyline class="st61" points="256.4 646.4 253.6 648 253.6 649 254.5 648.4 254.5 654.2 255.4 653.6 255.4 647.9 256.4 647.4 256.4 646.4"/>
              <path class="st61" d="M257.6,649.9l.3-3,.4,2.6-.7.4M258.6,645.2l-1.2.7-.9,7.2.9-.5.2-1.6.9-.5.2,1.4.9-.5-1-6.1"/>
              <path class="st61" d="M262.8,646.9l.3-3,.4,2.6-.7.4M263.7,642.2l-1.2.7-.9,7.2.9-.5.2-1.6.9-.5.2,1.4.9-.5-1-6.1"/>
              <polyline class="st61" points="268.3 639.5 267.5 640 267.5 644.5 266.3 640.7 265.4 641.2 265.4 647.9 266.3 647.4 266.2 643.1 267.4 646.7 268.3 646.2 268.3 639.5"/>
              <path class="st61" d="M270.2,642.7l.3-3,.4,2.6-.7.4M271.1,637.9l-1.2.7-.9,7.2.9-.5.2-1.6.9-.5.2,1.4.9-.5-1-6.1"/>
              <polyline class="st61" points="273.7 636.4 272.8 636.9 272.8 643.6 275.3 642.2 275.3 641.2 273.7 642.1 273.7 636.4"/>
              <path class="st61" d="M278.2,633.8l-.9.5-.7,2.9-.7-2.1-.9.5,1.2,3.2v2.8s.9-.5.9-.5c-.3-1.8.6-5.7,1.2-7.4"/>
              <path class="st61" d="M279.9,632.7c-1.3.8-2.1,3.2-.2,4,.7.3.8.5.8,1,0,.9-1.3,1.6-1.1.3l-.8.6c0,2.8,3.1.2,2.8-1.4.3-1.2-1.9-1.5-1.9-2.5,0-.9,1.1-1.5,1-.2l.8-.6c0-1-.4-1.6-1.3-1.1"/>
              <polyline class="st61" points="283 631 282.1 631.5 282.2 638.2 283 637.7 283 631"/>
              <path class="st61" d="M285.2,629.7c-1.3.8-2.1,3.2-.2,4,.7.3.8.5.8,1,0,.9-1.3,1.6-1.1.3l-.8.6c0,2.8,3.1.2,2.8-1.4.3-1.2-1.9-1.5-1.9-2.5,0-.9,1.1-1.5,1-.2l.8-.6c0-1-.4-1.6-1.3-1.1"/>
              <path class="st61" d="M294.6,630.1v-4.8c.3-.2,1-.7,1,0-.2,1.1.7,4.4-1,4.7M295.1,624.1l-1.4.8v6.7c1.3-.6,2.9-1.6,2.8-3.2-.3-.9.9-5.6-1.4-4.3"/>
              <path class="st61" d="M298.3,626.5l.3-3,.4,2.6-.7.4M299.2,621.7l-1.2.7-.9,7.2.9-.5.2-1.6.9-.5.2,1.4.9-.5-1-6.1"/>
              <polyline class="st61" points="303 619.5 300.2 621.1 300.2 622.1 301.2 621.5 301.2 627.2 302.1 626.7 302.1 621 303 620.4 303 619.5"/>
              <path class="st61" d="M304.3,623l.3-3,.4,2.6-.7.4M305.2,618.2l-1.2.7-.9,7.2.9-.5.2-1.6.9-.5.2,1.4.9-.5-1-6.1"/>
              <path class="st61" d="M309.4,620l.3-3,.4,2.6-.7.4M310.4,615.2l-1.2.7-.9,7.2.9-.5.2-1.6.9-.5.2,1.4.9-.5-1-6.1"/>
              <polyline class="st61" points="315 612.6 314.1 613.1 314.1 617.6 313 613.7 312 614.3 312 621 312.9 620.5 312.9 616.2 314.1 619.8 315 619.3 315 612.6"/>
              <path class="st61" d="M316.8,615.7l.3-3,.4,2.6-.7.4M317.8,611l-1.2.7-.9,7.2.9-.5.2-1.6.9-.5.2,1.4.9-.5-1-6.1"/>
              <polyline class="st61" points="320.3 609.5 319.4 610 319.5 616.7 321.9 615.3 321.9 614.3 320.3 615.2 320.3 609.5"/>
              <path class="st61" d="M324.9,606.9l-.9.5-.7,2.9-.7-2.1-.9.5,1.2,3.2v2.8s.9-.5.9-.5c-.3-1.8.6-5.7,1.2-7.4"/>
              <path class="st61" d="M326.6,605.8c-1.3.8-2.1,3.2-.2,4,.7.3.8.6.8,1,0,.9-1.3,1.6-1.1.3l-.8.6c0,2.8,3.1.2,2.8-1.4.3-1.2-1.9-1.5-1.9-2.5,0-.9,1.1-1.5,1-.2l.8-.6c0-1-.4-1.6-1.3-1.1"/>
              <polyline class="st61" points="329.7 604.1 328.8 604.6 328.8 611.3 329.7 610.8 329.7 604.1"/>
              <path class="st61" d="M331.8,602.8c-1.3.8-2.1,3.2-.2,4,.7.3.8.5.8,1,0,.9-1.3,1.6-1.1.3l-.8.6c0,2.8,3.1.2,2.8-1.4.3-1.2-1.9-1.5-1.9-2.5,0-.9,1.1-1.5,1-.2l.8-.6c0-1-.4-1.6-1.3-1"/>
              <path class="st61" d="M248,674.8v-4.8c.3-.2,1-.7,1,0-.2,1.1.7,4.4-1,4.7M248.5,668.8l-1.4.8v6.7c1.3-.6,2.9-1.6,2.8-3.2-.3-.9.9-5.6-1.4-4.3"/>
              <path class="st61" d="M251.7,671.2l.3-3,.4,2.6-.7.4M252.6,666.4l-1.2.7-.9,7.2.9-.5.2-1.6.9-.5.2,1.4.9-.5-1-6.1"/>
              <polyline class="st61" points="256.4 664.2 253.6 665.8 253.6 666.8 254.6 666.2 254.6 671.9 255.5 671.4 255.5 665.7 256.4 665.2 256.4 664.2"/>
              <path class="st61" d="M257.7,667.7l.3-3,.4,2.6-.7.4M258.6,662.9l-1.2.7-.9,7.2.9-.5.2-1.6.9-.5.2,1.4.9-.5-1-6.1"/>
              <path class="st61" d="M262.8,664.7l.3-3,.4,2.6-.7.4M263.8,660l-1.2.7-.9,7.2.9-.5.2-1.6.9-.5.2,1.4.9-.5-1-6.1"/>
              <polyline class="st61" points="268.4 657.3 267.5 657.8 267.5 662.3 266.4 658.5 265.4 659 265.4 665.7 266.3 665.2 266.3 660.9 267.5 664.5 268.4 664 268.4 657.3"/>
              <path class="st61" d="M270.3,660.5l.3-3,.4,2.6-.7.4M271.2,655.7l-1.2.7-.9,7.2.9-.5.2-1.6.9-.5.2,1.4.9-.5-1-6.1"/>
              <polyline class="st61" points="273.7 654.2 272.8 654.7 272.9 661.4 275.3 660 275.3 659 273.7 659.9 273.7 654.2"/>
              <path class="st61" d="M278.3,651.6l-.9.5-.7,2.9-.7-2.2-.9.5,1.2,3.2v2.8s.9-.5.9-.5c-.3-1.8.6-5.7,1.2-7.4"/>
              <path class="st61" d="M280,650.5c-1.3.8-2.1,3.2-.2,4,.7.3.8.6.8,1,0,.9-1.3,1.6-1.1.3l-.8.6c0,2.8,3.1.2,2.8-1.4.3-1.2-1.9-1.5-1.9-2.5,0-.9,1.1-1.5,1-.2l.8-.6c0-1-.4-1.6-1.3-1.1"/>
              <polyline class="st61" points="283.1 648.8 282.2 649.3 282.2 656 283.1 655.5 283.1 648.8"/>
              <path class="st61" d="M285.2,647.5c-1.3.8-2.1,3.2-.2,4,.7.3.8.6.8,1,0,.9-1.3,1.6-1.1.3l-.8.6c0,2.8,3.1.2,2.8-1.4.3-1.2-1.9-1.5-1.9-2.5,0-.9,1.1-1.5,1-.2l.8-.6c0-1-.4-1.6-1.3-1.1"/>
              <path class="st61" d="M294.7,647.9v-4.8c.3-.2,1-.7,1,0-.2,1.1.7,4.4-1,4.7M295.1,641.9l-1.4.8v6.7c1.3-.6,2.9-1.6,2.8-3.2-.3-.9.9-5.6-1.4-4.3"/>
              <path class="st61" d="M298.3,644.3l.3-3,.4,2.6-.7.4M299.2,639.5l-1.2.7-.9,7.2.9-.5.2-1.6.9-.5.2,1.4.9-.5-1-6.1"/>
              <polyline class="st61" points="303.1 637.3 300.3 638.9 300.3 639.9 301.2 639.3 301.2 645 302.1 644.5 302.1 638.8 303.1 638.2 303.1 637.3"/>
              <path class="st61" d="M304.3,640.8l.3-3,.4,2.6-.7.4M305.3,636l-1.2.7-.9,7.2.9-.5.2-1.6.9-.5.2,1.4.9-.5-1-6.1"/>
              <path class="st61" d="M309.5,637.8l.3-3,.4,2.6-.7.4M310.4,633l-1.2.7-.9,7.2.9-.5.2-1.6.9-.5.2,1.4.9-.5-1-6.1"/>
              <polyline class="st61" points="315 630.4 314.2 630.9 314.2 635.4 313 631.5 312.1 632.1 312.1 638.8 312.9 638.3 312.9 634 314.1 637.6 315 637 315 630.4"/>
              <path class="st61" d="M316.9,633.5l.3-3,.4,2.6-.7.4M317.8,628.7l-1.2.7-.9,7.2.9-.5.2-1.6.9-.5.2,1.4.9-.5-1-6.1"/>
              <polyline class="st61" points="320.4 627.3 319.5 627.8 319.5 634.5 322 633.1 322 632.1 320.4 633 320.4 627.3"/>
              <path class="st61" d="M324.9,624.6l-.9.5-.7,2.9-.7-2.2-.9.5,1.2,3.2v2.8s.9-.5.9-.5c-.3-1.8.6-5.7,1.2-7.4"/>
              <path class="st61" d="M326.6,623.6c-1.3.8-2.1,3.2-.2,4,.7.3.8.6.8,1,0,.9-1.3,1.6-1.1.3l-.8.6c0,2.8,3.1.2,2.8-1.4.3-1.2-1.9-1.5-1.9-2.5,0-.9,1.1-1.5,1-.2l.8-.6c0-1-.4-1.6-1.3-1.1"/>
              <polyline class="st61" points="329.7 621.9 328.8 622.4 328.8 629.1 329.7 628.6 329.7 621.9"/>
              <path class="st61" d="M331.9,620.6c-1.3.8-2.1,3.2-.2,4,.7.3.8.6.8,1,0,.9-1.3,1.6-1.1.3l-.8.6c0,2.8,3.1.2,2.8-1.4.3-1.2-1.9-1.5-1.9-2.5,0-.9,1.1-1.5,1-.2l.8-.6c0-1-.4-1.6-1.3-1"/>
              <path class="st61" d="M248.1,692.6v-4.8c.3-.2,1-.7,1,0-.2,1.1.7,4.4-1,4.7M248.5,686.6l-1.4.8v6.7c1.3-.6,2.9-1.6,2.8-3.2-.3-.9.9-5.6-1.4-4.3"/>
              <path class="st61" d="M251.7,689l.3-3,.4,2.6-.7.4M252.7,684.2l-1.2.7-.9,7.2.9-.5.2-1.6.9-.5.2,1.4.9-.5-1-6.1"/>
              <polyline class="st61" points="256.5 682 253.7 683.6 253.7 684.6 254.6 684 254.6 689.7 255.5 689.2 255.5 683.5 256.5 682.9 256.5 682"/>
              <path class="st61" d="M257.7,685.5l.3-3,.4,2.6-.7.4M258.7,680.7l-1.2.7-.9,7.2.9-.5.2-1.6.9-.5.2,1.4.9-.5-1-6.1"/>
              <path class="st61" d="M262.9,682.5l.3-3,.4,2.6-.7.4M263.8,677.8l-1.2.7-.9,7.2.9-.5.2-1.6.9-.5.2,1.4.9-.5-1-6.1"/>
              <polyline class="st61" points="268.4 675.1 267.6 675.6 267.6 680.1 266.4 676.2 265.5 676.8 265.5 683.5 266.4 683 266.3 678.7 267.5 682.3 268.4 681.8 268.4 675.1"/>
              <path class="st61" d="M270.3,678.2l.3-3,.4,2.6-.7.4M271.2,673.5l-1.2.7-.9,7.2.9-.5.2-1.6.9-.5.2,1.4.9-.5-1-6.1"/>
              <polyline class="st61" points="273.8 672 272.9 672.5 272.9 679.2 275.4 677.8 275.4 676.8 273.8 677.7 273.8 672"/>
              <path class="st61" d="M278.3,669.4l-.9.5-.7,2.9-.7-2.2-.9.5,1.2,3.2v2.8s.9-.5.9-.5c-.3-1.8.6-5.7,1.2-7.4"/>
              <path class="st61" d="M280,668.3c-1.3.8-2.1,3.2-.2,4,.7.3.8.6.8,1,0,.9-1.3,1.6-1.1.3l-.8.6c0,2.8,3.1.2,2.8-1.4.3-1.2-1.9-1.5-1.9-2.5,0-.9,1.1-1.5,1-.2l.8-.6c0-1-.4-1.6-1.3-1.1"/>
              <polyline class="st61" points="283.1 666.6 282.2 667.1 282.3 673.8 283.1 673.3 283.1 666.6"/>
              <path class="st61" d="M285.3,665.3c-1.3.8-2.1,3.2-.2,4,.7.3.8.6.8,1,0,.9-1.3,1.6-1.1.3l-.8.6c0,2.8,3.1.2,2.8-1.4.3-1.2-1.9-1.5-1.9-2.5,0-.9,1.1-1.5,1-.2l.8-.6c0-1-.4-1.6-1.3-1.1"/>
              <path class="st61" d="M294.7,665.7v-4.8c.3-.2,1-.7,1,0-.2,1.1.7,4.4-1,4.7M295.2,659.6l-1.4.8v6.7c1.3-.6,2.9-1.6,2.8-3.2-.3-.9.9-5.6-1.4-4.3"/>
              <path class="st61" d="M298.4,662l.3-3,.4,2.6-.7.4M299.3,657.3l-1.2.7-.9,7.2.9-.5.2-1.6.9-.5.2,1.4.9-.5-1-6.1"/>
              <polyline class="st61" points="303.1 655.1 300.3 656.7 300.3 657.6 301.3 657.1 301.3 662.8 302.2 662.3 302.2 656.6 303.1 656 303.1 655.1"/>
              <path class="st61" d="M304.4,658.6l.3-3,.4,2.6-.7.4M305.3,653.8l-1.2.7-.9,7.2.9-.5.2-1.6.9-.5.2,1.4.9-.5-1-6.1"/>
              <path class="st61" d="M309.5,655.6l.3-3,.4,2.6-.7.4M310.5,650.8l-1.2.7-.9,7.2.9-.5.2-1.6.9-.5.2,1.4.9-.5-1-6.1"/>
              <polyline class="st61" points="315.1 648.2 314.2 648.7 314.2 653.1 313.1 649.3 312.1 649.9 312.1 656.6 313 656.1 313 651.8 314.2 655.4 315.1 654.8 315.1 648.2"/>
              <path class="st61" d="M316.9,651.3l.3-3,.4,2.6-.7.4M317.9,646.5l-1.2.7-.9,7.2.9-.5.2-1.6.9-.5.2,1.4.9-.5-1-6.1"/>
              <polyline class="st61" points="320.4 645.1 319.5 645.6 319.6 652.3 322 650.8 322 649.9 320.4 650.8 320.4 645.1"/>
              <path class="st61" d="M325,642.4l-.9.5-.7,2.9-.7-2.2-.9.5,1.2,3.2v2.8s.9-.5.9-.5c-.3-1.8.6-5.7,1.2-7.4"/>
              <path class="st61" d="M326.7,641.4c-1.3.8-2.1,3.2-.2,4,.7.3.8.6.8,1,0,.9-1.3,1.6-1.1.3l-.8.6c0,2.8,3.1.2,2.8-1.4.3-1.2-1.9-1.5-1.9-2.5,0-.9,1.1-1.5,1-.2l.8-.6c0-1-.4-1.6-1.3-1.1"/>
              <polyline class="st61" points="329.8 639.7 328.9 640.2 328.9 646.9 329.8 646.4 329.8 639.7"/>
              <path class="st61" d="M331.9,638.4c-1.3.8-2.1,3.2-.2,4,.7.3.8.6.8,1,0,.9-1.3,1.6-1.1.3l-.8.6c0,2.8,3.1.2,2.8-1.4.3-1.2-1.9-1.5-1.9-2.5,0-.9,1.1-1.5,1-.2l.8-.6c0-1-.4-1.6-1.3-1"/>
              <path class="st61" d="M248.1,710.4v-4.8c.3-.2,1-.7,1,0-.2,1.1.7,4.4-1,4.7M248.6,704.4l-1.4.8v6.7c1.3-.6,2.9-1.6,2.8-3.2-.3-.9.8-5.6-1.4-4.3"/>
              <path class="st61" d="M251.8,706.8l.3-3,.4,2.6-.7.4M252.7,702l-1.2.7-.9,7.2.9-.5.2-1.6.9-.5.2,1.4.9-.5-1-6.1"/>
              <polyline class="st61" points="256.5 699.8 253.7 701.4 253.7 702.4 254.7 701.8 254.7 707.5 255.6 707 255.6 701.3 256.5 700.7 256.5 699.8"/>
              <path class="st61" d="M257.8,703.3l.3-3,.4,2.6-.7.4M258.7,698.5l-1.2.7-.9,7.2.9-.5.2-1.6.9-.5.2,1.4.9-.5-1-6.1"/>
              <path class="st61" d="M262.9,700.3l.3-3,.4,2.6-.7.4M263.9,695.5l-1.2.7-.9,7.2.9-.5.2-1.6.9-.5.2,1.4.9-.5-1-6.1"/>
              <polyline class="st61" points="268.5 692.9 267.6 693.4 267.6 697.9 266.5 694 265.5 694.6 265.5 701.3 266.4 700.8 266.4 696.5 267.6 700.1 268.5 699.6 268.5 692.9"/>
              <path class="st61" d="M270.4,696l.3-3,.4,2.6-.7.4M271.3,691.3l-1.2.7-.9,7.2.9-.5.2-1.6.9-.5.2,1.4.9-.5-1-6.1"/>
              <polyline class="st61" points="273.8 689.8 272.9 690.3 273 697 275.4 695.6 275.4 694.6 273.8 695.5 273.8 689.8"/>
              <path class="st61" d="M278.4,687.2l-.9.5-.7,2.9-.7-2.2-.9.5,1.2,3.2v2.8s.9-.5.9-.5c-.3-1.8.6-5.7,1.2-7.4"/>
              <path class="st61" d="M280.1,686.1c-1.3.8-2.1,3.2-.2,4,.7.3.8.6.8,1,0,.9-1.3,1.6-1.1.3l-.8.6c0,2.8,3.1.2,2.8-1.4.3-1.2-1.9-1.5-1.9-2.5,0-.9,1.1-1.5,1-.2l.8-.6c0-1-.4-1.6-1.3-1.1"/>
              <polyline class="st61" points="283.2 684.4 282.3 684.9 282.3 691.6 283.2 691.1 283.2 684.4"/>
              <path class="st61" d="M285.3,683.1c-1.3.8-2.1,3.2-.2,4,.7.3.8.6.8,1,0,.9-1.3,1.6-1.1.3l-.8.6c0,2.8,3.1.2,2.8-1.4.3-1.2-1.9-1.5-1.9-2.5,0-.9,1.1-1.5,1-.2l.8-.6c0-1-.4-1.6-1.3-1.1"/>
              <path class="st61" d="M294.8,683.4v-4.8c.3-.2,1-.7,1,0-.2,1.1.7,4.4-1,4.7M295.2,677.4l-1.4.8v6.7c1.3-.6,2.9-1.6,2.8-3.2-.3-.9.8-5.6-1.4-4.3"/>
              <path class="st61" d="M298.4,679.8l.3-3,.4,2.6-.7.4M299.3,675.1l-1.2.7-.9,7.2.9-.5.2-1.6.9-.5.2,1.4.9-.5-1-6.1"/>
              <polyline class="st61" points="303.2 672.9 300.4 674.5 300.4 675.4 301.3 674.9 301.3 680.6 302.2 680.1 302.2 674.4 303.2 673.8 303.2 672.9"/>
              <path class="st61" d="M304.4,676.4l.3-3,.4,2.6-.7.4M305.4,671.6l-1.2.7-.9,7.2.9-.5.2-1.6.9-.5.2,1.4.9-.5-1-6.1"/>
              <path class="st61" d="M309.6,673.4l.3-3,.4,2.6-.7.4M310.5,668.6l-1.2.7-.9,7.2.9-.5.2-1.6.9-.5.2,1.4.9-.5-1-6.1"/>
              <polyline class="st61" points="315.1 666 314.3 666.5 314.3 670.9 313.1 667.1 312.2 667.7 312.2 674.3 313 673.8 313 669.6 314.2 673.2 315.1 672.6 315.1 666"/>
              <path class="st61" d="M317,669.1l.3-3,.4,2.6-.7.4M317.9,664.3l-1.2.7-.9,7.2.9-.5.2-1.6.9-.5.2,1.4.9-.5-1-6.1"/>
              <polyline class="st61" points="320.5 662.9 319.6 663.4 319.6 670.1 322.1 668.6 322.1 667.7 320.5 668.6 320.5 662.9"/>
              <path class="st61" d="M325,660.2l-.9.5-.7,2.9-.7-2.2-.9.5,1.2,3.2v2.8s.9-.5.9-.5c-.3-1.8.6-5.7,1.2-7.4"/>
              <path class="st61" d="M326.7,659.2c-1.3.8-2.1,3.2-.2,4,.7.3.8.6.8,1,0,.9-1.3,1.6-1.1.3l-.8.6c0,2.8,3.1.2,2.8-1.4.3-1.2-1.9-1.5-1.9-2.5,0-.9,1.1-1.5,1-.2l.8-.6c0-1-.4-1.6-1.3-1.1"/>
              <polyline class="st61" points="329.8 657.5 328.9 658 328.9 664.7 329.8 664.2 329.8 657.5"/>
              <path class="st61" d="M332,656.1c-1.3.8-2.1,3.2-.2,4,.7.3.8.6.8,1,0,.9-1.3,1.6-1.1.3l-.8.6c0,2.8,3.1.2,2.8-1.4.3-1.2-1.9-1.5-1.9-2.5,0-.9,1.1-1.5,1-.2l.8-.6c0-1-.4-1.6-1.3-1"/>
              <path class="st61" d="M248.2,728.2v-4.8c.3-.2,1-.7,1,0-.2,1.1.7,4.4-1,4.7M248.6,722.2l-1.4.8v6.7c1.3-.6,2.9-1.6,2.8-3.2-.3-.9.8-5.6-1.4-4.3"/>
              <path class="st61" d="M251.8,724.6l.3-3,.4,2.6-.7.4M252.8,719.8l-1.2.7-.9,7.2.9-.5.2-1.6.9-.5.2,1.4.9-.5-1-6.1"/>
              <polyline class="st61" points="256.6 717.6 253.8 719.2 253.8 720.2 254.7 719.6 254.8 725.3 255.6 724.8 255.6 719.1 256.6 718.5 256.6 717.6"/>
              <path class="st61" d="M257.8,721.1l.3-3,.4,2.6-.7.4M258.8,716.3l-1.2.7-.9,7.2.9-.5.2-1.6.9-.5.2,1.4.9-.5-1-6.1"/>
              <path class="st61" d="M263,718.1l.3-3,.4,2.6-.7.4M263.9,713.3l-1.2.7-.9,7.2.9-.5.2-1.6.9-.5.2,1.4.9-.5-1-6.1"/>
              <polyline class="st61" points="268.5 710.7 267.7 711.2 267.7 715.7 266.5 711.8 265.6 712.4 265.6 719.1 266.5 718.6 266.4 714.3 267.6 717.9 268.5 717.4 268.5 710.7"/>
              <path class="st61" d="M270.4,713.8l.3-3,.4,2.6-.7.4M271.4,709l-1.2.7-.9,7.2.9-.5.2-1.6.9-.5.2,1.4.9-.5-1-6.1"/>
              <polyline class="st61" points="273.9 707.6 273 708.1 273 714.8 275.5 713.4 275.5 712.4 273.9 713.3 273.9 707.6"/>
              <path class="st61" d="M278.4,704.9l-.9.5-.7,2.9-.7-2.2-.9.5,1.2,3.2v2.8s.9-.5.9-.5c-.3-1.8.6-5.7,1.2-7.4"/>
              <path class="st61" d="M280.1,703.9c-1.3.8-2.1,3.2-.2,4,.7.3.8.6.8,1,0,.9-1.3,1.6-1.1.3l-.8.6c0,2.8,3.1.2,2.8-1.4.3-1.2-1.9-1.5-1.9-2.5,0-.9,1.1-1.5,1-.2l.8-.6c0-1-.4-1.6-1.3-1.1"/>
              <polyline class="st61" points="283.2 702.2 282.3 702.7 282.4 709.4 283.2 708.9 283.2 702.2"/>
              <path class="st61" d="M285.4,700.9c-1.3.8-2.1,3.2-.2,4,.7.3.8.6.8,1,0,.9-1.3,1.6-1.1.3l-.8.6c0,2.8,3.1.2,2.8-1.4.3-1.2-1.9-1.5-1.9-2.5,0-.9,1.1-1.5,1-.2l.8-.6c0-1-.4-1.6-1.3-1.1"/>
              <path class="st61" d="M294.8,701.2v-4.8c.3-.2,1-.7,1,0-.2,1.1.7,4.4-1,4.7M295.3,695.2l-1.4.8v6.7c1.3-.6,2.9-1.6,2.8-3.2-.3-.9.8-5.6-1.4-4.3"/>
              <path class="st61" d="M298.5,697.6l.3-3,.4,2.6-.7.4M299.4,692.9l-1.2.7-.9,7.2.9-.5.2-1.6.9-.5.2,1.4.9-.5-1-6.1"/>
              <polyline class="st61" points="303.2 690.6 300.4 692.3 300.4 693.2 301.4 692.7 301.4 698.4 302.3 697.9 302.3 692.2 303.2 691.6 303.2 690.6"/>
              <path class="st61" d="M304.5,694.2l.3-3,.4,2.6-.7.4M305.4,689.4l-1.2.7-.9,7.2.9-.5.2-1.6.9-.5.2,1.4.9-.5-1-6.1"/>
              <path class="st61" d="M309.6,691.2l.3-3,.4,2.6-.7.4M310.6,686.4l-1.2.7-.9,7.2.9-.5.2-1.6.9-.5.2,1.4.9-.5-1-6.1"/>
              <polyline class="st61" points="315.2 683.7 314.3 684.2 314.3 688.7 313.2 684.9 312.2 685.5 312.2 692.1 313.1 691.6 313.1 687.4 314.3 691 315.2 690.4 315.2 683.7"/>
              <path class="st61" d="M317.1,686.9l.3-3,.4,2.6-.7.4M318,682.1l-1.2.7-.9,7.2.9-.5.2-1.6.9-.5.2,1.4.9-.5-1-6.1"/>
              <polyline class="st61" points="320.5 680.7 319.6 681.2 319.7 687.8 322.1 686.4 322.1 685.5 320.5 686.4 320.5 680.7"/>
              <path class="st61" d="M325.1,678l-.9.5-.7,2.9-.7-2.2-.9.5,1.2,3.2v2.8s.9-.5.9-.5c-.3-1.8.6-5.7,1.2-7.4"/>
              <path class="st61" d="M326.8,676.9c-1.3.8-2.1,3.2-.2,4,.7.3.8.6.8,1,0,.9-1.3,1.6-1.1.3l-.8.6c0,2.8,3.1.2,2.8-1.4.3-1.2-1.9-1.5-1.9-2.5,0-.9,1.1-1.5,1-.2l.8-.6c0-1-.4-1.6-1.3-1.1"/>
              <polyline class="st61" points="329.9 675.3 329 675.8 329 682.5 329.9 681.9 329.9 675.3"/>
              <path class="st61" d="M332,673.9c-1.3.8-2.1,3.2-.2,4,.7.3.8.6.8,1,0,.9-1.3,1.6-1.1.3l-.8.6c0,2.8,3.1.2,2.8-1.4.3-1.2-1.9-1.5-1.9-2.5,0-.9,1.1-1.5,1-.2l.8-.6c0-1-.4-1.6-1.3-1"/>
            </g>
          </g>
        </g>
      </g>
      <g>
        <g class="st73">
          <g>
            <path class="st33" d="M688.4,307l9.9,5.7c-1.1-.6-2.6-.6-4.3.4l-9.9-5.7c1.7-1,3.2-1.1,4.3-.4Z"/>
            <g class="st75">
              <g class="st73">
                <path class="st23" d="M693.9,313.2l-9.9-5.7c.3-.2.6-.3.9-.4l9.9,5.7c-.3.1-.6.3-.9.4"/>
                <path class="st45" d="M694.8,312.8l-9.9-5.7c.2-.1.5-.2.7-.2l9.9,5.7c-.2,0-.5.1-.7.2"/>
                <path class="st17" d="M695.5,312.5l-9.9-5.7c.2,0,.4,0,.5-.1l9.9,5.7c-.2,0-.4,0-.5.1"/>
                <path class="st36" d="M696,312.4l-9.9-5.7c.2,0,.3,0,.5,0l9.9,5.7c-.1,0-.3,0-.5,0"/>
                <path class="st105" d="M696.5,312.4l-9.9-5.7c.1,0,.3,0,.4,0l9.9,5.7c-.1,0-.3,0-.4,0"/>
                <path class="st19" d="M696.9,312.4l-9.9-5.7c.6-.2,9.8,5.7,10.2,5.8-.1,0-.2,0-.4,0"/>
                <path class="st87" d="M697.3,312.4l-9.9-5.7c.5,0,9.8,5.7,10.2,5.8-.1,0-.2,0-.3,0"/>
                <path class="st134" d="M697.6,312.5l-9.9-5.7c.5,0,9.8,5.7,10.2,5.8-.1,0-.2,0-.3-.1"/>
                <path class="st82" d="M697.9,312.6l-9.9-5.7c.4.2,9.8,5.7,10.2,5.9,0,0-.2-.1-.3-.1"/>
                <path class="st57" d="M698.2,312.7l-9.9-5.7s9.9,5.7,9.9,5.8c0,0,0,0,0,0"/>
              </g>
            </g>
          </g>
          <g class="st73">
            <g class="st20">
              <path class="st132" d="M505.8,547.7c-2.5-2.1-12.4-5.1-11.6-9.7l9.9,5.7c0,1.9.7,3.3,1.8,3.9"/>
            </g>
          </g>
          <polygon class="st127" points="504 543.8 494.1 538 493.8 424.3 503.7 430 504 543.8"/>
          <polygon class="st71" points="509.8 419.5 499.9 413.8 684 307.5 693.9 313.2 509.8 419.5"/>
          <g>
            <path class="st128" d="M503.7,430l-9.9-5.7c0-3.9,2.7-8.6,6.1-10.5l9.9,5.7c-3.4,1.9-6.1,6.7-6.1,10.5Z"/>
            <g class="st21">
              <g class="st73">
                <path class="st78" d="M503.7,430l-9.9-5.7c0-.4,0-.8,0-1.2l9.9,5.7c0,.4,0,.8,0,1.2"/>
                <path class="st114" d="M503.8,428.8l-9.9-5.7c0-.3,0-.6.1-.8l9.9,5.7c0,.3-.1.6-.1.8"/>
                <path class="st116" d="M503.9,428l-9.9-5.7c0-.2.1-.5.2-.7l9.9,5.7c0,.2-.1.5-.2.7"/>
                <path class="st108" d="M504.1,427.3l-9.9-5.7c0-.2.1-.4.2-.6l9.9,5.7c0,.2-.1.4-.2.6"/>
                <path class="st40" d="M504.3,426.7l-9.9-5.7c0-.2.1-.4.2-.6l9.9,5.7c0,.2-.1.4-.2.6"/>
                <path class="st113" d="M504.5,426.1l-9.9-5.7c0-.2.1-.4.2-.5l9.9,5.7c0,.2-.2.4-.2.5"/>
                <path class="st103" d="M504.7,425.6l-9.9-5.7c0-.2.2-.4.2-.5l9.9,5.7c0,.2-.2.4-.2.5"/>
                <path class="st37" d="M504.9,425l-9.9-5.7c0-.2.2-.3.3-.5l9.9,5.7c0,.2-.2.3-.3.5"/>
                <path class="st44" d="M505.2,424.5l-9.9-5.7c0-.2.2-.3.3-.5l9.9,5.7c0,.2-.2.3-.3.5"/>
                <path class="st24" d="M505.5,424l-9.9-5.7c.1-.2.2-.3.3-.5l9.9,5.7c-.1.2-.2.3-.3.5"/>
                <path class="st90" d="M505.8,423.5l-9.9-5.7c.1-.2.2-.4.4-.5l9.9,5.7c-.1.2-.2.3-.4.5"/>
                <path class="st129" d="M506.2,422.9l-9.9-5.7c.1-.2.3-.4.4-.6l9.9,5.7c-.1.2-.3.4-.4.6"/>
                <path class="st55" d="M506.6,422.4l-9.9-5.7c.2-.2.3-.4.5-.6l9.9,5.7c-.2.2-.3.4-.5.6"/>
                <path class="st88" d="M507.1,421.8l-9.9-5.7c.2-.2.4-.5.7-.7l9.9,5.7c-.2.2-.5.5-.7.7"/>
                <path class="st30" d="M507.7,421.1l-9.9-5.7c.6-.6,1.3-1.2,2-1.6l9.9,5.7c-.7.4-1.4,1-2,1.6"/>
              </g>
            </g>
          </g>
          <path class="st120" d="M700.3,405.3c-1.1,8.4,3.9,30.9-6,35.7,0,0-184.2,106.3-184.2,106.3-3.4,1.9-6.1.4-6.1-3.5l-.3-113.7c0-.7.3-3.1.9-4.2,1.2-2.3.6-2.9,4.3-5.7,3.9-3.1,10.8-6.1,17.4-10.1,1.2-.7,2.3-1.3,3.6-2,40.6-25.8,116.9-67,149-86,10.3-6.1,15.1-8.3,15.2-8.9,3.4-1.9,6.1-.4,6.1,3.5l.2,58.9"/>
        </g>
        <g>
          <g>
            <path class="st61" d="M538.9,489.6c-3.6,2.7-7.6,1.6-7.6-4,0,0,0-52.5,0-52.5,0-4.6,2.8-10,6.3-12,3.6-2.7,7.6-1.6,7.6,4,0,0,0,52.5,0,52.5,0,4.6-2.8,10-6.3,12Z"/>
            <path class="st61" d="M565,474.5c-3.6,2.7-7.6,1.6-7.6-4,0,0,0-52.5,0-52.5,0-4.6,2.8-10,6.3-12,3.6-2.7,7.6-1.6,7.6,4,0,0,0,52.5,0,52.5,0,4.6-2.8,10-6.3,12Z"/>
            <path class="st61" d="M591.2,459.4c-3.6,2.7-7.6,1.6-7.6-4,0,0,0-52.5,0-52.5,0-4.6,2.8-10,6.3-12,3.6-2.7,7.6-1.6,7.6,4,0,0,0,52.5,0,52.5,0,4.6-2.8,10-6.3,12Z"/>
            <path class="st61" d="M617.3,444.3c-3.6,2.7-7.6,1.6-7.6-4,0,0,0-52.5,0-52.5,0-4.6,2.8-10,6.3-12,3.6-2.7,7.6-1.6,7.6,4,0,0,0,52.5,0,52.5,0,4.6-2.8,10-6.3,12Z"/>
            <path class="st61" d="M643.5,429.2c-3.6,2.7-7.6,1.6-7.6-4,0,0,0-52.5,0-52.5,0-4.6,2.8-10,6.3-12,3.6-2.7,7.6-1.6,7.6,4,0,0,0,52.5,0,52.5,0,4.6-2.8,10-6.3,12Z"/>
            <path class="st61" d="M669.6,414.1c-3.6,2.7-7.6,1.6-7.6-4,0,0,0-52.5,0-52.5,0-4.6,2.8-10,6.3-12,3.6-2.7,7.6-1.6,7.6,4,0,0,0,52.5,0,52.5,0,4.6-2.8,10-6.3,12Z"/>
          </g>
          <path class="st46" d="M541.4,488.1c-2.7,1-10,8-10.1.8,0,0,0-14.8,0-14.8-.3-5.9,6-8.5,10.1-10.8,2.1-1.2,3.8,0,3.8,2.8v14.8c0,2.8-1.7,6-3.8,7.2Z"/>
          <path class="st46" d="M565.5,474.2c-3.5,2.7-8.1,2.9-8-3.1,0,0,0-44.2,0-44.2,0-4.3,2.6-9.3,5.8-11.2,3.5-2.7,8.1-2.9,8,3.1,0,0,0,44.2,0,44.2,0,4.3-2.6,9.3-5.8,11.2Z"/>
          <path class="st46" d="M592.5,458.6c-3.3,2.1-8.7,5.6-8.9-1.5,1.2-7.3-3.7-35.1,5-39.3,3.3-2.1,8.7-5.6,8.9,1.5-1.2,7.3,3.7,35.1-5,39.3Z"/>
          <path class="st46" d="M620.8,442.2c-2.1.5-11.3,8.9-11.1,2.7,0-3.3-.7-9.4,2.8-11.2,2.1-.5,11.3-8.9,11.1-2.7,0,3.3.7,9.4-2.8,11.2Z"/>
          <path class="st46" d="M644,428.9c-3.4,2.7-8.2,3.3-8.1-2.9,1.6-8.6-4.6-48.5,5.7-53.1,3.4-2.7,8.2-3.3,8.1,2.9-1.6,8.6,4.6,48.5-5.7,53.1Z"/>
          <path class="st46" d="M670.5,413.6c-3.4,2.5-8.4,4.5-8.5-2.2,0,0,0-35.9,0-35.9,0-5.7,3.9-10.1,8.5-12.1,2.9-1.7,5.4.1,5.4,4v35.9c0,3.9-2.4,8.5-5.4,10.2Z"/>
          <path class="st46" d="M538.2,511c-1.6,1.4-.4-11.3-.7-11.4-.1-.7,1.3-2.2,1.5-.9-.3,1,.7,12-.7,12.2Z"/>
          <path class="st46" d="M564.4,495.9c-1.6,1.4-.4-11.3-.7-11.4-.1-.7,1.3-2.2,1.5-.9-.3,1,.7,12-.7,12.2Z"/>
          <path class="st46" d="M590.5,480.8c-1.6,1.4-.4-11.3-.7-11.4-.1-.7,1.3-2.2,1.5-.9-.3,1,.7,12-.7,12.2Z"/>
          <path class="st46" d="M616.7,465.7c-1.6,1.4-.4-11.3-.7-11.4-.1-.7,1.3-2.2,1.5-.9-.3,1,.7,12-.7,12.2Z"/>
          <path class="st46" d="M642.8,450.6c-1.6,1.4-.4-11.3-.7-11.4-.1-.7,1.3-2.2,1.5-.9-.3,1,.7,12-.7,12.2Z"/>
          <path class="st46" d="M669,435.5c-1.6,1.4-.4-11.3-.7-11.4-.1-.7,1.3-2.2,1.5-.9-.3,1,.7,12-.7,12.2Z"/>
          <g>
            <path class="st46" d="M535.6,519.7l-.5.3v-.4c.4-.2.6-.5.7-.8l.3-.2v3.4l-.5.3v-2.7Z"/>
            <path class="st46" d="M536.5,521c0-.9-.3-2.6.8-3.1,1.2-.7.6,1.8.8,2.2.2.7-1.4,2.1-1.5.9ZM537.5,520.4v-1.9c-.8-1.3-.8,4.2,0,1.9Z"/>
            <path class="st46" d="M538.4,519.9c0-.9-.3-2.6.8-3.1,1.2-.7.6,1.8.8,2.2.2.7-1.4,2.1-1.5.9ZM539.5,519.3v-1.9c-.8-1.3-.8,4.2,0,1.9Z"/>
            <path class="st46" d="M540.8,516.7l-.5.3v-.4c.4-.2.6-.5.7-.8l.3-.2v3.4l-.5.3v-2.7Z"/>
          </g>
          <g>
            <path class="st46" d="M561.8,504.5l-.5.3v-.4c.4-.2.6-.5.7-.8l.3-.2v3.4l-.5.3v-2.7Z"/>
            <path class="st46" d="M562.7,505.9c0-.9-.3-2.6.8-3.1,1.2-.7.6,1.8.8,2.2.2.7-1.4,2.1-1.5.9ZM563.8,505.3v-1.9c-.8-1.3-.8,4.2,0,1.9Z"/>
            <path class="st46" d="M564.6,504.8c0-.9-.3-2.6.8-3.1,1.2-.7.6,1.8.8,2.2.2.7-1.4,2.1-1.5.9ZM565.7,504.2c-.1-.2.3-2.4-.3-2-.6.1-.4,4,.3,2Z"/>
            <path class="st46" d="M567,501.5l-.5.3v-.4c.4-.2.6-.5.7-.8l.3-.2v3.4l-.5.3v-2.7Z"/>
          </g>
          <g>
            <path class="st46" d="M588,489.4l-.5.3v-.4c.4-.2.6-.5.7-.8l.3-.2v3.4l-.5.3v-2.7Z"/>
            <path class="st46" d="M588.9,490.8c0-.9-.3-2.6.8-3.1,1.2-.7.6,1.8.8,2.2.2.7-1.4,2.1-1.5.9ZM590,490.2c-.1-.2.3-2.4-.3-2-.6.1-.4,4,.3,2Z"/>
            <path class="st46" d="M590.9,489.6c0-.9-.3-2.6.8-3.1,1.2-.7.6,1.8.8,2.2.2.7-1.4,2.1-1.5.9ZM591.9,489.1v-1.9c-.8-1.3-.8,4.2,0,1.9Z"/>
            <path class="st46" d="M593.2,486.4l-.5.3v-.4c.4-.2.6-.5.7-.8l.3-.2v3.4l-.5.3v-2.7Z"/>
          </g>
          <g>
            <path class="st46" d="M614.2,474.3l-.5.3v-.4c.4-.2.6-.5.7-.8l.3-.2v3.4l-.5.3v-2.7Z"/>
            <path class="st46" d="M615.2,475.6c0-.9-.3-2.6.8-3.1,1.2-.7.6,1.8.8,2.2.2.7-1.4,2.1-1.5.9ZM616.2,475v-1.9c-.8-1.3-.8,4.2,0,1.9Z"/>
            <path class="st46" d="M617.1,474.5c0-.9-.3-2.6.8-3.1,1.2-.7.6,1.8.8,2.2.2.7-1.4,2.1-1.5.9ZM618.1,473.9v-1.9c-.8-1.3-.8,4.2,0,1.9Z"/>
            <path class="st46" d="M619.4,471.3l-.5.3v-.4c.4-.2.6-.5.7-.8l.3-.2v3.4l-.5.3v-2.7Z"/>
          </g>
          <g>
            <path class="st46" d="M640.5,459.1l-.5.3v-.4c.4-.2.6-.5.7-.8l.3-.2v3.4l-.5.3v-2.7Z"/>
            <path class="st46" d="M641.4,460.5c0-.9-.3-2.6.8-3.1,1.2-.7.6,1.8.8,2.2.2.7-1.4,2.1-1.5.9ZM642.4,459.9c-.1-.2.3-2.4-.3-2-.6.1-.4,4,.3,2Z"/>
            <path class="st46" d="M643.3,459.4c0-.9-.3-2.6.8-3.1,1.2-.7.6,1.8.8,2.2.2.7-1.4,2.1-1.5.9ZM644.4,458.8v-1.9c-.8-1.3-.8,4.2,0,1.9Z"/>
            <path class="st46" d="M645.7,456.1l-.5.3v-.4c.4-.2.6-.5.7-.8l.3-.2v3.4l-.5.3v-2.7Z"/>
          </g>
          <g>
            <path class="st46" d="M666.7,444l-.5.3v-.4c.4-.2.6-.5.7-.8l.3-.2v3.4l-.5.3v-2.7Z"/>
            <path class="st46" d="M667.6,445.3c0-.9-.3-2.6.8-3.1,1.2-.7.6,1.8.8,2.2.2.7-1.4,2.1-1.5.9ZM668.7,444.7v-1.9c-.8-1.3-.8,4.2,0,1.9Z"/>
            <path class="st46" d="M669.6,444.2c0-.9-.3-2.6.8-3.1,1.2-.7.6,1.8.8,2.2.2.7-1.4,2.1-1.5.9ZM670.6,443.6v-1.9c-.8-1.3-.8,4.2,0,1.9Z"/>
            <path class="st46" d="M671.9,441l-.5.3v-.4c.4-.2.6-.5.7-.8l.3-.2v3.4l-.5.3v-2.7Z"/>
          </g>
        </g>
      </g>
      <g>
        <path class="st9" d="M721.1,1011.7c-30.5,17.6-80.1,17.6-110.6,0-30.6-17.6-30.6-46.2,0-63.9,30.5-17.6,80.1-17.6,110.6,0,30.6,17.6,30.6,46.2,0,63.9Z"/>
        <g>
          <path class="st5" d="M682.2,988.7v8.6c-1.8,10.1-18.2,4.7-25.4,4.7v-2.1c-13.9-2.3-40-2.8-46.1-14,0,0,.3-6.1.3-6.1l71.2,8.9Z"/>
          <path class="st10" d="M655.7,995.9c-12.2-1.1-39.7-2-44.7-14.3-1.1-2.5,1.1-5.7,5.4-6.8,13.4-1.7,23.3,1.3,34.4-7.9l29.3,3.2c6.8,22.5,3.8,31.9-24.3,25.8h0Z"/>
          <path class="st6" d="M727.3,979.4c2,9.8-6.3,12.1-19,11.5-6.1-1.9-11.3-5-16.1-8.6l.7-2.5c-9.5-7.6-44.6-14.6-35.1-29.3l66.6,20,2.9,8.9h0Z"/>
          <path class="st10" d="M727.3,963c5.8,19-3,28-25.4,20.4,0,0-12.9-8.9-12.9-8.9-11.2-5.4-25.5-10.1-32.9-21.1.2-6,3.6-9.3,7.2-8.6,13,.7,24.7,3.6,36.5,4.3l27.6,14Z"/>
          <g>
            <path class="st3" d="M683.1,664.3c-1.3,66.4-2.1,132.6,7.9,197.5,0,0,0,91.3,0,91.3,14,25.3,26.3,25.4,37.9,16.1,7.8-48.8,9.3-97.4,1.8-146.4,11.5-89.2,44.8-127.1-40.9-196.2l-6.7,37.7h0Z"/>
            <g class="st77">
              <path class="st15" d="M726.2,640.9c8.4,34.8,9.3,67.8-1.9,97.8,0,0-1.7,8.6-3.9,20.3-16.4,77.7,3.8,175.9-17.5,246.6,0,0-57.8-31-52.6-30.7,50.6,2.5,32-367.9,32-367.9l30.5,30.9,13.4,3.1Z"/>
            </g>
          </g>
          <g>
            <path class="st3" d="M636.7,679.5c-1.3,66.4-2.1,132.6,7.9,197.5,0,0,0,91.3,0,91.3,14,25.3,26.3,25.4,37.9,16.1,7.8-48.8,9.3-97.4,1.8-146.4l18.5-73s24.2-38.3,3.2-67.6c-21-29.4-36.4-14.7-36.4-14.7l-32.9-3.2h0Z"/>
            <g class="st39">
              <path class="st15" d="M676.4,628.7c10.8,65.8.8,142.7-14.3,207.2,0,0,4.7,186.8,4.7,186.8,0,0-101.9-28.7-98.4-32.6,3.5-3.9,15.7-308.1,15.7-308.1l82.3-29,10-24.3h0Z"/>
            </g>
          </g>
          <g>
            <path class="st7" d="M632.4,726.4c37,41.1,86.9,20.1,119.5-19.3-22.8-65.8-3.5-96.2,10.3-163.5-5.2-58.9-65.2-18.9-89.4,0-18.8,11.1-31.3,23-28.6,36.9l-11.8,146h0Z"/>
            <g class="st42">
              <path class="st14" d="M676.4,774.4c-11.6-30.3-19.5-73.7-13.6-107.6,1.8-13.1,4.1-25.9,6.8-34.5,8-24.5,3.9-75.1-15-73.7-56.2,97.2-56.9,68.7-62.3,184.3l84.1,31.5Z"/>
            </g>
          </g>
          <g>
            <path class="st4" d="M678.2,536.4s4.8-20.3-9.7-25c-13.7-12.3-12.9-54.2,2.9-74.4l53,30.4-7.9,36.5c-1.1,7.8,1.7,15.2-6.4,20.4l-31.8,12.2h0Z"/>
            <g class="st58">
              <path class="st13" d="M662.1,517.4l6.4-6.1s17.6.9,21.8-5.4c0,0-1.1,9.3-15,15l-13.2-3.6h0Z"/>
            </g>
          </g>
          <path class="st12" d="M716.2,439.1c17.8,14.5,21.5,30.3,16.1,46.9-4.3,12.8-17.6,36.6-35.1,23.3.4-3.4-.3-42.2-16.8-22.5,0,0,.7-10.5-6.8-15,0,0-14.4-15.5-13.6-22.2,1.2-36.8,38.2-26,56.2-10.4h0Z"/>
          <path class="st8" d="M675.4,541.1l1.1-8.9c16.1-2.3,29.6-8.5,40.1-20,16.4,11.1-18.6,26-28.6,27.2-4.5.5-8.9,1-12.5,1.8h0Z"/>
          <path class="st52" d="M640.6,484.8s6.9-4.7,9.3-8.7c2.4-4,9.3-12.5,9.3-12.5,5.5-4.8,15.1-14.6,25.1-9.2,4.3,4.9-9.3,14.4-9.8,15.6,0,0-3.8,5.3-3.8,5.3,3.3-1.5,8.1-4.5,11.8-4.6,5.6-.3,4.4,1.8.8,4-5.7,2.7-8.6,8.6-14,11.7-3.7.9-12,8.7-14.7,11.3l-14-12.9h0Z"/>
          <path class="st11" d="M630,549.4l-4.7-10.7c6.2-15.6,23.7-27.5,33.2-41.7-3.1-7.7-7.6-13.8-13.7-18.1-19.9,9.1-37.7,29.9-50.9,46.4,0,0-10.3,12.1-5.2,25.1,5.1,13,17.9,5.3,17.9,5.3l23.3-6.3h0Z"/>
          <path class="st11" d="M672.5,590.2c-37.5,30.7-62.1,10-83.6-39.6,0,0,10.7-17.9,36.7-12,0,0,9.7,8.4,16.9,14.7,5,4.4,10.5,8.2,16.4,11.3,11.6,5.4,24.8,11.9,13.6,25.6h0Z"/>
        </g>
        <g>
          <path class="st131" d="M742.7,462.9s-2.7,13.2-29.8,13.3c-12.3,0-25-1.5-36.8-4.9-5.9-1.7-11.7-3.8-17.3-6.2-7.7-3.3-17.1-8-19.8-16.6-1.3-4.2.8-8.1,4.2-10.6,3.9-2.7,8.9-5,13.4-6.3,4.8-1.4,35.6-3.4,58,6.4,22.4,9.8,30.1,16.2,28,24.9Z"/>
          <path class="st64" d="M668.3,413.4c14.9-12.9,40.2-9.8,55,1.2,11.7,8.8,19.9,23.1,17.4,38-.3,2.1-.7,4.8-1.6,6.6,0,0-14.8,23.2-73-.9,0,0-12.6-5.4-16.1-12.7-.7-1.4-.5-2.9,0-4.3,3.3-7.5,11.2-21.8,18.2-27.9Z"/>
          <path class="st106" d="M668.3,413.4c14.9-12.9,40.2-9.8,55,1.2,3.2,2.4,6.1,5.2,8.7,8.4-1.3-1.2-2.6-2.4-4-3.5-14.7-11.3-40.1-14.1-55.3-.4-7.2,6.5-15.3,21.6-18.8,29.4-.2.5-.3,1.1-.4,1.7-1.5-1.4-2.7-2.9-3.5-4.6-.7-1.4-.5-2.9,0-4.3,3.3-7.5,11.2-21.8,18.2-27.9Z"/>
        </g>
      </g>
      <g>
        <g class="st73">
          <path class="st125" d="M423.3,414.3l-9.9-5.7c8.2,2.6,53.3,13.1,58.8,19.3l-49-13.5Z"/>
          <g class="st73">
            <g class="st91">
              <g class="st73">
                <path class="st110" d="M417,352l-9.9-5.7c.3-.2.6-.3.9-.4l9.9,5.7c-.3.1-.6.3-.9.4"/>
                <path class="st139" d="M417.8,351.5l-9.9-5.7c.2-.1.5-.2.7-.2l9.9,5.7c-.2,0-.5.1-.7.2"/>
                <path class="st122" d="M418.6,351.3l-9.9-5.7c.2,0,.4,0,.5-.1l9.9,5.7c-.2,0-.4,0-.5.1"/>
                <path class="st141" d="M419.1,351.2l-9.9-5.7c.2,0,.3,0,.5,0l9.9,5.7c-.1,0-.3,0-.5,0"/>
                <path class="st115" d="M419.6,351.1l-9.9-5.7c.1,0,.3,0,.4,0l9.9,5.7c-.1,0-.3,0-.4,0"/>
                <path class="st54" d="M420,351.1l-9.9-5.7c.6-.2,9.8,5.7,10.2,5.8-.1,0-.2,0-.4,0"/>
                <path class="st41" d="M420.3,351.2l-9.9-5.7c.5,0,9.8,5.7,10.2,5.8-.1,0-.2,0-.3,0"/>
                <path class="st100" d="M420.7,351.2l-9.9-5.7c.5,0,9.8,5.7,10.2,5.8-.1,0-.2,0-.3-.1"/>
                <path class="st60" d="M421,351.4l-9.9-5.7c.4.2,9.8,5.7,10.2,5.9,0,0-.2-.1-.3-.1"/>
                <path class="st28" d="M421.3,351.5l-9.9-5.7s9.9,5.7,9.9,5.8c0,0,0,0,0,0"/>
              </g>
            </g>
          </g>
          <g class="st73">
            <g class="st123">
              <g class="st73">
                <path class="st18" d="M228.9,586.5c-2.5-2.1-12.4-5.1-11.6-9.7l9.9,5.7c0,1.9.7,3.3,1.8,3.9"/>
              </g>
            </g>
          </g>
          <polygon class="st121" points="227.1 582.5 217.2 576.8 216.9 463.1 226.8 468.8 227.1 582.5"/>
          <polygon class="st43" points="232.8 458.3 223 452.5 407.1 346.2 417 352 232.8 458.3"/>
          <g class="st73">
            <g class="st96">
              <g class="st73">
                <path class="st18" d="M226.8,468.8l-9.9-5.7c0-.4,0-.8,0-1.2l9.9,5.7c0,.4,0,.8,0,1.2"/>
                <path class="st50" d="M226.8,467.6l-9.9-5.7c0-.3,0-.6.1-.8l9.9,5.7c0,.3-.1.6-.1.8"/>
                <path class="st76" d="M227,466.8l-9.9-5.7c0-.2.1-.5.2-.7l9.9,5.7c0,.2-.1.5-.2.7"/>
                <path class="st136" d="M227.2,466.1l-9.9-5.7c0-.2.1-.4.2-.6l9.9,5.7c0,.2-.1.4-.2.6"/>
                <path class="st65" d="M227.3,465.4l-9.9-5.7c0-.2.1-.4.2-.6l9.9,5.7c0,.2-.1.4-.2.6"/>
                <path class="st28" d="M227.6,464.9l-9.9-5.7c0-.2.1-.4.2-.5l9.9,5.7c0,.2-.2.4-.2.5"/>
                <path class="st60" d="M227.8,464.3l-9.9-5.7c0-.2.2-.4.2-.5l9.9,5.7c0,.2-.2.4-.2.5"/>
                <path class="st100" d="M228,463.8l-9.9-5.7c0-.2.2-.3.3-.5l9.9,5.7c0,.2-.2.3-.3.5"/>
                <path class="st41" d="M228.3,463.3l-9.9-5.7c0-.2.2-.3.3-.5l9.9,5.7c0,.2-.2.3-.3.5"/>
                <path class="st54" d="M228.6,462.8l-9.9-5.7c.1-.2.2-.3.3-.5l9.9,5.7c-.1.2-.2.3-.3.5"/>
                <path class="st115" d="M228.9,462.2l-9.9-5.7c.1-.2.2-.4.4-.5l9.9,5.7c-.1.2-.2.3-.4.5"/>
                <path class="st141" d="M229.2,461.7l-9.9-5.7c.1-.2.3-.4.4-.6l9.9,5.7c-.1.2-.3.4-.4.6"/>
                <path class="st122" d="M229.6,461.2l-9.9-5.7c.2-.2.3-.4.5-.6l9.9,5.7c-.2.2-.3.4-.5.6"/>
                <path class="st139" d="M230.1,460.6l-9.9-5.7c.2-.2.4-.5.7-.7l9.9,5.7c-.2.2-.5.5-.7.7"/>
                <path class="st110" d="M230.8,459.9l-9.9-5.7c.6-.6,1.3-1.2,2-1.6l9.9,5.7c-.7.4-1.4,1-2,1.6"/>
              </g>
            </g>
          </g>
          <path class="st137" d="M417,352c3.4-1.9,6.1-.4,6.1,3.5l.2,58.9,49,13.5-48.9,16.2c-1.1,8.4,3.9,30.9-6,35.7,0,0-184.2,106.3-184.2,106.3-3.4,1.9-6.1.4-6.1-3.5l-.3-113.7c-12.6-7.5,189.6-113.4,190.2-116.8Z"/>
        </g>
        <g class="st73">
          <g class="st25">
            <g>
              <path class="st46" d="M331.3,491.5c-2.7,1.6-4.9.3-4.9-2.8v-.6c0-3.1,2.2-6.9,4.9-8.5,2.7-1.6,4.9-.3,4.9,2.8v.6c0,3.1-2.2,6.9-4.9,8.5M331.3,475.3c-2.7,1.6-4.9.3-4.9-2.8v-23.4c0-3.1,2.1-6.9,4.8-8.5,2.7-1.6,4.9-.3,4.9,2.8v23.4c0,3.1-2.1,6.9-4.8,8.5M331,427.4c-.5.3-1.8,1.2-2.7,3.2l-37.1,86.4c-1,2.2-.4,3.5-.1,3.9.3.4,1.1,1.3,2.9.3l74.5-43c1.7-1,2.6-2.9,2.9-3.6.3-.8.8-2.6-.2-3.7l-37.5-43.3c-.9-1-2.2-.4-2.7-.1"/>
              <path class="st22" d="M293.9,521.2c-1.7,1-2.6.1-2.9-.3-.3-.4-.8-1.7.1-3.9l37.1-86.4c.9-2,2.2-2.9,2.7-3.2s1.8-.9,2.7.1l37.5,43.3c1,1.1.4,3,.2,3.7-.3.7-1.1,2.6-2.9,3.6l-74.5,43M331,416c-4.5,2.6-8.6,7.5-11,13.2l-37.1,86.4c-2.7,6.2-2.9,12.3-.6,15.9,2.3,3.6,6.8,4.1,11.7,1.3l74.5-43c4.9-2.8,9.3-8.4,11.6-14.7,2.3-6.3,2-12.1-.7-15.2l-37.5-43.3c-2.5-2.8-6.6-3-11-.4"/>
              <path class="st34" d="M331.2,440.6c-2.7,1.6-4.9,5.4-4.9,8.5v23.4c0,3.1,2.3,4.4,5,2.8,2.7-1.6,4.9-5.4,4.9-8.5v-23.4c0-3.1-2.3-4.4-5-2.8"/>
              <path class="st34" d="M331.3,479.6c-2.7,1.6-4.9,5.4-4.9,8.5v.6c0,3.1,2.2,4.4,4.9,2.8,2.7-1.6,4.9-5.4,4.9-8.5v-.6c0-3.1-2.2-4.4-4.9-2.8"/>
            </g>
          </g>
        </g>
      </g>
    </g>
  </g>
</svg>