<?xml version="1.0" encoding="UTF-8"?>
<svg xmlns="http://www.w3.org/2000/svg" version="1.1" xmlns:xlink="http://www.w3.org/1999/xlink" viewBox="0 0 756.4 881.3">
  <!-- Generator: Adobe Illustrator 29.3.1, SVG Export Plug-In . SVG Version: 2.1.0 Build 151)  -->
  <defs>
    <style>
      .st0, .st1, .st2 {
        clip-rule: evenodd;
      }

      .st0, .st3 {
        fill: #244267;
      }

      .st4, .st5, .st6, .st7, .st8, .st9, .st10, .st11, .st12, .st3, .st13, .st14, .st15 {
        fill-rule: evenodd;
      }

      .st4, .st1 {
        fill: #fed1a5;
      }

      .st16 {
        fill: #c3c3c3;
      }

      .st5 {
        fill: #26130f;
      }

      .st17 {
        fill: #7f8080;
      }

      .st6 {
        fill: #27120f;
      }

      .st18 {
        fill: #969694;
      }

      .st7, .st2 {
        fill: #92a6cd;
      }

      .st19 {
        fill: #fff;
      }

      .st8 {
        fill: #253c7a;
      }

      .st9 {
        fill: #818181;
        opacity: .4;
      }

      .st9, .st20, .st21, .st22 {
        mix-blend-mode: multiply;
      }

      .st23 {
        fill: #e2e2e2;
      }

      .st24, .st13 {
        fill: #f1b986;
      }

      .st25 {
        fill: none;
      }

      .st26 {
        fill: #f7f8f8;
      }

      .st27 {
        fill: #ffcc04;
      }

      .st20 {
        opacity: .2;
      }

      .st20, .st12, .st28, .st22 {
        fill: #010101;
      }

      .st29 {
        clip-path: url(#clippath-1);
      }

      .st30 {
        fill: #d3d3d3;
      }

      .st10 {
        fill: #462d1b;
      }

      .st31 {
        isolation: isolate;
      }

      .st32 {
        fill: #231e58;
      }

      .st33 {
        fill: #b6b7b7;
      }

      .st34 {
        clip-path: url(#clippath-3);
      }

      .st35 {
        fill: #b3b3b3;
      }

      .st36 {
        fill: #6b6b6b;
      }

      .st37 {
        fill: #282565;
      }

      .st11 {
        fill: #7387be;
      }

      .st38 {
        fill: #ffdb7c;
      }

      .st21, .st22 {
        opacity: .2;
      }

      .st39 {
        fill: #ededee;
      }

      .st40 {
        clip-path: url(#clippath-2);
      }

      .st41 {
        fill: #9f9f9f;
      }

      .st42 {
        fill: #f9b31d;
      }

      .st14 {
        fill: #637fb5;
      }

      .st43 {
        clip-path: url(#clippath);
      }

      .st44 {
        fill: #a4a4a5;
      }

      .st15 {
        fill: #10223c;
      }
    </style>
    <clipPath id="clippath">
      <path class="st0" d="M545.2,468.1c-1.3,66.4-2.1,132.6,7.9,197.5,0,0,0,91.3,0,91.3,14,25.3,26.3,25.4,37.9,16.1,7.8-48.8,9.3-97.4,1.8-146.4,11.5-89.2,44.8-127.1-40.9-196.2l-6.7,37.7h0Z"/>
    </clipPath>
    <clipPath id="clippath-1">
      <path class="st0" d="M498.8,483.4c-1.3,66.4-2.1,132.6,7.9,197.5,0,0,0,91.3,0,91.3,14,25.3,26.3,25.4,37.9,16.1,7.8-48.8,9.3-97.4,1.8-146.4l18.5-73s24.2-38.3,3.2-67.6c-21-29.4-36.4-14.7-36.4-14.7l-32.9-3.2h0Z"/>
    </clipPath>
    <clipPath id="clippath-2">
      <path class="st2" d="M494.5,530.2c37,41.1,86.9,20.1,119.5-19.3-22.8-65.8-3.5-96.2,10.3-163.5-5.2-58.9-65.2-18.9-89.4,0-18.8,11.1-31.3,23-28.6,36.9l-11.8,146h0Z"/>
    </clipPath>
    <clipPath id="clippath-3">
      <path class="st1" d="M540.3,340.2s4.8-20.3-9.7-25c-13.7-12.3-12.9-54.2,2.9-74.4l53,30.4-7.9,36.5c-1.1,7.8,1.7,15.2-6.4,20.4l-31.8,12.2h0Z"/>
    </clipPath>
  </defs>
  <g class="st31">
    <g id="Layer_2">
      <g>
        <g>
          <path class="st17" d="M157.2,302.6l-37.8,21.8s-.7,155.8-.7,157.9c-.1,48.1,33.9,107,75.9,131.3,13.7,7.9,26,15,37.1,21.4,28.6,16.5,48.5,28,59.5,34.3v-2.2c-11.6-6.7-33.3-19.2-64.7-37.3-9.7-5.6-20.3-11.7-31.9-18.4-40.9-23.6-74.1-81.1-74-128,0-2.2.6-121.5.7-158.5l35.9-20.8v-1.6Z"/>
          <g class="st21">
            <path class="st28" d="M635.2,515.1l-91.3-54.6-102.5,50.4-32.4-19.4c-11.5-6.6-30-6.6-41.4,0l-196,107.3c-1.9,1.1-2,3.8,0,4.9l123.9,71.5,12.2-7.1,20.3,11.4,13-7.1,10.4,6c11.5,6.6,30,6.6,41.4,0l242.5-139.4c11.4-6.6,11.3-17.4-.1-24Z"/>
          </g>
          <path class="st39" d="M121.3,324.9c0,21-.8,156.2-.8,158.5,0,17.8,4.7,37.1,12.8,55.5l224-129.9c-8.1-18.4-12.9-37.7-12.8-55.5,0-2.4.7-137.5.8-158.5l-224,129.9Z"/>
          <path class="st39" d="M133.4,538.9l224-129.9c7.2,16.4,17.2,32,28.8,45.3l-224,129.9c-11.6-13.2-21.5-28.9-28.8-45.2"/>
          <g>
            <path class="st39" d="M450.5,500c-9.7-5.6-20.3-11.7-31.9-18.4-11.6-6.7-22.6-16.1-32.4-27.3l-224,129.9c9.8,11.1,20.8,20.6,32.4,27.3,11.5,6.7,22.2,12.8,31.9,18.4,31.4,18.1,53.1,30.7,64.7,37.3l224.1-129.9s0,0,0,0c-11.6-6.7-33.3-19.2-64.7-37.3Z"/>
            <polygon class="st36" points="291.2 667.2 291.2 669.4 317.3 654.1 315.5 653.1 291.2 667.2"/>
          </g>
          <polygon class="st33" points="121.3 325 157.3 304.2 157.2 302.6 119.4 324.4 121.3 325"/>
          <path class="st20" d="M523,533.4c-11.6-6.7-28.6-16.5-60-34.7-9.7-5.6-20.3-11.7-31.9-18.4-11.6-6.7-22.6-16.1-32.4-27.3-11.6-13.2-21.5-28.9-28.8-45.2-8.1-18.4-12.9-37.7-12.8-55.5,0-2.4.7-133.3.8-154.3l-206.9,108.1-9.2,5.3,1.8.6c0,21-10.5,167.8-10.5,170.2,0,17.8,4.7,37.1,12.8,55.5,7.2,16.4,17.2,32,28.8,45.3,9.8,11.1,20.8,20.6,32.4,27.3,11.5,6.7,22.2,12.8,31.9,18.4,31.4,18.1,47.8,27.7,59.5,34.4l224.6-129.6Z"/>
          <g>
            <g class="st31">
              <path class="st44" d="M272.6,182.9c-2.9-1.7-5.7-4-8.4-7.1-1.3-1.5-2.6-3.2-3.8-5-1.8-2.7-3.3-5.6-4.6-8.4-2.3-5.1-3.7-10.4-4.1-15.4-.6-7.8,1.3-13.9,5.5-17.2.6-.5,1.2-.9,1.9-1.3l-167.5,97.4c-.7.4-1.3.8-1.9,1.3-4.1,3.4-6.1,9.5-5.5,17.2.4,5,1.8,10.2,4.1,15.4,1.3,2.9,2.8,5.7,4.6,8.4,1.2,1.8,2.5,3.5,3.8,5,2.6,3,5.5,5.4,8.4,7.1,5,2.9,9.9,3.5,13.7,1.4l167.5-97.4c-3.7,2.2-8.7,1.5-13.7-1.4Z"/>
              <path class="st41" d="M274.5,170.3c-1.1-.6-2.2-1.5-3.2-2.7-.5-.6-1-1.2-1.4-1.9-.7-1.1-1.3-2.1-1.8-3.3-.9-2-1.4-4-1.6-6-.2-3,.5-5.4,2.1-6.7.2-.2.5-.4.7-.5l-167.5,97.4c-.3.1-.5.3-.7.5-1.6,1.3-2.3,3.7-2.1,6.7.2,1.9.7,4,1.6,6,.5,1.1,1.1,2.2,1.8,3.3.5.7.9,1.3,1.4,1.9,1,1.1,2.1,2.1,3.2,2.7,1.9,1.1,3.8,1.3,5.2.5l167.5-97.4c-1.4.8-3.3.6-5.2-.5Z"/>
              <path class="st18" d="M282,162.6c-.4-.9-.9-1.7-1.4-2.6l-167.5,97.4c.6.8,1,1.7,1.4,2.6,1.8,4.2,1.8,8.4-.4,10.2-.2.1-.4.3-.6.4l167.5-97.4c.2-.1.4-.2.6-.4,2.2-1.8,2.3-6,.4-10.2Z"/>
              <path class="st16" d="M289.8,162.6c-.9-2-1.9-4-3.2-5.9-.9-1.3-1.8-2.5-2.7-3.6-1.9-2.2-4-3.9-6-5.1-3.6-2.1-7.2-2.5-9.8-1l-167.5,97.4c2.7-1.6,6.2-1.1,9.8,1,2.1,1.2,4.1,2.9,6,5.1,1,1.1,1.9,2.3,2.7,3.6,1.3,1.9,2.3,3.9,3.2,5.9,4.2,9.4,4,19-1,23-.4.3-.9.6-1.3.9l167.5-97.4c.5-.3.9-.6,1.3-.9,5-4,5.1-13.6,1-23Z"/>
              <g class="st31">
                <g class="st31">
                  <path class="st39" d="M301.4,148.8c-2-3.1-4.2-5.9-6.4-8.4-4.5-5.1-9.3-9.1-14.1-11.9-8.4-4.9-16.8-5.9-23-2.3l-167.5,97.4c6.3-3.6,14.6-2.6,23,2.3,4.8,2.8,9.7,6.8,14.1,11.9,2.2,2.6,4.4,5.4,6.4,8.4,3.9,5.9,7,11.7,9.6,17.5l167.5-97.4c-2.5-5.7-5.7-11.5-9.6-17.5Z"/>
                  <path class="st39" d="M143.4,263.6l167.5-97.4c8.3,18.7,10,36.8,9.7,58.1l-167.5,97.4c.3-21.3-1.4-39.5-9.7-58.1"/>
                </g>
              </g>
            </g>
            <g>
              <path class="st25" d="M186.2,256.1c-3.6-6-8.4-13-10.6-14.6l-21.1,10.5c1.3,2,4.3,7.9,7.2,15.5,2.7,7.2,4.8,17.7,4.8,17.7l26.7-14c-.7-2-3-8.3-7-15.1Z"/>
              <path class="st37" d="M187.4,255.1c-4.2-7.8-11.3-15.7-11.3-15.7l-23.8,11.9.6.6c0,0,3.9,6.5,7.5,15.9,2.9,7.6,4.6,17.5,4.9,20l30.3-15.9s-3.5-8.1-8.2-16.9ZM161.7,267.5c-2.9-7.6-5.9-13.5-7.2-15.5l21.1-10.5c2.2,1.6,7,8.7,10.6,14.6,4,6.7,6.3,13,7,15.1l-26.7,14s-2.1-10.6-4.8-17.7Z"/>
            </g>
          </g>
          <g>
            <g class="st31">
              <g class="st31">
                <g class="st31">
                  <path class="st39" d="M153.1,320.6c0,21-.8,156.2-.8,158.5,0,17.8,4.7,37.1,12.8,55.5l224-129.9c-8.1-18.4-12.9-37.7-12.8-55.5,0-2.4.7-137.5.8-158.5l-224,129.9Z"/>
                  <g>
                    <path class="st37" d="M167.4,322.1l28.9-16.7v33.2c0,0-28.8,16.7-28.8,16.7v-33.2ZM194.5,337.6v-28.8c0,0-25.2,14.5-25.2,14.5v28.8c0,0,25.2-14.5,25.2-14.5"/>
                    <polygon class="st37" points="323.1 233.3 323.1 235.5 202 305.7 202 303.5 323.1 233.3"/>
                    <polygon class="st37" points="321.7 243.9 321.7 246.1 202 315.9 202 313.7 321.7 243.9"/>
                    <polygon class="st37" points="329.1 249.8 329.1 252 202 326 202 323.8 329.1 249.8"/>
                    <polygon class="st37" points="321.7 264.2 321.7 266.4 202 336.1 202 333.9 321.7 264.2"/>
                  </g>
                  <g>
                    <path class="st37" d="M167.4,389l28.9-16.7v33.2c0,0-28.8,16.7-28.8,16.7v-33.2ZM194.5,404.4v-28.8c0,0-25.2,14.5-25.2,14.5v28.8c0,0,25.2-14.5,25.2-14.5"/>
                    <polygon class="st37" points="346.9 286 347 288.2 202 372.6 202 370.4 346.9 286"/>
                    <polygon class="st37" points="321.7 310.7 321.7 312.9 202 382.7 202 380.5 321.7 310.7"/>
                    <polygon class="st37" points="329.1 316.7 329.1 318.9 202 392.8 202 390.6 329.1 316.7"/>
                    <polygon class="st37" points="321.7 331 321.7 333.2 202 403 202 400.8 321.7 331"/>
                  </g>
                  <g>
                    <path class="st37" d="M167.4,455.8l28.9-16.7v33.2c0,0-28.8,16.7-28.8,16.7v-33.2ZM194.5,471.2v-28.8c0,0-25.2,14.5-25.2,14.5v28.8c0,0,25.2-14.5,25.2-14.5"/>
                    <polygon class="st37" points="346.9 352.8 347 355 202 439.4 202 437.2 346.9 352.8"/>
                    <polygon class="st37" points="321.7 377.6 321.7 379.8 202 449.5 202 447.3 321.7 377.6"/>
                    <polygon class="st37" points="329.1 383.5 329.1 385.7 202 459.7 202 457.5 329.1 383.5"/>
                    <polygon class="st37" points="321.7 397.8 321.7 400 202 469.8 202 467.6 321.7 397.8"/>
                  </g>
                  <path class="st39" d="M165.1,534.6l224-129.9c7.2,16.4,17.2,32,28.8,45.3l-224,129.9c-11.6-13.2-21.5-28.9-28.8-45.3"/>
                  <path class="st39" d="M482.2,495.6c-9.7-5.6-20.3-11.7-31.9-18.4-11.6-6.7-22.6-16.1-32.4-27.3l-224,129.9c9.8,11.1,20.8,20.6,32.4,27.3,11.5,6.7,22.2,12.8,31.9,18.4,31.4,18.1,53.1,30.7,64.7,37.3l224.1-129.9s0,0,0,0c-11.6-6.7-33.3-19.2-64.7-37.3Z"/>
                </g>
              </g>
              <g>
                <path class="st32" d="M254.9,570.7l33.7,19.4-33.5,19.5-33.7-19.4,33.5-19.5ZM255.1,607.3l29.5-17.1-29.7-17.1-29.5,17.1,29.7,17.1"/>
                <path class="st32" d="M259.6,567.5l133.7-77.6,2.1,1.1-133.6,77.6-2.1-1.1Z"/>
                <path class="st32" d="M270.2,573.4l127.1-73.6,2.1,1.1-127,73.5-2.1-1.1Z"/>
                <path class="st32" d="M291.2,585.1l127.1-73.6,2.1,1.1-127,73.5-2.1-1.1Z"/>
                <path class="st32" d="M280.7,579.2l109-63.2,2.1,1.1-108.9,63.2-2.1-1.1Z"/>
              </g>
              <g>
                <path class="st32" d="M316.9,607.1l33.7,19.4-33.5,19.5-33.7-19.4,33.5-19.5ZM317.1,643.7l29.5-17.1-29.7-17.1-29.5,17.1,29.7,17.1"/>
                <path class="st32" d="M321.6,603.9l133.7-77.6,2.1,1.1-133.6,77.6-2.1-1.1Z"/>
                <path class="st32" d="M332.1,609.8l127.1-73.6,2.1,1.1-127,73.5-2.1-1.1Z"/>
                <path class="st32" d="M353.2,621.5l127.1-73.6,2.1,1.1-127,73.5-2.1-1.1Z"/>
                <path class="st32" d="M342.6,615.6l109-63.2,2.1,1.1-108.9,63.2-2.1-1.1Z"/>
              </g>
              <path class="st22" d="M376.8,208.6h0c0,0,0,0,0,0Z"/>
            </g>
            <g>
              <path class="st37" d="M227.6,537l.6.9-31.2,16.1-.5-.7c0,0-5.1-7.1-9.9-15.2-5.2-8.7-8.7-15.9-8.7-16l-.4-.8,31.2-16.1.5.9c1.2,2.3,2.1,4,2.8,5.3,1.8,3.4,2.7,5.1,6.2,11,5.1,8.5,9.4,14.4,9.5,14.5ZM197.1,551.7l28.7-14.8c-1.4-2-4.9-7.1-9-13.8-3.6-6-4.5-7.7-6.3-11.2-.6-1.2-1.4-2.9-2.4-4.7l-28.7,14.8c1,2,4.2,8.4,8.3,15.4,3.9,6.6,7.9,12.4,9.3,14.3"/>
              <polygon class="st37" points="364.3 414.8 213.8 502.7 214.6 504.2 365 416.5 364.3 414.8"/>
              <polygon class="st37" points="369.7 425.1 219.2 513 220 514.5 370.4 426.8 369.7 425.1"/>
              <polygon class="st37" points="375.9 435.3 225.4 523.1 226.2 524.6 376.6 437 375.9 435.3"/>
              <polygon class="st37" points="382.6 445.2 232.1 533.1 232.9 534.6 383.3 446.9 382.6 445.2"/>
            </g>
            <polygon class="st17" points="322.9 665 322.9 662.8 547 533 547 536.5 322.9 665"/>
            <path class="st20" d="M178.3,221.4c0,21-7.3,250.1-7.3,252.4,0,17.8,4.7,37.1,12.8,55.5,7.2,16.4,17.2,32,28.8,45.2,9.8,11.1,20.8,20.6,32.4,27.3,11.5,6.7,22.2,12.8,31.9,18.4,27.7,16,60,34.6,60,34.6l6.8-3.9s4.9,2,6.1,2.7c16.7,9.6,30.6,11.2,41,5.2l216.9-126.4c-10.4,6-25.2,4.9-41.9-4.7-11.6-6.7-33.3-19.2-64.7-37.3-9.7-5.6-20.3-11.7-31.9-18.4-11.6-6.7-22.6-16.1-32.4-27.3-11.6-13.2-21.5-28.9-28.8-45.3-8.1-18.4-12.9-37.7-12.8-55.5,0-2.4.7-183.7.8-204.7l-217.5,82.2Z"/>
          </g>
          <g class="st31">
            <g class="st31">
              <g class="st31">
                <path class="st39" d="M196.8,173.1L420.9,43.2c-10.3,6-16.6,19.2-16.7,38.1,0,21-.8,255.1-.8,257.5,0,17.8,4.7,37.1,12.8,55.5l-224,129.9c-8.1-18.4-12.9-37.7-12.8-55.5,0-2.4.7-236.5.8-257.5,0-18.9,6.4-32.1,16.7-38.1"/>
                <g>
                  <path class="st37" d="M194.5,311.7l28.9-16.7v33.2c0,0-28.8,16.7-28.8,16.7v-33.2ZM221.6,327.1v-28.8c0,0-25.2,14.5-25.2,14.5v28.8c0,0,25.2-14.5,25.2-14.5"/>
                  <polygon class="st37" points="350.2 222.9 350.2 225.1 229.1 295.3 229.1 293.1 350.2 222.9"/>
                  <polygon class="st37" points="348.8 233.5 348.8 235.7 229.1 305.4 229.1 303.2 348.8 233.5"/>
                  <polygon class="st37" points="356.2 239.4 356.2 241.6 229.1 315.6 229.1 313.4 356.2 239.4"/>
                  <polygon class="st37" points="348.8 253.7 348.8 255.9 229.1 325.7 229.1 323.5 348.8 253.7"/>
                </g>
                <g>
                  <path class="st37" d="M194.5,378.5l28.9-16.7v33.2c0,0-28.8,16.7-28.8,16.7v-33.2ZM221.6,394v-28.8c0,0-25.2,14.5-25.2,14.5v28.8c0,0,25.2-14.5,25.2-14.5"/>
                  <polygon class="st37" points="374 275.5 374.1 277.7 229.1 362.1 229.1 359.9 374 275.5"/>
                  <polygon class="st37" points="348.8 300.3 348.8 302.5 229.1 372.3 229.1 370.1 348.8 300.3"/>
                  <polygon class="st37" points="356.2 306.3 356.2 308.4 229.1 382.4 229.1 380.2 356.2 306.3"/>
                  <polygon class="st37" points="348.8 320.6 348.8 322.8 229.1 392.5 229.1 390.3 348.8 320.6"/>
                </g>
                <g>
                  <path class="st37" d="M194.5,445.4l28.9-16.7v33.2c0,0-28.8,16.7-28.8,16.7v-33.2ZM221.6,460.8v-28.8c0,0-25.2,14.5-25.2,14.5v28.8c0,0,25.2-14.5,25.2-14.5"/>
                  <polygon class="st37" points="374 342.4 374.1 344.6 229.1 429 229.1 426.8 374 342.4"/>
                  <polygon class="st37" points="348.8 367.1 348.8 369.3 229.1 439.1 229.1 436.9 348.8 367.1"/>
                  <polygon class="st37" points="356.2 373.1 356.2 375.3 229.1 449.2 229.1 447 356.2 373.1"/>
                  <polygon class="st37" points="348.8 387.4 348.8 389.6 229.1 459.4 229.1 457.2 348.8 387.4"/>
                </g>
                <path class="st39" d="M192.2,524.1l224-129.9c7.2,16.4,17.2,32,28.8,45.3l-224,129.9c-11.6-13.2-21.5-28.9-28.8-45.2"/>
                <path class="st39" d="M221,569.4l224-129.9c9.8,11.1,20.8,20.6,32.4,27.3,11.5,6.7,22.2,12.8,31.9,18.4,31.4,18.1,53.1,30.7,64.7,37.3,16.7,9.6,31.5,10.8,41.9,4.7l-224,129.9c-10.4,6-25.2,4.9-41.9-4.7-11.6-6.7-33.3-19.2-64.7-37.3-9.7-5.6-20.3-11.7-31.9-18.4-11.6-6.7-22.6-16.1-32.4-27.3"/>
              </g>
            </g>
            <g>
              <path class="st32" d="M282,560.3l33.7,19.4-33.5,19.5-33.7-19.4,33.5-19.5ZM282.2,596.9l29.5-17.1-29.7-17.1-29.5,17.1,29.7,17.1"/>
              <path class="st32" d="M286.7,557.1l133.7-77.6,2.1,1.1-133.6,77.6-2.1-1.1Z"/>
              <path class="st32" d="M297.3,562.9l127.1-73.6,2.1,1.1-127,73.5-2.1-1.1Z"/>
              <path class="st32" d="M318.3,574.7l127.1-73.6,2.1,1.1-127,73.5-2.1-1.1Z"/>
              <path class="st32" d="M307.8,568.8l109-63.2,2.1,1.1-108.9,63.2-2.1-1.1Z"/>
            </g>
            <g>
              <path class="st32" d="M351.8,598.9l33.7,19.4-33.5,19.5-33.7-19.4,33.5-19.5ZM352,635.5l29.5-17.1-29.7-17.1-29.5,17.1,29.7,17.1"/>
              <path class="st32" d="M356.5,595.6l133.7-77.6,2.1,1.1-133.6,77.6-2.1-1.1Z"/>
              <path class="st32" d="M367,601.5l127.1-73.6,2.1,1.1-127,73.5-2.1-1.1Z"/>
              <path class="st32" d="M388,613.2l127.1-73.6,2.1,1.1-127,73.5-2.1-1.1Z"/>
              <path class="st32" d="M377.5,607.4l109-63.2,2.1,1.1-108.9,63.2-2.1-1.1Z"/>
            </g>
            <g class="st31">
              <path class="st23" d="M339.7,545.7l224-129.9c-6.1,3.5-9.6,10.7-10.1,20.5-.3,6.8,1.4,14.5,4.7,22.1l-224,129.9c-3.4-7.6-5-15.3-4.7-22.1.4-9.7,4-16.9,10.1-20.5"/>
              <path class="st23" d="M334.3,588.2l224-129.9c.7,1.6,1.5,3.3,2.4,4.9,2.4,4.4,5.2,8.4,8.3,11.9l-224,129.9c-3.1-3.5-5.9-7.5-8.3-11.9-.9-1.6-1.7-3.3-2.4-4.9"/>
              <path class="st23" d="M345,605.1l224-129.9c3.3,3.8,7,7,10.8,9.4.3.2.7.4,1,.6,6,3.5,11.6,3.8,15.6,1.5l-224,129.9c-4,2.3-9.5,2-15.6-1.5-.3-.2-.7-.4-1-.6-3.8-2.4-7.5-5.6-10.8-9.4"/>
            </g>
            <polygon class="st35" points="358.2 598.9 582.2 469 582.1 471.1 358.1 601 358.2 598.9"/>
            <g class="st31">
              <path class="st30" d="M351.9,572l224-129.9c-2.4,1.4-3.8,4.2-4,8.1-.1,2.7.6,5.7,1.8,8.6l-224,129.9c-1.3-2.9-2-5.9-1.8-8.6.2-3.8,1.6-6.7,4-8.1"/>
              <path class="st30" d="M349.8,588.7l224-129.9c1,2.4,2.5,4.6,4.2,6.5l-224,129.9c-1.7-1.9-3.1-4.2-4.2-6.5"/>
              <path class="st30" d="M354,595.3l224-129.9c1.3,1.5,2.7,2.7,4.2,3.7l-224,129.9c-1.5-.9-2.9-2.2-4.2-3.7"/>
            </g>
            <g class="st31">
              <g class="st31">
                <path class="st26" d="M350.6,569.8l224-129.9c.2-.1.4-.2.6-.3,2.9-1.4,6.6-.9,10.5,1.4l-224,129.9c-3.9-2.2-7.6-2.7-10.5-1.4-.2,0-.4.2-.6.3"/>
              </g>
            </g>
            <g class="st31">
              <path class="st26" d="M361.7,570.8l224-129.9c3,1.9,5.8,4.3,8.2,7.1l-224,129.9c-2.5-2.8-5.2-5.2-8.2-7.1"/>
              <path class="st26" d="M369.9,577.9l224-129.9c3.1,3.5,5.7,7.6,7.5,11.8l-224,129.9c-1.9-4.2-4.4-8.3-7.5-11.8"/>
              <path class="st26" d="M377.4,589.7l224-129.9c2.2,5.1,3.5,10.4,3.2,15.2-.3,6.9-2.9,11.7-6.9,14l-224,129.9c4-2.3,6.6-7.1,6.9-14,.2-4.8-1-10.1-3.2-15.2"/>
            </g>
            <g class="st31">
              <g class="st31">
                <path class="st26" d="M338.3,543.4l224-129.9c.4-.3.9-.5,1.4-.7,6.8-3.2,15.5-2.1,24.7,3.2.6.3,1.1.7,1.7,1,6.3,4,12.4,9.2,17.9,15.5l-224,129.9c-5.5-6.3-11.5-11.5-17.8-15.5-.6-.4-1.1-.7-1.7-1-9.2-5.3-17.9-6.4-24.7-3.2-.5.2-.9.5-1.4.7"/>
                <path class="st26" d="M383.9,562.5l224-129.9c5.1,5.8,9.7,12.5,13.7,19.7,1.5,2.7,2.8,5.4,4,8.1l-224,129.9c-1.2-2.7-2.5-5.4-4-8.1-3.9-7.2-8.6-13.9-13.7-19.7"/>
                <path class="st26" d="M401.6,590.2l224-129.9c5.5,12.5,8.3,25.2,7.8,36.4-.7,15.5-6.3,27-16.1,32.6l-224,129.9c9.7-5.6,15.4-17.1,16.1-32.6.5-11.2-2.3-23.9-7.8-36.4"/>
              </g>
            </g>
            <path class="st23" d="M468.8,142.3c-.4-.2-.9-.5-1.3-.7-4.3-2.5-8.4-6-12-10.1-4.3-4.9-8-10.7-10.7-16.8-2.8-6.3-4.5-13-4.7-19.2-.3-7.3,2.1-12.6,6.3-15l-224,129.9c-4.2,2.4-6.5,7.7-6.3,15,.2,6.2,1.9,12.9,4.7,19.2,2.7,6.1,6.4,11.9,10.7,16.8,3.6,4.1,7.7,7.6,12,10.1.4.2.8.5,1.3.7,9.1,4.8,17.2,5,23.1,1.5l224-129.9c-5.9,3.5-14.1,3.2-23.1-1.5Z"/>
            <polygon class="st22" points="228.9 230.2 452.9 100.3 454.8 101.3 230.8 231.2 228.9 230.2"/>
            <path class="st30" d="M465.5,119.2c-1.6-.9-3.2-2.3-4.7-3.9-.9-1-1.8-2.2-2.5-3.5-.6-1-1.2-2-1.6-3.1-1.1-2.5-1.8-5.1-1.8-7.5l-224,129.9c0,2.4.7,5,1.8,7.5.5,1,1,2.1,1.6,3.1.8,1.3,1.6,2.4,2.5,3.5,1.4,1.6,3,3,4.7,3.9,3.9,2.1,7.2,2.3,9.6.9l224-129.9c-2.4,1.4-5.7,1.2-9.6-.9Z"/>
            <path class="st19" d="M477.7,98.5c-1.9-4.2-4.4-8.2-7.5-11.7-2.8-3.1-5.9-5.8-9.3-7.8-6.2-3.3-11.7-3.4-15.8-1.1l-224,129.9c4.1-2.4,9.6-2.2,15.8,1.1,3.4,2,6.5,4.6,9.3,7.8,3.1,3.5,5.6,7.5,7.5,11.7,1.9,4.4,3.1,8.9,3.2,13.2.2,4.9-1.3,8.6-4.1,10.5-.1,0-.3.2-.5.3l224-129.9c.2,0,.3-.2.4-.3,2.8-1.9,4.3-5.6,4.1-10.5-.2-4.3-1.3-8.8-3.2-13.2Z"/>
            <g class="st31">
              <path class="st26" d="M195.7,170.8L419.7,40.9c9.9-5.7,22.8-4.9,36.8,2.5.7.4,1.4.8,2.1,1.2l-224,129.9c-.7-.4-1.4-.8-2.1-1.2-14-7.4-27-8.2-36.9-2.5"/>
            </g>
            <path class="st17" d="M234.6,174.5c11.4,6.6,22.2,17.6,30.6,31.4,8.9,14.6,14.2,30.5,14.7,44.8.9,23.7-14.9,34.4-35,23.8-.5-.2-.9-.5-1.4-.7-15.6-9-28.7-30.8-29.3-49.3-.6-15.4,9.7-22.3,22.7-15.4,11.1,6.4,19.6,20.5,20,32.6.2,4.9-1.3,8.6-4.1,10.5-2.8,1.9-6.6,1.8-10.8-.4-3.7-2.1-6.7-5.2-9.1-9-2.5-4.1-3.9-8.5-4.1-12.4l1.9,1c.1,3.4,1.4,7.1,3.5,10.6,2,3.2,4.5,5.8,7.2,7.4,4.2,2.2,7.5,2.3,10,.7,2.5-1.7,3.7-5,3.6-9.2-.4-10.9-8-23.7-17.2-29-12.8-6.8-22.2-.4-21.7,13.8.6,17.4,12.8,37.7,27.4,46.2.4.2.8.5,1.3.7,19.1,10,34,0,33.2-22.5-.5-13.7-5.5-28.9-14.1-42.9-8.1-13.2-18.4-23.8-29.3-30.1-.7-.4-1.4-.8-2-1.1-29.7-15.6-52.3-.3-52.4,35.6,0,21-.8,255.1-.8,257.5-.1,46.9,33.1,104.4,74,128,11.5,6.7,22.2,12.8,31.9,18.4,31.4,18.1,53.1,30.7,64.7,37.3,31.3,18,56,6.4,57.4-27,.6-13.1-3.4-28.2-11.3-42.6-7.8-14.4-18.6-26.4-30.2-33.7-.5-.3-1.1-.7-1.6-1-8.7-5-17-6.1-23.4-3.1-6.9,3.2-10.9,10.7-11.3,21.1-.4,8.3,2.2,17.8,7.1,27,5,9.1,11.7,16.7,19.1,21.3.3.2.7.4,1,.6,11.6,6.7,21.4,1.8,21.9-11.4.5-10.7-6.9-24.3-16.5-30.3-4.1-2.4-7.3-2.8-9.8-1.6-2.7,1.3-4.3,4.2-4.5,8.3-.3,6.6,4.3,15.1,10.2,18.8v2.1c-7-4.4-12.4-14.3-12.1-22.1.2-4.7,2-8,5.1-9.5,2.9-1.4,6.6-.9,10.5,1.4,11.3,7.1,19.5,22.2,19,34.1-.6,14.3-11.2,19.7-23.8,12.4-.4-.2-.7-.4-1.1-.7-7.9-4.9-15.1-13-20.4-22.8-5.3-9.7-8-20-7.6-28.8.5-11,4.7-18.9,12-22.3,6.8-3.2,15.5-2.1,24.7,3.2.6.3,1.1.7,1.7,1,12.1,7.6,23.3,20.1,31.5,35.2,8.2,15,12.3,30.9,11.8,44.5-.7,16.8-7.3,28.8-18.5,33.9-11,5-25.5,2.9-40.8-5.9-11-6.3-30.9-17.8-59.5-34.3-11.1-6.4-23.5-13.5-37.1-21.4-42-24.2-76-83.1-75.9-131.3,0-2.4.7-236.5.8-257.5,0-17.6,5.6-31,15.4-38,10.1-7.1,23.8-6.6,38.8,1.2.7.4,1.4.8,2.1,1.2Z"/>
            <g class="st31">
              <g class="st31">
                <path class="st26" d="M234.6,174.5L458.7,44.6c7,4,13.7,9.7,19.8,16.7l-224,129.9c-6.1-7-12.9-12.7-19.8-16.7"/>
                <path class="st26" d="M254.5,191.2L478.5,61.3c3.9,4.4,7.5,9.3,10.8,14.7,2.6,4.3,4.9,8.7,6.9,13.1l-224,129.9c-2-4.4-4.3-8.8-6.9-13.1-3.3-5.3-6.9-10.3-10.8-14.7"/>
                <path class="st26" d="M272.1,219l224-129.9c4.7,10.7,7.4,21.6,7.8,31.7.4,12.5-3.7,21.3-10.7,25.4l-224,129.9c7-4.1,11.1-12.9,10.7-25.4-.4-10.1-3.1-21-7.8-31.7"/>
              </g>
            </g>
            <g>
              <path class="st22" d="M403.9,198.1h0c0,0,0,0,0,0Z"/>
              <path class="st22" d="M403.9,198.1c-2.7,1.8-117.8,68.2-134.3,77.7,4-2.5,11.2-8.8,10.2-27.7-.4-6.6-5.8-28.6-19.1-46.4-4.7-6.3-10.5-13.5-17-18.7-11.5-9.1-25.6-15.3-37.8-13.1-24.9,4.3-25.4,34.1-25.7,40.4l-.3,128.2,224.1-130.9v-9.4Z"/>
              <path class="st22" d="M400.9,652.7c2.3-3.5,4.5-7.2,5.8-10.8,4.5-12.5,3-24.8,1-33.1-1.3-5.7-5.8-22.7-17.7-38.6-4.2-5.6-9.3-12.3-15.1-16.9-4-3.2-8.4-6.5-13-8.8-7.2-3.5-14.8-4.9-20.7-2.5-5.7,2.3-8.9,6.3-10.9,10.7-3.6,8-2.6,17.5-2,21,0,0,.7,10.2,9.7,24.6,5.7,9.2,13.3,15.1,13.3,15.1l-33.3,20.6v2.2s8.6,4.9,25.3,14.6c4.4,2.6,9.3,5.7,15.3,8.1,5.6,2.3,12.4,4.2,18,4.4,5,.2,9.6-.6,13.7-2.4,5-2.1,9-5.5,10.7-8.1Z"/>
            </g>
          </g>
          <g>
            <path class="st37" d="M254.6,526.5l.6.9-31.2,16.1-.5-.7c0,0-5.1-7.1-9.9-15.2-5.2-8.7-8.7-15.9-8.7-16l-.4-.8,31.2-16.1.5.9c1.2,2.3,2.1,4,2.8,5.3,1.8,3.4,2.7,5.1,6.2,11,5.1,8.5,9.4,14.4,9.5,14.5ZM224.2,541.3l28.7-14.8c-1.4-2-4.9-7.1-9-13.8-3.6-6-4.5-7.7-6.3-11.2-.6-1.2-1.4-2.9-2.4-4.7l-28.7,14.8c1,2,4.2,8.4,8.3,15.4,3.9,6.6,7.9,12.4,9.3,14.3"/>
            <polygon class="st37" points="391.4 404.4 240.9 492.2 241.7 493.7 392.1 406.1 391.4 404.4"/>
            <polygon class="st37" points="396.8 414.7 246.3 502.6 247.1 504 397.5 416.4 396.8 414.7"/>
            <polygon class="st37" points="403 424.8 252.5 512.7 253.3 514.2 403.7 426.5 403 424.8"/>
            <polygon class="st37" points="409.7 434.8 259.2 522.6 260 524.1 410.4 436.5 409.7 434.8"/>
          </g>
          <path class="st17" d="M258.2,625.5c-9.7-5.6-20.3-11.7-31.9-18.4-40.9-23.6-74.1-81.1-74-128,0-2.2.6-120.4.7-157.3h0c0-3.6,0-8.3,0-8.3-.4-24.1-4.4-44.5-19.2-67.3-6-9.2-13.3-16.2-20.5-20.3-9.3-5.4-18.6-6.1-25-.9-4.5,3.6-6.5,10.2-5.9,18.6.6,8.4,4,17.5,9.3,25.7,3.9,6,8.6,10.5,13.4,13.2,6.1,3.5,12.1,4,16.3.6,6-4.9,5-17.8-2.2-28.9-2.6-3.9-5.7-6.9-8.8-8.7-4-2.3-8-2.6-10.7-.4-4,3.2-3.3,11.8,1.5,19.1,1.7,2.6,3.8,4.6,5.8,5.8,2.6,1.5,5.3,1.7,7.1.3,2.6-2.2,2.2-7.9-1-12.8l-1.2,1c2.4,3.7,2.7,8,.7,9.6-1.4,1.2-3.5,1-5.7-.2-1.6-.9-3.3-2.5-4.6-4.6-1.9-2.9-3.1-6.2-3.3-9.2-.2-3,.5-5.4,2.1-6.7,2.4-1.9,5.8-1.7,9.2.3,2.7,1.5,5.4,4.1,7.6,7.5,3.1,4.8,5,10.1,5.4,14.9.4,4.8-.8,8.7-3.4,10.8-3.8,3.1-9.3,2.7-14.8-.5-4.3-2.5-8.6-6.6-12.2-12-5-7.6-8.1-16.1-8.6-23.8-.6-7.8,1.3-13.9,5.5-17.2,6-4.9,14.8-4.2,23.6.9,6.8,3.9,13.7,10.5,19.3,19.2,14.4,22.1,18.3,42,18.6,65.7,0,22.6-.8,162.8-.8,165.2-.1,48.1,33.9,107,75.9,131.3,13.7,7.9,26,15,37.1,21.4,28.6,16.5,48.5,28,59.5,34.3v-2.2c-11.6-6.7-33.3-19.2-64.7-37.3Z"/>
        </g>
        <g>
          <g>
            <path class="st9" d="M583.2,815.5c-30.6,17.6-80.1,17.6-110.6,0-30.6-17.6-30.6-46.2,0-63.9,30.5-17.6,80.1-17.6,110.6,0,30.6,17.6,30.6,46.2,0,63.9Z"/>
            <g>
              <path class="st5" d="M544.2,792.5v8.6c-1.8,10.1-18.2,4.7-25.4,4.7v-2.1c-13.9-2.3-40-2.8-46.1-14,0,0,.3-6.1.3-6.1l71.2,8.9Z"/>
              <path class="st10" d="M517.7,799.7c-12.2-1.1-39.7-2-44.7-14.3-1.1-2.5,1.1-5.7,5.4-6.8,13.4-1.7,23.3,1.3,34.4-7.9l29.3,3.2c6.8,22.5,3.8,31.9-24.3,25.8h0Z"/>
              <path class="st6" d="M589.3,783.2c2,9.8-6.3,12.1-19,11.5-6.1-1.9-11.3-5-16.1-8.6l.7-2.5c-9.5-7.6-44.6-14.6-35.1-29.3l66.6,20,2.9,8.9h0Z"/>
              <path class="st10" d="M589.3,766.8c5.8,19-3,28-25.4,20.4,0,0-12.9-8.9-12.9-8.9-11.2-5.4-25.5-10.1-32.9-21.1.2-6,3.6-9.3,7.2-8.6,13,.7,24.7,3.6,36.5,4.3l27.6,14Z"/>
              <g>
                <path class="st3" d="M545.2,468.1c-1.3,66.4-2.1,132.6,7.9,197.5,0,0,0,91.3,0,91.3,14,25.3,26.3,25.4,37.9,16.1,7.8-48.8,9.3-97.4,1.8-146.4,11.5-89.2,44.8-127.1-40.9-196.2l-6.7,37.7h0Z"/>
                <g class="st43">
                  <path class="st15" d="M588.2,444.7c8.4,34.8,9.3,67.8-1.9,97.8,0,0-1.7,8.6-3.9,20.3-16.4,77.7,3.8,175.9-17.5,246.6,0,0-57.8-31-52.6-30.7,50.6,2.5,32-367.9,32-367.9l30.5,30.9,13.4,3.1Z"/>
                </g>
              </g>
              <g>
                <path class="st3" d="M498.8,483.4c-1.3,66.4-2.1,132.6,7.9,197.5,0,0,0,91.3,0,91.3,14,25.3,26.3,25.4,37.9,16.1,7.8-48.8,9.3-97.4,1.8-146.4l18.5-73s24.2-38.3,3.2-67.6c-21-29.4-36.4-14.7-36.4-14.7l-32.9-3.2h0Z"/>
                <g class="st29">
                  <path class="st15" d="M538.5,432.5c10.8,65.8.8,142.7-14.3,207.2,0,0,4.7,186.8,4.7,186.8,0,0-101.9-28.7-98.4-32.6,3.5-3.9,15.7-308.1,15.7-308.1l82.3-29,10-24.3h0Z"/>
                </g>
              </g>
              <g>
                <path class="st7" d="M494.5,530.2c37,41.1,86.9,20.1,119.5-19.3-22.8-65.8-3.5-96.2,10.3-163.5-5.2-58.9-65.2-18.9-89.4,0-18.8,11.1-31.3,23-28.6,36.9l-11.8,146h0Z"/>
                <g class="st40">
                  <path class="st14" d="M538.5,578.2c-11.6-30.3-19.5-73.7-13.6-107.6,1.8-13.1,4.1-25.9,6.8-34.5,8-24.5,3.9-75.1-15-73.7-56.2,97.2-56.9,68.7-62.3,184.3l84.1,31.5Z"/>
                </g>
              </g>
              <g>
                <path class="st4" d="M540.3,340.2s4.8-20.3-9.7-25c-13.7-12.3-12.9-54.2,2.9-74.4l53,30.4-7.9,36.5c-1.1,7.8,1.7,15.2-6.4,20.4l-31.8,12.2h0Z"/>
                <g class="st34">
                  <path class="st13" d="M524.2,321.2l6.4-6.1s17.6.9,21.8-5.4c0,0-1.1,9.3-15,15l-13.2-3.6h0Z"/>
                </g>
              </g>
              <path class="st12" d="M578.2,242.9c17.8,14.5,21.5,30.3,16.1,46.9-4.3,12.8-17.6,36.6-35.1,23.3.4-3.4-.3-42.2-16.8-22.5,0,0,.7-10.5-6.8-15,0,0-14.4-15.5-13.6-22.2,1.2-36.8,38.2-26,56.2-10.4h0Z"/>
              <path class="st8" d="M537.4,344.9l1.1-8.9c16.1-2.3,29.6-8.5,40.1-20,16.4,11.1-18.6,26-28.6,27.2-4.5.5-8.9,1-12.5,1.8h0Z"/>
              <path class="st24" d="M491,282.8s6.3-5.4,8.3-9.6c2-4.2,7.9-13.4,7.9-13.4,4.9-5.3,13.4-16.1,24-11.8,4.8,4.5-7.7,15.3-8.1,16.5,0,0-3.3,5.7-3.3,5.7,3.1-1.8,7.6-5.3,11.3-5.8,5.6-.9,4.5,1.4,1.3,3.9-5.4,3.2-7.6,9.5-12.7,13.1-3.6,1.2-11,10-13.4,12.8l-15.3-11.3h0Z"/>
              <path class="st11" d="M487.3,348.2l-5.8-10.1c4.5-16.2,20.6-29.8,28.7-45-3.9-7.3-9-12.9-15.6-16.5-18.8,11.2-34.3,33.7-45.7,51.5,0,0-8.9,13.1-2.5,25.5,6.4,12.4,18.4,3.4,18.4,3.4l22.5-8.7h0Z"/>
              <path class="st11" d="M533.9,384.3c-34.1,34.4-60.7,16.5-87.3-30.6,0,0,8.8-18.9,35.2-15.8,0,0,10.5,7.4,18.3,12.8,5.5,3.8,11.3,7,17.5,9.5,12.1,4.2,25.9,9.2,16.2,24h0Z"/>
            </g>
          </g>
          <g>
            <path class="st42" d="M608,265.9s-2.7,13.2-29.8,13.3c-12.3,0-25-1.5-36.8-4.9-5.9-1.7-11.7-3.8-17.3-6.2-7.7-3.3-17.1-8-19.8-16.6-1.3-4.2.8-8.1,4.2-10.6,3.9-2.7,8.9-5,13.4-6.3,4.8-1.4,35.6-3.4,58,6.4,22.4,9.8,30.1,16.2,28,24.9Z"/>
            <path class="st27" d="M533.6,216.4c14.9-12.9,40.2-9.8,55,1.2,11.7,8.8,19.9,23.1,17.4,38-.3,2.1-.7,4.8-1.6,6.6,0,0-14.8,23.2-73-.9,0,0-12.6-5.4-16.1-12.7-.7-1.4-.5-2.9,0-4.3,3.3-7.5,11.2-21.8,18.2-27.9Z"/>
            <path class="st38" d="M533.6,216.4c14.9-12.9,40.2-9.8,55,1.2,3.2,2.4,6.1,5.2,8.7,8.4-1.3-1.2-2.6-2.4-4-3.5-14.7-11.3-40.1-14.1-55.3-.4-7.2,6.5-15.3,21.6-18.8,29.4-.2.5-.3,1.1-.4,1.7-1.5-1.4-2.7-2.9-3.5-4.6-.7-1.4-.5-2.9,0-4.3,3.3-7.5,11.2-21.8,18.2-27.9Z"/>
          </g>
        </g>
      </g>
      <path class="st26" d="M569,226.7l-17,42.4c-2.5,6.2-.8,13.2,4.1,17.7h0c6.6,6,16.6,6,23.2,0l.4-.3c4.7-4.3,6.4-11,4.3-17l-14.9-42.7Z"/>
    </g>
  </g>
</svg>