<?xml version="1.0" encoding="UTF-8"?>
<svg id="Layer_2" xmlns="http://www.w3.org/2000/svg" version="1.1" viewBox="0 0 684.7 688.8">
  <!-- Generator: Adobe Illustrator 29.3.1, SVG Export Plug-In . SVG Version: 2.1.0 Build 151)  -->
  <defs>
    <style>
      .st0 {
        fill: #221f55;
      }

      .st1 {
        fill: #f9aa78;
      }

      .st2 {
        fill: #333;
      }

      .st3 {
        fill: #8d8cc4;
      }

      .st4, .st5 {
        fill: #716fb4;
      }

      .st6 {
        fill: #ebedf5;
      }

      .st7 {
        fill: #181346;
      }

      .st8, .st9 {
        fill: #fff;
      }

      .st10 {
        fill: #232323;
      }

      .st11 {
        fill: #191919;
      }

      .st5 {
        opacity: .5;
      }

      .st12 {
        fill: #2a2967;
      }

      .st13 {
        fill: #7d7d7d;
      }

      .st14 {
        fill: #9b99cb;
      }

      .st9 {
        opacity: .6;
      }

      .st15 {
        fill: #221d54;
      }

      .st16 {
        fill: #171021;
      }

      .st17 {
        fill: #c5bdde;
      }
    </style>
  </defs>
  <g>
    <g id="Computer">
      <path class="st12" d="M239.7,67.7v228.4c0,11.1,5.9,21.3,15.5,26.9l241.5,139.4c8.8,5.1,19.9-1.3,19.9-11.5v-221.4c0-11.2-6-21.5-15.6-27.1L253.7,59.7c-6.2-3.6-14,.9-14,8.1Z"/>
      <path class="st17" d="M250.1,82.3v211.2c0,10.2,5.5,19.7,14.3,24.8l223.4,128.9c8.2,4.7,18.4-1.2,18.4-10.6v-204.7c0-10.3-5.5-19.9-14.5-25l-228.7-132.1c-5.7-3.3-12.9.8-12.9,7.5Z"/>
      <path class="st15" d="M512.3,195.8L267.9,54.5c-4.3-2.5-9.5-2.5-13.9-.2l-9,4.9h0c2.6-1.2,5.7-1.2,8.6.4l247.3,142.8c9.7,5.6,15.6,15.9,15.6,27.1v221.4c0,4.3-1.9,7.9-4.8,10.3l8.8-5.1c4.5-2.6,7.3-7.5,7.3-12.7v-220.5c0-11.2-6-21.5-15.6-27.1Z"/>
      <path class="st17" d="M350.6,378v17.9c0,0,0,.2,0,.3,0,1-.3,10.7-25.4,18.2-17,5.1-35.3,10.4-47.6,14-5.5,1.6-6.5,9.1-1.5,12,19,11.2,53.9,31.5,71.9,42,6.6,3.8,15,2.6,20.1-3.1l31.4-34.5s6.3-6.6,6.3-13.5,0-21.4,0-21.4l-55.2-31.9Z"/>
      <path class="st12" d="M405.8,410s0,16,0,21.4-6.3,13.5-6.3,13.5l-31.4,34.5c-5.1,5.6-13.5,6.9-20.1,3.1-17.9-10.4-52.8-30.8-71.9-42-1.7-1-2.7-2.6-3.1-4.2-.6,2.7.5,5.8,3.3,7.5,20.2,11.9,52.3,30.4,71.4,41.5,7,4.1,15.9,2.7,21.5-3.4l33.4-36.7s6.1-6.1,6.1-14.6,0-13.5,0-18.8l-2.9-1.7Z"/>
      <path class="st4" d="M516.6,423.5v27.4c0,10.2-11,16.6-19.9,11.5l-241.5-139.4c-9.6-5.5-15.5-15.8-15.5-26.9v-32.7l276.9,160.1Z"/>
      <ellipse class="st8" cx="378.2" cy="367.1" rx="7.5" ry="11.9" transform="translate(-127.1 217.2) rotate(-27.6)"/>
      <polygon class="st9" points="471.6 195.2 466 192 288.5 291.8 294.1 295 471.6 195.2"/>
      <polygon class="st9" points="278.5 285.9 455.9 186.2 433.4 173.1 255.9 272.8 278.5 285.9"/>
      <polygon class="st9" points="482.8 201.7 305.4 301.4 311.7 305.1 489.1 205.3 482.8 201.7"/>
    </g>
    <g id="Schedule_board">
      <g id="Ipad">
        <path class="st4" d="M283.8,255.9l118.1,70.2,2.9-1.6c1.8-1,2.9-2.9,2.9-4.9l1.3-203.5c0-4.2-2.2-8.1-5.7-10.2l-114.2-66.9c-1.9-1.1-4.2-1.1-6,0l-3.7,2.1-1.5,204.2c0,4.4,2.3,8.4,6,10.6Z"/>
        <path class="st12" d="M280.4,258.1l116.3,68.2c3.3,1.9,7.5-.4,7.5-4.3l1.3-203.7c0-4.2-2.2-8.1-5.8-10.2l-114.1-66.9c-4.3-2.5-9.6.6-9.7,5.5l-1.5,200.8c0,4.4,2.3,8.4,6,10.6Z"/>
        <path class="st17" d="M284.2,255.8l109.4,64.1c3.1,1.8,7.1-.4,7.1-4l.9-192.6c0-4-1.2-5.6-4.7-7.6l-109.4-64c-4-2.4-7.9,0-7.9,4.6l-1.1,189.5c0,4.1,2.1,8,5.7,10Z"/>
      </g>
      <polygon class="st3" points="309.7 91.4 309.7 103.2 391.6 150.7 391.6 139 309.7 91.4"/>
      <polygon class="st8" points="288.3 79.1 288.3 90.9 299.7 97.3 299.7 85.6 288.3 79.1"/>
      <polygon class="st3" points="309.7 113.6 309.7 125.4 391.6 172.9 391.6 161.3 309.7 113.6"/>
      <polygon class="st8" points="288.3 101.3 288.3 113.1 299.7 119.6 299.7 107.9 288.3 101.3"/>
      <polygon class="st3" points="309.7 135.9 309.7 147.7 391.6 195.2 391.6 183.5 309.7 135.9"/>
      <polygon class="st8" points="288.3 123.5 288.3 135.4 299.7 141.8 299.7 130.1 288.3 123.5"/>
      <polygon class="st3" points="309.7 158.7 309.7 170.5 391.6 218 391.6 206.3 309.7 158.7"/>
      <polygon class="st8" points="288.3 146.3 288.3 158.1 299.7 164.6 299.7 152.9 288.3 146.3"/>
      <polygon class="st3" points="309.7 181.5 309.7 193.3 391.6 240.8 391.6 229.1 309.7 181.5"/>
      <polygon class="st8" points="288.3 169.1 288.3 180.9 299.7 187.4 299.7 175.7 288.3 169.1"/>
      <polygon class="st3" points="309.7 204.3 309.7 216.1 391.6 263.6 391.6 251.9 309.7 204.3"/>
      <polygon class="st8" points="288.3 191.9 288.3 203.7 299.7 210.2 299.7 198.5 288.3 191.9"/>
      <polygon class="st3" points="309.7 227.1 309.7 238.9 391.6 286.4 391.6 274.7 309.7 227.1"/>
      <polygon class="st8" points="288.3 214.7 288.3 226.5 299.7 233 299.7 221.3 288.3 214.7"/>
      <path class="st12" d="M317.2,82.5l48.4,28v-9.3c0-1.6-.9-3-2.2-3.8l-9.9-5.7v-6.6c0-1.3-.6-2.5-1.7-3.1l-17.4-10.2c-1.4-.8-3.2.2-3.2,1.8v5.2s-11.4-6.6-11.4-6.6c-1.1-.6-2.5.2-2.5,1.5v8.9Z"/>
      <g>
        <path class="st4" d="M319.7,72.2l11.4,6.6v-1.2s-10.3-5.9-10.3-5.9c-.7-.4-2,0-2.8.6.5-.3,1.1-.3,1.7,0Z"/>
        <path class="st4" d="M366.7,100.6c0-1.6-.8-3-2.2-3.8l-9.9-5.7v-6.6c0-1.3-.6-2.5-1.7-3.1l-17.4-10.2c-1-.6-2.5-.2-3.4.7.6-.4,1.5-.5,2.3,0l17.4,10.2c1.1.6,1.8,1.8,1.8,3.1v6.6s9.9,5.7,9.9,5.7c1.4.8,2.2,2.2,2.2,3.8v9.3s1.2-.6,1.2-.6v-9.3Z"/>
      </g>
      <path class="st4" d="M289.7,86l1.7,2.7s7-3.2,7-3.1-7.3,5.1-7.3,5.1l-1.4-4.7Z"/>
      <path class="st4" d="M289.7,108.3l1.7,2.7s7-3.2,7-3.1-7.3,5.1-7.3,5.1l-1.4-4.7Z"/>
      <path class="st4" d="M289.7,130.8l1.7,2.7s7-3.2,7-3.1-7.3,5.1-7.3,5.1l-1.4-4.7Z"/>
      <path class="st4" d="M289.7,153.3l1.7,2.7s7-3.2,7-3.1-7.3,5.1-7.3,5.1l-1.4-4.7Z"/>
      <path class="st4" d="M289.7,176.7l1.7,2.7s7-3.2,7-3.1-7.3,5.1-7.3,5.1l-1.4-4.7Z"/>
      <path class="st4" d="M289.7,198.9l1.7,2.7s7-3.2,7-3.1-7.3,5.1-7.3,5.1l-1.4-4.7Z"/>
      <path class="st4" d="M289.7,221.7l1.7,2.7s7-3.2,7-3.1-7.3,5.1-7.3,5.1l-1.4-4.7Z"/>
    </g>
    <g id="Man">
      <path class="st1" d="M187.6,366.1l2.3-3.3c3.1-1.5,4.9-4.5,6-6.1.3-.4.1-.9-.3-1.2-1.9-1-4.2,1.8-4.2,1.8l3.9-6.8s-11.2-6.1-11.6,8.7l-.7,1c.7.9,1.3,1.7,1.9,2.6.9,1,1.8,2.1,2.7,3.2Z"/>
      <ellipse class="st5" cx="167.7" cy="587.5" rx="48.1" ry="24.8"/>
      <path class="st0" d="M190.9,438.7v154.3s-15.8,7.4-26.6,1.2c-.4-2.3-1.7-120.9-1.7-120.9l-1.7,105.3s-14.9,10.3-25.3-.6c-.4-1.9,2-150.9,2-150.9,0,0,9.9,18.4,53.3,11.6Z"/>
      <path class="st17" d="M187,444.1c-6,2-12.5,2.8-16.8,3.1-2.4.1-5.8.1-8.5-.1-19.9-1.9-25.7-6.9-24.8-19.4,1-13.2-1.9-42.5-1.9-42.5-7.5-52.5,21.1-39.8,21.1-39.8,0-.2,1.7.7,3.5,1.9,3.3,2.1,7,3.4,10.9,3.9,5.1.6,12.4,3.2,18.6,10.2,8.4,9.5,5.8,13.5,6.5,19.1,1.5,12.4-4.4,20-4.2,23,.2,4.5-.1,7.1-.2,12.9,0,1.1-.2,4,.5,11.6,0,0,1,8.2,0,12.1-.5,2-2.8,3.6-4.8,4.2Z"/>
      <rect class="st8" x="181.7" y="465.6" width=".4" height="122"/>
      <rect class="st8" x="99.3" y="522.4" width="108.5" height=".4" transform="translate(-372.1 665.4) rotate(-88.8)"/>
      <path class="st1" d="M182.5,317.7c.6.2,4.1,31.3-10.5,27.8,0,0,0,3.7,1.3,6,0,0-10.4,3.7-16.6-1.4-1.1-.9-1.5-2.4-1.1-3.8.4-1.3,1.1-3.2,1.9-5.3,2.1-5.8-3-33.7,25-23.3Z"/>
      <path class="st16" d="M173.9,351.7l-1.4-2.1s-11.8,3.2-16.4-4.3c0,0-3.7,5.1,5.6,7.2,9,1.8,12.3-.8,12.3-.8Z"/>
      <path class="st14" d="M189.1,404c0,0,0,0,.1.2,0,0,0-.1-.1-.2.2.2,1.1,1,2.4,2.2,0,5-.4,11.1-.3,13.5-12.3-8.7-20.3-24.3-19-41.1,2.7,6.2,7.8,14.4,17,25.3Z"/>
      <g>
        <polygon class="st2" points="142.7 345.5 142.7 345.5 142.7 345.5 142.7 345.5"/>
        <path class="st17" d="M127.1,395.9l.6-12.9c.3-22.1,7.9-32,13-36-5.2,4.5-8.9,14.9-5.7,38.1,0,0,2.7,18.2,2.4,31.4l-8.3-12.9c-1.5-2.3-2.2-5-2.1-7.7Z"/>
      </g>
      <path class="st14" d="M133.9,375.5h0c.2,2.9.5,6.1,1,9.5,0,0,1.8,12.3,2.3,24,0,0,0,0,0,0-5.6-10.5-3.3-33.6-3.3-33.6Z"/>
      <path class="st7" d="M156.7,446.6c1.5.2,3.3.3,5,.4,2.6.3,6.1.2,8.5.1,4.3-.2,10.8-1,16.8-3.1,1.4-.5,3-1.4,4-2.7v6.7s-47.1,11.3-53.4-12.7h0c1.7,5.6,6.7,8.7,16.6,10.5l2.6.6Z"/>
      <g>
        <path class="st10" d="M161,578.6l.2-13.7,1.7-.4s.3,0,.9,0c.1,7.3.2,13.7.3,18.8-1.9.7-4,1.4-6.2,2.3v2.2s-15.2,8.7-22.3-1.9v-10.3c0,1.6,0,2.6,0,2.7,10.5,10.8,25.3.6,25.3.6Z"/>
        <path class="st11" d="M135.6,571.7c0,1.4,0,2.6,0,3.6v-3.6h0Z"/>
      </g>
      <path class="st10" d="M164.3,592.5c10.7,6.1,26.6-1.2,26.6-1.2v-12.8h.4c0-.1,2.6-.2,6-1.3,4-1.3,8.4,1.1,9.4,5.2,0,0,.2,2.8.2,2.9,1.4,6.7-6.9,8.9-20.6,14v2.2s-15.2,8.7-22.3-1.9v-13.9h0c0,4.1.2,6.6.2,6.9Z"/>
      <g>
        <path class="st6" d="M186.3,599.4c12.1-4.5,20-6.8,20.7-11.8.8,6.3-7.4,8.5-20.7,13.5v-1.6Z"/>
        <path class="st6" d="M186.3,601.5v1.6s-15.2,8.7-22.3-1.9v-1.6c7,10.7,22.3,1.9,22.3,1.9Z"/>
      </g>
      <path class="st6" d="M157.9,587.5v1.6s-15.2,8.7-22.3-1.9v-1.6c7,10.7,22.3,1.9,22.3,1.9Z"/>
      <path class="st6" d="M164.1,584.7c-1.9.7-4,1.5-6.2,2.3v-1.6c2.2-.8,4.3-1.6,6.2-2.3,0,.6,0,1.1,0,1.6Z"/>
      <path class="st15" d="M175.2,333.5c-1,.2-.9-12-6.3,3.1-5.4,15.1-13.7,6.2-12.9,4.3.9-1.9-4.1-8.2-4.1-9,0-.7-11.2-10.7.2-24.7,5-6.1,25-5.5,28-9,3-3.5,14.9,15.9-2.4,22.5,0,0,.9,12.2-2.4,12.8Z"/>
      <path class="st17" d="M214,349.1c-24.9,42.3-35.7,29.1-35.7,29.1-16.6-8.5,12.4-37.6,12.4-37.6l8.7-10.4-22.1-12.6,3.7-8.6s41.5,8.6,39.6,19.8c-2,11.3-7.5,22.3-6.5,20.4Z"/>
      <path class="st1" d="M180.4,310.2l-2.6,6.4-6.4-.2c-1,0-1.8-.6-2.3-1.4l-2.1-3.7.6-2.6s3.1-5.7,6.4-4c1.7.9,2.6,2,3.1,2.7.4.5.8.9,1.4,1.3l1.7,1.6Z"/>
    </g>
  </g>
  <g>
    <path class="st13" d="M179.4,296.9c-.3-5.8-8.8-9.1-13.2-10.7-3.4-1.2-6.9-1.8-10.4-2-4.2-3.1-9.1-5.3-14.1-6.4-5.3-1.2-13.2-1.9-17.8,1.7-3.8,3-3,7.2.1,10.4,1.4,1.4,3,2.8,4.8,4-2.5,2.3-4.8,4.9-6.8,7.8-.4.6.5,1.2.9.6,1.9-2.9,4.2-5.6,6.8-7.8,11.4,7.6,28.4,11,40.8,9.6,4-.4,9.2-2.5,8.9-7.4ZM127.3,291.4c-1.2-1-4-3.4-4.6-4.7-2.5-6,4-7.8,8-8.4,3.3-.6,7.4,0,10.7.8,4.4,1,8.3,2.8,11.8,5.1-8.6.2-16.8,3.4-23.5,9-.8-.5-1.6-1.1-2.4-1.7ZM159.4,302.9c-4.2-.4-8.3-1.2-12.4-2.3-5.5-1.6-11.4-3.8-16.4-6.9,6.8-5.5,15.4-8.6,24.3-8.3,5.9,4.4,10.4,10.6,13.5,17.7,0,.2.4.1.4-.1-1.6-6.9-5.8-12.9-11.3-17.4.3,0,.7,0,1,0,4.2.6,8.1,1.9,11.8,3.8,1.7.9,9.5,3.9,7.2,9.3-2.3,5.5-15.1,4.3-18.2,4.1Z"/>
    <path class="st13" d="M126,280.7c-2.8,5,2.6,12.4,5.6,16.1,2.3,2.8,4.9,5.2,7.7,7.2,2,4.9,4.9,9.3,8.6,12.9,3.9,3.8,10.2,8.6,16,8,4.8-.5,6.4-4.5,5.4-8.9-.4-2-1.1-4-1.9-5.9,3.4-.6,6.7-1.6,9.9-3,.6-.3.2-1.3-.4-1-3.2,1.5-6.6,2.5-9.9,3-5.6-12.5-18.3-24.4-29.5-29.8-3.6-1.7-9.1-2.8-11.5,1.5ZM167.2,312.9c.5,1.4,1.6,5,1.4,6.4-1.1,6.4-7.5,4.4-11.2,2.9-3.1-1.3-6.3-4-8.6-6.3-3.2-3.2-5.6-6.8-7.3-10.6,7.4,4.4,16.1,6,24.6,4.9.4.9.8,1.8,1.1,2.7ZM146.1,286.1c3.3,2.6,6.4,5.4,9.2,8.5,3.8,4.2,7.6,9.2,10.2,14.5-8.7,1.1-17.6-.9-25-5.9-2.6-6.9-3.2-14.5-2.1-22.2,0-.2-.3-.3-.4-.1-2.3,6.7-1.9,14,.4,20.7-.3-.2-.5-.4-.8-.6-3.2-2.7-5.9-5.9-8-9.5-1-1.6-6-8.3-1.1-11.7,4.9-3.4,15.1,4.4,17.6,6.2Z"/>
    <path class="st13" d="M126,319.1c4.5,3.6,12.6-.6,16.8-2.9,3.2-1.8,5.9-4,8.3-6.5,5.1-1.2,10-3.4,14.1-6.4,4.4-3.2,10.1-8.7,10.5-14.5.3-4.8-3.5-7-7.9-6.8-2,.1-4.1.4-6.2.9,0-3.4-.5-6.8-1.4-10.3-.2-.7-1.3-.4-1.1.2.9,3.4,1.4,6.9,1.4,10.3-13.3,3.5-27,14.1-34.2,24.4-2.3,3.3-4.2,8.5-.4,11.6ZM164.4,283.6c1.5-.3,5.2-.8,6.6-.3,6.1,2.1,3.2,8.1,1.1,11.6-1.8,2.9-4.9,5.6-7.6,7.5-3.7,2.6-7.6,4.4-11.7,5.5,5.5-6.6,8.5-14.9,8.7-23.6,1-.3,1.9-.5,2.9-.7ZM134.6,300.1c3.1-2.9,6.4-5.5,9.9-7.8,4.8-3.1,10.3-6.1,16-7.8-.3,8.8-3.7,17.2-9.8,23.7-7.2,1.5-14.8.9-22.2-1.5-.2,0-.4.3-.2.4,6.3,3.3,13.5,4.1,20.5,3-.2.2-.5.5-.7.7-3.2,2.8-6.8,4.8-10.6,6.4-1.8.7-9.2,4.6-11.8-.7-2.6-5.3,6.7-14.3,9-16.4Z"/>
  </g>
</svg>