<?xml version="1.0" encoding="UTF-8"?>
<svg id="Layer_2" xmlns="http://www.w3.org/2000/svg" version="1.1" xmlns:xlink="http://www.w3.org/1999/xlink" viewBox="0 0 1069 812.1">
  <!-- Generator: Adobe Illustrator 29.3.1, SVG Export Plug-In . SVG Version: 2.1.0 Build 151)  -->
  <defs>
    <style>
      .st0 {
        fill: #221f55;
      }

      .st1 {
        fill: #454545;
      }

      .st2 {
        fill: #f9aa78;
      }

      .st3 {
        fill: #333;
      }

      .st4 {
        fill: #8d8cc4;
      }

      .st5, .st6 {
        fill: #716fb4;
      }

      .st7 {
        fill: #ebedf5;
      }

      .st8 {
        fill: #181346;
      }

      .st9, .st10 {
        fill: #fff;
      }

      .st11 {
        fill: #232323;
      }

      .st12 {
        fill: #f3f3f3;
      }

      .st13 {
        fill: #191919;
      }

      .st6 {
        opacity: .5;
      }

      .st14 {
        fill: none;
      }

      .st15 {
        fill: #2a2967;
      }

      .st16 {
        fill: #f05e9c;
      }

      .st17 {
        fill: #b7b1d8;
      }

      .st18 {
        fill: #9b99cb;
      }

      .st10 {
        opacity: .6;
      }

      .st19 {
        fill: #221d54;
      }

      .st20 {
        clip-path: url(#clippath);
      }

      .st21 {
        fill: #f99e2b;
      }

      .st22 {
        fill: #171021;
      }

      .st23 {
        fill: #c5bdde;
      }
    </style>
    <clipPath id="clippath">
      <rect class="st14" x="753.6" y="276.3" width="265" height="272.4" rx="15.6" ry="15.6"/>
    </clipPath>
  </defs>
  <g id="Computer">
    <path class="st15" d="M388.6,104.4v244.7c0,11.9,6.3,22.8,16.6,28.8l258.8,149.4c9.5,5.5,21.3-1.4,21.3-12.3v-237.2c0-12-6.4-23-16.7-29L403.6,95.7c-6.6-3.8-15,1-15,8.6Z"/>
    <path class="st23" d="M399.8,120v226.3c0,11,5.9,21.1,15.4,26.6l239.3,138.1c8.8,5.1,19.7-1.3,19.7-11.4v-219.3c0-11.1-5.9-21.3-15.5-26.8l-245.1-141.5c-6.1-3.5-13.8.9-13.8,8Z"/>
    <path class="st19" d="M680.7,241.6L418.9,90.2c-4.6-2.6-10.2-2.7-14.8-.2l-9.6,5.3h0c2.8-1.3,6.1-1.3,9.2.4l265,153c10.4,6,16.7,17,16.7,29v237.2c0,4.6-2.1,8.4-5.2,11l9.5-5.5c4.9-2.8,7.8-8,7.8-13.6v-236.2c0-12-6.4-23-16.7-29Z"/>
    <path class="st23" d="M507.4,436.8v19.2c0,0,0,.2,0,.3,0,1.1-.3,11.5-27.3,19.5-18.2,5.4-37.8,11.2-51,15-5.9,1.7-6.9,9.7-1.6,12.9,20.4,12,57.8,33.8,77,45,7.1,4.1,16.1,2.7,21.6-3.3l33.7-37s6.8-7,6.8-14.4,0-22.9,0-22.9l-59.2-34.2Z"/>
    <path class="st15" d="M566.6,471.1s0,17.2,0,22.9-6.8,14.4-6.8,14.4l-33.7,37c-5.5,6.1-14.5,7.4-21.6,3.3-19.2-11.2-56.6-33-77-45-1.8-1.1-2.9-2.8-3.3-4.5-.6,2.9.5,6.2,3.5,8,21.7,12.8,56,32.6,76.5,44.5,7.5,4.4,17.1,2.9,23.1-3.7l35.8-39.3s6.6-6.5,6.6-15.7,0-14.4,0-20.1l-3.1-1.8Z"/>
    <path class="st5" d="M685.3,485.6v29.4c0,10.9-11.8,17.8-21.3,12.3l-258.8-149.4c-10.3-5.9-16.6-16.9-16.6-28.8v-35.1l296.7,171.5Z"/>
    <ellipse class="st9" cx="537" cy="425.1" rx="8" ry="12.7" transform="translate(-135.9 297.4) rotate(-27.6)"/>
    <polygon class="st10" points="637.1 241 631.1 237.5 440.9 344.4 446.9 347.9 637.1 241"/>
    <polygon class="st10" points="430.2 338.1 620.3 231.3 596.1 217.3 406 324.1 430.2 338.1"/>
    <polygon class="st10" points="649.1 247.9 459.1 354.8 465.8 358.7 655.8 251.8 649.1 247.9"/>
  </g>
  <g id="Chart">
    <path class="st12" d="M333.3,265.6V105.2c0-4.6,5-7.5,8.9-5.2l215.4,124.9c4.4,2.5,7.1,7.2,7.1,12.2v157.4c0,5.9-6.4,9.6-11.5,6.7l-212.5-123c-4.5-2.6-7.3-7.4-7.3-12.6Z"/>
    <polygon class="st16" points="348.4 134.4 348.4 146.1 438 198 438 186.4 348.4 134.4"/>
    <polygon class="st5" points="460 199.3 460 211 549.6 262.9 549.6 251.4 460 199.3"/>
    <polygon class="st3" points="459.2 300.3 459.2 311.9 548.8 363.8 548.8 352.3 459.2 300.3"/>
    <polygon class="st23" points="460 223.1 460 282.5 549.6 334.3 549.6 275.1 460 223.1"/>
    <polygon class="st15" points="348.4 227.4 348.4 247 438 298.9 438 279.4 348.4 227.4"/>
    <polygon class="st21" points="348.4 253.8 348.4 255.7 438 307.6 438 305.8 348.4 253.8"/>
    <polygon class="st21" points="459.2 318.4 459.2 320.3 548.8 372.2 548.8 370.4 459.2 318.4"/>
    <polygon class="st21" points="459.2 325.8 459.2 327.7 548.8 379.6 548.8 377.8 459.2 325.8"/>
    <polygon class="st15" points="364.1 170.8 364.1 172.7 376.3 179.6 376.3 177.8 364.1 170.8"/>
    <polygon class="st5" points="364.1 193.9 364.1 195.8 376.3 202.7 376.3 200.9 364.1 193.9"/>
    <polygon class="st21" points="364.1 217.9 364.1 219.9 376.3 226.8 376.3 225 364.1 217.9"/>
    <polygon class="st21" points="348.4 260.3 348.4 262.2 438 314.1 438 312.3 348.4 260.3"/>
    <polygon class="st21" points="348.4 266.8 348.4 268.8 438 320.7 438 318.9 348.4 266.8"/>
    <polygon class="st15" points="348.4 158.6 348.4 170.3 358.4 176 358.4 164.5 348.4 158.6"/>
    <polygon class="st5" points="348.4 181.8 348.4 193.5 358.4 199.2 358.4 187.7 348.4 181.8"/>
    <polygon class="st21" points="348.4 204.9 348.4 216.6 358.4 222.4 358.4 210.8 348.4 204.9"/>
    <g>
      <path class="st21" d="M431.1,212c-5.2-8.2-12.2-14.1-19.3-16.9l-.6,28.9h-23.8c0-.3-.2-.6-.3-1,1.1,4.3,3,8.8,5.7,13,9.8,15.6,26.3,22.8,36.9,16.2,10.6-6.7,11.2-24.7,1.4-40.3Z"/>
      <path class="st19" d="M411.2,224.1l.6-28.9c-6.3-2.5-12.6-2.4-17.6.7-7.9,5-10.3,16.3-6.8,28.2h23.8Z"/>
      <path class="st5" d="M411.2,224.1l26.5,15c1.3-8-.9-17.9-6.6-27-5.2-8.2-12.2-14.1-19.3-16.9l-.6,28.9Z"/>
    </g>
    <path class="st19" d="M460,282.5s5.9-9.5,17.7-1.5c0,0,11.8,10.4,19.7,9.1,4.7-.8,10.8-9.9,18-6.1,3.6,1.9,5.7,8.8,12.7,10,6.8,1.1,21.6-9.9,21.6-9.9v50.2l-89.6-51.9Z"/>
    <path class="st19" d="M473.7,280.2v-34.4c0-.5-.8-.5-.8,0v34.4c0,.5.8.5.8,0h0Z"/>
    <path class="st19" d="M491.1,289.9v-34.4c0-.5-.8-.5-.8,0v34.4c0,.5.8.5.8,0h0Z"/>
    <path class="st19" d="M509.1,301.2v-34.4c0-.5-.8-.5-.8,0v34.4c0,.5.8.5.8,0h0Z"/>
    <path class="st5" d="M564.7,237.1c0-5-2.7-9.7-7.1-12.2l-215.4-124.9c-4-2.3-8.9.6-8.9,5.2v8.3l231.4,133.2v-9.5Z"/>
    <ellipse class="st9" cx="347.8" cy="112.7" rx="3.2" ry="4.8" transform="translate(-9.6 35.6) rotate(-5.8)"/>
    <ellipse class="st9" cx="360.6" cy="120.3" rx="3.2" ry="4.8" transform="translate(-10.3 37) rotate(-5.8)"/>
    <path class="st9" d="M376.8,127.7c.3,2.7-1,4.9-2.7,5.1-1.8.2-3.5-1.8-3.7-4.5s1-4.9,2.7-5.1c1.8-.2,3.5,1.8,3.7,4.5Z"/>
    <g>
      <path class="st1" d="M336.9,99.7h0s0,0,0,0h0Z"/>
      <path class="st19" d="M560.6,223.3l-215.7-125.1c-1.2-.7-2.7-.8-4-.2l-3.9,1.7c1.6-.7,3.5-.7,5.3.3l215.4,124.9c4.4,2.5,7.1,7.2,7.1,12.2v157.4c0,2.9-1.6,5.3-3.8,6.6h0s4.2-2.3,4.2-2.3c1.6-.9,2.5-2.5,2.5-4.3v-159c0-5-2.7-9.7-7.1-12.2Z"/>
    </g>
  </g>
  <g id="Calender">
    <g id="Chart1" data-name="Chart">
      <path class="st17" d="M313.6,291.7V125.1c0-4.6-5-7.5-8.9-5.2l-215.4,124.9c-4.4,2.5-7.1,7.2-7.1,12.2v163.5c0,5.9,6.4,9.6,11.5,6.7l212.5-123c4.5-2.6,7.3-7.4,7.3-12.6Z"/>
      <path class="st5" d="M82.3,257.1c0-5,2.7-9.7,7.1-12.2l215.4-124.9c4-2.3,8.9.6,8.9,5.2v17.5l-231.4,133.2v-18.8Z"/>
      <g>
        <path class="st1" d="M310,119.6h0s0,0,0,0h0Z"/>
        <path class="st19" d="M86.3,243.3l215.7-125.1c1.2-.7,2.7-.8,4-.2l3.9,1.7c-1.6-.7-3.5-.7-5.3.3l-215.4,124.9c-4.4,2.5-7.1,7.2-7.1,12.2v163.5c0,2.9,1.6,5.3,3.8,6.6h0s-4.2-2.3-4.2-2.3c-1.6-.9-2.5-2.5-2.5-4.3v-165.1c0-5,2.7-9.7,7.1-12.2Z"/>
      </g>
    </g>
    <path class="st9" d="M255.6,192.5v16.1c0,1.2-.6,2.2-1.6,2.8l-14.3,8.2c-.6.4-1.4,0-1.4-.8v-16.5c0-1.2.6-2.3,1.7-2.9l13.6-8c.9-.5,2,.1,2,1.2Z"/>
    <path class="st9" d="M278.3,179.4v16.1c0,1.2-.6,2.2-1.6,2.8l-14.3,8.2c-.6.4-1.4,0-1.4-.8v-16.5c0-1.2.6-2.3,1.7-2.9l13.6-8c.9-.5,2,.1,2,1.2Z"/>
    <path class="st9" d="M300.4,166.6v16.1c0,1.2-.6,2.2-1.6,2.8l-14.3,8.2c-.6.4-1.4,0-1.4-.8v-16.5c0-1.2.6-2.3,1.7-2.9l13.6-8c.9-.5,2,.1,2,1.2Z"/>
    <path class="st9" d="M188.4,231.3v16.1c0,1.2-.6,2.2-1.6,2.8l-14.3,8.2c-.6.4-1.4,0-1.4-.8v-16.5c0-1.2.6-2.3,1.7-2.9l13.6-8c.9-.5,2,.1,2,1.2Z"/>
    <path class="st16" d="M165.6,244.4v16.1c0,1.2-.6,2.2-1.6,2.8l-14.3,8.2c-.6.4-1.4,0-1.4-.8v-16.5c0-1.2.6-2.3,1.7-2.9l13.6-8c.9-.5,2,.1,2,1.2Z"/>
    <path class="st9" d="M211.1,218.1v16.1c0,1.2-.6,2.2-1.6,2.8l-14.3,8.2c-.6.4-1.4,0-1.4-.8v-16.5c0-1.2.6-2.3,1.7-2.9l13.6-8c.9-.5,2,.1,2,1.2Z"/>
    <path class="st5" d="M233.2,206.8v16.1c0,1.2-.6,2.2-1.6,2.8l-14.3,8.2c-.6.4-1.4,0-1.4-.8v-16.5c0-1.2.6-2.3,1.7-2.9l13.6-8c.9-.5,2,.1,2,1.2Z"/>
    <path class="st9" d="M255.6,219.4v16.1c0,1.2-.6,2.2-1.6,2.8l-14.3,8.2c-.6.4-1.4,0-1.4-.8v-16.5c0-1.2.6-2.3,1.7-2.9l13.6-8c.9-.5,2,.1,2,1.2Z"/>
    <path class="st5" d="M278.3,206.3v16.1c0,1.2-.6,2.2-1.6,2.8l-14.3,8.2c-.6.4-1.4,0-1.4-.8v-16.5c0-1.2.6-2.3,1.7-2.9l13.6-8c.9-.5,2,.1,2,1.2Z"/>
    <path class="st9" d="M300.4,193.5v16.1c0,1.2-.6,2.2-1.6,2.8l-14.3,8.2c-.6.4-1.4,0-1.4-.8v-16.5c0-1.2.6-2.3,1.7-2.9l13.6-8c.9-.5,2,.1,2,1.2Z"/>
    <path class="st9" d="M188.4,258.2v16.1c0,1.2-.6,2.2-1.6,2.8l-14.3,8.2c-.6.4-1.4,0-1.4-.8v-16.5c0-1.2.6-2.3,1.7-2.9l13.6-8c.9-.5,2,.1,2,1.2Z"/>
    <path class="st9" d="M165.6,271.3v16.1c0,1.2-.6,2.2-1.6,2.8l-14.3,8.2c-.6.4-1.4,0-1.4-.8v-16.5c0-1.2.6-2.3,1.7-2.9l13.6-8c.9-.5,2,.1,2,1.2Z"/>
    <path class="st9" d="M211.1,245v16.1c0,1.2-.6,2.2-1.6,2.8l-14.3,8.2c-.6.4-1.4,0-1.4-.8v-16.5c0-1.2.6-2.3,1.7-2.9l13.6-8c.9-.5,2,.1,2,1.2Z"/>
    <path class="st9" d="M233.2,232.3v16.1c0,1.2-.6,2.2-1.6,2.8l-14.3,8.2c-.6.4-1.4,0-1.4-.8v-16.5c0-1.2.6-2.3,1.7-2.9l13.6-8c.9-.5,2,.1,2,1.2Z"/>
    <path class="st9" d="M255.6,246.4v16.1c0,1.2-.6,2.2-1.6,2.8l-14.3,8.2c-.6.4-1.4,0-1.4-.8v-16.5c0-1.2.6-2.3,1.7-2.9l13.6-8c.9-.5,2,.1,2,1.2Z"/>
    <path class="st9" d="M278.3,233.2v16.1c0,1.2-.6,2.2-1.6,2.8l-14.3,8.2c-.6.4-1.4,0-1.4-.8v-16.5c0-1.2.6-2.3,1.7-2.9l13.6-8c.9-.5,2,.1,2,1.2Z"/>
    <path class="st9" d="M300.4,220.4v16.1c0,1.2-.6,2.2-1.6,2.8l-14.3,8.2c-.6.4-1.4,0-1.4-.8v-16.5c0-1.2.6-2.3,1.7-2.9l13.6-8c.9-.5,2,.1,2,1.2Z"/>
    <path class="st9" d="M188.4,285.2v16.1c0,1.2-.6,2.2-1.6,2.8l-14.3,8.2c-.6.4-1.4,0-1.4-.8v-16.5c0-1.2.6-2.3,1.7-2.9l13.6-8c.9-.5,2,.1,2,1.2Z"/>
    <path class="st9" d="M165.6,298.3v16.1c0,1.2-.6,2.2-1.6,2.8l-14.3,8.2c-.6.4-1.4,0-1.4-.8v-16.5c0-1.2.6-2.3,1.7-2.9l13.6-8c.9-.5,2,.1,2,1.2Z"/>
    <path class="st9" d="M211.1,272v16.1c0,1.2-.6,2.2-1.6,2.8l-14.3,8.2c-.6.4-1.4,0-1.4-.8v-16.5c0-1.2.6-2.3,1.7-2.9l13.6-8c.9-.5,2,.1,2,1.2Z"/>
    <path class="st21" d="M233.2,259.3v16.1c0,1.2-.6,2.2-1.6,2.8l-14.3,8.2c-.6.4-1.4,0-1.4-.8v-16.5c0-1.2.6-2.3,1.7-2.9l13.6-8c.9-.5,2,.1,2,1.2Z"/>
    <path class="st9" d="M255.6,274.3v16.1c0,1.2-.6,2.2-1.6,2.8l-14.3,8.2c-.6.4-1.4,0-1.4-.8v-16.5c0-1.2.6-2.3,1.7-2.9l13.6-8c.9-.5,2,.1,2,1.2Z"/>
    <path class="st9" d="M278.3,261.2v16.1c0,1.2-.6,2.2-1.6,2.8l-14.3,8.2c-.6.4-1.4,0-1.4-.8v-16.5c0-1.2.6-2.3,1.7-2.9l13.6-8c.9-.5,2,.1,2,1.2Z"/>
    <path class="st9" d="M300.4,248.4v16.1c0,1.2-.6,2.2-1.6,2.8l-14.3,8.2c-.6.4-1.4,0-1.4-.8v-16.5c0-1.2.6-2.3,1.7-2.9l13.6-8c.9-.5,2,.1,2,1.2Z"/>
    <path class="st21" d="M188.4,313.1v16.1c0,1.2-.6,2.2-1.6,2.8l-14.3,8.2c-.6.4-1.4,0-1.4-.8v-16.5c0-1.2.6-2.3,1.7-2.9l13.6-8c.9-.5,2,.1,2,1.2Z"/>
    <path class="st9" d="M165.6,326.2v16.1c0,1.2-.6,2.2-1.6,2.8l-14.3,8.2c-.6.4-1.4,0-1.4-.8v-16.5c0-1.2.6-2.3,1.7-2.9l13.6-8c.9-.5,2,.1,2,1.2Z"/>
    <path class="st9" d="M211.1,299.9v16.1c0,1.2-.6,2.2-1.6,2.8l-14.3,8.2c-.6.4-1.4,0-1.4-.8v-16.5c0-1.2.6-2.3,1.7-2.9l13.6-8c.9-.5,2,.1,2,1.2Z"/>
    <path class="st9" d="M233.2,287.2v16.1c0,1.2-.6,2.2-1.6,2.8l-14.3,8.2c-.6.4-1.4,0-1.4-.8v-16.5c0-1.2.6-2.3,1.7-2.9l13.6-8c.9-.5,2,.1,2,1.2Z"/>
    <path class="st9" d="M255.6,301.3v16.1c0,1.2-.6,2.2-1.6,2.8l-14.3,8.2c-.6.4-1.4,0-1.4-.8v-16.5c0-1.2.6-2.3,1.7-2.9l13.6-8c.9-.5,2,.1,2,1.2Z"/>
    <path class="st16" d="M278.3,288.1v16.1c0,1.2-.6,2.2-1.6,2.8l-14.3,8.2c-.6.4-1.4,0-1.4-.8v-16.5c0-1.2.6-2.3,1.7-2.9l13.6-8c.9-.5,2,.1,2,1.2Z"/>
    <path class="st9" d="M300.4,275.3v16.1c0,1.2-.6,2.2-1.6,2.8l-14.3,8.2c-.6.4-1.4,0-1.4-.8v-16.5c0-1.2.6-2.3,1.7-2.9l13.6-8c.9-.5,2,.1,2,1.2Z"/>
    <path class="st9" d="M188.4,340.1v16.1c0,1.2-.6,2.2-1.6,2.8l-14.3,8.2c-.6.4-1.4,0-1.4-.8v-16.5c0-1.2.6-2.3,1.7-2.9l13.6-8c.9-.5,2,.1,2,1.2Z"/>
    <path class="st9" d="M165.6,353.2v16.1c0,1.2-.6,2.2-1.6,2.8l-14.3,8.2c-.6.4-1.4,0-1.4-.8v-16.5c0-1.2.6-2.3,1.7-2.9l13.6-8c.9-.5,2,.1,2,1.2Z"/>
    <path class="st9" d="M211.1,326.9v16.1c0,1.2-.6,2.2-1.6,2.8l-14.3,8.2c-.6.4-1.4,0-1.4-.8v-16.5c0-1.2.6-2.3,1.7-2.9l13.6-8c.9-.5,2,.1,2,1.2Z"/>
    <path class="st9" d="M233.2,314.2v16.1c0,1.2-.6,2.2-1.6,2.8l-14.3,8.2c-.6.4-1.4,0-1.4-.8v-16.5c0-1.2.6-2.3,1.7-2.9l13.6-8c.9-.5,2,.1,2,1.2Z"/>
    <polygon class="st9" points="141.4 257 141.4 263.9 88.8 294.3 88.8 287.5 141.4 257"/>
    <polygon class="st9" points="141.4 289.6 141.4 293.4 88.8 323.8 88.8 320.1 141.4 289.6"/>
    <polygon class="st9" points="141.4 298.3 141.4 302.1 88.8 332.6 88.8 328.9 141.4 298.3"/>
    <polygon class="st9" points="141.4 306.7 141.4 310.5 88.8 341 88.8 337.3 141.4 306.7"/>
    <polygon class="st9" points="141.4 315.4 141.4 319.2 88.8 349.7 88.8 346 141.4 315.4"/>
    <polygon class="st9" points="141.4 324.3 141.4 328.1 88.8 358.6 88.8 354.9 141.4 324.3"/>
    <polygon class="st9" points="141.4 333.5 141.4 337.3 88.8 367.7 88.8 364 141.4 333.5"/>
    <polygon class="st9" points="141.4 341.7 141.4 345.5 88.8 376 88.8 372.3 141.4 341.7"/>
    <polygon class="st9" points="141.4 350.2 141.4 354 88.8 384.5 88.8 380.8 141.4 350.2"/>
    <polygon class="st9" points="141.4 359 141.4 362.8 88.8 393.3 88.8 389.6 141.4 359"/>
    <polygon class="st9" points="115.1 382.6 115.1 386.4 88.8 401.6 88.8 397.9 115.1 382.6"/>
    <polygon class="st9" points="112 285.7 112 292.5 88.8 305.9 88.8 299.2 112 285.7"/>
    <path class="st16" d="M263.9,291.7c-1.9,0-3.8-.5-5.5-1.4-3.3-1.9-5.3-5.4-5.8-9.9-.5-4.4.7-9.3,3.2-13.6,5.3-9.1,15-13.4,21.7-9.5,3.3,1.9,5.3,5.4,5.8,9.9.5,4.4-.7,9.3-3.2,13.6-3.9,6.8-10.4,10.9-16.2,10.9ZM272,257.1c-5.3,0-11.3,3.9-15,10.3-2.4,4.1-3.5,8.7-3,12.8.4,4,2.2,7.2,5.1,8.9,1.5.9,3.1,1.3,4.8,1.3,5.3,0,11.3-3.9,15-10.3,2.4-4.1,3.5-8.7,3-12.8-.4-4-2.2-7.2-5.1-8.9-1.5-.9-3.1-1.3-4.8-1.3Z"/>
    <path class="st16" d="M265.6,237c-1.9,0-3.8-.5-5.5-1.4-6.7-3.9-7.9-14.4-2.6-23.5h0c5.3-9.1,15-13.4,21.7-9.5,3.3,1.9,5.3,5.4,5.8,9.9.5,4.4-.7,9.3-3.2,13.6-3.9,6.8-10.4,10.9-16.2,10.9ZM258.7,212.8c-4.9,8.5-3.9,18.2,2.1,21.7,1.5.9,3.1,1.3,4.8,1.3,5.3,0,11.3-3.9,15-10.3,2.4-4.1,3.5-8.7,3-12.8-.4-4-2.2-7.2-5.1-8.9-6-3.5-14.9.6-19.8,9h0Z"/>
    <path class="st16" d="M175.6,342.8c-1.9,0-3.8-.5-5.5-1.4-3.3-1.9-5.3-5.4-5.8-9.9-.5-4.4.7-9.3,3.2-13.6,5.3-9.1,15-13.4,21.7-9.5,3.3,1.9,5.3,5.4,5.8,9.9.5,4.4-.7,9.3-3.2,13.6-3.9,6.8-10.4,10.9-16.2,10.9ZM183.7,308.2c-5.3,0-11.3,3.9-15,10.3-2.4,4.1-3.5,8.7-3,12.8.4,4,2.2,7.2,5.1,8.9,1.5.9,3.1,1.3,4.8,1.3,5.3,0,11.3-3.9,15-10.3,2.4-4.1,3.5-8.7,3-12.8-.4-4-2.2-7.2-5.1-8.9-1.5-.9-3.1-1.3-4.8-1.3Z"/>
    <path class="st5" d="M150.2,365.7l5.6,2.6s7.7-12.5,7.8-12.4c0,.1-6.2,15.9-6.2,15.9l-7.3-6.1Z"/>
    <path class="st5" d="M217.6,300.4l5.6,2.6s7.7-12.5,7.8-12.4c0,.1-6.2,15.9-6.2,15.9l-7.3-6.1Z"/>
    <path class="st5" d="M217.8,327.4l5.6,2.6s7.7-12.5,7.8-12.4c0,.1-6.2,15.9-6.2,15.9l-7.3-6.1Z"/>
    <path class="st5" d="M285,177.9l5.6,2.6s7.7-12.5,7.8-12.4c0,.1-6.2,15.9-6.2,15.9l-7.3-6.1Z"/>
    <path class="st5" d="M285,234.3l5.6,2.6s7.7-12.5,7.8-12.4c0,.1-6.2,15.9-6.2,15.9l-7.3-6.1Z"/>
    <path class="st5" d="M217.6,244.9l5.6,2.6s7.7-12.5,7.8-12.4c0,.1-6.2,15.9-6.2,15.9l-7.3-6.1Z"/>
    <path class="st5" d="M173,270.4l5.6,2.6s7.7-12.5,7.8-12.4c0,.1-6.2,15.9-6.2,15.9l-7.3-6.1Z"/>
  </g>
  <g id="Schedule_board">
    <g id="Ipad">
      <path class="st5" d="M605.1,462.8l126.5,75.3,3.1-1.7c1.9-1.1,3.1-3.1,3.1-5.2l1.4-218.1c0-4.5-2.4-8.7-6.2-10.9l-122.3-71.7c-2-1.2-4.5-1.2-6.5,0l-4,2.3-1.6,218.7c0,4.7,2.4,9,6.5,11.4Z"/>
      <path class="st15" d="M601.4,465.2l124.6,73c3.5,2.1,8-.5,8-4.6l1.4-218.2c0-4.5-2.4-8.7-6.2-11l-122.3-71.7c-4.6-2.7-10.3.6-10.4,5.9l-1.6,215.1c0,4.7,2.4,9,6.5,11.4Z"/>
      <path class="st23" d="M605.4,462.8l117.2,68.6c3.4,2,7.6-.4,7.6-4.3l.9-206.3c0-4.3-1.3-6-5-8.1l-117.2-68.6c-4.3-2.5-8.5,0-8.5,5l-1.1,203c0,4.4,2.3,8.5,6.1,10.8Z"/>
    </g>
    <polygon class="st4" points="632.8 286.6 632.8 299.2 720.6 350.2 720.5 337.7 632.8 286.6"/>
    <polygon class="st9" points="609.9 273.4 609.9 286 622 292.9 622 280.4 609.9 273.4"/>
    <polygon class="st4" points="632.8 310.4 632.8 323.1 720.6 374 720.5 361.5 632.8 310.4"/>
    <polygon class="st9" points="609.9 297.2 609.9 309.9 622 316.8 622 304.3 609.9 297.2"/>
    <polygon class="st4" points="632.8 334.3 632.8 346.9 720.6 397.8 720.5 385.3 632.8 334.3"/>
    <polygon class="st9" points="609.9 321.1 609.9 333.7 622 340.6 622 328.1 609.9 321.1"/>
    <polygon class="st4" points="632.8 358.7 632.8 371.3 720.6 422.2 720.5 409.7 632.8 358.7"/>
    <polygon class="st9" points="609.9 345.5 609.9 358.1 622 365 622 352.5 609.9 345.5"/>
    <polygon class="st4" points="632.8 383.1 632.8 395.8 720.6 446.7 720.5 434.2 632.8 383.1"/>
    <polygon class="st9" points="609.9 369.9 609.9 382.5 622 389.5 622 377 609.9 369.9"/>
    <polygon class="st4" points="632.8 407.5 632.8 420.2 720.6 471.1 720.5 458.6 632.8 407.5"/>
    <polygon class="st9" points="609.9 394.3 609.9 407 622 413.9 622 401.4 609.9 394.3"/>
    <polygon class="st4" points="632.8 432 632.8 444.6 720.6 495.5 720.5 483 632.8 432"/>
    <polygon class="st9" points="609.9 418.8 609.9 431.4 622 438.3 622 425.8 609.9 418.8"/>
    <path class="st15" d="M640.8,277.1l51.9,30v-10c0-1.7-.9-3.2-2.4-4.1l-10.6-6.2v-7c0-1.4-.7-2.6-1.9-3.3l-18.7-11c-1.5-.9-3.4.2-3.4,2v5.6s-12.2-7-12.2-7c-1.2-.7-2.7.2-2.7,1.6v9.5Z"/>
    <g>
      <path class="st5" d="M643.5,266l12.2,7v-1.3s-11-6.3-11-6.3c-.8-.5-2.1,0-3,.6.5-.3,1.2-.3,1.8,0Z"/>
      <path class="st5" d="M693.9,296.4c0-1.7-.9-3.2-2.4-4.1l-10.6-6.2v-7c0-1.4-.7-2.6-1.9-3.3l-18.7-11c-1-.6-2.7-.2-3.6.7.7-.5,1.6-.6,2.4,0l18.7,11c1.2.7,1.9,2,1.9,3.3v7s10.6,6.2,10.6,6.2c1.5.8,2.4,2.4,2.4,4.1v10s1.2-.6,1.2-.6v-10Z"/>
    </g>
    <path class="st5" d="M611.3,280.8l1.8,2.9s7.5-3.4,7.5-3.3-7.8,5.4-7.8,5.4l-1.5-5.1Z"/>
    <path class="st5" d="M611.3,304.7l1.8,2.9s7.5-3.4,7.5-3.3-7.8,5.4-7.8,5.4l-1.5-5.1Z"/>
    <path class="st5" d="M611.3,328.8l1.8,2.9s7.5-3.4,7.5-3.3-7.8,5.4-7.8,5.4l-1.5-5.1Z"/>
    <path class="st5" d="M611.3,352.9l1.8,2.9s7.5-3.4,7.5-3.3-7.8,5.4-7.8,5.4l-1.5-5.1Z"/>
    <path class="st5" d="M611.3,378.1l1.8,2.9s7.5-3.4,7.5-3.3-7.8,5.4-7.8,5.4l-1.5-5.1Z"/>
    <path class="st5" d="M611.3,401.8l1.8,2.9s7.5-3.4,7.5-3.3-7.8,5.4-7.8,5.4l-1.5-5.1Z"/>
    <path class="st5" d="M611.3,426.2l1.8,2.9s7.5-3.4,7.5-3.3-7.8,5.4-7.8,5.4l-1.5-5.1Z"/>
  </g>
  <g id="Man">
    <path class="st15" d="M348.3,395.1l-14.4,24.4c-1,1.7-.4,3.9,1.2,4.9l36.7,21.8c1.7,1,3.9.4,4.9-1.3l14.4-24.4c1-1.7.4-3.9-1.3-4.9l-36.7-21.7c-1.7-1-3.9-.4-4.9,1.3Z"/>
    <path class="st23" d="M349.6,398.1l-12.6,21.2c-.9,1.5-.4,3.4,1.1,4.3l32.9,19.5c1.5.9,3.4.4,4.3-1.1l12.6-21.3c.9-1.5.4-3.4-1.1-4.3l-32.9-19.5c-1.5-.9-3.4-.4-4.3,1.1Z"/>
    <path class="st2" d="M332.8,424.1l2.5-3.6c3.4-1.6,5.2-4.8,6.4-6.5.3-.4.2-1-.3-1.2-2-1-4.5,1.9-4.5,1.9l4.1-7.2s-12-6.5-12.5,9.3l-.7,1.1c.7.9,1.4,1.9,2.1,2.8,1,1.1,2,2.3,2.9,3.5Z"/>
    <ellipse class="st6" cx="311.5" cy="661.3" rx="51.5" ry="26.6"/>
    <path class="st23" d="M334.5,464.8c-33.9-40.2-16.6-46.5-16.6-46.5,14.5-13.8,33.6,25.9,33.6,25.9l7.4,12.5,20.6-17.9,7.4,6.8s-23.5,38.9-34.1,32.9c-10.7-6-19.9-15.5-18.3-13.8Z"/>
    <path class="st0" d="M336.4,501.9v165.3s-17,7.9-28.5,1.3c-.4-2.5-1.8-129.6-1.8-129.6l-1.8,112.8s-15.9,11-27.1-.6c-.4-2.1,2.2-161.6,2.2-161.6,0,0,10.6,19.7,57.1,12.4Z"/>
    <path class="st23" d="M332.1,507.6c-6.5,2.2-13.4,3.1-18,3.3-2.6.1-6.3.1-9.1-.1-21.3-2-27.6-7.4-26.6-20.8,1-14.1-2-45.6-2-45.6-8-56.2,22.6-42.7,22.6-42.7,0-.2,1.8.8,3.8,2,3.5,2.2,7.5,3.7,11.7,4.2,5.4.7,13.3,3.4,19.9,10.9,29,32.9,2.2,40.4,2.5,45.2.2,4.8-.1,7.6-.3,13.8,0,1.2-.3,4.2.6,12.4,0,0,1,8.8,0,13-.5,2.1-3,3.8-5.1,4.5Z"/>
    <rect class="st9" x="326.5" y="530.7" width=".5" height="130.8"/>
    <rect class="st9" x="238.2" y="591.6" width="116.3" height=".5" transform="translate(-301.4 875.9) rotate(-88.8)"/>
    <path class="st2" d="M327.3,372.2c.6.2,4.4,33.6-11.2,29.8,0,0,0,3.9,1.4,6.4,0,0-11.1,4-17.8-1.5-1.2-1-1.6-2.6-1.1-4,.5-1.4,1.2-3.4,2-5.7,2.2-6.2-3.3-36.1,26.8-25Z"/>
    <path class="st2" d="M385.8,444.7l-5.5-4.9,2.5-6.4c.4-1,1.2-1.6,2.2-1.8l4.5-.7,7.7-8.1s1.8.2,1,1.3c-.8,1.2-6.3,8.4-6.3,8.4,0,0,4.7,5.2,1.8,7.9-1.5,1.4-2.9,2-3.8,2.2-.6.2-1.2.5-1.8.9l-2.3,1.2Z"/>
    <path class="st22" d="M318.2,408.6l-1.5-2.3s-12.7,3.5-17.6-4.6c0,0-4,5.5,6,7.7,9.6,2,13.2-.8,13.2-.8Z"/>
    <path class="st18" d="M334.4,464.6c0,0,0,0,.1.2,0,0,0-.1-.1-.2.2.2,1.1,1.1,2.6,2.4,0,5.3-.4,11.8-.4,14.5-13.2-9.4-21.8-26.1-20.4-44,2.9,6.6,8.3,15.4,18.2,27.2Z"/>
    <g>
      <polygon class="st3" points="284.7 402 284.7 402 284.7 402 284.7 402"/>
      <path class="st23" d="M267.9,456l.6-13.9c.3-23.7,8.5-34.2,13.9-38.6-5.6,4.8-9.6,16-6.1,40.8,0,0,2.8,19.5,2.6,33.7l-8.9-13.8c-1.6-2.5-2.4-5.4-2.2-8.3Z"/>
    </g>
    <path class="st18" d="M275.3,434.2h0c.2,3.1.6,6.5,1.1,10.2,0,0,1.9,13.2,2.5,25.7,0,0,0,0,0,0-6-11.3-3.6-36-3.6-36Z"/>
    <path class="st8" d="M299.7,510.3c1.6.2,3.5.3,5.4.5,2.8.3,6.5.3,9.1.1,4.6-.2,11.5-1.1,18-3.3,1.5-.5,3.2-1.5,4.2-2.8v7.2s-50.5,12.1-57.2-13.6h0c1.9,6,7.2,9.4,17.8,11.3l2.8.6Z"/>
    <g>
      <path class="st11" d="M304.3,651.7l.2-14.7,1.8-.5s.3,0,1,0c.1,7.8.2,14.7.3,20.1-2,.8-4.2,1.6-6.6,2.4v2.3s-16.3,9.4-23.9-2.1v-11.1c0,1.8,0,2.8,0,2.9,11.2,11.6,27.1.6,27.1.6Z"/>
      <path class="st13" d="M277.1,644.3c0,1.5,0,2.8,0,3.8v-3.8h0Z"/>
    </g>
    <path class="st11" d="M307.9,666.7c11.5,6.6,28.5-1.3,28.5-1.3v-13.7h.4c0-.1,2.8-.2,6.5-1.4,4.3-1.3,9,1.2,10.1,5.6,0,0,.2,3,.2,3.1,1.5,7.2-7.4,9.5-22.1,15v2.3s-16.3,9.4-23.9-2.1v-14.9h0c0,4.3.2,7,.2,7.4Z"/>
    <g>
      <path class="st7" d="M331.4,674c13-4.9,21.4-7.2,22.2-12.7.9,6.7-7.9,9.1-22.2,14.4v-1.8Z"/>
      <path class="st7" d="M331.4,676.3v1.8s-16.3,9.4-23.9-2.1v-1.8c7.5,11.4,23.9,2.1,23.9,2.1Z"/>
    </g>
    <path class="st7" d="M301,661.3v1.8s-16.3,9.4-23.9-2.1v-1.8c7.5,11.4,23.9,2.1,23.9,2.1Z"/>
    <path class="st7" d="M307.6,658.3c-2,.8-4.3,1.6-6.6,2.4v-1.8c2.4-.9,4.6-1.7,6.6-2.4,0,.6,0,1.2,0,1.7Z"/>
    <path class="st19" d="M319.6,389.1c-1.1.2-1-12.8-6.8,3.3-5.8,16.2-14.7,6.6-13.8,4.6.9-2-4.4-8.8-4.4-9.6,0-.8-12-11.5.2-26.4,5.3-6.5,26.8-5.9,30-9.7,3.2-3.8,16,17.1-2.6,24.1,0,0,1,13.1-2.6,13.7Z"/>
  </g>
  <g class="st20">
    <image width="1864" height="1027" transform="translate(533 254.3) scale(.3)" xlink:href="../../../../../../../../Downloads/image (11).png"/>
  </g>
</svg>