<?xml version="1.0" encoding="UTF-8"?>
<svg id="Layer_1" xmlns="http://www.w3.org/2000/svg" version="1.1" xmlns:xlink="http://www.w3.org/1999/xlink" viewBox="0 0 139.3 118.3">
  <!-- Generator: Adobe Illustrator 29.3.0, SVG Export Plug-In . SVG Version: 2.1.0 Build 146)  -->
  <defs>
    <style>
      .st0 {
        fill: #521712;
      }

      .st1 {
        fill: #bf3b30;
      }

      .st2 {
        fill: #b8cfde;
      }

      .st3 {
        fill: #383938;
      }

      .st4 {
        fill: #474747;
      }

      .st5 {
        fill: #747475;
      }

      .st6 {
        fill: #92949b;
      }

      .st7 {
        fill: #c3c3c3;
      }

      .st8 {
        fill: #908a8a;
      }

      .st9 {
        fill: #272626;
      }

      .st10 {
        fill: #dcdedc;
      }

      .st11 {
        fill: #d22328;
      }

      .st12 {
        fill: #2f3133;
      }

      .st13 {
        fill: #b0b0b1;
      }

      .st14 {
        fill: #eca92f;
      }

      .st15 {
        fill: #e39f2a;
      }

      .st16 {
        fill: #dc5a50;
      }

      .st17 {
        fill: #959494;
      }

      .st18 {
        fill: #fab160;
      }

      .st19 {
        fill: #d9d8d7;
      }

      .st20 {
        fill: #676868;
      }

      .st21 {
        fill: #4c1712;
      }

      .st22 {
        fill: #3c3c3b;
      }

      .st23 {
        fill: #81371b;
      }

      .st24 {
        fill: #4e4f4f;
      }

      .st25 {
        fill: #7a7b7c;
      }

      .st26 {
        fill: #935223;
      }

      .st27 {
        fill: #b06428;
      }

      .st28 {
        fill: #5f605f;
      }

      .st29 {
        fill: #a81f24;
      }

      .st30 {
        fill: url(#_Áåçûìÿííûé_ãðàäèåíò_391);
      }

      .st31 {
        fill: #717272;
      }

      .st32 {
        fill: #a16127;
      }

      .st33 {
        fill: #4b4945;
      }

      .st34 {
        fill: #838484;
      }

      .st35 {
        fill: #faae31;
      }

      .st36 {
        fill: #d27a28;
      }

      .st37 {
        fill: #404146;
      }

      .st38 {
        fill: #262b31;
      }

      .st39 {
        fill: #811719;
      }

      .st40 {
        fill: #8b9ca7;
      }

      .st41 {
        fill: url(#_Áåçûìÿííûé_ãðàäèåíò_411);
      }

      .st42 {
        fill: #545453;
      }

      .st43 {
        fill: url(#_Áåçûìÿííûé_ãðàäèåíò_41);
      }

      .st44 {
        fill: #262426;
      }

      .st45 {
        fill: #959595;
      }

      .st46 {
        fill: #efbc61;
      }

      .st47 {
        fill: #7b7972;
      }

      .st48 {
        fill: #9ba6ac;
      }

      .st49 {
        fill: #6a6d75;
      }

      .st50 {
        fill: #f9fbfc;
      }

      .st51 {
        fill: #010101;
      }

      .st52 {
        fill: #72737c;
      }

      .st53 {
        fill: #c8e0f5;
      }

      .st54 {
        fill: #9e5b25;
      }

      .st55 {
        fill: #b53327;
      }

      .st56 {
        fill: #c6883a;
      }

      .st57 {
        fill: #971d20;
      }

      .st58 {
        fill: url(#_Áåçûìÿííûé_ãðàäèåíò_39);
      }

      .st59 {
        fill: #dceaf8;
      }

      .st60 {
        fill: #a01d23;
      }

      .st61 {
        fill: #651711;
      }

      .st62 {
        fill: #dcdbdb;
      }

      .st63 {
        fill: #4f5151;
      }

      .st64 {
        fill: #969595;
      }

      .st65 {
        fill: #ea9c24;
      }

      .st66 {
        fill: #60636b;
      }

      .st67 {
        fill: #b9b7b9;
      }

      .st68 {
        fill: #6c6f6f;
      }

      .st69 {
        fill: #494e55;
      }

      .st70 {
        fill: #242626;
      }

      .st71 {
        fill: #898989;
      }

      .st72 {
        fill: #e9e8e7;
      }
    </style>
    <linearGradient id="_Áåçûìÿííûé_ãðàäèåíò_41" data-name="Áåçûìÿííûé ãðàäèåíò 41" x1="383.6" y1="56.4" x2="392.3" y2="67.2" gradientTransform="translate(435.4 -10.4) rotate(-180) scale(1 -1)" gradientUnits="userSpaceOnUse">
      <stop offset="0" stop-color="#bce5fa"/>
      <stop offset=".8" stop-color="#58788f"/>
    </linearGradient>
    <linearGradient id="_Áåçûìÿííûé_ãðàäèåíò_411" data-name="Áåçûìÿííûé ãðàäèåíò 41" x1="374.9" y1="57.9" x2="383.6" y2="68.6" xlink:href="#_Áåçûìÿííûé_ãðàäèåíò_41"/>
    <linearGradient id="_Áåçûìÿííûé_ãðàäèåíò_39" data-name="Áåçûìÿííûé ãðàäèåíò 39" x1="-213.9" y1="67.5" x2="-190.9" y2="67.3" gradientTransform="translate(260.4 -10.4)" gradientUnits="userSpaceOnUse">
      <stop offset="0" stop-color="#8aaebe"/>
      <stop offset=".8" stop-color="#304451"/>
    </linearGradient>
    <linearGradient id="_Áåçûìÿííûé_ãðàäèåíò_391" data-name="Áåçûìÿííûé ãðàäèåíò 39" x1="-213.9" y1="61.3" x2="-191" y2="61.1" xlink:href="#_Áåçûìÿííûé_ãðàäèåíò_39"/>
  </defs>
  <g>
    <g>
      <polygon class="st56" points="55.8 81.4 55.3 81.2 55.3 83.6 55.8 83.9 55.8 81.4"/>
      <polygon class="st32" points="55.8 81.4 56.6 80.9 56.6 83.4 55.8 83.9 55.8 81.4"/>
      <polygon class="st18" points="55.8 81.4 55.3 81.2 56.2 80.7 56.6 80.9 55.8 81.4"/>
    </g>
    <g>
      <polygon class="st56" points="53.6 82.7 53.1 82.4 53.1 84.9 53.6 85.2 53.6 82.7"/>
      <polygon class="st32" points="53.6 82.7 54.4 82.2 54.4 84.7 53.6 85.2 53.6 82.7"/>
      <polygon class="st18" points="53.6 82.7 53.1 82.4 54 81.9 54.4 82.2 53.6 82.7"/>
    </g>
    <g>
      <g>
        <path class="st3" d="M57.2,82.9c.3-1.7,1.6-3.2,2.8-3.3.2,0,.5,0,.7.1h0s.5.3.5.3l-2.5,6-.7-.4s0,0,0,0h0s0,0,0,0c-.7-.4-1-1.5-.7-2.8Z"/>
        <path class="st20" d="M60.5,79.9c-1.2,0-2.4,1.5-2.8,3.3-.3,1.7.4,3.1,1.6,3s2.4-1.5,2.8-3.3c.3-1.7-.4-3.1-1.6-3Z"/>
      </g>
      <g>
        <path class="st22" d="M61,84.4c.7-1.1,1-2.7.5-3.5,0-.2-.2-.3-.4-.3h0s-.4-.2-.4-.2l-2,4.8.5.2s0,0,0,0h0s0,0,0,0c.5.2,1.2-.2,1.8-1.1Z"/>
        <path class="st24" d="M61.1,80.8c.5.8.3,2.3-.5,3.5-.7,1.1-1.7,1.5-2.2.7-.5-.8-.3-2.3.5-3.5.7-1.1,1.7-1.5,2.2-.7Z"/>
      </g>
    </g>
    <polygon class="st33" points="47.2 85.7 47.2 86.8 48.3 87.4 52.2 84.7 53.3 86.4 54.5 87.1 55 85.6 54.8 85.8 53.6 84.1 53.6 83.4 56.7 81.6 56.9 81 61.5 78.7 60.4 78.1 56.8 79.5 51.4 82.6 47.2 85.7"/>
    <g>
      <g>
        <path class="st3" d="M48.8,87.8c.3-1.7,1.6-3.2,2.8-3.3.2,0,.5,0,.7.1h0s.5.3.5.3l-2.5,6-.7-.4s0,0,0,0h0s0,0,0,0c-.7-.4-1-1.5-.7-2.8Z"/>
        <path class="st20" d="M52,84.8c-1.2,0-2.4,1.5-2.8,3.3-.3,1.7.4,3.1,1.6,3,1.2,0,2.4-1.5,2.8-3.3.3-1.7-.4-3.1-1.6-3Z"/>
      </g>
      <g>
        <path class="st22" d="M52.5,89.3c.7-1.1,1-2.7.5-3.5,0-.2-.2-.3-.4-.3h0s-.4-.2-.4-.2l-2,4.8.5.2s0,0,0,0h0s0,0,0,0c.5.2,1.2-.2,1.8-1.1Z"/>
        <path class="st24" d="M52.7,85.7c.5.8.3,2.3-.5,3.5-.7,1.1-1.7,1.5-2.2.7-.5-.8-.3-2.3.5-3.5.7-1.1,1.7-1.5,2.2-.7Z"/>
      </g>
    </g>
    <g>
      <path class="st22" d="M50.6,87.8c0-.4.4-.8.7-.8,0,0,.1,0,.2,0h0s.3.1.3.1l-.6,1.5-.3-.2s0,0,0,0h0s0,0,0,0c-.2-.1-.2-.4-.2-.7Z"/>
      <path class="st20" d="M51.6,87.1c-.3,0-.6.4-.7.8,0,.4,0,.8.4.7.3,0,.6-.4.7-.8,0-.4,0-.8-.4-.7Z"/>
    </g>
    <path class="st47" d="M48.3,86.4v1s3.9-2.7,3.9-2.7l.5-.3,1.8,2.7,2.7-1.6.9-4.2,3.5-1.5v-1.1s-3.6,1.4-3.6,1.4l-5.4,3.1-4.2,3.1ZM53.6,83.4l3.1-1.8.3-.2v.7c0,0-.5,2.7-.5,2.7l-1.4.8-.3.2-1.1-1.7v-.7Z"/>
    <polygon class="st33" points="56.1 84.6 56.6 81.9 56.6 81.6 56.9 81.4 57 82.2 56.4 84.8 54.8 85.8 54.6 85.5 56.1 84.6"/>
    <g>
      <path class="st22" d="M59,82.9c0-.4.4-.8.7-.8,0,0,.1,0,.2,0h0s.3.1.3.1l-.6,1.5-.3-.2s0,0,0,0h0s0,0,0,0c-.2-.1-.2-.4-.2-.7Z"/>
      <path class="st20" d="M60,82.2c-.3,0-.6.4-.7.8,0,.4,0,.8.4.7.3,0,.6-.4.7-.8,0-.4,0-.8-.4-.7Z"/>
    </g>
  </g>
  <g>
    <g>
      <polygon class="st56" points="99 56.5 98.5 56.3 98.5 58.7 99 59 99 56.5"/>
      <polygon class="st32" points="99 56.5 99.9 56 99.9 58.5 99 59 99 56.5"/>
      <polygon class="st18" points="99 56.5 98.5 56.3 99.4 55.8 99.9 56 99 56.5"/>
    </g>
    <g>
      <polygon class="st56" points="96.8 57.8 96.3 57.5 96.3 60 96.8 60.3 96.8 57.8"/>
      <polygon class="st32" points="96.8 57.8 97.7 57.3 97.7 59.8 96.8 60.3 96.8 57.8"/>
      <polygon class="st18" points="96.8 57.8 96.3 57.5 97.2 57 97.7 57.3 96.8 57.8"/>
    </g>
    <g>
      <g>
        <path class="st3" d="M100.5,58c.3-1.7,1.6-3.2,2.8-3.3.2,0,.5,0,.7.1h0s.5.3.5.3l-2.5,6-.7-.4s0,0,0,0h0s0,0,0,0c-.7-.4-1-1.5-.7-2.8Z"/>
        <path class="st20" d="M103.7,55c-1.2,0-2.4,1.5-2.8,3.3-.3,1.7.4,3.1,1.6,3,1.2,0,2.4-1.5,2.8-3.3.3-1.7-.4-3.1-1.6-3Z"/>
      </g>
      <g>
        <path class="st22" d="M104.2,59.5c.7-1.1,1-2.7.5-3.5,0-.2-.2-.3-.4-.3h0s-.4-.2-.4-.2l-2,4.8.5.2s0,0,0,0h0s0,0,0,0c.5.2,1.2-.2,1.8-1.1Z"/>
        <path class="st24" d="M104.3,55.9c.5.8.3,2.3-.5,3.5-.7,1.1-1.7,1.5-2.2.7-.5-.8-.3-2.3.5-3.5.7-1.1,1.7-1.5,2.2-.7Z"/>
      </g>
    </g>
    <polygon class="st33" points="90.4 60.8 90.4 61.8 91.5 62.5 95.4 59.8 96.5 61.5 97.7 62.2 98.3 60.7 98 60.9 96.9 59.2 96.8 58.5 99.9 56.7 100.1 56.1 104.7 53.8 103.6 53.2 100 54.6 94.6 57.7 90.4 60.8"/>
    <g>
      <g>
        <path class="st3" d="M92,62.9c.3-1.7,1.6-3.2,2.8-3.3.2,0,.5,0,.7.1h0s.5.3.5.3l-2.5,6-.7-.4s0,0,0,0h0s0,0,0,0c-.7-.4-1-1.5-.7-2.8Z"/>
        <path class="st20" d="M95.3,59.9c-1.2,0-2.4,1.5-2.8,3.3-.3,1.7.4,3.1,1.6,3,1.2,0,2.4-1.5,2.8-3.3.3-1.7-.4-3.1-1.6-3Z"/>
      </g>
      <g>
        <path class="st22" d="M95.8,64.4c.7-1.1,1-2.7.5-3.5,0-.2-.2-.3-.4-.3h0s-.4-.2-.4-.2l-2,4.8.5.2s0,0,0,0h0s0,0,0,0c.5.2,1.2-.2,1.8-1.1Z"/>
        <path class="st24" d="M95.9,60.8c.5.8.3,2.3-.5,3.5-.7,1.1-1.7,1.5-2.2.7-.5-.8-.3-2.3.5-3.5.7-1.1,1.7-1.5,2.2-.7Z"/>
      </g>
    </g>
    <g>
      <path class="st22" d="M93.8,62.9c0-.4.4-.8.7-.8,0,0,.1,0,.2,0h0s.3.1.3.1l-.6,1.5-.3-.2s0,0,0,0h0s0,0,0,0c-.2-.1-.2-.4-.2-.7Z"/>
      <path class="st20" d="M94.8,62.2c-.3,0-.6.4-.7.8,0,.4,0,.8.4.7s.6-.4.7-.8c0-.4,0-.8-.4-.7Z"/>
    </g>
    <path class="st47" d="M91.5,61.5v1s3.9-2.7,3.9-2.7l.5-.3,1.8,2.7,2.7-1.6.9-4.2,3.5-1.5v-1.1s-3.6,1.4-3.6,1.4l-5.4,3.1-4.2,3.1ZM96.8,58.5l3.1-1.8.3-.2v.7c0,0-.5,2.7-.5,2.7l-1.4.8-.3.2-1.1-1.7v-.7Z"/>
    <polygon class="st33" points="99.3 59.7 99.9 57 99.8 56.7 100.2 56.5 100.2 57.2 99.7 59.9 98 60.9 97.8 60.6 99.3 59.7"/>
    <g>
      <path class="st22" d="M102.3,58c0-.4.4-.8.7-.8,0,0,.1,0,.2,0h0s.3.1.3.1l-.6,1.5-.3-.2s0,0,0,0h0s0,0,0,0c-.2-.1-.2-.4-.2-.7Z"/>
      <path class="st20" d="M103.3,57.3c-.3,0-.6.4-.7.8,0,.4,0,.8.4.7.3,0,.6-.4.7-.8,0-.4,0-.8-.4-.7Z"/>
    </g>
  </g>
  <polygon class="st38" points="88.5 62 88.5 65.4 63.1 80 63.1 76.6 88.5 62"/>
  <polygon class="st69" points="23.9 83.4 37.6 90.8 37.6 94.9 23.9 87 23.9 83.4"/>
  <polygon class="st38" points="46.3 86.2 37.6 91.3 37.6 94.9 45 90.6 46.3 86.2"/>
  <polygon class="st38" points="116.9 45.6 104.6 52.3 107.2 54.5 116.9 48.9 116.9 45.6"/>
  <polygon class="st8" points="103.1 35 116.9 42.9 37.6 88.6 23.9 80.7 103.1 35"/>
  <g>
    <polygon class="st5" points="106.3 30.8 106.3 37.4 106.8 37.7 106.8 31 106.3 30.8"/>
    <polygon class="st4" points="106.8 30.6 106.8 37.7 107.2 37.5 107.2 30.3 106.8 30.6"/>
    <polygon class="st4" points="103.6 28.9 103.6 35.9 104 35.7 104 28.7 103.6 28.9"/>
    <polygon class="st5" points="103.1 28.5 103.1 35.6 103.6 35.9 103.6 28.8 103.1 28.5"/>
    <polygon class="st64" points="107.2 30.3 103.6 28.3 103.1 28.5 106.8 30.6 107.2 30.3"/>
    <polygon class="st5" points="106.8 30.6 103.1 28.5 103.1 29 106.8 31 106.8 30.6"/>
  </g>
  <g>
    <polygon class="st5" points="116 36.4 116 43.1 116.4 43.3 116.4 36.7 116 36.4"/>
    <polygon class="st4" points="116.4 36.2 116.4 43.3 116.8 43.1 116.9 36 116.4 36.2"/>
    <polygon class="st4" points="113.3 34.6 113.3 41.5 113.7 41.3 113.7 34.3 113.3 34.6"/>
    <polygon class="st5" points="112.8 34.1 112.8 41.2 113.3 41.5 113.3 34.4 112.8 34.1"/>
    <polygon class="st64" points="116.9 36 113.2 33.9 112.8 34.1 116.4 36.2 116.9 36"/>
    <polygon class="st5" points="116.4 36.2 112.8 34.1 112.8 34.6 116.4 36.7 116.4 36.2"/>
  </g>
  <g>
    <g>
      <polygon class="st71" points="43 63.6 43 70.2 42.5 70.4 42.5 63.9 43 63.6"/>
      <polygon class="st67" points="42.5 63.5 42.5 70.4 42.1 70.2 42.1 63.2 42.5 63.5"/>
      <polygon class="st67" points="45.6 61.9 45.7 68.6 45.2 68.4 45.2 61.6 45.6 61.9"/>
      <polygon class="st71" points="46.1 61.4 46.1 68.4 45.7 68.6 45.6 61.7 46.1 61.4"/>
      <polygon class="st62" points="42.1 63.2 45.7 61.2 46.1 61.4 42.5 63.5 42.1 63.2"/>
      <polygon class="st71" points="42.5 63.5 46.1 61.4 46.1 61.9 42.5 63.9 42.5 63.5"/>
    </g>
    <g>
      <polygon class="st71" points="40 65.4 40 71.9 39.5 72.2 39.5 65.7 40 65.4"/>
      <polygon class="st67" points="39.5 65.2 39.5 72.2 39.1 72 39.1 65 39.5 65.2"/>
      <polygon class="st67" points="42.6 63.6 42.6 70.4 42.2 70.2 42.2 63.4 42.6 63.6"/>
      <polygon class="st71" points="43.1 63.2 43.1 70.1 42.6 70.4 42.6 63.5 43.1 63.2"/>
      <polygon class="st62" points="39.1 65 42.7 63 43.1 63.2 39.5 65.2 39.1 65"/>
      <polygon class="st71" points="39.5 65.2 43.1 63.2 43.1 63.7 39.5 65.7 39.5 65.2"/>
    </g>
    <g>
      <polygon class="st71" points="36.9 67.1 36.9 73.7 36.5 73.9 36.5 67.4 36.9 67.1"/>
      <polygon class="st67" points="36.5 67 36.5 73.9 36.1 73.7 36.1 66.7 36.5 67"/>
      <polygon class="st67" points="39.6 65.4 39.6 72.1 39.2 71.9 39.2 65.1 39.6 65.4"/>
      <polygon class="st71" points="40 64.9 40 71.9 39.6 72.1 39.6 65.2 40 64.9"/>
      <polygon class="st62" points="36.1 66.7 39.6 64.7 40 64.9 36.5 67 36.1 66.7"/>
      <polygon class="st71" points="36.5 67 40 64.9 40 65.4 36.5 67.4 36.5 67"/>
    </g>
    <g>
      <polygon class="st71" points="33.9 68.9 33.9 75.4 33.4 75.7 33.4 69.2 33.9 68.9"/>
      <polygon class="st67" points="33.4 68.7 33.4 75.7 33 75.5 33 68.5 33.4 68.7"/>
      <polygon class="st67" points="36.5 67.1 36.5 73.9 36.1 73.7 36.1 66.9 36.5 67.1"/>
      <polygon class="st71" points="37 66.7 37 73.6 36.5 73.9 36.5 67 37 66.7"/>
      <polygon class="st62" points="33 68.5 36.6 66.5 37 66.7 33.4 68.7 33 68.5"/>
      <polygon class="st71" points="33.4 68.7 37 66.7 37 67.2 33.4 69.2 33.4 68.7"/>
    </g>
    <g>
      <polygon class="st71" points="30.9 70.7 30.9 77.2 30.4 77.4 30.4 70.9 30.9 70.7"/>
      <polygon class="st67" points="30.4 70.5 30.4 77.4 30 77.2 30 70.2 30.4 70.5"/>
      <polygon class="st67" points="33.5 68.9 33.5 75.7 33.1 75.4 33.1 68.6 33.5 68.9"/>
      <polygon class="st71" points="34 68.4 34 75.4 33.5 75.7 33.5 68.7 34 68.4"/>
      <polygon class="st62" points="30 70.2 33.5 68.2 33.9 68.5 30.4 70.5 30 70.2"/>
      <polygon class="st71" points="30.4 70.5 34 68.4 34 68.9 30.4 70.9 30.4 70.5"/>
    </g>
    <g>
      <polygon class="st71" points="27.8 72.4 27.8 78.9 27.4 79.2 27.4 72.7 27.8 72.4"/>
      <polygon class="st67" points="27.4 72.2 27.4 79.2 27 79 26.9 72 27.4 72.2"/>
      <polygon class="st67" points="30.5 70.6 30.5 77.4 30.1 77.2 30.1 70.4 30.5 70.6"/>
      <polygon class="st71" points="30.9 70.2 30.9 77.1 30.5 77.4 30.5 70.5 30.9 70.2"/>
      <polygon class="st62" points="26.9 72 30.5 70 30.9 70.2 27.4 72.2 26.9 72"/>
      <polygon class="st71" points="27.4 72.2 30.9 70.2 30.9 70.7 27.4 72.7 27.4 72.2"/>
    </g>
    <g>
      <polygon class="st71" points="24.8 74.2 24.8 80.7 24.3 81 24.3 74.4 24.8 74.2"/>
      <polygon class="st67" points="24.3 74 24.3 81 23.9 80.7 23.9 73.7 24.3 74"/>
      <polygon class="st67" points="27.4 72.4 27.4 79.2 27 78.9 27 72.1 27.4 72.4"/>
      <polygon class="st71" points="27.9 72 27.9 78.9 27.4 79.2 27.4 72.2 27.9 72"/>
      <polygon class="st62" points="23.9 73.7 27.5 71.7 27.9 72 24.3 74 23.9 73.7"/>
      <polygon class="st71" points="24.3 74 27.9 72 27.9 72.4 24.3 74.4 24.3 74"/>
    </g>
  </g>
  <polygon class="st12" points="63.1 76.6 63.1 76.6 37.6 91.3 63.1 76.6"/>
  <polygon class="st20" points="116.9 42.9 116.9 45.6 37.6 91.3 37.6 88.6 116.9 42.9"/>
  <g>
    <polygon class="st21" points="59.4 52.1 59.4 72.9 76.7 62.9 106.6 45.7 106.6 24.8 76.7 42.1 59.4 52.1"/>
    <polygon class="st26" points="106.6 32 106.6 35.3 106.6 35.3 76.7 52.5 76.7 49.2 106.6 32 106.6 32"/>
    <g>
      <g>
        <g>
          <polygon class="st28" points="96.6 42 96.6 43.5 100.6 41.2 100.6 39.7 96.6 42"/>
          <polygon class="st44" points="100.3 41 100.3 40.2 96.8 42.2 96.8 43 100.3 41"/>
          <polygon class="st40" points="100.1 40.9 100.1 40.3 100.3 40.2 100.3 41 96.8 43 96.8 42.8 100.1 40.9"/>
        </g>
        <polygon class="st48" points="100.1 40.9 100.3 41 96.8 43 96.8 42.8 100.1 40.9"/>
      </g>
      <g>
        <g>
          <polygon class="st28" points="96.6 43.2 96.6 44.7 100.6 42.4 100.6 40.9 96.6 43.2"/>
          <polygon class="st44" points="100.3 42.2 100.3 41.4 96.8 43.4 96.8 44.2 100.3 42.2"/>
          <polygon class="st40" points="100.1 42.1 100.1 41.5 100.3 41.4 100.3 42.2 96.8 44.2 96.8 44 100.1 42.1"/>
        </g>
        <polygon class="st48" points="100.1 42.1 100.3 42.2 96.8 44.2 96.8 44 100.1 42.1"/>
      </g>
      <g>
        <g>
          <polygon class="st28" points="96.6 44.4 96.6 45.9 100.6 43.6 100.6 42.1 96.6 44.4"/>
          <polygon class="st44" points="100.3 43.4 100.3 42.6 96.8 44.6 96.8 45.4 100.3 43.4"/>
          <polygon class="st40" points="100.1 43.3 100.1 42.7 100.3 42.6 100.3 43.4 96.8 45.4 96.8 45.2 100.1 43.3"/>
        </g>
        <polygon class="st48" points="100.1 43.3 100.3 43.4 96.8 45.4 96.8 45.2 100.1 43.3"/>
      </g>
      <g>
        <g>
          <polygon class="st28" points="96.6 45.6 96.6 47.1 100.6 44.8 100.6 43.3 96.6 45.6"/>
          <polygon class="st44" points="100.3 44.6 100.3 43.8 96.8 45.8 96.8 46.6 100.3 44.6"/>
          <polygon class="st40" points="100.1 44.5 100.1 43.9 100.3 43.8 100.3 44.6 96.8 46.6 96.8 46.4 100.1 44.5"/>
        </g>
        <polygon class="st48" points="100.1 44.5 100.3 44.6 96.8 46.6 96.8 46.4 100.1 44.5"/>
      </g>
      <g>
        <g>
          <polygon class="st28" points="96.6 46.8 96.6 48.3 100.6 46 100.6 44.5 96.6 46.8"/>
          <polygon class="st44" points="100.3 45.8 100.3 45 96.8 47 96.8 47.8 100.3 45.8"/>
          <polygon class="st40" points="100.1 45.7 100.1 45.1 100.3 45 100.3 45.8 96.8 47.8 96.8 47.6 100.1 45.7"/>
        </g>
        <polygon class="st48" points="100.1 45.7 100.3 45.8 96.8 47.8 96.8 47.6 100.1 45.7"/>
      </g>
      <g>
        <g>
          <polygon class="st28" points="100.3 39.9 100.3 41.4 104.3 39 104.3 37.5 100.3 39.9"/>
          <polygon class="st44" points="104 38.9 104 38 100.6 40 100.6 40.9 104 38.9"/>
          <polygon class="st40" points="103.8 38.8 103.8 38.1 104 38 104 38.9 100.6 40.9 100.6 40.6 103.8 38.8"/>
        </g>
        <polygon class="st48" points="103.8 38.8 104 38.9 100.6 40.9 100.6 40.6 103.8 38.8"/>
      </g>
      <g>
        <g>
          <polygon class="st28" points="100.3 41 100.3 42.6 104.3 40.2 104.3 38.7 100.3 41"/>
          <polygon class="st44" points="104 40.1 104 39.2 100.6 41.2 100.6 42.1 104 40.1"/>
          <polygon class="st40" points="103.8 40 103.8 39.3 104 39.2 104 40.1 100.6 42.1 100.6 41.8 103.8 40"/>
        </g>
        <polygon class="st48" points="103.8 40 104 40.1 100.6 42.1 100.6 41.8 103.8 40"/>
      </g>
      <g>
        <g>
          <polygon class="st28" points="100.3 42.2 100.3 43.8 104.3 41.4 104.3 39.9 100.3 42.2"/>
          <polygon class="st44" points="104 41.3 104 40.4 100.6 42.4 100.6 43.3 104 41.3"/>
          <polygon class="st40" points="103.8 41.2 103.8 40.5 104 40.4 104 41.3 100.6 43.3 100.6 43 103.8 41.2"/>
        </g>
        <polygon class="st48" points="103.8 41.2 104 41.3 100.6 43.3 100.6 43 103.8 41.2"/>
      </g>
      <g>
        <g>
          <polygon class="st28" points="100.3 43.4 100.3 44.9 104.3 42.6 104.3 41.1 100.3 43.4"/>
          <polygon class="st44" points="104 42.5 104 41.6 100.6 43.6 100.6 44.4 104 42.5"/>
          <polygon class="st40" points="103.8 42.3 103.8 41.7 104 41.6 104 42.5 100.6 44.4 100.6 44.2 103.8 42.3"/>
        </g>
        <polygon class="st48" points="103.8 42.3 104 42.5 100.6 44.4 100.6 44.2 103.8 42.3"/>
      </g>
      <g>
        <g>
          <polygon class="st28" points="100.3 44.6 100.3 46.1 104.3 43.8 104.3 42.3 100.3 44.6"/>
          <polygon class="st44" points="104 43.7 104 42.8 100.6 44.8 100.6 45.6 104 43.7"/>
          <polygon class="st40" points="103.8 43.5 103.8 42.9 104 42.8 104 43.7 100.6 45.6 100.6 45.4 103.8 43.5"/>
        </g>
        <polygon class="st48" points="103.8 43.5 104 43.7 100.6 45.6 100.6 45.4 103.8 43.5"/>
      </g>
    </g>
    <path class="st61" d="M81.4,42.9v15.6c0,.3.3.5.6.3l1.8-1.1c.3-.2.5-.5.5-.9v-15.6c0-.3-.3-.5-.6-.3l-1.8,1.1c-.3.2-.5.5-.5.9ZM81.5,42.9c0-.3.2-.6.4-.8l1.8-1.1s0,0,.1,0c.1,0,.3.1.3.3v15.6c0,.3-.2.6-.4.8l-1.8,1.1s0,0-.1,0c-.1,0-.3-.1-.3-.3v-15.6Z"/>
    <path class="st61" d="M77,45.4v15.6c0,.3.3.5.6.3l1.8-1.1c.3-.2.5-.5.5-.9v-15.6c0-.3-.3-.5-.6-.3l-1.8,1.1c-.3.2-.5.5-.5.9ZM77.2,45.4c0-.3.2-.6.4-.8l1.8-1.1s0,0,.1,0c.1,0,.3.1.3.3v15.6c0,.3-.2.6-.4.8l-1.8,1.1s0,0-.1,0c-.1,0-.3-.1-.3-.3v-15.6Z"/>
    <g>
      <g>
        <polygon class="st71" points="113.7 38.2 113.8 44.7 113.3 45 113.3 38.4 113.7 38.2"/>
        <polygon class="st67" points="113.3 38 113.3 45 112.9 44.7 112.9 37.7 113.3 38"/>
        <polygon class="st67" points="116.4 36.4 116.4 43.2 116 42.9 116 36.1 116.4 36.4"/>
        <polygon class="st71" points="116.9 36 116.9 42.9 116.4 43.2 116.4 36.2 116.9 36"/>
        <polygon class="st62" points="112.9 37.7 116.4 35.7 116.8 36 113.3 38 112.9 37.7"/>
        <polygon class="st71" points="113.3 38 116.9 36 116.9 36.4 113.3 38.4 113.3 38"/>
      </g>
      <g>
        <polygon class="st71" points="110.7 39.9 110.7 46.4 110.2 46.7 110.2 40.2 110.7 39.9"/>
        <polygon class="st67" points="110.2 39.7 110.2 46.7 109.8 46.5 109.8 39.5 110.2 39.7"/>
        <polygon class="st67" points="113.3 38.1 113.3 44.9 112.9 44.7 112.9 37.9 113.3 38.1"/>
        <polygon class="st71" points="113.8 37.7 113.8 44.6 113.3 44.9 113.3 38 113.8 37.7"/>
        <polygon class="st62" points="109.8 39.5 113.4 37.5 113.8 37.7 110.2 39.7 109.8 39.5"/>
        <polygon class="st71" points="110.2 39.7 113.8 37.7 113.8 38.2 110.2 40.2 110.2 39.7"/>
      </g>
      <g>
        <polygon class="st71" points="107.7 41.7 107.7 48.2 107.2 48.5 107.2 42 107.7 41.7"/>
        <polygon class="st67" points="107.2 41.5 107.2 48.5 106.8 48.2 106.8 41.3 107.2 41.5"/>
        <polygon class="st67" points="110.3 39.9 110.3 46.7 109.9 46.5 109.9 39.7 110.3 39.9"/>
        <polygon class="st71" points="110.8 39.5 110.8 46.4 110.3 46.7 110.3 39.8 110.8 39.5"/>
        <polygon class="st62" points="106.8 41.3 110.3 39.3 110.7 39.5 107.2 41.5 106.8 41.3"/>
        <polygon class="st71" points="107.2 41.5 110.8 39.5 110.8 39.9 107.2 42 107.2 41.5"/>
      </g>
      <g>
        <polygon class="st71" points="104.6 43.4 104.6 50 104.1 50.2 104.1 43.7 104.6 43.4"/>
        <polygon class="st67" points="104.1 43.3 104.1 50.2 103.7 50 103.7 43 104.1 43.3"/>
        <polygon class="st67" points="107.2 41.6 107.3 48.4 106.8 48.2 106.8 41.4 107.2 41.6"/>
        <polygon class="st71" points="107.7 41.2 107.7 48.2 107.3 48.4 107.2 41.5 107.7 41.2"/>
        <polygon class="st62" points="103.7 43 107.3 41 107.7 41.2 104.1 43.3 103.7 43"/>
        <polygon class="st71" points="104.1 43.3 107.7 41.2 107.7 41.7 104.1 43.7 104.1 43.3"/>
      </g>
      <g>
        <polygon class="st71" points="101.6 45.2 101.6 51.7 101.1 52 101.1 45.5 101.6 45.2"/>
        <polygon class="st67" points="101.1 45 101.1 52 100.7 51.8 100.7 44.8 101.1 45"/>
        <polygon class="st67" points="104.2 43.4 104.2 50.2 103.8 50 103.8 43.2 104.2 43.4"/>
        <polygon class="st71" points="104.7 43 104.7 49.9 104.2 50.2 104.2 43.3 104.7 43"/>
        <polygon class="st62" points="100.7 44.8 104.2 42.8 104.7 43 101.1 45 100.7 44.8"/>
        <polygon class="st71" points="101.1 45 104.7 43 104.7 43.5 101.1 45.5 101.1 45"/>
      </g>
      <g>
        <polygon class="st71" points="98.5 47 98.5 53.5 98.1 53.8 98 47.2 98.5 47"/>
        <polygon class="st67" points="98 46.8 98.1 53.8 97.7 53.5 97.6 46.5 98 46.8"/>
        <polygon class="st67" points="101.2 45.2 101.2 52 100.8 51.7 100.7 44.9 101.2 45.2"/>
        <polygon class="st71" points="101.6 44.8 101.6 51.7 101.2 52 101.2 45 101.6 44.8"/>
        <polygon class="st62" points="97.6 46.5 101.2 44.5 101.6 44.8 98.1 46.8 97.6 46.5"/>
        <polygon class="st71" points="98.1 46.8 101.6 44.8 101.6 45.2 98 47.2 98.1 46.8"/>
      </g>
      <g>
        <polygon class="st71" points="95.5 48.7 95.5 55.2 95 55.5 95 49 95.5 48.7"/>
        <polygon class="st67" points="95 48.5 95 55.5 94.6 55.3 94.6 48.3 95 48.5"/>
        <polygon class="st67" points="98.1 46.9 98.1 53.7 97.7 53.5 97.7 46.7 98.1 46.9"/>
        <polygon class="st71" points="98.6 46.5 98.6 53.4 98.1 53.7 98.1 46.8 98.6 46.5"/>
        <polygon class="st62" points="94.6 48.3 98.2 46.3 98.6 46.5 95 48.5 94.6 48.3"/>
        <polygon class="st71" points="95 48.5 98.6 46.5 98.6 47 95 49 95 48.5"/>
      </g>
      <g>
        <polygon class="st71" points="92.4 50.5 92.4 57 92 57.3 92 50.8 92.4 50.5"/>
        <polygon class="st67" points="92 50.3 92 57.3 91.6 57 91.6 50.1 92 50.3"/>
        <polygon class="st67" points="95.1 48.7 95.1 55.5 94.7 55.2 94.7 48.5 95.1 48.7"/>
        <polygon class="st71" points="95.5 48.3 95.5 55.2 95.1 55.5 95.1 48.5 95.5 48.3"/>
        <polygon class="st62" points="91.6 50.1 95.1 48 95.5 48.3 92 50.3 91.6 50.1"/>
        <polygon class="st71" points="92 50.3 95.5 48.3 95.5 48.7 92 50.8 92 50.3"/>
      </g>
      <g>
        <polygon class="st71" points="89.4 52.2 89.4 58.8 88.9 59 88.9 52.5 89.4 52.2"/>
        <polygon class="st67" points="88.9 52 88.9 59 88.5 58.8 88.5 51.8 88.9 52"/>
        <polygon class="st67" points="92 50.4 92 57.2 91.6 57 91.6 50.2 92 50.4"/>
        <polygon class="st71" points="92.5 50 92.5 57 92 57.2 92 50.3 92.5 50"/>
        <polygon class="st62" points="88.5 51.8 92.1 49.8 92.5 50 88.9 52 88.5 51.8"/>
        <polygon class="st71" points="88.9 52 92.5 50 92.5 50.5 88.9 52.5 88.9 52"/>
      </g>
      <g>
        <polygon class="st71" points="86.3 54 86.3 60.5 85.9 60.8 85.9 54.3 86.3 54"/>
        <polygon class="st67" points="85.9 53.8 85.9 60.8 85.5 60.6 85.5 53.6 85.9 53.8"/>
        <polygon class="st67" points="89 52.2 89 59 88.6 58.8 88.6 52 89 52.2"/>
        <polygon class="st71" points="89.4 51.8 89.4 58.7 89 59 89 52.1 89.4 51.8"/>
        <polygon class="st62" points="85.5 53.6 89 51.6 89.4 51.8 85.9 53.8 85.5 53.6"/>
        <polygon class="st71" points="85.9 53.8 89.4 51.8 89.4 52.3 85.9 54.3 85.9 53.8"/>
      </g>
      <g>
        <polygon class="st71" points="83.3 55.8 83.3 62.3 82.8 62.5 82.8 56 83.3 55.8"/>
        <polygon class="st67" points="82.8 55.6 82.8 62.5 82.4 62.3 82.4 55.3 82.8 55.6"/>
        <polygon class="st67" points="85.9 54 85.9 60.8 85.5 60.5 85.5 53.7 85.9 54"/>
        <polygon class="st71" points="86.4 53.5 86.4 60.5 85.9 60.8 85.9 53.8 86.4 53.5"/>
        <polygon class="st62" points="82.4 55.3 86 53.3 86.4 53.5 82.8 55.6 82.4 55.3"/>
        <polygon class="st71" points="82.8 55.6 86.4 53.5 86.4 54 82.8 56 82.8 55.6"/>
      </g>
      <g>
        <polygon class="st71" points="80.2 57.5 80.2 64 79.8 64.3 79.8 57.8 80.2 57.5"/>
        <polygon class="st67" points="79.8 57.3 79.8 64.3 79.4 64.1 79.4 57.1 79.8 57.3"/>
        <polygon class="st67" points="82.9 55.7 82.9 62.5 82.5 62.3 82.5 55.5 82.9 55.7"/>
        <polygon class="st71" points="83.3 55.3 83.3 62.2 82.9 62.5 82.9 55.6 83.3 55.3"/>
        <polygon class="st62" points="79.4 57.1 82.9 55.1 83.3 55.3 79.8 57.3 79.4 57.1"/>
        <polygon class="st71" points="79.8 57.3 83.3 55.3 83.3 55.8 79.8 57.8 79.8 57.3"/>
      </g>
      <g>
        <polygon class="st71" points="77.2 59.3 77.2 65.8 76.7 66.1 76.7 59.5 77.2 59.3"/>
        <polygon class="st67" points="76.7 59.1 76.7 66.1 76.3 65.8 76.3 58.9 76.7 59.1"/>
        <polygon class="st67" points="79.8 57.5 79.8 64.3 79.4 64 79.4 57.2 79.8 57.5"/>
        <polygon class="st71" points="80.3 57.1 80.3 64 79.8 64.3 79.8 57.3 80.3 57.1"/>
        <polygon class="st62" points="76.3 58.9 79.9 56.8 80.3 57.1 76.7 59.1 76.3 58.9"/>
        <polygon class="st71" points="76.7 59.1 80.3 57.1 80.3 57.5 76.7 59.5 76.7 59.1"/>
      </g>
    </g>
    <polygon class="st55" points="53.3 45.9 59.4 49.5 59.4 52.1 76.7 42.1 106.6 24.8 104.5 20.5 98.2 20 70.6 36 53.3 45.9"/>
  </g>
  <polygon class="st29" points="45.7 44.2 59.4 52.1 59.4 76.1 45.7 68.1 45.7 44.2"/>
  <polygon class="st0" points="59.4 52.1 59.4 76.1 76.7 66.1 76.7 42.1 59.4 52.1"/>
  <polygon class="st54" points="76.7 56.8 59.4 66.8 59.4 63.6 76.7 53.6 76.7 56.8"/>
  <polygon class="st39" points="57.6 48.9 59.4 52.1 76.7 42.1 74.9 38.9 57.6 48.9"/>
  <polygon class="st1" points="57.6 48.9 51.1 45.1 46.8 42.6 48.1 41.9 64.1 32.7 68.4 35.2 74.9 38.9 57.6 48.9"/>
  <g>
    <polygon class="st61" points="39.9 67.2 39.9 84.3 56.8 74.5 56.8 74.5 56.8 58.6 39.9 67.2"/>
    <polygon class="st27" points="56.8 64 56.8 64 39.9 73.7 39.9 70.5 56.8 60.8 56.8 60.8 56.8 64"/>
    <polygon class="st39" points="39.9 65.7 32.7 65.8 39.9 68.3 56.8 58.6 55.6 56.7 39.9 65.7"/>
    <polygon class="st1" points="38.2 59.3 49.1 53 55.6 56.7 42.9 64.1 38.1 66.8 32.7 65.8 33.6 62 38.2 59.3"/>
    <polygon class="st14" points="31.6 63.4 31.6 79.4 31.7 79.8 32.7 82.9 32.7 79.8 32.7 78.3 32.7 75.9 32.7 74.5 32.7 72.1 32.7 70.6 32.7 68.3 32.7 66.8 32.7 65.8 31.6 63.4"/>
    <g>
      <polygon class="st68" points="32.7 79.8 31.7 79.8 31.6 79.4 31.6 78.3 32.7 78.3 32.7 79.8"/>
      <polygon class="st68" points="32.7 75.9 31.6 76 31.6 74.5 32.7 74.5 32.7 75.9"/>
      <polygon class="st68" points="32.7 72.1 31.6 72.2 31.6 70.7 32.7 70.6 32.7 72.1"/>
      <polygon class="st68" points="32.7 68.3 31.6 68.3 31.6 66.9 32.7 66.8 32.7 68.3"/>
      <polygon class="st68" points="32.3 65 31.6 65 31.6 63.5 31.7 63.5 32.3 65"/>
    </g>
  </g>
  <polygon class="st60" points="46.8 42.6 45.7 44.2 59.4 52.1 57.6 48.9 46.8 42.6"/>
  <polygon class="st36" points="32.3 62.7 31.6 63.4 32.7 65.8 39.9 68.3 39.9 84.3 41.3 83.5 41.3 67.6 32.3 62.7"/>
  <polygon class="st35" points="38.7 66.5 39.9 68.3 32.7 65.8 31.6 63.4 32.3 62.7 38.7 66.5"/>
  <polygon class="st65" points="32.7 65.8 32.7 66.8 32.7 68.3 32.7 70.6 32.7 72.1 32.7 74.5 32.7 75.9 32.7 78.3 32.7 79.8 32.7 82.9 35.8 83.5 37.2 83.8 37.2 83.8 39.6 84.2 39.9 84.3 39.9 68.3 32.7 65.8"/>
  <g>
    <polygon class="st63" points="32.7 72.1 32.7 70.6 32.7 70.6 39.9 79.4 39.9 80.8 32.7 72.1 32.7 72.1"/>
    <polygon class="st63" points="32.7 68.3 32.7 66.8 32.7 66.8 39.9 75.6 39.9 77 32.7 68.3 32.7 68.3"/>
    <polygon class="st63" points="36.5 67.1 39.9 71.3 39.9 72.6 34.8 66.5 36.5 67.1"/>
    <polygon class="st63" points="32.7 75.9 32.7 74.5 32.7 74.5 39.9 83.2 39.9 84.3 39.6 84.2 32.7 75.9 32.7 75.9"/>
    <polygon class="st63" points="32.7 78.3 37.2 83.8 35.8 83.5 32.7 79.8 32.7 79.8 32.7 78.3 32.7 78.3"/>
  </g>
  <g>
    <polygon class="st7" points="27.5 76.2 27.5 82.9 28 83.2 28 76.5 27.5 76.2"/>
    <polygon class="st45" points="28 76 28 83.2 28.4 83 28.4 75.8 28 76"/>
    <polygon class="st45" points="24.8 74.4 24.8 81.4 25.2 81.1 25.2 74.2 24.8 74.4"/>
    <polygon class="st7" points="24.3 74 24.3 81.1 24.8 81.4 24.8 74.3 24.3 74"/>
    <polygon class="st72" points="28.4 75.8 24.7 73.7 24.3 74 28 76 28.4 75.8"/>
    <polygon class="st7" points="28 76 24.3 74 24.3 74.4 28 76.5 28 76"/>
  </g>
  <g>
    <polygon class="st7" points="37.1 81.9 37.1 88.5 37.6 88.8 37.6 82.1 37.1 81.9"/>
    <polygon class="st45" points="37.6 81.7 37.6 88.8 38 88.6 38 81.4 37.6 81.7"/>
    <polygon class="st45" points="34.4 80 34.4 87 34.9 86.7 34.9 79.8 34.4 80"/>
    <polygon class="st7" points="34 79.6 34 86.7 34.4 87 34.4 79.9 34 79.6"/>
    <polygon class="st72" points="38 81.4 34.4 79.4 34 79.6 37.6 81.7 38 81.4"/>
    <polygon class="st7" points="37.6 81.7 34 79.6 34 80.1 37.6 82.1 37.6 81.7"/>
  </g>
  <polygon class="st13" points="26.3 78.9 35.2 84.1 35.2 87.9 26.3 82.8 26.3 78.9"/>
  <polygon class="st20" points="35.2 84.1 26.3 78.9 26.8 78.7 35.7 83.8 35.7 87.7 35.2 87.4 35.2 84.1"/>
  <polygon class="st19" points="26.3 82.1 26.3 82.8 34.8 87.5 35.2 87.2 37.6 88.6 37.6 91.3 25.9 83 23.5 81 23.9 80.7 26.3 82.1"/>
  <polygon class="st20" points="37.6 88.6 37.2 88.9 37.2 91.5 37.6 91.3 37.6 88.6"/>
  <polygon class="st13" points="25.9 82.4 25.9 83 34.8 88.2 34.8 87.5 37.2 88.9 37.2 91.5 23.5 83.6 23.5 81 25.9 82.4"/>
  <polygon class="st46" points="33.6 62 32.3 62.7 32.7 65.8 38.7 66.5 40 65.7 33.6 62"/>
  <polygon class="st15" points="38.7 66.5 39.9 68.3 41.3 67.6 40 65.7 38.7 66.5"/>
  <g>
    <path class="st13" d="M51.6,52.5v-2.9c0-.2-.1-.3-.3-.4l-4.6-2.7c-.1,0-.3,0-.3.2v2.9c0,.2.1.3.3.4l4.6,2.7c.1,0,.3,0,.3-.2Z"/>
    <path class="st10" d="M51.5,52.5v-2.9c0-.2-.1-.3-.3-.4l-4.6-2.7c-.1,0-.3,0-.3.2v2.9c0,.2.1.3.3.4l4.6,2.7c.1,0,.3,0,.3-.2Z"/>
    <path class="st43" d="M46.5,46.8s0,0,.1,0l4.4,2.5c.1,0,.2.2.2.3v2.8s0,0,0,0c0,0,0,0-.1,0l-4.4-2.5c-.1,0-.2-.2-.2-.3v-2.8s0,0,0,0h0Z"/>
    <path class="st70" d="M51.2,52.4s0,0,0,0c0,0,0,0,0,0l-4.4-2.5c-.1,0-.2-.2-.2-.3v-2.8s0,0,0,0c0,0,0,0,0,0,0,0,0,0,0,0v2.8c0,.1,0,.2.2.3l4.4,2.5s0,0,.1,0Z"/>
  </g>
  <g>
    <path class="st13" d="M58.3,56.4v-2.9c0-.2-.1-.3-.3-.4l-4.6-2.7c-.1,0-.3,0-.3.2v2.9c0,.2.1.3.3.4l4.6,2.7c.1,0,.3,0,.3-.2Z"/>
    <path class="st10" d="M58.2,56.4v-2.9c0-.2-.1-.3-.3-.4l-4.6-2.7c-.1,0-.3,0-.3.2v2.9c0,.2.1.3.3.4l4.6,2.7c.1,0,.3,0,.3-.2Z"/>
    <path class="st41" d="M53.3,50.7s0,0,.1,0l4.4,2.5c.1,0,.2.2.2.3v2.8s0,0,0,0c0,0,0,0-.1,0l-4.4-2.5c-.1,0-.2-.2-.2-.3v-2.8s0,0,0,0h0Z"/>
    <path class="st70" d="M58,56.3s0,0,0,0c0,0,0,0,0,0l-4.4-2.5c-.1,0-.2-.2-.2-.3v-2.8s0,0,0,0c0,0,0,0,0,0,0,0,0,0,0,0v2.8c0,.1,0,.2.2.3l4.4,2.5s0,0,.1,0Z"/>
  </g>
  <g>
    <path class="st31" d="M62.8,62.5v-9c0-.2.1-.3.3-.4l3.3-1.9c.1,0,.3,0,.3.2v9c0,.2-.1.3-.3.4l-3.3,1.9c-.1,0-.3,0-.3-.2Z"/>
    <path class="st17" d="M62.9,62.5v-9c0-.2.1-.3.3-.4l3.3-1.9c.1,0,.3,0,.3.2v9c0,.2-.1.3-.3.4l-3.3,1.9c-.1,0-.3,0-.3-.2Z"/>
    <path class="st58" d="M66.4,51.5s0,0-.1,0l-3,1.7c-.1,0-.2.2-.2.3v8.9s0,0,0,0c0,0,0,0,.1,0l3-1.7c.1,0,.2-.2.2-.3v-8.9s0,0,0,0h0Z"/>
    <path class="st51" d="M63.1,62.4s0,0,0,0c0,0,0,0,0,0l3-1.7c.1,0,.2-.2.2-.3v-8.9s0,0,0,0c0,0,0,0,0,0,0,0,0,0,0,0v8.9c0,.1,0,.2-.2.3l-3,1.7s0,0-.1,0Z"/>
  </g>
  <g>
    <path class="st31" d="M69,53.5v-2.9c0-.2.1-.3.3-.4l4.6-2.7c.1,0,.3,0,.3.2v2.9c0,.2-.1.3-.3.4l-4.6,2.7c-.1,0-.3,0-.3-.2Z"/>
    <path class="st17" d="M69.1,53.6v-2.9c0-.2.1-.3.3-.4l4.6-2.7c.1,0,.3,0,.3.2v2.9c0,.2-.1.3-.3.4l-4.6,2.7c-.1,0-.3,0-.3-.2Z"/>
    <path class="st30" d="M74.1,47.9s0,0-.1,0l-4.4,2.5c-.1,0-.2.2-.2.3v2.8s0,0,0,0c0,0,0,0,.1,0l4.4-2.5c.1,0,.2-.2.2-.3v-2.8s0,0,0,0h0Z"/>
    <path class="st51" d="M69.4,53.5s0,0,0,0c0,0,0,0,0,0l4.4-2.5c.1,0,.2-.2.2-.3v-2.8s0,0,0,0c0,0,0,0,0,0,0,0,0,0,0,0v2.8c0,.1,0,.2-.2.3l-4.4,2.5s0,0-.1,0Z"/>
  </g>
  <g>
    <g>
      <g>
        <polygon class="st28" points="96.6 34.1 96.6 35.6 100.6 33.3 100.6 31.8 96.6 34.1"/>
        <polygon class="st44" points="100.3 33.1 100.3 32.3 96.8 34.2 96.8 35.1 100.3 33.1"/>
        <polygon class="st40" points="100.1 33 100.1 32.3 100.3 32.3 100.3 33.1 96.8 35.1 96.8 34.9 100.1 33"/>
      </g>
      <polygon class="st48" points="100.1 33 100.3 33.1 96.8 35.1 96.8 34.9 100.1 33"/>
    </g>
    <g>
      <g>
        <polygon class="st28" points="96.6 35.3 96.6 36.8 100.6 34.5 100.6 33 96.6 35.3"/>
        <polygon class="st44" points="100.3 34.3 100.3 33.4 96.8 35.4 96.8 36.3 100.3 34.3"/>
        <polygon class="st40" points="100.1 34.2 100.1 33.5 100.3 33.4 100.3 34.3 96.8 36.3 96.8 36.1 100.1 34.2"/>
      </g>
      <polygon class="st48" points="100.1 34.2 100.3 34.3 96.8 36.3 96.8 36.1 100.1 34.2"/>
    </g>
    <g>
      <g>
        <polygon class="st28" points="96.6 36.5 96.6 38 100.6 35.7 100.6 34.1 96.6 36.5"/>
        <polygon class="st44" points="100.3 35.5 100.3 34.6 96.8 36.6 96.8 37.5 100.3 35.5"/>
        <polygon class="st40" points="100.1 35.4 100.1 34.7 100.3 34.6 100.3 35.5 96.8 37.5 96.8 37.3 100.1 35.4"/>
      </g>
      <polygon class="st48" points="100.1 35.4 100.3 35.5 96.8 37.5 96.8 37.3 100.1 35.4"/>
    </g>
    <g>
      <g>
        <polygon class="st28" points="96.6 37.7 96.6 39.2 100.6 36.8 100.6 35.3 96.6 37.7"/>
        <polygon class="st44" points="100.3 36.7 100.3 35.8 96.8 37.8 96.8 38.7 100.3 36.7"/>
        <polygon class="st40" points="100.1 36.6 100.1 35.9 100.3 35.8 100.3 36.7 96.8 38.7 96.8 38.4 100.1 36.6"/>
      </g>
      <polygon class="st48" points="100.1 36.6 100.3 36.7 96.8 38.7 96.8 38.4 100.1 36.6"/>
    </g>
    <g>
      <g>
        <polygon class="st28" points="96.6 38.8 96.6 40.4 100.6 38 100.6 36.5 96.6 38.8"/>
        <polygon class="st44" points="100.3 37.9 100.3 37 96.8 39 96.8 39.9 100.3 37.9"/>
        <polygon class="st40" points="100.1 37.8 100.1 37.1 100.3 37 100.3 37.9 96.8 39.9 96.8 39.6 100.1 37.8"/>
      </g>
      <polygon class="st48" points="100.1 37.8 100.3 37.9 96.8 39.9 96.8 39.6 100.1 37.8"/>
    </g>
    <g>
      <g>
        <polygon class="st28" points="100.3 31.9 100.3 33.4 104.3 31.1 104.3 29.6 100.3 31.9"/>
        <polygon class="st44" points="104 30.9 104 30.1 100.6 32.1 100.6 32.9 104 30.9"/>
        <polygon class="st40" points="103.8 30.8 103.8 30.2 104 30.1 104 30.9 100.6 32.9 100.6 32.7 103.8 30.8"/>
      </g>
      <polygon class="st48" points="103.8 30.8 104 30.9 100.6 32.9 100.6 32.7 103.8 30.8"/>
    </g>
    <g>
      <g>
        <polygon class="st28" points="100.3 33.1 100.3 34.6 104.3 32.3 104.3 30.8 100.3 33.1"/>
        <polygon class="st44" points="104 32.1 104 31.3 100.6 33.3 100.6 34.1 104 32.1"/>
        <polygon class="st40" points="103.8 32 103.8 31.4 104 31.3 104 32.1 100.6 34.1 100.6 33.9 103.8 32"/>
      </g>
      <polygon class="st48" points="103.8 32 104 32.1 100.6 34.1 100.6 33.9 103.8 32"/>
    </g>
    <g>
      <g>
        <polygon class="st28" points="100.3 34.3 100.3 35.8 104.3 33.5 104.3 32 100.3 34.3"/>
        <polygon class="st44" points="104 33.3 104 32.5 100.6 34.5 100.6 35.3 104 33.3"/>
        <polygon class="st40" points="103.8 33.2 103.8 32.6 104 32.5 104 33.3 100.6 35.3 100.6 35.1 103.8 33.2"/>
      </g>
      <polygon class="st48" points="103.8 33.2 104 33.3 100.6 35.3 100.6 35.1 103.8 33.2"/>
    </g>
    <g>
      <g>
        <polygon class="st28" points="100.3 35.5 100.3 37 104.3 34.7 104.3 33.2 100.3 35.5"/>
        <polygon class="st44" points="104 34.5 104 33.7 100.6 35.7 100.6 36.5 104 34.5"/>
        <polygon class="st40" points="103.8 34.4 103.8 33.8 104 33.7 104 34.5 100.6 36.5 100.6 36.3 103.8 34.4"/>
      </g>
      <polygon class="st48" points="103.8 34.4 104 34.5 100.6 36.5 100.6 36.3 103.8 34.4"/>
    </g>
    <g>
      <g>
        <polygon class="st28" points="100.3 36.7 100.3 38.2 104.3 35.9 104.3 34.4 100.3 36.7"/>
        <polygon class="st44" points="104 35.7 104 34.9 100.6 36.8 100.6 37.7 104 35.7"/>
        <polygon class="st40" points="103.8 35.6 103.8 34.9 104 34.9 104 35.7 100.6 37.7 100.6 37.5 103.8 35.6"/>
      </g>
      <polygon class="st48" points="103.8 35.6 104 35.7 100.6 37.7 100.6 37.5 103.8 35.6"/>
    </g>
  </g>
  <g>
    <path class="st16" d="M53.8,46.6l2.3-1.8c0-1-1.1-2.3-2.1-2.6-.7-.2-2.3.7-3.3,1.7-.5.5,3.1,2.7,3.1,2.7Z"/>
    <path class="st2" d="M50.4,44.7c0,1,.7,2.3,1.7,2.9s1.7.1,1.7-.9-.7-2.3-1.7-2.9c-.9-.5-1.7-.1-1.7.9Z"/>
    <path class="st59" d="M50.5,45.2c.6-.3,1.9-.5,3.3,1.5,0,1-.8,1.3-1.7.8-.8-.5-1.4-1.4-1.6-2.4Z"/>
    <path class="st50" d="M51.8,45.2c0,.3.2.8.5.9.3.2.5,0,.5-.3s-.2-.8-.5-.9c-.3-.2-.5,0-.5.3Z"/>
  </g>
  <g>
    <path class="st34" d="M93.9,23.7v1c0,.9,1,1.7,2.3,2.1.2,0,.3,0,.5.1,0,0,.1,0,.2,0,0,0,0,0,.1,0,0,0,.1,0,.2,0,.1,0,.3,0,.4,0,0,0,.1,0,.2,0,.1,0,.2,0,.3,0s.2,0,.3,0c0,0,.1,0,.2,0,.1,0,.3,0,.4,0,0,0,.1,0,.2,0,0,0,0,0,.1,0,0,0,.1,0,.2,0,.2,0,.3,0,.5-.1,0,0,.2,0,.2,0,.2,0,.3,0,.4-.2,0,0,0,0,.1,0,.1,0,.2-.1.3-.2,0,0,0,0,.1,0,.1,0,.3-.2.4-.3,0,0,0,0,0,0,0,0,.1-.1.2-.2,0,0,.1-.1.1-.2,0,0,0-.1,0-.2,0,0,0-.1,0-.2,0,0,0,0,0,0,0,0,0,0,0,0,0,0,0,0,0,0,0-.1,0-.2,0-.3v-1s-8.4,0-8.4,0Z"/>
    <path class="st31" d="M96.2,23.7v3.1c.2,0,.3,0,.5.1,0,0,.1,0,.2,0,0,0,0,0,.1,0,0,0,.1,0,.2,0,.1,0,.3,0,.4,0,0,0,.1,0,.2,0,.1,0,.2,0,.3,0s.2,0,.3,0c0,0,.1,0,.2,0,.1,0,.3,0,.4,0,0,0,.1,0,.2,0,0,0,0,0,.1,0,0,0,.1,0,.2,0,.2,0,.3,0,.5-.1v-3.1s-3.7,0-3.7,0Z"/>
    <path class="st42" d="M99.9,23.7v3.1c0,0,.2,0,.2,0,.2,0,.3,0,.4-.2,0,0,0,0,.1,0,.1,0,.2-.1.3-.2,0,0,0,0,.1,0,.1,0,.3-.2.4-.3,0,0,0,0,0,0,0,0,.1-.1.2-.2,0,0,.1-.1.1-.2,0,0,0-.1,0-.2,0,0,0-.1,0-.2,0,0,0,0,0,0,0,0,0,0,0,0,0,0,0,0,0,0,0-.1,0-.2,0-.3v-1s-2.3,0-2.3,0Z"/>
    <path class="st71" d="M93.9,23.7c0,.9,1,1.7,2.3,2.1.6.2,1.2.2,1.8.2s1.3,0,1.8-.2c1.4-.4,2.3-1.2,2.3-2.1s-.7-1.5-1.8-1.9c-.1,0-.3,0-.4-.1,0,0-.1,0-.2,0-.6-.2-1.2-.2-1.8-.2s-1.3,0-1.8.2c-1.4.4-2.3,1.2-2.3,2.1Z"/>
  </g>
  <g>
    <path class="st34" d="M76.4,33.8v1c0,.9,1,1.7,2.3,2.1.2,0,.3,0,.5.1,0,0,.1,0,.2,0,0,0,0,0,.1,0,0,0,.1,0,.2,0,.1,0,.3,0,.4,0,0,0,.1,0,.2,0,.1,0,.2,0,.3,0s.2,0,.3,0c0,0,.1,0,.2,0,.1,0,.3,0,.4,0,0,0,.1,0,.2,0,0,0,0,0,.1,0,0,0,.1,0,.2,0,.2,0,.3,0,.5-.1,0,0,.2,0,.2,0,.2,0,.3,0,.4-.2,0,0,0,0,.1,0,.1,0,.2-.1.3-.2,0,0,0,0,.1,0,.1,0,.3-.2.4-.3,0,0,0,0,0,0,0,0,.1-.1.2-.2,0,0,.1-.1.1-.2,0,0,0-.1,0-.2,0,0,0-.1,0-.2,0,0,0,0,0,0,0,0,0,0,0,0,0,0,0,0,0,0,0-.1,0-.2,0-.3v-1s-8.4,0-8.4,0Z"/>
    <path class="st31" d="M78.7,33.8v3.1c.2,0,.3,0,.5.1,0,0,.1,0,.2,0,0,0,0,0,.1,0,0,0,.1,0,.2,0,.1,0,.3,0,.4,0,0,0,.1,0,.2,0,.1,0,.2,0,.3,0s.2,0,.3,0c0,0,.1,0,.2,0,.1,0,.3,0,.4,0,0,0,.1,0,.2,0,0,0,0,0,.1,0,0,0,.1,0,.2,0,.2,0,.3,0,.5-.1v-3.1s-3.7,0-3.7,0Z"/>
    <path class="st42" d="M82.4,33.8v3.1c0,0,.2,0,.2,0,.2,0,.3,0,.4-.2,0,0,0,0,.1,0,.1,0,.2-.1.3-.2,0,0,0,0,.1,0,.1,0,.3-.2.4-.3,0,0,0,0,0,0,0,0,.1-.1.2-.2,0,0,.1-.1.1-.2,0,0,0-.1,0-.2,0,0,0-.1,0-.2,0,0,0,0,0,0,0,0,0,0,0,0,0,0,0,0,0,0,0-.1,0-.2,0-.3v-1s-2.3,0-2.3,0Z"/>
    <path class="st71" d="M76.4,33.8c0,.9,1,1.7,2.3,2.1.6.2,1.2.2,1.8.2s1.3,0,1.8-.2c1.4-.4,2.3-1.2,2.3-2.1s-.7-1.5-1.8-1.9c-.1,0-.3,0-.4-.1,0,0-.1,0-.2,0-.6-.2-1.2-.2-1.8-.2s-1.3,0-1.8.2c-1.4.4-2.3,1.2-2.3,2.1Z"/>
  </g>
  <g>
    <g>
      <polygon class="st71" points="56.3 71.3 56.3 77.8 55.9 78.1 55.8 71.6 56.3 71.3"/>
      <polygon class="st67" points="55.8 71.1 55.9 78.1 55.4 77.9 55.4 70.9 55.8 71.1"/>
      <polygon class="st67" points="58.9 69.5 59 76.3 58.6 76.1 58.5 69.3 58.9 69.5"/>
      <polygon class="st71" points="59.4 69.1 59.4 76.1 59 76.3 58.9 69.4 59.4 69.1"/>
      <polygon class="st62" points="55.4 70.9 59 68.9 59.4 69.1 55.8 71.1 55.4 70.9"/>
      <polygon class="st71" points="55.8 71.1 59.4 69.1 59.4 69.6 55.8 71.6 55.8 71.1"/>
    </g>
    <g>
      <polygon class="st71" points="53.3 73.1 53.3 79.6 52.8 79.9 52.8 73.4 53.3 73.1"/>
      <polygon class="st67" points="52.8 72.9 52.8 79.9 52.4 79.6 52.4 72.7 52.8 72.9"/>
      <polygon class="st67" points="55.9 71.3 55.9 78.1 55.5 77.9 55.5 71.1 55.9 71.3"/>
      <polygon class="st71" points="56.4 70.9 56.4 77.8 55.9 78.1 55.9 71.2 56.4 70.9"/>
      <polygon class="st62" points="52.4 72.7 56 70.7 56.4 70.9 52.8 72.9 52.4 72.7"/>
      <polygon class="st71" points="52.8 72.9 56.4 70.9 56.4 71.3 52.8 73.4 52.8 72.9"/>
    </g>
    <g>
      <polygon class="st71" points="50.2 74.8 50.2 81.4 49.8 81.6 49.8 75.1 50.2 74.8"/>
      <polygon class="st67" points="49.8 74.6 49.8 81.6 49.4 81.4 49.4 74.4 49.8 74.6"/>
      <polygon class="st67" points="52.9 73 52.9 79.8 52.5 79.6 52.5 72.8 52.9 73"/>
      <polygon class="st71" points="53.3 72.6 53.3 79.6 52.9 79.8 52.9 72.9 53.3 72.6"/>
      <polygon class="st62" points="49.4 74.4 52.9 72.4 53.3 72.6 49.8 74.6 49.4 74.4"/>
      <polygon class="st71" points="49.8 74.6 53.3 72.6 53.3 73.1 49.8 75.1 49.8 74.6"/>
    </g>
    <g>
      <polygon class="st71" points="47.2 76.6 47.2 83.1 46.7 83.4 46.7 76.9 47.2 76.6"/>
      <polygon class="st67" points="46.7 76.4 46.7 83.4 46.3 83.2 46.3 76.2 46.7 76.4"/>
      <polygon class="st67" points="49.8 74.8 49.8 81.6 49.4 81.4 49.4 74.6 49.8 74.8"/>
      <polygon class="st71" points="50.3 74.4 50.3 81.3 49.8 81.6 49.8 74.7 50.3 74.4"/>
      <polygon class="st62" points="46.3 76.2 49.9 74.2 50.3 74.4 46.7 76.4 46.3 76.2"/>
      <polygon class="st71" points="46.7 76.4 50.3 74.4 50.3 74.8 46.7 76.9 46.7 76.4"/>
    </g>
    <g>
      <polygon class="st71" points="44.2 78.3 44.2 84.9 43.7 85.1 43.7 78.6 44.2 78.3"/>
      <polygon class="st67" points="43.7 78.2 43.7 85.1 43.3 84.9 43.3 77.9 43.7 78.2"/>
      <polygon class="st67" points="46.8 76.6 46.8 83.3 46.4 83.1 46.4 76.3 46.8 76.6"/>
      <polygon class="st71" points="47.3 76.1 47.3 83.1 46.8 83.3 46.8 76.4 47.3 76.1"/>
      <polygon class="st62" points="43.3 77.9 46.8 75.9 47.3 76.1 43.7 78.2 43.3 77.9"/>
      <polygon class="st71" points="43.7 78.2 47.3 76.1 47.3 76.6 43.7 78.6 43.7 78.2"/>
    </g>
    <g>
      <polygon class="st71" points="41.1 80.1 41.1 86.6 40.7 86.9 40.7 80.4 41.1 80.1"/>
      <polygon class="st67" points="40.7 79.9 40.7 86.9 40.3 86.7 40.3 79.7 40.7 79.9"/>
      <polygon class="st67" points="43.8 78.3 43.8 85.1 43.4 84.9 43.4 78.1 43.8 78.3"/>
      <polygon class="st71" points="44.2 77.9 44.2 84.8 43.8 85.1 43.8 78.2 44.2 77.9"/>
      <polygon class="st62" points="40.3 79.7 43.8 77.7 44.2 77.9 40.7 79.9 40.3 79.7"/>
      <polygon class="st71" points="40.7 79.9 44.2 77.9 44.2 78.4 40.7 80.4 40.7 79.9"/>
    </g>
    <g>
      <polygon class="st71" points="38.1 81.8 38.1 88.4 37.6 88.6 37.6 82.1 38.1 81.8"/>
      <polygon class="st67" points="37.6 81.7 37.6 88.6 37.2 88.4 37.2 81.4 37.6 81.7"/>
      <polygon class="st67" points="40.7 80.1 40.7 86.8 40.3 86.6 40.3 79.8 40.7 80.1"/>
      <polygon class="st71" points="41.2 79.6 41.2 86.6 40.7 86.8 40.7 79.9 41.2 79.6"/>
      <polygon class="st62" points="37.2 81.4 40.8 79.4 41.2 79.6 37.6 81.7 37.2 81.4"/>
      <polygon class="st71" points="37.6 81.7 41.2 79.6 41.2 80.1 37.6 82.1 37.6 81.7"/>
    </g>
  </g>
  <polygon class="st9" points="23.3 83.6 22.6 80.5 25.9 84.3 38.1 89.4 39.2 92.9 38.1 98 37.6 98.4 22.4 89.1 23.3 83.6"/>
  <g>
    <polygon class="st66" points="22.3 80.9 25.6 84.7 26.4 89 23 84 22.3 80.9"/>
    <polygon class="st37" points="25.6 84.7 26.4 89 38.7 93.4 37.8 89.8 25.6 84.7"/>
    <polygon class="st52" points="23 84 26.4 89 25.4 94.6 22.1 89.5 23 84"/>
    <polygon class="st49" points="26.4 89 25.4 94.6 37.6 98.4 38.7 93.4 26.4 89"/>
  </g>
  <polygon class="st20" points="26.3 82.1 26.3 82.8 25.9 83 25.9 82.4 26.3 82.1"/>
  <polygon class="st19" points="35.7 83.8 35.2 84.1 26.3 78.9 26.8 78.7 35.7 83.8"/>
  <polygon class="st6" points="22.6 80.5 22.3 80.9 25.6 84.7 37.8 89.8 38.1 89.4 25.9 84.3 22.6 80.5"/>
  <g>
    <path class="st53" d="M35.7,69.1c.4-.2.8,0,.9.6.1.5,0,1-.4,1.2-.4.2-.8,0-.9-.6-.1-.5,0-1,.4-1.2Z"/>
    <path class="st23" d="M35.6,69.2c-.1.2-.2.5,0,.8.1.5.5.7.9.6,0,0,0,0,.1,0,0,.2-.2.3-.3.4-.4.2-.8,0-.9-.6-.1-.4,0-.9.3-1.1Z"/>
  </g>
  <g>
    <path class="st53" d="M32.1,67.1c.2,0,.4.6.4,1.1,0,.6,0,1-.2.9-.2,0-.4-.6-.4-1.1,0-.6,0-1,.2-.9Z"/>
    <path class="st23" d="M32.1,67.1c0,.2,0,.4,0,.7,0,.6.2,1.1.4,1.1,0,0,0,0,0,0,0,.1,0,.2-.2.1-.2,0-.4-.6-.4-1.1,0-.5,0-.8.2-.9Z"/>
  </g>
  <g>
    <path class="st25" d="M32.5,83.9v.9c0,.2,0,.3.2.4l1.6.9c.1,0,.3,0,.3-.2h0c0-.1-1.3-.9-1.3-.9-.1,0-.2-.2-.2-.4v-.8s-.3-.1-.3-.1c-.1,0-.3,0-.3.2Z"/>
    <g>
      <path class="st11" d="M33,83.9v.8s0,0,0,0c0,.1.1.3.2.3l1.3.7v-.8c0,0,0-.1,0-.2,0-.1-.1-.2-.2-.3l-1.3-.7Z"/>
      <path class="st11" d="M33,84.8c0,.1.1.3.2.3l1.3.7v-.2s-.8-.8-.8-.8h-.8Z"/>
      <path class="st57" d="M33,83.9h0c0,.1.8,1,.8,1h.8c0,0-.1-.2-.2-.2l-1.3-.7Z"/>
    </g>
  </g>
  <g>
    <path class="st25" d="M26.8,80.7v.9c0,.2,0,.3.2.4l1.6.9c.1,0,.3,0,.3-.2h0c0-.1-1.3-.9-1.3-.9-.1,0-.2-.2-.2-.4v-.8s-.3-.1-.3-.1c-.1,0-.3,0-.3.2Z"/>
    <g>
      <path class="st11" d="M27.4,80.7v.8s0,0,0,0c0,.1.1.3.2.3l1.3.7v-.8c0,0,0-.1,0-.2,0-.1-.1-.2-.2-.3l-1.3-.7Z"/>
      <path class="st11" d="M27.4,81.6c0,.1.1.3.2.3l1.3.7v-.2s-.8-.8-.8-.8h-.8Z"/>
      <path class="st57" d="M27.4,80.7h0c0,.1.8,1,.8,1h.8c0,0-.1-.2-.2-.2l-1.3-.7Z"/>
    </g>
  </g>
  <path class="st61" d="M70,58.7v8c0,.5.5.7.9.5l2.7-1.6c.5-.3.7-.8.7-1.3v-8c0-.5-.5-.7-.9-.5l-2.7,1.6c-.5.3-.7.8-.7,1.3ZM70.2,58.7c0-.5.2-.9.6-1.1l2.7-1.6c0,0,.1,0,.2,0,.2,0,.4.2.4.4v8c0,.5-.2.9-.6,1.1l-2.7,1.6c0,0-.1,0-.2,0-.2,0-.4-.2-.4-.4v-8Z"/>
</svg>