<?xml version="1.0" encoding="UTF-8"?>
<svg id="b1b10f1e-dfb6-4f89-9500-aacc97969278" xmlns="http://www.w3.org/2000/svg" viewBox="0 0 2322.94 1501.86">
  <defs>
    <style>
      .cls-1 {
        fill: #fff;
      }
    </style>
  </defs>
  <path class="cls-1" d="M1241.57,866.17c-1.45-3.47-4.86-5.73-8.62-5.71h-90.23c-64.71,0-137.47-.9-144.41-1.57-2.58-.32-4.4-2.67-4.08-5.25.1-.77.38-1.5.83-2.14,56.63-79.49,86.57-174.89,85.53-272.48,0-271.47-212.7-470.18-498.5-470.18S83.69,308.34,83.69,578.69s212.7,470.18,498.39,470.18c83.39.8,165.84-17.54,241.02-53.62,2.4-1,5.1-1,7.5,0,65.62,25.83,135.58,38.86,206.1,38.4h260.28c5.19-.07,9.35-4.33,9.28-9.52-.01-1.15-.24-2.28-.66-3.35l-64.03-154.6ZM797.69,757.58c-25.84-31.33-44.32-68.05-54.07-107.47-.99-4.14-4.7-7.06-8.96-7.05h-174.86c-5.19.02-9.38,4.26-9.36,9.45,0,.36.02.72.07,1.07,10.66,72.17,40.03,140.29,85.19,197.59,3.15,4.05,2.42,9.89-1.63,13.04-1.25.97-2.73,1.61-4.3,1.85-15.78,2.39-31.73,3.59-47.69,3.58-162.77,0-285.02-118.22-285.02-291.07s122.25-291.07,285.02-291.07,284.91,118.22,284.91,291.07c1.21,63.76-17.88,126.25-54.52,178.45-3.05,4.2-8.93,5.13-13.13,2.08-.61-.44-1.16-.95-1.64-1.52Z"/>
  <path class="cls-1" d="M1737.05,124.07h-440.4c-5.13,0-9.28,4.18-9.27,9.31,0,1.26.26,2.52.77,3.68l228.04,520.78c2.06,4.7,7.54,6.84,12.24,4.77,3.36-1.48,5.54-4.79,5.56-8.47v-348.05c0-5.13,4.16-9.29,9.29-9.29h183.6c180.8,0,299.24,107.81,299.24,281.89s-118.66,281.89-299.24,281.89h-107.58c-5.13,0-9.28,4.18-9.27,9.31,0,1.26.26,2.52.77,3.68l67.17,154.15c1.49,3.37,4.82,5.56,8.51,5.6h50.49c298.01,0,502.31-179.12,502.31-454.62s-204.19-454.62-502.2-454.62Z"/>
  <path class="cls-1" d="M1203.84,124.07h-180.46c-5.13,0-9.29,4.16-9.29,9.29,0,1.19.23,2.37.67,3.47l205.42,494.92c1.42,3.63-.36,7.72-3.99,9.14-.8.31-1.65.48-2.5.49h-64.48c-4.7-.03-8.66,3.5-9.18,8.17-5.95,47.83-18.58,94.6-37.5,138.93-1.73,4.83.78,10.15,5.61,11.88.97.35,1.98.53,3.01.54h173.07c3.76-.02,7.17,2.24,8.62,5.71l20.6,50.26,70.86,170.94c1.45,3.47,4.86,5.73,8.62,5.71h200.83c5.13,0,9.28-4.18,9.27-9.31,0-1.26-.26-2.52-.77-3.68l-320.17-731.25-70.19-160.09c-1.53-3.07-4.63-5.05-8.06-5.15Z"/>
  <path class="cls-1" d="M865.76,1216.68l-56.87,172.96h-42.88l-38.17-117.1-39.41,117.1h-42.76l-56.98-172.96h41.64l39.07,121.58,40.86-121.58h37.17l39.63,122.47,40.3-122.47h38.4Z"/>
  <path class="cls-1" d="M919.38,1303.11c0-51.38,40.19-89.56,94.93-89.56s94.82,37.84,94.82,89.56-40.41,89.56-94.82,89.56-94.93-38.17-94.93-89.56ZM1068.5,1303.11c-.93-29.97-25.98-53.52-55.95-52.59-29.97.93-53.52,25.98-52.59,55.95.91,29.35,24.99,52.66,54.35,52.62,29.17.79,53.46-22.21,54.26-51.38.04-1.53.02-3.06-.07-4.59Z"/>
  <path class="cls-1" d="M1296.31,1389.64l-33.58-48.25h-36.83v48.25h-40.08v-172.96h75.12c46.23,0,75.23,23.96,75.23,62.69,1.04,23.98-13.32,45.96-35.71,54.63l38.96,55.97-43.1-.34ZM1258.7,1249.26h-32.69v60.34h32.69c24.52,0,36.83-11.19,36.83-30.23s-12.31-30.11-36.83-30.11Z"/>
  <path class="cls-1" d="M1477.78,1321.69l-23.29,24.18v43.77h-39.85v-172.96h39.85v80.71l76.8-80.71h44.78l-71.98,76.8,75.9,95.94h-46.68l-55.53-67.73Z"/>
  <path class="cls-1" d="M1633.39,1372.63l13.55-30.23c16.91,11.72,36.96,18.08,57.54,18.25,23.85,0,33.58-7.84,33.58-18.47,0-32.35-100.75-10.19-100.75-74.45,0-29.33,23.73-53.85,72.99-53.85,21.09-.4,41.9,4.9,60.23,15.34l-12.87,30.67c-14.56-8.63-31.11-13.34-48.03-13.66-23.73,0-32.91,8.96-32.91,19.81,0,31.91,100.75,9.85,100.75,73.33,0,28.99-23.96,53.62-73.55,53.62-25.02.45-49.6-6.65-70.53-20.37Z"/>
</svg>