<?xml version="1.0" encoding="UTF-8"?>
<svg xmlns="http://www.w3.org/2000/svg" version="1.1" xmlns:xlink="http://www.w3.org/1999/xlink" viewBox="0 0 875.8 1018.8">
  <!-- Generator: Adobe Illustrator 29.3.1, SVG Export Plug-In . SVG Version: 2.1.0 Build 151)  -->
  <defs>
    <style>
      .st0 {
        fill: #bfc8d9;
        opacity: .8;
      }

      .st1 {
        fill: #c3cbdc;
        opacity: .7;
      }

      .st2, .st3, .st4 {
        clip-rule: evenodd;
      }

      .st2, .st5 {
        fill: #244267;
      }

      .st6, .st7, .st8, .st9, .st10, .st11, .st12, .st13, .st14, .st5, .st15, .st16, .st17 {
        fill-rule: evenodd;
      }

      .st6, .st3 {
        fill: #fed1a5;
      }

      .st18 {
        fill: url(#linear-gradient2);
      }

      .st19 {
        fill: #eceef3;
        opacity: .2;
      }

      .st20 {
        fill: #e0e3eb;
        opacity: .4;
      }

      .st21 {
        fill: #f4f5f8;
        opacity: 0;
      }

      .st7 {
        fill: #26130f;
      }

      .st22 {
        fill: #d1d7e3;
        opacity: .5;
      }

      .st23 {
        fill: #fbfbfc;
        opacity: 0;
      }

      .st8 {
        fill: #27120f;
      }

      .st24 {
        fill: #b3bfd3;
        opacity: 1;
      }

      .st9, .st4 {
        fill: #92a6cd;
      }

      .st25 {
        fill: url(#linear-gradient1);
      }

      .st10 {
        fill: #253c7a;
      }

      .st11 {
        fill: #818181;
        opacity: .4;
      }

      .st11, .st26 {
        mix-blend-mode: multiply;
      }

      .st27, .st15 {
        fill: #f1b986;
      }

      .st28 {
        fill: #e7e9f0;
        opacity: .3;
      }

      .st29 {
        fill: #cfd5e2;
        opacity: .6;
      }

      .st30 {
        fill: #eff0f7;
      }

      .st31 {
        fill: #d8dde7;
        opacity: .5;
      }

      .st32 {
        fill: #d6dbe6;
        opacity: .5;
      }

      .st33 {
        fill: #bcc6d8;
        opacity: .8;
      }

      .st34 {
        fill: #ffcc04;
      }

      .st35 {
        fill: #fff;
        opacity: 0;
      }

      .st36 {
        clip-path: url(#clippath-1);
      }

      .st37 {
        fill: #ccd3e1;
        opacity: .6;
      }

      .st12 {
        fill: #462d1b;
      }

      .st38 {
        fill: #dde1ea;
        opacity: .4;
      }

      .st39 {
        isolation: isolate;
      }

      .st40 {
        fill: #c2c2c2;
      }

      .st41 {
        fill: #f8fbfe;
      }

      .st42 {
        fill: #eaecf1;
        opacity: .2;
      }

      .st43 {
        fill: #b8c2d5;
        opacity: .9;
      }

      .st44 {
        clip-path: url(#clippath-3);
      }

      .st45 {
        fill: #c5cddd;
        opacity: .7;
      }

      .st46 {
        fill: #cbd5e4;
      }

      .st47 {
        fill: #c8cfde;
        opacity: .7;
      }

      .st48 {
        fill: #eff0f4;
        opacity: .2;
      }

      .st49 {
        fill: #b3bfd0;
      }

      .st13 {
        fill: #7387be;
      }

      .st50 {
        fill: #dbdfe9;
        opacity: .4;
      }

      .st51 {
        fill: #bac4d7;
        opacity: .9;
      }

      .st52 {
        fill: #b1bdd2;
      }

      .st53 {
        fill: #cad1df;
        opacity: .6;
      }

      .st14 {
        fill: #010101;
      }

      .st54 {
        fill: #ffdb7c;
      }

      .st55 {
        fill: #c1cada;
        opacity: .8;
      }

      .st56 {
        fill: #f1f2f6;
        opacity: .1;
      }

      .st57 {
        fill: #f7f8fa;
        opacity: 0;
      }

      .st58 {
        fill: #e2e5ed;
        opacity: .3;
      }

      .st59 {
        fill: #d4d9e5;
        opacity: .5;
      }

      .st60 {
        clip-path: url(#clippath-2);
      }

      .st61 {
        fill: #e5e7ee;
        opacity: .3;
      }

      .st62 {
        fill: url(#linear-gradient);
      }

      .st63 {
        fill: #f9b31d;
      }

      .st16 {
        fill: #637fb5;
      }

      .st64 {
        clip-path: url(#clippath);
      }

      .st65 {
        fill: #07b7bf;
      }

      .st17 {
        fill: #10223c;
      }

      .st66 {
        fill: #b6c0d4;
        opacity: .9;
      }
    </style>
    <linearGradient id="linear-gradient" x1="7176.8" y1="810.1" x2="7253.5" y2="679.1" gradientTransform="translate(7629) rotate(-180) scale(1 -1)" gradientUnits="userSpaceOnUse">
      <stop offset="0" stop-color="#dbe5f5"/>
      <stop offset="0" stop-color="#dfe8f6"/>
      <stop offset="0" stop-color="#edf2f9"/>
      <stop offset="0" stop-color="#f2f5fa"/>
      <stop offset=".2" stop-color="#ecf0f7"/>
      <stop offset=".3" stop-color="#dce3ee"/>
      <stop offset=".5" stop-color="#c3cee1"/>
      <stop offset=".6" stop-color="#d8dfeb"/>
      <stop offset=".7" stop-color="#edf0f6"/>
      <stop offset=".9" stop-color="#fafbfc"/>
      <stop offset="1" stop-color="#fff"/>
    </linearGradient>
    <linearGradient id="linear-gradient1" x1="6944.6" y1="661.2" x2="7569" y2="661.2" gradientTransform="translate(7629) rotate(-180) scale(1 -1)" gradientUnits="userSpaceOnUse">
      <stop offset="0" stop-color="#d9dfeb"/>
      <stop offset="1" stop-color="#ebedf6"/>
    </linearGradient>
    <linearGradient id="linear-gradient2" x1="6959.2" y1="417" x2="7584.8" y2="417" gradientTransform="translate(7629) rotate(-180) scale(1 -1)" gradientUnits="userSpaceOnUse">
      <stop offset="0" stop-color="#ebedf6"/>
      <stop offset="1" stop-color="#d9dfeb"/>
    </linearGradient>
    <clipPath id="clippath">
      <path class="st2" d="M736.6,671.8c-1.1,52.7-1.7,105.4,6.3,157,0,0,0,72.5,0,72.5,11.1,20.1,20.9,20.2,30.1,12.8,6.2-38.8,7.4-77.4,1.4-116.3,9.2-70.9,35.6-101-32.5-155.9l-5.3,29.9h0Z"/>
    </clipPath>
    <clipPath id="clippath-1">
      <path class="st2" d="M699.7,683.9c-1.1,52.7-1.7,105.4,6.3,157,0,0,0,72.5,0,72.5,11.1,20.1,20.9,20.2,30.1,12.8,6.2-38.8,7.4-77.4,1.4-116.3l14.7-58s19.3-30.4,2.5-53.8c-16.7-23.3-28.9-11.7-28.9-11.7l-26.2-2.6h0Z"/>
    </clipPath>
    <clipPath id="clippath-2">
      <path class="st4" d="M696.3,721.2c29.4,32.7,69.1,16,95-15.4-18.1-52.3-2.8-76.4,8.2-130-4.1-46.8-51.8-15-71.1,0-14.9,8.8-24.9,18.3-22.8,29.3l-9.4,116h0Z"/>
    </clipPath>
    <clipPath id="clippath-3">
      <path class="st3" d="M732.7,570.2s3.8-16.1-7.7-19.9c-10.9-9.8-10.3-43.1,2.3-59.2l42.1,24.2-6.3,29c-.9,6.2,1.3,12.1-5.1,16.2l-25.3,9.7h0Z"/>
    </clipPath>
  </defs>
  <g class="st39">
    <g id="Layer_2">
      <g id="Monitor">
        <g class="st26">
          <path class="st35" d="M450.4,725.4c-8.6-5-22.5-5-31,0l-120.4,70.3c-8.5,5-8.5,13.1.1,18.1l77.6,45.2c8.6,5,22.5,5,31,0l120.4-70.3c8.5-5,8.5-13.1-.1-18.1l-77.6-45.2Z"/>
          <path class="st23" d="M450.9,725.8c-8.5-5-22.3-5-30.8,0l-119.3,69.6c-8.4,5-8.4,13,0,18l76.5,44.5c8.5,5,22.3,5,30.8,0l119.3-69.6c8.5-5,8.4-13-.1-18l-76.5-44.5Z"/>
          <path class="st57" d="M451.3,726.1c-8.5-4.9-22.1-4.9-30.5,0l-118.2,69c-8.4,4.9-8.4,12.9,0,17.8l75.4,43.9c8.5,4.9,22.1,4.9,30.5,0l118.2-69c8.4-4.9,8.4-12.9,0-17.8l-75.4-43.9Z"/>
          <path class="st21" d="M451.8,726.4c-8.4-4.9-21.9-4.9-30.3,0l-117.2,68.3c-8.3,4.9-8.3,12.8,0,17.7l74.3,43.2c8.4,4.9,22,4.9,30.3,0l117.2-68.3c8.3-4.9,8.3-12.8,0-17.7l-74.3-43.2Z"/>
          <path class="st56" d="M452.3,726.8c-8.3-4.8-21.7-4.8-30,0l-116.1,67.7c-8.2,4.8-8.2,12.7,0,17.5l73.2,42.6c8.3,4.8,21.8,4.8,30,0l116.1-67.7c8.3-4.8,8.2-12.7,0-17.5l-73.2-42.6Z"/>
          <path class="st48" d="M452.8,727.1c-8.3-4.8-21.6-4.8-29.8,0l-115,67c-8.2,4.8-8.2,12.6,0,17.4l72.1,41.9c8.3,4.8,21.6,4.8,29.8,0l115-67c8.2-4.8,8.2-12.6,0-17.4l-72.1-41.9Z"/>
          <path class="st19" d="M453.3,727.4c-8.2-4.8-21.4-4.8-29.5,0l-113.9,66.4c-8.1,4.7-8.1,12.5,0,17.2l71,41.3c8.2,4.8,21.4,4.7,29.5,0l113.9-66.4c8.1-4.8,8.1-12.5,0-17.2l-71-41.3Z"/>
          <path class="st42" d="M453.7,727.8c-8.1-4.7-21.2-4.7-29.3,0l-112.8,65.7c-8,4.7-8,12.4,0,17.1l69.9,40.6c8.1,4.7,21.2,4.7,29.3,0l112.8-65.7c8.1-4.7,8-12.4,0-17.1l-69.9-40.6Z"/>
          <path class="st28" d="M454.2,728.1c-8.1-4.7-21-4.7-29,0l-111.7,65.1c-8,4.7-8,12.3,0,16.9l68.8,40c8.1,4.7,21.1,4.7,29,0l111.7-65.1c8-4.7,8-12.3,0-16.9l-68.8-40Z"/>
          <path class="st61" d="M454.7,728.5c-8-4.6-20.9-4.6-28.8,0l-110.6,64.4c-7.9,4.6-7.9,12.1,0,16.8l67.7,39.3c8,4.6,20.9,4.6,28.8,0l110.6-64.4c7.9-4.6,7.9-12.1,0-16.8l-67.7-39.3Z"/>
          <path class="st58" d="M455.2,728.8c-7.9-4.6-20.7-4.6-28.5,0l-109.6,63.8c-7.8,4.6-7.8,12,0,16.6l66.6,38.6c7.9,4.6,20.7,4.6,28.5,0l109.6-63.8c7.9-4.6,7.8-12,0-16.6l-66.6-38.6Z"/>
          <path class="st20" d="M455.7,729.1c-7.8-4.6-20.5-4.6-28.3,0l-108.5,63.1c-7.8,4.5-7.8,11.9,0,16.5l65.5,38c7.8,4.6,20.5,4.5,28.3,0l108.5-63.1c7.8-4.6,7.8-11.9,0-16.5l-65.5-38Z"/>
          <path class="st38" d="M456.2,729.5c-7.8-4.5-20.3-4.5-28,0l-107.4,62.4c-7.7,4.5-7.7,11.8,0,16.3l64.4,37.3c7.8,4.5,20.3,4.5,28,0l107.4-62.4c7.7-4.5,7.7-11.8,0-16.3l-64.4-37.3Z"/>
          <path class="st50" d="M456.6,729.8c-7.7-4.5-20.1-4.5-27.8,0l-106.3,61.8c-7.6,4.5-7.6,11.7,0,16.2l63.4,36.7c7.7,4.5,20.2,4.5,27.8,0l106.3-61.8c7.7-4.5,7.6-11.7,0-16.2l-63.4-36.7Z"/>
          <path class="st31" d="M457.1,730.1c-7.6-4.4-20-4.4-27.6,0l-105.2,61.1c-7.6,4.4-7.6,11.6,0,16l62.3,36c7.6,4.4,20,4.4,27.6,0l105.2-61.1c7.6-4.4,7.6-11.6,0-16l-62.3-36Z"/>
          <path class="st32" d="M457.6,730.5c-7.6-4.4-19.8-4.4-27.3,0l-104.1,60.5c-7.5,4.4-7.5,11.5,0,15.9l61.2,35.4c7.6,4.4,19.8,4.4,27.3,0l104.1-60.5c7.5-4.4,7.5-11.5,0-15.9l-61.2-35.4Z"/>
          <path class="st59" d="M458.1,730.8c-7.5-4.4-19.6-4.4-27.1,0l-103,59.8c-7.4,4.3-7.4,11.4,0,15.8l60.1,34.7c7.5,4.4,19.6,4.3,27.1,0l103-59.8c7.5-4.4,7.4-11.4,0-15.8l-60.1-34.7Z"/>
          <path class="st22" d="M458.6,731.1c-7.4-4.3-19.4-4.3-26.8,0l-101.9,59.2c-7.4,4.3-7.3,11.3,0,15.6l59,34.1c7.4,4.3,19.5,4.3,26.8,0l101.9-59.2c7.4-4.3,7.3-11.3,0-15.6l-59-34.1Z"/>
          <path class="st29" d="M459,731.5c-7.4-4.3-19.2-4.3-26.6,0l-100.9,58.5c-7.3,4.3-7.3,11.2,0,15.5l57.9,33.4c7.4,4.3,19.3,4.3,26.6,0l100.9-58.5c7.3-4.3,7.3-11.2,0-15.5l-57.9-33.4Z"/>
          <path class="st37" d="M459.5,731.8c-7.3-4.2-19.1-4.2-26.3,0l-99.8,57.9c-7.2,4.2-7.2,11.1,0,15.3l56.8,32.8c7.3,4.2,19.1,4.2,26.3,0l99.8-57.9c7.3-4.2,7.2-11.1,0-15.3l-56.8-32.8Z"/>
          <path class="st53" d="M460,732.2c-7.2-4.2-18.9-4.2-26.1,0l-98.7,57.2c-7.2,4.2-7.1,11,0,15.2l55.7,32.1c7.2,4.2,18.9,4.2,26.1,0l98.7-57.2c7.2-4.2,7.1-11,0-15.2l-55.7-32.1Z"/>
          <path class="st47" d="M460.5,732.5c-7.2-4.1-18.7-4.1-25.8,0l-97.6,56.6c-7.1,4.1-7.1,10.9,0,15l54.6,31.4c7.2,4.1,18.7,4.1,25.8,0l97.6-56.6c7.1-4.1,7.1-10.9,0-15l-54.6-31.4Z"/>
          <path class="st45" d="M461,732.8c-7.1-4.1-18.5-4.1-25.6,0l-96.5,55.9c-7,4.1-7,10.8,0,14.9l53.5,30.8c7.1,4.1,18.6,4.1,25.6,0l96.5-55.9c7-4.1,7-10.8,0-14.9l-53.5-30.8Z"/>
          <path class="st1" d="M461.5,733.2c-7-4.1-18.3-4.1-25.3,0l-95.4,55.2c-7,4.1-6.9,10.6,0,14.7l52.4,30.1c7,4.1,18.4,4.1,25.3,0l95.4-55.2c7-4.1,6.9-10.6,0-14.7l-52.4-30.1Z"/>
          <path class="st55" d="M461.9,733.5c-7-4-18.2-4-25.1,0l-94.3,54.6c-6.9,4-6.9,10.5,0,14.6l51.3,29.5c7,4,18.2,4,25.1,0l94.3-54.6c6.9-4,6.9-10.5,0-14.6l-51.3-29.5Z"/>
          <path class="st0" d="M462.4,733.8c-6.9-4-18-4-24.8,0l-93.3,53.9c-6.8,4-6.8,10.4,0,14.4l50.2,28.8c6.9,4,18,4,24.8,0l93.3-53.9c6.8-4,6.8-10.4,0-14.4l-50.2-28.8Z"/>
          <path class="st33" d="M462.9,734.2c-6.8-3.9-17.8-3.9-24.6,0l-92.2,53.3c-6.7,3.9-6.7,10.3,0,14.3l49.1,28.2c6.8,3.9,17.8,3.9,24.6,0l92.2-53.3c6.8-3.9,6.7-10.3,0-14.3l-49.1-28.2Z"/>
          <path class="st51" d="M463.4,734.5c-6.8-3.9-17.6-3.9-24.3,0l-91.1,52.6c-6.7,3.9-6.7,10.2,0,14.1l48,27.5c6.8,3.9,17.7,3.9,24.3,0l91.1-52.6c6.7-3.9,6.7-10.2,0-14.1l-48-27.5Z"/>
          <path class="st43" d="M463.9,734.8c-6.7-3.9-17.5-3.9-24.1,0l-90,52c-6.6,3.8-6.6,10.1,0,14l46.9,26.9c6.7,3.9,17.5,3.8,24.1,0l90-52c6.6-3.9,6.6-10.1,0-14l-46.9-26.9Z"/>
          <path class="st66" d="M464.3,735.2c-6.6-3.8-17.3-3.8-23.8,0l-88.9,51.3c-6.5,3.8-6.5,10,0,13.8l45.9,26.2c6.6,3.8,17.3,3.8,23.8,0l88.9-51.3c6.6-3.8,6.5-10,0-13.8l-45.9-26.2Z"/>
          <path class="st24" d="M464.8,735.5c-6.5-3.8-17.1-3.8-23.6,0l-87.8,50.7c-6.5,3.8-6.5,9.9,0,13.7l44.8,25.6c6.5,3.8,17.1,3.8,23.6,0l87.8-50.7c6.5-3.8,6.5-9.9,0-13.7l-44.8-25.6Z"/>
          <path class="st52" d="M465.3,735.8c-6.5-3.7-16.9-3.7-23.4,0l-86.7,50c-6.4,3.7-6.4,9.8,0,13.5l43.7,24.9c6.5,3.7,16.9,3.7,23.4,0l86.7-50c6.4-3.7,6.4-9.8,0-13.5l-43.7-24.9Z"/>
        </g>
        <path class="st46" d="M60.1,861.5v-49.1c-.1,0-15.5-8.9-15.5-8.9v49.1c.2,4,1.6,6.8,3.8,8.1l15.3,8.9c-2.3-1.3-3.7-4.1-3.7-8.1Z"/>
        <polygon class="st40" points="59.9 812.4 44.6 803.5 668.9 443.1 684.2 452 59.9 812.4"/>
        <g>
          <path class="st62" d="M336.3,771.1c0,4.7,1.6,9.9,4.3,14.5,2.7,4.6,6.4,8.6,10.5,11l57,32.9c1.2.7,2.2,2.5,2.2,3.9s-.3,1.2-.6,1.5l111.5-64.8c.4-.3.6-.7.6-1.5,0-1.4-1-3.2-2.2-3.9l-57-32.9c-4.1-2.4-7.8-6.4-10.5-11-2.7-4.6-4.3-9.8-4.3-14.5l.2-69.5-111.5,64.8-.2,69.5Z"/>
          <path class="st41" d="M444.1,632.8c.4-.2,1-.2,1.6.2,1.2.7,2.2,2.4,2.2,3.9l-111.5,64.8c0-1.4-1-3.2-2.2-3.9-.6-.4-1.2-.4-1.6-.2l111.5-64.8Z"/>
          <path class="st49" d="M334.3,697.7c-1.2-.7-2.2-.2-2.2,1.3l-.2,69.5c0,12.2,8.6,27.1,19.2,33.2l57,32.9c1.2.7,2.2.2,2.2-1.3,0-1.4-1-3.2-2.2-3.9l-57-32.9c-4.1-2.4-7.8-6.4-10.4-11-2.7-4.6-4.3-9.8-4.3-14.5l.2-69.5c0-1.4-1-3.2-2.2-3.9Z"/>
        </g>
        <path class="st25" d="M684.2,452v49.1c.2,8-5.5,17.7-12.4,21.7l-246.2,142.1-106.7,61.6-246.2,142.1c-6.9,4-12.6.8-12.6-7.2v-49.1c-.1,0,624.1-360.4,624.1-360.4Z"/>
        <polygon class="st65" points="84.8 397.2 69.5 388.3 643 57.2 658.3 66.1 84.8 397.2"/>
        <path class="st30" d="M670.4,32.2c6.9-4,12.6-.8,12.6,7.2l1.2,412.6L59.9,812.4l-1.2-412.6c0-8,5.6-17.7,12.5-21.7L670.4,32.2Z"/>
        <path class="st18" d="M664,22.4c-2.3-1.3-5.5-1.1-9,.9L56,369.2c-6.9,4-12.6,13.7-12.5,21.7l1.2,412.6,15.3,8.9-1.2-412.6c0-8,5.6-17.7,12.5-21.7L670.4,32.2c3.5-2,6.7-2.2,9-.9l-15.3-8.9Z"/>
      </g>
      <g>
        <g>
          <path class="st11" d="M766.8,947.9c-24.3,14-63.6,14-87.9,0-24.3-14-24.3-36.7,0-50.8,24.3-14,63.6-14,87.9,0,24.3,14,24.3,36.7,0,50.8Z"/>
          <g>
            <path class="st7" d="M735.8,929.7v6.8c-1.4,8-14.4,3.7-20.2,3.7v-1.7c-11.1-1.8-31.8-2.2-36.6-11.1,0,0,.2-4.8.2-4.8l56.6,7.1Z"/>
            <path class="st12" d="M714.8,935.3c-9.7-.8-31.6-1.6-35.6-11.4-.9-2,.9-4.6,4.3-5.4,10.6-1.4,18.5,1,27.3-6.3l23.3,2.6c5.4,17.9,3,25.4-19.3,20.5h0Z"/>
            <path class="st8" d="M771.7,922.3c1.6,7.8-5,9.6-15.1,9.1-4.9-1.5-9-4-12.8-6.8l.6-2c-7.5-6.1-35.4-11.6-27.9-23.3l52.9,15.9,2.3,7.1h0Z"/>
            <path class="st12" d="M771.7,909.2c4.6,15.1-2.4,22.2-20.2,16.2,0,0-10.2-7.1-10.2-7.1-8.9-4.3-20.3-8-26.2-16.8.2-4.8,2.8-7.4,5.7-6.8,10.3.5,19.6,2.8,29,3.4l21.9,11.1Z"/>
            <g>
              <path class="st5" d="M736.6,671.8c-1.1,52.7-1.7,105.4,6.3,157,0,0,0,72.5,0,72.5,11.1,20.1,20.9,20.2,30.1,12.8,6.2-38.8,7.4-77.4,1.4-116.3,9.2-70.9,35.6-101-32.5-155.9l-5.3,29.9h0Z"/>
              <g class="st64">
                <path class="st17" d="M770.8,653.2c6.6,27.7,7.4,53.9-1.5,77.7,0,0-1.3,6.8-3.1,16.1-13.1,61.8,3,139.8-13.9,196,0,0-46-24.6-41.8-24.4,40.2,2,25.4-292.4,25.4-292.4l24.2,24.5,10.6,2.5Z"/>
              </g>
            </g>
            <g>
              <path class="st5" d="M699.7,683.9c-1.1,52.7-1.7,105.4,6.3,157,0,0,0,72.5,0,72.5,11.1,20.1,20.9,20.2,30.1,12.8,6.2-38.8,7.4-77.4,1.4-116.3l14.7-58s19.3-30.4,2.5-53.8c-16.7-23.3-28.9-11.7-28.9-11.7l-26.2-2.6h0Z"/>
              <g class="st36">
                <path class="st17" d="M731.3,643.5c8.6,52.3.6,113.5-11.4,164.7,0,0,3.7,148.5,3.7,148.5,0,0-81-22.8-78.2-25.9,2.8-3.1,12.5-244.8,12.5-244.8l65.4-23,8-19.3h0Z"/>
              </g>
            </g>
            <g>
              <path class="st9" d="M696.3,721.2c29.4,32.7,69.1,16,95-15.4-18.1-52.3-2.8-76.4,8.2-130-4.1-46.8-51.8-15-71.1,0-14.9,8.8-24.9,18.3-22.8,29.3l-9.4,116h0Z"/>
              <g class="st60">
                <path class="st16" d="M731.3,759.3c-9.2-24.1-15.5-58.6-10.8-85.5,1.4-10.4,3.2-20.6,5.4-27.4,6.3-19.5,3.1-59.7-11.9-58.6-44.7,77.3-45.2,54.6-49.5,146.5l66.8,25Z"/>
              </g>
            </g>
            <path class="st27" d="M637.3,582.6s-1.1-6.5-3.2-9.6c-2.1-3.1-5.9-10.9-5.9-10.9-1.6-5.5-5.5-15.7,1.7-21.2,5-1.5,7.3,11.5,8,12.3,0,0,2.5,4.5,2.5,4.5,0-2.9-.5-7.4.6-10,1.7-4.2,2.8-2.5,3.2.7,0,5,3.4,9.1,3.8,14-.6,2.9,2.3,11.5,3.3,14.3l-14,5.8h0Z"/>
            <path class="st13" d="M680.4,611.7l-9.3-.2c-9.2-9.7-12-26.2-19-37.9-6.6-.3-12.5.9-17.6,3.9,0,17.4,9,37.1,16.5,52.2,0,0,5.3,11.4,16.4,12.1,11.1.7,9.8-11.2,9.8-11.2l3.2-18.9h0Z"/>
            <path class="st13" d="M724,594.6c9.7,37.3-13.5,48.1-56.4,47.1,0,0-9.4-13.7,3.6-30.4,0,0,9.3-4.2,16.2-7.3,4.8-2.2,9.4-4.9,13.6-8.1,7.8-6.6,16.8-13.9,23-1.3h0Z"/>
            <g>
              <path class="st6" d="M732.7,570.2s3.8-16.1-7.7-19.9c-10.9-9.8-10.3-43.1,2.3-59.2l42.1,24.2-6.3,29c-.9,6.2,1.3,12.1-5.1,16.2l-25.3,9.7h0Z"/>
              <g class="st44">
                <path class="st15" d="M719.9,555.1l5.1-4.8s14,.8,17.3-4.3c0,0-.9,7.4-11.9,11.9l-10.5-2.8h0Z"/>
              </g>
            </g>
            <path class="st14" d="M762.9,492.8c14.1,11.6,17.1,24.1,12.8,37.3-3.4,10.2-14,29.1-27.9,18.5.3-2.7-.3-33.5-13.4-17.9,0,0,.5-8.3-5.4-11.9,0,0-11.4-12.3-10.8-17.6.9-29.2,30.3-20.7,44.7-8.2h0Z"/>
            <path class="st10" d="M730.4,573.8l.9-7.1c12.8-1.8,23.5-6.8,31.9-15.9,13,8.8-14.8,20.7-22.8,21.6-3.6.4-7.1.8-10,1.4h0Z"/>
          </g>
        </g>
        <g>
          <path class="st63" d="M788.2,503s-2.2,10.5-23.7,10.6c-9.8,0-19.9-1.2-29.2-3.9-4.7-1.4-9.3-3-13.8-4.9-6.1-2.6-13.6-6.4-15.8-13.2-1.1-3.3.6-6.5,3.4-8.4,3.1-2.2,7.1-4,10.7-5,3.8-1.1,28.3-2.7,46.1,5.1,17.8,7.8,23.9,12.9,22.3,19.8Z"/>
          <path class="st34" d="M729.1,463.7c11.8-10.2,32-7.8,43.7,1,9.3,7,15.8,18.3,13.8,30.2-.3,1.6-.5,3.8-1.3,5.3,0,0-11.7,18.5-58-.7,0,0-10-4.3-12.8-10.1-.5-1.1-.4-2.3,0-3.4,2.6-5.9,8.9-17.4,14.5-22.2Z"/>
          <path class="st54" d="M729.1,463.7c11.8-10.2,32-7.8,43.7,1,2.6,1.9,4.9,4.2,6.9,6.7-1-1-2.1-1.9-3.2-2.7-11.7-9-31.9-11.2-43.9-.3-5.7,5.1-12.2,17.2-14.9,23.4-.2.4-.3.9-.3,1.4-1.2-1.1-2.2-2.3-2.8-3.6-.5-1.1-.4-2.3,0-3.4,2.6-5.9,8.9-17.4,14.5-22.2Z"/>
        </g>
      </g>
    </g>
  </g>
</svg>