<?xml version="1.0" encoding="UTF-8"?>
<svg xmlns="http://www.w3.org/2000/svg" version="1.1" xmlns:xlink="http://www.w3.org/1999/xlink" viewBox="0 0 825.1 914.6">
  <!-- Generator: Adobe Illustrator 29.3.1, SVG Export Plug-In . SVG Version: 2.1.0 Build 151)  -->
  <defs>
    <style>
      .st0 {
        fill: #7e87a8;
      }

      .st1, .st2, .st3 {
        clip-rule: evenodd;
      }

      .st1, .st4 {
        fill: #244267;
      }

      .st5, .st6, .st7, .st8, .st9, .st10, .st11, .st12, .st13, .st4, .st14, .st15, .st16 {
        fill-rule: evenodd;
      }

      .st5, .st2 {
        fill: #fed1a5;
      }

      .st17 {
        fill: #9fa7b0;
      }

      .st18 {
        clip-path: url(#clippath-6);
      }

      .st19 {
        clip-path: url(#clippath-7);
      }

      .st20 {
        clip-path: url(#clippath-4);
      }

      .st6 {
        fill: #26130f;
      }

      .st7 {
        fill: #27120f;
      }

      .st21 {
        fill: #cfcece;
      }

      .st22 {
        clip-path: url(#clippath-9);
      }

      .st23 {
        clip-path: url(#clippath-10);
      }

      .st24 {
        fill: #949293;
      }

      .st8, .st3 {
        fill: #92a6cd;
      }

      .st25 {
        fill: #fff;
      }

      .st26 {
        fill: #dee8f4;
      }

      .st9 {
        fill: #253c7a;
      }

      .st10 {
        fill: #818181;
        opacity: .4;
      }

      .st10, .st27 {
        mix-blend-mode: multiply;
      }

      .st28, .st14 {
        fill: #f1b986;
      }

      .st29 {
        fill: #72b0e0;
      }

      .st30 {
        clip-path: url(#clippath-11);
      }

      .st31 {
        fill: none;
      }

      .st32 {
        fill: #ffcc04;
      }

      .st33 {
        fill: #bbc6cf;
      }

      .st34 {
        clip-path: url(#clippath-1);
      }

      .st11 {
        fill: #462d1b;
      }

      .st35 {
        isolation: isolate;
      }

      .st36 {
        clip-path: url(#clippath-5);
      }

      .st37 {
        clip-path: url(#clippath-8);
      }

      .st38 {
        clip-path: url(#clippath-3);
      }

      .st39 {
        clip-path: url(#clippath-12);
      }

      .st40 {
        clip-path: url(#clippath-14);
      }

      .st41 {
        fill: #d1dde7;
      }

      .st12 {
        fill: #7387be;
      }

      .st42 {
        fill: #b6b4b5;
      }

      .st43 {
        fill: #919090;
      }

      .st44 {
        fill: #17224d;
      }

      .st13 {
        fill: #010101;
      }

      .st45 {
        fill: #ffdb7c;
      }

      .st46 {
        fill: #ededee;
      }

      .st47 {
        fill: #19b24b;
      }

      .st48 {
        fill: #bfbbbd;
      }

      .st49 {
        fill: #858c92;
      }

      .st50 {
        fill: #ffca3e;
      }

      .st51 {
        fill: #a3a1a2;
      }

      .st52 {
        fill: #9b9a9b;
      }

      .st53 {
        clip-path: url(#clippath-2);
      }

      .st54 {
        fill: #6f7794;
      }

      .st55 {
        clip-path: url(#clippath-13);
      }

      .st56 {
        fill: #adbad4;
      }

      .st57 {
        fill: #f9b31d;
      }

      .st15 {
        fill: #637fb5;
      }

      .st58 {
        clip-path: url(#clippath);
      }

      .st59 {
        fill: #e4e3e3;
      }

      .st60 {
        fill: #6d418d;
      }

      .st16 {
        fill: #10223c;
      }
    </style>
    <clipPath id="clippath">
      <path class="st31" d="M85.3,771.4l16.4,9.5c-5.4-3.1-8.7-9.7-8.7-19.1l-16.4-9.5c0,9.4,3.3,16,8.7,19.1Z"/>
    </clipPath>
    <clipPath id="clippath-1">
      <path class="st31" d="M595.7,36.1l-16.4-9.5c-5.4-3.2-12.9-2.7-21.2,2.1l16.3,9.5c8.3-4.8,15.8-5.2,21.2-2.1Z"/>
    </clipPath>
    <clipPath id="clippath-2">
      <path class="st44" d="M121.6,299.7l-16.4-9.5c-16.5,9.5-29.8,32.6-29.7,51.5l16.4,9.5c0-18.9,13.3-42,29.7-51.5Z"/>
    </clipPath>
    <clipPath id="clippath-3">
      <polygon class="st31" points="307.6 341.1 307.4 292.8 381.6 250 381.8 298.2 307.6 341.1"/>
    </clipPath>
    <clipPath id="clippath-4">
      <polygon class="st31" points="319.1 491.4 318.9 443.2 393.1 400.3 393.2 448.6 319.1 491.4"/>
    </clipPath>
    <clipPath id="clippath-5">
      <polygon class="st31" points="406 277.1 405.9 259.1 560 170.1 560 188.2 406 277.1"/>
    </clipPath>
    <clipPath id="clippath-6">
      <polygon class="st31" points="404.4 252.1 404.3 238.5 527.2 167.5 527.3 181.1 404.4 252.1"/>
    </clipPath>
    <clipPath id="clippath-7">
      <polygon class="st31" points="405.9 299.7 405.8 282.8 501.5 227.6 501.5 244.5 405.9 299.7"/>
    </clipPath>
    <clipPath id="clippath-8">
      <polygon class="st31" points="416.4 424.8 416.4 410.2 479.7 373.7 479.7 388.3 416.4 424.8"/>
    </clipPath>
    <clipPath id="clippath-9">
      <polygon class="st31" points="415.8 403.7 415.8 390.1 538.7 319.2 538.7 332.8 415.8 403.7"/>
    </clipPath>
    <clipPath id="clippath-10">
      <polygon class="st31" points="418.6 448.8 418.6 431.9 514.2 376.7 514.2 393.6 418.6 448.8"/>
    </clipPath>
    <clipPath id="clippath-11">
      <path class="st1" d="M690.5,603c-1,47.2-1.5,94.3,5.6,140.4,0,0,0,64.9,0,64.9,9.9,18,18.7,18.1,27,11.4,5.5-34.7,6.6-69.2,1.3-104,8.2-63.4,31.8-90.3-29.1-139.5l-4.8,26.8h0Z"/>
    </clipPath>
    <clipPath id="clippath-12">
      <path class="st1" d="M657.5,613.9c-1,47.2-1.5,94.3,5.6,140.4,0,0,0,64.9,0,64.9,9.9,18,18.7,18.1,27,11.4,5.5-34.7,6.6-69.2,1.3-104l13.2-51.9s17.2-27.2,2.3-48.1c-15-20.9-25.9-10.4-25.9-10.4l-23.4-2.3h0Z"/>
    </clipPath>
    <clipPath id="clippath-13">
      <path class="st3" d="M654.5,647.2c26.3,29.2,61.8,14.3,85-13.7-16.2-46.8-2.5-68.4,7.3-116.3-3.7-41.8-46.3-13.4-63.6,0-13.3,7.9-22.3,16.4-20.4,26.2l-8.4,103.8h0Z"/>
    </clipPath>
    <clipPath id="clippath-14">
      <path class="st2" d="M687,512.1s3.4-14.4-6.9-17.8c-9.8-8.7-9.2-38.5,2-52.9l37.6,21.6-5.6,25.9c-.8,5.5,1.2,10.8-4.6,14.5l-22.6,8.6h0Z"/>
    </clipPath>
  </defs>
  <g class="st35">
    <g id="Layer_2">
      <g>
        <g>
          <g>
            <g>
              <path class="st52" d="M86,757.8l-16.3-9.5c0,9.4,3.3,16,8.7,19.1l16.4,9.5c-5.4-3.1-8.7-9.7-8.7-19.1h0Z"/>
              <polygon class="st52" points="85.9 720.2 69.5 710.7 69.6 748.3 86 757.8 85.9 720.2"/>
              <path class="st52" d="M588.7,32.1l-16.3-9.5c-5.4-3.2-12.9-2.7-21.2,2.1l16.4,9.5c8.3-4.8,15.8-5.2,21.2-2.1h0Z"/>
              <polygon class="st52" points="84.9 347.2 68.5 337.6 69.5 710.7 85.9 720.2 84.9 347.2"/>
              <polygon class="st52" points="567.5 34.2 551.2 24.7 98.3 286.2 114.6 295.7 567.5 34.2"/>
              <path class="st52" d="M114.6,295.7l-16.3-9.5c-16.5,9.5-29.8,32.6-29.7,51.5l16.4,9.5c0-18.9,13.3-42,29.7-51.5h0Z"/>
            </g>
            <g>
              <g>
                <path class="st48" d="M217.1,749.1l111-64.5c9.1-5.3,20.3-5.3,29.5,0l107.8,62.2,17.7.9v13.4h0c0,2.4-1.2,4.8-3.6,6.2l-122,70.9c-9.1,5.3-20.3,5.3-29.5,0l-121.9-70.4c-2.4-1.4-3.6-3.8-3.6-6.2h0v-13.3l14.5.8Z"/>
                <path class="st21" d="M357.6,671.1l121.9,70.4c4.8,2.7,4.8,9.6,0,12.4l-122,70.9c-9.1,5.3-20.3,5.3-29.5,0l-121.9-70.4c-4.8-2.7-4.8-9.6,0-12.4l122-70.9c9.1-5.3,20.3-5.3,29.5,0Z"/>
                <polygon class="st42" points="234.8 771 382.2 685.3 418.6 492.2 271.2 577.9 234.8 771"/>
                <polygon class="st51" points="387.6 656.8 418.6 492.2 271.2 577.9 240.3 741.8 387.6 656.8"/>
                <path class="st24" d="M265.4,561.4l-38.6,205,8,4.6,36.4-193.1c-3.7-4.3-6.1-10.2-6-15.2,0-.5,0-.9.1-1.3Z"/>
                <path class="st49" d="M415.9,470.5c2-1.2,4.9-1,8,.8l.3.2c6,3.8,10.8,12.4,10.5,19.3,0,3.2-1.3,5.5-3.2,6.6l-147.4,85.6c1.9-1.1,3.1-3.3,3.2-6.6.3-6.8-4.5-15.5-10.5-19.3l-.3-.2c-3.1-1.8-5.9-2-8-.8l147.4-85.6Z"/>
                <path class="st17" d="M276.5,556.9c-5.6-3.2-10.2-1.3-11.1,4.5,0,.4-.1.8-.1,1.3-.1,5,2.3,10.9,6,15.2,1.4,1.6,2.9,3,4.6,4,.2.1.3.2.5.3,5.9,3.4,10.8.8,11-5.8.3-6.8-4.5-15.5-10.5-19.3-.1,0-.2-.1-.3-.2Z"/>
              </g>
              <g>
                <g class="st35">
                  <g class="st35">
                    <g class="st58">
                      <path class="st52" d="M92.9,761.8l-16.4-9.5c0,9.4,3.3,16,8.7,19.1l16.4,9.5c-5.4-3.1-8.7-9.7-8.7-19.1h0Z"/>
                    </g>
                  </g>
                  <polygon class="st52" points="92.8 724.3 76.5 714.8 76.6 752.3 92.9 761.8 92.8 724.3"/>
                  <polygon class="st43" points="605.4 428.4 589 418.9 76.5 714.8 92.8 724.3 605.4 428.4"/>
                  <path class="st59" d="M92.8,724.3v37.5c.2,18.9,13.6,26.6,30,17.1l452.9-261.5c16.5-9.5,29.8-32.6,29.7-51.5v-37.5c-.1,0-512.7,295.9-512.7,295.9Z"/>
                </g>
                <g class="st35">
                  <g class="st35">
                    <g class="st34">
                      <path class="st54" d="M595.7,36.1l-16.4-9.5c-5.4-3.2-12.9-2.7-21.2,2.1l16.3,9.5c8.3-4.8,15.8-5.2,21.2-2.1h0Z"/>
                    </g>
                  </g>
                  <polygon class="st54" points="91.9 351.2 75.5 341.7 76.5 714.8 92.8 724.3 91.9 351.2"/>
                  <polygon class="st54" points="574.5 38.2 558.1 28.7 105.2 290.2 121.6 299.7 574.5 38.2"/>
                  <g class="st35">
                    <path class="st44" d="M121.6,299.7l-16.4-9.5c-16.5,9.5-29.8,32.6-29.7,51.5l16.4,9.5c0-18.9,13.3-42,29.7-51.5Z"/>
                    <g class="st53">
                      <g class="st35">
                        <path class="st54" d="M121.6,299.7l-16.4-9.5c-16.5,9.5-29.8,32.6-29.7,51.5l16.4,9.5c0-18.9,13.3-42,29.7-51.5h0Z"/>
                      </g>
                    </g>
                  </g>
                  <path class="st0" d="M121.6,299.7c-16.5,9.5-29.8,32.6-29.7,51.5l1,373.1,512.6-295.9-1-373.1c0-18.9-13.4-26.6-29.9-17.1L121.6,299.7Z"/>
                </g>
              </g>
            </g>
          </g>
          <path class="st56" d="M595.7,56.9v360.9L101.5,703.1v-354.7c0-14.3,7.6-27.5,20-34.7L581.1,48.4c6.5-3.8,14.7.9,14.7,8.5Z"/>
        </g>
        <g>
          <g class="st27">
            <g>
              <path class="st46" d="M260.7,386.4v190.2l306.9-177c6.3-3.7,11.5-12.5,11.5-19.8v-177l-318.4,183.6Z"/>
              <path class="st46" d="M579.1,74.2c0-7.3-5.1-10.2-11.5-6.5l-306.9,177v165.8l318.4-183.6V74.2Z"/>
            </g>
            <path class="st46" d="M246.2,481.7v-228.5l-121,69.8c-6.3,3.7-11.5,12.5-11.5,19.8v215.3l132.5-76.5Z"/>
            <path class="st46" d="M113.8,648.5c0,7.3,5.1,10.2,11.5,6.5l121-69.8v-128.6l-132.5,76.5v115.5Z"/>
          </g>
          <g>
            <path class="st33" d="M272.2,421.1v162.2l9.2,5.3,297.7-182.3c6.3-3.7,11.5-12.5,11.5-19.8l9.2-143.7-9.2-5.3-318.4,183.6Z"/>
            <path class="st33" d="M596.8,79.1l-9.5-5.5h0c-2.1-1.2-5-1.1-8.2.8l-306.9,177v165.8l9.2,5.3,309.2-188.9V80.9c0-.6,0-1.2-.1-1.7h6.3Z"/>
          </g>
          <path class="st33" d="M257.8,488.3l9.2-223.1-9.2-5.3-121,69.8c-6.3,3.7-11.5,12.5-11.5,19.8v215.3l9.2,5.3,123.2-81.8Z"/>
          <path class="st33" d="M267,496.5l-9.2-5.3-132.5,76.5v87.4c0,3.8,1.4,6.4,3.7,7.5h0s9.3,5.3,9.3,5.3l11.6-13.8,108-62.3,9.2-95.3Z"/>
          <g>
            <path class="st41" d="M281.4,426.4v162.2l306.9-177c6.3-3.7,11.5-12.5,11.5-19.8v-149l-318.4,183.6Z"/>
            <path class="st41" d="M599.8,86.2c0-7.3-5.1-10.2-11.5-6.5l-306.9,177v165.8l318.4-183.6V86.2Z"/>
          </g>
          <g>
            <path class="st41" d="M267,493.7v-228.5l-121,69.8c-6.3,3.7-11.5,12.5-11.5,19.8v215.3l132.5-76.5Z"/>
            <path class="st41" d="M134.6,660.4c0,7.3,5.1,10.2,11.5,6.5l121-69.8v-100.6l-132.5,76.5v87.4Z"/>
            <g>
              <path class="st56" d="M194.9,587.6c0,13.7-9.7,30.4-21.6,37.3-12,6.9-21.6,1.4-21.6-12.3s9.7-30.4,21.6-37.3c12-6.9,21.6-1.4,21.6,12.3Z"/>
              <path class="st56" d="M251.8,542.7l-43.3,25c-1.8,1-3.2,0-3.2-2.4h0c0-2.3,1.4-5.1,3.2-6.1l43.3-25c1.8-1,3.2,0,3.2,2.4h0c0,2.3-1.4,5.1-3.2,6.1Z"/>
              <path class="st56" d="M239.5,570.3l-31,17.9c-1.8,1-3.2,0-3.2-2.4h0c0-2.3,1.4-5.1,3.2-6.1l31-17.9c1.8-1,3.2,0,3.2,2.4h0c0,2.3-1.4,5.1-3.2,6.1Z"/>
            </g>
            <path class="st50" d="M245.4,380.1l-30.1,35.7c1.2,1.9,1.9,4.5,1.9,7.7,0,5.8-2.3,12.2-5.8,17.7l22,17.1c11.3-17.5,17.9-37.5,17.9-54.5s-2-17.6-5.9-23.7Z"/>
            <path class="st29" d="M210.1,443.1c-2.6,3.6-5.8,6.7-9.3,8.7-9.1,5.2-16.4,1-16.4-9.4s7.3-23.1,16.4-28.3c.7-.4,1.4-.7,2.1-1l4.3-41.2c-2.1.9-4.2,2-6.3,3.2-27.7,16-50.5,55.3-50.5,87s22.8,44.7,50.5,28.8c10.2-5.9,20.2-15.2,28.6-26.7l-19.3-21.1Z"/>
            <path class="st25" d="M214.2,414.4l27.9-38.5c-3.4-3.6-7.6-6-12.5-7.1-4.9-1.1-10.3-.8-16,.8l-8.6,42.8c3.8-1.1,7.1-.3,9.3,2.1Z"/>
          </g>
          <g>
            <path class="st26" d="M590.6,248.2v138.3c0,7.3-5.1,16.1-11.5,19.8l-297.7,171.6v10.7l306.9-177c6.3-3.7,11.5-12.5,11.5-19.8v-149l-9.2,5.3Z"/>
            <path class="st26" d="M590.4,78.7c.1.7.2,1.4.2,2.2v152.6l-309.2,178.3v10.7l318.4-183.6V86.2c0-6.5-4.1-9.5-9.4-7.5Z"/>
          </g>
          <polygon class="st26" points="257.8 270.5 257.8 488.3 134.6 559.5 134.6 570.1 267 493.7 267 265.2 257.8 270.5"/>
          <path class="st26" d="M257.8,501.8v90l-121,69.8c-.7.4-1.4.7-2.1,1,.9,5.6,5.6,7.6,11.3,4.4l121-69.8v-100.6l-9.2,5.3Z"/>
        </g>
        <g class="st35">
          <g class="st38">
            <g>
              <path class="st60" d="M318.9,293.2h0s0,0,0,0h0M363.8,268.8c-.3,0-.6.1-.9.2h-.1c0-.4,0-.7,0-1l.2-.3c.3,0,.5,0,.7,0,.2,0,.2.6,0,1M362,269.3c0,0-.2.1-.4.2-1.5.6-3,1.3-4.5,2-.5.2-.5.2-.5-.3v-.2c0-.6,0-.8.3-.9s.2-.1.4-.2c1.5-.6,3-1.2,4.5-1.8.3-.1.4,0,.4.4,0,.6,0,.7-.3.9M355.9,272.1s0,0,0,0c-.1,0-.3.1-.4.2h0c-1.6.8-3.1,1.6-4.7,2.4-.2,0-.3,0-.3-.1,0-.4,0-.8,0-1.2,0-.2,0-.3.2-.4s0,0,0,0c1.1-.5,2.1-1.1,3.2-1.6.6-.3,1.2-.6,1.8-.9.3-.1.4,0,.4.3,0,.3,0,.6,0,.9,0,.2,0,.3-.2.4M363.8,267.4s0,0-.1,0c0,0-.1,0-.2,0-.5.2-.8,0-.6-.7v-.7c0-.2,0-.3.1-.3s0,0,.1,0h.2c.5,0,.7,0,.7.7,0,.2,0,.5,0,.7s0,.3-.1.3M349.6,275.3s0,0,0,0c-1.7.9-3.4,1.8-5.1,2.8-.2.1-.3,0-.3-.2,0-.4,0-.8,0-1.2,0-.2,0-.4.3-.5s0,0,0,0c.8-.4,1.6-.9,2.6-1.4.6-.3,1.5-.8,2.3-1.2.2-.1.3,0,.3.2,0,.4,0,.7,0,1.1,0,.2,0,.3-.2.4M326,288.8c-.2.1-.3,0-.3-.2,0-.3,0-.7,0-1,0-.2,0-.4.3-.5,1.4-.8,2.7-1.6,4-2.5.3-.2.6-.4,1-.6,0,0,0,0,0,0,.2-.1.3,0,.3.2,0,.4,0,.8,0,1.2,0,.3,0,.4-.3.5s0,0,0,0c-.3.2-.6.3-.8.5-.6.3-1.1.6-1.7,1h0c-.4.4-.8.6-1.2.8s-.8.5-1.2.7c0,0,0,0,0,0M332.2,285.1c-.2.1-.3.1-.3-.2,0-.4,0-.8,0-1.1,0-.2,0-.4.3-.5,1.7-1,3.4-2,5.1-2.9.2-.1.3,0,.3.2,0,.4,0,.8,0,1.2,0,.3,0,.4-.3.5-.4.2-.8.5-1.3.7s-.8.5-1.3.7h0c-.5.3-1.1.6-1.6.9s-.5.3-.8.5c0,0,0,0,0,0M338.4,281.5c-.3.2-.4,0-.3-.2,0-.4,0-.7,0-1,0-.3,0-.4.3-.6s0,0,0,0c1.4-.8,2.8-1.5,4.2-2.3.2-.1.4-.2.6-.3s.1,0,.2-.1c0,0,0,0,0,0,.2-.1.3,0,.3.2,0,.4,0,.7,0,1.1,0,.3,0,.4-.3.5-.4.2-.8.5-1.2.7s-.8.5-1.2.7h0c-.4.2-.8.4-1.2.6s-.8.5-1.2.7c0,0,0,0,0,0M362.1,267.6s0,0-.1,0c-1.1.4-2.2.8-3.4,1.3-.5.2-1.1.5-1.7.7-.2.1-.3,0-.3-.2,0-.4,0-.8,0-1.2,0-.2,0-.3.2-.4s0,0,0,0c1.6-.7,3.3-1.3,4.9-2,.4-.2.4-.1.4.4v.4c0,.2,0,.4,0,.5,0,.2,0,.3-.2.4M363.8,265.2c-.3,0-.6,0-.9,0,0,0-.1,0-.1-.2,0-.3,0-.5,0-.8l.2-.3c.6-.2,1,.4.8,1.2M355.8,270.2s0,0,0,0c-.9.4-1.8.9-2.8,1.3-.7.4-1.5.7-2.2,1.1-.3.1-.4,0-.3-.2,0-.4,0-.8,0-1.2,0-.2,0-.3.2-.4s0,0,0,0c.3-.1.6-.3.8-.4h0c1.4-.7,2.8-1.4,4.2-2,.3-.1.4,0,.4.3,0,.3,0,.7,0,1,0,.2,0,.4-.2.5M319.8,290.7c-.2.1-.3,0-.3-.2,0-.4,0-.7,0-1.1,0-.2,0-.4.3-.5.6-.4,1.2-.8,1.8-1.2,1.1-.7,2.1-1.3,3.2-2,0,0,0,0,0,0,.2-.1.3,0,.3.2,0,.2,0,.4,0,.6q0,.9-.8,1.4c-1.5,1-3,1.9-4.5,2.9,0,0,0,0,0,0M349.6,273.3s0,0,0,0c-.8.4-1.6.8-2.1,1.1-1.2.6-2,1.1-2.8,1.5-.2.1-.3.1-.3-.2,0-.4,0-.8,0-1.1,0-.2,0-.4.3-.5s0,0,0,0c1-.5,2-1.1,3-1.6.6-.3,1.3-.7,1.9-1,.4-.2.4-.2.4.3s0,.6,0,.9c0,.3,0,.4-.3.6M326,286.8c-.2.1-.3,0-.3-.2,0-.4,0-.7,0-1.1,0-.3,0-.4.3-.6,1.4-.8,2.8-1.7,4.1-2.5.3-.2.6-.4.9-.6,0,0,0,0,0,0,.2,0,.2,0,.2.1,0,.4,0,.8,0,1.2,0,.3,0,.4-.3.5-.8.5-1.7,1-2.5,1.4h0c-.8.6-1.6,1.1-2.5,1.6,0,0,0,0,0,0M338.4,279.4c-.3.1-.3,0-.3-.2,0-.4,0-.7,0-1,0-.3,0-.4.3-.6s0,0,0,0c1.5-.8,3-1.7,4.5-2.5q.7-.4.7.4c0,.2,0,.4,0,.6,0,.3,0,.4-.3.5-.8.5-1.7,1-2.5,1.4h0c-.5.2-1.1.5-1.6.9s-.5.3-.8.5c0,0,0,0,0,0M332.2,283c-.2.1-.3,0-.3-.2,0-.4,0-.7,0-1.1,0-.3,0-.4.3-.5.9-.5,1.9-1.1,2.8-1.6.7-.4,1.4-.8,2.2-1.3,0,0,0,0,0,0,.2-.1.3,0,.3.2,0,.4,0,.7,0,1.1,0,.3,0,.4-.3.5s0,0,0,0c-.3.2-.6.3-.8.5-.6.3-1.1.6-1.7,1h0c-.5.3-.9.6-1.4.8s-.7.4-1,.6c0,0,0,0,0,0M362.1,265.5s0,0-.1,0c-1.6.6-3.3,1.3-4.9,1.9-.4.2-.4.2-.4-.3v-.2c0-.6,0-.7.3-.9s.2-.1.4-.2c1.5-.7,3.1-1.3,4.6-1.7.3,0,.5,0,.4.4,0,.2,0,.3,0,.5,0,.2,0,.3-.2.4M355.9,268c0,0-.2.1-.5.2-1.5.8-3.1,1.5-4.6,2.3-.3.1-.4,0-.3-.2,0-.3,0-.6,0-.9,0-.2,0-.3.2-.4s0,0,0,0c1.5-.7,3.1-1.5,4.6-2.2h.1q.6-.3.6.4c0,.6,0,.7-.2.8M319.7,288.6c-.2,0-.2,0-.2-.2,0-.3,0-.6,0-.9,0-.2,0-.4.3-.5.5-.3,1-.7,1.5-1,1.1-.7,2.3-1.5,3.4-2.2,0,0,.1,0,.1,0,.2-.1.2,0,.2.3,0,.3,0,.6,0,.8,0,.3,0,.4-.3.6-1.3.8-2.5,1.6-3.8,2.4h0c-.4.3-.8.5-1.2.8,0,0,0,0,0,0M344.6,273.8c-.3.1-.3,0-.3-.2,0-.3,0-.6,0-.9,0-.2,0-.4.2-.5s0,0,0,0c1.7-.9,3.4-1.8,5.1-2.7.2,0,.2,0,.2.1,0,.3,0,.7,0,1,0,.2,0,.4-.3.5s0,0,0,0c-.8.4-1.7.9-2.5,1.3h0c-.4.1-.8.4-1.2.6s-.8.5-1.2.7M325.9,284.6c-.2.1-.3,0-.3-.2,0-.3,0-.6,0-.9,0-.2,0-.4.3-.5,1.1-.7,2.2-1.4,3.3-2.1.6-.4,1.1-.7,1.7-1,0,0,0,0,0,0,.2-.1.3,0,.3.2,0,.3,0,.6,0,.9,0,.3,0,.4-.3.6-.4.2-.8.5-1.2.7s-.8.5-1.2.7h0c-.8.6-1.6,1.1-2.5,1.6,0,0,0,0,0,0M338.4,277.3c-.2.1-.3,0-.3-.2,0-.3,0-.6,0-.9,0-.2,0-.4.3-.5s0,0,0,0c1.5-.8,3-1.7,4.5-2.5.2-.1.4-.2.6-.3s.2,0,.2.1c0,.3,0,.7,0,1,0,.2,0,.4-.3.5s0,0,0,0c-.3.2-.6.3-.8.5-.6.3-1.1.7-1.7,1h0c-.6.2-1.1.5-1.7.9s-.6.3-.8.5c0,0,0,0,0,0M332.2,280.8c-.2.1-.3.1-.3-.2,0-.3,0-.7,0-1,0-.2,0-.4.3-.5,1.7-1,3.4-1.9,5-2.9.2-.1.3,0,.3.2,0,.3,0,.6,0,.9,0,.3,0,.5-.3.6s0,0,0,0c-.4.2-.8.5-1.2.7s-.8.5-1.2.7h0c-.4.3-.8.5-1.2.7s-.8.5-1.2.7M336.7,275.9c-1.9,1.1-3.7,2.2-5.6,3.3-2.9,1.8-5.8,3.6-8.8,5.4-1,.6-2.1,1.4-3.1,2-.2.1-.3.2-.3.5,0,2,0,4,0,6,0,0,.2-.1.3-.2s0,0,0,0c0,0,0,0,0,0,.2-.1.3-.3.2-.5,0-.2,0-.5,0-.8,0-.5,0-.5.4-.8,1.6-1.1,3.3-2.1,4.9-3.2,0,0,0,0,0,0,.2-.1.2,0,.2.2,0,.3,0,.6,0,1,0,.5,0,.5-.4.7-1.6,1-3.2,2-4.8,3-.2.2-.3.3-.3.6,0,1,0,1.9,0,2.9,0,5.6,0,11.3,0,16.9,0,6.7,0,13.4,0,20.1,0,.3,0,.4.3.3s0,0,0,0h.1c1.4-.8,2.8-1.5,4.2-2.3,3.9-2.1,7.7-4.3,11.6-6.5.9-.5,1.7-1,2.6-1.5,2.7-1.5,5.3-3.1,8-4.7,2.3-1.4,4.7-2.8,7-4.2,2.6-1.6,5.2-3.4,7.8-5.3.9-.7,1.7-1.4,2.6-2.2.4-.3.6-.8.7-1.4,0-.6-.1-.9-.6-.9-.2,0-.2-.1-.2-.3,0-2.6,0-5.1,0-7.7,0-5,0-10,0-14.9,0-3.3,0-6.6,0-10s0-.4.2-.6c.4-.4.6-.9.5-1.4,0-.6,0-1.2,0-1.9,0-.5,0-1,0-1.5s0-1,0-1.5c0-1-.4-1.4-1.1-1.4-.9,0-1.8.3-2.7.6-2.1.7-4.3,1.7-6.5,2.7-2.6,1.3-5.3,2.6-7.9,3.9-1.9,1-3.8,2-5.7,3.1-1.3.7-2.6,1.5-3.9,2.2"/>
              <path class="st60" d="M376.3,273.2c-.7.4-1.5.8-2.2,1.2-.4.2-.2-.2-.3-.4,0-.2,0-.3.2-.4s0,0,0,0c.6-.3,1.2-.6,1.8-.9.3-.2.4-.1.4.3,0,.1,0,.2,0,.3M365.8,279.2c-.2.1-.3.1-.3-.1,0-.2-.1-.5.2-.7.7-.4,1.4-.8,2.1-1.2s.2.2.2.3c0,.2,0,.4-.2.5l-1,.6h0c-.2.1-.3.2-.5.3s-.3.2-.5.3M371.3,276c-.3.2-.2-.2-.2-.4,0-.2,0-.4.2-.5s0,0,0,0c.7-.4,1.4-.7,2-1.1.3-.2.2.2.2.4,0,.2,0,.3-.2.5s0,0,0,0c-.1,0-.3.1-.4.2s-.4.2-.6.3h0c-.3.2-.7.4-1,.6,0,0,0,0,0,0M369.2,276.3c.4-.3.9-.5,1.4-.8.3-.2.2.2.3.4,0,.2,0,.4-.3.5s0,0,0,0c-.1,0-.2.1-.3.2-.2.1-.4.3-.7.4h0c-.2.1-.5.2-.7.4s-.2.1-.3.2h0c-.3.2-.2,0-.2-.3,0-.2,0-.4.2-.6.2-.1.4-.3.7-.4M375.5,272.8h0c-.5.2-.9.4-1.4.7-.4.2-.3-.1-.3-.4,0-.2,0-.4.3-.5s0,0,0,0c.6-.3,1.3-.7,1.9-1,.3-.2.3-.1.3.4,0,.2,0,.3-.2.4s0,0-.1,0l-.5.3M371.3,275c-.3.2-.3,0-.3-.3,0-.2,0-.4.3-.6s0,0,0,0c.7-.4,1.4-.8,2.1-1.1.3-.2.2.3.2.4,0,.2,0,.3-.2.4s0,0,0,0c-.2,0-.3.2-.5.3s-.3.2-.5.3h0c-.2,0-.4.2-.7.3s-.2.1-.3.2c0,0,0,0,0,0M365.8,278.2c-.2.1-.2,0-.2-.2,0-.2-.1-.5.2-.7.7-.4,1.4-.9,2.1-1.3s.2,0,.2.1c0,.5,0,.6-.5.9-.1,0-.3.2-.4.2l-.4.2h0c-.2.2-.5.3-.7.4s-.2.1-.3.2c0,0,0,0,0,0M370.6,275.4c-.7.4-1.3.8-2,1.1s-.2-.1-.3-.3c0-.2,0-.4.2-.5s0,0,0,0c.1,0,.2-.1.3-.2.2-.1.4-.3.7-.4h0c.2-.1.4-.2.7-.4s.2-.1.3-.2c0,0,0,0,0,0,.2-.1.3,0,.2.3,0,.2,0,.4-.3.6M376.2,271.5s0,0-.1,0c0,0,0,0-.1,0h-.2c0,0,0,0,0,0-.6.3-1.1.6-1.7.9-.3.2-.3,0-.3-.3,0-.2,0-.4.3-.5s0,0,0,0c.6-.3,1.3-.6,1.9-1,.4-.2.4-.1.3.4,0,.2,0,.3-.2.3M373.3,273s0,0,0,0c-.7.4-1.3.7-2,1.1-.3.2-.2,0-.2-.3,0-.2,0-.4.2-.5s0,0,0,0c.1,0,.2-.1.3-.2.2-.1.4-.3.7-.4h0c.3-.2.7-.3,1-.5s.2,0,.3.3c0,.2,0,.4-.3.5M365.8,277.3c-.2.1-.2,0-.2-.2,0-.2,0-.4.2-.6.7-.4,1.4-.8,2.1-1.2,0,0,0,0,0,0,.2-.1.2,0,.2.2,0,.2,0,.4-.2.5s0,0,0,0c-.2,0-.3.2-.5.3s-.3.2-.5.3h0c-.2.1-.3.2-.5.3s-.3.2-.5.3c0,0,0,0,0,0M368.6,275.6c-.2.1-.3,0-.3-.2,0-.2,0-.4.3-.6s0,0,0,0c.4-.2.8-.4,1.2-.7s.5-.3.8-.5.2,0,.3.3c0,.2,0,.4-.3.5s0,0,0,0c-.1,0-.3.2-.4.2s-.4.2-.6.3h0c-.2.1-.4.2-.6.4s-.2.1-.3.2c0,0,0,0,0,0M369.1,274.3c-1.1.7-2.3,1.3-3.4,2-.2.1-.3.3-.3.6,0,6.9,0,13.7,0,20.6,0,.3,0,.4.3.2s0,0,0,0c3.4-2,6.8-4.1,10.2-6.1.3-.1.3-.3.3-.6,0-1.9,0-3.7,0-5.6,0-3.6,0-7.3,0-10.9,0-.4,0-.9,0-1.3,0,0,0,0,0,0,.2,0,.2-.2.2-.4,0-.7,0-1.4,0-2.2,0-.2,0-.3-.3-.2-2.4,1.2-4.8,2.5-7.2,3.9"/>
              <path class="st60" d="M318.9,293.2h0s0,0,0,0h0M308.2,299.8c-.3-.7,0-1.8.7-2.6.6-.7,1.3-1.3,2-1.9.4-.4.9-.7,1.3-1.1,0,0,.2-.1.2-.2.2,0,.2,0,.2.3s0,.6,0,.9c0,.3-.1.5-.4.7-.6.5-1.3,1-1.9,1.5-.7.6-1.5,1.3-2,2.2h-.1M308.1,297.8c-.2-.6,0-1.4.5-2.1.6-.9,1.3-1.5,2.1-2.1.5-.4,1-.8,1.6-1.3,0,0,0,0,.1,0,.2,0,.2,0,.2.2h0c0,1.4.2.9-1,1.9-.9.7-1.8,1.4-2.6,2.4-.3.3-.6.7-.9,1.1M313.1,291s0,0-.1,0c-.4.3-.9.7-1.3,1-1,.8-2,1.6-2.9,2.6-.8.9-1.3,1.9-1.3,3,0,1.6,0,3.2,0,4.8,0,.4.1.7.5.7.3,0,.3.2.3.5,0,6.7,0,13.4,0,20.2,0,4,0,8,0,11.9,0,.3,0,.5-.3.7-.4.4-.5.9-.5,1.3,0,.5.2.7.6.7.2,0,.4,0,.6,0,1.1-.4,2.2-.8,3.3-1.2.1,0,.3,0,.3-.1.2-.1.2-.3.2-.7,0-5.5,0-11,0-16.5,0-7.3,0-14.7,0-22s0-.2,0-.4c-1.5,1.1-2.9,2.1-4.4,3.5,0-.2,0-.5.1-.7.2-.3.4-.7.7-1,1.1-1.2,2.2-2.1,3.4-3,0,0,0,0,0,0,.1,0,.2,0,.2.2,0,.2,0,.4,0,.6,0,.3,0,.4.2.3s.1,0,.2-.1c0,0,0,0,0,0,.2,0,.2,0,.2.2,0,.2,0,.5,0,.7,0,.2,0,.3.3.1.5-.3,1-.6,1.5-.9,1.2-.7,2.4-1.4,3.6-2.1.2-.1.3-.3.3-.5,0-.5,0-1,0-1.4-.2.1-.3.2-.5.3-1.6,1-3.1,2.1-4.7,3.1,0,0-.2.1-.2.2-.2.1-.2,0-.2-.4,0-1.7,0-3.5,0-5.2,0-.2,0-.3-.2-.2"/>
              <path class="st60" d="M381.4,270.4c-.6.2-1.2.3-1.8.5-.2,0-.3-.2-.2-.6,0,0,.2-.2.2-.3s0,0,0,0c.4-.1.9-.3,1.3-.3.4,0,.5.2.4.7M381.4,269.6c-.6-.1-1.2.1-1.8.4-.3.1-.2-.2-.2-.4,0-.2,0-.2.2-.3s0,0,.1,0c.5-.1.9-.3,1.4-.3.4,0,.5.2.4.7M379.1,269.1c0,.2,0,.3,0,.4,0,.6,0,1.2,0,1.8s0,.5-.2.6-.1,0-.2.1c-.6.3-1.2.6-1.8.9,0,0,0,0,0,0-.2.1-.3.2-.3.5,0,.3,0,.4.3.2s0,0,0,0c.3-.2.7-.4,1-.6s.6-.3.8-.5c0,0,0,0,0,0,.2-.1.3-.2.3-.5v-.3c.3-.2.3-.3.3-.5,0,0,.1-.3.2-.3s0,0,0,0c.5-.1,1-.3,1.5-.4.2,0,.3.1.4.2h0c-.5.3-1,.5-1.5.7-.1,0-.2,0-.3.1-.2,0-.2.2-.2.5,0,5.6,0,11.1,0,16.6,0,.1,0,.2,0,.3h.2c.6-.4,1.2-.9,1.8-1.4.3-.3.3-.8,0-.9s-.2-.2-.2-.4c0-4.6,0-9.2,0-13.9,0-.3,0-.5.2-.8,0,0,.1-.2.1-.3,0-.8,0-1.6,0-2.4s-.1-.5-.4-.5c-.7,0-1.4.3-2.1.6"/>
              <path class="st60" d="M318.7,303.3c-.9.5-1.7,1-2.6,1.5s-1.7,1-2.5,1.5c-.2.1-.3.3-.3.5,0,.7,0,1.5,0,2.2,0,.3,0,.3.3.2.4-.3.8-.5,1.3-.7s.8-.5,1.3-.7h0c.4-.3.8-.5,1.3-.7s.8-.5,1.3-.7c.2-.1.3-.3.3-.5,0-.7,0-1.5,0-2.2,0-.3,0-.3-.3-.2"/>
              <path class="st60" d="M318.7,310.6c-.9.5-1.7,1-2.6,1.5s-1.7,1-2.6,1.5c-.2.1-.3.3-.3.5,0,.7,0,1.5,0,2.2,0,.3,0,.3.3.2.4-.3.8-.5,1.3-.7s.8-.5,1.3-.7h0c.4-.2.8-.5,1.3-.7s.8-.5,1.3-.7c.2-.1.3-.3.3-.5,0-.7,0-1.5,0-2.2,0-.2,0-.3-.3-.2"/>
              <path class="st60" d="M313.6,317.3c-.2.1-.3.3-.3.5,0,.7,0,1.4,0,2.2,0,.3,0,.3.3.2s0,0,0,0c.3-.2.6-.3.8-.5.6-.3,1.1-.6,1.7-1s.8-.5,1.3-.7.8-.5,1.3-.7c.2-.1.3-.3.3-.5,0-.7,0-1.4,0-2.2,0-.3,0-.3-.3-.2-.7.4-1.4.8-2.1,1.2s-2,1.1-3,1.7"/>
              <path class="st60" d="M313.6,309.9c-.2.1-.3.3-.3.5,0,.7,0,1.4,0,2.2,0,.3,0,.4.3.2s0,0,0,0c.4-.2.7-.4,1.1-.6s1-.6,1.4-.8h0c.4-.3.8-.5,1.3-.7s.8-.5,1.3-.7c.2-.1.3-.3.3-.5,0-.7,0-1.4,0-2.2,0-.3,0-.3-.3-.2-.5.3-1,.6-1.5.9-1.2.7-2.4,1.4-3.6,2.1"/>
              <path class="st60" d="M318.7,321.7c-1,.6-2,1.2-3,1.7s-1.4.8-2.1,1.2c-.2.1-.3.3-.3.5,0,.7,0,1.5,0,2.2,0,.3,0,.3.3.2s0,0,0,0c.3-.2.6-.3.8-.5.6-.3,1.1-.6,1.7-1h0c.9-.5,1.7-1,2.6-1.5.2-.1.3-.2.3-.5,0-.7,0-1.5,0-2.2,0-.3,0-.3-.3-.2"/>
              <path class="st60" d="M318.7,318c-.4.3-.8.5-1.3.7s-.8.5-1.3.7h0c-.9.5-1.7,1-2.6,1.5-.2.1-.3.3-.3.5,0,.7,0,1.5,0,2.2,0,.3,0,.3.3.2.7-.4,1.4-.8,2.1-1.2s2-1.2,3-1.7c.2-.1.3-.3.3-.5,0-.7,0-1.4,0-2.2,0-.3,0-.3-.3-.2"/>
              <path class="st60" d="M318.7,329s0,0,0,0c-1,.6-2,1.1-2.9,1.7-.7.4-1.4.8-2.1,1.2-.3.2-.3.3-.3.6,0,.7,0,1.4,0,2.1,0,.3,0,.4.3.2s0,0,0,0c.4-.2.8-.5,1.2-.7s.8-.5,1.2-.7h0c.9-.5,1.7-1,2.6-1.5.2-.1.3-.2.3-.5,0-.7,0-1.5,0-2.2,0-.3,0-.3-.3-.2"/>
              <path class="st60" d="M318.6,299.6c-.4.3-.8.5-1.3.7s-.8.5-1.3.7h0c-.4.3-.9.5-1.3.8s-.9.5-1.3.7c-.2.1-.3.3-.3.5,0,.7,0,1.5,0,2.2,0,.2,0,.3.3.2,1.7-1,3.4-2,5.2-3,0,0,0,0,0,0,.2-.1.2-.2.2-.5,0-.7,0-1.5,0-2.2,0-.3,0-.3-.3-.2"/>
              <path class="st60" d="M318.7,325.3c-1.7,1-3.4,2-5.1,3-.2.1-.3.3-.3.5,0,.7,0,1.5,0,2.2,0,.3,0,.3.3.2.4-.3.8-.5,1.3-.7s.8-.5,1.3-.7h0c.9-.5,1.7-1,2.6-1.5.2-.1.3-.2.3-.5,0-.8,0-1.5,0-2.3,0-.2,0-.3-.3-.2"/>
              <path class="st60" d="M318.6,296c-1,.6-2,1.2-3,1.7-.7.4-1.4.8-2.1,1.2-.2.1-.3.3-.3.5,0,.7,0,1.4,0,2.1,0,.3,0,.4.4.2.4-.2.7-.4,1.1-.6s1-.5,1.4-.8h0c.4-.3.8-.5,1.3-.7s.8-.5,1.3-.7c.2-.1.3-.2.3-.5,0-.7,0-1.5,0-2.2,0-.3,0-.3-.3-.2"/>
              <path class="st60" d="M318.7,332.7s0,0,0,0c-.4.2-.7.4-1.1.6s-.9.5-1.4.8h0c-.8.5-1.7,1-2.5,1.5,0,0-.2.2-.3.3-.2.4,0,.9.3.7,1.6-.8,3.2-1.6,4.8-2.3.1,0,.3-.1.3-.2.3-.1.2-.2.2-.7,0-.1,0-.3,0-.4,0-.3,0-.4-.3-.2"/>
              <path class="st60" d="M378.9,274.6s0,0,0,0c-.1,0-.3.1-.4.2-.3.1-.5.3-.8.4l-1.1.6c0,.4,0,.7,0,1,0,.2,0,.3.3.2.2-.1.5-.3.7-.4s.5-.3.7-.4c.8-.5.8-.5.8-1.4,0-.2,0-.3-.3-.2"/>
              <path class="st60" d="M376.9,285.6c-.2.1-.2.2-.2.4,0,.2,0,.5,0,.7,0,.2,0,.2.2.1s0,0,0,0c.1,0,.2-.1.3-.2.2-.1.4-.2.7-.4l.5-.3c.9-.5.9-.5.8-1.5,0-.2,0-.2-.2-.1-.3.2-.7.4-1,.6s-.7.4-1,.6c0,0,0,0,0,0"/>
              <path class="st60" d="M378.9,276.2s0,0,0,0c-.1,0-.2.1-.3.2-.2.1-.4.3-.7.4-.2,0-.3.2-.5.3,0,0-.1,0-.2.1-.7.4-.7.4-.6,1.3,0,.2,0,.2.2.1.2-.1.4-.2.6-.3.5-.3,1-.5,1.4-.8.2,0,.3-.2.2-.4,0-.2,0-.5,0-.7,0-.2,0-.2-.2-.1"/>
              <path class="st60" d="M378.9,277.8c-.1,0-.2.1-.3.2-.2.1-.4.2-.7.4l-.5.3c-.9.5-.9.5-.8,1.5,0,.2,0,.2.2.1s0,0,0,0c.4-.2.8-.4,1.2-.7s.2-.1.3-.2l.4-.2s0,0,.1,0c.4-.2.3-.2.3-1.2,0-.2,0-.2-.2-.1"/>
              <path class="st60" d="M378.9,279.5c-.2.1-.5.3-.7.4s-.5.3-.7.4c-.9.5-.8.5-.8,1.4,0,.2,0,.3.3.1.2-.1.3-.2.5-.3s.3-.2.5-.3l.5-.3q.8-.5.8-1.4c0-.2,0-.2-.3-.1"/>
              <path class="st60" d="M378.9,282.8c0,0-.2.1-.3.2s-.2.1-.3.2c-.3.2-.6.3-.9.5,0,0-.2,0-.2.1s-.1,0-.2,0c0,0,0,0-.1,0-.4.2-.2.2-.3,1.1,0,.2,0,.2.2.1.1,0,.2-.1.3-.2.2-.1.5-.3.7-.4h0c.2-.1.3-.2.5-.3s.3-.2.5-.3c0,0,0,0,0,0,.2-.1.3-.2.2-.4,0-.2,0-.4,0-.7,0-.2,0-.3-.3-.1"/>
              <path class="st60" d="M378.9,287.7s0,0,0,0c0,0-.2.1-.3.2s-.2.1-.3.2c-.3.2-.6.3-.9.5,0,0-.2,0-.2.1s-.1,0-.2,0c0,0,0,0-.1,0-.4.2-.3.2-.3,1.1,0,.2,0,.2.2.1.1,0,.2-.1.3-.2.2-.1.4-.3.7-.4h0c.2-.1.3-.2.5-.3.8-.5.8-.5.8-1.4,0-.2,0-.3-.3-.2"/>
              <path class="st60" d="M378.9,273c-.4.2-.8.5-1.2.7s-.6.3-.8.5c-.2.1-.3.2-.2.4,0,.2,0,.4,0,.7,0,.2,0,.2.2.1s0,0,0,0c.1,0,.2-.1.3-.2.2-.1.4-.2.7-.4h0c.2,0,.3-.2.5-.3.8-.5.8-.5.8-1.4,0-.2,0-.3-.3-.2"/>
              <path class="st60" d="M379,286s0,0,0,0c-.7.4-1.4.8-2.1,1.2s-.2.2-.2.4c0,.2,0,.5,0,.7,0,.2,0,.2.2.1s0,0,0,0c.1,0,.2-.1.3-.2.2-.1.4-.2.7-.4h0c.2,0,.3-.2.5-.3l.4-.2c0,0,.1,0,.2,0,.3-.2.2-.2.2-1.1,0-.2,0-.2-.2-.2"/>
              <path class="st60" d="M378.9,281.1c-.3.2-.7.4-1,.6l-.4.3q-.9.5-.8,1.5h0c0,0,.1.2.2.1.4-.2.8-.4,1.2-.7s.6-.4.9-.6c0,0,.2-.2.2-.3,0-.3,0-.5,0-.8,0-.2,0-.2-.2-.1"/>
              <path class="st60" d="M378.4,289.6c-.1,0-.3.2-.4.2-.2.1-.5.3-.7.4s-.2.1-.4.2c0,0,0,0,0,0-.2,0-.2.2-.2.4,0,.2,0,.3.2.2s0,0,0,0c.7-.5,1.4-.9,2.1-1.4,0,0,.1-.2.2-.3,0,0-.1-.1-.2,0-.2.1-.4.2-.6.3"/>
            </g>
          </g>
        </g>
        <g class="st35">
          <g class="st20">
            <g>
              <path class="st60" d="M330.4,443.6s0,0,0,0h0s0,0,0,0M375.3,419.2c-.3,0-.6.1-.8.2h-.1c0-.4,0-.7,0-1l.2-.3c.2,0,.5,0,.7,0,.2,0,.2.6,0,1M373.5,419.7c0,0-.2.1-.4.2-1.5.6-3,1.3-4.5,2-.5.2-.5.2-.5-.3v-.2c0-.6,0-.8.3-.9s.2-.1.4-.2c1.5-.6,3-1.2,4.5-1.8.3-.1.4,0,.4.4,0,.6,0,.7-.3.9M367.3,422.5s0,0,0,0c-.1,0-.2.1-.4.2h0c-1.6.8-3.1,1.6-4.7,2.4-.2,0-.3,0-.3-.1,0-.4,0-.8,0-1.2,0-.2,0-.3.2-.4s0,0,0,0c1.1-.5,2.1-1,3.2-1.6.6-.3,1.2-.6,1.8-.9.3-.1.4,0,.4.2,0,.3,0,.6,0,.9,0,.2,0,.3-.2.4M375.3,417.7s0,0-.1,0c0,0-.1,0-.2,0-.5.2-.8,0-.6-.7,0-.3,0-.5,0-.7,0-.2,0-.3.1-.3s0,0,.1,0h.2c.5,0,.8,0,.7.7,0,.2,0,.4,0,.7s0,.3-.1.3M361.1,425.7s0,0,0,0c-1.7.9-3.4,1.8-5.1,2.8-.2.1-.3,0-.3-.2,0-.4,0-.8,0-1.2,0-.2,0-.4.3-.5s0,0,0,0c.8-.4,1.6-.9,2.6-1.4.6-.3,1.5-.8,2.3-1.2.2-.1.3,0,.3.2,0,.4,0,.7,0,1.1,0,.2,0,.3-.2.4M337.4,439.2c-.2.1-.3,0-.3-.2,0-.3,0-.7,0-1,0-.2,0-.4.3-.5,1.3-.8,2.7-1.6,4-2.5.3-.2.6-.4,1-.6,0,0,0,0,0,0,.2-.1.3,0,.3.2,0,.4,0,.8,0,1.2,0,.3,0,.4-.3.5s0,0,0,0c-.3.2-.6.3-.8.5-.6.3-1.1.6-1.7,1h0c-.4.4-.8.6-1.2.8s-.8.5-1.2.7c0,0,0,0,0,0M343.7,435.5c-.2.1-.3.1-.3-.2,0-.4,0-.8,0-1.1,0-.2,0-.3.3-.5,1.7-1,3.4-2,5.1-2.9.2-.1.3,0,.3.2,0,.4,0,.8,0,1.2,0,.3,0,.4-.3.5-.4.2-.8.5-1.3.7s-.8.5-1.3.7h0c-.5.3-1.1.6-1.6.9s-.5.3-.8.5c0,0,0,0,0,0M349.9,431.9c-.3.2-.4,0-.3-.2,0-.4,0-.7,0-1,0-.3,0-.4.3-.6s0,0,0,0c1.4-.8,2.8-1.5,4.2-2.3.2-.1.4-.2.6-.3s.1,0,.2-.1c0,0,0,0,0,0,.2-.1.3,0,.3.2,0,.4,0,.7,0,1.1,0,.3-.1.4-.3.6-.4.2-.8.5-1.2.7s-.8.5-1.2.7h0c-.4.2-.8.4-1.2.6s-.8.5-1.2.7c0,0,0,0,0,0M373.6,418s0,0-.1,0c-1.1.4-2.2.8-3.4,1.3-.6.2-1.1.5-1.7.7-.2.1-.3,0-.3-.2,0-.4,0-.8,0-1.2s0-.3.2-.4,0,0,0,0c1.6-.7,3.3-1.3,4.9-2,.4-.2.4-.1.4.4v.4c0,.2,0,.4,0,.5,0,.2,0,.3-.2.4M375.3,415.6c-.3,0-.6,0-.9,0,0,0-.1,0-.1-.2,0-.3,0-.5,0-.8l.2-.3c.6-.2,1,.4.8,1.2M367.3,420.6s0,0,0,0c-.9.4-1.8.9-2.8,1.3-.7.4-1.5.7-2.2,1.1-.3.1-.4,0-.3-.2,0-.4,0-.8,0-1.2,0-.2,0-.3.2-.4s0,0,0,0c.3-.1.6-.3.8-.4h0c1.4-.7,2.8-1.4,4.2-2,.3-.1.4,0,.4.3,0,.3,0,.7,0,1,0,.2,0,.4-.2.5M331.2,441.1c-.2.1-.3,0-.3-.2,0-.4,0-.7,0-1.1,0-.2,0-.4.3-.5.6-.4,1.2-.8,1.8-1.2,1.1-.7,2.1-1.3,3.2-2,0,0,0,0,0,0,.2-.1.3,0,.3.2,0,.2,0,.4,0,.6q0,.9-.8,1.4c-1.5,1-3,1.9-4.5,2.9,0,0,0,0,0,0M361.1,423.6s0,0,0,0c-.8.4-1.6.8-2.1,1.1-1.2.6-2,1.1-2.8,1.5-.2.1-.3.1-.3-.2,0-.4,0-.8,0-1.1,0-.2,0-.4.3-.5s0,0,0,0c1-.5,2-1.1,3-1.6.6-.3,1.3-.7,1.9-1,.4-.2.4-.2.4.3s0,.6,0,.9c0,.3,0,.4-.3.6M337.4,437.1c-.2.1-.3,0-.3-.2,0-.4,0-.7,0-1.1,0-.3,0-.4.3-.6,1.4-.8,2.8-1.7,4.1-2.5.3-.2.6-.4.9-.6,0,0,0,0,0,0,.2,0,.2,0,.2.1,0,.4,0,.8,0,1.2,0,.2,0,.4-.3.5-.8.5-1.7,1-2.5,1.4h0c-.8.6-1.6,1.1-2.5,1.6,0,0,0,0,0,0M349.8,429.8c-.3.1-.3,0-.3-.2,0-.4,0-.7,0-1,0-.3,0-.4.3-.6s0,0,0,0c1.5-.8,3-1.7,4.5-2.5q.7-.4.7.4c0,.2,0,.4,0,.6,0,.3,0,.4-.3.5-.4.2-.8.5-1.3.7s-.8.5-1.3.7h0c-.5.2-1.1.5-1.6.9s-.5.3-.8.5c0,0,0,0,0,0M343.7,433.4c-.2.1-.3,0-.3-.2,0-.4,0-.7,0-1.1,0-.3,0-.4.3-.5.9-.5,1.9-1.1,2.8-1.6.7-.4,1.4-.8,2.2-1.3,0,0,0,0,0,0,.2-.1.3,0,.3.2,0,.4,0,.7,0,1.1,0,.3,0,.4-.3.5s0,0,0,0c-.3.2-.6.3-.8.5-.6.3-1.1.6-1.7,1h0c-.5.3-.9.6-1.4.8s-.7.4-1,.6c0,0,0,0,0,0M373.6,415.9s0,0-.1,0c-1.6.6-3.3,1.3-4.9,1.9-.4.2-.4.2-.4-.3v-.2c0-.6,0-.7.3-.9s.2-.1.4-.2c1.5-.7,3.1-1.3,4.6-1.7.3,0,.5,0,.4.4,0,.2,0,.3,0,.5,0,.2,0,.3-.2.4M367.3,418.4c0,0-.2.1-.5.2-1.5.8-3.1,1.5-4.6,2.3-.3.1-.4,0-.3-.2,0-.3,0-.6,0-.9,0-.2,0-.3.2-.4s0,0,0,0c1.5-.7,3.1-1.5,4.6-2.2h.1q.6-.3.6.4c0,.6,0,.7-.2.8M331.2,439c-.2,0-.2,0-.2-.2,0-.3,0-.6,0-.9,0-.2,0-.4.3-.5.5-.3,1-.7,1.5-1,1.1-.7,2.3-1.5,3.4-2.2,0,0,.1,0,.1,0,.2-.1.2,0,.2.3,0,.3,0,.6,0,.8,0,.3,0,.4-.3.6-1.3.8-2.5,1.6-3.8,2.4h0c-.4.3-.8.5-1.2.8,0,0,0,0,0,0M356,424.2c-.3.2-.3,0-.3-.2,0-.3,0-.6,0-.9,0-.2,0-.4.3-.5,0,0,0,0,0,0,1.7-.9,3.4-1.8,5.1-2.7.2,0,.2,0,.2.1,0,.3,0,.7,0,1,0,.2,0,.4-.3.5s0,0,0,0c-.8.4-1.7.9-2.5,1.3h0c-.4.1-.8.4-1.2.6s-.8.5-1.2.7M337.4,435c-.2.1-.3,0-.3-.2,0-.3,0-.6,0-.9,0-.2,0-.4.3-.5,1.1-.7,2.2-1.4,3.3-2.1.6-.3,1.1-.7,1.7-1,0,0,0,0,0,0,.2-.1.3,0,.3.2,0,.3,0,.6,0,.9,0,.3,0,.4-.3.6-.4.2-.8.5-1.2.7s-.8.5-1.2.7h0c-.8.6-1.6,1.1-2.5,1.6,0,0,0,0,0,0M349.8,427.6c-.2.1-.3,0-.3-.2,0-.3,0-.6,0-.9,0-.2,0-.4.3-.5s0,0,0,0c1.5-.8,3-1.7,4.5-2.5.2-.1.4-.2.6-.3s.2,0,.2.1c0,.3,0,.7,0,1,0,.2,0,.4-.3.5s0,0,0,0c-.4.2-.8.5-1.3.7s-.8.5-1.3.7h0c-.6.2-1.1.5-1.7.9s-.6.3-.8.5c0,0,0,0,0,0M343.6,431.2c-.2.1-.3.1-.3-.2,0-.3,0-.7,0-1,0-.2,0-.4.3-.5,1.7-1,3.4-1.9,5-2.9.2-.1.3,0,.3.2,0,.3,0,.6,0,.9,0,.3,0,.5-.3.6s0,0,0,0c-.4.2-.8.5-1.2.7s-.8.5-1.2.7h0c-.4.3-.8.5-1.2.7s-.8.5-1.2.7M348.1,426.3c-1.9,1.1-3.7,2.2-5.6,3.3-2.9,1.7-5.8,3.6-8.8,5.4-1,.6-2.1,1.4-3.1,2-.2.1-.3.2-.3.5,0,2,0,4,0,6,0,0,.2-.1.2-.2s0,0,0,0c0,0,0,0,0,0,.2-.1.3-.3.2-.5,0-.2,0-.5,0-.8,0-.5,0-.5.4-.8,1.6-1.1,3.3-2.1,4.9-3.2,0,0,0,0,0,0,.2-.1.2,0,.2.2,0,.3,0,.6,0,1,0,.5,0,.5-.4.7-1.6,1-3.2,2-4.8,3-.2.1-.3.3-.3.6,0,1,0,1.9,0,2.9,0,5.6,0,11.3,0,16.9,0,6.7,0,13.4,0,20.1,0,.3,0,.4.3.3s0,0,0,0h.1c1.4-.8,2.8-1.5,4.2-2.3,3.9-2.1,7.7-4.3,11.6-6.5.9-.5,1.7-1,2.6-1.5,2.7-1.5,5.3-3.1,8-4.7,2.3-1.4,4.6-2.8,7-4.2,2.6-1.6,5.2-3.4,7.8-5.3.9-.7,1.7-1.4,2.6-2.2.4-.3.6-.8.7-1.4,0-.6-.1-.9-.6-.9-.2,0-.2-.1-.2-.3,0-2.6,0-5.1,0-7.7v-14.9c0-3.3,0-6.6,0-10,0-.2,0-.4.2-.6.4-.4.6-.9.5-1.4,0-.6,0-1.2,0-1.9,0-.5,0-1,0-1.5s0-1,0-1.5c0-1-.4-1.4-1.1-1.4-.9,0-1.8.3-2.7.6-2.1.7-4.3,1.7-6.5,2.8-2.6,1.3-5.3,2.6-7.9,3.9-1.9,1-3.8,2-5.7,3.1-1.3.7-2.6,1.5-3.9,2.2"/>
              <path class="st60" d="M387.8,423.6c-.7.4-1.5.8-2.2,1.2-.4.2-.2-.2-.3-.4,0-.2,0-.3.2-.4s0,0,0,0c.6-.3,1.2-.6,1.8-.9.3-.2.4-.1.4.3,0,.1,0,.2,0,.3M377.3,429.5c-.2.1-.3.1-.3-.1,0-.2-.1-.5.2-.7.7-.4,1.4-.8,2.1-1.2s.2.2.2.3c0,.2,0,.4-.2.5l-1,.6h0c-.2.1-.3.2-.5.3s-.3.2-.5.3M382.8,426.4c-.3.2-.2-.2-.3-.4,0-.2,0-.4.3-.5s0,0,0,0c.7-.4,1.4-.7,2-1.1.3-.2.2.2.2.4,0,.2,0,.3-.2.5s0,0,0,0c-.1,0-.3.1-.4.2s-.4.2-.6.3h0c-.3.2-.7.4-1,.6s0,0,0,0M380.7,426.7c.4-.3.9-.5,1.3-.8.3-.2.2.2.3.4,0,.2,0,.4-.3.5s0,0,0,0c-.1,0-.2.1-.3.2-.2.1-.4.3-.7.4h0c-.2.1-.5.2-.7.4s-.2.1-.3.2c0,0,0,0,0,0-.3.2-.2,0-.2-.3,0-.2,0-.4.2-.6.2-.1.5-.3.7-.4M386.9,423.2h0c-.4.2-.9.4-1.4.7-.4.2-.3-.1-.3-.4,0-.2,0-.4.3-.5s0,0,0,0c.6-.3,1.3-.7,1.9-1,.3-.2.3-.1.3.4,0,.2,0,.3-.2.4s0,0-.1,0l-.5.3M382.8,425.4c-.3.2-.3,0-.3-.3s0-.4.2-.6,0,0,0,0c.7-.4,1.4-.8,2.1-1.1.3-.2.2.3.2.4,0,.2,0,.3-.2.4s0,0,0,0c-.2,0-.3.2-.5.3s-.3.2-.5.3h0c-.2,0-.4.2-.7.3s-.2.1-.3.2c0,0,0,0,0,0M377.2,428.6c-.2.1-.2,0-.2-.2,0-.2-.1-.5.2-.7.7-.4,1.4-.8,2.1-1.3s.2,0,.2.1c0,.5,0,.6-.5.9-.1,0-.3.2-.4.2l-.4.2h0c-.2.2-.5.3-.7.4s-.2.1-.3.2c0,0,0,0,0,0M382,425.8c-.7.4-1.3.8-2,1.1s-.2-.1-.3-.3c0-.2,0-.4.2-.5s0,0,0,0c.1,0,.2-.1.3-.2.2-.1.5-.3.7-.4h0c.2-.1.4-.2.7-.3s.2-.1.3-.2c0,0,0,0,0,0,.2-.1.3,0,.2.2,0,.2,0,.4-.3.6M387.6,421.9s0,0,0,0c0,0,0,0-.1,0h-.2c0,0,0,0,0,0-.6.3-1.1.6-1.7.9-.3.2-.3,0-.3-.3,0-.2,0-.4.2-.5s0,0,0,0c.6-.3,1.3-.6,1.9-1,.4-.2.4-.1.3.3,0,.2,0,.3-.2.3M384.8,423.3s0,0,0,0c-.7.4-1.3.7-2,1.1-.3.2-.2,0-.2-.3,0-.2,0-.4.2-.5s0,0,0,0c.1,0,.2-.1.3-.2.2-.1.5-.3.7-.4h0c.3-.1.7-.3,1-.5s.3,0,.3.3c0,.2,0,.4-.2.5M377.2,427.7c-.2.1-.2,0-.2-.2,0-.2,0-.4.2-.6.7-.4,1.4-.8,2-1.2,0,0,0,0,0,0,.2-.1.2,0,.2.2,0,.2,0,.4-.2.5s0,0,0,0c-.2,0-.3.2-.5.3s-.3.2-.5.3h0c-.2.1-.3.2-.5.3s-.3.2-.5.3c0,0,0,0,0,0M380.1,426c-.2.1-.3,0-.3-.2,0-.2,0-.4.3-.6s0,0,0,0c.4-.2.8-.4,1.2-.7s.5-.3.8-.5.2,0,.3.3c0,.2,0,.4-.3.5s0,0,0,0c-.1,0-.3.1-.4.2s-.4.2-.6.3h0c-.2.1-.4.2-.6.4s-.2.1-.3.2c0,0,0,0,0,0M380.6,424.6c-1.1.7-2.3,1.3-3.4,2-.2.1-.3.3-.3.6,0,6.9,0,13.7,0,20.6,0,.3,0,.4.3.2s0,0,0,0c3.4-2,6.8-4.1,10.2-6.1.3-.1.3-.3.3-.6,0-1.9,0-3.7,0-5.6,0-3.6,0-7.3,0-10.9,0-.4,0-.9,0-1.3,0,0,0,0,0,0,.2,0,.2-.2.2-.5,0-.7,0-1.4,0-2.2,0-.2,0-.3-.3-.2-2.4,1.2-4.8,2.5-7.2,3.9"/>
              <path class="st60" d="M330.4,443.6s0,0,0,0c0,0,0,0,0,0h0M319.6,450.2c-.3-.7,0-1.8.7-2.6.6-.7,1.3-1.3,2-1.9.4-.4.9-.7,1.3-1.1,0,0,.2-.1.2-.2.2,0,.2,0,.2.3,0,.3,0,.6,0,.9,0,.3-.1.5-.4.7-.6.5-1.3,1-1.9,1.5-.7.6-1.4,1.3-2,2.2h-.1M319.6,448.1c-.2-.6,0-1.4.5-2.1.6-.8,1.3-1.5,2.1-2.1.5-.4,1-.8,1.6-1.3,0,0,0,0,.1,0,.2,0,.2,0,.2.2h0c0,1.4.2.9-1,1.9-.9.7-1.8,1.4-2.6,2.4-.3.3-.6.7-.9,1.1M324.6,441.3s0,0-.1,0c-.4.3-.9.7-1.3,1-1,.8-2,1.6-2.9,2.6-.8.9-1.3,1.9-1.3,3,0,1.6,0,3.2,0,4.8,0,.4.1.7.5.7.3,0,.3.2.3.5,0,6.7,0,13.4,0,20.2,0,4,0,8,0,12,0,.3,0,.5-.3.7-.4.4-.6.9-.5,1.4,0,.5.2.7.6.7.2,0,.4,0,.6,0,1.1-.4,2.2-.8,3.4-1.2.1,0,.2,0,.3-.1.2-.1.2-.3.2-.7,0-5.5,0-11,0-16.5,0-7.3,0-14.7,0-22,0-.1,0-.2,0-.4-1.5,1.1-2.9,2.1-4.4,3.5,0-.2,0-.5.1-.7.2-.3.4-.7.7-1,1.1-1.2,2.2-2.1,3.4-3,0,0,0,0,0,0,.1,0,.2,0,.2.2,0,.2,0,.4,0,.6,0,.3,0,.4.2.3s.1,0,.2-.1c0,0,0,0,0,0,.2,0,.2,0,.2.2,0,.2,0,.5,0,.7,0,.2,0,.3.3.2.5-.3,1-.6,1.5-.9,1.2-.7,2.4-1.4,3.6-2.1.2-.1.3-.3.3-.5,0-.5,0-1,0-1.4-.1.1-.3.2-.4.3-1.6,1-3.1,2.1-4.7,3.1,0,0-.2.1-.2.2-.2.1-.2,0-.2-.4,0-1.7,0-3.5,0-5.2,0-.2,0-.3-.2-.2"/>
              <path class="st60" d="M392.9,420.7c-.6.2-1.2.3-1.8.5-.2,0-.3-.2-.2-.6,0,0,.2-.2.2-.3s0,0,0,0c.4-.1.9-.3,1.3-.3.4,0,.5.2.4.7M392.9,419.9c-.6-.1-1.2.1-1.8.4-.3.1-.2-.2-.2-.4,0-.2,0-.2.1-.3s0,0,.1,0c.5-.1.9-.3,1.4-.3.4,0,.5.2.4.7M390.6,419.5c0,.2,0,.3,0,.4,0,.6,0,1.2,0,1.8s0,.5-.2.6-.1,0-.2.1c-.6.3-1.2.6-1.8.9,0,0,0,0,0,0-.2.1-.3.2-.3.5,0,.3,0,.4.3.2s0,0,0,0c.3-.2.7-.4,1-.6s.6-.3.8-.5c0,0,0,0,0,0,.2,0,.3-.2.3-.5v-.3c.3-.2.3-.3.3-.5,0,0,.1-.3.2-.3s0,0,0,0c.5-.1,1-.3,1.5-.4.1,0,.2.1.4.2h0c-.5.3-1,.5-1.5.7-.1,0-.2,0-.3.1-.2,0-.2.2-.2.5,0,5.6,0,11.1,0,16.6,0,.1,0,.2,0,.3h.2c.6-.4,1.2-.9,1.8-1.4.3-.3.3-.8,0-.9,0,0-.2-.2-.2-.4,0-4.6,0-9.2,0-13.9,0-.3,0-.5.2-.8,0,0,.1-.2.1-.3,0-.8,0-1.6,0-2.4,0-.3-.1-.5-.4-.5-.7,0-1.4.3-2.1.6"/>
              <path class="st60" d="M330.1,453.7c-.8.5-1.7,1-2.5,1.5s-1.7,1-2.6,1.5c-.2.1-.3.3-.3.5,0,.7,0,1.5,0,2.2,0,.3,0,.3.3.2.4-.3.8-.5,1.3-.7s.8-.5,1.3-.7h0c.4-.3.8-.5,1.3-.7s.8-.5,1.3-.7c.2-.1.3-.3.3-.5,0-.7,0-1.5,0-2.2,0-.3,0-.3-.3-.2"/>
              <path class="st60" d="M330.2,461c-.9.5-1.7,1-2.6,1.5s-1.7,1-2.6,1.5c-.2.1-.3.3-.3.5,0,.7,0,1.5,0,2.2,0,.3,0,.3.3.2.4-.3.8-.5,1.3-.7s.8-.5,1.3-.7h0c.6-.3,1.1-.6,1.7-1s.6-.3.8-.5c0,0,0,0,0,0,.2-.1.3-.2.3-.5,0-.7,0-1.5,0-2.2,0-.2,0-.3-.3-.2"/>
              <path class="st60" d="M325.1,467.6c-.2.1-.3.3-.3.5,0,.7,0,1.5,0,2.2,0,.3,0,.3.3.2s0,0,0,0c.4-.2.8-.5,1.3-.7s.8-.5,1.3-.7h0c.4-.2.8-.5,1.3-.7s.8-.5,1.3-.7c.2-.1.3-.3.3-.5,0-.7,0-1.5,0-2.2,0-.3,0-.3-.3-.2-.7.4-1.4.8-2.1,1.2s-2,1.1-3,1.7"/>
              <path class="st60" d="M325,460.3c-.2.1-.3.3-.3.5,0,.7,0,1.4,0,2.2,0,.3,0,.4.3.2.4-.2.7-.4,1.1-.6s1-.5,1.4-.8h0c.4-.3.8-.5,1.3-.7s.8-.5,1.3-.7c.2-.1.3-.3.3-.5,0-.7,0-1.5,0-2.2,0-.3,0-.3-.3-.2-.5.3-1,.6-1.5.9-1.2.7-2.4,1.4-3.6,2.1"/>
              <path class="st60" d="M330.2,472c-1,.6-2,1.2-3,1.7-.7.4-1.4.8-2.1,1.2-.2.1-.3.3-.3.5,0,.7,0,1.5,0,2.2,0,.3,0,.3.3.2s0,0,0,0c.3-.2.6-.3.8-.5.6-.3,1.1-.6,1.7-1h0c.9-.5,1.7-1,2.6-1.5.2-.1.3-.3.3-.5,0-.7,0-1.5,0-2.2,0-.3,0-.3-.3-.2"/>
              <path class="st60" d="M330.1,468.4c-.4.2-.8.5-1.3.7s-.8.5-1.3.7h0c-.9.5-1.7,1-2.6,1.5-.2.1-.3.3-.3.5,0,.7,0,1.5,0,2.2,0,.3,0,.3.3.2.7-.4,1.4-.8,2.1-1.2s2-1.2,3-1.7c.2-.1.3-.3.3-.5,0-.7,0-1.4,0-2.2,0-.3,0-.3-.3-.2"/>
              <path class="st60" d="M330.2,479.4s0,0,0,0c-1,.6-1.9,1.1-2.9,1.7-.7.4-1.4.8-2.1,1.2-.3.2-.3.3-.3.6,0,.7,0,1.4,0,2.1,0,.3,0,.4.3.2s0,0,0,0c.4-.2.7-.4,1.1-.6s.9-.5,1.4-.8h0c.9-.5,1.7-1,2.6-1.5.2-.1.3-.2.3-.5,0-.7,0-1.5,0-2.2,0-.3,0-.3-.3-.2"/>
              <path class="st60" d="M330.1,450c-.4.3-.8.5-1.3.7s-.8.5-1.3.7h0c-.4.3-.9.5-1.3.8s-.9.5-1.3.7c-.2.1-.3.3-.3.5,0,.7,0,1.5,0,2.2,0,.2,0,.3.3.2,1.7-1,3.4-2,5.1-3,0,0,0,0,0,0,.2-.1.2-.2.2-.5,0-.7,0-1.5,0-2.2,0-.3,0-.3-.3-.2"/>
              <path class="st60" d="M330.2,475.7c-1.7,1-3.4,2-5.1,3s-.3.3-.3.5c0,.7,0,1.5,0,2.2,0,.3,0,.3.3.2.4-.3.8-.5,1.3-.7s.8-.5,1.3-.7h0c.9-.5,1.7-1,2.6-1.5.2-.1.3-.2.3-.5,0-.8,0-1.5,0-2.3,0-.2,0-.3-.3-.2"/>
              <path class="st60" d="M330.1,446.4c-1.2.7-2.4,1.4-3.6,2.1s-1,.6-1.5.9c-.2.1-.3.3-.3.5,0,.7,0,1.4,0,2.1,0,.3,0,.4.3.2.4-.2.7-.4,1.1-.6s1-.6,1.4-.8h0c.4-.3.8-.5,1.3-.7s.8-.5,1.3-.7c.2-.1.3-.2.3-.5,0-.7,0-1.5,0-2.2,0-.3,0-.3-.3-.2"/>
              <path class="st60" d="M330.2,483.1s0,0,0,0c-.4.2-.8.5-1.2.7s-.8.5-1.2.7h0c-.8.5-1.7,1-2.5,1.5,0,0-.2.2-.3.3-.2.4,0,.9.3.7,1.6-.8,3.2-1.6,4.8-2.3.1,0,.3-.1.3-.2.2-.1.2-.2.2-.7,0-.1,0-.3,0-.4,0-.3,0-.4-.3-.2"/>
              <path class="st60" d="M390.3,425s0,0,0,0c-.1,0-.2.1-.4.2-.2.1-.5.3-.8.4l-1.1.6c0,.4,0,.7,0,1,0,.2,0,.3.3.1.2-.1.5-.3.7-.4s.5-.3.7-.4c.8-.5.8-.5.8-1.4,0-.2,0-.3-.3-.2"/>
              <path class="st60" d="M388.3,435.9c-.2,0-.2.2-.2.4,0,.2,0,.5,0,.7,0,.2,0,.2.2.1s0,0,0,0c.1,0,.2-.1.3-.2.2-.1.4-.3.7-.4l.5-.3q.9-.5.8-1.5c0-.2,0-.2-.2-.1-.2.1-.4.3-.7.4-.4.3-.9.5-1.4.8,0,0,0,0,0,0"/>
              <path class="st60" d="M390.4,426.6s0,0,0,0c-.1,0-.2.1-.3.2-.2.1-.5.3-.7.4l-.5.3q-.8.5-.8,1.5c0,.2,0,.2.2.1.2-.1.4-.2.6-.3.5-.3,1-.5,1.4-.8.2,0,.3-.2.2-.4,0-.2,0-.5,0-.7,0-.2,0-.2-.2-.1"/>
              <path class="st60" d="M390.4,428.2c-.1,0-.2.1-.3.2-.2.1-.4.3-.7.4l-.5.3c-.9.5-.8.5-.8,1.4,0,.2,0,.2.2.2s0,0,0,0c.3-.2.6-.4,1-.6s.3-.2.5-.3c.1,0,.3-.2.4-.2,0,0,.1,0,.1,0,.4-.2.3-.2.3-1.2,0-.2,0-.2-.2-.1"/>
              <path class="st60" d="M390.4,429.9c-.2.1-.5.3-.7.4s-.5.3-.7.4c-.9.5-.8.5-.8,1.4,0,.2,0,.3.3.2.2-.1.3-.2.5-.3s.3-.2.5-.3l.5-.3c.9-.5.8-.5.8-1.4,0-.2,0-.3-.3-.1"/>
              <path class="st60" d="M390.4,433.1c0,0-.2.1-.3.2s-.2.1-.3.2c-.3.2-.6.3-.9.5,0,0-.2,0-.2.1s-.1,0-.2,0c0,0,0,0-.1,0-.4.2-.2.2-.3,1.1,0,.2,0,.2.2.1.1,0,.2-.1.3-.2.2-.1.4-.3.7-.4h0c.2-.1.3-.2.5-.3s.3-.2.5-.3c0,0,0,0,0,0,.2-.1.3-.2.2-.4,0-.2,0-.4,0-.7,0-.2,0-.3-.3-.1"/>
              <path class="st60" d="M390.4,438s0,0,0,0c0,0-.2.1-.3.2s-.2.1-.3.2c-.3.2-.6.3-.9.5,0,0-.2,0-.2.1s-.1,0-.2,0c0,0,0,0-.1,0-.4.2-.3.2-.3,1.2,0,.2,0,.2.2.1.1,0,.2-.1.3-.2.2-.1.4-.3.7-.4h0c.2,0,.3-.2.5-.3q.8-.5.8-1.4c0-.2,0-.3-.2-.2"/>
              <path class="st60" d="M390.3,423.3c-.4.2-.8.5-1.2.7s-.6.3-.8.5c-.2.1-.2.2-.2.4,0,.2,0,.4,0,.7,0,.2,0,.2.2.1s0,0,0,0c.1,0,.2-.1.3-.2.2-.1.4-.3.7-.4h0c.2,0,.3-.2.5-.3.8-.5.8-.5.8-1.4,0-.2,0-.3-.3-.2"/>
              <path class="st60" d="M390.4,436.4s0,0,0,0l-2.1,1.2c-.1,0-.2.2-.2.4,0,.2,0,.5,0,.7,0,.2,0,.2.2.1s0,0,0,0c.1,0,.2-.1.3-.2.2-.1.4-.2.7-.4h0c.2,0,.3-.2.5-.3l.4-.2s0,0,.1,0c.4-.2.3-.2.3-1.2,0-.2,0-.2-.2-.1"/>
              <path class="st60" d="M390.4,431.5c-.3.2-.7.4-1,.6l-.4.3q-.9.5-.8,1.5h0c0,0,.1.2.2.1.4-.2.8-.4,1.2-.7s.6-.4.9-.6c0,0,.2-.3.2-.3,0-.3,0-.5,0-.8,0-.2,0-.2-.2-.1"/>
              <path class="st60" d="M389.9,439.9c-.2,0-.3.2-.5.3s-.5.3-.7.4-.2.1-.4.2c0,0,0,0,0,0-.2.1-.2.2-.2.4,0,.2,0,.3.2.2s0,0,0,0c.7-.5,1.4-.9,2.1-1.4,0,0,.1-.2.2-.3,0,0-.1-.1-.2,0-.2,0-.3.2-.5.3"/>
            </g>
          </g>
        </g>
        <g class="st35">
          <g class="st36">
            <g>
              <path class="st47" d="M410.8,257.4c-1,.6-1.9,1.3-2.6,2-.7.7-1.2,1.5-1.5,2.3-.3.8-.5,1.5-.5,2.2s.1,1.2.4,1.5c.3.3.6.5,1,.5.4,0,.8,0,1.3-.1.5-.1,1-.2,1.4-.4.5-.2.9-.3,1.3-.4.4,0,.7,0,1,0,.2.1.4.4.4.8s0,.7-.3,1c-.2.4-.4.7-.8,1.1-.4.4-.8.7-1.4,1.1s-1.4.7-2.1.8c-.7.1-1.2,0-1.7,0l-.7,2.3c.5.2,1.1.2,1.9,0s1.7-.5,2.6-1,1.9-1.3,2.6-2c.7-.8,1.2-1.5,1.5-2.3.3-.8.5-1.5.5-2.2s-.1-1.2-.4-1.5c-.2-.3-.6-.5-1-.5-.4,0-.8,0-1.3.1-.5.1-1,.3-1.5.4-.5.2-.9.3-1.3.4-.4,0-.7,0-1,0-.2-.1-.4-.4-.4-.8s0-.7.2-1c.2-.4.4-.7.8-1.1s.8-.7,1.4-1.1,1-.5,1.6-.6c.5-.2,1.1-.2,1.6-.1l.7-2.3c-.5,0-1.1,0-1.8.2-.7.2-1.4.5-2,.9"/>
              <path class="st47" d="M418.2,260.6c0-.4.1-.8.3-1.2.2-.6.5-1.1.9-1.6.4-.5.8-.8,1.3-1.1s.9-.4,1.3-.4c.4,0,.7.2.9.5.2.2.3.5.3.9l-4.9,2.8M420.7,254.9c-.9.5-1.6,1.2-2.3,2-.7.8-1.2,1.7-1.6,2.7-.4,1-.6,2-.6,3s.2,1.7.6,2.3c.4.5,1,.8,1.7.9s1.6-.2,2.5-.8,1.4-1,2-1.6c.6-.6,1.1-1.3,1.5-2.1l-1.1-.8c-.3.6-.6,1-1,1.4-.4.4-.8.7-1.3,1s-1.1.5-1.5.5c-.4,0-.8-.2-1-.5-.2-.2-.3-.5-.3-.8l6.8-3.9c0-.1,0-.2,0-.4,0-.1,0-.2,0-.3,0-1-.2-1.8-.6-2.4s-.9-.9-1.6-.9c-.7,0-1.4.2-2.3.7"/>
              <path class="st47" d="M432.1,248.3c-.8.5-1.5,1.1-2.1,1.7-.4.5-.7,1-1,1.6v-1.5s-1.9,1.1-1.9,1.1v10s2.1-1.2,2.1-1.2v-4.8c0-1,.2-1.9.7-2.7.5-.8,1.1-1.4,1.8-1.8s.2,0,.2-.1c0,0,.2,0,.2,0v-2.2"/>
              <polyline class="st47" points="442.2 242.6 440.3 243.7 437.5 252.7 434.8 246.9 432.7 248.1 436.5 255.9 438.5 254.7 442.2 242.6"/>
              <path class="st47" d="M445.5,240.7l-2,1.2v10s2.1-1.2,2.1-1.2v-10M444.5,236.8c-.4.2-.7.5-.9.9-.2.4-.4.8-.4,1.2s.1.6.4.8c.2.1.6,0,.9-.1s.7-.5.9-1c.2-.4.4-.8.4-1.2s-.1-.6-.4-.8c-.2-.1-.6,0-.9.2"/>
              <path class="st47" d="M452.2,236.7c-.9.5-1.7,1.2-2.4,2.1-.7.8-1.3,1.8-1.7,2.8-.4,1-.6,2-.6,3s.2,1.7.6,2.3c.4.5,1,.8,1.7.9s1.5-.2,2.4-.7,1.6-1.1,2.2-1.9c.6-.8,1.1-1.6,1.5-2.6h-1.6c-.3.5-.6,1-.9,1.4-.4.4-.8.8-1.2,1s-.9.4-1.3.4c-.4,0-.7-.2-.9-.5-.2-.3-.3-.8-.3-1.5s.1-1.3.3-1.9c.2-.6.5-1.1.9-1.6.4-.5.8-.9,1.3-1.2s.8-.4,1.2-.4c.4,0,.7.2,1,.5l1.6-1.9c-.3-.6-.8-.9-1.5-.9-.6,0-1.4.2-2.2.7"/>
              <path class="st47" d="M458.8,237.2c0-.4.1-.8.3-1.2.2-.6.5-1.1.9-1.6.4-.5.8-.8,1.3-1.1s.9-.4,1.3-.4c.4,0,.7.2.9.5.2.2.3.5.3.9l-4.9,2.8M461.3,231.5c-.9.5-1.6,1.2-2.3,2-.7.8-1.2,1.7-1.6,2.7-.4,1-.6,2-.6,3s.2,1.7.6,2.3,1,.8,1.7.9c.7,0,1.6-.2,2.5-.8s1.4-1,2-1.6c.6-.6,1.1-1.3,1.5-2.1l-1.1-.8c-.3.6-.6,1-1,1.4-.4.4-.8.7-1.3,1s-1.1.5-1.5.5c-.4,0-.8-.2-1-.5-.2-.2-.3-.5-.3-.8l6.8-3.9c0-.1,0-.2,0-.4,0-.1,0-.2,0-.3,0-1-.2-1.8-.6-2.4-.4-.5-.9-.9-1.6-.9-.7,0-1.4.2-2.3.7"/>
              <path class="st47" d="M474.4,222.9l2.5-1.4c.9-.5,1.6-.7,2.1-.5s.7.7.7,1.5-.2,1.6-.7,2.3c-.5.7-1.2,1.4-2.1,1.9l-2.5,1.4v-5.2M477,219.4l-4.7,2.7v13.1s2.2-1.2,2.2-1.2v-3.8s2.6-1.5,2.6-1.5c.2,0,.3-.2.4-.3l2.3,2.5,2.3-1.3-2.6-2.8c0,0,.1-.1.2-.2.7-.8,1.3-1.6,1.7-2.5.4-.9.6-1.9.6-2.8s-.2-1.7-.6-2.2c-.4-.5-.9-.7-1.7-.6-.7,0-1.6.4-2.6.9"/>
              <path class="st47" d="M485.3,221.9c0-.4.1-.8.3-1.2.2-.6.5-1.1.9-1.6.4-.5.8-.8,1.3-1.1s.9-.4,1.3-.4c.4,0,.7.2.9.5.2.2.3.5.3.9l-4.9,2.8M487.8,216.2c-.9.5-1.6,1.2-2.3,2-.7.8-1.2,1.7-1.6,2.7-.4,1-.6,2-.6,3s.2,1.7.6,2.3,1,.8,1.7.9c.7,0,1.6-.2,2.5-.8s1.4-1,2-1.6c.6-.6,1.1-1.3,1.5-2.1l-1.1-.8c-.3.6-.6,1-1,1.4-.4.4-.8.7-1.3,1s-1.1.5-1.5.5c-.4,0-.8-.2-1-.5-.2-.2-.3-.5-.3-.8l6.8-3.9c0-.1,0-.2,0-.4,0-.1,0-.2,0-.3,0-1-.2-1.8-.6-2.4-.4-.5-.9-.9-1.6-.9-.7,0-1.4.2-2.3.7"/>
              <path class="st47" d="M498,218.5c-.5.3-.9.4-1.3.4-.4,0-.7-.2-.9-.6-.2-.3-.3-.8-.3-1.5s.1-1.3.3-1.9c.2-.6.5-1.1.9-1.6.4-.5.8-.8,1.3-1.1s.9-.4,1.3-.4c.4,0,.7.2.9.5.2.3.3.8.3,1.5s-.1,1.3-.3,1.9c-.2.6-.5,1.1-.9,1.6-.4.5-.8.9-1.3,1.1M497.8,210.4c-.8.5-1.6,1.1-2.3,1.9-.7.8-1.2,1.7-1.6,2.7-.4,1-.6,2-.6,3s.2,1.8.6,2.4c.4.5.9.8,1.6.9.7,0,1.4-.2,2.3-.7s1.4-1,1.9-1.7c.3-.4.6-.8.8-1.3v4.9s2-1.2,2-1.2v-13.6s-2,1.1-2,1.1v1.3c-.3-.2-.6-.3-.9-.4-.6,0-1.2.2-2,.6"/>
              <path class="st47" d="M513.7,201.3l-2,1.2v5c0,.7,0,1.3-.3,1.8-.2.6-.5,1.1-.8,1.5-.4.4-.8.8-1.2,1.1s-1.1.4-1.5.2c-.4-.2-.5-.8-.5-1.7v-5.4s-2,1.2-2,1.2v5.7c0,1,.2,1.7.5,2.2.3.5.8.7,1.3.7.6,0,1.2-.2,1.9-.7s1.3-.9,1.9-1.6c.4-.4.7-.9.9-1.4v1.3s1.9-1.1,1.9-1.1v-10"/>
              <path class="st47" d="M517.6,203.2c0-.4.1-.8.3-1.2.2-.6.5-1.1.9-1.5.4-.5.8-.8,1.3-1.1s.9-.4,1.3-.4c.4,0,.7.2.9.5.2.2.3.5.3.9l-4.9,2.9M520.1,197.5c-.9.5-1.6,1.2-2.3,2-.7.8-1.2,1.7-1.6,2.7-.4,1-.6,2-.6,3s.2,1.8.6,2.3,1,.8,1.7.8c.7,0,1.6-.2,2.5-.8s1.4-1,2-1.6c.6-.6,1.1-1.3,1.5-2.1l-1.1-.8c-.3.5-.6,1-1,1.4-.4.4-.8.7-1.3,1s-1.1.5-1.5.5c-.4,0-.8-.2-1-.5-.1-.2-.3-.5-.3-.8l6.8-3.9c0-.1,0-.2,0-.4,0-.1,0-.2,0-.3,0-1-.2-1.8-.6-2.4-.4-.6-.9-.9-1.6-.9-.7,0-1.4.2-2.3.7"/>
              <path class="st47" d="M529.5,192.1c-.8.4-1.5,1-2,1.6-.6.6-1,1.2-1.3,1.9-.3.6-.5,1.3-.5,1.9s.1,1,.3,1.2c.2.2.5.4.8.4.3,0,.7,0,1-.1.4-.1.8-.3,1.2-.4.4-.2.7-.3,1-.4.3-.1.6-.1.8-.1.2,0,.3.2.3.5s-.1.7-.4,1.1c-.3.4-.7.7-1.4,1.1s-1.1.5-1.6.7c-.5.1-1,.2-1.4,0l-.8,2.2c.4,0,.9,0,1.6-.1.7-.2,1.4-.5,2.1-.9s1.5-1,2.1-1.6c.6-.6,1-1.2,1.4-1.9.3-.6.5-1.3.5-1.9s0-1-.3-1.2c-.2-.2-.5-.4-.8-.4-.3,0-.7,0-1,.1-.4.1-.8.2-1.1.4-.4.2-.7.3-1,.4-.3,0-.6.1-.8,0-.2,0-.3-.2-.3-.5s.1-.7.4-1.1c.3-.4.8-.8,1.4-1.1s.8-.4,1.2-.6c.4-.1.8-.2,1.2-.1l.8-2.2c-.4,0-.9,0-1.5.2-.6.2-1.2.5-1.8.8"/>
              <path class="st47" d="M537.1,185.6l-2,1.2v2.3s-1.4.8-1.4.8v1.9s1.4-.8,1.4-.8v4.8c0,1.1.3,1.8.8,2.1.5.3,1.3.1,2.2-.4s.7-.5,1.1-.8c.3-.3.6-.7.9-1l-.6-1.3c-.3.5-.7.8-1.1,1.1s-.7.3-.9.1-.3-.5-.3-.9v-4.7s2.3-1.3,2.3-1.3v-1.9s-2.3,1.3-2.3,1.3v-2.3"/>
              <path class="st47" d="M542.7,188.7c0-.4.1-.8.3-1.2.2-.6.5-1.1.9-1.5.4-.5.8-.8,1.3-1.1s.9-.4,1.3-.4c.4,0,.7.2.9.5.1.2.2.5.3.9l-4.9,2.9M545.2,183c-.9.5-1.6,1.2-2.3,2-.7.8-1.2,1.7-1.6,2.7-.4,1-.6,2-.6,3s.2,1.7.6,2.3,1,.8,1.7.9,1.6-.2,2.5-.8,1.4-1,2-1.6c.6-.6,1.1-1.3,1.5-2.1l-1.1-.8c-.3.6-.6,1-1,1.4-.4.4-.8.7-1.3,1s-1.1.5-1.5.5c-.4,0-.8-.2-1-.5-.1-.2-.3-.5-.3-.8l6.8-3.9c0-.1,0-.2,0-.4,0-.1,0-.2,0-.3,0-1-.2-1.8-.6-2.4-.4-.5-.9-.9-1.6-.9-.7,0-1.4.2-2.3.7"/>
              <path class="st47" d="M555.5,185.3c-.5.3-.9.4-1.3.4-.4,0-.7-.2-.9-.5-.2-.3-.4-.8-.4-1.5s.1-1.3.3-1.9c.2-.6.5-1.1.9-1.6.4-.5.8-.8,1.3-1.1s.9-.4,1.3-.4c.4,0,.7.2.9.5.2.3.4.8.4,1.5s-.1,1.3-.3,1.9c-.2.6-.5,1.1-.9,1.6-.4.5-.8.8-1.3,1.1M560,170.7l-2,1.2v5.1c-.2-.2-.5-.3-.8-.3-.6,0-1.2.2-1.9.6s-1.6,1.1-2.3,1.9c-.7.8-1.2,1.7-1.6,2.7-.4,1-.6,2-.6,3s.2,1.8.6,2.4c.4.5.9.8,1.6.9.7,0,1.4-.2,2.3-.7s1.4-1,2-1.7c.3-.4.6-.9.9-1.4v1.3s1.9-1.1,1.9-1.1v-13.9"/>
            </g>
          </g>
        </g>
        <g class="st35">
          <g class="st18">
            <g>
              <path class="st47" d="M410.7,245.4c-.4.3-.8.4-1.2.4-.4,0-.7,0-1-.2-.3-.2-.5-.4-.7-.8-.2-.4-.2-.8-.2-1.4s0-1.1.2-1.7c.2-.5.4-1.1.6-1.5.3-.5.6-.9,1-1.3.4-.4.8-.7,1.2-1s.8-.4,1.2-.4c.4,0,.7,0,1,.2.3.2.5.4.7.8.2.4.2.8.2,1.4s0,1.1-.2,1.7c-.2.6-.4,1.1-.6,1.6-.3.5-.6.9-1,1.3-.4.4-.8.7-1.2,1M410.6,234.8c-.9.5-1.7,1.2-2.5,2-.8.8-1.4,1.6-2,2.6-.6.9-1,1.9-1.3,2.9-.3,1-.5,2-.5,3s.2,1.8.5,2.4c.3.6.8,1.1,1.3,1.4s1.2.4,2,.3c.8-.1,1.6-.4,2.5-.9s1.8-1.2,2.5-2c.8-.8,1.4-1.6,2-2.6.6-.9,1-1.9,1.3-2.9.3-1,.5-2,.5-3s-.2-1.8-.5-2.4c-.3-.6-.8-1.1-1.3-1.4-.6-.3-1.2-.4-2-.3-.8.1-1.6.4-2.5,1"/>
              <polyline class="st47" points="421.9 228.6 418.7 230.5 418.7 243.5 421.9 241.7 421.9 228.6"/>
              <polyline class="st47" points="427.4 225.4 424.2 227.3 424.2 240.4 432.8 235.4 432.8 232.4 427.4 235.6 427.4 225.4"/>
              <polyline class="st47" points="447.9 213.6 437.7 219.5 437.7 222.4 441.2 220.4 441.3 230.5 444.5 228.7 444.5 218.5 447.9 216.5 447.9 213.6"/>
              <path class="st47" d="M452.3,218.8l1.4-5,1.5,3.3-2.9,1.7M455.4,209.3l-3.2,1.8-5,16,3.3-1.9.9-3.1,4.8-2.8.9,2,3.4-1.9-5.1-10.2"/>
              <polyline class="st47" points="472.2 199.6 469 201.4 469 208.4 464 204.3 461.3 205.8 461.4 218.9 464.5 217.1 464.5 210.1 469.6 214.2 472.2 212.7 472.2 199.6"/>
              <polyline class="st47" points="485.6 191.8 482 193.9 477.6 201.9 477.6 196.4 474.4 198.3 474.5 211.3 477.7 209.5 477.7 206.2 478.8 204.1 482.1 206.9 485.9 204.8 480.9 200.3 485.6 191.8"/>
              <path class="st47" d="M495.2,194.1l1.4-5,1.5,3.3-2.9,1.7M498.2,184.5l-3.2,1.8-5,16,3.3-1.9.9-3.1,4.8-2.8.9,2,3.4-1.9-5.1-10.2"/>
              <path class="st47" d="M507.4,187l2.7-1.6c.6-.3,1-.5,1.3-.4.3,0,.4.3.4.7s-.1.9-.4,1.3c-.3.4-.7.7-1.3,1l-2.7,1.6v-2.6M507.4,184.5v-2.5s2.2-1.3,2.2-1.3c.5-.3.9-.4,1.2-.4.3,0,.4.3.4.7s-.1.8-.4,1.2c-.3.4-.7.7-1.2,1l-2.2,1.3M510,177.7l-5.8,3.4v13.1s6.2-3.5,6.2-3.5c1.5-.9,2.7-1.9,3.5-3,.8-1.1,1.2-2.2,1.2-3.3s-.2-1.3-.5-1.6c-.3-.3-.8-.5-1.4-.4,0,0-.1,0-.2,0,.4-.5.8-1.1,1.1-1.7.3-.7.5-1.4.5-2,0-1-.4-1.6-1.1-1.8-.7-.2-1.9.1-3.3,1"/>
              <path class="st47" d="M522.3,170.3c-.9.5-1.7,1.2-2.5,1.9-.8.8-1.4,1.6-2,2.6-.6.9-1,1.9-1.3,2.9s-.5,2-.5,3,.2,1.8.5,2.5c.3.6.8,1.1,1.3,1.4.6.3,1.2.4,2,.3.8-.1,1.6-.4,2.5-.9s2-1.4,2.8-2.3c.8-.9,1.5-1.9,2.1-3l-2.1-.9c-.4.7-.8,1.3-1.2,1.8-.4.5-.9.9-1.5,1.2s-.9.4-1.3.5c-.4,0-.7,0-1-.2-.3-.2-.5-.4-.6-.8-.2-.4-.2-.8-.2-1.4s0-1.1.2-1.7c.2-.5.4-1.1.6-1.6.3-.5.6-.9,1-1.3.4-.4.8-.7,1.3-1s1-.5,1.5-.5c.4,0,.8.2,1.2.4l2-3.3c-.6-.5-1.2-.7-2.1-.6-.8,0-1.8.4-2.8,1"/>
            </g>
          </g>
        </g>
        <g class="st35">
          <g class="st19">
            <g>
              <path class="st47" d="M410.4,292.2c-.7.4-1.2.5-1.7.4-.5-.1-.9-.5-1.2-1.1-.3-.6-.4-1.5-.4-2.7s.1-2.2.4-3.2c.3-1,.7-1.8,1.2-2.5.5-.7,1.1-1.3,1.7-1.6s1.3-.5,1.8-.4c.5.1.9.5,1.2,1.2.3.6.4,1.5.4,2.7s-.1,2.2-.4,3.2c-.3,1-.7,1.8-1.2,2.5-.5.7-1.1,1.3-1.8,1.6M410.4,280.2c-.9.5-1.7,1.2-2.3,2.1-.7.9-1.2,2-1.6,3.2-.4,1.2-.6,2.5-.6,3.9s.2,2.5.6,3.2c.4.8.9,1.2,1.6,1.3.7.1,1.5,0,2.3-.6s1.7-1.2,2.3-2.1c.7-.9,1.2-2,1.6-3.2.4-1.2.6-2.5.6-3.9s-.2-2.5-.6-3.2c-.4-.8-.9-1.2-1.6-1.3-.7-.1-1.5,0-2.3.6"/>
              <polyline class="st47" points="419.7 274.9 415.9 277.1 415.9 278.3 418.6 276.7 418.6 288.6 419.8 287.9 419.7 274.9"/>
              <path class="st47" d="M439.5,263.4l-1,.6-4.9,12.5-5-6.8-1,.6v13.1s1.2-.7,1.2-.7v-10.4s4.5,6.1,4.5,6.1l.6-.3,4.4-11.4v10.5s1.2-.7,1.2-.7v-13.1"/>
              <path class="st47" d="M445.6,272.1c-.7.4-1.2.5-1.6.4-.4-.1-.6-.5-.6-1s.2-1,.5-1.5c.3-.5.9-1,1.7-1.5l2.7-1.5v1.6c-.2.8-.6,1.5-1,2.1-.5.6-1,1.1-1.7,1.5M446,262.9c-.7.4-1.3.9-1.9,1.5-.6.6-1.1,1.2-1.6,1.9l.5.7c.3-.5.8-1.1,1.3-1.6.5-.5,1-.9,1.6-1.2.8-.5,1.4-.6,1.8-.4.4.2.6.7.6,1.6v.6s-2.7,1.6-2.7,1.6c-.8.5-1.5,1-1.9,1.5-.5.5-.8,1.1-1,1.6-.2.5-.3,1.1-.3,1.6s.1,1,.4,1.3c.3.3.6.4,1.1.4.5,0,1-.2,1.7-.6s1.5-1,2-1.7c.4-.5.7-1,.9-1.6v1.5s1.1-.6,1.1-.6v-6.1c0-1.3-.3-2.1-.9-2.3-.6-.3-1.5-.1-2.6.5"/>
              <path class="st47" d="M459.6,255.1l-1.1.7-3.2,10.2-3.2-6.5-1.2.7,3.8,7.6-.4,1.2c-.2.8-.5,1.3-.8,1.7-.3.4-.6.7-1,.9s-.6.3-.8.3c-.3,0-.5,0-.7-.1l-.5,1.3c.3.1.6.2.9.1.4,0,.7-.2,1.1-.4s.8-.5,1.1-.9c.3-.3.7-.8.9-1.3s.5-1.2.8-2l4.2-13.5"/>
              <path class="st47" d="M468.2,246.8c-.9.5-1.6,1.1-2.3,1.8-.7.7-1.3,1.5-1.7,2.4l.8.3c.4-.7.8-1.3,1.3-1.9.5-.5,1.1-1,1.8-1.4s1.5-.7,2-.5c.4.2.7.6.7,1.4s0,.6-.1,1c0,.4-.2.8-.4,1.3s-.5,1.1-1,1.8l-4.7,8.1v1s8-4.6,8-4.6v-1.2s-6.3,3.6-6.3,3.6l3.9-6.6c.5-.9.9-1.6,1.2-2.2.3-.6.5-1.1.6-1.6s.2-.9.1-1.3c0-.7-.2-1.3-.5-1.6-.3-.4-.7-.5-1.3-.5-.6,0-1.2.3-2,.7"/>
              <path class="st47" d="M478.5,252.9c-.7.4-1.2.5-1.7.4-.5-.1-.9-.5-1.2-1.2-.3-.6-.4-1.5-.4-2.7s.1-2.2.4-3.2c.3-1,.7-1.8,1.2-2.5.5-.7,1.1-1.3,1.7-1.6s1.3-.5,1.8-.4.9.5,1.2,1.2c.3.6.4,1.5.4,2.7s-.1,2.2-.4,3.2c-.3,1-.7,1.8-1.2,2.5-.5.7-1.1,1.3-1.8,1.6M478.5,240.8c-.9.5-1.7,1.2-2.3,2.1-.7.9-1.2,2-1.6,3.2-.4,1.2-.6,2.5-.6,3.9s.2,2.5.6,3.2c.4.8.9,1.2,1.6,1.4.7.1,1.5,0,2.3-.6s1.7-1.2,2.3-2.1c.7-.9,1.2-2,1.6-3.2.4-1.2.6-2.5.6-3.9s-.2-2.5-.6-3.2c-.4-.8-.9-1.2-1.6-1.3-.7-.1-1.5,0-2.3.6"/>
              <path class="st47" d="M488.2,235.2c-.9.5-1.6,1.1-2.3,1.8-.7.7-1.3,1.5-1.7,2.4l.8.3c.4-.7.8-1.3,1.3-1.9.5-.5,1.1-1,1.8-1.4s1.5-.7,2-.5c.5.2.7.6.7,1.4s0,.6-.1,1c0,.4-.2.8-.4,1.3s-.5,1.1-1,1.8l-4.7,8.1v1s8-4.6,8-4.6v-1.2s-6.3,3.6-6.3,3.6l3.9-6.6c.5-.9.9-1.6,1.2-2.2.3-.6.4-1.1.5-1.6.1-.5.2-.9.1-1.3,0-.7-.2-1.3-.5-1.6-.3-.4-.7-.5-1.3-.5-.6,0-1.2.3-2,.7"/>
              <path class="st47" d="M501,227.9l-7.3,4.2v1.2s5.8-3.4,5.8-3.4l-3.1,6.3v1s.8-.5.8-.5c1.1-.6,1.8-.8,2.3-.6.5.2.7.7.7,1.5s-.2,1.6-.7,2.3c-.5.8-1.2,1.4-2.2,2s-1.4.7-2,.7c-.6,0-1.1,0-1.5-.2l-.6,1.4c.4.2,1,.3,1.8.2.7-.1,1.5-.4,2.3-.9s1.7-1.1,2.3-1.8c.6-.7,1.1-1.4,1.4-2.2.3-.8.5-1.5.5-2.2,0-1.1-.3-1.8-1-2.1-.6-.3-1.5-.1-2.6.5l3.2-6.5v-.9"/>
            </g>
          </g>
        </g>
        <g class="st35">
          <g class="st37">
            <g>
              <polyline class="st47" points="428.4 404.7 426.3 405.9 422.5 418.2 418.7 410.3 416.4 411.6 421.4 421.8 423.5 420.6 428.4 404.7"/>
              <path class="st47" d="M430.1,411c0-.4.1-.8.3-1.2.2-.6.5-1.1.9-1.5.4-.5.8-.8,1.3-1.1s.9-.4,1.3-.4c.4,0,.7.2.9.5.2.2.3.5.3.9l-4.9,2.9M432.5,405.3c-.9.5-1.6,1.2-2.3,2-.7.8-1.2,1.7-1.6,2.7-.4,1-.6,2-.6,3s.2,1.7.6,2.3c.4.5,1,.8,1.7.9.7,0,1.6-.2,2.5-.8s1.4-1,2-1.6c.6-.6,1.1-1.3,1.5-2.1l-1.1-.8c-.3.6-.6,1-1,1.4-.4.4-.8.7-1.3,1s-1.1.5-1.5.5c-.4,0-.8-.2-1-.5-.2-.2-.3-.5-.3-.8l6.8-3.9c0-.1,0-.2,0-.4s0-.2,0-.3c0-1-.2-1.8-.6-2.4s-.9-.9-1.6-.9c-.7,0-1.4.2-2.3.7"/>
              <path class="st47" d="M443.9,398.7c-.8.5-1.5,1.1-2.1,1.7-.4.5-.7,1-1,1.6v-1.5s-1.9,1.1-1.9,1.1v10s2.1-1.2,2.1-1.2v-4.8c0-1,.2-1.9.7-2.7.5-.8,1.1-1.4,1.8-1.8s.2,0,.2-.1c0,0,.2,0,.2,0v-2.2"/>
              <path class="st47" d="M447.6,396.6l-2,1.2v10s2.1-1.2,2.1-1.2v-10M446.6,392.8c-.4.2-.7.5-.9.9-.2.4-.4.8-.4,1.2s.1.6.4.8c.2.1.6,0,.9-.1s.7-.5.9-1c.2-.4.4-.8.4-1.2s-.1-.6-.4-.8c-.2-.1-.6,0-.9.1"/>
              <path class="st47" d="M458.4,390.4l-2,1.2v10s2.1-1.2,2.1-1.2v-10M453.7,389.1c-1,.6-1.8,1.3-2.3,2.3-.5.9-.8,1.9-.8,3v.6s-1.4.8-1.4.8v1.9s1.4-.8,1.4-.8v8s2.1-1.2,2.1-1.2v-8s2.3-1.3,2.3-1.3v-1.9s-2.4,1.4-2.4,1.4v-.6c0-.5.1-1,.3-1.4.2-.4.5-.7,1-1s.4-.2.6-.2c.2,0,.4,0,.5,0l.6-2.1c-.2,0-.5,0-.8,0-.3,0-.7.3-1,.5M457.4,386.6c-.4.2-.7.5-.9.9-.2.4-.4.8-.4,1.2s.1.6.4.8c.2.1.6,0,.9-.1s.7-.5.9-1c.2-.4.4-.8.4-1.2s-.1-.6-.4-.7c-.2-.1-.6,0-.9.1"/>
              <path class="st47" d="M462.4,392.3c0-.4.1-.8.3-1.2.2-.6.5-1.1.9-1.5.4-.5.8-.8,1.3-1.1s.9-.4,1.3-.4c.4,0,.7.2.9.5.2.2.3.5.3.9l-4.9,2.9M464.8,386.6c-.9.5-1.6,1.2-2.3,2-.7.8-1.2,1.7-1.6,2.7-.4,1-.6,2-.6,3s.2,1.7.6,2.3c.4.5,1,.8,1.7.9.7,0,1.6-.2,2.5-.8s1.4-1,2-1.6c.6-.6,1.1-1.3,1.5-2.1l-1.1-.8c-.3.6-.6,1-1,1.4-.4.4-.8.7-1.3,1s-1.1.5-1.5.5c-.4,0-.8-.2-1-.5-.2-.2-.3-.5-.3-.8l6.8-3.9c0-.1,0-.2,0-.4s0-.2,0-.3c0-1-.2-1.8-.6-2.4s-.9-.9-1.6-.9c-.7,0-1.4.2-2.3.7"/>
              <path class="st47" d="M475.1,388.9c-.5.3-.9.4-1.3.4-.4,0-.7-.2-.9-.5-.2-.3-.4-.8-.4-1.5s.1-1.3.3-1.9c.2-.6.5-1.1.9-1.6.4-.5.8-.8,1.3-1.1s.9-.4,1.3-.4c.4,0,.7.2.9.5.2.3.4.8.4,1.5s-.1,1.3-.3,1.9c-.2.6-.5,1.1-.9,1.6-.4.5-.8.8-1.3,1.1M479.7,374.3l-2,1.2v5.1c-.2-.2-.5-.3-.8-.3-.6,0-1.2.2-2,.6s-1.6,1.1-2.3,1.9c-.7.8-1.2,1.7-1.6,2.7-.4,1-.6,2-.6,3s.2,1.8.6,2.4c.4.5.9.8,1.6.9.7,0,1.4-.2,2.3-.7s1.4-1,2-1.7c.3-.4.6-.9.9-1.4v1.3s1.9-1.1,1.9-1.1v-13.9"/>
            </g>
          </g>
        </g>
        <g class="st35">
          <g class="st22">
            <g>
              <path class="st47" d="M422.1,397c-.4.3-.8.4-1.2.4-.4,0-.7,0-1-.2s-.5-.4-.7-.8c-.2-.4-.2-.8-.2-1.4s0-1.1.2-1.7c.2-.5.4-1.1.6-1.6s.6-.9,1-1.3c.4-.4.8-.7,1.2-1s.8-.4,1.2-.4.7,0,1,.2c.3.2.5.4.6.8.2.4.2.8.2,1.4s0,1.1-.2,1.7c-.2.6-.4,1.1-.6,1.6-.3.5-.6.9-1,1.3-.4.4-.8.7-1.2,1M422.1,386.5c-.9.5-1.7,1.2-2.5,2-.8.8-1.4,1.6-2,2.6-.6.9-1,1.9-1.3,2.9-.3,1-.5,2-.5,3s.2,1.8.5,2.4c.3.6.8,1.1,1.3,1.4.6.3,1.2.4,2,.3.8-.1,1.6-.4,2.5-1s1.8-1.2,2.5-2c.8-.8,1.4-1.6,2-2.6.6-.9,1-1.9,1.3-2.9.3-1,.5-2,.5-3s-.2-1.8-.5-2.4c-.3-.6-.8-1.1-1.3-1.4-.6-.3-1.2-.4-2-.3-.8.1-1.6.4-2.5,1"/>
              <polyline class="st47" points="433.3 380.3 430.1 382.1 430.2 395.2 433.4 393.3 433.3 380.3"/>
              <polyline class="st47" points="438.8 377.1 435.6 378.9 435.7 392 444.3 387 444.3 384.1 438.9 387.2 438.8 377.1"/>
              <polyline class="st47" points="459.4 365.2 449.2 371.1 449.2 374 452.7 372 452.7 382.2 456 380.3 455.9 370.2 459.4 368.1 459.4 365.2"/>
              <path class="st47" d="M463.8,370.5l1.4-5,1.5,3.3-2.9,1.7M466.9,360.9l-3.2,1.8-5,16,3.3-1.9.9-3.1,4.8-2.8.9,2,3.3-1.9-5.1-10.2"/>
              <polyline class="st47" points="483.6 351.2 480.5 353 480.5 360 475.5 355.9 472.8 357.5 472.8 370.5 476 368.7 476 361.8 481 365.8 483.7 364.3 483.6 351.2"/>
              <polyline class="st47" points="497 343.5 493.5 345.5 489.1 353.5 489.1 348.1 485.9 349.9 485.9 363 489.1 361.1 489.1 357.9 490.3 355.7 493.6 358.6 497.3 356.4 492.4 351.9 497 343.5"/>
              <path class="st47" d="M506.6,345.8l1.4-5,1.5,3.3-2.9,1.7M509.7,336.2l-3.2,1.8-5,16,3.3-1.9.9-3.1,4.8-2.8.9,2,3.3-1.9-5.1-10.2"/>
              <path class="st47" d="M518.8,338.7l2.7-1.6c.6-.3,1-.5,1.3-.4.3,0,.4.3.4.8s-.1.9-.4,1.2c-.3.4-.7.7-1.3,1.1l-2.7,1.6v-2.7M518.8,336.1v-2.5s2.2-1.3,2.2-1.3c.5-.3.9-.4,1.2-.4.3,0,.4.3.4.7s-.1.8-.4,1.2c-.3.4-.7.7-1.2,1l-2.2,1.3M521.5,329.4l-5.8,3.4v13.1s6.2-3.5,6.2-3.5c1.5-.9,2.7-1.9,3.5-3s1.2-2.2,1.2-3.3-.2-1.3-.5-1.7c-.3-.3-.8-.5-1.4-.4,0,0-.1,0-.2,0,.5-.5.8-1.1,1.1-1.7.3-.7.5-1.4.5-2,0-1-.4-1.6-1.1-1.8-.7-.2-1.9.1-3.4,1"/>
              <path class="st47" d="M533.8,322c-.9.5-1.7,1.2-2.5,1.9-.8.8-1.4,1.6-2,2.6-.6.9-1,1.9-1.3,2.9-.3,1-.5,2-.5,3s.2,1.8.5,2.5c.3.6.8,1.1,1.3,1.4.6.3,1.2.4,2,.3s1.6-.4,2.5-.9,2-1.4,2.8-2.3c.8-.9,1.5-1.9,2.1-3l-2.1-.9c-.4.7-.8,1.3-1.2,1.8-.4.5-.9.9-1.5,1.2s-.9.4-1.3.5c-.4,0-.7,0-1-.2-.3-.2-.5-.4-.7-.8-.2-.4-.2-.8-.2-1.4s0-1.1.2-1.7c.2-.6.4-1.1.6-1.6.3-.5.6-.9,1-1.3.4-.4.8-.7,1.3-1s1-.5,1.5-.5c.4,0,.8.2,1.2.4l2-3.3c-.6-.5-1.2-.7-2.1-.6-.8,0-1.8.4-2.8,1"/>
            </g>
          </g>
        </g>
        <g class="st35">
          <g class="st23">
            <g>
              <path class="st47" d="M423.1,441.3c-.7.4-1.2.5-1.7.4-.5-.1-.9-.5-1.2-1.1-.3-.6-.4-1.5-.4-2.7s.1-2.2.4-3.2c.3-1,.7-1.8,1.2-2.5.5-.7,1.1-1.3,1.7-1.6s1.3-.5,1.8-.4c.5.1.9.5,1.2,1.2.3.6.4,1.5.4,2.7s-.1,2.2-.4,3.2c-.3,1-.7,1.8-1.2,2.5-.5.7-1.1,1.3-1.8,1.6M423.1,429.3c-.9.5-1.7,1.2-2.3,2.1-.7.9-1.2,2-1.6,3.2-.4,1.2-.6,2.5-.6,3.9s.2,2.5.6,3.2c.4.8.9,1.2,1.6,1.4.7.1,1.5,0,2.3-.6s1.7-1.2,2.3-2.1c.7-.9,1.2-2,1.6-3.2.4-1.2.6-2.5.6-3.9s-.2-2.5-.6-3.2c-.4-.8-.9-1.2-1.6-1.3-.7-.1-1.5,0-2.3.6"/>
              <polyline class="st47" points="432.5 424 428.6 426.2 428.6 427.4 431.3 425.8 431.4 437.7 432.5 437 432.5 424"/>
              <path class="st47" d="M452.3,412.5l-1,.6-4.9,12.5-5-6.8-1,.6v13.1s1.2-.7,1.2-.7v-10.4s4.5,6.1,4.5,6.1l.6-.3,4.4-11.4v10.5s1.2-.7,1.2-.7v-13.1"/>
              <path class="st47" d="M458.4,421.2c-.7.4-1.2.5-1.6.4-.4-.1-.6-.4-.6-1s.2-1,.5-1.5c.3-.5.9-1,1.7-1.5l2.7-1.5v1.6c-.2.8-.6,1.5-1,2.1-.5.6-1,1.1-1.7,1.5M458.7,412c-.7.4-1.3.9-1.9,1.5-.6.6-1.1,1.2-1.6,1.9l.5.7c.3-.5.8-1.1,1.3-1.6.5-.5,1-.9,1.6-1.2.8-.5,1.4-.6,1.8-.4.4.2.6.7.6,1.6v.6s-2.7,1.6-2.7,1.6c-.8.5-1.5,1-1.9,1.5-.5.5-.8,1.1-1,1.6-.2.5-.3,1.1-.3,1.6s.1,1,.4,1.3c.3.3.6.4,1.1.4.5,0,1-.2,1.7-.6s1.5-1.1,2-1.7c.4-.5.7-1,.9-1.6v1.5s1.1-.6,1.1-.6v-6.1c0-1.3-.3-2.1-.9-2.3-.6-.3-1.5,0-2.6.5"/>
              <path class="st47" d="M472.4,404.2l-1.1.7-3.2,10.2-3.2-6.5-1.2.7,3.8,7.6-.4,1.2c-.2.8-.5,1.3-.8,1.7-.3.4-.6.7-1,.9s-.6.3-.8.3c-.3,0-.5,0-.7-.1l-.5,1.3c.3.1.6.2.9.1.4,0,.7-.2,1.1-.4s.8-.5,1.1-.9c.3-.3.7-.8.9-1.3s.5-1.2.8-2l4.2-13.4"/>
              <path class="st47" d="M480.9,395.9c-.9.5-1.6,1.1-2.3,1.8-.7.7-1.3,1.5-1.7,2.4l.8.3c.4-.7.8-1.3,1.3-1.9.5-.5,1.1-1,1.8-1.4s1.5-.7,2-.5c.4.2.7.6.7,1.4s0,.6-.1,1-.2.8-.4,1.3c-.2.5-.5,1.1-1,1.8l-4.7,8v1s8-4.6,8-4.6v-1.2s-6.3,3.6-6.3,3.6l3.9-6.6c.5-.9.9-1.6,1.2-2.2.3-.6.5-1.1.6-1.6.1-.5.2-.9.1-1.3,0-.7-.2-1.3-.5-1.6-.3-.4-.7-.5-1.3-.5-.6,0-1.2.3-2,.7"/>
              <path class="st47" d="M491.2,402c-.7.4-1.2.5-1.7.4-.5-.1-.9-.5-1.2-1.1-.3-.6-.4-1.5-.4-2.7s.1-2.2.4-3.2c.3-1,.7-1.8,1.2-2.5.5-.7,1.1-1.3,1.7-1.6s1.3-.5,1.8-.4c.5.1.9.5,1.2,1.2.3.6.4,1.5.4,2.7s-.1,2.2-.4,3.2c-.3,1-.7,1.8-1.2,2.5-.5.7-1.1,1.3-1.8,1.6M491.2,389.9c-.9.5-1.7,1.2-2.3,2.1-.7.9-1.2,2-1.6,3.2-.4,1.2-.6,2.5-.6,3.9s.2,2.5.6,3.2c.4.8.9,1.2,1.6,1.4.7.1,1.5,0,2.3-.6s1.7-1.2,2.3-2.1c.7-.9,1.2-2,1.6-3.2.4-1.2.6-2.5.6-3.9s-.2-2.5-.6-3.2c-.4-.8-.9-1.2-1.6-1.3-.7-.1-1.5,0-2.3.6"/>
              <path class="st47" d="M500.9,384.3c-.9.5-1.6,1.1-2.3,1.8-.7.7-1.3,1.5-1.7,2.4l.8.3c.4-.7.8-1.3,1.3-1.9.5-.5,1.1-1,1.8-1.4s1.5-.7,2-.5c.5.2.7.6.7,1.4s0,.6-.1,1-.2.8-.4,1.3c-.2.5-.5,1.1-1,1.8l-4.7,8.1v1s8-4.6,8-4.6v-1.2s-6.3,3.6-6.3,3.6l3.9-6.6c.5-.9.9-1.6,1.2-2.2.3-.6.5-1.1.6-1.6.1-.5.2-.9.1-1.3,0-.7-.2-1.3-.5-1.6-.3-.4-.7-.5-1.3-.5-.6,0-1.2.3-2,.7"/>
              <path class="st47" d="M513.8,377l-7.3,4.2v1.2s5.8-3.4,5.8-3.4l-3.1,6.4v1s.8-.5.8-.5c1.1-.6,1.8-.8,2.3-.6.5.2.7.7.7,1.5s-.2,1.6-.7,2.3c-.5.8-1.2,1.4-2.2,2s-1.4.7-2,.8c-.6,0-1.1,0-1.5-.2l-.6,1.4c.4.3,1,.3,1.8.2.7-.1,1.5-.4,2.3-.9s1.7-1.1,2.3-1.8c.6-.7,1.1-1.4,1.4-2.2.3-.8.5-1.5.5-2.2,0-1.1-.4-1.8-1-2.1-.6-.3-1.5-.1-2.6.5l3.2-6.5v-1"/>
            </g>
          </g>
        </g>
      </g>
      <g>
        <path class="st10" d="M717.5,850c-21.7,12.5-56.9,12.5-78.6,0-21.7-12.5-21.7-32.9,0-45.4,21.7-12.5,56.9-12.5,78.6,0,21.7,12.5,21.7,32.9,0,45.4Z"/>
        <g>
          <path class="st6" d="M689.8,833.7v6.1c-1.3,7.2-12.9,3.3-18.1,3.3v-1.5c-9.9-1.6-28.4-2-32.8-9.9,0,0,.2-4.3.2-4.3l50.6,6.4Z"/>
          <path class="st11" d="M671,838.8c-8.7-.7-28.2-1.4-31.8-10.2-.8-1.8.8-4.1,3.8-4.8,9.5-1.2,16.6.9,24.4-5.6l20.9,2.3c4.8,16,2.7,22.7-17.3,18.3h0Z"/>
          <path class="st7" d="M721.9,827.1c1.4,7-4.5,8.6-13.5,8.1-4.4-1.4-8.1-3.6-11.4-6.1l.5-1.8c-6.7-5.4-31.7-10.4-24.9-20.9l47.3,14.2,2,6.4h0Z"/>
          <path class="st11" d="M721.9,815.4c4.1,13.5-2.1,19.9-18.1,14.5,0,0-9.2-6.4-9.2-6.4-8-3.8-18.1-7.2-23.4-15,.2-4.3,2.5-6.6,5.1-6.1,9.2.5,17.6,2.5,25.9,3.1l19.6,9.9Z"/>
          <g>
            <path class="st4" d="M690.5,603c-1,47.2-1.5,94.3,5.6,140.4,0,0,0,64.9,0,64.9,9.9,18,18.7,18.1,27,11.4,5.5-34.7,6.6-69.2,1.3-104,8.2-63.4,31.8-90.3-29.1-139.5l-4.8,26.8h0Z"/>
            <g class="st30">
              <path class="st16" d="M721.1,586.4c5.9,24.7,6.6,48.2-1.4,69.5,0,0-1.2,6.1-2.8,14.4-11.7,55.2,2.7,125.1-12.4,175.3,0,0-41.1-22-37.4-21.8,35.9,1.8,22.8-261.5,22.8-261.5l21.7,21.9,9.5,2.2Z"/>
            </g>
          </g>
          <g>
            <path class="st4" d="M657.5,613.9c-1,47.2-1.5,94.3,5.6,140.4,0,0,0,64.9,0,64.9,9.9,18,18.7,18.1,27,11.4,5.5-34.7,6.6-69.2,1.3-104l13.2-51.9s17.2-27.2,2.3-48.1c-15-20.9-25.9-10.4-25.9-10.4l-23.4-2.3h0Z"/>
            <g class="st39">
              <path class="st16" d="M685.8,577.8c7.7,46.8.5,101.5-10.2,147.3,0,0,3.3,132.8,3.3,132.8,0,0-72.5-20.4-70-23.2,2.5-2.8,11.2-219,11.2-219l58.5-20.6,7.1-17.3h0Z"/>
            </g>
          </g>
          <g>
            <path class="st8" d="M654.5,647.2c26.3,29.2,61.8,14.3,85-13.7-16.2-46.8-2.5-68.4,7.3-116.3-3.7-41.8-46.3-13.4-63.6,0-13.3,7.9-22.3,16.4-20.4,26.2l-8.4,103.8h0Z"/>
            <g class="st55">
              <path class="st15" d="M685.8,681.3c-8.3-21.5-13.9-52.4-9.7-76.5,1.3-9.3,2.9-18.4,4.9-24.5,5.7-17.4,2.8-53.4-10.7-52.4-40,69.1-40.4,48.9-44.3,131l59.8,22.4Z"/>
            </g>
          </g>
          <g>
            <path class="st5" d="M687,512.1s3.4-14.4-6.9-17.8c-9.8-8.7-9.2-38.5,2-52.9l37.6,21.6-5.6,25.9c-.8,5.5,1.2,10.8-4.6,14.5l-22.6,8.6h0Z"/>
            <g class="st40">
              <path class="st14" d="M675.6,498.7l4.6-4.3s12.5.7,15.5-3.8c0,0-.8,6.6-10.7,10.7l-9.4-2.5h0Z"/>
            </g>
          </g>
          <path class="st13" d="M714,442.9c12.6,10.3,15.3,21.6,11.4,33.3-3,9.1-12.5,26-24.9,16.5.3-2.4-.2-30-12-16,0,0,.5-7.5-4.8-10.7,0,0-10.2-11-9.7-15.8.8-26.2,27.1-18.5,39.9-7.4h0Z"/>
          <path class="st9" d="M685,515.4l.8-6.4c11.4-1.6,21-6.1,28.5-14.2,11.6,7.9-13.2,18.5-20.4,19.3-3.2.3-6.3.7-8.9,1.3h0Z"/>
          <g>
            <path class="st28" d="M602.3,554.8s-3.3-4.9-6.1-6.7c-2.8-1.8-8.8-6.8-8.8-6.8-3.3-3.9-10.1-10.9-6.2-18,3.6-3,10.1,6.8,10.9,7.2,0,0,3.7,2.8,3.7,2.8-1-2.3-3.1-5.9-3.1-8.4-.1-4,1.4-3.1,2.9-.5,1.8,4.1,6,6.2,8.1,10.1.6,2.6,6.1,8.6,7.8,10.6l-9.3,9.8h0Z"/>
            <path class="st12" d="M648.1,563.2l-7.6,3.2c-11-4.6-19.2-17.2-29.2-24.2-5.5,2.1-9.9,5.2-13,9.5,6.2,14.2,20.7,27.2,32.3,36.8,0,0,8.5,7.5,17.7,4,9.3-3.4,4-12.6,4-12.6l-4.2-16.7h0Z"/>
            <path class="st12" d="M677.7,533.5c21.3,27.1,6.3,44.2-29.3,58.9,0,0-12.6-7.9-8-26.2,0,0,6.1-6.8,10.7-11.8,3.2-3.5,5.9-7.4,8.2-11.5,4-8.2,8.7-17.4,18.4-9.3h0Z"/>
          </g>
        </g>
        <g>
          <path class="st57" d="M732.9,459.9s-1.9,9.4-21.2,9.4c-8.7,0-17.8-1.1-26.1-3.5-4.2-1.2-8.3-2.7-12.3-4.4-5.5-2.4-12.2-5.7-14.1-11.8-.9-3,.6-5.8,3-7.5,2.8-1.9,6.3-3.5,9.6-4.5,3.4-1,25.3-2.4,41.2,4.5,15.9,6.9,21.4,11.5,19.9,17.7Z"/>
          <path class="st32" d="M680,424.7c10.6-9.2,28.6-7,39.1.9,8.3,6.2,14.2,16.4,12.4,27-.2,1.5-.5,3.4-1.2,4.7,0,0-10.5,16.5-51.9-.6,0,0-9-3.8-11.4-9-.5-1-.4-2.1,0-3.1,2.4-5.3,7.9-15.5,13-19.9Z"/>
          <path class="st45" d="M680,424.7c10.6-9.2,28.6-7,39.1.9,2.3,1.7,4.4,3.7,6.2,6-.9-.9-1.9-1.7-2.8-2.5-10.5-8-28.5-10-39.3-.3-5.1,4.6-10.9,15.3-13.3,20.9-.2.4-.2.8-.3,1.2-1-1-1.9-2.1-2.5-3.3-.5-1-.4-2.1,0-3.1,2.4-5.3,7.9-15.5,13-19.9Z"/>
        </g>
      </g>
    </g>
  </g>
</svg>