<?xml version="1.0" encoding="UTF-8"?>
<svg xmlns="http://www.w3.org/2000/svg" version="1.1" xmlns:xlink="http://www.w3.org/1999/xlink" viewBox="0 0 825.1 914.6">
  <!-- Generator: Adobe Illustrator 29.3.1, SVG Export Plug-In . SVG Version: 2.1.0 Build 151)  -->
  <defs>
    <style>
      .st0 {
        fill: #7e87a8;
      }

      .st1, .st2, .st3 {
        clip-rule: evenodd;
      }

      .st1, .st4 {
        fill: #244267;
      }

      .st5, .st6, .st7, .st8, .st9, .st10, .st11, .st12, .st13, .st4, .st14, .st15, .st16 {
        fill-rule: evenodd;
      }

      .st5, .st2 {
        fill: #fed1a5;
      }

      .st17 {
        fill: #9fa7b0;
      }

      .st18 {
        clip-path: url(#clippath-6);
      }

      .st19 {
        clip-path: url(#clippath-4);
      }

      .st6 {
        fill: #26130f;
      }

      .st20 {
        stroke-width: .8px;
      }

      .st20, .st21, .st22, .st23, .st24, .st25, .st26 {
        fill: #fff;
        stroke: #231f20;
        stroke-miterlimit: 10;
      }

      .st7 {
        fill: #27120f;
      }

      .st27 {
        fill: #cfcece;
      }

      .st21 {
        stroke-width: .5px;
      }

      .st28 {
        fill: #949293;
      }

      .st8, .st3 {
        fill: #92a6cd;
      }

      .st22 {
        stroke-width: .8px;
      }

      .st9 {
        fill: #253c7a;
      }

      .st10 {
        fill: #818181;
        mix-blend-mode: multiply;
        opacity: .4;
      }

      .st29, .st14 {
        fill: #f1b986;
      }

      .st24 {
        stroke-width: .7px;
      }

      .st30 {
        fill: none;
      }

      .st31 {
        fill: #ffcc04;
      }

      .st32 {
        clip-path: url(#clippath-1);
      }

      .st11 {
        fill: #462d1b;
      }

      .st33 {
        isolation: isolate;
      }

      .st34 {
        clip-path: url(#clippath-5);
      }

      .st35 {
        clip-path: url(#clippath-3);
      }

      .st12 {
        fill: #7387be;
      }

      .st36 {
        fill: #b6b4b5;
      }

      .st37 {
        fill: #919090;
      }

      .st38 {
        fill: #17224d;
      }

      .st13 {
        fill: #010101;
      }

      .st39 {
        fill: #ffdb7c;
      }

      .st25 {
        stroke-width: .6px;
      }

      .st40 {
        fill: #bfbbbd;
      }

      .st41 {
        fill: #858c92;
      }

      .st42 {
        fill: #6d6d6d;
      }

      .st43 {
        fill: #a3a1a2;
      }

      .st44 {
        fill: #9b9a9b;
      }

      .st45 {
        clip-path: url(#clippath-2);
      }

      .st46 {
        fill: #6f7794;
      }

      .st26 {
        stroke-width: .9px;
      }

      .st47 {
        fill: #adbad4;
      }

      .st48 {
        fill: #f9b31d;
      }

      .st15 {
        fill: #637fb5;
      }

      .st49 {
        clip-path: url(#clippath);
      }

      .st50 {
        fill: #e4e3e3;
      }

      .st16 {
        fill: #10223c;
      }
    </style>
    <clipPath id="clippath">
      <path class="st30" d="M132.1,628.5l11.8,7.1c-3.8-2.3-6.2-7.2-6.3-14.2l-11.8-7.1c0,7,2.4,11.9,6.3,14.2Z"/>
    </clipPath>
    <clipPath id="clippath-1">
      <path class="st30" d="M499,82.3l-11.8-7.1c-3.9-2.3-9.3-2-15.3,1.5l11.8,7.1c6-3.6,11.4-3.9,15.3-1.5Z"/>
    </clipPath>
    <clipPath id="clippath-2">
      <path class="st38" d="M158.2,278.1l-11.8-7.1c-11.8,7.1-21.4,24.2-21.4,38.3l11.8,7.1c0-14.1,9.5-31.2,21.4-38.3Z"/>
    </clipPath>
    <clipPath id="clippath-3">
      <path class="st1" d="M469.1,548.3c-1,47.2-1.5,94.3,5.6,140.4,0,0,0,64.9,0,64.9,9.9,18,18.7,18.1,27,11.4,5.5-34.7,6.6-69.2,1.3-104,8.2-63.4,31.8-90.3-29.1-139.5l-4.8,26.8h0Z"/>
    </clipPath>
    <clipPath id="clippath-4">
      <path class="st1" d="M436.1,559.2c-1,47.2-1.5,94.3,5.6,140.4,0,0,0,64.9,0,64.9,9.9,18,18.7,18.1,27,11.4,5.5-34.7,6.6-69.2,1.3-104l13.2-51.9s17.2-27.2,2.3-48.1c-15-20.9-25.9-10.4-25.9-10.4l-23.4-2.3h0Z"/>
    </clipPath>
    <clipPath id="clippath-5">
      <path class="st3" d="M433.1,592.5c26.3,29.2,61.8,14.3,85-13.7-16.2-46.8-2.5-68.4,7.3-116.3-3.7-41.8-46.3-13.4-63.6,0-13.3,7.9-22.3,16.4-20.4,26.2l-8.4,103.8h0Z"/>
    </clipPath>
    <clipPath id="clippath-6">
      <path class="st2" d="M465.7,457.4s3.4-14.4-6.9-17.8c-9.8-8.7-9.2-38.5,2-52.9l37.6,21.6-5.6,25.9c-.8,5.5,1.2,10.8-4.6,14.5l-22.6,8.6h0Z"/>
    </clipPath>
  </defs>
  <g class="st33">
    <g id="Layer_2">
      <g>
        <g>
          <g>
            <g>
              <path class="st44" d="M132.6,618.3l-11.8-7.1c0,7,2.4,11.9,6.3,14.2l11.8,7.1c-3.8-2.3-6.2-7.2-6.3-14.2h0Z"/>
              <polygon class="st44" points="132.6 590.5 120.8 583.4 120.9 611.3 132.6 618.3 132.6 590.5"/>
              <path class="st44" d="M494,79.3l-11.8-7.1c-3.9-2.3-9.3-2-15.3,1.5l11.8,7.1c6-3.6,11.4-3.9,15.3-1.5h0Z"/>
              <polygon class="st44" points="131.9 313.3 120.1 306.3 120.8 583.4 132.6 590.5 131.9 313.3"/>
              <polygon class="st44" points="478.8 80.8 467 73.8 141.5 268 153.2 275.1 478.8 80.8"/>
              <path class="st44" d="M153.2,275.1l-11.8-7.1c-11.8,7.1-21.4,24.2-21.4,38.3l11.8,7.1c0-14.1,9.5-31.2,21.4-38.3h0Z"/>
            </g>
            <g>
              <g>
                <path class="st40" d="M226.9,611.9l79.8-47.9c6.5-3.9,14.6-3.9,21.2,0l77.5,46.2,12.7.7v10h0c0,1.8-.9,3.6-2.6,4.6l-87.7,52.7c-6.5,3.9-14.6,3.9-21.2,0l-87.6-52.3c-1.7-1-2.6-2.8-2.6-4.6h0v-9.9l10.4.6Z"/>
                <path class="st27" d="M327.9,554l87.6,52.3c3.4,2,3.4,7.1,0,9.2l-87.7,52.7c-6.5,3.9-14.6,3.9-21.2,0l-87.6-52.3c-3.4-2-3.4-7.1,0-9.2l87.7-52.7c6.5-3.9,14.6-3.9,21.2,0Z"/>
                <polygon class="st36" points="239.6 628.2 345.5 564.5 371.7 421.1 265.8 484.7 239.6 628.2"/>
                <polygon class="st43" points="349.4 543.4 371.7 421.1 265.8 484.7 243.6 606.5 349.4 543.4"/>
                <path class="st28" d="M261.6,472.5l-27.7,152.3,5.7,3.4,26.2-143.5c-2.6-3.2-4.4-7.6-4.3-11.3,0-.3,0-.7,0-1Z"/>
                <path class="st41" d="M369.7,404.9c1.5-.9,3.5-.7,5.7.6h.2c4.3,2.9,7.7,9.4,7.5,14.5,0,2.4-.9,4.1-2.3,4.9l-105.9,63.6c1.3-.8,2.2-2.5,2.3-4.9.2-5.1-3.2-11.5-7.5-14.3l-.2-.2c-2.2-1.3-4.3-1.5-5.7-.6l105.9-63.6Z"/>
                <path class="st17" d="M269.6,469.1c-4-2.4-7.4-.9-8,3.3,0,.3,0,.6,0,1-.1,3.7,1.6,8.1,4.3,11.3,1,1.2,2.1,2.2,3.3,3,.1,0,.2.1.3.2,4.2,2.5,7.7.6,7.9-4.3.2-5.1-3.2-11.5-7.5-14.3,0,0-.2,0-.2-.1Z"/>
              </g>
              <g>
                <g class="st33">
                  <g class="st33">
                    <g class="st49">
                      <path class="st44" d="M137.6,621.3l-11.8-7.1c0,7,2.4,11.9,6.3,14.2l11.8,7.1c-3.8-2.3-6.2-7.2-6.3-14.2h0Z"/>
                    </g>
                  </g>
                  <polygon class="st44" points="137.6 593.5 125.8 586.4 125.9 614.3 137.6 621.3 137.6 593.5"/>
                  <polygon class="st37" points="506 373.7 494.2 366.6 125.8 586.4 137.6 593.5 506 373.7"/>
                  <path class="st50" d="M137.6,593.5v27.9c.1,14.1,9.7,19.7,21.6,12.7l325.5-194.2c11.8-7.1,21.4-24.2,21.4-38.3v-27.9c0,0-368.5,219.8-368.5,219.8Z"/>
                  <path class="st50" d="M321,499.4c4.7-2.8,8.5-.6,8.6,5,0,5.6-3.8,12.4-8.5,15.2-4.7,2.8-8.5.6-8.6-5,0-5.6,3.8-12.4,8.5-15.2Z"/>
                </g>
                <g class="st33">
                  <g class="st33">
                    <g class="st32">
                      <path class="st46" d="M499,82.3l-11.8-7.1c-3.9-2.3-9.3-2-15.3,1.5l11.8,7.1c6-3.6,11.4-3.9,15.3-1.5h0Z"/>
                    </g>
                  </g>
                  <polygon class="st46" points="136.9 316.3 125.1 309.3 125.8 586.4 137.6 593.5 136.9 316.3"/>
                  <polygon class="st46" points="483.8 83.8 472 76.8 146.5 271 158.2 278.1 483.8 83.8"/>
                  <g class="st33">
                    <path class="st38" d="M158.2,278.1l-11.8-7.1c-11.8,7.1-21.4,24.2-21.4,38.3l11.8,7.1c0-14.1,9.5-31.2,21.4-38.3Z"/>
                    <g class="st45">
                      <g class="st33">
                        <path class="st46" d="M158.2,278.1l-11.8-7.1c-11.8,7.1-21.4,24.2-21.4,38.3l11.8,7.1c0-14.1,9.5-31.2,21.4-38.3h0Z"/>
                      </g>
                    </g>
                  </g>
                  <path class="st0" d="M158.2,278.1c-11.8,7.1-21.4,24.2-21.4,38.3l.7,277.1,368.4-219.8-.7-277.1c0-14.1-9.7-19.7-21.5-12.7l-325.5,194.2Z"/>
                </g>
              </g>
            </g>
          </g>
          <path class="st47" d="M499,97.7v268.1l-355.2,211.9v-263.5c0-10.6,5.5-20.5,14.4-25.8L488.5,91.4c4.7-2.8,10.5.7,10.5,6.3Z"/>
        </g>
        <g>
          <line class="st23" x1="164.9" y1="546.1" x2="479.1" y2="350.3"/>
          <line class="st23" x1="164.9" y1="516.8" x2="479.1" y2="321"/>
          <line class="st23" x1="164.9" y1="487.5" x2="479.1" y2="291.6"/>
          <line class="st23" x1="164.9" y1="458.2" x2="479.1" y2="262.3"/>
          <line class="st23" x1="164.9" y1="428.9" x2="479.1" y2="233"/>
          <line class="st23" x1="164.9" y1="399.6" x2="479.1" y2="203.7"/>
          <line class="st23" x1="164.9" y1="370.3" x2="479.1" y2="174.4"/>
        </g>
        <path class="st23" d="M479.1,132.7l-314.2,195.9c-1.3,1.3,0,18.3,0,18.3l314.2-195.9v-18.3Z"/>
        <g>
          <line class="st23" x1="200.5" y1="330.1" x2="200.5" y2="539"/>
          <line class="st26" x1="245.2" y1="302" x2="245.2" y2="510.9"/>
          <line class="st22" x1="289.8" y1="273.8" x2="289.8" y2="482.7"/>
          <line class="st20" x1="334.4" y1="245.7" x2="334.4" y2="454.6"/>
          <line class="st24" x1="379.1" y1="217.6" x2="379.1" y2="426.5"/>
          <line class="st25" x1="423.7" y1="189.5" x2="423.7" y2="398.4"/>
          <line class="st21" x1="468.4" y1="161.3" x2="468.4" y2="370.2"/>
        </g>
      </g>
      <g>
        <path class="st10" d="M496.1,795.3c-21.7,12.5-56.9,12.5-78.6,0-21.7-12.5-21.7-32.9,0-45.4,21.7-12.5,56.9-12.5,78.6,0,21.7,12.5,21.7,32.9,0,45.4Z"/>
        <g>
          <path class="st6" d="M468.5,779v6.1c-1.3,7.2-12.9,3.3-18.1,3.3v-1.5c-9.9-1.6-28.4-2-32.8-9.9,0,0,.2-4.3.2-4.3l50.6,6.4Z"/>
          <path class="st11" d="M449.6,784.1c-8.7-.7-28.2-1.4-31.8-10.2-.8-1.8.8-4.1,3.8-4.8,9.5-1.2,16.6.9,24.4-5.6l20.9,2.3c4.8,16,2.7,22.7-17.3,18.3h0Z"/>
          <path class="st7" d="M500.5,772.3c1.4,7-4.5,8.6-13.5,8.1-4.4-1.4-8.1-3.6-11.4-6.1l.5-1.8c-6.7-5.4-31.7-10.4-24.9-20.9l47.3,14.2,2,6.4h0Z"/>
          <path class="st11" d="M500.5,760.6c4.1,13.5-2.1,19.9-18.1,14.5,0,0-9.2-6.4-9.2-6.4-8-3.8-18.1-7.2-23.4-15,.2-4.3,2.5-6.6,5.1-6.1,9.2.5,17.6,2.5,25.9,3.1l19.6,9.9Z"/>
          <g>
            <path class="st4" d="M469.1,548.3c-1,47.2-1.5,94.3,5.6,140.4,0,0,0,64.9,0,64.9,9.9,18,18.7,18.1,27,11.4,5.5-34.7,6.6-69.2,1.3-104,8.2-63.4,31.8-90.3-29.1-139.5l-4.8,26.8h0Z"/>
            <g class="st35">
              <path class="st16" d="M499.7,531.7c5.9,24.7,6.6,48.2-1.4,69.5,0,0-1.2,6.1-2.8,14.4-11.7,55.2,2.7,125.1-12.4,175.3,0,0-41.1-22-37.4-21.8,35.9,1.8,22.8-261.5,22.8-261.5l21.7,21.9,9.5,2.2Z"/>
            </g>
          </g>
          <g>
            <path class="st4" d="M436.1,559.2c-1,47.2-1.5,94.3,5.6,140.4,0,0,0,64.9,0,64.9,9.9,18,18.7,18.1,27,11.4,5.5-34.7,6.6-69.2,1.3-104l13.2-51.9s17.2-27.2,2.3-48.1c-15-20.9-25.9-10.4-25.9-10.4l-23.4-2.3h0Z"/>
            <g class="st19">
              <path class="st16" d="M464.4,523c7.7,46.8.5,101.5-10.2,147.3,0,0,3.3,132.8,3.3,132.8,0,0-72.5-20.4-70-23.2,2.5-2.8,11.2-219,11.2-219l58.5-20.6,7.1-17.3h0Z"/>
            </g>
          </g>
          <g>
            <path class="st8" d="M433.1,592.5c26.3,29.2,61.8,14.3,85-13.7-16.2-46.8-2.5-68.4,7.3-116.3-3.7-41.8-46.3-13.4-63.6,0-13.3,7.9-22.3,16.4-20.4,26.2l-8.4,103.8h0Z"/>
            <g class="st34">
              <path class="st15" d="M464.4,626.6c-8.3-21.5-13.9-52.4-9.7-76.5,1.3-9.3,2.9-18.4,4.9-24.5,5.7-17.4,2.8-53.4-10.7-52.4-40,69.1-40.4,48.9-44.3,131l59.8,22.4Z"/>
            </g>
          </g>
          <g>
            <path class="st5" d="M465.7,457.4s3.4-14.4-6.9-17.8c-9.8-8.7-9.2-38.5,2-52.9l37.6,21.6-5.6,25.9c-.8,5.5,1.2,10.8-4.6,14.5l-22.6,8.6h0Z"/>
            <g class="st18">
              <path class="st14" d="M454.2,443.9l4.6-4.3s12.5.7,15.5-3.8c0,0-.8,6.6-10.7,10.7l-9.4-2.5h0Z"/>
            </g>
          </g>
          <path class="st13" d="M492.6,388.2c12.6,10.3,15.3,21.6,11.4,33.3-3,9.1-12.5,26-24.9,16.5.3-2.4-.2-30-12-16,0,0,.5-7.5-4.8-10.7,0,0-10.2-11-9.7-15.8.8-26.2,27.1-18.5,39.9-7.4h0Z"/>
          <path class="st9" d="M463.6,460.7l.8-6.4c11.4-1.6,21-6.1,28.5-14.2,11.6,7.9-13.2,18.5-20.4,19.3-3.2.3-6.3.7-8.9,1.3h0Z"/>
          <g>
            <path class="st29" d="M444,421.4s5-3.1,6.8-5.9c1.8-2.8,6.9-8.6,6.9-8.6,4-3.2,11.1-9.9,18.1-5.8,2.9,3.6-7,9.9-7.4,10.8,0,0-2.9,3.7-2.9,3.7,2.4-1,5.9-2.9,8.5-2.9,4,0,3,1.4.5,2.9-4.1,1.7-6.4,5.9-10.3,7.9-2.6.5-8.7,5.9-10.7,7.6l-9.6-9.6h0Z"/>
            <path class="st12" d="M434.7,467l-3-7.7c4.9-10.9,17.6-18.8,24.8-28.7-2-5.6-5-10-9.2-13.2-14.4,5.9-27.6,20.1-37.5,31.5,0,0-7.6,8.3-4.4,17.7,3.2,9.4,12.6,4.3,12.6,4.3l16.7-3.8h0Z"/>
            <path class="st12" d="M463.7,497.2c-27.5,20.7-44.4,5.3-58.2-30.5,0,0,8.1-12.4,26.4-7.5,0,0,6.7,6.3,11.6,10.9,3.4,3.2,7.3,6.1,11.3,8.5,8.1,4.2,17.3,9.1,8.9,18.6h0Z"/>
          </g>
        </g>
        <g>
          <path class="st48" d="M511.5,405.2s-1.9,9.4-21.2,9.4c-8.7,0-17.8-1.1-26.1-3.5-4.2-1.2-8.3-2.7-12.3-4.4-5.5-2.4-12.2-5.7-14.1-11.8-.9-3,.6-5.8,3-7.5,2.8-1.9,6.3-3.5,9.6-4.5,3.4-1,25.3-2.4,41.2,4.5,15.9,6.9,21.4,11.5,19.9,17.7Z"/>
          <path class="st31" d="M458.6,370c10.6-9.2,28.6-7,39.1.9,8.3,6.2,14.2,16.4,12.4,27-.2,1.5-.5,3.4-1.2,4.7,0,0-10.5,16.5-51.9-.6,0,0-9-3.8-11.4-9-.5-1-.4-2.1,0-3.1,2.4-5.3,7.9-15.5,13-19.9Z"/>
          <path class="st39" d="M458.6,370c10.6-9.2,28.6-7,39.1.9,2.3,1.7,4.4,3.7,6.2,6-.9-.9-1.9-1.7-2.8-2.5-10.5-8-28.5-10-39.3-.3-5.1,4.6-10.9,15.3-13.3,20.9-.2.4-.2.8-.3,1.2-1-1-1.9-2.1-2.5-3.3-.5-1-.4-2.1,0-3.1,2.4-5.3,7.9-15.5,13-19.9Z"/>
        </g>
      </g>
      <g>
        <path class="st42" d="M550.5,360.7c-.5-10.8-16.4-17.1-24.7-19.9-6.4-2.2-12.9-3.4-19.4-3.7-7.9-5.7-17.1-9.9-26.4-11.9-10-2.2-24.6-3.6-33.3,3.2-7.1,5.6-5.6,13.5.2,19.5,2.6,2.7,5.6,5.2,8.9,7.5-4.7,4.2-9,9.1-12.7,14.6-.7,1.1.9,2.3,1.7,1.2,3.6-5.5,7.9-10.4,12.8-14.6,21.3,14.3,53.1,20.5,76.3,18,7.4-.8,17.1-4.6,16.7-13.8ZM453.2,350.4c-2.2-1.8-7.5-6.3-8.6-8.8-4.6-11.2,7.5-14.5,14.9-15.8,6.2-1.1,13.9,0,19.9,1.5,8.2,2,15.5,5.3,22.1,9.6-16.1.3-31.4,6.3-43.9,16.7-1.5-1-3-2.1-4.5-3.2ZM513.2,372c-7.8-.7-15.6-2.2-23.1-4.4-10.2-2.9-21.3-7.1-30.6-12.9,12.7-10.3,28.7-16.1,45.5-15.5,11,8.3,19.5,19.8,25.3,33,.2.4.8.2.7-.2-3.1-12.9-10.9-24.1-21.1-32.4.6,0,1.2.1,1.8.2,7.8,1.1,15.1,3.5,22.1,7.1,3.1,1.6,17.8,7.2,13.4,17.4-4.3,10.2-28.3,8.1-34,7.6Z"/>
        <path class="st42" d="M450.6,330.4c-5.3,9.4,4.8,23.1,10.4,30,4.3,5.3,9.2,9.8,14.4,13.4,3.7,9.1,9.2,17.4,16.1,24.1,7.3,7.1,19,16.1,29.9,14.9,9-.9,11.9-8.5,10.2-16.6-.8-3.7-2-7.4-3.6-11.1,6.3-1.1,12.5-2.9,18.5-5.6,1.2-.5.4-2.4-.8-1.9-6,2.7-12.2,4.6-18.6,5.6-10.5-23.4-34.1-45.6-55.1-55.7-6.7-3.3-17-5.2-21.5,2.8ZM527.7,390.7c1,2.7,3,9.4,2.6,12-2,11.9-14,8.3-21,5.4-5.8-2.4-11.8-7.4-16.1-11.8-5.9-6-10.4-12.7-13.6-19.9,13.8,8.3,30,11.3,46.1,9.1.8,1.7,1.5,3.4,2.1,5.1ZM488.3,340.6c6.2,4.8,12,10.1,17.3,16,7.1,7.9,14.3,17.3,19.1,27.1-16.3,2-32.9-1.6-46.7-11-4.9-12.9-6-27.1-3.9-41.4,0-.4-.6-.6-.7-.2-4.2,12.5-3.5,26.2.7,38.7-.5-.4-1-.7-1.5-1.1-6-5-10.9-11-14.9-17.7-1.8-3-11.2-15.6-2.1-21.9,9.1-6.3,28.3,8.1,32.9,11.6Z"/>
        <path class="st42" d="M450.6,402.3c8.4,6.7,23.6-1.1,31.3-5.5,5.9-3.4,11.1-7.5,15.6-12.1,9.5-2.2,18.7-6.3,26.4-12,8.2-6.1,18.9-16.2,19.5-27.2.5-9-6.5-13.1-14.8-12.7-3.8.2-7.6.8-11.5,1.7,0-6.4-.9-12.8-2.6-19.2-.3-1.3-2.3-.8-2,.5,1.7,6.4,2.6,12.8,2.6,19.2-24.8,6.6-50.5,26.4-63.8,45.5-4.3,6.1-7.8,15.9-.7,21.6ZM522.5,335.9c2.8-.5,9.7-1.5,12.3-.6,11.5,3.9,5.9,15.2,2,21.6-3.3,5.4-9.2,10.4-14.2,14-6.9,4.9-14.2,8.2-21.8,10.3,10.3-12.3,16-27.8,16.3-44,1.8-.5,3.6-.9,5.4-1.2ZM466.7,366.8c5.7-5.4,11.9-10.2,18.5-14.5,8.9-5.8,19.3-11.3,29.8-14.5-.6,16.4-6.9,32.2-18.4,44.4-13.5,2.8-27.7,1.6-41.5-2.7-.4-.1-.7.5-.3.7,11.7,6.2,25.3,7.7,38.3,5.5-.5.4-.9.9-1.4,1.3-5.9,5.1-12.6,9-19.9,11.9-3.3,1.3-17.1,8.6-22-1.4-4.8-10,12.6-26.6,16.7-30.6Z"/>
      </g>
    </g>
  </g>
</svg>